<svg version="1.1" xmlns="http://www.w3.org/2000/svg" xmlns:xlink="http://www.w3.org/1999/xlink" width="1260" height="594" viewBox="0,0,1260,594"><g transform="translate(230.20498,30.46998) scale(1.11054,1.11054)"><g id="wick_project_bg" fill-opacity="0" fill="#ffffff" fill-rule="nonzero" stroke="none" stroke-width="1" stroke-linecap="butt" stroke-linejoin="miter" stroke-miterlimit="10" stroke-dasharray="" stroke-dashoffset="0" font-family="none" font-weight="none" font-size="none" text-anchor="none" style="mix-blend-mode: normal"><rect x="0" y="0" width="720" height="480"/></g><g data-paper-data="{&quot;wickUUID&quot;:&quot;0553353f-e796-491c-adaa-a6b1123bec54&quot;,&quot;wickType&quot;:&quot;clipsandpaths&quot;}" fill="none" fill-rule="evenodd" stroke="none" stroke-width="1" stroke-linecap="butt" stroke-linejoin="miter" stroke-miterlimit="10" stroke-dasharray="" stroke-dashoffset="0" font-family="none" font-weight="none" font-size="none" text-anchor="none" style="mix-blend-mode: normal"><path d="M360.05652,288.84924c-0.107,1.79733 -0.06519,3.7264 -0.01419,3.7774c0.051,0.05067 1.58642,0.32632 2.39409,0.03999c2.871,-1.01833 6.0799,-1.21937 10.8609,-0.64404c8.015,0.96433 11.2745,1.80899 16.8335,4.33666c1.75833,0.79967 3.79213,1.5717 4.34446,1.68237c0.953,0.19067 1.92978,-0.50457 2.13778,-1.72057c0.12067,-0.705 0.34194,-3.41673 0.46094,-5.77573c0.20767,-4.11933 -0.34711,-5.0737 -0.95878,-4.8837c-0.35,0.109 -3.83504,0.59528 -7.27737,1.14961c-6.954,1.12033 -12.30136,1.32546 -14.20703,0.54513c-0.61833,-0.253 -2.02447,-0.54919 -3.3078,-0.67586c-2.05767,-0.203 -6.70966,-1.05147 -9.19866,-1.67814l-1.82647,0.33793z" data-paper-data="{&quot;wickUUID&quot;:&quot;6791f59a-8662-4ca5-8dd6-3999d0321ec8&quot;,&quot;wickType&quot;:&quot;path&quot;,&quot;originalStyle&quot;:{&quot;strokeColor&quot;:null,&quot;fillColor&quot;:[&quot;Color&quot;,0.50196,0,1],&quot;strokeWidth&quot;:1}}" fill="#8000ff"/><path d="M362.70878,344.18003c-5.902,1.92367 -6.62043,2.60412 -8.10743,7.29545c-1.13633,3.58467 -0.95129,6.69864 0.11971,7.10964c0.85133,0.32667 5.99026,-0.46849 7.54859,-1.24749c2.32733,-1.16333 5.31893,-5.64081 6.3336,-9.53614c0.532,-2.04167 0.29857,-5.22524 -0.11143,-5.19524c-0.13733,0.00967 -3.22504,0.73978 -5.78304,1.57378z" data-paper-data="{&quot;wickUUID&quot;:&quot;aa147abe-cc4b-4787-92e7-d5b539470727&quot;,&quot;wickType&quot;:&quot;path&quot;,&quot;originalStyle&quot;:{&quot;strokeColor&quot;:null,&quot;fillColor&quot;:[&quot;Color&quot;,0,0,0],&quot;strokeWidth&quot;:1}}" id="aa147abe-cc4b-4787-92e7-d5b539470727" fill="#000000"/><path d="M354.83063,254.01409c-1.53594,1.13634 -3.41435,3.37712 -3.46505,4.20891c-0.02775,0.44881 0.43688,1.65242 1.22499,2.1399c1.21735,0.75314 1.68472,0.8276 1.04525,1.39178c-0.19301,0.17029 -1.01669,0.02757 -2.42008,0.09676c-2.95653,0.14571 -4.49145,0.66331 -4.72691,1.58708c-0.09198,0.35996 -0.76126,1.66642 -0.90937,1.74901c-0.30418,0.16967 0.72498,2.84252 1.52705,4.00386c0.46732,0.67683 1.3573,1.07109 2.54848,0.87574c0.74237,-0.12156 3.13104,-0.39791 4.97817,-0.56125c6.26554,-0.55494 7.64479,-1.49645 7.47018,-3.86297c-0.15882,-2.1491 -1.71881,-8.2173 -2.71979,-10.25644c-1.02383,-2.08498 -2.81774,-2.65589 -4.55292,-1.37238z" data-paper-data="{&quot;wickUUID&quot;:&quot;7e476134-8b50-403b-ae1d-bb78b0ff33d5&quot;,&quot;wickType&quot;:&quot;path&quot;,&quot;originalStyle&quot;:{&quot;strokeColor&quot;:null,&quot;fillColor&quot;:[&quot;Color&quot;,1,1,1],&quot;strokeWidth&quot;:1}}" id="7e476134-8b50-403b-ae1d-bb78b0ff33d5" fill="#ffffff"/><path d="M422.94185,178.97008c-7.41619,2.1048 -14.97534,4.85308 -22.96692,8.34499c-6.21705,2.71651 -7.8429,3.75812 -9.67412,6.25667c-1.76329,2.40562 -1.97576,2.74291 -3.51707,2.6465c-1.20098,-0.07512 -1.45935,-0.76686 -1.37519,-2.11223c0.03117,-0.49835 0.54465,-1.38798 1.15867,-2.43168c1.29305,-2.19757 1.3808,-2.85554 0.77006,-4.71028c-0.3054,-0.92688 -1.51839,-2.23515 -2.05312,-2.40554c-1.01119,-0.32208 -9.91666,0.71482 -11.1723,1.26784c-1.27417,0.56088 -2.32815,1.93919 -13.95695,18.80846c-5.52331,8.01249 -11.47687,16.5171 -13.2216,18.8878c-1.74507,2.37069 -3.65282,5.14866 -4.11548,5.93498c-0.8944,1.52146 -1.00985,2.8235 -0.44029,6.54331l1.55363,2.51946l3.50203,-4.04686c1.81694,-2.13674 4.38532,-4.88721 5.82413,-6.22199c2.5511,-2.36735 2.36534,-2.28263 5.55122,-3.08898c5.27498,-1.3353 8.67509,-1.72022 12.92475,-1.45908c4.66819,0.28699 12.97934,1.51569 15.53461,2.35485c6.78448,2.22789 11.43712,7.48269 15.79003,17.7705c2.54247,6.00945 3.3978,9.53424 3.50187,13.9734c0.04744,2.02358 0.1059,4.20831 0.14861,5.01522l1.36352,2.16587l2.15587,-2.86012c8.1023,-11.17265 7.59939,-10.62464 10.07173,-11.67935c2.76571,-1.17964 6.94981,-2.5903 11.16957,-3.79488c3.56754,-1.0186 3.60282,-1.03518 4.96254,-6.43449c1.02739,-4.08015 0.42318,-5.12104 -1.43172,-5.23406c-2.94523,-0.17921 -7.81354,0.14853 -14.16043,1.01633c-5.85708,0.80059 -6.14201,0.84347 -6.95201,0.32155c-0.73681,-0.47459 -0.24497,0.21686 -0.24654,-1.15692c-0.00275,-2.08123 0.6025,-3.5966 3.83214,-9.57698c3.40836,-6.31187 6.34156,-10.50868 9.86747,-14.12929l2.91424,-3.0237l0.0467,-2.48619c-0.03388,-1.12964 -0.08631,-4.19537 -0.11471,-6.76883c-0.07903,-7.11414 -0.80771,-16.41607 -1.50762,-19.25863c-0.166,-0.67267 -1.28894,-1.86537 -1.6289,-1.88196c-0.30598,-0.01513 -2.33181,0.43024 -4.10842,0.93431z" data-paper-data="{&quot;wickUUID&quot;:&quot;455124ce-212a-476e-9aa5-6ba07cbab878&quot;,&quot;wickType&quot;:&quot;path&quot;,&quot;originalStyle&quot;:{&quot;strokeColor&quot;:null,&quot;fillColor&quot;:[&quot;Color&quot;,1,0.50196,0],&quot;strokeWidth&quot;:1}}" id="455124ce-212a-476e-9aa5-6ba07cbab878" fill="#ff8000"/><path d="M391.95428,274.74058c-0.00679,0.10846 0.2324,2.12202 0.78166,3.27756l1.21809,2.39519l1.98093,-1.2468c0.82154,-1.02939 0.66198,-2.76073 -0.18237,-3.38499c-0.80509,-0.59509 -3.77937,-1.3437 -3.79831,-1.04096z" data-paper-data="{&quot;wickUUID&quot;:&quot;659e021e-0999-4793-b960-d516462a47cd&quot;,&quot;wickType&quot;:&quot;path&quot;,&quot;originalStyle&quot;:{&quot;strokeColor&quot;:null,&quot;fillColor&quot;:[&quot;Color&quot;,1,1,1],&quot;strokeWidth&quot;:1}}" id="659e021e-0999-4793-b960-d516462a47cd" fill="#ffffff"/><path d="M383.87874,274.31637c-1.69696,0.50171 -1.90245,1.25764 -1.25566,4.92818l0.82468,3.10708l3.04312,-0.65063c1.28734,-0.3924 2.88177,-1.38019 2.88941,-1.50228c0.00761,-0.12176 -0.58573,-2.02611 -1.2726,-3.52859l-1.47511,-3.03775z" data-paper-data="{&quot;wickUUID&quot;:&quot;0affb24a-ecf4-4407-9d74-0c685feb918a&quot;,&quot;wickType&quot;:&quot;path&quot;,&quot;originalStyle&quot;:{&quot;strokeColor&quot;:null,&quot;fillColor&quot;:[&quot;Color&quot;,1,1,1],&quot;strokeWidth&quot;:1}}" id="0affb24a-ecf4-4407-9d74-0c685feb918a" fill="#ffffff"/><path d="M375.99976,278.09519c-1.63545,1.97442 -2.23393,4.06875 -1.6662,4.486c0.33943,0.24935 4.44696,0.58821 4.81544,0.35176c0.03201,-0.02037 0.18532,-1.97014 -0.04222,-3.36206l-0.72969,-3.07237z" data-paper-data="{&quot;wickUUID&quot;:&quot;51b02c04-3655-4bae-918d-64a4da27629a&quot;,&quot;wickType&quot;:&quot;path&quot;,&quot;originalStyle&quot;:{&quot;strokeColor&quot;:null,&quot;fillColor&quot;:[&quot;Color&quot;,1,1,1],&quot;strokeWidth&quot;:1}}" id="51b02c04-3655-4bae-918d-64a4da27629a" fill="#ffffff"/><path d="M367.57325,227.23323c-3.63455,0.3598 -8.61381,1.3482 -9.96662,1.93289c-1.16126,0.50181 -5.87491,5.53805 -9.10047,9.76059c-1.46707,1.92016 -2.23095,3.38406 -3.08119,5.9403c-1.54331,4.63937 -2.02664,6.70221 -2.17616,9.09253c-0.13261,2.12019 0.7111,7.62266 1.51943,9.83712c0.42087,1.15252 1.85091,1.6175 1.93057,0.76047c0.04563,-0.48911 0.05225,-0.93004 0.34105,-1.18484c0.58925,-0.51956 3.11828,-0.95356 4.98916,-0.87193c0.67816,0.02939 1.89544,-0.19455 2.2462,-0.30788c0.51403,-0.1659 0.56088,-1.48583 -0.52489,-1.88673c-1.62409,-0.59922 -2.23091,-1.20178 -1.83115,-2.45628c0.15582,-0.4889 0.93565,-1.19735 2.10266,-2.29831c1.86692,-1.76122 1.94925,-1.82494 3.03047,-1.75731c0.67568,0.04226 0.49185,-0.1381 0.78061,0.10974c0.73,0.62612 2.36391,4.79706 3.12779,8.21875c1.28271,5.74729 1.13331,5.85652 -4.95002,6.65965c-2.31527,0.30573 -4.59597,0.36843 -5.60311,0.31779l-2.63941,0.70382l2.09527,2.53536c5.4274,5.59874 9.86364,8.43451 14.47311,9.25454c1.41175,0.25095 3.49607,0.66593 3.93847,0.80682c0.73842,0.23522 1.38425,-0.21048 2.09206,-1.93132c0.95875,-2.33136 2.81302,-4.93614 4.51981,-6.25182c1.44642,-1.11488 6.09187,-3.09837 9.4745,-4.04405c3.16103,-0.88406 6.30447,-0.63566 9.77641,0.76048c2.96208,1.19124 4.78664,2.51063 5.61098,3.95658l1.5403,1.0213l1.00355,-2.25218c0.35077,-0.9573 0.72611,-2.94511 0.80485,-4.20398c0.21078,-3.36975 0.09464,-11.96623 -0.18702,-14.1003c-0.25243,-1.91249 -1.97532,-7.56177 -3.13235,-10.24055l-1.09637,-2.02695l-1.33369,0.71855c-1.03044,0.96789 -1.64504,0.94193 -3.87845,-0.11456c-1.42568,-0.67432 -2.26485,-0.80796 -4.34918,-0.77168c-3.44712,0.05959 -7.55901,0.8337 -8.57464,1.49559c-1.26597,0.8249 -3.14224,3.89815 -6.21191,10.41256c-3.08701,6.5514 -3.90626,8.09287 -5.14469,8.79793c-1.29002,0.73423 -1.39649,0.20698 -3.78125,-2.40232l-1.84908,-1.99354l0.19175,-1.86673c0.11999,-1.91826 -0.16466,-2.64886 -1.56944,-5.12572c-2.55562,-4.50701 -4.68054,-6.17977 -7.75964,-6.05542c-1.69156,0.0682 -1.80537,0.06098 -2.66427,-0.91254c-0.73945,-0.83812 -0.69041,-0.15455 -0.47345,-0.86807c0.3513,-1.158 0.30258,-1.53979 2.03528,-1.89198c4.14401,-0.84261 8.80612,2.43918 12.5265,8.79651c1.41635,2.42014 1.60957,3.11241 1.69318,4.44556l1.56094,2.01387l1.54753,-3.62504c3.56681,-8.50859 6.59945,-12.63458 10.17163,-13.72203c2.49122,-0.75863 5.28167,-1.05393 8.57001,-1.12211c2.46867,-0.05098 4.16711,0.35133 6.52167,1.49989c0.35972,0.1758 1.11041,-1.3489 0.80697,-2.01882c-1.42771,-3.1516 -4.49941,-6.20078 -8.24111,-8.21797c-1.89074,-1.01902 -3.29374,-1.45757 -7.17225,-2.09394c-7.42246,-1.21774 -10.82293,-1.51998 -13.7309,-1.23229zM386.85755,246.90166c1.49753,0.87653 2.1556,1.66692 2.08196,2.84429c-0.0479,0.76583 -1.14959,3.97008 -1.92533,5.66629c-0.1602,0.35069 1.1737,1.22039 2.59048,0.80903c1.00279,-0.29096 2.95499,-0.69507 4.66113,-0.89495c4.38158,-0.51313 4.66136,-0.47473 5.77211,2.44731c1.05682,2.7804 1.1711,3.04638 -0.04045,3.88237c-1.32045,0.91101 -5.22133,2.01768 -11.49436,3.35467c-3.04174,0.64838 -6.72683,1.53899 -8.43385,2.01468c-3.70058,1.03099 -3.52071,1.34146 -4.9082,-1.18208c-1.30592,-2.37549 -1.08767,-2.82027 1.3496,-7.08944c1.12977,-1.97933 2.70525,-5.01851 3.6095,-6.98055c1.71615,-3.7238 3.16709,-5.65735 4.48283,-5.8202c0.95017,-0.11725 0.77187,0.08066 2.25458,0.94858z" data-paper-data="{&quot;wickUUID&quot;:&quot;399a744d-a8c0-404e-a898-818d0e57c1e5&quot;,&quot;wickType&quot;:&quot;path&quot;,&quot;originalStyle&quot;:{&quot;strokeColor&quot;:null,&quot;fillColor&quot;:[&quot;Color&quot;,1,1,1],&quot;strokeWidth&quot;:1}}" id="399a744d-a8c0-404e-a898-818d0e57c1e5" fill="#ffffff"/><path d="M386.69703,268.95877c-3.77766,0.67749 -9.47216,2.78208 -12.02688,4.44384c-2.38143,1.55035 -5.18301,6.21357 -5.81127,9.67409c-0.25388,1.39988 -0.2072,1.85469 0.26067,2.51218c0.57097,0.80321 2.1122,1.2002 11.33181,2.92011c2.63546,0.49149 11.19336,-1.54623 15.00221,-3.5714c4.581,-2.43576 5.45256,-3.73088 5.32427,-7.91105c-0.05872,-1.9124 -0.20941,-2.40276 -1.07055,-3.48463c-1.13054,-1.42035 -4.76548,-3.29693 -8.28525,-4.27557c-2.46497,-0.68622 -2.57475,-0.69308 -4.72501,-0.30757zM390.74481,274.11853c0.95194,0.31905 2.48803,0.94216 3.41208,1.38671c1.66721,0.80164 1.68012,0.8195 1.59291,2.21377c-0.08196,1.31044 -0.19519,1.47068 -1.68277,2.36255c-2.88876,1.73204 -9.55854,3.61833 -12.30835,3.4814c-1.42434,-0.07106 -7.14849,-1.14449 -7.40872,-1.38922c-0.06718,-0.06332 0.40445,-1.03577 1.04894,-2.16073c1.63446,-2.85553 3.55113,-3.97607 9.57203,-5.59636c3.93787,-1.06023 3.55387,-1.04015 5.77388,-0.29812z" data-paper-data="{&quot;wickUUID&quot;:&quot;c89fcdb7-1140-48fc-9aeb-15178a0569e8&quot;,&quot;wickType&quot;:&quot;path&quot;,&quot;originalStyle&quot;:{&quot;strokeColor&quot;:null,&quot;fillColor&quot;:[&quot;Color&quot;,0,0,0],&quot;strokeWidth&quot;:1}}" id="c89fcdb7-1140-48fc-9aeb-15178a0569e8" fill="#000000"/><path d="M378.91746,273.68253c-0.86435,0.76353 -0.90098,0.90051 -0.82281,3.15879c0.0441,1.29728 0.24307,2.93791 0.4424,3.64373c0.19827,0.70676 0.34344,1.55747 0.32253,1.89182c-0.06112,0.97709 1.05359,1.97764 2.28917,2.05492c2.0979,0.13122 3.16156,-2.0406 2.26632,-4.62754c-0.22746,-0.65648 -0.38674,-1.65037 -0.35284,-2.20834c0.08403,-1.37543 -0.3557,-3.33171 -0.85439,-3.80075c-0.22424,-0.21141 -0.85324,-0.50325 -1.3973,-0.6475c-0.79438,-0.21101 -1.16559,-0.10696 -1.89308,0.53487z" data-paper-data="{&quot;wickUUID&quot;:&quot;51959798-3b48-46db-bb1d-c61d54b84611&quot;,&quot;wickType&quot;:&quot;path&quot;,&quot;originalStyle&quot;:{&quot;strokeColor&quot;:null,&quot;fillColor&quot;:[&quot;Color&quot;,0,0,0],&quot;strokeWidth&quot;:1}}" id="51959798-3b48-46db-bb1d-c61d54b84611" fill="#000000"/><path d="M386.71529,271.64303c-0.97284,1.08839 -0.95503,1.52436 0.16447,4.05017c3.08912,6.96644 4.25109,8.58914 5.99252,8.36442c1.16061,-0.14984 2.22589,-1.11421 2.28564,-2.06935c0.0221,-0.35331 -0.71406,-2.10368 -1.6343,-3.89061c-0.92124,-1.78699 -1.91601,-3.77598 -2.21127,-4.42168c-0.89309,-1.94856 -1.66126,-2.70698 -2.817,-2.77928c-0.75353,-0.04714 -1.26179,0.16556 -1.78006,0.74633z" data-paper-data="{&quot;wickUUID&quot;:&quot;62a4caf0-5c4b-4d8b-8a6a-ece4299743c6&quot;,&quot;wickType&quot;:&quot;path&quot;,&quot;originalStyle&quot;:{&quot;strokeColor&quot;:null,&quot;fillColor&quot;:[&quot;Color&quot;,0,0,0],&quot;strokeWidth&quot;:1}}" id="62a4caf0-5c4b-4d8b-8a6a-ece4299743c6" fill="#000000"/><path d="M386.68487,238.75945c-6.07898,0.5626 -8.70334,1.51162 -10.48916,3.79158c-1.79355,2.29151 -4.65929,7.51579 -5.91687,10.78566c-0.6689,1.73963 -1.44722,3.5145 -1.72963,3.94471c-0.48833,0.74296 -0.50792,0.68764 -0.40416,-1.14746c0.08254,-1.4637 -0.05665,-2.21787 -0.57684,-3.12812c-0.37755,-0.65986 -1.25226,-2.22951 -1.94497,-3.48922c-1.48434,-2.69993 -3.39858,-4.71036 -5.86301,-6.15803c-2.67907,-1.57231 -4.29246,-1.95278 -6.3083,-1.48972c-2.67057,0.61448 -3.58263,2.42908 -2.07815,4.13433c0.65126,0.73709 0.97318,0.86042 1.98671,0.75549c1.86768,-0.19278 2.60505,-0.07952 3.69963,0.57008c2.01432,1.19508 3.32999,2.69915 4.76431,5.44605c1.33221,2.55315 1.45083,2.97938 1.33802,4.78286l-0.12386,1.98013l1.89831,2.21684c3.37741,3.94354 4.48674,3.84459 7.09026,-0.63161c0.96782,-1.66483 2.23829,-4.30768 2.82323,-5.87421c1.16494,-3.11836 4.54115,-9.16738 5.57437,-9.98748c1.11443,-0.88516 2.82176,-1.30138 6.65323,-1.62181c3.88181,-0.3243 4.99544,-0.17148 6.90703,0.95204c1.55311,0.91174 2.34831,0.91739 3.36219,0.02194c1.89295,-1.67008 0.66976,-3.8517 -2.92235,-5.2116c-2.43808,-0.92401 -3.63224,-1.02275 -7.73999,-0.64245z" data-paper-data="{&quot;wickUUID&quot;:&quot;6eecb78f-d0cf-4d21-8ea4-544932f42eba&quot;,&quot;wickType&quot;:&quot;path&quot;,&quot;originalStyle&quot;:{&quot;strokeColor&quot;:null,&quot;fillColor&quot;:[&quot;Color&quot;,0,0,0],&quot;strokeWidth&quot;:1}}" id="6eecb78f-d0cf-4d21-8ea4-544932f42eba" fill="#000000"/><path d="M383.5693,245.66458c-1.098,0.39823 -2.50235,2.23415 -3.34438,4.37075c-0.90622,2.2979 -4.81148,9.72459 -5.71471,10.86944c-1.19799,1.51617 -1.23929,2.97744 -0.13772,4.84485c0.48289,0.81774 0.87123,1.59349 0.86311,1.72324c-0.00812,0.12975 0.41398,0.44572 0.938,0.70193c0.8409,0.4123 1.17838,0.38331 2.86362,-0.2407c1.05034,-0.38919 5.02383,-1.32996 8.83081,-2.09178c7.09142,-1.41906 11.32048,-2.6655 12.68319,-3.73952c0.45638,-0.36021 0.79387,-0.98235 0.82808,-1.52928c0.07666,-1.2256 -1.16068,-4.86294 -1.85093,-5.44116c-0.90919,-0.76224 -2.38049,-0.96349 -4.09105,-0.55949c-0.8919,0.21073 -2.10609,0.3522 -2.69793,0.31518c-1.02101,-0.06386 -3.17589,0.44361 -4.52841,1.06639c-0.34041,0.15605 -0.6901,0.20431 -0.77618,0.10675c-0.08701,-0.09862 0.36522,-1.24163 1.0036,-2.54131c1.31102,-2.66635 1.58346,-4.58709 0.79648,-5.62124c-0.61208,-0.80278 -3.43067,-2.56317 -4.14846,-2.58903c-0.26891,-0.0098 -0.95221,0.14984 -1.51712,0.35498z" data-paper-data="{&quot;wickUUID&quot;:&quot;4ebadbc6-4002-4302-997a-d680f74f8221&quot;,&quot;wickType&quot;:&quot;path&quot;,&quot;originalStyle&quot;:{&quot;strokeColor&quot;:null,&quot;fillColor&quot;:[&quot;Color&quot;,0,0,0],&quot;strokeWidth&quot;:1}}" id="4ebadbc6-4002-4302-997a-d680f74f8221" fill="#000000"/><path d="M367.91786,222.89477c-2.58284,0.15706 -8.38271,1.19102 -10.78406,1.92253c-2.55655,0.77792 -3.44585,1.49179 -7.10598,5.70451c-1.71338,1.97088 -3.83797,4.38095 -4.72161,5.35669c-2.09329,2.30983 -2.82094,3.80331 -4.57735,9.39356c-1.24633,3.97094 -1.49042,5.18207 -1.71309,8.51767c-0.24022,3.61606 -0.18965,4.16931 0.71895,7.85622c1.51255,6.1414 2.81986,9.02865 5.39731,11.92119c5.21298,5.84984 11.2693,10.40683 15.47135,11.64256c4.64575,1.3667 7.25438,1.90258 10.31284,2.11894c2.46499,0.17322 3.58312,0.38244 3.96255,0.73982c0.69174,0.65045 1.89226,0.71151 5.86877,0.29896c1.80118,-0.18693 4.30619,-0.42901 5.56649,-0.53855c3.25597,-0.28229 11.5125,-1.77876 12.92146,-2.3429c0.72035,-0.28759 1.55427,-1.01296 2.11815,-1.84237c0.51197,-0.7525 1.54977,-2.20655 2.30728,-3.23226c1.65289,-2.23718 2.64021,-4.71037 3.38033,-8.4695c0.45217,-2.29525 0.51399,-3.73219 0.34261,-8.02426c-0.11369,-2.8757 -0.15645,-6.10067 -0.09277,-7.16677c0.07055,-1.20795 -0.12463,-2.74914 -0.51854,-4.09235c-0.34764,-1.18602 -1.02163,-3.4976 -1.49912,-5.13861c-1.07341,-3.69522 -4.87648,-11.37361 -7.16568,-14.46956c-3.17609,-4.29466 -8.21815,-7.39848 -13.69816,-8.43461c-3.56289,-0.67374 -11.47103,-1.75153 -13.23128,-1.80252c-0.71504,-0.02168 -2.18223,0.01579 -3.26045,0.08161zM377.81776,228.53982c3.10405,0.44865 6.43676,1.02182 7.40586,1.27482c3.26028,0.85019 7.01521,3.46771 9.1459,6.3744c3.57908,4.88397 8.2647,17.0502 8.02922,20.84691c-0.05812,0.92919 -0.01798,3.89147 0.08924,6.58241c0.28826,7.24513 -0.43442,10.59755 -3.07071,14.2521c-0.8514,1.18115 -1.71028,2.38589 -1.90885,2.67706c-0.20081,0.29504 -1.52431,0.79038 -2.99889,1.12197l-2.64013,0.59234l-0.69353,-0.99023c-0.85633,-1.22285 -1.78595,-1.32208 -4.06773,-0.43579c-7.59614,2.95254 -21.3724,2.06178 -28.39481,-1.83522c-2.09068,-1.15978 -5.13075,-3.76866 -8.72467,-7.48627c-3.09705,-3.20359 -4.06762,-5.19506 -5.45873,-11.19561c-1.06264,-4.58829 -0.91123,-7.52156 0.6571,-12.65166c1.99674,-6.53309 2.32008,-7.0409 9.7246,-15.25968c2.35261,-2.61123 2.49926,-2.71326 4.6073,-3.1926c4.62977,-1.05303 8.53929,-1.54793 11.84078,-1.50073c0.4475,0.00594 3.35294,0.37806 6.45805,0.82578z" data-paper-data="{&quot;wickUUID&quot;:&quot;0c9a684f-140d-439a-a902-31bc31e0a0da&quot;,&quot;wickType&quot;:&quot;path&quot;,&quot;originalStyle&quot;:{&quot;strokeColor&quot;:null,&quot;fillColor&quot;:[&quot;Color&quot;,0,0,0],&quot;strokeWidth&quot;:1}}" id="0c9a684f-140d-439a-a902-31bc31e0a0da" fill="#000000"/><path d="M400.37035,279.25353c-0.82583,0.32096 -1.42831,1.25466 -1.44878,2.24245c-0.01969,0.9498 1.37345,2.30897 2.38823,2.33c1.06177,0.02201 2.46335,-1.29423 2.4849,-2.33401c0.03372,-1.62665 -1.84328,-2.85281 -3.42435,-2.23844z" data-paper-data="{&quot;wickUUID&quot;:&quot;4e68e96d-7621-4068-a463-0dad1d24181b&quot;,&quot;wickType&quot;:&quot;path&quot;,&quot;originalStyle&quot;:{&quot;strokeColor&quot;:null,&quot;fillColor&quot;:[&quot;Color&quot;,0,0,0],&quot;strokeWidth&quot;:1}}" id="4e68e96d-7621-4068-a463-0dad1d24181b" fill="#000000"/><path d="M426.83401,173.61893c-8.91827,2.1765 -13.25107,3.5597 -21.08843,6.73262c-4.68252,1.89637 -9.715,4.03739 -11.18186,4.75822l-2.66699,1.31006l-0.95009,-2.22265c-0.52273,-1.22201 -1.37712,-2.66818 -1.89901,-3.21482c-0.93108,-0.97302 -0.99813,-0.99025 -3.56407,-0.92731c-3.40785,0.08342 -10.77016,0.94748 -12.73716,1.49476c-1.26854,0.3535 -1.88311,0.82405 -3.45613,2.6494c-1.05126,1.22076 -2.79941,3.55518 -3.88344,5.18769c-1.08509,1.63344 -4.19412,6.19826 -6.90983,10.14542c-2.71577,3.94816 -6.45936,9.39908 -8.31744,12.11338c-1.85914,2.71524 -5.11071,7.23606 -7.22728,10.04641c-2.11557,2.81041 -4.2195,5.77085 -4.67477,6.578c-0.79003,1.40141 -0.8173,1.5971 -0.60391,4.27264c0.35757,4.48707 1.57222,11.80317 2.27307,13.70162c0.92894,2.51289 2.32106,3.19513 4.06453,1.99263c1.08486,-0.74874 1.20081,-1.72139 0.48288,-4.03572c-0.5237,-1.68698 -1.88399,-10.61532 -1.90304,-12.48917c-0.01254,-1.16105 0.75826,-2.38331 5.12279,-8.11803c1.69,-2.22183 6.66603,-9.307 11.05747,-15.74441c4.3905,-6.43847 8.26067,-12.05481 8.59996,-12.48146c0.33923,-0.42565 1.39276,-1.97089 2.34092,-3.43356c0.94909,-1.4616 2.35613,-3.37249 3.12817,-4.246c1.26261,-1.42796 1.58667,-1.61108 3.23858,-1.83039c4.5698,-0.6069 7.41395,-0.87286 8.57169,-0.80044c1.41723,0.08865 1.88311,0.66585 2.40666,2.98005c0.29811,1.32119 0.25967,1.45504 -0.84999,2.96872c-2.24864,3.0636 -1.89447,5.74695 0.78031,5.91425c1.29047,0.08072 2.11128,-0.54726 3.57273,-2.73529c0.49307,-0.73866 1.37265,-1.76174 1.95361,-2.27147c1.00302,-0.8821 6.59775,-3.69832 9.86943,-4.96856c0.83694,-0.32539 4.37879,-1.73402 7.8688,-3.13087c5.53201,-2.21397 15.73257,-5.28416 17.24062,-5.18983c1.00703,0.06299 2.25071,14.2513 2.09466,23.89036c-0.03561,2.23513 -0.02922,4.45587 0.01398,4.9345c0.06453,0.71442 -0.35202,1.27051 -2.33062,3.10857c-3.34869,3.11001 -5.69377,6.30584 -9.34066,12.7257c-5.436,9.56931 -6.35193,12.93569 -3.83035,14.07834c0.59526,0.27069 1.78563,0.17381 4.80483,-0.39181c2.20809,-0.41296 5.89922,-0.90849 8.20373,-1.101c4.07526,-0.34125 9.20992,-0.31967 9.5271,0.03983c0.16461,0.18764 -0.86448,4.6421 -1.75215,7.58843l-0.52081,1.72685l-3.28945,0.83327c-3.94111,0.99991 -12.22584,3.98854 -13.19904,4.7623c-0.74127,0.58988 -3.12889,3.71291 -5.18341,6.78063c-0.6907,1.03089 -2.50024,3.51378 -4.02131,5.51773c-1.52107,2.00395 -3.02002,4.3269 -3.33076,5.16213c-0.31074,0.83523 -0.99336,2.29747 -1.51676,3.24865c-1.26746,2.30637 -1.36423,3.88541 -0.29474,4.84004c2.03164,1.81537 3.41706,0.53837 6.16969,-5.68092c0.4785,-1.08224 1.97244,-3.4055 3.31878,-5.16288c1.34734,-1.75732 2.90503,-3.89826 3.4618,-4.75818c0.55683,-0.86092 1.75339,-2.57856 2.6605,-3.81735l1.6489,-2.25346l4.97219,-1.83417c2.73434,-1.00926 6.4647,-2.11555 8.28965,-2.45829c3.41873,-0.64182 4.83283,-1.41606 4.91255,-2.69057c0.04314,-0.68965 2.42293,-9.83893 3.01693,-11.59828c0.54733,-1.622 -0.03058,-3.29132 -1.43636,-4.15577c-2.14674,-1.32059 -10.60186,-1.51881 -18.55989,-0.43751c-1.4057,0.19162 -2.69345,0.29142 -2.86349,0.22267c-0.42124,-0.16963 6.87485,-12.69358 8.39055,-14.40329c0.67048,-0.75562 2.51339,-2.57111 4.09688,-4.03511l2.87878,-2.66147l0.04922,-3.99071c0.11945,-9.90286 -0.32228,-17.96217 -1.50612,-27.46861c-0.61942,-4.97837 -1.08491,-5.8341 -3.21787,-5.91742c-0.72765,-0.02848 -2.0661,0.12926 -2.97571,0.35091z" data-paper-data="{&quot;wickUUID&quot;:&quot;7e38edee-28cd-4fd5-b53e-ec64c5616784&quot;,&quot;wickType&quot;:&quot;path&quot;,&quot;originalStyle&quot;:{&quot;strokeColor&quot;:null,&quot;fillColor&quot;:[&quot;Color&quot;,0,0,0],&quot;strokeWidth&quot;:1}}" id="7e38edee-28cd-4fd5-b53e-ec64c5616784" fill="#000000"/><path d="M315.96783,276.80705c-3.54095,1.37387 -5.95385,2.91645 -6.62626,4.23465c-1.34246,2.63289 1.74483,4.6919 3.95582,2.63774c1.70464,-1.58316 6.20365,-3.21039 9.21965,-3.33493c1.3761,-0.05661 1.6015,-0.16431 2.19361,-1.04773c1.35349,-2.01941 0.09436,-3.58518 -3.01994,-3.75722c-2.33504,-0.12815 -1.85175,-0.23578 -5.72288,1.26749z" data-paper-data="{&quot;wickUUID&quot;:&quot;fa1a8b5a-2f73-43ad-95f4-cd2de0b62d46&quot;,&quot;wickType&quot;:&quot;path&quot;,&quot;originalStyle&quot;:{&quot;strokeColor&quot;:null,&quot;fillColor&quot;:[&quot;Color&quot;,0,0,0],&quot;strokeWidth&quot;:1}}" id="fa1a8b5a-2f73-43ad-95f4-cd2de0b62d46" fill="#000000"/><path d="M357.71943,281.40039c-1.192,0.602 -1.669,2.414 -1.94,7.376c-0.418,7.669 -3.07,17.534 -5.577,20.752c-1.199,1.538 -0.481,4.522 1.682,6.985c1.334,1.52 5.415,3.608 8.687,4.444c5.012,1.282 14.408,0.313 20.698,-2.135c1.072,-0.417 3.104,-1.068 4.515,-1.447c2.815,-0.755 3.406,-1.103 7.068,-4.16c3.616,-3.019 5.466,-5.862 6.604,-10.15c1.306,-4.92 1.724,-7.677 1.969,-12.99c0.2,-4.333 0.164,-4.834 -0.458,-6.257c-0.806,-1.845 -1.905,-2.439 -3.381,-1.828c-1.294,0.537 -1.663,1.657 -1.173,3.57c0.517,2.015 -0.074,9.788 -1.022,13.448c-0.37,1.429 -0.831,3.251 -1.023,4.049c-0.193,0.797 -0.92,2.221 -1.617,3.165c-1.823,2.468 -5.923,5.871 -7.554,6.269c-0.731,0.179 -2.645,0.77 -4.253,1.314c-2.671,0.904 -4.943,1.514 -8.445,2.271c-2.63,0.569 -8.186,0.745 -10.176,0.323c-2.498,-0.531 -6.472,-2.572 -7.136,-3.666c-0.489,-0.806 -0.471,-0.939 0.329,-2.417c2.254,-4.165 5.127,-15.379 5.126,-20.011c0,-1.288 0.171,-3.57 0.381,-5.071l0.381,-2.729l-0.886,-0.763c-1,-0.86 -1.624,-0.936 -2.799,-0.342z" data-paper-data="{&quot;wickUUID&quot;:&quot;395312d8-17d0-4fab-aaa5-0fd8113e1372&quot;,&quot;wickType&quot;:&quot;path&quot;,&quot;originalStyle&quot;:{&quot;strokeColor&quot;:null,&quot;fillColor&quot;:[&quot;Color&quot;,0,0,0],&quot;strokeWidth&quot;:1}}" id="395312d8-17d0-4fab-aaa5-0fd8113e1372" fill="#000000"/><path d="M404.25608,375.16141c-0.893,0.144 -2.209,0.426 -2.923,0.626c-0.715,0.201 -2.228,0.366 -3.362,0.367c-1.889,0.001 -2.142,0.087 -3.008,1.014c-1.27,1.359 -1.429,2.22 -0.777,4.185c0.822,2.474 2.282,4.148 4.71,5.4c5.621,2.897 11.156,2.619 13.89,-0.698c1.454,-1.764 2.188,-4.223 1.743,-5.839c-0.891,-3.234 -3.186,-5.039 -6.632,-5.214c-1.109,-0.056 -2.748,0.015 -3.641,0.159z" data-paper-data="{&quot;wickUUID&quot;:&quot;8a241592-000b-476c-987a-277287a55884&quot;,&quot;wickType&quot;:&quot;path&quot;,&quot;originalStyle&quot;:{&quot;strokeColor&quot;:null,&quot;fillColor&quot;:[&quot;Color&quot;,0,0,0],&quot;strokeWidth&quot;:1}}" id="8a241592-000b-476c-987a-277287a55884" fill="#000000"/><path d="M324.43066,281.46405c-0.5261,0.63085 -0.59729,1.33021 -0.2132,2.82818c0.82139,3.20527 0.9449,4.3776 0.7136,6.73742c-0.12596,1.28608 0.69737,3.09236 0.84715,3.06279c0.14944,-0.02951 1.47558,-1.3734 2.05589,-2.56266c0.85495,-1.75144 1.00809,-1.99625 1.86033,-2.25217c0.5793,-0.17382 1.2452,-0.06677 1.73011,0.1297c0.86016,0.34866 1.35868,-0.95087 1.44907,-2.16232c0.19465,-2.60741 -3.92638,-7.30357 -6.09468,-6.94513c-0.20627,0.03428 -2.00896,0.75743 -2.34827,1.16419z" data-paper-data="{&quot;wickUUID&quot;:&quot;52585517-3d2e-4b2f-a580-a499fa1f328f&quot;,&quot;wickType&quot;:&quot;path&quot;,&quot;originalStyle&quot;:{&quot;strokeColor&quot;:null,&quot;fillColor&quot;:[&quot;Color&quot;,0,0,0],&quot;strokeWidth&quot;:1}}" id="52585517-3d2e-4b2f-a580-a499fa1f328f" fill="#000000"/><path d="M314.52607,282.27624c-0.66495,0.41805 -2.25977,1.11884 -2.92478,1.40065c-0.66494,0.28214 -1.99291,1.31381 -2.63496,1.98386c-1.12495,1.17379 -1.23446,2.07838 -0.95227,3.99298c0.35465,2.40553 1.61437,3.70583 4.26167,4.45016c2.23902,0.62957 3.60396,0.17337 4.74287,-1.30829c1.38517,-1.8021 1.80699,-4.98717 1.06574,-8.22015c-0.6635,-2.8943 -1.483,-3.60389 -3.55827,-2.29921z" data-paper-data="{&quot;wickUUID&quot;:&quot;c16c5c43-5b73-44cf-bdb8-4b249284603b&quot;,&quot;wickType&quot;:&quot;path&quot;,&quot;originalStyle&quot;:{&quot;strokeColor&quot;:null,&quot;fillColor&quot;:[&quot;Color&quot;,0,0,0],&quot;strokeWidth&quot;:1}}" id="c16c5c43-5b73-44cf-bdb8-4b249284603b" fill="#000000"/><path d="M318.69138,296.29526c-1.44179,1.16941 -1.6184,1.25631 -3.69282,1.53267c-1.47025,0.19582 -2.69669,0.13695 -3.64562,-0.13473c-1.24316,-0.35595 -2.29303,0.85432 -2.36617,1.27547c-0.17084,0.98644 3.66625,6.63788 4.99074,7.35764c0.34522,0.18769 2.11155,-0.12102 3.28824,-0.99142c1.58176,-1.16953 1.77822,-1.46447 1.67072,-2.98817c-0.18567,-2.63732 -0.43377,-2.88457 1.21998,-3.21107c1.74432,-0.34438 1.73121,-0.19947 2.49291,2.03056c0.54823,1.60487 0.18587,3.1923 -0.94707,5.03293l-0.43118,1.53283l2.33186,1.62801c1.86551,1.25034 2.63798,1.27685 3.68864,0.75071c1.38237,-0.69254 4.25761,-3.48048 4.38422,-4.21254c0.05312,-0.30575 -0.80653,-2.69537 -1.74631,-4.36972c-1.7018,-3.03179 -2.50142,-3.76879 -3.84057,-3.5044c-0.8218,0.16225 -3.85654,-1.40553 -4.47005,-2.30676l-1.15602,-0.79358z" data-paper-data="{&quot;wickUUID&quot;:&quot;f55506b8-fac9-454c-83f5-b6fe5fbb92f5&quot;,&quot;wickType&quot;:&quot;path&quot;,&quot;originalStyle&quot;:{&quot;strokeColor&quot;:null,&quot;fillColor&quot;:[&quot;Color&quot;,0,0,0],&quot;strokeWidth&quot;:1}}" id="f55506b8-fac9-454c-83f5-b6fe5fbb92f5" fill="#000000"/><path d="M310.43073,279.02401c-0.9811,0.60652 -2.72143,1.9521 -3.86735,2.98869c-2.50216,2.2625 -3.33829,4.12471 -3.23016,7.19185c0.16307,4.64131 2.88707,7.68432 8.30498,9.27605c2.34287,0.68926 5.34047,0.15147 7.10708,-1.27268c2.75544,-2.22382 3.62935,-4.05478 4.04703,-8.48049c0.26545,-2.82186 -0.23686,-5.09765 -1.46642,-6.64276c-1.29212,-1.62449 -3.56912,-1.43283 -4.29663,0.36004c-0.32756,0.80876 -0.28554,1.10932 0.33802,2.41425c0.63391,1.32634 0.68738,1.74694 0.48009,3.81016c-0.18097,1.80932 -0.46345,2.62957 -1.28338,3.72717c-1.2365,1.65688 -1.78504,1.82123 -3.99824,1.19506c-2.57498,-0.72905 -3.4528,-1.51999 -4.02829,-3.62948c-0.4097,-1.50209 -0.40382,-1.97315 0.03367,-2.8291c0.54076,-1.05573 3.09836,-3.22317 4.64454,-3.93616c1.17431,-0.54172 2.38014,-2.40558 2.18761,-3.38075c-0.19815,-1.00362 -1.29502,-1.88179 -2.35972,-1.88972c-0.45616,-0.00269 -1.63094,0.49017 -2.61283,1.09787z" data-paper-data="{&quot;wickUUID&quot;:&quot;61cbf0c1-7ade-486d-a853-77432c1b373a&quot;,&quot;wickType&quot;:&quot;path&quot;,&quot;originalStyle&quot;:{&quot;strokeColor&quot;:null,&quot;fillColor&quot;:[&quot;Color&quot;,0,0,0],&quot;strokeWidth&quot;:1}}" id="61cbf0c1-7ade-486d-a853-77432c1b373a" fill="#000000"/><path d="M305.94888,292.74088c-0.2734,0.24152 -0.74286,1.26075 -1.04285,2.26589c-0.48964,1.6399 -0.48112,2.15298 0.08664,5.01317l0.63304,3.18571l2.52751,3.19392c1.38966,1.75711 3.02634,3.46953 3.63621,3.80679c3.00864,1.6607 6.15466,0.66141 9.93837,-3.15881c0.86173,-0.8704 1.33343,-1.7596 1.6606,-3.12788c0.4219,-1.76616 0.40295,-2.03254 -0.25019,-3.51307c-0.81988,-1.86043 -1.69846,-2.50548 -3.09245,-2.27103c-1.56076,0.26227 -2.09886,1.27467 -1.71399,3.22405c0.23359,1.18316 0.19355,1.8322 -0.14076,2.28147c-0.68003,0.91301 -3.07723,2.52484 -3.61573,2.43036c-0.25327,-0.04377 -1.41833,-1.34474 -2.58905,-2.89127c-2.39969,-3.17125 -2.82404,-4.45844 -2.25799,-6.86261c0.4949,-2.1037 0.21599,-3.20147 -0.96824,-3.80451c-1.05417,-0.53801 -2.03221,-0.45804 -2.81112,0.22782z" data-paper-data="{&quot;wickUUID&quot;:&quot;2777622e-3682-47f0-b1a3-45487000d1cf&quot;,&quot;wickType&quot;:&quot;path&quot;,&quot;originalStyle&quot;:{&quot;strokeColor&quot;:null,&quot;fillColor&quot;:[&quot;Color&quot;,0,0,0],&quot;strokeWidth&quot;:1}}" id="2777622e-3682-47f0-b1a3-45487000d1cf" fill="#000000"/><path d="M323.44353,276.63309c-1.92809,1.13801 -3.20881,2.91676 -3.85929,5.36308c-0.4731,1.77526 -0.46033,1.92257 0.30539,3.71521c0.98431,2.30092 0.94749,2.04216 0.71931,5.17671c-0.10433,1.42825 -0.05788,3.26402 0.10308,4.07928c0.26052,1.31953 0.47104,1.60109 1.92304,2.57428c1.27481,0.85528 1.96086,1.0776 3.14279,1.02365l1.51204,-0.0702l1.5158,2.37538c0.83399,1.30722 1.71675,2.95953 1.9617,3.6736c0.41358,1.20165 0.37864,1.37572 -0.47234,2.33675c-1.1507,1.30153 -3.29356,2.8489 -4.20715,3.03844c-0.47289,0.09846 -1.78267,-0.64493 -4.1025,-2.32746c-3.78689,-2.74754 -4.65153,-2.92442 -5.81763,-1.18461c-1.17299,1.75137 -0.60051,2.61688 3.84815,5.81477c3.75485,2.69883 4.84518,3.04825 7.31545,2.34343c3.57243,-1.01824 7.79334,-4.70461 8.41666,-7.35045c0.53314,-2.26108 -0.10892,-4.40838 -2.68225,-8.98054c-0.18979,-0.33661 -0.05439,-0.61105 0.42339,-0.8654c1.90149,-1.00942 3.52738,-5.2476 3.8011,-9.90685c0.1456,-2.49445 -0.34598,-3.71943 -2.73333,-6.8075c-2.19987,-2.84579 -3.2139,-3.6761 -5.36724,-4.39666c-2.52664,-0.84563 -3.81985,-0.76155 -5.74617,0.37509zM328.21218,281.2091c1.3167,0.72673 3.9384,4.057 4.139,5.2589c0.07672,0.46087 0.06588,1.27336 -0.02486,1.805l-0.16497,0.96625l-0.96897,-0.49367c-1.95517,-0.99718 -3.22498,-0.06661 -4.2163,3.09019c-0.32696,1.0441 -1.06162,1.84048 -1.45418,1.57652c-0.09731,-0.06437 -0.13002,-0.56043 -0.07298,-1.10275c0.50425,-4.77714 0.49924,-4.88521 -0.34129,-7.04124c-0.86703,-2.22317 -0.84132,-3.10994 0.11468,-3.95206c0.81782,-0.72106 1.8138,-0.75664 2.98987,-0.10714z" data-paper-data="{&quot;wickUUID&quot;:&quot;d7562965-aca6-4371-977e-140a52ee16e3&quot;,&quot;wickType&quot;:&quot;path&quot;,&quot;originalStyle&quot;:{&quot;strokeColor&quot;:null,&quot;fillColor&quot;:[&quot;Color&quot;,0,0,0],&quot;strokeWidth&quot;:1}}" id="d7562965-aca6-4371-977e-140a52ee16e3" fill="#000000"/><path d="M332.34371,282.68498c-1.07693,1.60805 -0.61176,2.4876 2.27004,4.29056c3.44828,2.15796 8.50732,3.89905 12.37738,4.25926c1.47034,0.13679 1.55731,0.10229 8.86741,-3.56507c2.8696,-1.43908 3.67979,-2.32274 3.40513,-3.71388c-0.18691,-0.94673 -1.78462,-2.07971 -2.68426,-1.9021c-0.36201,0.07148 -1.70568,0.65885 -2.98576,1.30503c-6.57241,3.31481 -6.02835,3.13808 -8.15856,2.65861c-3.13495,-0.70514 -6.02809,-1.80662 -8.50818,-3.23734c-2.63911,-1.52368 -3.61237,-1.54354 -4.5832,-0.09507z" data-paper-data="{&quot;wickUUID&quot;:&quot;75c70a89-ccf2-4bfd-be4a-3b03e9efc05b&quot;,&quot;wickType&quot;:&quot;path&quot;,&quot;originalStyle&quot;:{&quot;strokeColor&quot;:null,&quot;fillColor&quot;:[&quot;Color&quot;,0,0,0],&quot;strokeWidth&quot;:1}}" id="75c70a89-ccf2-4bfd-be4a-3b03e9efc05b" fill="#000000"/><path d="M353.53376,307.49397c-1.21706,3.00681 -2.43845,7.18133 -2.51384,8.90822c-0.08588,1.95928 0.42268,5.60883 0.70617,6.07009c0.11713,0.19058 2.24305,-0.34044 4.22121,-1.68088c2.78647,-1.88814 2.94524,-2.01994 3.96431,-1.91825c1.02841,0.10231 0.38542,-0.25977 0.98414,1.02589c0.36521,0.78479 0.96391,3.36991 1.35507,5.8084c1.27013,7.9185 1.80333,8.73672 3.91733,8.34103c1.53156,-0.28655 3.83751,-1.86571 4.39098,-3.87598c0.81137,-2.94819 1.47819,-3.60918 3.44555,-3.34432l0.23584,0.0233l1.98207,3.62632l2.17997,3.91347l2.18001,1.05865c2.13328,0.96348 5.28071,1.42408 6.03859,0.90767c0.31212,-0.21272 1.48652,-1.72297 1.70507,-2.41217c0.38414,-1.21187 0.2276,-1.86537 -0.71676,-2.54897c-0.53731,-0.38921 -1.35834,-1.19517 -1.85195,-1.83684c-0.77118,-1.00208 -0.87633,-0.4305 -0.66218,-1.60173c0.30891,-1.69012 0.63509,-1.83635 3.57536,-2.42124c2.03514,-0.40494 2.80971,-0.81594 5.24879,-2.52276c3.31072,-2.31672 4.29254,-3.86061 4.81338,-7.2923c0.37263,-2.45712 0.08309,-7.61534 -0.6399,-10.68428l-0.83074,-2.55106l-3.81997,-0.90141c-1.97436,-0.43707 -3.98652,-1.10198 -4.54685,-1.5014c-1.20752,-0.86165 -5.88244,-2.70895 -7.97145,-3.15272c-1.15588,-0.24575 -2.04027,-0.16619 -2.29189,0.31154c-0.96409,1.82973 -8.44231,4.69402 -16.61194,6.36216c-6.69724,1.36762 -7.67813,1.89303 -8.48637,3.88957z" data-paper-data="{&quot;wickUUID&quot;:&quot;67d37119-76ca-49b6-985c-d7001ecc9aef&quot;,&quot;wickType&quot;:&quot;path&quot;,&quot;originalStyle&quot;:{&quot;strokeColor&quot;:null,&quot;fillColor&quot;:[&quot;Color&quot;,0,0,0],&quot;strokeWidth&quot;:1}}" id="67d37119-76ca-49b6-985c-d7001ecc9aef" fill="#000000"/><path d="M358.57328,294.22839c-0.62938,0.94015 -0.68344,2.79923 -0.11995,4.14154c0.27619,0.65832 0.4827,1.20899 0.45962,1.22464c-0.02308,0.01565 -0.84881,0.23357 -1.83509,0.48284c-4.20877,1.06389 -7.07368,3.47093 -7.94348,6.67171c-0.23637,0.87292 -0.78392,2.57115 -1.21522,3.77279c-1.04038,2.89853 -1.40849,6.17472 -1.09309,9.7386c0.33739,3.81811 0.86868,5.10233 2.6079,6.30417c1.10424,0.76328 1.63832,0.88189 2.99751,0.6638c0.90895,-0.14525 2.50152,-0.73775 3.53869,-1.31644l1.88723,-1.05149l0.61758,4.17142c0.9631,6.49829 2.58383,8.88641 6.44529,9.49321c2.23589,0.35162 4.23852,-0.21767 6.10737,-1.73596c0.86866,-0.70659 1.72209,-1.49874 1.89626,-1.76053c0.26528,-0.3985 0.53512,-0.18932 1.65728,1.28317c1.63563,2.14455 2.59182,2.75619 5.60682,3.58142c1.28502,0.35076 2.94358,0.87238 3.68649,1.15792c1.75187,0.67343 4.17114,0.08113 5.80152,-1.42057c2.62897,-2.42045 4.2016,-7.46767 2.95758,-9.49171l-0.58976,-0.95952l1.95744,-0.94298c2.49589,-1.20093 6.04752,-4.27239 7.15393,-6.18587c1.81465,-3.13564 2.48479,-8.49055 1.76004,-14.06155c-0.51646,-3.97081 -1.44066,-6.87638 -2.73225,-8.59413c-0.89898,-1.19484 -1.1934,-1.35664 -2.77834,-1.53243c-2.73186,-0.30186 -5.00738,-0.95351 -6.37405,-1.82652c-0.68428,-0.43709 -2.12755,-1.09475 -3.20624,-1.46121c-1.07869,-0.36646 -3.04276,-1.03376 -4.36462,-1.48245c-1.32186,-0.44869 -4.0611,-1.01713 -6.08844,-1.26305c-2.02651,-0.24648 -4.7412,-0.5907 -6.03234,-0.76526c-4.8433,-0.65423 -11.27559,0.94059 -12.76568,3.16444zM356.8808,305.38333c0.73506,-0.27811 2.87128,-0.73642 4.7457,-1.01853c3.62715,-0.54565 6.83029,-1.42214 11.84708,-3.24001c3.55574,-1.28868 4.86415,-2.07576 5.29316,-3.18612c0.28019,-0.72565 0.43325,-0.74825 2.09661,-0.32329c3.6035,0.92413 7.80006,2.61754 8.23411,3.32374c0.45591,0.74178 0.83937,0.86041 5.08228,1.57494l2.68007,0.45125l0.51724,1.81604c1.37631,4.82842 1.26663,11.61001 -0.23349,14.34941c-0.7301,1.33284 -1.2403,1.82479 -3.57255,3.44203c-2.4743,1.71473 -2.92657,1.91918 -4.97058,2.23877c-2.67568,0.41829 -3.93011,1.16017 -4.19988,2.48216c-0.29737,1.45374 0.67602,3.32812 2.12527,4.09235c1.55875,0.82274 1.75021,1.19313 1.26543,2.44452c-0.91742,2.36914 -1.38272,2.52961 -4.79598,1.65475c-4.0084,-1.02826 -4.16174,-1.17136 -6.76499,-6.37762c-1.34582,-2.69115 -1.38576,-2.73907 -2.5043,-2.99372c-1.70768,-0.3888 -2.89289,0.55689 -3.39549,2.71007c-0.53287,2.28061 -1.14213,3.32754 -2.45761,4.21893c-1.23222,0.83498 -2.99849,0.67759 -3.61276,-0.32185c-0.19355,-0.31492 -0.58514,-2.07846 -0.87005,-3.91922c-1.57385,-10.17417 -1.75672,-10.68068 -3.84554,-10.70183c-0.88677,-0.00865 -1.52177,0.3221 -3.99589,2.08462c-1.78996,1.27434 -3.0772,2.0274 -3.28794,1.92197c-0.18937,-0.09534 -0.46203,-1.31398 -0.60439,-2.70815c-0.27916,-2.73559 0.26237,-5.90439 1.66774,-9.74581c1.20176,-3.28563 1.31383,-3.42053 3.55675,-4.2694z" data-paper-data="{&quot;wickUUID&quot;:&quot;f010d652-4e32-4f7c-bbb8-81cda24cef23&quot;,&quot;wickType&quot;:&quot;path&quot;,&quot;originalStyle&quot;:{&quot;strokeColor&quot;:null,&quot;fillColor&quot;:[&quot;Color&quot;,0,0,0],&quot;strokeWidth&quot;:1}}" id="f010d652-4e32-4f7c-bbb8-81cda24cef23" fill="#000000"/><path d="M398.80012,281.67054c-0.76979,1.20638 -0.64373,1.88517 0.75342,4.06281c0.61195,0.9531 2.31376,4.09354 3.78128,6.97828c1.46752,2.88474 2.75682,5.34445 2.86503,5.4673c0.33308,0.37629 -0.52175,0.39472 -3.21466,0.06625c-3.89904,-0.47535 -5.43501,0.04747 -5.74244,1.95482c-0.2781,1.7288 1.35747,3.22405 3.12827,2.85902c0.3062,-0.06313 2.37698,0.19163 4.60141,0.56617c5.37967,0.9054 6.06703,0.88467 6.95851,-0.2069c0.9208,-1.12706 0.89569,-2.76075 -0.071,-4.66633c-8.15316,-16.0638 -9.07429,-17.65899 -10.4546,-18.10341c-1.08223,-0.34914 -1.94851,-0.00961 -2.60522,1.02199z" data-paper-data="{&quot;wickUUID&quot;:&quot;8af46c46-2270-4584-a28b-0fdfeef32de0&quot;,&quot;wickType&quot;:&quot;path&quot;,&quot;originalStyle&quot;:{&quot;strokeColor&quot;:null,&quot;fillColor&quot;:[&quot;Color&quot;,0,0,0],&quot;strokeWidth&quot;:1}}" id="8af46c46-2270-4584-a28b-0fdfeef32de0" fill="#000000"/><path d="M355.59035,249.9443c-0.92063,0.59497 -1.25099,1.65361 -1.59246,5.10613c-0.26977,2.72449 -0.27596,3.62164 -0.04746,7.18279c0.46094,7.17977 0.91915,8.81831 2.5174,8.99647c1.03116,0.11494 1.55208,-0.39329 2.11297,-2.06147c0.36647,-1.0904 0.40988,-4.46874 0.14599,-11.45283c-0.17903,-4.75851 -0.51144,-6.6947 -1.29114,-7.52827c-0.66929,-0.71384 -1.04041,-0.76316 -1.8453,-0.24282z" data-paper-data="{&quot;wickUUID&quot;:&quot;649ee922-769d-48bf-810d-c17fabcfc923&quot;,&quot;wickType&quot;:&quot;path&quot;,&quot;originalStyle&quot;:{&quot;strokeColor&quot;:null,&quot;fillColor&quot;:[&quot;Color&quot;,0,0,0],&quot;strokeWidth&quot;:1}}" id="649ee922-769d-48bf-810d-c17fabcfc923" fill="#000000"/><path d="M390.1526,321.08192c-0.944,0.943 -0.998,1.225 -0.589,3.068c0.152,0.681 0.414,2.036 0.583,3.011c1.167,6.741 2.143,11.18 3.119,14.182c0.369,1.137 0.902,3.331 1.184,4.875c0.281,1.544 0.782,3.936 1.113,5.316c0.551,2.303 0.572,2.789 0.251,5.909c-0.794,7.732 -0.906,8.884 -1.215,12.559c-0.178,2.112 -0.536,5.073 -0.796,6.578c-0.392,2.271 -0.407,2.86 -0.09,3.453c0.547,1.021 1.855,1.507 2.897,1.075c1.461,-0.605 1.942,-2.029 2.443,-7.236c0.384,-3.995 0.852,-8.897 1.159,-12.143c0.138,-1.462 0.404,-3.805 0.591,-5.206c0.316,-2.367 0.287,-2.762 -0.404,-5.613c-0.409,-1.687 -0.965,-4.264 -1.236,-5.726c-0.271,-1.463 -0.753,-3.434 -1.071,-4.381c-1.109,-3.298 -2.625,-10.275 -3.544,-16.301c-0.383,-2.512 -0.911,-3.627 -1.895,-4.001c-1.162,-0.442 -1.573,-0.347 -2.5,0.581z" data-paper-data="{&quot;wickUUID&quot;:&quot;182be366-76da-447b-8fbd-3cf2b29210c1&quot;,&quot;wickType&quot;:&quot;path&quot;,&quot;originalStyle&quot;:{&quot;strokeColor&quot;:null,&quot;fillColor&quot;:[&quot;Color&quot;,0,0,0],&quot;strokeWidth&quot;:1}}" id="182be366-76da-447b-8fbd-3cf2b29210c1" fill="#000000"/><path d="M358.26906,317.25968c-1.139,1.235 -5.026,8.208 -5.026,9.018c0,0.875 0.921,2.256 2.996,4.493c1.137,1.227 2.355,2.619 2.706,3.094c0.351,0.475 1.961,1.735 3.577,2.801l2.94,1.939l-0.99,0.416c-0.545,0.229 -2.729,0.968 -4.854,1.642c-2.125,0.674 -4.241,1.502 -4.702,1.839c-1.599,1.17 -3.29,3.997 -4.257,7.114c-1.575,5.076 -1.605,5.258 -1.228,7.454c0.399,2.329 1.052,3.744 2.256,4.887c1.249,1.185 2.371,1.413 5.322,1.077c6.496,-0.738 8.911,-2.034 11.998,-6.439c3.112,-4.442 3.826,-6.52 4.315,-12.562c0.169,-2.095 0.308,-3.854 0.308,-3.907c0,-0.452 -6.238,-6.136 -7.978,-7.269c-1.263,-0.823 -3.247,-2.548 -4.616,-4.013l-2.401,-2.569l1.16,-2.313c0.638,-1.272 1.552,-2.854 2.031,-3.516c1.1,-1.518 1.102,-2.406 0.008,-3.5c-1.231,-1.232 -2.218,-1.145 -3.565,0.314zM368.46606,344.99768c-0.47,3.908 -1.203,5.718 -3.702,9.143c-2.066,2.833 -3.475,3.517 -8.319,4.045c-1.846,0.201 -1.773,0.269 -2.158,-2.012c-0.144,-0.851 0.066,-1.925 0.864,-4.432c1.542,-4.842 1.623,-4.914 7.85,-6.995c2.838,-0.949 5.273,-1.654 5.412,-1.568c0.139,0.086 0.163,0.904 0.053,1.819z" data-paper-data="{&quot;wickUUID&quot;:&quot;21e4bbca-32c3-40fa-b2fc-aadb8f5b12af&quot;,&quot;wickType&quot;:&quot;path&quot;,&quot;originalStyle&quot;:{&quot;strokeColor&quot;:null,&quot;fillColor&quot;:[&quot;Color&quot;,0,0,0],&quot;strokeWidth&quot;:1}}" id="21e4bbca-32c3-40fa-b2fc-aadb8f5b12af" fill="#000000"/></g><g data-paper-data="{&quot;wickUUID&quot;:&quot;99244c09-8c40-482d-b781-65d556971edc&quot;,&quot;wickType&quot;:&quot;clipsandpaths&quot;}" fill="none" fill-rule="nonzero" stroke="none" stroke-width="1" stroke-linecap="butt" stroke-linejoin="miter" stroke-miterlimit="10" stroke-dasharray="" stroke-dashoffset="0" font-family="sans-serif" font-weight="normal" font-size="12" text-anchor="start" style="mix-blend-mode: normal"/><g fill="none" fill-rule="nonzero" stroke="none" stroke-width="1" stroke-linecap="butt" stroke-linejoin="miter" stroke-miterlimit="10" stroke-dasharray="" stroke-dashoffset="0" font-family="sans-serif" font-weight="normal" font-size="12" text-anchor="start" style="mix-blend-mode: normal"/><g id="wick_project_gui" fill="none" fill-rule="nonzero" stroke="none" stroke-width="1" stroke-linecap="butt" stroke-linejoin="miter" stroke-miterlimit="10" stroke-dasharray="" stroke-dashoffset="0" font-family="sans-serif" font-weight="normal" font-size="12" text-anchor="start" style="mix-blend-mode: normal"/></g></svg>