<svg version="1.1" xmlns="http://www.w3.org/2000/svg" xmlns:xlink="http://www.w3.org/1999/xlink" width="1260" height="594" viewBox="0,0,1260,594"><g transform="translate(230.20498,30.46998) scale(1.11054,1.11054)"><g id="wick_project_bg" fill-opacity="0" fill="#ffffff" fill-rule="nonzero" stroke="none" stroke-width="1" stroke-linecap="butt" stroke-linejoin="miter" stroke-miterlimit="10" stroke-dasharray="" stroke-dashoffset="0" font-family="none" font-weight="none" font-size="none" text-anchor="none" style="mix-blend-mode: normal"><rect x="0" y="0" width="720" height="480"/></g><g data-paper-data="{&quot;wickUUID&quot;:&quot;d41bcbdc-8dfb-472a-8e20-8195050dd6d7&quot;,&quot;wickType&quot;:&quot;clipsandpaths&quot;}" fill="none" fill-rule="evenodd" stroke="none" stroke-width="1" stroke-linecap="butt" stroke-linejoin="miter" stroke-miterlimit="10" stroke-dasharray="" stroke-dashoffset="0" font-family="none" font-weight="none" font-size="none" text-anchor="none" style="mix-blend-mode: normal"><path d="M417.67315,177.01302c-7.27033,2.56367 -14.64316,5.7785 -22.40116,9.7625c-6.03533,3.09933 -7.59298,4.2404 -9.26465,6.8484c-1.60967,2.511 -1.80068,2.8609 -3.34501,2.8609c-1.20333,0 -1.50436,-0.67425 -1.50436,-2.02225c0,-0.49933 0.45693,-1.41927 1.0046,-2.49927c1.15333,-2.274 1.19983,-2.93617 0.4745,-4.74917c-0.36267,-0.906 -1.65496,-2.13601 -2.19929,-2.27268c-1.02933,-0.25833 -9.85268,1.3325 -11.07135,1.96283c-1.23667,0.63933 -2.20256,2.08076 -12.75556,19.64309c-5.01233,8.34167 -10.42334,17.20136 -12.01667,19.67636c-1.59367,2.475 -3.32427,5.36664 -3.73694,6.18031c-0.79767,1.57433 -0.83162,2.88104 -0.03095,6.55804l1.70788,2.41756l3.24257,-4.2576c1.68,-2.246 4.07167,-5.15144 5.42434,-6.57344c2.39833,-2.522 2.21822,-2.42583 5.34755,-3.4295c5.18133,-1.662 8.55079,-2.25843 12.80846,-2.2631c4.677,-0.005 13.04864,0.70245 15.65131,1.38045c6.91033,1.8 11.88194,6.7541 16.86861,16.7501c2.91267,5.839 3.98637,9.30353 4.36737,13.72753c0.17367,2.01667 0.36842,4.19349 0.46142,4.99616l1.49607,2.07652l1.97311,-2.98913c7.389,-11.65667 6.9213,-11.07832 9.32297,-12.28532c2.68667,-1.35 6.77454,-3.01911 10.91087,-4.48478c3.497,-1.23933 3.53117,-1.25807 4.55117,-6.73174c0.77067,-4.13633 0.10265,-5.13747 -1.75568,-5.13447c-2.95067,0.005 -7.78904,0.63603 -14.06937,1.89836c-5.79567,1.16467 -6.07737,1.22525 -6.91837,0.75492c-0.765,-0.42767 -0.23095,0.23173 -0.31828,-1.13927c-0.13267,-2.077 0.37678,-3.6272 3.22678,-9.79753c3.00767,-6.51233 5.67317,-10.88407 8.96617,-14.71774l2.71979,-3.19974l-0.1086,-2.48425c-0.10433,-1.12533 -0.34805,-4.18179 -0.53705,-6.74846c-0.523,-7.09533 -1.83096,-16.33363 -2.70696,-19.12696c-0.20767,-0.661 -1.40288,-1.78127 -1.74321,-1.7766c-0.30633,0.004 -2.30041,0.57497 -4.04208,1.18897z" data-paper-data="{&quot;wickUUID&quot;:&quot;2477f746-7465-4720-a002-831872a500bf&quot;,&quot;wickType&quot;:&quot;path&quot;,&quot;originalStyle&quot;:{&quot;strokeColor&quot;:null,&quot;fillColor&quot;:[&quot;Color&quot;,1,0.50196,0],&quot;strokeWidth&quot;:1}}" id="2477f746-7465-4720-a002-831872a500bf" fill="#ff8000"/><path d="M392.7248,274.53122c0,0.10867 0.36441,2.10336 0.98474,3.22236l1.36524,2.31448l1.89924,-1.36803c0.75567,-1.07867 0.48833,-2.79668 -0.39334,-3.36701c-0.84067,-0.54367 -3.85588,-1.10513 -3.85588,-0.8018z" data-paper-data="{&quot;wickUUID&quot;:&quot;94b76077-bb2e-4fcb-8ebd-95bc43527df3&quot;,&quot;wickType&quot;:&quot;path&quot;,&quot;originalStyle&quot;:{&quot;strokeColor&quot;:null,&quot;fillColor&quot;:[&quot;Color&quot;,1,1,1],&quot;strokeWidth&quot;:1}}" id="94b76077-bb2e-4fcb-8ebd-95bc43527df3" fill="#ffffff"/><path d="M384.63852,274.61197c-1.66233,0.60667 -1.82021,1.37396 -0.94554,4.99696l1.01704,3.04954l2.99656,-0.83934c1.26033,-0.472 2.78999,-1.55741 2.78999,-1.67974c0,-0.122 -0.71107,-1.98559 -1.4904,-3.44226l-1.66187,-2.93973z" data-paper-data="{&quot;wickUUID&quot;:&quot;86c3034f-e8fa-4d84-a498-870585ea382f&quot;,&quot;wickType&quot;:&quot;path&quot;,&quot;originalStyle&quot;:{&quot;strokeColor&quot;:null,&quot;fillColor&quot;:[&quot;Color&quot;,1,1,1],&quot;strokeWidth&quot;:1}}" id="86c3034f-e8fa-4d84-a498-870585ea382f" fill="#ffffff"/><path d="M377.01082,278.87529c-1.509,2.07267 -1.97557,4.20027 -1.3829,4.58127c0.35433,0.22767 4.47501,0.30946 4.82801,0.05046c0.03067,-0.02233 0.06197,-1.97787 -0.25203,-3.35287l-0.92007,-3.02083z" data-paper-data="{&quot;wickUUID&quot;:&quot;60a3db5d-fd1f-4dfe-8c34-baf800a293e0&quot;,&quot;wickType&quot;:&quot;path&quot;,&quot;originalStyle&quot;:{&quot;strokeColor&quot;:null,&quot;fillColor&quot;:[&quot;Color&quot;,1,1,1],&quot;strokeWidth&quot;:1}}" id="60a3db5d-fd1f-4dfe-8c34-baf800a293e0" fill="#ffffff"/><path d="M365.42553,228.6386c-3.605,0.586 -8.51285,1.88331 -9.82652,2.55131c-1.12767,0.57333 -5.51771,5.894 -8.47338,10.30967c-1.34433,2.008 -2.01534,3.51674 -2.70434,6.12107c-1.25067,4.72667 -1.60428,6.81565 -1.60428,9.21065c0,2.12433 1.18557,7.56341 2.13057,9.72308c0.492,1.124 1.94829,1.49879 1.97429,0.63846c0.015,-0.491 -0.00592,-0.93149 0.26641,-1.20382c0.55567,-0.55533 3.05267,-1.14636 4.925,-1.18169c0.67867,-0.013 1.8796,-0.3125 2.2226,-0.4475c0.50267,-0.19767 0.46702,-1.51796 -0.64165,-1.85029c-1.65833,-0.49667 -2.30159,-1.06018 -1.98092,-2.33718c0.125,-0.49767 0.85908,-1.25341 1.95508,-2.42508c1.75333,-1.87433 1.83152,-1.94308 2.91485,-1.94308c0.677,0 0.48227,-0.16853 0.78594,0.0608c0.76767,0.57933 2.65877,4.64013 3.63477,8.00746c1.639,5.656 1.49671,5.77435 -4.52462,6.95568c-2.29167,0.44967 -4.56401,0.65463 -5.57234,0.66696l-2.59032,0.86723l2.24946,2.3996c5.76633,5.249 10.37095,7.8023 15.02262,8.33297c1.42467,0.16233 3.53082,0.44637 3.98115,0.55937c0.75167,0.18867 1.36842,-0.29649 1.96742,-2.05816c0.81133,-2.38667 2.49937,-5.10212 4.1207,-6.52179c1.374,-1.203 5.88656,-3.47264 9.20356,-4.62764c3.09967,-1.07967 6.25249,-1.02799 9.80482,0.14868c3.03067,1.004 4.93403,2.20691 5.84703,3.59858l1.60106,0.92314l0.86099,-2.31043c0.29033,-0.97733 0.54083,-2.98469 0.54083,-4.24602c0,-3.37633 -0.65258,-11.9488 -1.06691,-14.06113c-0.37133,-1.893 -2.44354,-7.42369 -3.76554,-10.02502l-1.22077,-1.95456l-1.28623,0.80041c-0.968,1.03033 -1.58303,1.04279 -3.87803,0.12779c-1.465,-0.584 -2.31088,-0.665 -4.38888,-0.49867c-3.43667,0.27467 -7.49222,1.30398 -8.46455,2.02798c-1.212,0.90233 -2.89275,4.08671 -5.54975,10.78004c-2.672,6.73133 -3.39342,8.32094 -4.58542,9.10194c-1.24167,0.81333 -1.38085,0.29376 -3.92385,-2.16157l-1.96992,-1.87422l0.07484,-1.87506c0,-1.922 -0.3297,-2.63342 -1.88637,-5.01775c-2.832,-4.33867 -5.05721,-5.87551 -8.12254,-5.55918c-1.684,0.17367 -1.79803,0.17356 -2.71603,-0.74444c-0.79033,-0.79033 -0.69872,-0.11114 -0.52672,-0.83681c0.27833,-1.17767 0.20587,-1.55568 1.9132,-2.01535c4.08333,-1.09967 8.94121,1.88467 13.05121,7.99734c1.56467,2.327 1.80074,3.00586 1.96741,4.33119l1.68362,1.9125l1.3182,-3.71458c3.02867,-8.71467 5.79782,-13.02194 9.29515,-14.33027c2.439,-0.91267 5.20557,-1.38159 8.48324,-1.65492c2.46067,-0.205 4.18091,0.09049 6.60258,1.08982c0.37,0.153 1.02405,-1.41559 0.67938,-2.06526c-1.62167,-3.05633 -4.87774,-5.90779 -8.73807,-7.68746c-1.95067,-0.899 -3.37831,-1.24911 -7.28898,-1.64211c-7.484,-0.752 -10.89672,-0.84135 -13.78105,-0.37268zM385.90008,247.06477c1.54933,0.78133 2.25546,1.52911 2.25546,2.70878c0,0.76733 -0.89951,4.0341 -1.56784,5.77543c-0.138,0.36 1.2476,1.14473 2.63593,0.64573c0.98267,-0.353 2.90584,-0.87819 4.59617,-1.18419c4.341,-0.78567 4.62263,-0.7648 5.91363,2.0822c1.22833,2.709 1.359,2.96732 0.202,3.87732c-1.261,0.99167 -5.08518,2.33969 -11.26251,4.06569c-2.99533,0.837 -6.61763,1.95593 -8.29163,2.53726c-3.629,1.26 -3.43009,1.55864 -4.97242,-0.87336c-1.45167,-2.28933 -1.26161,-2.74687 0.90439,-7.15987c1.004,-2.046 2.38668,-5.1776 3.16668,-7.19227c1.48033,-3.82367 2.80774,-5.84402 4.11074,-6.08869c0.941,-0.17633 0.7754,0.0323 2.3094,0.80597z" data-paper-data="{&quot;wickUUID&quot;:&quot;6f3a7cbe-5f46-4678-95f5-3ec2d238b0a6&quot;,&quot;wickType&quot;:&quot;path&quot;,&quot;originalStyle&quot;:{&quot;strokeColor&quot;:null,&quot;fillColor&quot;:[&quot;Color&quot;,1,1,1],&quot;strokeWidth&quot;:1}}" id="6f3a7cbe-5f46-4678-95f5-3ec2d238b0a6" fill="#ffffff"/><path d="M393.64222,286.0001c-0.91667,0.23867 -3.22084,0.77798 -5.09984,1.19298c-1.879,0.415 -3.84666,1.10584 -3.84633,1.21417c0.00033,0.10867 0.87126,1.88026 1.74193,2.39159c0.87067,0.51167 2.3194,1.47657 3.16407,2.10924c0.84467,0.63267 2.58166,1.55473 3.77433,2.00373l2.91872,0.80561l0.67623,-2.78569c0.36167,-3.461 0.20991,-6.90046 -0.25876,-6.86646c-0.229,0.01667 -2.15368,-0.30417 -3.07035,-0.06517z" data-paper-data="{&quot;wickUUID&quot;:&quot;39a85139-f2f0-4c48-97bc-4b0bf1f31ff5&quot;,&quot;wickType&quot;:&quot;path&quot;,&quot;originalStyle&quot;:{&quot;strokeColor&quot;:null,&quot;fillColor&quot;:[&quot;Color&quot;,0.50196,0,1],&quot;strokeWidth&quot;:1}}" id="39a85139-f2f0-4c48-97bc-4b0bf1f31ff5" fill="#8000ff"/><path d="M387.11685,269.08888c-3.728,0.912 -9.28,3.368 -11.726,5.186c-2.28,1.696 -4.785,6.525 -5.196,10.018c-0.166,1.413 -0.091,1.864 0.417,2.491c0.62,0.766 2.183,1.066 11.492,2.207c2.661,0.326 11.075,-2.242 14.75,-4.501c4.42,-2.717 5.209,-4.064 4.82,-8.228c-0.178,-1.905 -0.359,-2.385 -1.286,-3.411c-1.217,-1.347 -4.962,-2.993 -8.536,-3.75c-2.503,-0.531 -2.613,-0.531 -4.735,-0.012zM391.47885,273.98588c0.97,0.259 2.542,0.785 3.492,1.171c1.714,0.696 1.728,0.713 1.728,2.11c0,1.313 -0.103,1.48 -1.532,2.463c-2.775,1.909 -9.314,4.208 -12.067,4.243c-1.426,0.018 -7.206,-0.696 -7.481,-0.924c-0.071,-0.059 0.339,-1.059 0.912,-2.222c1.453,-2.952 3.296,-4.19 9.204,-6.183c3.864,-1.304 3.482,-1.26 5.744,-0.658z" data-paper-data="{&quot;wickUUID&quot;:&quot;52de5deb-eee8-4798-a7a4-40f2b16710bc&quot;,&quot;wickType&quot;:&quot;path&quot;,&quot;originalStyle&quot;:{&quot;strokeColor&quot;:null,&quot;fillColor&quot;:[&quot;Color&quot;,0,0,0],&quot;strokeWidth&quot;:1}}" id="52de5deb-eee8-4798-a7a4-40f2b16710bc" fill="#000000"/><path d="M379.64735,274.28909c-0.815,0.816 -0.843,0.955 -0.624,3.204c0.125,1.292 0.426,2.917 0.669,3.609c0.242,0.693 0.44,1.533 0.44,1.868c0,0.979 1.175,1.908 2.413,1.908c2.102,0 3.028,-2.234 1.973,-4.76c-0.268,-0.641 -0.489,-1.623 -0.49,-2.182c-0.002,-1.378 -0.563,-3.303 -1.09,-3.74c-0.237,-0.197 -0.883,-0.449 -1.435,-0.559c-0.806,-0.161 -1.17,-0.034 -1.856,0.652z" data-paper-data="{&quot;wickUUID&quot;:&quot;6c4b8557-918e-4b77-b1bc-c415a01b7cc1&quot;,&quot;wickType&quot;:&quot;path&quot;,&quot;originalStyle&quot;:{&quot;strokeColor&quot;:null,&quot;fillColor&quot;:[&quot;Color&quot;,0,0,0],&quot;strokeWidth&quot;:1}}" id="6c4b8557-918e-4b77-b1bc-c415a01b7cc1" fill="#000000"/><path d="M387.30265,271.76677c-0.903,1.147 -0.858,1.581 0.417,4.032c3.518,6.76 4.779,8.307 6.503,7.974c1.149,-0.222 2.152,-1.251 2.152,-2.208c0,-0.354 -0.844,-2.055 -1.874,-3.781c-1.031,-1.726 -2.148,-3.649 -2.483,-4.275c-1.013,-1.889 -1.827,-2.598 -2.985,-2.598c-0.755,0 -1.249,0.244 -1.73,0.856z" data-paper-data="{&quot;wickUUID&quot;:&quot;e9afbb7e-5fc0-4b84-a90e-b66e655a91c2&quot;,&quot;wickType&quot;:&quot;path&quot;,&quot;originalStyle&quot;:{&quot;strokeColor&quot;:null,&quot;fillColor&quot;:[&quot;Color&quot;,0,0,0],&quot;strokeWidth&quot;:1}}" id="e9afbb7e-5fc0-4b84-a90e-b66e655a91c2" fill="#000000"/><path d="M385.21943,238.94923c-6.032,0.941 -8.592,2.052 -10.232,4.439c-1.647,2.399 -4.181,7.792 -5.232,11.134c-0.559,1.778 -1.225,3.598 -1.48,4.045c-0.441,0.772 -0.464,0.718 -0.475,-1.12c-0.009,-1.466 -0.195,-2.21 -0.771,-3.086c-0.418,-0.635 -1.389,-2.147 -2.159,-3.361c-1.65,-2.602 -3.686,-4.489 -6.236,-5.78c-2.772,-1.402 -4.406,-1.681 -6.389,-1.093c-2.627,0.78 -3.424,2.648 -1.816,4.256c0.696,0.695 1.025,0.798 2.03,0.63c1.852,-0.309 2.595,-0.242 3.728,0.338c2.085,1.067 3.492,2.486 5.095,5.138c1.489,2.465 1.634,2.883 1.634,4.69v1.984l2.033,2.094c3.617,3.725 4.718,3.557 7.037,-1.073c0.862,-1.722 1.965,-4.439 2.451,-6.039c0.968,-3.185 3.96,-9.433 4.94,-10.316c1.057,-0.953 2.735,-1.475 6.539,-2.034c3.854,-0.566 4.975,-0.483 6.953,0.519c1.607,0.813 2.401,0.769 3.357,-0.188c1.785,-1.785 0.428,-3.886 -3.242,-5.019c-2.491,-0.77 -3.689,-0.794 -7.765,-0.158z" data-paper-data="{&quot;wickUUID&quot;:&quot;3e95a733-7773-4836-8783-d9e56bf56826&quot;,&quot;wickType&quot;:&quot;path&quot;,&quot;originalStyle&quot;:{&quot;strokeColor&quot;:null,&quot;fillColor&quot;:[&quot;Color&quot;,0,0,0],&quot;strokeWidth&quot;:1}}" id="3e95a733-7773-4836-8783-d9e56bf56826" fill="#000000"/><path d="M382.54101,246.03539c-1.071,0.466 -2.358,2.386 -3.065,4.571c-0.761,2.35 -4.195,10.006 -5.025,11.205c-1.101,1.588 -1.051,3.049 0.165,4.844c0.533,0.786 0.969,1.536 0.969,1.666c0,0.13 0.441,0.419 0.98,0.642c0.865,0.359 1.2,0.309 2.843,-0.419c1.024,-0.454 4.931,-1.641 8.683,-2.639c6.989,-1.859 11.132,-3.367 12.425,-4.524c0.433,-0.388 0.731,-1.03 0.731,-1.578c0,-1.228 -1.462,-4.781 -2.187,-5.315c-0.955,-0.704 -2.436,-0.813 -4.118,-0.303c-0.877,0.266 -2.08,0.483 -2.673,0.483c-1.023,0 -3.142,0.641 -4.453,1.347c-0.33,0.177 -0.676,0.247 -0.768,0.155c-0.093,-0.093 0.287,-1.262 0.843,-2.599c1.142,-2.743 1.294,-4.677 0.444,-5.66c-0.661,-0.763 -3.584,-2.344 -4.302,-2.325c-0.269,0.007 -0.941,0.209 -1.492,0.449z" data-paper-data="{&quot;wickUUID&quot;:&quot;887e4cb4-357d-4139-ae20-4f41253ca551&quot;,&quot;wickType&quot;:&quot;path&quot;,&quot;originalStyle&quot;:{&quot;strokeColor&quot;:null,&quot;fillColor&quot;:[&quot;Color&quot;,0,0,0],&quot;strokeWidth&quot;:1}}" id="887e4cb4-357d-4139-ae20-4f41253ca551" fill="#000000"/><path d="M353.30628,257.02483c-3.036,3.036 -3.17,5.008 -0.393,5.806c0.767,0.22 1.464,0.455 1.548,0.522c0.365,0.29 -0.912,0.727 -2.139,0.731c-2.182,0.008 -4.786,0.624 -5.451,1.289c-0.672,0.672 -0.8,2.466 -0.217,3.048c0.19,0.19 0.345,0.739 0.345,1.219c0,0.481 0.277,1.215 0.615,1.633c0.963,1.189 4.497,1.252 8.864,0.159c1.857,-0.466 3.69,-0.846 4.072,-0.846c0.912,0 2.041,-1.466 2.041,-2.649c0,-2.261 -3.087,-10.86 -4.433,-12.347c-0.328,-0.363 -0.986,-0.596 -1.68,-0.596c-0.967,0 -1.452,0.311 -3.172,2.031z" data-paper-data="{&quot;wickUUID&quot;:&quot;447a5251-6e6e-4068-8915-4fb243bcdaec&quot;,&quot;wickType&quot;:&quot;path&quot;,&quot;originalStyle&quot;:{&quot;strokeColor&quot;:null,&quot;fillColor&quot;:[&quot;Color&quot;,0,0,0],&quot;strokeWidth&quot;:1}}" id="447a5251-6e6e-4068-8915-4fb243bcdaec" fill="#000000"/><path d="M365.49862,224.28709c-2.568,0.318 -8.292,1.712 -10.643,2.592c-2.503,0.936 -3.346,1.704 -6.736,6.137c-1.587,2.074 -3.557,4.612 -4.378,5.641c-1.945,2.436 -2.578,3.972 -3.982,9.661c-0.996,4.041 -1.164,5.265 -1.178,8.608c-0.014,3.624 0.071,4.173 1.208,7.796c1.893,6.035 3.378,8.835 6.131,11.561c5.568,5.513 11.897,9.683 16.168,10.654c4.722,1.074 7.359,1.446 10.425,1.471c2.471,0.019 3.6,0.158 4.001,0.491c0.731,0.606 1.933,0.592 5.876,-0.068c1.786,-0.299 4.271,-0.697 5.522,-0.885c3.232,-0.485 11.379,-2.494 12.75,-3.145c0.701,-0.332 1.488,-1.108 1.999,-1.971c0.464,-0.783 1.409,-2.299 2.101,-3.37c1.51,-2.336 2.341,-4.866 2.845,-8.664c0.308,-2.319 0.28,-3.757 -0.159,-8.03c-0.293,-2.863 -0.537,-6.079 -0.54,-7.147c-0.005,-1.21 -0.296,-2.736 -0.773,-4.052c-0.421,-1.162 -1.238,-3.427 -1.817,-5.035c-1.302,-3.621 -5.577,-11.047 -8.055,-13.994c-3.438,-4.088 -8.664,-6.871 -14.198,-7.563c-3.598,-0.45 -11.558,-1.032 -13.318,-0.973c-0.715,0.023 -2.177,0.152 -3.249,0.285zM375.73162,229.30309c3.126,0.254 6.488,0.618 7.471,0.81c3.307,0.645 7.218,3.023 9.526,5.791c3.877,4.651 9.313,16.501 9.315,20.305c0,0.931 0.225,3.885 0.5,6.564c0.74,7.213 0.228,10.604 -2.175,14.416c-0.776,1.232 -1.558,2.488 -1.738,2.791c-0.182,0.307 -1.472,0.884 -2.923,1.307l-2.598,0.756l-0.754,-0.945c-0.931,-1.167 -1.865,-1.208 -4.087,-0.181c-7.397,3.421 -21.202,3.392 -28.454,-0.059c-2.159,-1.027 -5.356,-3.441 -9.175,-6.927c-3.291,-3.004 -4.384,-4.931 -6.147,-10.833c-1.347,-4.513 -1.379,-7.45 -0.134,-12.668c1.585,-6.645 1.876,-7.172 8.753,-15.837c2.185,-2.753 2.325,-2.864 4.399,-3.474c4.555,-1.34 8.426,-2.078 11.724,-2.237c0.447,-0.022 3.37,0.168 6.497,0.421z" data-paper-data="{&quot;wickUUID&quot;:&quot;0528c824-5ef6-4ba6-adb8-766d40ef479e&quot;,&quot;wickType&quot;:&quot;path&quot;,&quot;originalStyle&quot;:{&quot;strokeColor&quot;:null,&quot;fillColor&quot;:[&quot;Color&quot;,0,0,0],&quot;strokeWidth&quot;:1}}" id="0528c824-5ef6-4ba6-adb8-766d40ef479e" fill="#000000"/><path d="M400.37491,279.0264c-0.819,0.338 -1.402,1.284 -1.402,2.272c0,0.95 1.421,2.28 2.436,2.28c1.062,0 2.436,-1.345 2.436,-2.385c0,-1.627 -1.902,-2.814 -3.47,-2.167z" data-paper-data="{&quot;wickUUID&quot;:&quot;7d5ed8e3-a0d5-4c4c-bfd3-1d3e6285e8a2&quot;,&quot;wickType&quot;:&quot;path&quot;,&quot;originalStyle&quot;:{&quot;strokeColor&quot;:null,&quot;fillColor&quot;:[&quot;Color&quot;,0,0,0],&quot;strokeWidth&quot;:1}}" id="7d5ed8e3-a0d5-4c4c-bfd3-1d3e6285e8a2" fill="#000000"/><path d="M421.22366,171.42933c-8.765,2.729 -13.003,4.38 -20.627,8.036c-4.555,2.185 -9.444,4.636 -10.863,5.447l-2.58,1.474l-1.087,-2.159c-0.598,-1.187 -1.541,-2.577 -2.096,-3.09c-0.99,-0.913 -1.058,-0.926 -3.615,-0.703c-3.396,0.296 -10.69,1.618 -12.619,2.287c-1.244,0.432 -1.828,0.94 -3.284,2.86c-0.973,1.284 -2.572,3.723 -3.552,5.42c-0.981,1.698 -3.799,6.448 -6.263,10.557c-2.464,4.11 -5.86,9.784 -7.545,12.609c-1.686,2.826 -4.649,7.541 -6.586,10.478c-1.936,2.937 -3.851,6.023 -4.255,6.857c-0.701,1.448 -0.716,1.645 -0.336,4.302c0.637,4.456 2.306,11.682 3.124,13.533c1.084,2.45 2.516,3.044 4.181,1.735c1.036,-0.815 1.091,-1.793 0.23,-4.058c-0.628,-1.651 -2.543,-10.477 -2.679,-12.346c-0.085,-1.158 0.608,-2.426 4.606,-8.422c1.548,-2.323 6.072,-9.705 10.053,-16.404c3.98,-6.7 7.492,-12.547 7.804,-12.994c0.312,-0.446 1.267,-2.054 2.122,-3.573c0.856,-1.518 2.141,-3.513 2.857,-4.433c1.171,-1.504 1.483,-1.707 3.118,-2.029c4.523,-0.891 7.345,-1.334 8.505,-1.334c1.42,0 1.921,0.547 2.588,2.824c0.38,1.3 0.35,1.436 -0.663,3.016c-2.053,3.198 -1.532,5.854 1.148,5.854c1.293,0 2.073,-0.678 3.395,-2.953c0.446,-0.768 1.26,-1.844 1.808,-2.389c0.946,-0.943 6.354,-4.103 9.54,-5.575c0.815,-0.377 4.262,-2.004 7.658,-3.616c5.383,-2.555 15.372,-6.256 16.883,-6.256c1.009,0 3.136,14.083 3.582,23.713c0.104,2.233 0.249,4.449 0.322,4.924c0.109,0.709 -0.272,1.29 -2.132,3.248c-3.148,3.313 -5.289,6.649 -8.528,13.284c-4.828,9.89 -5.532,13.307 -2.944,14.29c0.611,0.233 1.793,0.062 4.771,-0.691c2.178,-0.55 5.831,-1.275 8.119,-1.611c4.046,-0.595 9.172,-0.894 9.511,-0.555c0.176,0.177 -0.573,4.687 -1.275,7.683l-0.412,1.756l-3.231,1.037c-3.871,1.244 -11.953,4.744 -12.876,5.577c-0.703,0.635 -2.891,3.901 -4.75,7.091c-0.625,1.072 -2.276,3.663 -3.669,5.758c-1.393,2.095 -2.744,4.507 -3.002,5.36c-0.258,0.853 -0.848,2.355 -1.311,3.337c-1.121,2.381 -1.119,3.963 0.008,4.849c2.141,1.685 3.444,0.324 5.803,-6.055c0.41,-1.11 1.756,-3.522 2.99,-5.36c1.235,-1.838 2.656,-4.072 3.158,-4.965c0.502,-0.894 1.589,-2.683 2.417,-3.976l1.505,-2.352l4.848,-2.141c2.666,-1.178 6.32,-2.515 8.12,-2.971c3.372,-0.854 4.735,-1.715 4.735,-2.992c0,-0.691 1.804,-9.971 2.287,-11.764c0.445,-1.653 -0.236,-3.283 -1.693,-4.058c-2.225,-1.184 -10.676,-0.854 -18.551,0.722c-1.391,0.279 -2.67,0.459 -2.844,0.401c-0.431,-0.143 6.069,-13.098 7.475,-14.899c0.622,-0.796 2.348,-2.723 3.837,-4.283l2.707,-2.836l-0.2,-3.986c-0.499,-9.891 -1.443,-17.907 -3.218,-27.321c-0.929,-4.93 -1.447,-5.755 -3.581,-5.705c-0.728,0.017 -2.054,0.258 -2.948,0.536z" data-paper-data="{&quot;wickUUID&quot;:&quot;daf14f1a-f862-454d-829b-2dd8a76aae7f&quot;,&quot;wickType&quot;:&quot;path&quot;,&quot;originalStyle&quot;:{&quot;strokeColor&quot;:null,&quot;fillColor&quot;:[&quot;Color&quot;,0,0,0],&quot;strokeWidth&quot;:1}}" id="daf14f1a-f862-454d-829b-2dd8a76aae7f" fill="#000000"/><path d="M320.52592,267.96628c-3.74,0.662 -6.406,1.708 -7.321,2.871c-1.827,2.323 0.803,4.941 3.37,3.354c1.979,-1.223 6.708,-1.948 9.691,-1.486c1.361,0.211 1.603,0.149 2.355,-0.603c1.719,-1.719 0.787,-3.499 -2.235,-4.271c-2.266,-0.578 -1.771,-0.59 -5.86,0.135z" data-paper-data="{&quot;wickUUID&quot;:&quot;7db597da-be25-4bca-8066-79b6392a65ac&quot;,&quot;wickType&quot;:&quot;path&quot;,&quot;originalStyle&quot;:{&quot;strokeColor&quot;:null,&quot;fillColor&quot;:[&quot;Color&quot;,0,0,0],&quot;strokeWidth&quot;:1}}" id="7db597da-be25-4bca-8066-79b6392a65ac" fill="#000000"/><path d="M357.71943,281.40039c-1.192,0.602 -1.669,2.414 -1.94,7.376c-0.418,7.669 -3.07,17.534 -5.577,20.752c-1.199,1.538 -0.481,4.522 1.682,6.985c1.334,1.52 5.415,3.608 8.687,4.444c5.012,1.282 14.408,0.313 20.698,-2.135c1.072,-0.417 3.104,-1.068 4.515,-1.447c2.815,-0.755 3.406,-1.103 7.068,-4.16c3.616,-3.019 5.466,-5.862 6.604,-10.15c1.306,-4.92 1.724,-7.677 1.969,-12.99c0.2,-4.333 0.164,-4.834 -0.458,-6.257c-0.806,-1.845 -1.905,-2.439 -3.381,-1.828c-1.294,0.537 -1.663,1.657 -1.173,3.57c0.517,2.015 -0.074,9.788 -1.022,13.448c-0.37,1.429 -0.831,3.251 -1.023,4.049c-0.193,0.797 -0.92,2.221 -1.617,3.165c-1.823,2.468 -5.923,5.871 -7.554,6.269c-0.731,0.179 -2.645,0.77 -4.253,1.314c-2.671,0.904 -4.943,1.514 -8.445,2.271c-2.63,0.569 -8.186,0.745 -10.176,0.323c-2.498,-0.531 -6.472,-2.572 -7.136,-3.666c-0.489,-0.806 -0.471,-0.939 0.329,-2.417c2.254,-4.165 5.127,-15.379 5.126,-20.011c0,-1.288 0.171,-3.57 0.381,-5.071l0.381,-2.729l-0.886,-0.763c-1,-0.86 -1.624,-0.936 -2.799,-0.342z" data-paper-data="{&quot;wickUUID&quot;:&quot;43c17199-d462-4e97-8b36-1e6c0f8a2bb8&quot;,&quot;wickType&quot;:&quot;path&quot;,&quot;originalStyle&quot;:{&quot;strokeColor&quot;:null,&quot;fillColor&quot;:[&quot;Color&quot;,0,0,0],&quot;strokeWidth&quot;:1}}" id="43c17199-d462-4e97-8b36-1e6c0f8a2bb8" fill="#000000"/><path d="M404.25608,375.16141c-0.893,0.144 -2.209,0.426 -2.923,0.626c-0.715,0.201 -2.228,0.366 -3.362,0.367c-1.889,0.001 -2.142,0.087 -3.008,1.014c-1.27,1.359 -1.429,2.22 -0.777,4.185c0.822,2.474 2.282,4.148 4.71,5.4c5.621,2.897 11.156,2.619 13.89,-0.698c1.454,-1.764 2.188,-4.223 1.743,-5.839c-0.891,-3.234 -3.186,-5.039 -6.632,-5.214c-1.109,-0.056 -2.748,0.015 -3.641,0.159z" data-paper-data="{&quot;wickUUID&quot;:&quot;7128820f-4d61-442c-91ef-392a63af76f9&quot;,&quot;wickType&quot;:&quot;path&quot;,&quot;originalStyle&quot;:{&quot;strokeColor&quot;:null,&quot;fillColor&quot;:[&quot;Color&quot;,0,0,0],&quot;strokeWidth&quot;:1}}" id="7128820f-4d61-442c-91ef-392a63af76f9" fill="#000000"/><path d="M387.7375,312.55816c-0.816,0.815 -0.909,1.069 -0.753,2.042c0.097,0.611 0.761,2.361 1.474,3.889c3.282,7.029 5.927,14.558 7.391,21.038c1.138,5.034 2.679,10.696 3.518,12.92c1.15,3.049 1.04,4.366 -0.844,10.137c-0.884,2.707 -1.954,6.247 -2.379,7.867c-0.424,1.62 -0.959,3.567 -1.19,4.326c-0.629,2.069 -0.539,2.737 0.486,3.6c1.018,0.856 1.381,0.916 2.491,0.41c0.884,-0.403 1.727,-1.903 2.037,-3.623c0.343,-1.904 1.846,-7.039 3.423,-11.695c1.048,-3.093 1.517,-4.987 1.64,-6.626c0.16,-2.128 0.085,-2.564 -1.026,-5.977c-0.66,-2.025 -2.055,-7.061 -3.102,-11.191c-2.122,-8.376 -3.487,-12.495 -6.293,-18.996c-1.049,-2.43 -2.198,-5.183 -2.554,-6.117c-0.769,-2.02 -1.193,-2.496 -2.447,-2.747c-0.796,-0.159 -1.085,-0.044 -1.872,0.743z" data-paper-data="{&quot;wickUUID&quot;:&quot;1d497d38-b825-481c-b10f-6ff9a7ac3d99&quot;,&quot;wickType&quot;:&quot;path&quot;,&quot;originalStyle&quot;:{&quot;strokeColor&quot;:null,&quot;fillColor&quot;:[&quot;Color&quot;,0,0,0],&quot;strokeWidth&quot;:1}}" id="1d497d38-b825-481c-b10f-6ff9a7ac3d99" fill="#000000"/><path d="M353.0123,318.03629c-4.557,4.501 -5.177,5.817 -3.805,8.068c1.187,1.947 9.713,10.16 12.268,11.818c1.337,0.867 2.43,1.676 2.43,1.799c0,0.123 -0.498,0.747 -1.107,1.387c-1.312,1.379 -2.595,1.714 -4.777,1.246c-2.701,-0.579 -4.444,-0.424 -5.947,0.529c-3.564,2.26 -5.075,6.689 -3.816,11.182c1.098,3.917 2.553,5.195 5.915,5.195c3.165,0 4.094,-0.271 6.652,-1.941c4.329,-2.826 7.029,-5.952 9.064,-10.491c1.593,-3.552 1.435,-6.077 -0.559,-8.955c-0.845,-1.219 -1.275,-1.559 -5.278,-4.171c-2.54,-1.658 -5.599,-4.423 -8.453,-7.642l-1.79,-2.02l2.254,-2.077c2.613,-2.408 3.836,-4.25 3.558,-5.359c-0.246,-0.979 -0.988,-1.619 -2.148,-1.851c-0.897,-0.179 -1.128,-0.009 -4.461,3.283z" data-paper-data="{&quot;wickUUID&quot;:&quot;3083aaf4-7ccf-41fe-a53b-f6fe55fb2d91&quot;,&quot;wickType&quot;:&quot;path&quot;,&quot;originalStyle&quot;:{&quot;strokeColor&quot;:null,&quot;fillColor&quot;:[&quot;Color&quot;,0,0,0],&quot;strokeWidth&quot;:1}}" id="3083aaf4-7ccf-41fe-a53b-f6fe55fb2d91" fill="#000000"/><path d="M327.92646,274.17428c-0.63833,0.517 -0.84364,1.18932 -0.75697,2.73332c0.185,3.30367 0.0791,4.47772 -0.6049,6.74805c-0.37267,1.23733 0.0852,3.16887 0.23787,3.16887c0.15233,0 1.71365,-1.06158 2.51332,-2.11591c1.178,-1.55267 1.37565,-1.76319 2.26132,-1.84919c0.602,-0.05833 1.23456,0.17568 1.67223,0.46235c0.77633,0.50867 1.51712,-0.66969 1.84045,-1.84069c0.696,-2.52033 -2.43737,-7.92577 -4.63404,-7.9941c-0.209,-0.00633 -2.11761,0.35397 -2.52928,0.6873z" data-paper-data="{&quot;wickUUID&quot;:&quot;830cccd4-f396-4c7a-af96-b4cb1e6fb894&quot;,&quot;wickType&quot;:&quot;path&quot;,&quot;originalStyle&quot;:{&quot;strokeColor&quot;:null,&quot;fillColor&quot;:[&quot;Color&quot;,0,0,0],&quot;strokeWidth&quot;:1}}" id="830cccd4-f396-4c7a-af96-b4cb1e6fb894" fill="#000000"/><path d="M318.05212,273.05264c-0.73333,0.28133 -2.43369,0.65995 -3.14069,0.80762c-0.707,0.148 -2.20965,0.90292 -2.96932,1.43592c-1.331,0.93367 -1.61364,1.79991 -1.70764,3.73291c-0.118,2.42867 0.866,3.94834 3.319,5.19134c2.07467,1.05133 3.50212,0.86814 4.90645,-0.36486c1.708,-1.49967 2.73874,-4.54272 2.63774,-7.85805c-0.09033,-2.968 -0.75687,-3.82288 -3.04554,-2.94488z" data-paper-data="{&quot;wickUUID&quot;:&quot;750a9fe5-8ef1-407b-91b5-01c5c3551108&quot;,&quot;wickType&quot;:&quot;path&quot;,&quot;originalStyle&quot;:{&quot;strokeColor&quot;:null,&quot;fillColor&quot;:[&quot;Color&quot;,0,0,0],&quot;strokeWidth&quot;:1}}" id="750a9fe5-8ef1-407b-91b5-01c5c3551108" fill="#000000"/><path d="M319.42317,287.61296c-1.641,0.868 -1.83109,0.91905 -3.91976,0.78838c-1.48033,-0.09267 -2.67215,-0.38798 -3.55048,-0.83831c-1.15067,-0.59 -2.41509,0.394 -2.56842,0.793c-0.35867,0.93467 2.31111,7.22231 3.47111,8.18498c0.30233,0.251 2.095,0.29025 3.418,-0.33575c1.77833,-0.841 2.0282,-1.09229 2.21787,-2.60796c0.32867,-2.62333 0.13316,-2.91397 1.81883,-2.91397c1.778,0 1.73708,0.13964 2.05241,2.47497c0.227,1.68067 -0.43599,3.16785 -1.90399,4.75418l-0.7199,1.42028l1.97236,2.04884c1.588,1.588 2.3407,1.76363 3.47337,1.45096c1.49033,-0.41167 4.85114,-2.5899 5.11714,-3.28357c0.11133,-0.28967 -0.26919,-2.80055 -0.86686,-4.62522c-1.08233,-3.304 -1.72406,-4.18192 -3.08906,-4.18192c-0.83767,0 -3.51127,-2.1259 -3.9386,-3.1289l-0.98041,-1.00246z" data-paper-data="{&quot;wickUUID&quot;:&quot;8c9fd137-a7cf-47b9-a3dc-f84d90488d0e&quot;,&quot;wickType&quot;:&quot;path&quot;,&quot;originalStyle&quot;:{&quot;strokeColor&quot;:null,&quot;fillColor&quot;:[&quot;Color&quot;,0,0,0],&quot;strokeWidth&quot;:1}}" id="8c9fd137-a7cf-47b9-a3dc-f84d90488d0e" fill="#000000"/><path d="M314.66427,269.06877c-1.08,0.405 -3.048,1.388 -4.373,2.183c-2.893,1.735 -4.074,3.4 -4.562,6.43c-0.739,4.585 1.344,8.098 6.351,10.709c2.165,1.13 5.21,1.183 7.219,0.128c3.134,-1.648 4.346,-3.275 5.613,-7.536c0.807,-2.717 0.755,-5.047 -0.152,-6.801c-0.953,-1.844 -3.224,-2.097 -4.285,-0.479c-0.478,0.73 -0.495,1.033 -0.136,2.434c0.365,1.424 0.336,1.847 -0.267,3.831c-0.528,1.74 -0.964,2.49 -1.981,3.408c-1.534,1.386 -2.104,1.441 -4.154,0.398c-2.385,-1.214 -3.093,-2.16 -3.249,-4.341c-0.111,-1.553 -0.014,-2.014 0.581,-2.769c0.735,-0.931 3.664,-2.562 5.319,-2.962c1.257,-0.304 2.801,-1.899 2.801,-2.893c0,-1.023 -0.906,-2.097 -1.949,-2.311c-0.447,-0.091 -1.695,0.165 -2.776,0.571z" data-paper-data="{&quot;wickUUID&quot;:&quot;9ac40e43-5957-4b18-9428-3dfedfd37fb9&quot;,&quot;wickType&quot;:&quot;path&quot;,&quot;originalStyle&quot;:{&quot;strokeColor&quot;:null,&quot;fillColor&quot;:[&quot;Color&quot;,0,0,0],&quot;strokeWidth&quot;:1}}" id="9ac40e43-5957-4b18-9428-3dfedfd37fb9" fill="#000000"/><path d="M307.61044,281.65776c-0.315,0.184 -0.973,1.093 -1.462,2.021c-0.798,1.514 -0.889,2.019 -0.886,4.935l0.004,3.248l1.861,3.623c1.023,1.993 2.297,3.99 2.83,4.439c2.63,2.212 5.91,1.841 10.362,-1.174c1.014,-0.687 1.649,-1.468 2.235,-2.747c0.756,-1.651 0.789,-1.916 0.435,-3.495c-0.444,-1.984 -1.181,-2.787 -2.594,-2.827c-1.582,-0.045 -2.306,0.844 -2.306,2.831c0,1.206 -0.165,1.835 -0.58,2.211c-0.844,0.764 -3.508,1.881 -4.018,1.684c-0.24,-0.092 -1.131,-1.594 -1.98,-3.338c-1.74,-3.576 -1.907,-4.921 -0.886,-7.17c0.893,-1.968 0.832,-3.099 -0.213,-3.92c-0.93,-0.732 -1.905,-0.843 -2.802,-0.321z" data-paper-data="{&quot;wickUUID&quot;:&quot;a4bf155e-8c25-481d-9f11-7dbe11ccc840&quot;,&quot;wickType&quot;:&quot;path&quot;,&quot;originalStyle&quot;:{&quot;strokeColor&quot;:null,&quot;fillColor&quot;:[&quot;Color&quot;,0,0,0],&quot;strokeWidth&quot;:1}}" id="a4bf155e-8c25-481d-9f11-7dbe11ccc840" fill="#000000"/><path d="M327.89374,269.24361c-2.112,0.743 -3.713,2.24 -4.825,4.514c-0.808,1.65 -0.824,1.797 -0.42,3.704c0.52,2.448 0.534,2.187 -0.297,5.218c-0.379,1.381 -0.689,3.191 -0.689,4.022c0,1.345 0.152,1.662 1.388,2.898c1.085,1.086 1.715,1.437 2.885,1.613l1.497,0.224l1.027,2.624c0.565,1.444 1.111,3.236 1.213,3.984c0.173,1.259 0.105,1.423 -0.916,2.201c-1.381,1.054 -3.783,2.157 -4.716,2.166c-0.483,0.005 -1.624,-0.978 -3.574,-3.078c-3.183,-3.429 -3.997,-3.77 -5.478,-2.289c-1.49,1.491 -1.096,2.451 2.649,6.45c3.161,3.375 4.163,3.929 6.723,3.716c3.702,-0.307 8.557,-3.106 9.681,-5.581c0.961,-2.115 0.747,-4.346 -0.892,-9.33c-0.121,-0.367 0.065,-0.61 0.583,-0.767c2.061,-0.622 4.477,-4.465 5.648,-8.983c0.626,-2.419 0.381,-3.716 -1.363,-7.208c-1.607,-3.218 -2.441,-4.229 -4.414,-5.353c-2.315,-1.319 -3.6,-1.487 -5.71,-0.745zM331.68574,274.65661c1.151,0.968 3.078,4.743 3.042,5.961c-0.014,0.467 -0.182,1.262 -0.374,1.766l-0.349,0.916l-0.855,-0.672c-1.725,-1.357 -3.151,-0.69 -4.735,2.215c-0.523,0.961 -1.398,1.6 -1.732,1.265c-0.083,-0.082 -0.019,-0.575 0.142,-1.096c1.42,-4.589 1.436,-4.696 1.029,-6.974c-0.42,-2.349 -0.223,-3.214 0.878,-3.855c0.942,-0.549 1.926,-0.391 2.954,0.474z" data-paper-data="{&quot;wickUUID&quot;:&quot;3e97c44b-4fd9-4c36-a6af-fbf734f1c9ec&quot;,&quot;wickType&quot;:&quot;path&quot;,&quot;originalStyle&quot;:{&quot;strokeColor&quot;:null,&quot;fillColor&quot;:[&quot;Color&quot;,0,0,0],&quot;strokeWidth&quot;:1}}" id="3e97c44b-4fd9-4c36-a6af-fbf734f1c9ec" fill="#000000"/><path d="M335.45316,276.90479c-1.368,1.369 -1.082,2.322 1.396,4.649c2.965,2.785 7.591,5.473 11.318,6.576c1.416,0.419 1.508,0.402 9.39,-1.78c3.094,-0.856 4.06,-1.566 4.06,-2.984c0,-0.965 -1.348,-2.386 -2.265,-2.386c-0.369,0 -1.801,0.316 -3.182,0.702c-7.09,1.979 -6.522,1.911 -8.519,1.028c-2.939,-1.299 -5.564,-2.94 -7.72,-4.824c-2.294,-2.006 -3.245,-2.214 -4.478,-0.981z" data-paper-data="{&quot;wickUUID&quot;:&quot;4baaf1f4-6289-4fc4-8196-56f45104d63f&quot;,&quot;wickType&quot;:&quot;path&quot;,&quot;originalStyle&quot;:{&quot;strokeColor&quot;:null,&quot;fillColor&quot;:[&quot;Color&quot;,0,0,0],&quot;strokeWidth&quot;:1}}" id="4baaf1f4-6289-4fc4-8196-56f45104d63f" fill="#000000"/><path d="M349.6509,295.50715c-1.78363,2.61993 -3.79179,6.34913 -4.1928,7.97604c-0.45532,1.84578 -0.63516,5.41491 -0.43875,5.90897c0.08115,0.20413 2.30643,0.11594 4.53665,-0.77069c3.14152,-1.24891 3.32509,-1.34308 4.32462,-1.0467c1.00875,0.29881 0.43427,-0.17143 0.79033,1.16812c0.21709,0.81764 0.32809,3.39255 0.25927,5.78738c-0.22355,7.77671 0.15516,8.65905 2.34301,8.69717c1.58505,0.02773 4.18797,-1.0216 5.12032,-2.82422c1.36704,-2.64371 2.15825,-3.14141 4.07495,-2.50407l0.23136,0.06837l1.29753,3.83583l1.4412,4.1476l1.97959,1.43363c1.95082,1.33401 5.01025,2.38871 5.86524,2.0463c0.35212,-0.14106 1.81091,-1.34663 2.15934,-1.959c0.61253,-1.07679 0.57928,-1.72873 -0.23583,-2.56367c-0.46372,-0.47531 -1.13248,-1.40241 -1.50491,-2.10915c-0.58193,-1.10377 -0.79483,-0.581 -0.35989,-1.65247c0.62751,-1.5462 0.98115,-1.62128 4.03066,-1.60109c2.11077,0.01388 2.96256,-0.22505 5.72262,-1.36966c3.74641,-1.5536 5.01901,-2.82889 6.18679,-5.98919c0.83584,-2.26286 1.51912,-7.2233 1.37511,-10.28251l-0.34938,-2.58799l-3.64861,-1.60555c-1.89123,-0.80243 -3.77726,-1.82887 -4.26207,-2.31839c-1.0446,-1.05579 -5.36949,-3.7281 -7.37406,-4.55936c-1.10912,-0.46014 -2.00821,-0.55781 -2.34982,-0.15297c-1.30878,1.55051 -9.32443,2.80792 -17.80568,2.79272c-6.95273,-0.01235 -8.03234,0.29492 -9.21679,2.03455z" data-paper-data="{&quot;wickUUID&quot;:&quot;901b510b-d382-461a-beee-5992db25944f&quot;,&quot;wickType&quot;:&quot;path&quot;,&quot;originalStyle&quot;:{&quot;strokeColor&quot;:null,&quot;fillColor&quot;:[&quot;Color&quot;,0,0,0],&quot;strokeWidth&quot;:1}}" id="901b510b-d382-461a-beee-5992db25944f" fill="#000000"/><path d="M357.19016,283.88373c-0.80643,0.77042 -1.21107,2.52718 -0.90091,3.91369c0.15195,0.67996 0.25455,1.24394 0.22853,1.25429c-0.02602,0.01035 -0.89256,0.05569 -1.92549,0.09937c-4.40788,0.18659 -7.72565,1.91342 -9.19872,4.78581c-0.4009,0.78353 -1.2685,2.29066 -1.92624,3.34848c-1.58659,2.55163 -2.57238,5.59403 -2.92915,9.04388c-0.38273,3.69584 -0.09381,5.02081 1.41815,6.50419c0.95991,0.94202 1.47143,1.15944 2.87126,1.21848c0.93601,0.04005 2.63973,-0.21112 3.78565,-0.55799l2.08484,-0.62975l-0.16926,4.08662c-0.26266,6.3664 0.90714,8.95431 4.65278,10.28791c2.16878,0.77244 4.27804,0.62369 6.43253,-0.45343c1.00159,-0.50149 2.0041,-1.08729 2.22757,-1.30204c0.34033,-0.32685 0.57062,-0.07511 1.41471,1.54464c1.23064,2.35927 2.07113,3.12814 4.92943,4.50351c1.21841,0.58529 2.778,1.40621 3.4668,1.82325c1.62425,0.98353 4.15435,0.89455 6.06732,-0.21354c3.08446,-1.78582 5.60828,-6.2758 4.7464,-8.44377l-0.40859,-1.02776l2.13455,-0.51284c2.72145,-0.65255 6.85101,-2.87643 8.31786,-4.47867c2.4053,-2.6253 4.085,-7.58466 4.41106,-13.02281c0.23252,-3.8761 -0.14344,-6.81943 -1.11064,-8.70554c-0.67334,-1.31207 -0.93714,-1.52356 -2.48836,-2.00129c-2.67395,-0.82234 -4.82577,-1.88778 -6.02732,-2.98555c-0.6016,-0.54963 -1.92035,-1.45768 -2.92954,-2.01746c-1.00919,-0.55978 -2.84672,-1.57905 -4.08349,-2.26465c-1.23677,-0.6856 -3.86784,-1.76282 -5.84807,-2.39391c-1.9793,-0.63146 -4.6281,-1.49071 -5.88586,-1.90969c-4.71818,-1.57111 -11.44889,-1.31553 -13.3578,0.50657zM353.39474,294.15658c0.78724,-0.12034 3.00912,-0.13738 4.93606,-0.03823c3.72874,0.19209 7.09602,-0.01341 12.4538,-0.75843c3.79748,-0.52827 5.25383,-1.02007 5.89207,-1.99158c0.41693,-0.63494 0.57419,-0.62643 2.15682,0.10354c3.42794,1.58473 7.30365,4.017 7.60437,4.77341c0.31586,0.79452 0.67682,0.98246 4.78345,2.49323l2.59401,0.9542l0.17459,1.82781c0.4653,4.8599 -0.92317,11.28538 -2.93933,13.59563c-0.98117,1.12399 -1.58397,1.49169 -4.22035,2.57207c-2.79677,1.14522 -3.28742,1.25095 -5.39096,1.15421c-2.7536,-0.12671 -4.14748,0.33272 -4.66644,1.53661c-0.5714,1.32373 0.04818,3.29639 1.35279,4.30692c1.40305,1.08761 1.52459,1.47727 0.80401,2.57191c-1.36386,2.07245 -1.85924,2.13381 -5.1063,0.63321c-3.81306,-1.76307 -3.93935,-1.92916 -5.5599,-7.3887c-0.83784,-2.82211 -0.86875,-2.87548 -1.93886,-3.33678c-1.63375,-0.70427 -2.99686,-0.03753 -3.90531,1.91091c-0.96274,2.06365 -1.76921,2.93953 -3.25231,3.52914c-1.38924,0.5523 -3.12519,0.05654 -3.55077,-1.01397c-0.1341,-0.33732 -0.19299,-2.0906 -0.13067,-3.89636c0.34531,-9.9806 0.25802,-10.49795 -1.82606,-10.92741c-0.88482,-0.182 -1.58196,0.00798 -4.38755,1.19867c-2.02962,0.86068 -3.45842,1.32432 -3.6492,1.18279c-0.17132,-0.12775 -0.21406,-1.33969 -0.09347,-2.69297c0.2368,-2.65532 1.37569,-5.56165 3.50495,-8.93811c1.82091,-2.88799 1.95837,-2.99429 4.36056,-3.36172z" data-paper-data="{&quot;wickUUID&quot;:&quot;939bef9c-d3ee-4a78-ab12-bd350778f2fe&quot;,&quot;wickType&quot;:&quot;path&quot;,&quot;originalStyle&quot;:{&quot;strokeColor&quot;:null,&quot;fillColor&quot;:[&quot;Color&quot;,0,0,0],&quot;strokeWidth&quot;:1}}" id="939bef9c-d3ee-4a78-ab12-bd350778f2fe" fill="#000000"/><path d="M399.77059,279.82891c-0.997,0.996 -0.999,1.666 -0.013,4.01c0.432,1.026 1.541,4.345 2.464,7.375c0.923,3.03 1.748,5.621 1.833,5.759c0.262,0.423 -0.596,0.273 -3.226,-0.567c-3.808,-1.216 -5.442,-1.02 -6.109,0.733c-0.604,1.589 0.749,3.331 2.588,3.331c0.318,0 2.34,0.648 4.493,1.44c5.207,1.915 5.898,2.03 6.995,1.167c1.133,-0.891 1.416,-2.449 0.809,-4.45c-5.121,-16.869 -5.741,-18.566 -7.037,-19.259c-1.016,-0.544 -1.946,-0.391 -2.797,0.461z" data-paper-data="{&quot;wickUUID&quot;:&quot;8ae8339d-dd62-4cfb-9640-af8f213233db&quot;,&quot;wickType&quot;:&quot;path&quot;,&quot;originalStyle&quot;:{&quot;strokeColor&quot;:null,&quot;fillColor&quot;:[&quot;Color&quot;,0,0,0],&quot;strokeWidth&quot;:1}}" id="8ae8339d-dd62-4cfb-9640-af8f213233db" fill="#000000"/></g><g data-paper-data="{&quot;wickUUID&quot;:&quot;99244c09-8c40-482d-b781-65d556971edc&quot;,&quot;wickType&quot;:&quot;clipsandpaths&quot;}" fill="none" fill-rule="nonzero" stroke="none" stroke-width="1" stroke-linecap="butt" stroke-linejoin="miter" stroke-miterlimit="10" stroke-dasharray="" stroke-dashoffset="0" font-family="sans-serif" font-weight="normal" font-size="12" text-anchor="start" style="mix-blend-mode: normal"/><g fill="none" fill-rule="nonzero" stroke="none" stroke-width="1" stroke-linecap="butt" stroke-linejoin="miter" stroke-miterlimit="10" stroke-dasharray="" stroke-dashoffset="0" font-family="sans-serif" font-weight="normal" font-size="12" text-anchor="start" style="mix-blend-mode: normal"/><g id="wick_project_gui" fill="none" fill-rule="nonzero" stroke="none" stroke-width="1" stroke-linecap="butt" stroke-linejoin="miter" stroke-miterlimit="10" stroke-dasharray="" stroke-dashoffset="0" font-family="sans-serif" font-weight="normal" font-size="12" text-anchor="start" style="mix-blend-mode: normal"/></g></svg>