<svg version="1.1" xmlns="http://www.w3.org/2000/svg" xmlns:xlink="http://www.w3.org/1999/xlink" width="1260" height="594" viewBox="0,0,1260,594"><g transform="translate(230.20498,30.46998) scale(1.11054,1.11054)"><g id="wick_project_bg" fill-opacity="0" fill="#ffffff" fill-rule="nonzero" stroke="none" stroke-width="1" stroke-linecap="butt" stroke-linejoin="miter" stroke-miterlimit="10" stroke-dasharray="" stroke-dashoffset="0" font-family="none" font-weight="none" font-size="none" text-anchor="none" style="mix-blend-mode: normal"><rect x="0" y="0" width="720" height="480"/></g><g data-paper-data="{&quot;wickUUID&quot;:&quot;d5847328-537e-450b-8608-1a6eadfd4566&quot;,&quot;wickType&quot;:&quot;clipsandpaths&quot;}" fill="none" fill-rule="evenodd" stroke="none" stroke-width="1" stroke-linecap="butt" stroke-linejoin="miter" stroke-miterlimit="10" stroke-dasharray="" stroke-dashoffset="0" font-family="none" font-weight="none" font-size="none" text-anchor="none" style="mix-blend-mode: normal"><path d="M362.70878,344.18003c-5.902,1.92367 -6.62043,2.60412 -8.10743,7.29545c-1.13633,3.58467 -0.95129,6.69864 0.11971,7.10964c0.85133,0.32667 5.99026,-0.46849 7.54859,-1.24749c2.32733,-1.16333 5.31893,-5.64081 6.3336,-9.53614c0.532,-2.04167 0.29857,-5.22524 -0.11143,-5.19524c-0.13733,0.00967 -3.22504,0.73978 -5.78304,1.57378z" data-paper-data="{&quot;wickUUID&quot;:&quot;3a2a2e5d-5a37-4995-9d51-8fdd20151c53&quot;,&quot;wickType&quot;:&quot;path&quot;,&quot;originalStyle&quot;:{&quot;strokeColor&quot;:null,&quot;fillColor&quot;:[&quot;Color&quot;,0,0,0],&quot;strokeWidth&quot;:1}}" fill="#000000"/><path d="M360.15,288.04533l0.16245,2.48477l1.99828,0.08273c0.68767,-0.14567 3.15445,-0.26592 5.72112,-0.25659c7.46833,0.02733 15.88277,1.84897 21.43577,4.6393c2.31033,1.161 6.39184,2.11702 6.68551,1.82369c0.28067,-0.281 0.9942,-5.07612 1.0132,-7.94212c0.01667,-2.55233 -0.73658,-3.45353 -1.46725,-3.27486c-0.41267,0.10067 -3.87517,0.69962 -7.45017,1.33529c-7.26667,1.292 -11.44904,1.51754 -13.35571,0.72087c-0.669,-0.27967 -1.63405,-0.49805 -2.32738,-0.49905c-1.53733,-0.00233 -6.89103,-0.8294 -9.50703,-1.46873l-2.58624,-0.29719z" data-paper-data="{&quot;wickUUID&quot;:&quot;b20ed271-85a0-4ec3-94ae-177acc776441&quot;,&quot;wickType&quot;:&quot;path&quot;,&quot;originalStyle&quot;:{&quot;strokeColor&quot;:null,&quot;fillColor&quot;:[&quot;Color&quot;,0.50196,0,1],&quot;strokeWidth&quot;:1}}" fill="#8000ff"/><path d="M354.32194,254.73608c-1.51206,1.16792 -3.34363,3.44716 -3.37708,4.27982c-0.01844,0.44929 0.47103,1.64301 1.26907,2.11405c1.2327,0.72775 1.70151,0.79251 1.07387,1.36982c-0.18944,0.17425 -1.01591,0.04863 -2.41756,0.14689c-2.95288,0.20695 -4.47674,0.75624 -4.69301,1.68469c-0.0845,0.36179 -0.72656,1.68184 -0.87293,1.76748c-0.3006,0.17594 0.78374,2.82689 1.6097,3.97136c0.48125,0.667 1.3792,1.04273 2.56608,0.82274c0.73969,-0.13692 3.12212,-0.46271 4.96547,-0.66429c6.25269,-0.68466 7.61213,-1.65455 7.38852,-4.01694c-0.20332,-2.14535 -1.88872,-8.17992 -2.93174,-10.19788c-1.06682,-2.06332 -2.87218,-2.59693 -4.58039,-1.27774z" data-paper-data="{&quot;wickUUID&quot;:&quot;718e7d13-515b-4e02-920c-147f02f61483&quot;,&quot;wickType&quot;:&quot;path&quot;,&quot;originalStyle&quot;:{&quot;strokeColor&quot;:null,&quot;fillColor&quot;:[&quot;Color&quot;,1,1,1],&quot;strokeWidth&quot;:1}}" id="718e7d13-515b-4e02-920c-147f02f61483" fill="#ffffff"/><path d="M420.86343,178.29675c-7.37098,2.25803 -14.87156,5.16236 -22.78906,8.81913c-6.15942,2.84476 -7.76333,3.91984 -9.54238,6.4558c-1.71306,2.44164 -1.9185,2.78326 -3.46148,2.71881c-1.20228,-0.05022 -1.47492,-0.73644 -1.41866,-2.08327c0.02084,-0.49889 0.51577,-1.39897 1.10803,-2.45517c1.24723,-2.22389 1.32132,-2.88354 0.67228,-4.72523c-0.32454,-0.92035 -1.56438,-2.20321 -2.10253,-2.36248c-1.01765,-0.30106 -9.89971,0.92017 -11.14362,1.49909c-1.26227,0.58716 -2.28747,1.98702 -13.5642,19.09365c-5.35608,8.12523 -11.13212,16.75138 -12.82735,19.15773c-1.69557,2.40634 -3.54534,5.22324 -3.99161,6.01898c-0.86268,1.53967 -0.95112,2.84382 -0.3046,6.55103l1.6055,2.48673l3.41742,-4.11857c1.77227,-2.17393 4.2831,-4.97703 5.69394,-6.34134c2.50149,-2.41971 2.31753,-2.33115 5.48602,-3.20335c5.24618,-1.44432 8.63758,-1.89962 12.89174,-1.7266c4.67313,0.19019 13.00796,1.24639 15.58007,2.03242c6.82919,2.08682 11.58972,7.24408 16.15489,17.43948c2.66646,5.95547 3.59464,9.46178 3.79068,13.89783c0.08936,2.02216 0.19309,4.20521 0.25251,5.01106l1.40811,2.13715l2.09614,-2.90418c7.86903,-11.33815 7.37759,-10.77983 9.82754,-11.88555c2.74067,-1.2367 6.89464,-2.73376 11.08853,-4.02553c3.54567,-1.09231 3.5806,-1.10962 4.82814,-6.53595c0.94262,-4.10056 0.31696,-5.1287 -1.53988,-5.20326c-2.94831,-0.11814 -7.80879,0.31041 -14.13633,1.30955c-5.83923,0.92179 -6.12321,0.97056 -6.94385,0.46554c-0.74649,-0.45922 -0.24042,0.22189 -0.27046,-1.15156c-0.04588,-2.08073 0.52783,-3.60831 3.63285,-9.65433c3.27683,-6.38114 6.12244,-10.63784 9.57256,-14.33074l2.85096,-3.08344l-0.00483,-2.48662c-0.05728,-1.1287 -0.17324,-4.19268 -0.25496,-6.765c-0.22644,-7.11097 -1.14772,-16.39581 -1.90638,-19.22326c-0.1799,-0.66909 -1.32732,-1.83826 -1.66755,-1.8478c-0.30623,-0.00879 -2.3224,0.47847 -4.08818,1.01925z" data-paper-data="{&quot;wickUUID&quot;:&quot;b6f24374-fd2e-480a-8355-f88d8d87190d&quot;,&quot;wickType&quot;:&quot;path&quot;,&quot;originalStyle&quot;:{&quot;strokeColor&quot;:null,&quot;fillColor&quot;:[&quot;Color&quot;,1,0.50196,0],&quot;strokeWidth&quot;:1}}" id="b6f24374-fd2e-480a-8355-f88d8d87190d" fill="#ff8000"/><path d="M391.86713,274.68883c-0.00454,0.10858 0.27632,2.11674 0.84941,3.26065l1.26746,2.36944l1.95467,-1.28758c0.80003,-1.04619 0.60462,-2.77386 -0.25248,-3.38049c-0.81725,-0.57828 -3.8064,-1.26509 -3.81906,-0.96202z" data-paper-data="{&quot;wickUUID&quot;:&quot;ad124d04-3988-46cb-a69b-8f508cd1532e&quot;,&quot;wickType&quot;:&quot;path&quot;,&quot;originalStyle&quot;:{&quot;strokeColor&quot;:null,&quot;fillColor&quot;:[&quot;Color&quot;,1,1,1],&quot;strokeWidth&quot;:1}}" id="ad124d04-3988-46cb-a69b-8f508cd1532e" fill="#ffffff"/><path d="M383.78453,274.43205c-1.6862,0.53677 -1.87597,1.2968 -1.15326,4.95315l0.88889,3.08932l3.02898,-0.71355c1.27893,-0.41899 2.85255,-1.43962 2.85766,-1.56184c0.00509,-0.12189 -0.62759,-2.01354 -1.34545,-3.50146l-1.53774,-3.00653z" data-paper-data="{&quot;wickUUID&quot;:&quot;3a758521-7df0-4623-a195-7a16f0f97ca2&quot;,&quot;wickType&quot;:&quot;path&quot;,&quot;originalStyle&quot;:{&quot;strokeColor&quot;:null,&quot;fillColor&quot;:[&quot;Color&quot;,1,1,1],&quot;strokeWidth&quot;:1}}" id="3a758521-7df0-4623-a195-7a16f0f97ca2" fill="#ffffff"/><path d="M375.98555,278.37333c-1.59418,2.00789 -2.14913,4.11417 -1.57288,4.51957c0.34452,0.24226 4.4582,0.49594 4.8217,0.2519c0.03158,-0.02103 0.14445,-1.97356 -0.11189,-3.36047l-0.7932,-3.05659z" data-paper-data="{&quot;wickUUID&quot;:&quot;5a1e9cc7-998a-4dbf-9236-8a407a9c97ac&quot;,&quot;wickType&quot;:&quot;path&quot;,&quot;originalStyle&quot;:{&quot;strokeColor&quot;:null,&quot;fillColor&quot;:[&quot;Color&quot;,1,1,1],&quot;strokeWidth&quot;:1}}" id="5a1e9cc7-998a-4dbf-9236-8a407a9c97ac" fill="#ffffff"/><path d="M366.50686,227.69692c-3.62631,0.43504 -8.58403,1.5264 -9.92443,2.139c-1.15061,0.52577 -5.75888,5.6586 -8.89625,9.94708c-1.42696,1.95015 -2.16034,3.42957 -2.95743,6.00288c-1.44684,4.67036 -1.88732,6.74276 -1.98727,9.13567c-0.08865,2.12248 0.8689,7.60629 1.72295,9.80352c0.44466,1.14355 1.88404,1.5788 1.94592,0.7203c0.03548,-0.48995 0.03296,-0.93092 0.31642,-1.19165c0.57836,-0.53166 3.09785,-1.01797 4.97002,-0.97513c0.67862,0.01533 1.891,-0.23379 2.23934,-0.35436c0.51048,-0.17652 0.52997,-1.49714 -0.56387,-1.87545c-1.63616,-0.56544 -2.25534,-1.1553 -1.88166,-2.41781c0.14566,-0.49202 0.91064,-1.21647 2.05458,-2.34138c1.83002,-1.79953 1.91101,-1.86495 2.9934,-1.81974c0.67641,0.02825 0.48889,-0.14826 0.78272,0.09354c0.74282,0.61086 2.46281,4.74704 3.29743,8.15217c1.40153,5.71947 1.25443,5.83178 -4.81095,6.7608c-2.30844,0.35364 -4.58735,0.46359 -5.59532,0.43383l-2.62426,0.75837l2.14736,2.49139c5.54225,5.48507 10.03631,8.22831 14.66178,8.95264c1.41665,0.22164 3.50912,0.59334 3.95434,0.72503c0.74314,0.21987 1.37959,-0.23912 2.05159,-1.97426c0.91023,-2.35073 2.71013,-4.99337 4.38929,-6.34414c1.42301,-1.14461 6.02635,-3.22395 9.38866,-4.23952c3.14203,-0.94937 6.28994,-0.76616 9.79007,0.55773c2.98613,1.1296 4.83763,2.41089 5.69176,3.83945l1.56114,0.98916l0.95666,-2.27249c0.33086,-0.96436 0.66492,-2.95952 0.71756,-4.21975c0.1409,-3.37339 -0.15335,-11.96562 -0.47917,-14.0934c-0.29201,-1.90685 -2.1316,-7.51921 -3.34389,-10.17344l-1.13814,-2.0038l-1.31851,0.74604c-1.01016,0.98904 -1.62517,0.97581 -3.87999,-0.03417c-1.43935,-0.64463 -2.28111,-0.76085 -4.36424,-0.68139c-3.44514,0.13101 -7.54011,0.99017 -8.54181,1.67296c-1.2486,0.85096 -3.06078,3.96243 -5.9948,10.53905c-2.95059,6.61396 -3.73772,8.17208 -4.96127,8.90265c-1.27453,0.7608 -1.3919,0.23588 -3.83022,-2.32344l-1.88999,-1.9548l0.15302,-1.8703c0.08021,-1.92033 -0.21951,-2.64488 -1.67532,-5.0921c-2.64847,-4.45308 -4.8076,-6.08145 -7.88346,-5.89332c-1.68978,0.10324 -1.80371,0.09838 -2.6826,-0.85713c-0.75666,-0.82262 -0.69347,-0.14021 -0.49134,-0.85807c0.32723,-1.16503 0.27061,-1.54573 1.99564,-1.93375c4.12566,-0.9283 8.85477,2.25617 12.70609,8.53504c1.4662,2.39027 1.67372,3.07839 1.78494,4.40952l1.60234,1.98109l1.47208,-3.65633c3.38972,-8.58068 6.33621,-12.76863 9.88509,-13.92987c2.47496,-0.81009 5.25869,-1.16315 8.54491,-1.29946c2.46708,-0.10213 4.17349,0.2649 6.55135,1.36442c0.36329,0.16831 1.08223,-1.37162 0.76497,-2.03511c-1.49271,-3.12134 -4.62694,-6.10621 -8.40964,-8.04543c-1.91145,-0.97962 -3.32324,-1.389 -7.2141,-1.94486c-7.4461,-1.06367 -10.85211,-1.29537 -13.75349,-0.94748zM386.1946,246.9615c1.51537,0.84531 2.18968,1.6219 2.14045,2.80054c-0.03202,0.76666 -1.06707,3.99305 -1.80749,5.70497c-0.1529,0.35393 1.19873,1.1958 2.60668,0.75517c0.99655,-0.31168 2.93996,-0.75616 4.64159,-0.99135c4.37001,-0.60382 4.65052,-0.57122 5.82158,2.32718c1.11421,2.7579 1.23398,3.02145 0.04001,3.88237c-1.30129,0.93818 -5.17839,2.12544 -11.42237,3.59214c-3.02765,0.71127 -6.69349,1.67806 -8.39029,2.18902c-3.67842,1.10745 -3.49215,1.41414 -4.93164,-1.08011c-1.35487,-2.34792 -1.14588,-2.79713 1.2024,-7.11589c1.08851,-2.00232 2.60067,-5.07349 3.46407,-7.05385c1.63861,-3.75856 3.04918,-5.72176 4.36126,-5.91184c0.94754,-0.13691 0.77337,0.06464 2.27375,0.90165z" data-paper-data="{&quot;wickUUID&quot;:&quot;158c3b0f-11aa-45d1-8726-6d04eeef6352&quot;,&quot;wickType&quot;:&quot;path&quot;,&quot;originalStyle&quot;:{&quot;strokeColor&quot;:null,&quot;fillColor&quot;:[&quot;Color&quot;,1,1,1],&quot;strokeWidth&quot;:1}}" id="158c3b0f-11aa-45d1-8726-6d04eeef6352" fill="#ffffff"/><path d="M386.49119,269.0172c-3.76281,0.75563 -9.41247,2.97778 -11.93221,4.69212c-2.34879,1.59937 -5.05314,6.31963 -5.60955,9.79243c-0.22482,1.40484 -0.16871,1.85859 0.31268,2.50624c0.58749,0.79121 2.13662,1.15617 11.38989,2.68466c2.64508,0.43677 11.15891,-1.77786 14.92498,-3.88152c4.52954,-2.53017 5.37407,-3.84307 5.15918,-8.01968c-0.09834,-1.91077 -0.25916,-2.39791 -1.14253,-3.4617c-1.15973,-1.39662 -4.83278,-3.19747 -8.37207,-4.10296c-2.47866,-0.63499 -2.58856,-0.63958 -4.73037,-0.20959zM390.64503,274.09197c0.95835,0.29925 2.50702,0.8904 3.44008,1.31571c1.68346,0.76692 1.69674,0.7845 1.63844,2.18028c-0.05479,1.31186 -0.16467,1.47441 -1.63345,2.39692c-2.85225,1.79153 -9.4815,3.81563 -12.23356,3.73571c-1.42551,-0.04153 -7.17067,-0.99611 -7.43592,-1.23539c-0.06848,-0.06191 0.3829,-1.04394 1.00394,-2.18201c1.57493,-2.88879 3.46798,-4.0488 9.45401,-5.79351c3.91505,-1.14161 3.53155,-1.11358 5.76646,-0.41771z" data-paper-data="{&quot;wickUUID&quot;:&quot;5a5b08d4-5776-42c4-8946-d07290da4f10&quot;,&quot;wickType&quot;:&quot;path&quot;,&quot;originalStyle&quot;:{&quot;strokeColor&quot;:null,&quot;fillColor&quot;:[&quot;Color&quot;,0,0,0],&quot;strokeWidth&quot;:1}}" id="5a5b08d4-5776-42c4-8946-d07290da4f10" fill="#000000"/><path d="M378.81118,273.90116c-0.84834,0.78128 -0.88212,0.91898 -0.75717,3.17516c0.07097,1.29609 0.3039,2.93224 0.51781,3.63378c0.21287,0.7025 0.37564,1.55002 0.36166,1.88473c-0.04086,0.97815 1.09435,1.95538 2.33127,2.00704c2.10017,0.08772 3.11859,-2.10568 2.16993,-4.67351c-0.24102,-0.65163 -0.42085,-1.642 -0.39852,-2.20055c0.05551,-1.37688 -0.42467,-3.32362 -0.93297,-3.78223c-0.22857,-0.20672 -0.86349,-0.48546 -1.41042,-0.6184c-0.79858,-0.1945 -1.16756,-0.08279 -1.88159,0.57398z" data-paper-data="{&quot;wickUUID&quot;:&quot;6ffb5f7c-fb57-48c8-b3cf-c613d51b2a03&quot;,&quot;wickType&quot;:&quot;path&quot;,&quot;originalStyle&quot;:{&quot;strokeColor&quot;:null,&quot;fillColor&quot;:[&quot;Color&quot;,0,0,0],&quot;strokeWidth&quot;:1}}" id="6ffb5f7c-fb57-48c8-b3cf-c613d51b2a03" fill="#000000"/><path d="M386.56507,271.70051c-0.95008,1.10832 -0.92323,1.54382 0.24837,4.04589c3.23282,6.90093 4.42816,8.4992 6.16456,8.23844c1.15726,-0.17386 2.20233,-1.1601 2.24227,-2.11627c0.01477,-0.35369 -0.7575,-2.08843 -1.71457,-3.85591c-0.95807,-1.76752 -1.99385,-3.73546 -2.30243,-4.3749c-0.93328,-1.92963 -1.71699,-2.67198 -2.87398,-2.72031c-0.75434,-0.03151 -1.2581,0.19167 -1.76422,0.78306z" data-paper-data="{&quot;wickUUID&quot;:&quot;5564ee10-dca9-4de7-bbd0-ea1ab8ed0acc&quot;,&quot;wickType&quot;:&quot;path&quot;,&quot;originalStyle&quot;:{&quot;strokeColor&quot;:null,&quot;fillColor&quot;:[&quot;Color&quot;,0,0,0],&quot;strokeWidth&quot;:1}}" id="5564ee10-dca9-4de7-bbd0-ea1ab8ed0acc" fill="#000000"/><path d="M385.85323,238.82462c-6.06602,0.68845 -8.67015,1.69165 -10.40834,4.00813c-1.74568,2.32818 -4.50254,7.61072 -5.69209,10.90595c-0.63271,1.75312 -1.37409,3.54374 -1.64752,3.97971c-0.47283,0.75292 -0.49356,0.69802 -0.42785,-1.13884c0.05219,-1.4651 -0.1026,-2.21622 -0.64154,-3.11549c-0.39114,-0.65189 -1.29818,-2.20309 -2.01685,-3.44817c-1.53997,-2.66859 -3.49546,-4.63892 -5.98936,-6.03521c-2.71108,-1.51646 -4.33201,-1.86341 -6.33782,-1.35868c-2.65726,0.66969 -3.53152,2.5028 -1.99203,4.17651c0.66639,0.72344 0.9908,0.84007 2.00194,0.71416c1.86328,-0.23144 2.60284,-0.13349 3.71065,0.49329c2.03865,1.15308 3.38521,2.62956 4.87614,5.34615c1.38483,2.52499 1.51226,2.94868 1.43685,4.75411l-0.0828,1.98227l1.94384,2.17702c3.4584,3.8727 4.56545,3.75079 7.07565,-0.7784c0.93311,-1.68453 2.14854,-4.35313 2.70089,-5.93145c1.10007,-3.14183 4.35021,-9.25952 5.36621,-10.10085c1.09585,-0.90806 2.79418,-1.35958 6.61819,-1.75934c3.87426,-0.40467 4.99082,-0.27496 6.92528,0.80871c1.57167,0.87936 2.36681,0.86853 3.36192,-0.04774c1.85794,-1.70895 0.5898,-3.86475 -3.02972,-5.14992c-2.4567,-0.87329 -3.65265,-0.94726 -7.75164,-0.48192z" data-paper-data="{&quot;wickUUID&quot;:&quot;bae96d95-69be-4e86-980a-a1751f7723cf&quot;,&quot;wickType&quot;:&quot;path&quot;,&quot;originalStyle&quot;:{&quot;strokeColor&quot;:null,&quot;fillColor&quot;:[&quot;Color&quot;,0,0,0],&quot;strokeWidth&quot;:1}}" id="bae96d95-69be-4e86-980a-a1751f7723cf" fill="#000000"/><path d="M382.88142,245.79283c-1.08951,0.4209 -2.45552,2.28552 -3.25309,4.43911c-0.85841,2.31619 -4.60893,9.82221 -5.48824,10.98553c-1.16631,1.54067 -1.17732,3.00249 -0.03729,4.84667c0.49973,0.80756 0.90406,1.57509 0.89863,1.70498c-0.00543,0.12989 0.42313,0.43704 0.95235,0.68234c0.84926,0.39479 1.18606,0.35881 2.85801,-0.29999c1.04205,-0.41087 4.99519,-1.43378 8.78557,-2.27433c7.06049,-1.56571 11.26281,-2.89951 12.60297,-4.00154c0.44882,-0.36959 0.77335,-0.99859 0.79622,-1.54611c0.05125,-1.22693 -1.26121,-4.83785 -1.96329,-5.40164c-0.92479,-0.74324 -2.39995,-0.91395 -4.10177,-0.47459c-0.88734,0.22917 -2.09834,0.39577 -2.69082,0.37102c-1.02211,-0.04269 -3.16602,0.50933 -4.50534,1.16c-0.3371,0.16307 -0.68572,0.21857 -0.7738,0.12281c-0.08904,-0.0968 0.33942,-1.24893 0.95073,-2.56156c1.25548,-2.69295 1.48806,-4.61892 0.67982,-5.63654c-0.62858,-0.78992 -3.48305,-2.49152 -4.20122,-2.5025c-0.26906,-0.00423 -0.9489,0.16954 -1.50944,0.38634z" data-paper-data="{&quot;wickUUID&quot;:&quot;aa46923c-3914-428b-9229-2bb2747d6436&quot;,&quot;wickType&quot;:&quot;path&quot;,&quot;originalStyle&quot;:{&quot;strokeColor&quot;:null,&quot;fillColor&quot;:[&quot;Color&quot;,0,0,0],&quot;strokeWidth&quot;:1}}" id="aa46923c-3914-428b-9229-2bb2747d6436" fill="#000000"/><path d="M366.76149,223.35225c-2.57903,0.21055 -8.35622,1.36447 -10.7419,2.14559c-2.53988,0.83073 -3.4142,1.56288 -6.98625,5.85054c-1.67217,2.00596 -3.74636,4.45954 -4.60959,5.45338c-2.04497,2.35271 -2.74152,3.86095 -4.38171,9.4864c-1.16377,3.99591 -1.38271,5.21184 -1.53621,8.55134c-0.16523,3.62026 -0.10321,4.17234 0.8816,7.83963c1.63949,6.10874 3.00635,8.96828 5.64319,11.80679c5.33308,5.74056 11.48253,10.17106 15.70929,11.31945c4.67307,1.27013 7.29224,1.75185 10.35453,1.90478c2.46805,0.1221 3.59028,0.3081 3.97703,0.65754c0.70507,0.63598 1.9066,0.67215 5.87371,0.17728c1.79692,-0.22421 4.29637,-0.51815 5.55413,-0.65378c3.24942,-0.3497 11.47317,-2.01695 12.87014,-2.61017c0.71424,-0.30246 1.53294,-1.04494 2.07951,-1.88586c0.49627,-0.76295 1.50372,-2.23819 2.23981,-3.27938c1.60617,-2.27095 2.54203,-4.76407 3.20409,-8.53773c0.40451,-2.30413 0.43654,-3.74204 0.17625,-8.02964c-0.17326,-2.87273 -0.28283,-6.09612 -0.24126,-7.16331c0.0455,-1.20915 -0.18157,-2.74596 -0.60323,-4.08072c-0.37214,-1.17856 -1.0939,-3.47569 -1.60529,-5.10645c-1.14975,-3.67218 -5.11112,-11.27011 -7.46398,-14.31796c-3.2644,-4.22792 -8.36971,-7.22658 -13.87001,-8.14893c-3.57609,-0.59976 -11.50486,-1.51345 -13.26579,-1.52795c-0.71534,-0.00686 -2.18144,0.06101 -3.25806,0.14916zM376.77624,228.79093c3.11268,0.38423 6.45656,0.88822 7.43069,1.12108c3.2772,0.78245 7.08556,3.32159 9.27603,6.1835c3.67952,4.80875 8.61625,16.87528 8.4595,20.67605c-0.03885,0.93019 0.06267,3.89101 0.22563,6.57915c0.43834,7.2376 -0.21473,10.60427 -2.77472,14.31267c-0.82674,1.19854 -1.66047,2.42082 -1.85296,2.71604c-0.19465,0.29914 -1.50761,0.8218 -2.975,1.18388l-2.62728,0.64692l-0.71391,-0.97565c-0.88149,-1.20484 -1.81296,-1.28478 -4.07588,-0.3514c-7.53332,3.10932 -21.32509,2.50423 -28.42675,-1.24641c-2.11426,-1.11621 -5.20774,-3.66152 -8.87793,-7.30386c-3.16277,-3.13872 -4.1744,-5.10966 -5.68956,-11.08009c-1.15749,-4.56528 -1.06689,-7.50106 0.39479,-12.66256c1.86093,-6.57306 2.17367,-7.08746 9.40629,-15.45792c2.29799,-2.65942 2.4425,-2.76447 4.54015,-3.28739c4.60695,-1.14874 8.50538,-1.72455 11.80714,-1.74578c0.44753,-0.00333 3.36005,0.30849 6.47377,0.69177z" data-paper-data="{&quot;wickUUID&quot;:&quot;59b1bef6-3e04-4606-9035-1478990fd884&quot;,&quot;wickType&quot;:&quot;path&quot;,&quot;originalStyle&quot;:{&quot;strokeColor&quot;:null,&quot;fillColor&quot;:[&quot;Color&quot;,0,0,0],&quot;strokeWidth&quot;:1}}" id="59b1bef6-3e04-4606-9035-1478990fd884" fill="#000000"/><path d="M400.37491,279.0264c-0.819,0.338 -1.402,1.284 -1.402,2.272c0,0.95 1.421,2.28 2.436,2.28c1.062,0 2.436,-1.345 2.436,-2.385c0,-1.627 -1.902,-2.814 -3.47,-2.167z" data-paper-data="{&quot;wickUUID&quot;:&quot;bd85dad1-6da7-494c-84b2-cc1f6e6d596d&quot;,&quot;wickType&quot;:&quot;path&quot;,&quot;originalStyle&quot;:{&quot;strokeColor&quot;:null,&quot;fillColor&quot;:[&quot;Color&quot;,0,0,0],&quot;strokeWidth&quot;:1}}" id="bd85dad1-6da7-494c-84b2-cc1f6e6d596d" fill="#000000"/><path d="M424.64387,172.86609c-8.87125,2.36084 -13.17446,3.83353 -20.94439,7.16818c-4.64222,1.993 -9.62924,4.23785 -11.08085,4.98892l-2.63927,1.36504l-0.99595,-2.20248c-0.54794,-1.21092 -1.43211,-2.63907 -1.96522,-3.17478c-0.95104,-0.95352 -1.01844,-0.96935 -3.58252,-0.85325c-3.40539,0.15402 -10.74821,1.17046 -12.70345,1.75838c-1.26094,0.37971 -1.86563,0.8629 -3.40049,2.72046c-1.02574,1.24228 -2.72513,3.61243 -3.7751,5.26705c-1.05101,1.65558 -4.06478,6.28384 -6.69811,10.28643c-2.63337,4.00359 -6.2632,9.53092 -8.06463,12.28314c-1.80247,2.75318 -4.95966,7.34041 -7.01754,10.19402c-2.05688,2.85365 -4.099,5.85705 -4.53745,6.67346c-0.76082,1.41748 -0.78403,1.61369 -0.51524,4.28423c0.45048,4.4787 1.81647,11.76806 2.55651,13.65158c0.98081,2.4931 2.38677,3.14634 4.10495,1.90797c1.06911,-0.77106 1.16488,-1.7459 0.39915,-4.04486c-0.55855,-1.67577 -2.10356,-10.574 -2.16144,-12.44705c-0.0366,-1.16054 0.70871,-2.39851 4.95346,-8.22244c1.6436,-2.25637 6.47173,-9.44314 10.72883,-15.97017c4.25614,-6.52807 8.00909,-12.22341 8.33947,-12.657c0.33034,-0.43259 1.35161,-1.99933 2.26926,-3.48133c0.9186,-1.48095 2.28574,-3.42059 3.03951,-4.30991c1.23275,-1.45382 1.55295,-1.64362 3.19996,-1.89711c4.55624,-0.70147 7.39427,-1.02631 8.55326,-0.9779c1.41876,0.05926 1.89651,0.62669 2.4679,2.92954c0.32542,1.31473 0.28976,1.44935 -0.78829,2.9857c-2.18467,3.10954 -1.77497,5.78497 0.9027,5.89681c1.29187,0.05396 2.09949,-0.59089 3.51528,-2.80874c0.47766,-0.74872 1.33585,-1.78981 1.90612,-2.31147c0.98453,-0.9027 6.5197,-3.83425 9.76435,-5.17201c0.83002,-0.34266 4.34192,-1.82439 7.80223,-3.29326c5.48494,-2.32813 15.61969,-5.60904 17.12937,-5.54598c1.00812,0.04211 2.54555,14.2016 2.58928,23.84182c0.01072,2.23539 0.06312,4.45552 0.11623,4.93315c0.07932,0.71293 -0.32561,1.27753 -2.2657,3.1562c-3.28352,3.17874 -5.56187,6.42248 -9.07494,12.91653c-5.23653,9.6799 -6.08251,13.06454 -3.53779,14.15469c0.60074,0.2583 1.78885,0.13677 4.79568,-0.49129c2.19906,-0.45863 5.87912,-1.03055 8.17915,-1.27077c4.06731,-0.42563 9.20132,-0.51045 9.52588,-0.1576c0.16846,0.18419 -0.7681,4.65901 -1.59452,7.6231l-0.48492,1.73728l-3.27147,0.90125c-3.91954,1.08137 -12.14056,4.24104 -13.09752,5.0348c-0.72889,0.60511 -3.05128,3.77695 -5.04179,6.88659c-0.66919,1.04498 -2.42688,3.56483 -3.9061,5.59987c-1.47922,2.03504 -2.9297,4.38856 -3.22307,5.23005c-0.29337,0.84149 -0.94554,2.31756 -1.44912,3.27938c-1.21939,2.33214 -1.28341,3.91285 -0.19437,4.84511c2.06882,1.77288 3.42748,0.46745 6.05064,-5.80755c0.45597,-1.09192 1.90145,-3.44565 3.21108,-5.23055c1.31063,-1.78486 2.82362,-3.95762 3.36245,-4.82889c0.53887,-0.87227 1.69958,-2.61435 2.58082,-3.87167l1.60185,-2.28714l4.93312,-1.93681c2.71284,-1.06571 6.41946,-2.24907 8.23692,-2.62955c3.4047,-0.71253 4.80245,-1.5159 4.85574,-2.79179c0.02884,-0.6904 2.21853,-9.88703 2.77594,-11.65831c0.5136,-1.63299 -0.09878,-3.28998 -1.52217,-4.12511c-2.17365,-1.27582 -10.63106,-1.29879 -18.56497,-0.05281c-1.40143,0.22071 -2.68683,0.34717 -2.85826,0.28196c-0.42466,-0.16086 6.61033,-12.83332 8.09027,-14.57407c0.65468,-0.76935 2.45958,-2.62264 4.01239,-4.11914l2.823,-2.72056l-0.03348,-3.99087c-0.08579,-9.90321 -0.69444,-17.95163 -2.07502,-27.4315c-0.72245,-4.96447 -1.20557,-5.81037 -3.3398,-5.84947c-0.72808,-0.0134 -2.06298,0.17205 -2.9678,0.4125z" data-paper-data="{&quot;wickUUID&quot;:&quot;f8e1be89-33ee-458c-83b8-1839abea0aa5&quot;,&quot;wickType&quot;:&quot;path&quot;,&quot;originalStyle&quot;:{&quot;strokeColor&quot;:null,&quot;fillColor&quot;:[&quot;Color&quot;,0,0,0],&quot;strokeWidth&quot;:1}}" id="f8e1be89-33ee-458c-83b8-1839abea0aa5" fill="#000000"/><path d="M316.57562,274.29917c-3.58454,1.25576 -6.04724,2.71752 -6.76297,4.01271c-1.42898,2.58695 1.58837,4.74715 3.86623,2.7674c1.75617,-1.52579 6.30664,-3.00303 9.32511,-3.02754c1.37722,-0.01097 1.60607,-0.11114 2.22713,-0.97445c1.41967,-1.97344 0.21313,-3.58008 -2.89376,-3.85524c-2.32951,-0.20547 -1.84291,-0.29703 -5.76174,1.07712z" data-paper-data="{&quot;wickUUID&quot;:&quot;4e4b36b9-f2a6-4bb0-8475-aa2b3638b970&quot;,&quot;wickType&quot;:&quot;path&quot;,&quot;originalStyle&quot;:{&quot;strokeColor&quot;:null,&quot;fillColor&quot;:[&quot;Color&quot;,0,0,0],&quot;strokeWidth&quot;:1}}" id="4e4b36b9-f2a6-4bb0-8475-aa2b3638b970" fill="#000000"/><path d="M357.71943,281.40039c-1.192,0.602 -1.669,2.414 -1.94,7.376c-0.418,7.669 -3.07,17.534 -5.577,20.752c-1.199,1.538 -0.481,4.522 1.682,6.985c1.334,1.52 5.415,3.608 8.687,4.444c5.012,1.282 14.408,0.313 20.698,-2.135c1.072,-0.417 3.104,-1.068 4.515,-1.447c2.815,-0.755 3.406,-1.103 7.068,-4.16c3.616,-3.019 5.466,-5.862 6.604,-10.15c1.306,-4.92 1.724,-7.677 1.969,-12.99c0.2,-4.333 0.164,-4.834 -0.458,-6.257c-0.806,-1.845 -1.905,-2.439 -3.381,-1.828c-1.294,0.537 -1.663,1.657 -1.173,3.57c0.517,2.015 -0.074,9.788 -1.022,13.448c-0.37,1.429 -0.831,3.251 -1.023,4.049c-0.193,0.797 -0.92,2.221 -1.617,3.165c-1.823,2.468 -5.923,5.871 -7.554,6.269c-0.731,0.179 -2.645,0.77 -4.253,1.314c-2.671,0.904 -4.943,1.514 -8.445,2.271c-2.63,0.569 -8.186,0.745 -10.176,0.323c-2.498,-0.531 -6.472,-2.572 -7.136,-3.666c-0.489,-0.806 -0.471,-0.939 0.329,-2.417c2.254,-4.165 5.127,-15.379 5.126,-20.011c0,-1.288 0.171,-3.57 0.381,-5.071l0.381,-2.729l-0.886,-0.763c-1,-0.86 -1.624,-0.936 -2.799,-0.342z" data-paper-data="{&quot;wickUUID&quot;:&quot;c41af521-1297-4f31-afaf-79381791633b&quot;,&quot;wickType&quot;:&quot;path&quot;,&quot;originalStyle&quot;:{&quot;strokeColor&quot;:null,&quot;fillColor&quot;:[&quot;Color&quot;,0,0,0],&quot;strokeWidth&quot;:1}}" id="c41af521-1297-4f31-afaf-79381791633b" fill="#000000"/><path d="M404.25608,375.16141c-0.893,0.144 -2.209,0.426 -2.923,0.626c-0.715,0.201 -2.228,0.366 -3.362,0.367c-1.889,0.001 -2.142,0.087 -3.008,1.014c-1.27,1.359 -1.429,2.22 -0.777,4.185c0.822,2.474 2.282,4.148 4.71,5.4c5.621,2.897 11.156,2.619 13.89,-0.698c1.454,-1.764 2.188,-4.223 1.743,-5.839c-0.891,-3.234 -3.186,-5.039 -6.632,-5.214c-1.109,-0.056 -2.748,0.015 -3.641,0.159z" data-paper-data="{&quot;wickUUID&quot;:&quot;a5c6551f-c288-42a5-bc8c-e745fcbf2439&quot;,&quot;wickType&quot;:&quot;path&quot;,&quot;originalStyle&quot;:{&quot;strokeColor&quot;:null,&quot;fillColor&quot;:[&quot;Color&quot;,0,0,0],&quot;strokeWidth&quot;:1}}" id="a5c6551f-c288-42a5-bc8c-e745fcbf2439" fill="#000000"/><path d="M324.87946,279.23409c-0.54672,0.61307 -0.64105,1.30968 -0.30682,2.81956c0.71471,3.23073 0.79929,4.40651 0.48991,6.75737c-0.16851,1.2812 0.5945,3.11377 0.74518,3.08918c0.15034,-0.02454 1.52028,-1.32374 2.13969,-2.49311c0.91253,-1.72214 1.0737,-1.96175 1.93395,-2.18928c0.58474,-0.15453 1.24673,-0.02546 1.72486,0.18697c0.84813,0.37698 1.38945,-0.90531 1.51994,-2.1131c0.28096,-2.59953 -3.68216,-7.42969 -5.86115,-7.14331c-0.20729,0.02742 -2.03296,0.69043 -2.38556,1.08572z" data-paper-data="{&quot;wickUUID&quot;:&quot;8bf037ba-fbdd-4b15-abf5-196ab0b00eb6&quot;,&quot;wickType&quot;:&quot;path&quot;,&quot;originalStyle&quot;:{&quot;strokeColor&quot;:null,&quot;fillColor&quot;:[&quot;Color&quot;,0,0,0],&quot;strokeWidth&quot;:1}}" id="8bf037ba-fbdd-4b15-abf5-196ab0b00eb6" fill="#000000"/><path d="M314.95339,279.71757c-0.67844,0.39578 -2.29561,1.04333 -2.96959,1.30295c-0.67393,0.25995 -2.03537,1.24704 -2.69927,1.89544c-1.16323,1.13586 -1.30266,2.03632 -1.08408,3.95922c0.27473,2.41596 1.49066,3.7573 4.11184,4.58896c2.21692,0.70343 3.59623,0.29272 4.78362,-1.15038c1.44414,-1.7552 1.97128,-4.92454 1.33759,-8.18031c-0.56721,-2.9147 -1.36274,-3.65106 -3.48011,-2.41588z" data-paper-data="{&quot;wickUUID&quot;:&quot;4c13df52-8175-4ace-b8b5-aabe446aedc2&quot;,&quot;wickType&quot;:&quot;path&quot;,&quot;originalStyle&quot;:{&quot;strokeColor&quot;:null,&quot;fillColor&quot;:[&quot;Color&quot;,0,0,0],&quot;strokeWidth&quot;:1}}" id="4c13df52-8175-4ace-b8b5-aabe446aedc2" fill="#000000"/><path d="M318.65179,293.86694c-1.47976,1.12098 -1.65915,1.20198 -3.74159,1.40944c-1.47593,0.14698 -2.69975,0.0475 -3.63915,-0.25548c-1.23068,-0.39696 -2.32009,0.77785 -2.40715,1.19634c-0.20344,0.98024 3.44424,6.75575 4.74415,7.51901c0.33881,0.19903 2.1144,-0.05098 3.31929,-0.8819c1.61965,-1.11646 1.82578,-1.40472 1.76884,-2.93115c-0.09816,-2.64202 -0.33793,-2.89737 1.32573,-3.16888c1.75478,-0.28638 1.73688,-0.14198 2.42425,2.11207c0.49474,1.62216 0.07996,3.19671 -1.11336,4.99878l-0.48174,1.51769l2.27662,1.7044c1.82305,1.31148 2.59421,1.36358 3.66173,0.87255c1.40456,-0.64634 4.37063,-3.33746 4.52143,-4.06492c0.06322,-0.30382 -0.71676,-2.72062 -1.60053,-4.4252c-1.60038,-3.08653 -2.37513,-3.84962 -3.72231,-3.62976c-0.82673,0.13492 -3.80785,-1.53257 -4.39115,-2.45364l-1.12908,-0.83146z" data-paper-data="{&quot;wickUUID&quot;:&quot;9536dd38-1ff9-4ca0-ada3-9ff4d4a5b30e&quot;,&quot;wickType&quot;:&quot;path&quot;,&quot;originalStyle&quot;:{&quot;strokeColor&quot;:null,&quot;fillColor&quot;:[&quot;Color&quot;,0,0,0],&quot;strokeWidth&quot;:1}}" id="9536dd38-1ff9-4ca0-ada3-9ff4d4a5b30e" fill="#000000"/><path d="M310.96809,276.3314c-1.00066,0.57367 -2.78463,1.86083 -3.96428,2.85887c-2.57577,2.17833 -3.47316,4.01181 -3.46674,7.08085c0.00916,4.64416 2.6308,7.77578 7.99298,9.5462c2.31874,0.76653 5.33252,0.32838 7.14536,-1.03644c2.82763,-2.13128 3.76174,-3.93226 4.32587,-8.3417c0.35883,-2.81151 -0.06778,-5.1027 -1.24546,-6.68771c-1.23757,-1.66642 -3.51967,-1.55033 -4.3062,0.21744c-0.35418,0.79746 -0.32215,1.09925 0.25782,2.42413c0.5896,1.34662 0.62911,1.76876 0.35355,3.82398c-0.24084,1.80233 -0.55034,2.61276 -1.4062,3.68258c-1.29073,1.61499 -1.84442,1.76108 -4.03565,1.0619c-2.5494,-0.81399 -3.40053,-1.6336 -3.90579,-3.761c-0.35969,-1.51484 -0.33821,-1.98545 0.12741,-2.82643c0.57545,-1.03723 3.20349,-3.11871 4.77245,-3.78006c1.19162,-0.5025 2.45855,-2.32537 2.29845,-3.30639c-0.16478,-1.00964 -1.23194,-1.92368 -2.29579,-1.96689c-0.45582,-0.01781 -1.64629,0.43585 -2.64778,1.01067z" data-paper-data="{&quot;wickUUID&quot;:&quot;bb9d91db-f586-497f-b1b2-8c7e43043d6d&quot;,&quot;wickType&quot;:&quot;path&quot;,&quot;originalStyle&quot;:{&quot;strokeColor&quot;:null,&quot;fillColor&quot;:[&quot;Color&quot;,0,0,0],&quot;strokeWidth&quot;:1}}" id="bb9d91db-f586-497f-b1b2-8c7e43043d6d" fill="#000000"/><path d="M306.03409,289.89219c-0.28125,0.23233 -0.78424,1.23544 -1.11738,2.23009c-0.54372,1.62277 -0.5522,2.13584 -0.07955,5.01328l0.52711,3.20494l2.42026,3.27594c1.33066,1.8022 2.90969,3.56792 3.50805,3.92521c2.95195,1.7595 6.12936,0.86503 10.0376,-2.82769c0.8901,-0.84136 1.39101,-1.71444 1.76335,-3.07113c0.4802,-1.75121 0.47009,-2.01807 -0.13362,-3.51943c-0.75777,-1.88658 -1.61449,-2.56039 -3.01548,-2.37227c-1.56859,0.2104 -2.13995,1.20441 -1.8199,3.16547c0.19425,1.19025 0.13272,1.83761 -0.2163,2.27555c-0.70992,0.88997 -3.15922,2.42147 -3.69429,2.30919c-0.25168,-0.05214 -1.37298,-1.39101 -2.4918,-2.97549c-2.29327,-3.24904 -2.67473,-4.54958 -2.02931,-6.93367c0.56435,-2.08614 0.32197,-3.19255 -0.84162,-3.83451c-1.03576,-0.57265 -2.01591,-0.52515 -2.81712,0.13452z" data-paper-data="{&quot;wickUUID&quot;:&quot;43115ba5-b105-4731-807b-c47f50e20562&quot;,&quot;wickType&quot;:&quot;path&quot;,&quot;originalStyle&quot;:{&quot;strokeColor&quot;:null,&quot;fillColor&quot;:[&quot;Color&quot;,0,0,0],&quot;strokeWidth&quot;:1}}" id="43115ba5-b105-4731-807b-c47f50e20562" fill="#000000"/><path d="M324.05298,274.37307c-1.96475,1.07348 -3.30372,2.80881 -4.03492,5.23223c-0.53168,1.7586 -0.5238,1.90626 0.18209,3.72329c0.90751,2.33228 0.87929,2.07243 0.54735,5.1977c-0.15161,1.42401 -0.16602,3.26031 -0.03217,4.08046c0.21664,1.32744 0.41771,1.61582 1.83666,2.6366c1.24576,0.89706 1.92407,1.142 3.10714,1.12725l1.51353,-0.02005l1.43624,2.42431c0.79021,1.33414 1.61772,3.0148 1.83887,3.7366c0.37353,1.2147 0.33284,1.38751 -0.54952,2.31981c-1.1932,1.26268 -3.38617,2.73817 -4.30554,2.89733c-0.47589,0.08273 -1.76032,-0.70365 -4.02311,-2.46214c-3.69375,-2.87154 -4.55205,-3.07698 -5.77517,-1.37677c-1.23039,1.71153 -0.68691,2.59554 3.65332,5.93911c3.66334,2.82179 4.74149,3.20715 7.23376,2.58459c3.60421,-0.89928 7.94498,-4.44373 8.65565,-7.06746c0.60779,-2.24217 0.03724,-4.40957 -2.38314,-9.0645c-0.17853,-0.34272 -0.03411,-0.61251 0.45184,-0.85089c1.9339,-0.94585 3.69936,-5.12781 4.12735,-9.77543c0.22819,-2.48825 -0.22252,-3.72885 -2.50621,-6.89435c-2.10434,-2.91714 -3.0903,-3.7806 -5.21858,-4.57213c-2.49723,-0.9289 -3.79251,-0.88773 -5.75544,0.18444zM328.66735,279.10461c1.29189,0.76997 3.80177,4.1853 3.96243,5.39319c0.0614,0.46316 0.02364,1.27484 -0.08467,1.80318l-0.1969,0.96025l-0.95208,-0.52551c-1.92105,-1.06143 -3.221,-0.17346 -4.3164,2.94875c-0.36138,1.03269 -1.12203,1.80429 -1.50563,1.52746c-0.09512,-0.06756 -0.11137,-0.56443 -0.03639,-1.10456c0.6623,-4.7578 0.66087,-4.86598 -0.10774,-7.04868c-0.79287,-2.25068 -0.73778,-3.13612 0.2456,-3.94609c0.84127,-0.69356 1.83788,-0.69611 2.99178,-0.00799z" data-paper-data="{&quot;wickUUID&quot;:&quot;a94cfe96-f1df-4d7e-81eb-368837b63701&quot;,&quot;wickType&quot;:&quot;path&quot;,&quot;originalStyle&quot;:{&quot;strokeColor&quot;:null,&quot;fillColor&quot;:[&quot;Color&quot;,0,0,0],&quot;strokeWidth&quot;:1}}" id="a94cfe96-f1df-4d7e-81eb-368837b63701" fill="#000000"/><path d="M332.74769,280.71661c-1.12963,1.57147 -0.69386,2.46596 2.1266,4.36344c3.37487,2.27106 8.37342,4.17885 12.22942,4.66713c1.465,0.18545 1.55306,0.15385 8.98069,-3.26922c2.91572,-1.34318 3.75475,-2.1995 3.52635,-3.59898c-0.15543,-0.9524 -1.71472,-2.13772 -2.61975,-1.99002c-0.36418,0.05944 -1.72658,0.60196 -3.02737,1.20536c-6.67866,3.09516 -6.12904,2.93656 -8.24219,2.38675c-3.10986,-0.80865 -5.9649,-2.00541 -8.39621,-3.51754c-2.58716,-1.61031 -3.55924,-1.66242 -4.57754,-0.24692z" data-paper-data="{&quot;wickUUID&quot;:&quot;5920b337-f21d-4287-9903-b95b53267224&quot;,&quot;wickType&quot;:&quot;path&quot;,&quot;originalStyle&quot;:{&quot;strokeColor&quot;:null,&quot;fillColor&quot;:[&quot;Color&quot;,0,0,0],&quot;strokeWidth&quot;:1}}" id="5920b337-f21d-4287-9903-b95b53267224" fill="#000000"/><path d="M352.13637,305.04269c-1.30802,2.88695 -2.64706,6.90523 -2.76319,8.5768c-0.13211,1.89651 0.30266,5.44363 0.58087,5.8967c0.11495,0.18719 2.29215,-0.28123 4.33733,-1.53711c2.88087,-1.76904 3.04558,-1.89329 4.08112,-1.77267c1.04504,0.12143 0.39845,-0.24335 0.97891,1.01532c0.35406,0.76831 0.9049,3.28605 1.2477,5.65722c1.11311,7.69988 1.63749,8.50423 3.79948,8.16667c1.56633,-0.24444 3.95079,-1.72452 4.56027,-3.6603c0.89352,-2.83895 1.58769,-3.46494 3.58528,-3.16566l0.23966,0.02769l1.93598,3.55656l2.13098,3.83908l2.19608,1.073c2.15065,0.97978 5.34562,1.4943 6.12924,1.01037c0.32272,-0.19934 1.5532,-1.63718 1.79148,-2.30022c0.41884,-1.16587 0.2743,-1.80245 -0.67189,-2.48527c-0.53835,-0.38876 -1.35615,-1.18747 -1.84424,-1.81989c-0.76256,-0.98765 -0.88268,-0.43612 -0.63789,-1.5663c0.35312,-1.63089 0.68865,-1.76549 3.69646,-2.26845c2.08189,-0.34823 2.88011,-0.72967 5.40305,-2.33055c3.42456,-2.17293 4.45966,-3.64753 5.0683,-6.96125c0.43549,-2.37266 0.25816,-7.3768 -0.40823,-10.36602l-0.78793,-2.48977l-3.86986,-0.9562c-2.0008,-0.46629 -4.0349,-1.15416 -4.59646,-1.55331c-1.21015,-0.86105 -5.92917,-2.75227 -8.04658,-3.22753c-1.17159,-0.26316 -2.07411,-0.20524 -2.34125,0.25218c-1.02356,1.75195 -8.70493,4.36506 -17.0632,5.80423c-6.85189,1.17991 -7.86283,1.66773 -8.73147,3.58468z" data-paper-data="{&quot;wickUUID&quot;:&quot;99dc14b6-c412-43d8-bf46-afc16013ef95&quot;,&quot;wickType&quot;:&quot;path&quot;,&quot;originalStyle&quot;:{&quot;strokeColor&quot;:null,&quot;fillColor&quot;:[&quot;Color&quot;,0,0,0],&quot;strokeWidth&quot;:1}}" id="99dc14b6-c412-43d8-bf46-afc16013ef95" fill="#000000"/><path d="M357.5711,292.29875c-0.6624,0.89728 -0.75984,2.6974 -0.21655,4.0102c0.26628,0.64384 0.46406,1.18187 0.4402,1.19653c-0.02386,0.01466 -0.86979,0.20791 -1.87994,0.42804c-4.31062,0.93958 -7.28319,3.20968 -8.24196,6.2921c-0.26062,0.84066 -0.85697,2.47423 -1.3236,3.62916c-1.12561,2.78587 -1.57517,5.95224 -1.33517,9.41217c0.25661,3.70673 0.76843,4.96255 2.51233,6.16473c1.10721,0.76349 1.64843,0.88999 3.03765,0.70815c0.92902,-0.12103 2.56445,-0.66059 3.63393,-1.1988l1.94599,-0.97788l0.53391,4.05513c0.83278,6.31716 2.42896,8.66618 6.34779,9.33783c2.2691,0.38916 4.32163,-0.11903 6.25954,-1.5496c0.90078,-0.66579 1.788,-1.41481 1.97134,-1.66469c0.27925,-0.38036 0.5493,-0.17183 1.6586,1.27921c1.61692,2.11334 2.57679,2.72671 5.62858,3.59165c1.30072,0.36772 2.97797,0.90908 3.72807,1.20185c1.76883,0.69048 4.2462,0.16903 5.94086,-1.25064c2.7326,-2.28822 4.44923,-7.14444 3.2284,-9.13253l-0.57876,-0.94248l2.01502,-0.87123c2.56927,-1.10949 6.25638,-4.00847 7.4268,-5.83848c1.91956,-2.99882 2.72408,-8.17274 2.11292,-13.58627c-0.4355,-3.85857 -1.31053,-6.69385 -2.58679,-8.3862c-0.88833,-1.17719 -1.18449,-1.34033 -2.79465,-1.54502c-2.77535,-0.3517 -5.07798,-1.03243 -6.44995,-1.90793c-0.68693,-0.43834 -2.14184,-1.10684 -3.23206,-1.4853c-1.09022,-0.37846 -3.0753,-1.06758 -4.41131,-1.53098c-1.33601,-0.4634 -4.11281,-1.07356 -6.17192,-1.35579c-2.05826,-0.28275 -4.81515,-0.67512 -6.12612,-0.87225c-4.91769,-0.73889 -11.50491,0.66691 -13.07315,2.78932zM355.59321,303.07022c0.75495,-0.25353 2.941,-0.65127 4.85641,-0.88397c3.70646,-0.45006 6.98864,-1.22986 12.13935,-2.88246c3.65067,-1.17154 5.00114,-1.90576 5.46336,-2.97231c0.30189,-0.69702 0.45828,-0.7156 2.14263,-0.26779c3.64889,0.97353 7.88423,2.70528 8.31019,3.39893c0.44741,0.7286 0.83524,0.85186 5.14009,1.63616l2.7192,0.49532l0.48539,1.77081c1.29166,4.70816 1.02542,11.27655 -0.56478,13.89827c-0.77393,1.27557 -1.30476,1.74118 -3.71686,3.25758c-2.559,1.60778 -3.02426,1.79607 -5.11324,2.06142c-2.73455,0.34728 -4.02902,1.0389 -4.33388,2.31394c-0.33598,1.4021 0.61265,3.23931 2.0712,4.0112c1.56875,0.83095 1.7553,1.19399 1.23307,2.39597c-0.98833,2.2756 -1.46586,2.42099 -4.92212,1.49933c-4.05888,-1.0832 -4.21178,-1.22517 -6.74439,-6.32602c-1.3093,-2.63667 -1.3489,-2.68395 -2.48226,-2.95494c-1.73031,-0.41373 -2.95891,0.47685 -3.51984,2.5522c-0.59466,2.19816 -1.23902,3.19934 -2.59907,4.0345c-1.27397,0.78231 -3.06922,0.59153 -3.67204,-0.39016c-0.18995,-0.30933 -0.54857,-2.02655 -0.79678,-3.81626c-1.37102,-9.89201 -1.54572,-10.38673 -3.67257,-10.45251c-0.90292,-0.0276 -1.55716,0.27909 -4.11706,1.93318c-1.852,1.19592 -3.18015,1.89767 -3.39237,1.79095c-0.19069,-0.09648 -0.44059,-1.28315 -0.55381,-2.63707c-0.22197,-2.6566 0.40175,-5.71516 1.92057,-9.40669c1.29879,-3.15743 1.41599,-3.28573 3.71961,-4.05958z" data-paper-data="{&quot;wickUUID&quot;:&quot;e231aca4-7435-4b8d-b4e5-b63bd2a54d16&quot;,&quot;wickType&quot;:&quot;path&quot;,&quot;originalStyle&quot;:{&quot;strokeColor&quot;:null,&quot;fillColor&quot;:[&quot;Color&quot;,0,0,0],&quot;strokeWidth&quot;:1}}" id="e231aca4-7435-4b8d-b4e5-b63bd2a54d16" fill="#000000"/><path d="M398.82579,281.00337c-0.81147,1.15219 -0.69857,1.81261 0.67472,3.95285c0.60152,0.93674 2.26315,4.01645 3.69199,6.84333c1.42884,2.82688 2.68586,5.23807 2.79326,5.35945c0.33065,0.37182 -0.54036,0.37114 -3.27544,-0.0055c-3.9601,-0.5451 -5.5363,-0.07184 -5.89286,1.76956c-0.32262,1.66903 1.30902,3.15326 3.12079,2.83796c0.31329,-0.05452 2.41645,0.2372 4.67336,0.64833c5.45823,0.99388 6.15872,0.9887 7.09151,-0.04961c0.96346,-1.07206 0.97513,-2.65551 0.03404,-4.52281c-7.93743,-15.74119 -8.8392,-17.30676 -10.23483,-17.76729c-1.09423,-0.36175 -1.98422,-0.05156 -2.67654,0.93373z" data-paper-data="{&quot;wickUUID&quot;:&quot;898781e7-0c12-42fa-8ca1-e686884341db&quot;,&quot;wickType&quot;:&quot;path&quot;,&quot;originalStyle&quot;:{&quot;strokeColor&quot;:null,&quot;fillColor&quot;:[&quot;Color&quot;,0,0,0],&quot;strokeWidth&quot;:1}}" id="898781e7-0c12-42fa-8ca1-e686884341db" fill="#000000"/><path d="M354.79027,253.21776c-1.2299,0.47509 -1.65802,1.28393 -2.0636,3.90128c-0.32047,2.06543 -0.31476,2.74326 0.04857,5.42676c0.73285,5.4103 1.37529,6.63517 3.52941,6.72515c1.38979,0.05805 2.08302,-0.34037 2.81189,-1.61606c0.47621,-0.83385 0.48177,-3.38685 0.01721,-8.65483c-0.31548,-3.58929 -0.79325,-5.0425 -1.85581,-5.65037c-0.91207,-0.52052 -1.41239,-0.54742 -2.48767,-0.13193z" data-paper-data="{&quot;wickUUID&quot;:&quot;79568211-27dc-4d9c-82ba-3088e7b174a2&quot;,&quot;wickType&quot;:&quot;path&quot;,&quot;originalStyle&quot;:{&quot;strokeColor&quot;:null,&quot;fillColor&quot;:[&quot;Color&quot;,0,0,0],&quot;strokeWidth&quot;:1}}" id="79568211-27dc-4d9c-82ba-3088e7b174a2" fill="#000000"/><path d="M390.1526,321.08192c-0.944,0.943 -0.998,1.225 -0.589,3.068c0.152,0.681 0.414,2.036 0.583,3.011c1.167,6.741 2.143,11.18 3.119,14.182c0.369,1.137 0.902,3.331 1.184,4.875c0.281,1.544 0.782,3.936 1.113,5.316c0.551,2.303 0.572,2.789 0.251,5.909c-0.794,7.732 -0.906,8.884 -1.215,12.559c-0.178,2.112 -0.536,5.073 -0.796,6.578c-0.392,2.271 -0.407,2.86 -0.09,3.453c0.547,1.021 1.855,1.507 2.897,1.075c1.461,-0.605 1.942,-2.029 2.443,-7.236c0.384,-3.995 0.852,-8.897 1.159,-12.143c0.138,-1.462 0.404,-3.805 0.591,-5.206c0.316,-2.367 0.287,-2.762 -0.404,-5.613c-0.409,-1.687 -0.965,-4.264 -1.236,-5.726c-0.271,-1.463 -0.753,-3.434 -1.071,-4.381c-1.109,-3.298 -2.625,-10.275 -3.544,-16.301c-0.383,-2.512 -0.911,-3.627 -1.895,-4.001c-1.162,-0.442 -1.573,-0.347 -2.5,0.581z" data-paper-data="{&quot;wickUUID&quot;:&quot;4680eebd-2ae7-40d9-aa6c-05f7a7a904b2&quot;,&quot;wickType&quot;:&quot;path&quot;,&quot;originalStyle&quot;:{&quot;strokeColor&quot;:null,&quot;fillColor&quot;:[&quot;Color&quot;,0,0,0],&quot;strokeWidth&quot;:1}}" fill="#000000"/><path d="M358.26906,317.25968c-1.139,1.235 -5.026,8.208 -5.026,9.018c0,0.875 0.921,2.256 2.996,4.493c1.137,1.227 2.355,2.619 2.706,3.094c0.351,0.475 1.961,1.735 3.577,2.801l2.94,1.939l-0.99,0.416c-0.545,0.229 -2.729,0.968 -4.854,1.642c-2.125,0.674 -4.241,1.502 -4.702,1.839c-1.599,1.17 -3.29,3.997 -4.257,7.114c-1.575,5.076 -1.605,5.258 -1.228,7.454c0.399,2.329 1.052,3.744 2.256,4.887c1.249,1.185 2.371,1.413 5.322,1.077c6.496,-0.738 8.911,-2.034 11.998,-6.439c3.112,-4.442 3.826,-6.52 4.315,-12.562c0.169,-2.095 0.308,-3.854 0.308,-3.907c0,-0.452 -6.238,-6.136 -7.978,-7.269c-1.263,-0.823 -3.247,-2.548 -4.616,-4.013l-2.401,-2.569l1.16,-2.313c0.638,-1.272 1.552,-2.854 2.031,-3.516c1.1,-1.518 1.102,-2.406 0.008,-3.5c-1.231,-1.232 -2.218,-1.145 -3.565,0.314zM368.46606,344.99768c-0.47,3.908 -1.203,5.718 -3.702,9.143c-2.066,2.833 -3.475,3.517 -8.319,4.045c-1.846,0.201 -1.773,0.269 -2.158,-2.012c-0.144,-0.851 0.066,-1.925 0.864,-4.432c1.542,-4.842 1.623,-4.914 7.85,-6.995c2.838,-0.949 5.273,-1.654 5.412,-1.568c0.139,0.086 0.163,0.904 0.053,1.819z" data-paper-data="{&quot;wickUUID&quot;:&quot;63efd3d1-7246-4146-a615-c667304c58f9&quot;,&quot;wickType&quot;:&quot;path&quot;,&quot;originalStyle&quot;:{&quot;strokeColor&quot;:null,&quot;fillColor&quot;:[&quot;Color&quot;,0,0,0],&quot;strokeWidth&quot;:1}}" fill="#000000"/></g><g data-paper-data="{&quot;wickUUID&quot;:&quot;99244c09-8c40-482d-b781-65d556971edc&quot;,&quot;wickType&quot;:&quot;clipsandpaths&quot;}" fill="none" fill-rule="nonzero" stroke="none" stroke-width="1" stroke-linecap="butt" stroke-linejoin="miter" stroke-miterlimit="10" stroke-dasharray="" stroke-dashoffset="0" font-family="sans-serif" font-weight="normal" font-size="12" text-anchor="start" style="mix-blend-mode: normal"/><g fill="none" fill-rule="nonzero" stroke="none" stroke-width="1" stroke-linecap="butt" stroke-linejoin="miter" stroke-miterlimit="10" stroke-dasharray="" stroke-dashoffset="0" font-family="sans-serif" font-weight="normal" font-size="12" text-anchor="start" style="mix-blend-mode: normal"/><g id="wick_project_gui" fill="none" fill-rule="nonzero" stroke="none" stroke-width="1" stroke-linecap="butt" stroke-linejoin="miter" stroke-miterlimit="10" stroke-dasharray="" stroke-dashoffset="0" font-family="sans-serif" font-weight="normal" font-size="12" text-anchor="start" style="mix-blend-mode: normal"/></g></svg>