<svg version="1.1" xmlns="http://www.w3.org/2000/svg" xmlns:xlink="http://www.w3.org/1999/xlink" width="1260" height="594" viewBox="0,0,1260,594"><g transform="translate(230.20498,30.46998) scale(1.11054,1.11054)"><g id="wick_project_bg" fill-opacity="0" fill="#ffffff" fill-rule="nonzero" stroke="none" stroke-width="1" stroke-linecap="butt" stroke-linejoin="miter" stroke-miterlimit="10" stroke-dasharray="" stroke-dashoffset="0" font-family="none" font-weight="none" font-size="none" text-anchor="none" style="mix-blend-mode: normal"><rect x="0" y="0" width="720" height="480"/></g><g data-paper-data="{&quot;wickUUID&quot;:&quot;5a9f2e8c-d232-4da3-acf9-9e7ca7e31afd&quot;,&quot;wickType&quot;:&quot;clipsandpaths&quot;}" fill="none" fill-rule="evenodd" stroke="none" stroke-width="1" stroke-linecap="butt" stroke-linejoin="miter" stroke-miterlimit="10" stroke-dasharray="" stroke-dashoffset="0" font-family="none" font-weight="none" font-size="none" text-anchor="none" style="mix-blend-mode: normal"><path d="M385.65522,210.0624c-3.189,0.68467 -7.1196,2.25201 -11.95493,4.77068c-7.899,4.11433 -6.88203,3.81919 -7.9997,3.39719c-1.24767,-0.471 -5.40035,-3.16224 -8.87035,-5.64591l-3.0534,-2.00449l-1.66702,2.28071c-0.48333,0.98567 -0.92564,2.46203 -0.92564,2.54636c0,0.08467 1.16755,1.04009 2.12988,1.52309c0.96267,0.48267 2.52958,1.42119 3.40058,2.04119c1.83467,1.306 2.33787,1.41116 2.33787,0.61049c0,-1.393 1.46483,-1.93461 2.91883,-0.91628c0.43133,0.30233 0.91944,1.33016 1.58311,2.72816l1.42956,2.79754l2.40184,-0.11972l2.22022,-0.52644l0.17632,-1.76009c0,-1.98633 0.06158,-2.29919 1.72791,-3.05586c1.72,-0.781 3.43876,-0.72949 4.23809,-0.00616c0.55267,0.50033 0.93623,0.43836 2.05756,-0.22331c0.666,-0.393 2.99725,-1.45048 5.04225,-2.28881c4.367,-1.79033 6.45759,-3.02459 6.94692,-4.09859c0.19467,-0.42733 0.00573,-2.38416 0.00573,-2.46716c0,-0.26033 -1.8153,-0.08292 -4.14563,0.41741z" data-paper-data="{&quot;wickUUID&quot;:&quot;71aa8ebf-2853-4c75-8c1c-66f490bf5931&quot;,&quot;wickType&quot;:&quot;path&quot;,&quot;originalStyle&quot;:{&quot;strokeColor&quot;:null,&quot;fillColor&quot;:[&quot;Color&quot;,1,1,1],&quot;strokeWidth&quot;:1}}" fill="#ffffff"/><path d="M381.93246,258.69569c-2.271,0.72267 -5.98774,0.8958 -10.78341,0.5028c-3.16933,-0.25967 -5.15157,0.29934 -5.32057,0.57267c-0.635,1.02733 -6.6648,27.17235 -7.4708,32.39968c-1.29433,8.39433 -2.2067,15.62204 -2.2067,17.35704c0,2.245 0.66204,3.78766 3.50804,7.63266c2.281,3.08133 3.04393,3.70037 4.86093,4.66904c1.63333,0.87033 5.12648,0.88583 12.28148,0.0025c7.14833,-0.88233 13.49319,-2.38409 16.35552,-3.87776c0.48233,-0.25167 1.34527,-0.52121 1.71194,-0.52521c0.82433,-0.00933 3.66105,-1.69405 3.58805,-2.11038c-0.02933,-0.16767 0.01898,-1.77108 -0.09169,-2.77241c-0.11033,-1.00167 -0.35823,-2.3272 -0.5389,-2.88387c-1.15967,-3.57233 -4.91453,-20.31707 -6.1992,-27.64674c-1.75867,-10.036 -5.72773,-23.38592 -6.9224,-23.29025c-0.227,0.018 -1.94729,-0.2921 -2.77229,-0.02977z" data-paper-data="{&quot;wickUUID&quot;:&quot;14c3d7e7-a7b9-4c51-bfb0-5ce41394fbd2&quot;,&quot;wickType&quot;:&quot;path&quot;,&quot;originalStyle&quot;:{&quot;strokeColor&quot;:null,&quot;fillColor&quot;:[&quot;Color&quot;,0.50196,0,1],&quot;strokeWidth&quot;:1}}" id="260affaa-3a66-47e9-9ccb-6fa65bc090b5" fill="#8000ff"/><path d="M361.20264,205.52201c-2.27167,0.40933 -5.00938,1.78786 -6.11771,3.10486c-0.482,0.573 -0.96081,2.53779 -0.96081,2.69179c0,0.57133 11.20757,7.90583 12.09757,7.91883c0.19133,0.00267 2.54377,-0.92867 4.46077,-2.04934c6.96033,-4.068 12.4092,-6.27792 16.44387,-6.66825l2.68059,-0.46449l-2.00802,-2.12739c-2.83767,-1.37833 -9.56852,-2.2681 -19.55419,-2.58543c-2.75,-0.08733 -6.07507,0.00542 -7.04207,0.17942z" data-paper-data="{&quot;wickUUID&quot;:&quot;d6f254cb-4ce2-46f8-946d-1f7ee6fbd884&quot;,&quot;wickType&quot;:&quot;path&quot;,&quot;originalStyle&quot;:{&quot;strokeColor&quot;:null,&quot;fillColor&quot;:[&quot;Color&quot;,1,1,1],&quot;strokeWidth&quot;:1}}" id="6ae3962c-8a59-486f-9f92-ae59936bdc9f" fill="#ffffff"/><path d="M389.7049,210.29727c0.404,1.63367 -1.92101,3.46714 -6.32034,4.98414c-0.92067,0.31767 -2.75984,1.06561 -4.23351,1.73994l-3.1228,1.66785l-0.05548,5.18169c0.01167,4.58033 0.59937,4.24658 -0.1793,5.78958c-2.16733,4.296 -5.1838,2.00608 -6.27347,-4.41792c-0.32233,-1.90167 -0.53272,-2.27775 -0.98939,-2.08108c-0.3,0.12933 -1.78101,0.22688 -2.27201,0.31155c-0.55567,0.09567 -1.2575,0.74306 -1.1545,1.01106c0.27767,0.72367 -0.36155,2.84865 -1.23022,3.88098c-0.912,1.08367 -1.01543,1.43875 -2.20743,0.98542c-1.23033,-0.46767 -1.89637,-2.54356 -2.13737,-6.10589l-0.3199,-3.33117l-3.56111,-2.47323c-1.811,-1.21833 -4.0296,-2.19654 -4.17727,-2.04587c-0.14733,0.15067 -1.34761,2.23207 -1.84661,3.69874c-1.15067,3.382 -1.20096,7.53678 -0.18696,13.06545c1.293,7.048 3.09369,11.96443 5.08936,14.17976c0.94633,1.05067 6.50925,3.82757 13.58925,6.68557c4.10867,1.65867 5.38965,1.98844 7.70732,2.09477c3.16567,0.145 7.12569,-0.77876 9.48802,-2.06443c4.50867,-2.454 12.04747,-13.14263 13.66414,-19.3503c1.12367,-4.31367 0.36663,-11.27264 -1.7727,-15.51064c-1.14533,-2.26833 -3.63446,-5.73318 -5.38113,-7.40585c-1.16867,-1.119 -2.31792,-1.30312 -2.11659,-0.49012zM360.16677,235.70877c2.74833,2.92 3.18332,2.0387 1.66965,3.42603c-2.12167,1.94433 -2.85019,1.54544 -4.93052,-2.01723c-1.49233,-2.55567 -1.13065,-3.3207 1.27068,-3.34603c0.76733,-0.008 0.30852,0.1499 1.99019,1.93723z" data-paper-data="{&quot;wickUUID&quot;:&quot;d78cc700-4fb2-40e4-8cad-6b771d2f946e&quot;,&quot;wickType&quot;:&quot;path&quot;,&quot;originalStyle&quot;:{&quot;strokeColor&quot;:null,&quot;fillColor&quot;:[&quot;Color&quot;,1,1,1],&quot;strokeWidth&quot;:1}}" id="de46f105-fccf-427a-a826-50b73e17bfac" fill="#ffffff"/><path d="M407.34537,163.49066c-1.51367,1.51267 -4.55826,4.81741 -6.71059,7.28274c-3.28467,3.76233 -3.92039,4.66343 -3.77906,5.37776c0.26367,1.33333 -1.72831,4.07711 -7.40531,10.12644c-6.759,7.20233 -7.57788,7.68644 -9.20888,5.26044c-0.99333,-1.478 0.03312,-0.61375 1.39245,-2.33142c0.63233,-0.799 0.02981,-2.55528 -0.03952,-2.62428c-0.202,-0.202 -7.28466,2.91113 -9.28666,4.08413c-1.00833,0.591 -4.12335,2.1522 -6.81568,3.4122c-4.932,2.308 -7.28249,3.97163 -8.57916,6.07363c-0.59733,0.96833 -0.04102,2.49396 0.61431,2.21563c2.33633,-0.993 5.1014,-1.24309 12.1104,-1.07909c7.499,0.17533 10.96428,0.59842 16.36328,2.02609c4.53267,1.199 5.8642,1.99162 9.29087,5.45262c2.645,2.67167 2.99308,3.13476 4.66475,6.50009c3.50533,7.05633 4.53837,12.49552 3.26437,17.53352c-1.03267,4.08333 -3.98136,10.21849 -7.02536,14.76116c-0.528,0.78833 -0.69376,2.56372 -0.69376,2.64972c0,0.08633 1.77963,0.21634 3.47563,0.10034c5.71133,-0.39133 13.91761,0.81402 20.69661,3.03935c2.00367,0.658 4.15873,1.12502 4.54673,1.02769c0.38833,-0.09733 1.68137,-1.15193 2.06004,-1.84526c0.37867,-0.69333 2.72955,-4.9686 5.20188,-9.4616c2.47267,-4.493 4.74179,-8.64533 5.04112,-9.224l0.44974,-2.00288l-4.20122,-3.27491c-5.83467,-4.517 -9.05703,-6.56723 -14.80603,-9.42023c-5.03233,-2.49733 -6.45036,-3.10779 -6.45036,-4.40079c0,-1.86433 5.03632,-15.83308 7.89932,-21.97475c1.736,-3.72367 1.90995,-4.40446 1.91862,-6.73179c0.008,-2.12767 -0.23454,-3.31997 -1.31021,-6.01497c-6.17867,-15.482 -7.79768,-19.17948 -8.32601,-19.17948c-0.16067,0 -2.83831,1.12923 -4.35231,2.6419z" data-paper-data="{&quot;wickUUID&quot;:&quot;89ddb43f-7a7b-452f-b629-b57e387b86df&quot;,&quot;wickType&quot;:&quot;path&quot;,&quot;originalStyle&quot;:{&quot;strokeColor&quot;:null,&quot;fillColor&quot;:[&quot;Color&quot;,1,0.50196,0],&quot;strokeWidth&quot;:1}}" id="0202dd9e-2c99-4dc9-823a-773a45efd770" fill="#ff8000"/><path d="M358.02597,201.666c-4.29,1.529 -6.609,3.83 -9.655,9.577c-4.14,7.812 -4.588,10.668 -3.164,20.19c2.142,14.326 4.223,17.93 12.791,22.148c2.867,1.412 5.391,3.246 5.608,4.075c0.327,1.251 1.671,1.604 7.864,2.066c8.166,0.609 11.095,0.038 16.72,-3.258c4.313,-2.528 7.592,-6.481 11.559,-13.939c4.395,-8.26 5.338,-12.539 4.045,-18.357c-1.863,-8.389 -5.915,-15.017 -11.579,-18.942c-5.757,-3.99 -26.829,-6.184 -34.189,-3.56zM383.05497,207.096c4.029,0.654 5.578,1.405 8.279,4.017c5.162,4.992 7.675,10.575 7.697,17.102c0.016,4.685 -0.422,6.307 -3.041,11.283c-3.288,6.244 -7.898,11.659 -11.468,13.469c-1.218,0.618 -3.941,1.375 -6.051,1.681c-3.306,0.481 -4.988,0.078 -12.195,-2.921c-4.598,-1.914 -9.377,-4.204 -10.621,-5.09c-2.444,-1.74 -4.258,-6.37 -5.713,-14.578c-1.287,-7.266 -1.105,-10.162 0.948,-15.051c4.31,-10.262 6.859,-11.776 18.79,-11.154c4.63,0.241 10.648,0.8 13.375,1.242z" data-paper-data="{&quot;wickUUID&quot;:&quot;2f9ff883-0250-4a37-a64f-1fa76975f175&quot;,&quot;wickType&quot;:&quot;path&quot;,&quot;originalStyle&quot;:{&quot;strokeColor&quot;:null,&quot;fillColor&quot;:[&quot;Color&quot;,0,0,0],&quot;strokeWidth&quot;:1}}" id="1a350ba9-c375-44a0-b50e-96c848f2bf53" fill="#000000"/><path d="M356.46735,234.06654c-1.586,1.004 -0.539,3.439 1.479,3.439c1.946,0 2.881,-1.949 1.566,-3.265c-1.128,-1.127 -1.506,-1.149 -3.045,-0.174z" data-paper-data="{&quot;wickUUID&quot;:&quot;3e483bca-a721-4b94-8c52-b94620340487&quot;,&quot;wickType&quot;:&quot;path&quot;,&quot;originalStyle&quot;:{&quot;strokeColor&quot;:null,&quot;fillColor&quot;:[&quot;Color&quot;,0,0,0],&quot;strokeWidth&quot;:1}}" id="b9649aca-0e56-4721-8ce3-8645716b518a" fill="#000000"/><path d="M355.83935,234.56554c-0.565,1.473 1.731,5.329 3.6,6.046c0.704,0.27 1.894,-0.124 2.645,-0.875c1.26,-1.26 1.178,-1.563 -1.064,-3.903c-2.671,-2.788 -4.432,-3.219 -5.181,-1.268z" data-paper-data="{&quot;wickUUID&quot;:&quot;a1f1468b-a3bb-45eb-888d-dac269ff425a&quot;,&quot;wickType&quot;:&quot;path&quot;,&quot;originalStyle&quot;:{&quot;strokeColor&quot;:null,&quot;fillColor&quot;:[&quot;Color&quot;,0,0,0],&quot;strokeWidth&quot;:1}}" id="1a874fca-9b8f-463d-971c-acc32ba9c361" fill="#000000"/><path d="M370.89937,218.17077c-1.498,0.602 -1.893,1.428 -1.889,3.945c0.007,5.095 1.508,9.33 3.535,9.973c2.66,0.844 4.036,-1.644 4.036,-7.302c0,-7.488 -0.902,-8.537 -5.682,-6.616z" data-paper-data="{&quot;wickUUID&quot;:&quot;82cce592-ec4e-44a0-ad8a-14319ed3dfa9&quot;,&quot;wickType&quot;:&quot;path&quot;,&quot;originalStyle&quot;:{&quot;strokeColor&quot;:null,&quot;fillColor&quot;:[&quot;Color&quot;,0,0,0],&quot;strokeWidth&quot;:1}}" id="38d380b4-446f-4ad9-bb65-f14a7521b1c0" fill="#000000"/><path d="M359.49436,217.83553c-0.879,0.879 -0.713,7.453 0.253,9.993c1.124,2.956 4.273,2.599 5.397,-0.612c0.771,-2.2 0.574,-3.003 -2.009,-8.23c-0.697,-1.411 -2.736,-2.056 -3.641,-1.151z" data-paper-data="{&quot;wickUUID&quot;:&quot;86bf5f8a-08b9-4b89-84d5-5f8c39ed8d2c&quot;,&quot;wickType&quot;:&quot;path&quot;,&quot;originalStyle&quot;:{&quot;strokeColor&quot;:null,&quot;fillColor&quot;:[&quot;Color&quot;,0,0,0],&quot;strokeWidth&quot;:1}}" id="75b64edf-4258-4d4c-8863-06de40f6407c" fill="#000000"/><path d="M402.5666,162.37921c-4.836,4.977 -10.074,10.848 -11.639,13.047c-1.566,2.199 -3.456,3.998 -4.201,3.998c-0.744,0 -2.101,0.515 -3.014,1.143c-0.913,0.629 -3.175,1.626 -5.027,2.216c-1.852,0.59 -5.45,2.259 -7.997,3.709c-2.546,1.45 -6.713,3.559 -9.259,4.686c-2.546,1.127 -5.444,2.761 -6.439,3.632c-2.163,1.893 -6.232,10.647 -6.452,13.88c-0.13,1.92 0.183,2.3 1.898,2.3c1.729,0 2.359,-0.79 3.988,-4.994c2.365,-6.107 4.874,-8.817 10.133,-10.948c2.215,-0.898 5.731,-2.614 7.815,-3.815c4.012,-2.312 14.936,-6.758 16.604,-6.758c0.544,0 3.999,-3.693 7.678,-8.207c6.791,-8.333 14.143,-15.98 14.72,-15.31c1.104,1.281 9.121,21.226 9.52,23.683c0.37,2.276 -0.069,4.096 -1.811,7.521c-2.628,5.165 -7.991,20.486 -7.991,22.829c0,1.132 1.754,2.365 6.332,4.452c5.598,2.551 10.057,5.464 17.237,11.262l2.105,1.699l-1.999,3.603c-1.099,1.981 -3.684,6.723 -5.745,10.536c-2.06,3.814 -4.072,7.135 -4.469,7.381c-0.398,0.246 -2.169,-0.104 -3.936,-0.777c-13.458,-5.13 -32.908,-4.29 -32.102,1.386c0.308,2.169 1.64,2.261 8.846,0.607c3.632,-0.833 5.614,-0.762 11.784,0.424c4.08,0.784 9.012,2.011 10.96,2.726c4.898,1.8 7.355,0.964 9.769,-3.327c12.82,-22.785 12.611,-22.262 10.268,-25.606c-1.898,-2.71 -13.374,-11.078 -17.897,-13.05c-6.338,-2.764 -6.243,-2.494 -3.593,-10.203c1.304,-3.794 3.582,-9.528 5.063,-12.742c3.393,-7.364 3.236,-8.474 -3.417,-24.189c-5.236,-12.369 -7.046,-15.843 -8.25,-15.843c-0.379,0 -4.646,4.072 -9.482,9.049z" data-paper-data="{&quot;wickUUID&quot;:&quot;2c36bd39-f313-4ac8-bdfa-59775a9073dc&quot;,&quot;wickType&quot;:&quot;path&quot;,&quot;originalStyle&quot;:{&quot;strokeColor&quot;:null,&quot;fillColor&quot;:[&quot;Color&quot;,0,0,0],&quot;strokeWidth&quot;:1}}" id="398fcf94-62b2-40e3-8a41-8889014717d8" fill="#000000"/><path d="M387.48013,181.93699c-3.911,4.159 -7.222,8.077 -7.358,8.705c-0.135,0.629 0.383,1.665 1.151,2.303c1.24,1.029 2.089,0.439 7.516,-5.222c7.964,-8.306 9.368,-10.431 7.991,-12.091c-0.575,-0.692 -1.302,-1.258 -1.617,-1.258c-0.315,0 -3.773,3.403 -7.683,7.563z" data-paper-data="{&quot;wickUUID&quot;:&quot;ab434d26-8e84-4efa-8fee-d5ba4dd68de7&quot;,&quot;wickType&quot;:&quot;path&quot;,&quot;originalStyle&quot;:{&quot;strokeColor&quot;:null,&quot;fillColor&quot;:[&quot;Color&quot;,0,0,0],&quot;strokeWidth&quot;:1}}" id="da0acfbe-4017-4bc9-8564-ec63d4216e07" fill="#000000"/><path d="M363.82988,254.11864c-1.317,0.922 -2.415,3.931 -4.157,11.387c-0.866,3.706 -2.393,10.173 -3.393,14.372c-1.001,4.199 -2.212,10.547 -2.691,14.107c-0.48,3.56 -1.179,8.497 -1.554,10.972c-1.059,6.98 -0.872,7.803 3.038,13.386c3.746,5.346 5.314,6.823 8.515,8.022c2.694,1.009 3.609,1.023 11.669,0.184c10.332,-1.076 19.914,-3.724 25.312,-6.996c2.531,-1.533 3.642,-3.634 2.777,-5.25c-0.238,-0.444 -1.129,-3.927 -1.98,-7.739c-0.852,-3.813 -2.177,-9.4 -2.946,-12.415c-0.769,-3.015 -1.801,-8.135 -2.293,-11.377c-1.293,-8.516 -4.404,-20.068 -6.838,-25.386c-1.441,-3.15 -2.669,-3.966 -4.329,-2.878c-1.355,0.887 -1.374,2.171 -0.076,5.024c2.357,5.179 5.041,15.053 6.433,23.661c0.561,3.474 1.952,10.106 3.089,14.739c2.241,9.119 3.802,16.067 3.802,16.919c0,0.654 -1.599,1.505 -5.358,2.853c-5.38,1.928 -9.178,2.79 -15.908,3.607c-8.084,0.981 -10.185,1.023 -12.055,0.239c-1.755,-0.735 -2.585,-1.611 -5.816,-6.141c-2.912,-4.082 -2.966,-4.384 -1.943,-10.95c0.342,-2.201 0.93,-6.464 1.305,-9.475c0.623,-4.987 2.05,-11.596 6.368,-29.478c0.839,-3.474 1.782,-6.828 2.095,-7.453c0.789,-1.572 0.714,-3.025 -0.199,-3.851c-0.949,-0.859 -1.727,-0.881 -2.867,-0.083z" data-paper-data="{&quot;wickUUID&quot;:&quot;4e6523c2-55eb-4d36-a5d8-2d2788216ad8&quot;,&quot;wickType&quot;:&quot;path&quot;,&quot;originalStyle&quot;:{&quot;strokeColor&quot;:null,&quot;fillColor&quot;:[&quot;Color&quot;,0,0,0],&quot;strokeWidth&quot;:1}}" id="ee581d18-80d9-48fc-a6ed-3a4aab38a389" fill="#000000"/><path d="M392.55288,317.75327c-0.897,0.897 -0.833,3.31 0.157,5.914c0.451,1.185 1.316,4.785 1.924,8.001c0.608,3.216 1.735,8.784 2.504,12.374c2.833,13.228 5.07,29.676 4.782,35.162l-0.133,2.527l3.528,1.788c3.319,1.682 3.709,1.781 6.585,1.666c2.577,-0.104 3.295,-0.305 4.575,-1.281c1.702,-1.298 2.165,-2.54 1.801,-4.828c-0.449,-2.816 -2.862,-4.108 -8.554,-4.58l-3.014,-0.25l-0.256,-1.732c-0.14,-0.953 -0.528,-4.385 -0.861,-7.627c-0.606,-5.915 -2.048,-14.192 -4.417,-25.361c-0.699,-3.294 -1.484,-7.361 -1.744,-9.037c-0.616,-3.973 -3.165,-12.613 -3.848,-13.047c-0.865,-0.549 -2.318,-0.4 -3.029,0.311z" data-paper-data="{&quot;wickUUID&quot;:&quot;95debab8-1281-45fe-90d5-34d78eae3942&quot;,&quot;wickType&quot;:&quot;path&quot;,&quot;originalStyle&quot;:{&quot;strokeColor&quot;:null,&quot;fillColor&quot;:[&quot;Color&quot;,0,0,0],&quot;strokeWidth&quot;:1}}" id="90c2f121-92a2-4949-acf5-7b45285ea42f" fill="#000000"/><path d="M360.72583,323.31286c-1.068,0.229 -1.926,2.148 -2.433,5.44c-1.275,8.28 -2.41,16.525 -2.916,21.185c-0.828,7.61 -2.138,18.266 -2.261,18.389c-0.072,0.071 -0.772,-0.344 -1.556,-0.923c-1.8,-1.327 -3.778,-1.881 -6.725,-1.881c-4.645,0 -6.749,1.474 -7.285,5.104c-0.306,2.074 1.35,5.686 2.873,6.265c1.592,0.605 5.98,0.512 8.64,-0.184c2.65,-0.693 7.708,-2.98 8.379,-3.789c0.251,-0.303 0.83,-4.034 1.286,-8.292c1.676,-15.66 2.71,-23.699 4.715,-36.659c0.391,-2.528 0.388,-3.365 -0.014,-3.849c-0.597,-0.719 -1.646,-1.032 -2.703,-0.806z" data-paper-data="{&quot;wickUUID&quot;:&quot;f44c4d71-b749-4561-a674-32fc93f0619b&quot;,&quot;wickType&quot;:&quot;path&quot;,&quot;originalStyle&quot;:{&quot;strokeColor&quot;:null,&quot;fillColor&quot;:[&quot;Color&quot;,0,0,0],&quot;strokeWidth&quot;:1}}" id="238f0bd8-3981-41a3-9b04-11f86c834b09" fill="#000000"/><path d="M413.64715,296.81689c-0.275,0.17767 -1.43192,0.63777 -1.79859,0.6511c-1.31367,0.048 -6.9429,7.64469 -6.9429,9.36469c0,0.891 0.85357,3.46715 1.22924,3.46715c0.144,0 1.50382,-0.33825 1.74282,-0.83558c0.66967,-1.39233 2.13925,-2.29675 3.86825,-2.29675c1.23533,0 0.73105,-0.29928 1.64938,0.61905c1.56367,1.56367 1.76045,3.01595 0.78712,5.98428c-0.77867,2.375 -2.14161,4.98738 -3.14728,5.99305c-0.78933,0.78933 -1.53622,0.66811 -2.58855,-0.14056c-0.728,-0.55933 -0.41576,-0.29074 -0.34476,-1.99274c0.04433,-1.058 -1.67498,-1.83012 -1.78165,-1.72345c-0.404,0.40367 -0.80181,7.01702 -0.60814,8.21369c0.31533,1.94667 0.26169,2.06768 13.15702,0.74135c3.49433,-0.35933 6.8485,-0.81206 7.29583,-0.99073c0.44767,-0.17867 1.17704,-0.63715 0.99371,-0.65148c-0.202,-0.016 -0.08973,-0.28048 0.12894,-0.42881c0.198,-0.13467 1.19679,-2.04882 2.17746,-4.15715c1.62433,-3.492 1.84626,-4.47711 1.97793,-7.07544c0.26633,-5.25733 -1.87113,-12.06745 -4.13213,-13.23678c-0.57667,-0.298 -3.58841,-1.08552 -6.18574,-1.35085c-5.42267,-0.55367 -6.81396,-0.58337 -7.47796,-0.15404z" data-paper-data="{&quot;wickUUID&quot;:&quot;36bfb666-7e8b-4a6f-b39b-37d66924d6c2&quot;,&quot;wickType&quot;:&quot;path&quot;,&quot;originalStyle&quot;:{&quot;strokeColor&quot;:null,&quot;fillColor&quot;:[&quot;Color&quot;,0,0,0],&quot;strokeWidth&quot;:1}}" id="049a9619-ee54-4465-b83a-36f8e24ed00b" fill="#000000"/><path d="M386.83818,254.34654c-1.583,1.583 -1.051,2.828 2.118,4.952c1.462,0.98 2.511,2.296 4.49,5.638c1.42,2.398 3.923,5.933 5.562,7.856c5.144,6.036 6.39,8.252 10.197,18.144c2.022,5.252 2.873,6.251 4.725,5.547c1.61,-0.612 1.745,-1.978 0.514,-5.204c-0.592,-1.553 -1.561,-4.102 -2.153,-5.666c-2.527,-6.671 -5.086,-10.914 -9.841,-16.317c-1.223,-1.39 -3.531,-4.732 -5.129,-7.426c-2.63,-4.435 -3.158,-5.064 -5.566,-6.633c-3.005,-1.958 -3.721,-2.087 -4.917,-0.891z" data-paper-data="{&quot;wickUUID&quot;:&quot;55cdd408-376f-42ad-9602-7b3a45cb94a3&quot;,&quot;wickType&quot;:&quot;path&quot;,&quot;originalStyle&quot;:{&quot;strokeColor&quot;:null,&quot;fillColor&quot;:[&quot;Color&quot;,0,0,0],&quot;strokeWidth&quot;:1}}" id="0dfdad68-e501-4380-bd2a-c2ddb283eb44" fill="#000000"/><path d="M412.18996,292.4282c-1.625,0.337 -3.071,0.938 -3.737,1.552c-2.083,1.925 -5.529,6.545 -6.887,9.235c-1.698,3.364 -1.747,5.168 -0.212,7.788c0.935,1.596 1.074,2.154 0.723,2.923c-0.617,1.356 -1.539,10.326 -1.2,11.679c0.338,1.347 2.448,3.426 4.441,4.376c1.477,0.704 1.597,0.701 10.155,-0.24c1.969,-0.216 5.492,-0.57 7.829,-0.786c2.338,-0.216 4.63,-0.596 5.093,-0.844c1.316,-0.704 2.835,-2.943 4.334,-6.388c0.756,-1.737 1.521,-3.347 1.701,-3.579c0.709,-0.912 1.677,-5.116 1.677,-7.283c0,-4.657 -2.748,-13.003 -5.11,-15.517c-1.524,-1.622 -4.131,-2.545 -7.944,-2.813c-1.969,-0.138 -4.622,-0.342 -5.896,-0.452c-1.274,-0.111 -3.509,0.046 -4.967,0.349zM422.91296,297.6602c3.793,0.318 4.717,0.843 6.032,3.429c1.201,2.364 2.109,6.572 2.109,9.775c0,2.618 -0.229,3.481 -1.937,7.308c-1.065,2.386 -2.25,4.613 -2.632,4.947c-0.398,0.348 -2.047,0.72 -3.853,0.868c-4.029,0.331 -10.154,0.98 -12.764,1.352c-1.399,0.2 -2.36,0.111 -3.105,-0.288c-1.053,-0.564 -1.073,-0.656 -0.813,-3.743c0.319,-3.776 0.807,-5.768 1.342,-5.48c0.215,0.116 0.329,1.002 0.253,1.97c-0.117,1.503 0.021,1.862 0.945,2.468c1.809,1.185 2.9,0.555 4.573,-2.642c2.041,-3.904 2.558,-6 1.993,-8.097c-0.509,-1.89 -1.757,-2.963 -3.447,-2.963c-1.775,0 -3.143,0.806 -3.969,2.34c-0.85,1.579 -1.273,1.501 -2.064,-0.379c-0.499,-1.186 -0.441,-1.518 0.633,-3.634c1.271,-2.502 5.746,-7.734 6.314,-7.382c0.19,0.117 0.789,0.024 1.332,-0.206c0.542,-0.231 2.028,-0.309 3.302,-0.175c1.274,0.135 3.864,0.374 5.756,0.532z" data-paper-data="{&quot;wickUUID&quot;:&quot;b0971c19-d57f-455a-8251-df1f41635cad&quot;,&quot;wickType&quot;:&quot;path&quot;,&quot;originalStyle&quot;:{&quot;strokeColor&quot;:null,&quot;fillColor&quot;:[&quot;Color&quot;,0,0,0],&quot;strokeWidth&quot;:1}}" id="609aba08-0ac7-418f-b6e4-754567ec2123" fill="#000000"/><path d="M406.94474,313.74258c-1.805,1.922 -2.608,4.588 -2.639,8.756c-0.026,3.638 0.035,3.953 0.909,4.662c1.2,0.975 2.231,0.965 3.229,-0.032c0.664,-0.665 0.794,-1.326 0.797,-4.067c0.003,-2.65 0.192,-3.677 0.992,-5.395c1.195,-2.566 1.216,-3.006 0.195,-4.028c-1.047,-1.047 -2.44,-1.005 -3.483,0.104z" data-paper-data="{&quot;wickUUID&quot;:&quot;4c3d5892-7979-4803-b45c-c36936caede9&quot;,&quot;wickType&quot;:&quot;path&quot;,&quot;originalStyle&quot;:{&quot;strokeColor&quot;:null,&quot;fillColor&quot;:[&quot;Color&quot;,0,0,0],&quot;strokeWidth&quot;:1}}" id="0def634f-1a6d-4dbb-8dc4-9be3c8e033f4" fill="#000000"/><path d="M348.53015,298.89904c-1.01667,2.86167 -3.15486,3.28313 -4.47753,0.8958c-0.53,-0.95633 -0.97226,-0.95211 -2.28859,-0.78011c-2.56233,0.335 -7.13668,3.13929 -8.33801,5.10962c-0.42867,0.703 -0.93195,2.18678 -0.93262,3.32445l0.13307,2.33093l2.26098,0.74875c2.658,0.717 6.69697,-0.364 6.4393,-1.71267c-0.076,-0.39767 -0.53243,-2.10661 -1.62243,-2.23228c-1.69567,-0.19567 -2.10739,0.06915 -2.54939,-1.09385c-0.627,-1.649 0.07711,-2.44228 2.68811,-3.02895c2.02333,-0.45467 3.14432,0.06463 5.24665,1.98596c0.998,0.91233 2.3883,1.73662 2.64697,1.73662c0.25833,0 2.08172,-1.23748 3.12639,-2.16881c2.34633,-2.09133 2.57951,-3.50185 0.80484,-5.05985c-0.648,-0.569 -2.32365,-1.76236 -2.36598,-1.76236c-0.04233,0 -0.44676,0.79108 -0.77176,1.70675z" data-paper-data="{&quot;wickUUID&quot;:&quot;7fff2f9b-a1c4-4a80-9723-c14b93597140&quot;,&quot;wickType&quot;:&quot;path&quot;,&quot;originalStyle&quot;:{&quot;strokeColor&quot;:null,&quot;fillColor&quot;:[&quot;Color&quot;,0,0,0],&quot;strokeWidth&quot;:1}}" id="d07c0b0c-8840-4659-98a1-b2ee8077307b" fill="#000000"/><path d="M350.73559,310.1528c-0.275,0.17767 -1.58174,0.37026 -2.47607,0.37326c-1.48733,0.00467 -1.86593,0.18374 -3.12193,1.51974c-1.113,1.18367 -1.8165,1.59139 -3.84183,2.21606c-1.375,0.424 -2.8777,1.06172 -3.0237,1.18072c-0.14567,0.119 0.61715,2.08978 1.15748,2.66811c1.20933,1.29467 2.71893,1.38847 6.61326,0.37914c1.823,-0.47267 3.48914,-0.6633 5.06814,-0.5883c1.397,0.06633 2.95761,-0.43949 2.95628,-0.64049c-0.00133,-0.18333 -0.29702,-1.91702 -0.75035,-3.01702c-0.453,-1.1 -0.88548,-2.55216 -0.88981,-3.05616c-0.00867,-0.979 -0.89614,-1.54906 -1.69147,-1.03506z" data-paper-data="{&quot;wickUUID&quot;:&quot;25718666-acf8-4a64-8c95-2ef67d8db8d1&quot;,&quot;wickType&quot;:&quot;path&quot;,&quot;originalStyle&quot;:{&quot;strokeColor&quot;:null,&quot;fillColor&quot;:[&quot;Color&quot;,0,0,0],&quot;strokeWidth&quot;:1}}" id="ea7802f7-0c18-42b8-a0c1-962e6bd8e29d" fill="#000000"/><path d="M360.49099,256.85727c-0.815,0.331 -5.945,9.655 -6.724,12.225c-0.175,0.577 -0.873,2.248 -1.551,3.713c-1.813,3.917 -6.409,17.76 -7.487,22.552c-1.055,4.686 -0.839,5.937 1.109,6.426c1.777,0.446 2.768,-1.085 3.866,-5.975c0.829,-3.694 4.935,-15.992 7.723,-23.133c0.542,-1.39 2.17,-4.851 3.618,-7.691c1.448,-2.84 2.632,-5.625 2.632,-6.188c0,-0.58 -0.405,-1.307 -0.936,-1.678c-1.051,-0.736 -1.05,-0.736 -2.25,-0.251z" data-paper-data="{&quot;wickUUID&quot;:&quot;3d594048-2ff1-42f6-8069-11a7629ce38b&quot;,&quot;wickType&quot;:&quot;path&quot;,&quot;originalStyle&quot;:{&quot;strokeColor&quot;:null,&quot;fillColor&quot;:[&quot;Color&quot;,0,0,0],&quot;strokeWidth&quot;:1}}" id="9ef239f7-eff9-4e4d-90ce-de4e8fb8ff87" fill="#000000"/><path d="M347.62971,308.64245c-0.891,0.891 -0.937,2.589 -0.09,3.331c0.348,0.304 1.12,0.636 1.715,0.737c0.596,0.101 1.583,0.389 2.194,0.641c2.285,0.942 4.313,-0.657 3.558,-2.806c-0.245,-0.694 -0.88,-1.18 -2.322,-1.774c-2.504,-1.031 -4.111,-1.072 -5.055,-0.129z" data-paper-data="{&quot;wickUUID&quot;:&quot;050d1b25-71bc-40fe-ba89-24d8a14534fb&quot;,&quot;wickType&quot;:&quot;path&quot;,&quot;originalStyle&quot;:{&quot;strokeColor&quot;:null,&quot;fillColor&quot;:[&quot;Color&quot;,1,1,1],&quot;strokeWidth&quot;:1}}" fill="#ffffff"/><path d="M346.166,292.8393c-0.713,0.314 -2.273,0.78 -3.466,1.035c-8.964,1.923 -14.821,7.263 -14.815,13.509c0.004,3.914 0.634,5.446 2.6,6.326c1.291,0.578 1.901,1.206 2.523,2.599c3.14,7.024 6.686,8.825 13.25,6.728c1.818,-0.581 3.269,-0.741 5.424,-0.599c2.897,0.191 2.982,0.166 5.678,-1.629c2.338,-1.556 2.757,-2.025 2.871,-3.213c0.106,-1.107 -0.171,-1.73 -1.358,-3.043c-1.643,-1.819 -1.777,-2.23 -2.109,-6.515c-0.158,-2.027 -0.029,-3.604 0.413,-5.053c0.971,-3.176 0.529,-4.641 -2.252,-7.472c-1.732,-1.763 -2.781,-2.485 -3.866,-2.661c-0.819,-0.132 -1.963,-0.317 -2.542,-0.411c-0.579,-0.094 -1.637,0.085 -2.351,0.399zM351.509,299.1503c0.777,0.856 1.11,1.598 0.965,2.15c-0.295,1.122 -3.947,4.421 -4.894,4.421c-0.412,0 -1.431,-0.754 -2.264,-1.676c-2.24,-2.479 -4.7,-2.903 -7.66,-1.318c-1.229,0.657 -1.548,2 -0.761,3.201c0.494,0.754 1.113,1.04 2.457,1.137c1.483,0.108 1.819,0.292 1.928,1.061c0.247,1.739 -4.017,2.811 -7.018,1.765c-1.222,-0.426 -1.326,-0.61 -1.326,-2.356c0,-2.528 0.865,-3.852 3.721,-5.696c2.945,-1.901 3.921,-2.276 6.888,-2.647c1.289,-0.161 2.849,-0.625 3.467,-1.03c1.488,-0.976 3.02,-0.64 4.497,0.988zM353.042,314.9643c0.502,1.015 0.801,2.027 0.664,2.248c-0.141,0.228 -1.197,0.292 -2.431,0.146c-1.547,-0.181 -3.061,-0.013 -5.202,0.581c-4.602,1.275 -5.73,1.156 -7.025,-0.743l-1.077,-1.579l0.957,-0.13c1.308,-0.179 4.565,-1.376 5.572,-2.048c0.454,-0.304 1.051,-0.974 1.327,-1.49c0.414,-0.773 0.804,-0.916 2.217,-0.814c1.069,0.077 2.076,-0.13 2.673,-0.55c0.941,-0.662 0.963,-0.645 1.185,0.93c0.125,0.882 0.638,2.434 1.14,3.449z" data-paper-data="{&quot;wickUUID&quot;:&quot;38847af0-d862-4ae4-9053-419ba30feae2&quot;,&quot;wickType&quot;:&quot;path&quot;,&quot;originalStyle&quot;:{&quot;strokeColor&quot;:null,&quot;fillColor&quot;:[&quot;Color&quot;,0,0,0],&quot;strokeWidth&quot;:1}}" id="44153ee0-e153-422e-a7e0-02aa70355f82" fill="#000000"/><path d="M343.28816,298.66178c-0.351,0.273 -2.205,4.379 -4.12,9.126l-3.482,8.629l0.811,1.091c0.997,1.34 2.117,1.554 3.214,0.613c0.96,-0.823 7.238,-16.119 7.238,-17.635c0,-1.867 -2.197,-2.961 -3.661,-1.824z" data-paper-data="{&quot;wickUUID&quot;:&quot;c87ffc35-c5e2-46b2-9187-e908e63bc483&quot;,&quot;wickType&quot;:&quot;path&quot;,&quot;originalStyle&quot;:{&quot;strokeColor&quot;:null,&quot;fillColor&quot;:[&quot;Color&quot;,0,0,0],&quot;strokeWidth&quot;:1}}" id="bda69a1c-a729-4ef4-a200-4304e94b110a" fill="#000000"/><path d="M415.09546,314.69111c-1.929,2.273 -3.757,7.306 -3.345,9.208c0.237,1.088 1.39,2.077 2.422,2.077c1.109,0 2.431,-1.63 2.431,-2.998c0,-0.707 0.536,-2.235 1.264,-3.608c1.411,-2.659 1.518,-3.343 0.702,-4.508c-0.699,-0.998 -2.689,-1.095 -3.474,-0.171z" data-paper-data="{&quot;wickUUID&quot;:&quot;a29a2bd0-67b9-49dc-abe2-ef97429a1a08&quot;,&quot;wickType&quot;:&quot;path&quot;,&quot;originalStyle&quot;:{&quot;strokeColor&quot;:null,&quot;fillColor&quot;:[&quot;Color&quot;,1,1,1],&quot;strokeWidth&quot;:1}}" fill="#ffffff"/><path d="M422.97914,316.16411c-1.13,1.249 -0.505,5.838 0.896,6.589c1.004,0.537 2.351,0.142 3.025,-0.886c0.737,-1.124 0.354,-4.741 -0.603,-5.697c-0.852,-0.853 -2.548,-0.856 -3.318,-0.006z" data-paper-data="{&quot;wickUUID&quot;:&quot;0ecedcaf-71f4-4ae6-83ef-904417f5e9da&quot;,&quot;wickType&quot;:&quot;path&quot;,&quot;originalStyle&quot;:{&quot;strokeColor&quot;:null,&quot;fillColor&quot;:[&quot;Color&quot;,1,1,1],&quot;strokeWidth&quot;:1}}" fill="#ffffff"/><path d="M337.90976,302.88955c-3.189,1.132 -4.001,2.396 -2.718,4.228c0.642,0.916 1.845,1.026 4.239,0.385c1.965,-0.525 3.153,-0.23 4.762,1.183c1.544,1.355 1.577,1.802 0.219,2.945c-0.901,0.758 -1.317,0.859 -2.899,0.707c-1.441,-0.138 -2.004,-0.036 -2.56,0.467c-1.013,0.917 -0.954,2.885 0.108,3.581c1.302,0.853 4.565,1.098 6.098,0.457c1.595,-0.666 4.137,-2.91 4.842,-4.273c1.568,-3.032 -0.715,-7.016 -5.347,-9.33c-2.536,-1.267 -3.952,-1.341 -6.744,-0.35z" data-paper-data="{&quot;wickUUID&quot;:&quot;b286c18b-23f9-4271-9336-d5eeddcbf07f&quot;,&quot;wickType&quot;:&quot;path&quot;,&quot;originalStyle&quot;:{&quot;strokeColor&quot;:null,&quot;fillColor&quot;:[&quot;Color&quot;,1,1,1],&quot;strokeWidth&quot;:1}}" fill="#ffffff"/><path d="M337.21119,301.49733c-3.134,0.704 -5.545,1.863 -5.961,2.867c-0.386,0.933 -0.196,1.788 0.588,2.644c0.698,0.763 2.157,0.791 3.861,0.073c1.608,-0.676 4.861,-1.336 6.593,-1.336c0.995,0 1.904,0.252 3.4,0.943c1.733,0.801 2.159,1.133 2.813,2.197c0.424,0.689 1.227,1.671 1.784,2.181l1.014,0.927l-1.33,0.067c-2.266,0.114 -2.966,0.317 -4.026,1.169l-1.026,0.824l-4.293,-0.171l-4.293,-0.17l-0.692,0.823c-0.797,0.947 -0.909,2.25 -0.294,3.438c0.522,1.011 3.702,2.591 6.006,2.986c1.614,0.276 2.015,0.227 6.498,-0.787c2.629,-0.595 5.31,-1.158 5.959,-1.251c1.763,-0.255 2.789,-0.849 3.429,-1.989c0.761,-1.353 0.733,-1.701 -0.313,-3.883c-0.488,-1.02 -1.033,-2.295 -1.211,-2.834c-0.178,-0.54 -0.945,-1.698 -1.704,-2.575c-0.76,-0.877 -1.798,-2.139 -2.307,-2.804c-0.51,-0.666 -1.407,-1.437 -1.994,-1.714c-0.588,-0.277 -1.858,-0.877 -2.823,-1.333c-1.65,-0.78 -1.929,-0.828 -4.653,-0.8c-1.709,0.018 -3.771,0.227 -5.025,0.508z" data-paper-data="{&quot;wickUUID&quot;:&quot;47b023f9-476a-442f-8713-347db3b45268&quot;,&quot;wickType&quot;:&quot;path&quot;,&quot;originalStyle&quot;:{&quot;strokeColor&quot;:null,&quot;fillColor&quot;:[&quot;Color&quot;,0,0,0],&quot;strokeWidth&quot;:1}}" fill="#000000"/><path d="M415.95488,307.88435c-0.778,0.612 -0.9,0.822 -2.863,4.906c-2.641,5.496 -5.024,10.027 -5.689,10.817c-0.994,1.181 -0.919,2.615 0.184,3.544c0.685,0.575 1.028,0.685 1.77,0.565c1.389,-0.226 2.295,-1.295 4.29,-5.063l1.816,-3.432l-0.042,2.922c-0.047,3.26 0.145,3.869 1.51,4.805c1.07,0.733 5.6,1.288 7.334,0.899c1.36,-0.306 4.406,-2.098 5.471,-3.22c0.775,-0.816 0.797,-0.91 0.761,-3.281c-0.033,-2.16 -0.174,-2.831 -1.235,-5.842c-1.418,-4.024 -2.156,-5.232 -3.776,-6.182c-3.282,-1.923 -8.007,-2.636 -9.531,-1.438zM423.48688,314.21635c1.254,2.722 2.455,6.917 1.879,6.561c-0.155,-0.096 -0.283,-0.4 -0.283,-0.675c0,-0.275 -0.687,-1.914 -1.528,-3.64c-0.841,-1.727 -1.569,-3.232 -1.619,-3.344c-0.05,-0.113 0.206,-0.07 0.568,0.095c0.363,0.166 0.805,0.617 0.983,1.003z" data-paper-data="{&quot;wickUUID&quot;:&quot;e576ad40-cb72-4f07-9040-d66a49ea4e50&quot;,&quot;wickType&quot;:&quot;path&quot;,&quot;originalStyle&quot;:{&quot;strokeColor&quot;:null,&quot;fillColor&quot;:[&quot;Color&quot;,0,0,0],&quot;strokeWidth&quot;:1}}" fill="#000000"/><path d="M368.94312,204.33886c-0.595,0.063 -1.194,0.16 -1.331,0.217c-0.723,0.298 -1.856,1.068 -2.495,1.697c-1.278,1.258 -1.956,2.433 -3.601,6.243c-0.55,1.274 -1.14,2.622 -1.312,2.996l-0.313,0.68l-0.686,-0.432c-0.378,-0.238 -1.162,-0.799 -1.742,-1.247c-1.261,-0.973 -2.656,-1.469 -4.454,-1.583c-1.723,-0.11 -5.482,0.939 -6.3,1.756c-1.204,1.204 -0.791,3.193 0.813,3.922c0.738,0.335 1.016,0.314 2.616,-0.205c2.637,-0.855 3.33,-0.779 5.08,0.553c1.737,1.322 2.752,1.955 3.961,2.47c1.467,0.624 1.714,0.675 2.381,0.496c1.274,-0.343 1.75,-1.108 4.101,-6.594c1.563,-3.646 2.214,-4.879 2.918,-5.529c0.782,-0.72 1.449,-0.804 2.588,-0.326c1.121,0.47 1.898,0.927 2.747,1.614c1.386,1.122 3.178,0.807 3.901,-0.686c0.903,-1.865 -0.439,-3.467 -4.453,-5.318c-0.983,-0.454 -2.594,-0.896 -3.112,-0.855c-0.124,0.009 -0.711,0.069 -1.307,0.131z" data-paper-data="{&quot;wickUUID&quot;:&quot;c8c4bba4-d10a-4a80-a2b2-16aa11e215f3&quot;,&quot;wickType&quot;:&quot;path&quot;,&quot;originalStyle&quot;:{&quot;strokeColor&quot;:null,&quot;fillColor&quot;:[&quot;Color&quot;,0,0,0],&quot;strokeWidth&quot;:1}}" fill="#000000"/></g><g data-paper-data="{&quot;wickUUID&quot;:&quot;99244c09-8c40-482d-b781-65d556971edc&quot;,&quot;wickType&quot;:&quot;clipsandpaths&quot;}" fill="none" fill-rule="nonzero" stroke="none" stroke-width="1" stroke-linecap="butt" stroke-linejoin="miter" stroke-miterlimit="10" stroke-dasharray="" stroke-dashoffset="0" font-family="sans-serif" font-weight="normal" font-size="12" text-anchor="start" style="mix-blend-mode: normal"/><g fill="none" fill-rule="nonzero" stroke="none" stroke-width="1" stroke-linecap="butt" stroke-linejoin="miter" stroke-miterlimit="10" stroke-dasharray="" stroke-dashoffset="0" font-family="sans-serif" font-weight="normal" font-size="12" text-anchor="start" style="mix-blend-mode: normal"/><g id="wick_project_gui" fill="none" fill-rule="nonzero" stroke="none" stroke-width="1" stroke-linecap="butt" stroke-linejoin="miter" stroke-miterlimit="10" stroke-dasharray="" stroke-dashoffset="0" font-family="sans-serif" font-weight="normal" font-size="12" text-anchor="start" style="mix-blend-mode: normal"/></g></svg>