<svg version="1.1" xmlns="http://www.w3.org/2000/svg" xmlns:xlink="http://www.w3.org/1999/xlink" width="1260" height="594" viewBox="0,0,1260,594"><g transform="translate(230.20498,30.46998) scale(1.11054,1.11054)"><g id="wick_project_bg" fill-opacity="0" fill="#ffffff" fill-rule="nonzero" stroke="none" stroke-width="1" stroke-linecap="butt" stroke-linejoin="miter" stroke-miterlimit="10" stroke-dasharray="" stroke-dashoffset="0" font-family="none" font-weight="none" font-size="none" text-anchor="none" style="mix-blend-mode: normal"><rect x="0" y="0" width="720" height="480"/></g><g data-paper-data="{&quot;wickUUID&quot;:&quot;d18889e1-2756-41bf-8eb6-0395cc8b20ab&quot;,&quot;wickType&quot;:&quot;clipsandpaths&quot;}" fill="none" fill-rule="evenodd" stroke="none" stroke-width="1" stroke-linecap="butt" stroke-linejoin="miter" stroke-miterlimit="10" stroke-dasharray="" stroke-dashoffset="0" font-family="none" font-weight="none" font-size="none" text-anchor="none" style="mix-blend-mode: normal"><path d="M384.13754,290.98982c-2.25833,1.68867 -7.26525,3.88673 -10.93458,4.79473c-3.218,0.79633 -3.26925,0.80179 -5.13058,0.41712c-1.21633,-0.25133 -2.97784,-1.01761 -4.71817,-2.00694c-2.50533,-1.42467 -4.40533,-1.89548 -4.40533,-1.51915c0,0.055 -0.15879,2.33129 0.20354,3.97196c0.36267,1.64067 0.83828,5.21751 1.06295,7.99151l0.46256,5.26129l1.9462,0.79772c3.15833,0.99567 4.11607,2.13496 2.5764,4.09229c-1.01567,1.29133 -0.73309,0.78714 -3.89409,-0.28153c-1.595,-0.539 -3.5818,-0.71507 -3.60247,-0.68107c-0.02067,0.03433 -0.41173,2.40196 -0.55706,4.60196c-0.14567,2.2 -0.35906,4.58279 -0.47606,5.31612l0.03313,2.0229l4.09651,2.45481c4.83667,2.87167 6.61199,3.52997 10.62832,3.9903c2.82167,0.323 4.01813,0.29452 7.36546,-0.28181c2.20367,-0.37967 5.16055,-1.17078 6.78955,-1.82311l3.26137,-1.43496l0.07679,-3.06818c-0.051,-1.37367 -0.313,-4.64843 -0.58267,-7.2831c-0.26967,-2.63433 -0.65052,-9.5261 -0.84719,-15.3251c-0.19633,-5.79867 -0.45963,-10.94452 -0.5843,-11.42252l-1.14383,-1.66056z" data-paper-data="{&quot;wickUUID&quot;:&quot;00f06a88-d141-4b0f-89b9-3379c1f33951&quot;,&quot;wickType&quot;:&quot;path&quot;,&quot;originalStyle&quot;:{&quot;strokeColor&quot;:null,&quot;fillColor&quot;:[&quot;Color&quot;,0.50196,0,1],&quot;strokeWidth&quot;:1}}" fill="#8000ff"/><path d="M390.80174,283.77402c-1.20633,1.63733 -1.30585,2.06802 -1.14018,4.18569c0.09433,1.203 0.39975,7.27902 0.67808,13.42069c0.278,6.14167 0.72312,13.64917 0.98845,16.67417c0.265,3.025 0.48696,5.87216 0.48929,6.28483c0.002,0.41267 1.39399,1.39262 1.53132,1.39262c0.13767,0 1.96085,-1.4964 3.90452,-3.2194l3.66001,-3.26803l0.38745,-2.42419c0.24433,-2.07867 -0.25543,-7.3605 -0.9851,-10.41017c-0.26333,-1.1 -0.79078,-5.50944 -1.15345,-9.68344c-0.97067,-11.17 -0.82338,-10.67356 -3.95038,-13.29156l-2.48792,-1.86828z" data-paper-data="{&quot;wickUUID&quot;:&quot;a40e68bf-3bf9-4ba3-854b-69c15aa29757&quot;,&quot;wickType&quot;:&quot;path&quot;,&quot;originalStyle&quot;:{&quot;strokeColor&quot;:null,&quot;fillColor&quot;:[&quot;Color&quot;,0.50196,0,1],&quot;strokeWidth&quot;:1}}" fill="#8000ff"/><path d="M383.74638,190.68189c-0.51082,1.22691 -2.74201,7.38611 -4.94596,13.65697c-2.20432,6.27056 -4.29473,11.83488 -4.7315,12.54256c-0.92748,1.50284 -0.97262,1.71181 -2.16473,0.8076c-0.9078,-0.68856 -0.8082,-1.12509 -0.57665,-4.55449l0.15311,-2.75649l-1.43977,-1.37635c-1.45681,-1.18278 -10.12927,-6.4661 -10.48394,-6.41739c-0.15587,0.02141 -2.45903,3.21278 -4.19232,6.55065c-1.73329,3.33787 -4.74033,8.94231 -6.67752,12.44681c-1.93752,3.50454 -3.76937,6.98735 -3.99967,7.57414c-0.70337,1.78967 -1.63678,6.10266 -2.91802,13.50381c-1.8797,10.85873 -1.90281,11.30992 -0.82772,13.83647c0.18233,0.42851 2.12795,0.34302 3.13961,-1.61988c0.73897,-1.43489 2.19205,-3.74623 3.30321,-5.23459c1.72562,-2.31095 2.32029,-2.87057 5.38371,-4.90934c4.62362,-3.07738 7.338,-4.18591 11.7192,-4.78762c2.628,-0.36092 3.48512,-0.4063 5.80258,-0.06646c8.73789,1.28103 13.28135,3.89564 17.51601,10.15467c3.04678,4.50367 3.87946,6.8542 4.58747,12.09763c0.319,2.36189 0.49652,4.87763 0.4323,5.81138c-0.0645,0.93413 0.98311,2.51956 1.05602,2.57516c0.07324,0.05555 1.57529,-1.18852 2.92457,-2.5649c4.21904,-4.3034 9.95875,-8.73813 14.18567,-10.96059l2.33358,-1.56785l-0.86526,-5.02686c-1.38212,-7.5256 -5.53021,-20.42815 -6.82433,-21.23726c-0.36402,-0.22759 -2.43188,-1.62369 -4.17369,-2.6351l-2.97624,-1.68608l-0.01869,-1.25903c-0.13633,-0.99268 -0.15319,-3.15991 -0.03821,-4.89267c0.11531,-1.7328 0.27876,-4.33965 0.37283,-5.9013c0.13496,-2.24625 1.7926,-13.29544 2.48335,-16.06384c0.24363,-0.97724 -13.34536,-9.0429 -14.89977,-8.82942c-0.41081,0.05642 -2.02334,1.31111 -2.63923,2.78966z" data-paper-data="{&quot;wickUUID&quot;:&quot;4396b13e-9ed1-48fd-8a8a-f15e2d943dff&quot;,&quot;wickType&quot;:&quot;path&quot;,&quot;originalStyle&quot;:{&quot;strokeColor&quot;:null,&quot;fillColor&quot;:[&quot;Color&quot;,1,0.50196,0],&quot;strokeWidth&quot;:1}}" id="4396b13e-9ed1-48fd-8a8a-f15e2d943dff" fill="#ff8000"/><path d="M360.00026,244.79079c-3.12603,1.41146 -6.89344,3.7969 -8.53075,5.39117c-0.67277,0.6553 -2.373,3.17579 -3.44222,5.05037c-2.7481,4.81738 -2.81698,5.64672 -1.32741,14.69452c1.31318,7.97415 2.26077,11.05343 4.08703,13.53233c1.33171,1.80795 4.29654,3.54646 8.15539,4.59719l2.97296,0.75208l1.00968,-1.20713c0.97304,-1.41119 1.68652,-1.68256 2.87009,-0.72537c0.64124,0.51891 0.52622,0.81711 0.72283,2.24867c0.30264,2.20364 1.12225,2.82894 3.38811,2.73679c1.45684,-0.0591 2.53502,-0.36656 2.65358,-1.05408c0.07286,-0.42251 0.45815,-1.31436 0.99943,-2.10872c1.09521,-1.60696 1.71457,-1.78412 3.32545,-1.10869c0.82757,0.34696 1.6038,0.0556 2.33407,-0.37207c2.38626,-1.39835 8.23304,-9.63039 9.12557,-12.8454c0.19179,-0.69085 0.57336,-3.56166 0.72876,-5.80365c0.35027,-5.0614 -0.33199,-8.9683 -2.16224,-12.70603c-2.31506,-4.7273 -5.09111,-8.04188 -8.05175,-9.69879c-3.26675,-1.82785 -10.9535,-3.35759 -14.42067,-2.83768c-0.78035,0.11693 -3.03443,0.83064 -4.43791,1.46449zM375.84991,273.57619c1.77343,1.02355 2.17812,1.05822 3.31135,0.18625c1.06781,-0.8216 1.1454,-1.65726 2.26545,-1.00088c2.21116,1.29553 1.3433,3.27537 -2.25852,5.23533c-2.31135,1.25785 -2.33063,1.28298 -4.21807,0.63947c-3.16638,-1.07989 -4.09101,-2.10703 -3.35279,-4.43916c0.81707,-2.58118 1.44341,-2.24321 4.25258,-0.62101zM364.99165,274.4941c2.4477,1.85656 1.71308,4.11897 -1.81635,6.90981c-1.12474,0.88964 -0.99963,0.71185 -2.92777,0.96757c-2.66671,0.35345 -4.10885,0.01792 -5.75794,-1.47223c-1.27492,-1.15192 -1.30758,-1.04424 -0.37175,-2.27804c0.76462,-1.00808 0.41469,-0.76229 3.88016,-0.58415c0.84647,0.04356 1.35116,-0.23329 2.54269,-1.4329c2.90388,-2.92362 2.60645,-3.50911 4.45096,-2.11006z" data-paper-data="{&quot;wickUUID&quot;:&quot;ca059843-41a7-424f-8155-b2b6e84fcc36&quot;,&quot;wickType&quot;:&quot;path&quot;,&quot;originalStyle&quot;:{&quot;strokeColor&quot;:null,&quot;fillColor&quot;:[&quot;Color&quot;,1,1,1],&quot;strokeWidth&quot;:1}}" id="ca059843-41a7-424f-8155-b2b6e84fcc36" fill="#ffffff"/><path d="M348.24499,332.43234c-0.47937,0.29002 -1.67689,1.43921 -2.27681,2.14279c-1.08208,1.26962 -1.18951,1.78729 -0.96266,4.10456c0.30577,3.12694 0.92169,4.30716 1.75834,3.95479c0.52215,-0.22005 1.77042,-0.96437 1.87023,-2.31298c0.17589,-2.38406 0.60039,-3.17506 1.96341,-3.19561c0.78614,-0.01185 0.04851,-0.33382 0.53666,0.31549c1.01242,1.34515 0.96407,4.46505 -0.0842,7.09628c-0.65589,1.64696 -0.72584,2.22657 -0.39517,2.64355c0.22238,0.28012 1.95343,0.96761 2.08808,0.96558c0.13465,-0.00203 0.86367,-1.69597 1.48599,-3.51401l1.19049,-3.60564l-1.01204,-3.85766c-1.2037,-4.46904 -1.72231,-5.25129 -3.22257,-5.21127c-0.64788,0.01727 -2.4607,0.18412 -2.93975,0.47413z" data-paper-data="{&quot;wickUUID&quot;:&quot;1d5ce13d-1936-4c6c-a545-b29a49843d6d&quot;,&quot;wickType&quot;:&quot;path&quot;,&quot;originalStyle&quot;:{&quot;strokeColor&quot;:null,&quot;fillColor&quot;:[&quot;Color&quot;,0,0,0],&quot;strokeWidth&quot;:1}}" id="1d5ce13d-1936-4c6c-a545-b29a49843d6d" fill="#000000"/><path d="M392.41676,340.84434c-0.23077,1.46746 -0.83533,5.15841 -1.32121,8.05127c-0.90369,5.37943 -0.91212,6.95449 -0.03619,8.2404c0.41396,0.60774 1.47302,1.33717 1.45442,0.29272c-0.0427,-2.39872 1.74048,-3.54671 3.06213,-1.70476c0.62315,0.86853 0.32701,0.57756 0.2585,4.3522c-0.07728,4.25006 0.28774,5.8541 1.28095,6.19544c0.77875,0.26775 2.28843,-0.02951 2.47596,-1.44087c0.1135,-0.85606 0.74772,-2.07597 1.85144,-3.5485c1.94455,-2.59443 2.18118,-3.48327 1.48452,-5.16406c-0.36351,-0.8767 -0.63969,-2.85096 -0.83132,-5.64862c-0.25414,-3.71123 -0.46097,-4.58979 -1.33738,-6.53795c-1.40172,-3.11626 -3.05898,-5.16537 -4.55197,-5.5766c-0.6744,-0.18547 -2.31932,-0.45769 -2.58366,-0.53988c-0.3899,-0.12089 -0.86588,0.86523 -1.20619,3.02921z" data-paper-data="{&quot;wickUUID&quot;:&quot;2e1f60c3-cfd0-4c75-9250-404a3f92dd97&quot;,&quot;wickType&quot;:&quot;path&quot;,&quot;originalStyle&quot;:{&quot;strokeColor&quot;:null,&quot;fillColor&quot;:[&quot;Color&quot;,0,0,0],&quot;strokeWidth&quot;:1}}" id="2e1f60c3-cfd0-4c75-9250-404a3f92dd97" fill="#000000"/><path d="M342.02745,364.00114c-3.523,1.141 -5.724,2.377 -6.517,3.659c-1.625,2.63 -0.699,6.755 1.821,8.116c2.996,1.618 4.925,2.114 8.218,2.114c4.287,0.001 6.9,-0.961 9.914,-3.647c3.612,-3.219 3.581,-4.367 -0.187,-6.926c-3.573,-2.426 -10.58,-4.18 -13.249,-3.316z" data-paper-data="{&quot;wickUUID&quot;:&quot;c76c0cde-95a1-4cbe-b9b1-d47e81b8a2d0&quot;,&quot;wickType&quot;:&quot;path&quot;,&quot;originalStyle&quot;:{&quot;strokeColor&quot;:null,&quot;fillColor&quot;:[&quot;Color&quot;,0,0,0],&quot;strokeWidth&quot;:1}}" id="c76c0cde-95a1-4cbe-b9b1-d47e81b8a2d0" fill="#000000"/><path d="M358.31289,328.88532c-0.723,0.474 -2.426,4.452 -6.178,14.433l-3.34,8.886l0.456,2.476c0.755,4.097 3.684,14.006 4.558,15.421c0.922,1.492 2.29,2.012 3.538,1.344c1.235,-0.661 1.4,-2.019 0.494,-4.071c-0.836,-1.893 -3.416,-10.854 -3.853,-13.378c-0.208,-1.205 0.301,-2.884 2.939,-9.702c1.755,-4.535 3.674,-9.39 4.265,-10.79c0.948,-2.245 1.013,-2.675 0.554,-3.639c-0.539,-1.128 -2.399,-1.66 -3.433,-0.98z" data-paper-data="{&quot;wickUUID&quot;:&quot;09acfba2-8fac-464e-8f73-9c6efe9317ad&quot;,&quot;wickType&quot;:&quot;path&quot;,&quot;originalStyle&quot;:{&quot;strokeColor&quot;:null,&quot;fillColor&quot;:[&quot;Color&quot;,0,0,0],&quot;strokeWidth&quot;:1}}" id="09acfba2-8fac-464e-8f73-9c6efe9317ad" fill="#000000"/><path d="M362.81915,286.57888c-0.82972,1.09508 -0.97097,3.33715 -0.33068,5.25789c0.73966,2.21799 3.70831,4.27621 6.46058,4.47963c4.65493,0.34283 7.30971,-0.906 6.96957,-3.27979c-0.2769,-1.93532 -0.83904,-2.19929 -3.85021,-1.81098c-1.93602,0.24974 -3.12522,0.18999 -3.94041,-0.19669c-1.0691,-0.50826 -1.16517,-0.70805 -1.14435,-2.38649c0.01803,-1.44893 -0.14826,-1.97621 -0.79516,-2.51924c-1.04405,-0.8771 -2.50773,-0.67911 -3.36934,0.45567z" data-paper-data="{&quot;wickUUID&quot;:&quot;c7af7dd1-2511-44f9-b622-601dfdd0b61e&quot;,&quot;wickType&quot;:&quot;path&quot;,&quot;originalStyle&quot;:{&quot;strokeColor&quot;:null,&quot;fillColor&quot;:[&quot;Color&quot;,0,0,0],&quot;strokeWidth&quot;:1}}" id="c7af7dd1-2511-44f9-b622-601dfdd0b61e" fill="#000000"/><path d="M358.512,240.64488c-3.15993,1.32628 -9.23973,5.35194 -10.69032,7.07836c-2.03119,2.41583 -5.51273,8.55159 -5.89803,10.39112c-0.78032,3.72582 -0.20591,10.31898 1.53463,17.62712c1.38805,5.82935 1.7937,6.99702 3.14411,9.06855c1.87078,2.86914 5.43083,5.691 8.45085,6.69745c2.71439,0.90509 8.89548,2.28391 9.72569,2.16989c0.92531,-0.12708 2.01207,-1.78334 1.86621,-2.84537c-0.19103,-1.39094 -1.24031,-1.90193 -6.08537,-2.96762c-4.86469,-1.06905 -7.97295,-2.78409 -9.79868,-5.40606c-1.36418,-1.9586 -2.82134,-7.48271 -3.71909,-14.09303c-1.09429,-8.05603 -1.01586,-8.69767 1.59105,-12.99231c2.87505,-4.73824 3.07877,-4.96002 6.75866,-7.37315c3.46047,-2.26893 6.94766,-3.75523 9.73229,-4.14675c2.29252,-0.32192 8.80551,0.79834 11.90751,2.04891c5.74975,2.31723 11.12621,10.86823 11.51584,18.31345c0.16818,3.20896 -0.3746,9.03196 -1.00771,10.80156c-0.21655,0.6061 -1.1693,2.27525 -2.11498,3.70926c-1.88107,2.84742 -1.94744,3.19468 -0.84188,4.38735c0.92418,0.99652 3.09058,0.79993 4.1473,-0.37679c0.40279,-0.44797 1.40794,-2.00017 2.23336,-3.44996c1.64841,-2.89521 2.31807,-5.9568 2.51916,-11.51888c0.25858,-7.1426 -1.11756,-12.14287 -4.94323,-17.96448c-1.8556,-2.82479 -3.01829,-4.09541 -5.41235,-5.91661c-3.34207,-2.54292 -5.63436,-3.43937 -11.66126,-4.56279c-4.53724,-0.84552 -8.83662,-0.40747 -12.95376,1.32078z" data-paper-data="{&quot;wickUUID&quot;:&quot;d9efc4e0-1a07-4b8b-94e3-c32313a44a50&quot;,&quot;wickType&quot;:&quot;path&quot;,&quot;originalStyle&quot;:{&quot;strokeColor&quot;:null,&quot;fillColor&quot;:[&quot;Color&quot;,0,0,0],&quot;strokeWidth&quot;:1}}" id="d9efc4e0-1a07-4b8b-94e3-c32313a44a50" fill="#000000"/><path d="M382.00885,184.91023c-1.63927,2.27823 -3.22356,6.05187 -5.48301,13.06754c-1.14008,3.53903 -2.28991,6.81596 -2.55492,7.28235c-0.45848,0.80688 -0.71751,0.69206 -5.2848,-2.33466c-7.91072,-5.2414 -10.83063,-6.34942 -12.36965,-4.69362c-0.29901,0.32168 -2.17098,3.83807 -4.15942,7.8146c-1.98943,3.97666 -5.11025,9.88725 -6.93437,13.13464c-1.82426,3.2464 -3.71357,6.75409 -4.19876,7.79276c-0.48406,1.03953 -1.86098,6.94782 -3.05992,13.13044c-2.92339,15.08 -2.81219,16.06603 2.83977,25.24135c1.14804,1.86211 2.4024,3.57235 2.78796,3.80001c1.59808,0.94233 3.68981,-0.45932 3.43674,-2.30202c-0.063,-0.45869 -0.84442,-1.98859 -1.73608,-3.40242c-2.59396,-4.10726 -4.25956,-7.56984 -4.50597,-9.364c-0.21661,-1.5772 3.28435,-21.54321 4.25922,-24.29343c0.22921,-0.6462 1.07929,-2.26188 1.88892,-3.5914c1.89195,-3.10631 7.63886,-13.87741 10.18783,-19.09373c1.08729,-2.22563 2.08789,-4.06085 2.22263,-4.07935c0.2982,-0.04095 5.16019,2.96346 8.82401,5.45311l2.67875,1.82147l-0.25221,3.35249c-0.28152,3.72696 0.09796,4.76296 1.81354,4.95129c1.70427,0.18685 2.4852,-0.88134 4.0947,-5.60324c7.29331,-21.39126 8.50356,-24.51497 9.55937,-24.66199c0.77869,-0.10694 4.72491,1.88869 9.12298,4.61665c1.81164,1.12295 3.8075,2.35989 4.43417,2.74824l1.1386,0.70564l-1.43272,7.69954c-0.78803,4.23561 -1.40055,8.88922 -1.36133,10.34341c0.04008,1.45306 -0.06215,3.48688 -0.22627,4.51881c-0.16498,1.03305 -0.1627,2.88699 0.00471,4.12068l0.30295,2.24264l3.72648,2.17419l3.72634,2.1732l1.30846,3.41977c2.46048,6.428 4.37942,13.12419 5.07694,17.718l0.69729,4.58476l-1.90764,0.96352c-4.78286,2.41522 -10.88562,7.31009 -16.35692,13.12055c-5.14273,5.46151 -5.47492,6.13698 -3.81072,7.7445c1.56389,1.50925 2.56893,1.05125 6.01402,-2.74076c6.64733,-7.31648 12.73898,-12.1967 17.85721,-14.30873c3.11799,-1.2862 3.64478,-1.77946 3.72885,-3.4898c0.16296,-3.3261 -3.8057,-17.95012 -7.45033,-27.45865c-0.16358,-0.42671 -0.46463,-1.24436 -0.66956,-1.81781c-0.25411,-0.71104 -1.50824,-1.70665 -3.94461,-3.1304c-3.09515,-1.81071 -3.56201,-2.22606 -3.50287,-3.1184c0.03729,-0.56634 0.16874,-2.32861 0.29189,-3.91613c0.12301,-1.58851 0.1638,-3.34944 0.09034,-3.91369c-0.07346,-0.56425 0.43958,-4.03129 1.14127,-7.70493c1.72402,-9.0255 1.86087,-10.6896 0.98886,-11.99711c-0.92771,-1.3897 -13.37717,-8.71495 -16.57381,-9.75064c-3.46403,-1.12313 -5.10666,-0.86118 -6.46891,1.03076z" data-paper-data="{&quot;wickUUID&quot;:&quot;e161c1ce-b6dd-4d17-88d7-a92824b8cec6&quot;,&quot;wickType&quot;:&quot;path&quot;,&quot;originalStyle&quot;:{&quot;strokeColor&quot;:null,&quot;fillColor&quot;:[&quot;Color&quot;,0,0,0],&quot;strokeWidth&quot;:1}}" id="e161c1ce-b6dd-4d17-88d7-a92824b8cec6" fill="#000000"/><path d="M385.0003,280.3765c-0.40617,0.31318 -1.96738,1.9912 -3.46894,3.72866c-2.77185,3.20393 -3.7654,3.78956 -4.81142,2.83198c-0.31987,-0.29321 -1.08716,-0.46339 -1.70437,-0.37862c-1.26909,0.17429 -2.10462,1.35192 -3.07409,4.33255c-0.73492,2.26304 -0.31775,3.70569 1.20658,4.16254c0.88218,0.26443 1.44815,0.05649 3.61305,-1.32693c1.41247,-0.90157 2.83132,-1.67581 3.15429,-1.72017c0.95999,-0.13184 4.13061,-3.0413 6.65763,-6.10966c2.62054,-3.18114 2.87865,-4.54292 1.06884,-5.63786c-1.14715,-0.69438 -1.61776,-0.67415 -2.64157,0.11751z" data-paper-data="{&quot;wickUUID&quot;:&quot;eac289b3-b01a-4721-aa1e-80fe2ead93ce&quot;,&quot;wickType&quot;:&quot;path&quot;,&quot;originalStyle&quot;:{&quot;strokeColor&quot;:null,&quot;fillColor&quot;:[&quot;Color&quot;,0,0,0],&quot;strokeWidth&quot;:1}}" id="eac289b3-b01a-4721-aa1e-80fe2ead93ce" fill="#000000"/><path d="M386.4883,276.51565c-0.64669,0.5853 -0.64948,1.17834 -0.08961,18.32176c0.31846,9.74537 0.65339,18.08828 0.74451,18.54163c0.22538,1.12371 1.51345,14.60427 1.95272,20.44254c0.38455,5.11155 0.7873,6.18966 2.29579,6.15021c0.45437,-0.01188 1.13229,-0.4024 1.50773,-0.86795c0.8749,-1.0849 0.83588,-2.41011 -0.44108,-15.09932c-0.7037,-6.98963 -1.20796,-15.21342 -1.7114,-27.90135c-0.49318,-12.4291 -0.84865,-18.26034 -1.14837,-18.86288c-0.7125,-1.43151 -1.99991,-1.73172 -3.11029,-0.72464z" data-paper-data="{&quot;wickUUID&quot;:&quot;4283945f-a87b-4a34-841c-aa2d4551bafc&quot;,&quot;wickType&quot;:&quot;path&quot;,&quot;originalStyle&quot;:{&quot;strokeColor&quot;:null,&quot;fillColor&quot;:[&quot;Color&quot;,0,0,0],&quot;strokeWidth&quot;:1}}" id="4283945f-a87b-4a34-841c-aa2d4551bafc" fill="#000000"/><path d="M390.30768,335.86245c-0.79926,0.58008 -1.18885,2.10289 -1.86497,7.29134c-0.32797,2.51356 -0.88012,5.88096 -1.22585,7.48251c-0.84157,3.89112 -0.73973,5.22085 0.69214,9.07914c0.93892,2.52857 1.49778,3.48071 2.47076,4.21413c1.78868,1.34807 3.67484,0.96181 5.16552,-1.05782c1.02802,-1.39203 1.10003,-1.70217 1.0295,-4.39888c-0.06148,-2.35079 -0.2132,-3.05653 -0.80088,-3.71196c-1.37094,-1.529 -3.53281,-0.42684 -3.47534,1.77044c0.0459,1.75516 -0.56494,1.51306 -1.11869,-0.44286c-0.3724,-1.31649 -0.39255,-2.05332 -0.09452,-3.41398c0.20936,-0.95381 0.78508,-4.35254 1.27974,-7.55356c0.49466,-3.20102 0.98028,-6.31474 1.07944,-6.91952c0.31919,-1.95007 -1.65033,-3.41836 -3.13685,-2.33898z" data-paper-data="{&quot;wickUUID&quot;:&quot;d12170ed-f60e-4f5a-8c3c-e4e7d2549a71&quot;,&quot;wickType&quot;:&quot;path&quot;,&quot;originalStyle&quot;:{&quot;strokeColor&quot;:null,&quot;fillColor&quot;:[&quot;Color&quot;,0,0,0],&quot;strokeWidth&quot;:1}}" id="d12170ed-f60e-4f5a-8c3c-e4e7d2549a71" fill="#000000"/><path d="M393.36073,334.46657c-0.30944,0.42491 -0.54699,1.36615 -0.52799,2.09277c0.03785,1.44712 0.58357,1.86399 2.94551,2.25078c1.10136,0.18012 1.59688,0.64235 3.15007,2.94491c2.13132,3.15897 2.83819,5.77348 2.56821,9.50525c-0.14401,1.98748 -0.0384,2.66165 0.64097,4.09199c1.23063,2.5916 0.95769,3.41292 -2.28222,6.85779c-0.40171,0.42732 -0.68511,1.24788 -0.66718,1.93357c0.04031,1.54126 -0.70504,2.35036 -1.64997,1.7903c-0.81665,-0.48455 -1.15409,-1.29707 -1.19542,-2.87723c-0.05891,-2.25254 -2.24293,-3.22978 -3.56242,-1.59252c-1.81816,2.2535 0.19978,7.80468 3.36585,9.26317c3.16341,1.45651 6.4629,-0.50902 7.16336,-4.26742c0.10455,-0.56498 0.62561,-1.42453 1.15641,-1.91155c1.32278,-1.21233 2.70447,-4.8677 2.6485,-7.00767c-0.02487,-0.95075 -0.30356,-2.51446 -0.61872,-3.47401c-0.31602,-0.95953 -0.60215,-2.80773 -0.63612,-4.10645c-0.09526,-3.64234 -0.88884,-7.04112 -2.11867,-9.06948c-2.01551,-3.32687 -4.36675,-6.13496 -5.61515,-6.70859c-1.75444,-0.80516 -4.07128,-0.66672 -4.76502,0.28439z" data-paper-data="{&quot;wickUUID&quot;:&quot;7c9bb286-6ec7-4b27-b0aa-5644cbef44d4&quot;,&quot;wickType&quot;:&quot;path&quot;,&quot;originalStyle&quot;:{&quot;strokeColor&quot;:null,&quot;fillColor&quot;:[&quot;Color&quot;,0,0,0],&quot;strokeWidth&quot;:1}}" id="7c9bb286-6ec7-4b27-b0aa-5644cbef44d4" fill="#000000"/><path d="M342.43124,332.01816c-0.36257,0.23572 -0.92348,1.47122 -1.24665,2.74713c-0.54785,2.16453 -0.53779,2.58089 0.1566,6.23515c0.78504,4.1308 1.74472,6.12933 3.34906,6.97399c2.43996,1.28439 5.69325,-0.23115 7.08869,-3.30187c1.13934,-2.50502 1.14997,-6.26611 0.02337,-7.44648c-1.79445,-1.87848 -3.83954,-0.31257 -3.79107,2.90216c0.02977,1.97468 -0.64535,3.30911 -1.42024,2.8091c-0.62068,-0.40102 -1.41337,-6.29705 -0.97111,-7.22373c1.23943,-2.59761 -0.95873,-5.1444 -3.18865,-3.69545z" data-paper-data="{&quot;wickUUID&quot;:&quot;0d8f38e4-0576-42df-bf0d-67fa8c64bbc6&quot;,&quot;wickType&quot;:&quot;path&quot;,&quot;originalStyle&quot;:{&quot;strokeColor&quot;:null,&quot;fillColor&quot;:[&quot;Color&quot;,0,0,0],&quot;strokeWidth&quot;:1}}" id="0d8f38e4-0576-42df-bf0d-67fa8c64bbc6" fill="#000000"/><path d="M347.40583,327.98204c-2.46966,0.8979 -5.26576,4.23945 -5.23531,6.25914c0.01641,1.08863 0.26153,1.61913 0.97172,2.10579c1.26891,0.86814 2.08574,0.50071 3.72038,-1.67713c1.01167,-1.34667 1.73285,-1.89278 2.76093,-2.08839c2.6397,-0.50339 3.04591,-0.04694 4.13739,4.65439c0.95462,4.117 1.90891,6.13708 2.88945,6.1223c0.37363,-0.00563 0.35784,0.45717 -0.07051,2.05499c-0.46162,1.71907 -0.73652,2.10698 -1.65496,2.33983c-0.60663,0.15344 -1.68198,0.17069 -2.38967,0.03808c-1.15473,-0.2149 -1.38284,-0.49801 -2.22028,-2.75626c-1.05101,-2.83529 -1.70442,-3.45585 -3.18811,-3.03026c-1.57719,0.45258 -1.94053,1.83144 -1.17806,4.46538c1.50283,5.1843 2.9265,6.31414 7.86237,6.23972c3.08291,-0.04648 3.67,-0.17405 4.60327,-0.99659c0.58785,-0.51851 1.60273,-1.21231 2.25508,-1.54144c1.75658,-0.8851 3.11219,-3.13754 3.53938,-5.88152c0.59162,-3.79134 -0.48588,-5.48926 -3.76204,-5.93006l-1.53686,-0.20708l-0.83698,-3.297c-1.22527,-4.83031 -1.28598,-4.95629 -2.93448,-6.1513c-1.87864,-1.3604 -5.13758,-1.66536 -7.73271,-0.72259z" data-paper-data="{&quot;wickUUID&quot;:&quot;1e3f1036-f7d8-4a3e-878f-470be2d91927&quot;,&quot;wickType&quot;:&quot;path&quot;,&quot;originalStyle&quot;:{&quot;strokeColor&quot;:null,&quot;fillColor&quot;:[&quot;Color&quot;,0,0,0],&quot;strokeWidth&quot;:1}}" id="1e3f1036-f7d8-4a3e-878f-470be2d91927" fill="#000000"/><path d="M353.39079,290.03886c-0.6586,0.73243 -0.74719,1.39999 -0.69905,5.28505c0.06298,5.12107 -0.54098,11.11287 -1.66103,16.46975c-1.00774,4.81587 -2.10338,12.42075 -2.07627,14.40775c0.02334,1.73735 1.09713,3.18972 2.34604,3.17089c1.1901,-0.01794 2.27746,-1.50494 2.25367,-3.08263c-0.02903,-1.92556 1.23243,-10.54816 2.13079,-14.56619c1.00501,-4.49347 1.68608,-11.53743 1.6124,-16.67573c-0.05187,-3.69158 -0.16132,-4.34592 -0.83882,-5.05514c-0.42886,-0.44894 -1.12483,-0.81095 -1.54682,-0.80459c-0.42104,0.00635 -1.10578,0.38918 -1.52091,0.85084z" data-paper-data="{&quot;wickUUID&quot;:&quot;994fb614-d853-4882-9a5b-4057c8de5c8e&quot;,&quot;wickType&quot;:&quot;path&quot;,&quot;originalStyle&quot;:{&quot;strokeColor&quot;:null,&quot;fillColor&quot;:[&quot;Color&quot;,0,0,0],&quot;strokeWidth&quot;:1}}" id="994fb614-d853-4882-9a5b-4057c8de5c8e" fill="#000000"/><path d="M360.9077,275.439c-1.51992,1.94186 -3.04038,2.52012 -4.68623,1.78118c-1.22289,-0.54771 -2.90547,0.43032 -3.19775,1.85938c-0.64006,3.1302 5.7788,5.46858 9.49808,3.45985c4.26692,-2.30601 5.87659,-6.43138 3.27715,-8.40303c-1.69014,-1.28196 -3.18006,-0.88555 -4.89125,1.30262z" data-paper-data="{&quot;wickUUID&quot;:&quot;86b36df0-b409-4619-94e4-4983477fe010&quot;,&quot;wickType&quot;:&quot;path&quot;,&quot;originalStyle&quot;:{&quot;strokeColor&quot;:null,&quot;fillColor&quot;:[&quot;Color&quot;,0,0,0],&quot;strokeWidth&quot;:1}}" id="86b36df0-b409-4619-94e4-4983477fe010" fill="#000000"/><path d="M371.3151,272.97026c-1.04779,1.38141 -0.85283,3.48444 0.4377,4.73044c0.50142,0.48327 1.77419,1.19572 2.82853,1.58186c1.76119,0.64537 2.05141,0.64185 3.58929,-0.04478c2.54229,-1.13446 4.16091,-2.34292 4.86056,-3.62807c0.56324,-1.03627 0.55523,-1.27844 -0.07275,-2.23489c-0.84442,-1.28304 -2.55602,-1.39823 -3.86427,-0.25964c-1.23152,1.07254 -1.5828,1.04306 -3.55165,-0.29853c-2.05916,-1.40388 -3.0745,-1.36639 -4.22741,0.15361z" data-paper-data="{&quot;wickUUID&quot;:&quot;ee106089-d7f3-495e-af3b-61faf55a7f1d&quot;,&quot;wickType&quot;:&quot;path&quot;,&quot;originalStyle&quot;:{&quot;strokeColor&quot;:null,&quot;fillColor&quot;:[&quot;Color&quot;,0,0,0],&quot;strokeWidth&quot;:1}}" id="ee106089-d7f3-495e-af3b-61faf55a7f1d" fill="#000000"/><path d="M395.79448,328.16682c-0.445,0.444 -0.809,1.013 -0.809,1.263c0,0.25 0.709,2.387 1.575,4.75c0.867,2.362 1.882,5.842 2.257,7.731c0.375,1.89 1.051,4.673 1.502,6.184c0.844,2.826 0.814,5.629 -0.106,9.857c-1.242,5.715 -2.52,15.661 -2.188,17.04c0.224,0.934 3.343,4.07 5.393,5.423c1.251,0.826 2.802,0.904 4.384,0.222c2.236,-0.965 4.461,-2.729 4.96,-3.932c1.533,-3.702 -2.723,-8.483 -7.574,-8.508l-1.723,-0.009l0.236,-1.718c0.13,-0.945 0.586,-3.644 1.015,-5.998c1.321,-7.257 1.416,-9.968 0.459,-13.153c-0.46,-1.529 -1.284,-4.781 -1.83,-7.227c-1.132,-5.065 -3.241,-10.849 -4.365,-11.973c-0.984,-0.985 -2.172,-0.967 -3.186,0.048z" data-paper-data="{&quot;wickUUID&quot;:&quot;dfbc4af7-3e22-47f0-b9b6-c44f32ddd286&quot;,&quot;wickType&quot;:&quot;path&quot;,&quot;originalStyle&quot;:{&quot;strokeColor&quot;:null,&quot;fillColor&quot;:[&quot;Color&quot;,0,0,0],&quot;strokeWidth&quot;:1}}" id="dfbc4af7-3e22-47f0-b9b6-c44f32ddd286" fill="#000000"/><path d="M389.88941,276.05577c-0.359,0.294 -0.84,1.247 -1.069,2.119c-0.483,1.841 -3.065,5.649 -5.256,7.753c-2.293,2.201 -5.091,3.756 -9.312,5.176c-3.754,1.262 -3.927,1.291 -5.408,0.912c-0.841,-0.216 -2.648,-1.065 -4.017,-1.887c-2.973,-1.787 -4.006,-2.106 -6.815,-2.102c-2.406,0.003 -3.434,0.398 -4.092,1.571c-0.528,0.941 -0.317,2.518 0.976,7.262c0.457,1.681 0.925,4.534 1.114,6.799c0.462,5.537 0.466,5.488 -0.516,5.923c-1.661,0.735 -2.514,3.761 -2.509,8.9c0.003,2.204 -0.156,3.37 -0.649,4.774c-0.607,1.729 -0.619,1.918 -0.171,2.743c0.265,0.487 0.711,1.312 0.99,1.834c0.356,0.662 1.768,1.732 4.69,3.551c5.648,3.516 6.708,4.008 10.073,4.672c5.745,1.133 11.072,0.689 18.353,-1.532c3.502,-1.068 9.816,-4.823 12.296,-7.313c1.014,-1.018 2.83,-2.726 4.036,-3.797c2.546,-2.261 2.717,-2.679 2.994,-7.35c0.202,-3.407 -0.368,-8.486 -1.283,-11.431c-0.264,-0.85 -0.599,-3.681 -0.757,-6.401c-0.156,-2.682 -0.346,-5.289 -0.422,-5.792c-0.076,-0.503 -0.293,-2.286 -0.481,-3.962c-0.416,-3.692 -0.997,-5.116 -2.742,-6.71c-0.732,-0.669 -2.229,-2.056 -3.326,-3.084c-3.12,-2.921 -5.293,-3.774 -6.697,-2.628zM394.94241,283.95777c1.083,0.951 2.109,1.99 2.279,2.309c0.425,0.793 1.166,7.31 1.482,13.032c0.149,2.692 0.469,5.401 0.745,6.297c0.838,2.726 1.41,7.82 1.194,10.631c-0.197,2.563 -0.207,2.588 -1.449,3.611c-0.687,0.566 -2.222,1.972 -3.409,3.124c-2.793,2.708 -7.741,5.782 -11.099,6.894c-3.869,1.281 -9.145,2.132 -11.737,1.892c-4.055,-0.375 -6.549,-0.996 -8.49,-2.117c-2.112,-1.218 -7.26,-4.372 -7.454,-4.567c-0.07,-0.07 0.094,-0.777 0.364,-1.57c0.339,-0.995 0.493,-2.535 0.496,-4.97c0.003,-1.94 0.129,-3.724 0.282,-3.965c0.232,-0.367 0.674,-0.282 2.758,0.534c1.365,0.534 2.785,0.971 3.156,0.971c1.689,0 2.996,-2.061 2.328,-3.672c-0.415,-1.004 -1.123,-1.454 -3.517,-2.236l-1.542,-0.503l-0.385,-5.254c-0.269,-3.661 -0.625,-6.153 -1.176,-8.225c-0.434,-1.635 -0.71,-3.053 -0.612,-3.15c0.265,-0.265 2.596,0.857 4.495,2.163c2.726,1.876 6.276,2.403 9.625,1.431c8.793,-2.555 13.138,-5.438 17.397,-11.547c1.089,-1.563 2.053,-2.842 2.14,-2.842c0.088,0 1.045,0.778 2.129,1.729z" data-paper-data="{&quot;wickUUID&quot;:&quot;435aa414-b7bb-4c3f-bcf0-6df6a104401f&quot;,&quot;wickType&quot;:&quot;path&quot;,&quot;originalStyle&quot;:{&quot;strokeColor&quot;:null,&quot;fillColor&quot;:[&quot;Color&quot;,0,0,0],&quot;strokeWidth&quot;:1}}" fill="#000000"/></g><g data-paper-data="{&quot;wickUUID&quot;:&quot;99244c09-8c40-482d-b781-65d556971edc&quot;,&quot;wickType&quot;:&quot;clipsandpaths&quot;}" fill="none" fill-rule="nonzero" stroke="none" stroke-width="1" stroke-linecap="butt" stroke-linejoin="miter" stroke-miterlimit="10" stroke-dasharray="" stroke-dashoffset="0" font-family="sans-serif" font-weight="normal" font-size="12" text-anchor="start" style="mix-blend-mode: normal"/><g fill="none" fill-rule="nonzero" stroke="none" stroke-width="1" stroke-linecap="butt" stroke-linejoin="miter" stroke-miterlimit="10" stroke-dasharray="" stroke-dashoffset="0" font-family="sans-serif" font-weight="normal" font-size="12" text-anchor="start" style="mix-blend-mode: normal"/><g id="wick_project_gui" fill="none" fill-rule="nonzero" stroke="none" stroke-width="1" stroke-linecap="butt" stroke-linejoin="miter" stroke-miterlimit="10" stroke-dasharray="" stroke-dashoffset="0" font-family="sans-serif" font-weight="normal" font-size="12" text-anchor="start" style="mix-blend-mode: normal"/></g></svg>