<svg version="1.1" xmlns="http://www.w3.org/2000/svg" xmlns:xlink="http://www.w3.org/1999/xlink" width="1260" height="594" viewBox="0,0,1260,594"><g transform="translate(-116.05071,-228.03381) scale(1.93347,1.93347)"><g id="wick_project_bg" fill-opacity="0" fill="#ffffff" fill-rule="nonzero" stroke="none" stroke-width="1" stroke-linecap="butt" stroke-linejoin="miter" stroke-miterlimit="10" stroke-dasharray="" stroke-dashoffset="0" font-family="none" font-weight="none" font-size="none" text-anchor="none" style="mix-blend-mode: normal"><rect x="0" y="0" width="720" height="480"/></g><g data-paper-data="{&quot;wickUUID&quot;:&quot;5040726a-e09b-488e-a4b1-356833f6cd32&quot;,&quot;wickType&quot;:&quot;clipsandpaths&quot;}" fill="none" fill-rule="evenodd" stroke="none" stroke-width="1" stroke-linecap="butt" stroke-linejoin="miter" stroke-miterlimit="10" stroke-dasharray="" stroke-dashoffset="0" font-family="none" font-weight="none" font-size="none" text-anchor="none" style="mix-blend-mode: normal"><path d="M392.40484,192.32565c-0.673,1.146 -3.72148,6.94435 -6.75815,12.85702c-3.037,5.91233 -5.86505,11.14047 -6.39405,11.78214c-1.12333,1.36267 -1.19648,1.56356 -2.25448,0.50556c-0.80567,-0.80567 -0.6476,-1.2246 0.0484,-4.5906l0.52674,-2.71002l-1.23912,-1.55945c-1.28233,-1.37 -9.15529,-7.78416 -9.51329,-7.78416c-0.15733,0 -2.87329,2.84832 -5.04462,5.91932c-2.17133,3.071 -5.91294,8.21418 -8.30894,11.42251c-2.39633,3.20833 -4.68502,6.40951 -4.99302,6.95951c-0.94033,1.67733 -2.45189,5.8232 -4.72822,12.9812c-3.33967,10.502 -3.42396,10.94585 -2.70263,13.59518c0.12233,0.44933 2.06149,0.62936 3.33082,-1.17764c0.92733,-1.321 2.68138,-3.41314 3.98471,-4.73647c2.024,-2.05467 2.68929,-2.52818 6.00162,-4.13118c4.99933,-2.41967 7.83929,-3.14857 12.26162,-3.14857c2.65267,0 3.50799,0.07166 5.75766,0.72366c8.48233,2.458 12.6278,5.66648 15.97147,12.44348c2.40567,4.87633 2.91079,7.3183 2.89879,12.6093c-0.00533,2.38333 -0.17175,4.89983 -0.36242,5.81616c-0.191,0.91667 0.63115,2.62989 0.69582,2.69489c0.065,0.065 1.72236,-0.96312 3.24636,-2.14312c4.76533,-3.68933 11.05505,-7.30188 15.54505,-8.92855l2.52521,-1.23576l-0.17326,-5.09784c-0.34533,-7.64367 -2.69931,-20.99062 -3.87131,-21.96829c-0.32967,-0.275 -2.18834,-1.93947 -3.77634,-3.17847l-2.71915,-2.07535l0.15279,-1.24987c0,-1.002 0.27817,-3.15137 0.62784,-4.85237c0.35,-1.701 0.86663,-4.26136 1.1723,-5.79569c0.43933,-2.207 3.58492,-12.9279 4.64592,-15.57657c0.37433,-0.935 -11.99088,-10.77458 -13.55988,-10.77458c-0.41467,0 -2.18291,1.02362 -2.99424,2.40462z" data-paper-data="{&quot;wickUUID&quot;:&quot;1d50aebb-d7d9-4149-859d-0c8c8893ff85&quot;,&quot;wickType&quot;:&quot;path&quot;,&quot;originalStyle&quot;:{&quot;strokeColor&quot;:null,&quot;fillColor&quot;:[&quot;Color&quot;,1,0.50196,0],&quot;strokeWidth&quot;:1}}" id="1d50aebb-d7d9-4149-859d-0c8c8893ff85" fill="#ff8000"/><path d="M391.00922,292.37223c0.45567,17.78133 1.24362,33.54556 1.69962,34.04489c0.076,0.08333 2.44533,-0.22272 3.52066,-1.31439l2.18748,-2.36352l-0.26607,-3.97424c-0.16367,-2.01667 -0.53345,-6.57966 -0.81245,-10.06299c-0.79733,-9.95233 -2.29567,-17.80011 -4.20167,-22.00411l-2.30064,-1.26703z" data-paper-data="{&quot;wickUUID&quot;:&quot;51559d1b-e310-4861-a433-74381c6e1520&quot;,&quot;wickType&quot;:&quot;path&quot;,&quot;originalStyle&quot;:{&quot;strokeColor&quot;:null,&quot;fillColor&quot;:[&quot;Color&quot;,0.50196,0,1],&quot;strokeWidth&quot;:1}}" id="51559d1b-e310-4861-a433-74381c6e1520" fill="#8000ff"/><path d="M382.7881,285.34424c-2.97733,3.02133 -7.20955,6.2729 -8.16888,6.2729c-0.686,0 -4.3019,1.59011 -5.18023,2.28111c-0.63767,0.50167 -0.9326,0.59645 -3.0876,0.59045c-3.09067,-0.00833 -4.79493,-0.62514 -6.6286,-2.36914l-1.40175,-1.13413l-0.69205,1.99016c0.72467,3.529 2.5649,14.45835 2.5649,15.26002c0,1.05133 1.22401,2.15178 3.55268,2.92045c2.849,0.94033 3.82124,2.02463 2.13691,3.6073c-1.11133,1.04367 -1.94397,0.59809 -4.54464,-0.71091c-1.296,-0.65233 -3.05566,-0.62477 -3.12599,-0.41444c-0.06567,0.196 0.00132,2.19779 0.34999,3.75612c0.60167,2.691 0.60521,2.83321 0.08088,5.00221l-0.54799,2.43865l1.38972,1.64921c1.15167,1.217 8.81266,4.99432 12.14699,5.99199c2.23733,0.66933 3.0317,0.73848 5.7227,0.37081c3.83367,-0.524 7.26636,-1.28297 9.46869,-2.10064l2.38067,-1.19279l-0.17335,-3.90696c-0.12333,-1.95 -0.45259,-5.92345 -0.73326,-8.85678c-0.30433,-3.17967 -0.59789,-11.11151 -0.72889,-19.67218l-0.25571,-14.58241z" data-paper-data="{&quot;wickUUID&quot;:&quot;15dadbb7-1786-4e50-8daa-a401f3c9da1f&quot;,&quot;wickType&quot;:&quot;path&quot;,&quot;originalStyle&quot;:{&quot;strokeColor&quot;:null,&quot;fillColor&quot;:[&quot;Color&quot;,0.50196,0,1],&quot;strokeWidth&quot;:1}}" id="15dadbb7-1786-4e50-8daa-a401f3c9da1f" fill="#8000ff"/><path d="M361.51744,242.70045c-3.289,0.973 -7.34594,2.82366 -9.18494,4.18033c-0.75567,0.55767 -2.78304,2.82338 -4.09737,4.53505c-3.378,4.39867 -3.55908,5.21093 -3.31441,14.37726c0.216,8.07867 0.7358,11.25824 2.2078,13.96257c1.07333,1.97233 3.77405,4.09807 7.45405,5.66407l2.84298,1.14959l1.16454,-1.05853c1.156,-1.26567 1.89976,-1.43744 2.94209,-0.32811c0.56467,0.60133 0.41015,0.8811 0.41015,2.3261c0,2.22433 0.72691,2.95533 2.98424,3.17233c1.45133,0.13967 2.56132,-0.01823 2.77232,-0.68323c0.12967,-0.40867 0.63272,-1.23979 1.27705,-1.95312c1.30367,-1.443 1.94137,-1.53425 3.44537,-0.64592c0.77267,0.45633 1.58132,0.2733 2.36299,-0.05103c2.55433,-1.06067 9.46679,-8.42065 10.78846,-11.48432c0.284,-0.65833 1.05264,-3.45052 1.51164,-5.65052c1.03567,-4.96667 0.89133,-8.93006 -0.41334,-12.88206c-1.65033,-4.99833 -3.94958,-8.6598 -6.65725,-10.70413c-2.98767,-2.25533 -10.3948,-4.81671 -13.90047,-4.77338c-0.789,0.00967 -3.11923,0.41005 -4.5959,0.84705zM373.30313,273.37467c1.61767,1.25533 2.01389,1.34474 3.25522,0.63507c1.16967,-0.66867 1.36023,-1.48601 2.38056,-0.68334c2.01433,1.58433 0.88516,3.42768 -2.94984,4.87935c-2.461,0.93167 -2.48352,0.95394 -4.26585,0.05961c-2.99,-1.50067 -3.76629,-2.64406 -2.71762,-4.85406c1.16067,-2.446 1.7352,-2.02596 4.29753,-0.03663zM362.42096,272.80666c2.17233,2.17233 1.13671,4.31375 -2.73962,6.59842c-1.23533,0.72833 -1.08719,0.56922 -3.03219,0.56022c-2.69,-0.01267 -4.07308,-0.5413 -5.50408,-2.24197c-1.10633,-1.31467 -1.15334,-1.21244 -0.05834,-2.30744c0.89467,-0.89467 0.51456,-0.69878 3.92356,-0.05078c0.83267,0.15833 1.37033,-0.04728 2.714,-1.07361c3.27467,-2.50133 3.05967,-3.12184 4.69667,-1.48484z" data-paper-data="{&quot;wickUUID&quot;:&quot;b80d3bbc-bc96-49d1-aef0-61b849ea0187&quot;,&quot;wickType&quot;:&quot;path&quot;,&quot;originalStyle&quot;:{&quot;strokeColor&quot;:null,&quot;fillColor&quot;:[&quot;Color&quot;,1,1,1],&quot;strokeWidth&quot;:1}}" id="b80d3bbc-bc96-49d1-aef0-61b849ea0187" fill="#ffffff"/><path d="M346.84309,331.11102c-0.51,0.27633 -1.79079,1.38163 -2.43446,2.0603c-1.161,1.22467 -1.28249,1.72893 -1.08016,3.9966c0.27267,3.06 0.90326,4.22234 1.79093,3.89034c0.554,-0.20733 1.88185,-0.91626 2.00852,-2.23259c0.22333,-2.327 0.68346,-3.09366 2.12079,-3.09366c0.829,0 0.05644,-0.32549 0.56077,0.31618c1.046,1.32933 0.94543,4.37724 -0.20157,6.93291c-0.71767,1.59967 -0.80064,2.16501 -0.45864,2.57734c0.23,0.277 2.04408,0.97428 2.18608,0.97428c0.142,0 0.93752,-1.6445 1.62252,-3.41183l1.31243,-3.50573l-1.00566,-3.78444c-1.198,-4.38467 -1.73234,-5.15668 -3.31467,-5.13968c-0.68333,0.00733 -2.59721,0.14365 -3.10688,0.41998z" data-paper-data="{&quot;wickUUID&quot;:&quot;3c1f9c8c-591d-45f0-a58e-47459471d3ee&quot;,&quot;wickType&quot;:&quot;path&quot;,&quot;originalStyle&quot;:{&quot;strokeColor&quot;:null,&quot;fillColor&quot;:[&quot;Color&quot;,0,0,0],&quot;strokeWidth&quot;:1}}" id="3c1f9c8c-591d-45f0-a58e-47459471d3ee" fill="#000000"/><path d="M392.35821,338.34292c-0.309,1.427 -1.11388,5.01559 -1.75855,7.82792c-1.199,5.22967 -1.25598,6.76742 -0.28898,8.04542c0.457,0.604 1.65095,1.3433 1.66095,0.32297c0.023,-2.34333 2.10464,-3.41874 3.56664,-1.58641c0.68933,0.864 0.3581,0.57231 0.1661,4.25631c-0.21633,4.148 0.15456,5.72358 1.28456,6.08225c0.886,0.28133 2.6281,0.02963 2.88577,-1.3437c0.156,-0.833 0.92076,-2.00798 2.23209,-3.41765c2.31033,-2.48367 2.60867,-3.34555 1.85934,-5.00455c-0.391,-0.86533 -0.64878,-2.80015 -0.78478,-5.53682c-0.18033,-3.63033 -0.3914,-4.49347 -1.33907,-6.41814c-1.51567,-3.07867 -3.35674,-5.12186 -5.05841,-5.56153c-0.76867,-0.19833 -2.64894,-0.50614 -2.94994,-0.59314c-0.444,-0.128 -1.02005,0.82274 -1.47572,2.92707z" data-paper-data="{&quot;wickUUID&quot;:&quot;fa456965-242d-4530-93bf-a3ad1ee299dd&quot;,&quot;wickType&quot;:&quot;path&quot;,&quot;originalStyle&quot;:{&quot;strokeColor&quot;:null,&quot;fillColor&quot;:[&quot;Color&quot;,0,0,0],&quot;strokeWidth&quot;:1}}" id="fa456965-242d-4530-93bf-a3ad1ee299dd" fill="#000000"/><path d="M342.02745,364.00114c-3.523,1.141 -5.724,2.377 -6.517,3.659c-1.625,2.63 -0.699,6.755 1.821,8.116c2.996,1.618 4.925,2.114 8.218,2.114c4.287,0.001 6.9,-0.961 9.914,-3.647c3.612,-3.219 3.581,-4.367 -0.187,-6.926c-3.573,-2.426 -10.58,-4.18 -13.249,-3.316z" data-paper-data="{&quot;wickUUID&quot;:&quot;affac1fc-0a63-490f-987b-319d08425bb2&quot;,&quot;wickType&quot;:&quot;path&quot;,&quot;originalStyle&quot;:{&quot;strokeColor&quot;:null,&quot;fillColor&quot;:[&quot;Color&quot;,0,0,0],&quot;strokeWidth&quot;:1}}" id="affac1fc-0a63-490f-987b-319d08425bb2" fill="#000000"/><path d="M358.31289,328.88532c-0.723,0.474 -2.426,4.452 -6.178,14.433l-3.34,8.886l0.456,2.476c0.755,4.097 3.684,14.006 4.558,15.421c0.922,1.492 2.29,2.012 3.538,1.344c1.235,-0.661 1.4,-2.019 0.494,-4.071c-0.836,-1.893 -3.416,-10.854 -3.853,-13.378c-0.208,-1.205 0.301,-2.884 2.939,-9.702c1.755,-4.535 3.674,-9.39 4.265,-10.79c0.948,-2.245 1.013,-2.675 0.554,-3.639c-0.539,-1.128 -2.399,-1.66 -3.433,-0.98z" data-paper-data="{&quot;wickUUID&quot;:&quot;3385380d-9a99-46c1-a700-5fc07eb6c5bf&quot;,&quot;wickType&quot;:&quot;path&quot;,&quot;originalStyle&quot;:{&quot;strokeColor&quot;:null,&quot;fillColor&quot;:[&quot;Color&quot;,0,0,0],&quot;strokeWidth&quot;:1}}" id="3385380d-9a99-46c1-a700-5fc07eb6c5bf" fill="#000000"/><path d="M396.52704,323.75688c-2.067,2.323 -3.204,3.195 -5.988,4.592c-5.03,2.525 -6.821,3.01 -14.965,4.052c-2.157,0.276 -4.364,-0.421 -10.302,-3.252c-4.92,-2.347 -6.126,-3.2 -6.469,-4.573c-0.598,-2.396 -2.691,-3.217 -4.243,-1.665c-0.951,0.951 -0.965,1.105 -0.304,3.328c0.821,2.757 2.948,4.49 9.099,7.412c7.939,3.773 9.008,4.031 14.311,3.456c2.378,-0.258 5.703,-0.822 7.389,-1.253c4.483,-1.146 11.177,-4.57 13.271,-6.787c0.942,-0.997 2.046,-2.108 2.452,-2.469c0.9,-0.797 1.889,-2.611 1.889,-3.465c0,-0.954 -1.496,-2.243 -2.602,-2.243c-0.712,0 -1.694,0.796 -3.538,2.867z" data-paper-data="{&quot;wickUUID&quot;:&quot;ba52d89f-de64-48c0-9151-c7367f9ab5e5&quot;,&quot;wickType&quot;:&quot;path&quot;,&quot;originalStyle&quot;:{&quot;strokeColor&quot;:null,&quot;fillColor&quot;:[&quot;Color&quot;,0,0,0],&quot;strokeWidth&quot;:1}}" id="ba52d89f-de64-48c0-9151-c7367f9ab5e5" fill="#000000"/><path d="M388.51754,275.61258c-0.445,0.444 -0.808,1.127 -0.808,1.517c0,0.389 0.91,2.254 2.023,4.143c3.615,6.138 5.248,11.678 6.482,21.983c0.428,3.584 0.902,9.392 1.052,12.906c0.249,5.828 0.346,6.44 1.107,6.973c1.166,0.817 2.127,0.73 3.14,-0.284c0.839,-0.838 0.86,-1.094 0.627,-7.377c-0.651,-17.57 -3.447,-29.521 -8.82,-37.698c-2.087,-3.177 -3.261,-3.706 -4.803,-2.163z" data-paper-data="{&quot;wickUUID&quot;:&quot;9cef842b-f2d1-44a6-9696-e00359c8bf24&quot;,&quot;wickType&quot;:&quot;path&quot;,&quot;originalStyle&quot;:{&quot;strokeColor&quot;:null,&quot;fillColor&quot;:[&quot;Color&quot;,0,0,0],&quot;strokeWidth&quot;:1}}" id="9cef842b-f2d1-44a6-9696-e00359c8bf24" fill="#000000"/><path d="M358.6244,284.48347c-0.971,0.972 -1.416,3.174 -1.043,5.164c0.431,2.298 3.092,4.741 5.791,5.317c4.565,0.973 7.365,0.097 7.351,-2.301c-0.011,-1.955 -0.532,-2.293 -3.568,-2.318c-1.952,-0.016 -3.122,-0.237 -3.877,-0.731c-0.99,-0.649 -1.058,-0.86 -0.809,-2.52c0.215,-1.433 0.122,-1.978 -0.445,-2.604c-0.915,-1.011 -2.392,-1.014 -3.4,-0.007z" data-paper-data="{&quot;wickUUID&quot;:&quot;8a9567dd-ad23-4160-862e-b061fa3fe359&quot;,&quot;wickType&quot;:&quot;path&quot;,&quot;originalStyle&quot;:{&quot;strokeColor&quot;:null,&quot;fillColor&quot;:[&quot;Color&quot;,0,0,0],&quot;strokeWidth&quot;:1}}" id="8a9567dd-ad23-4160-862e-b061fa3fe359" fill="#000000"/><path d="M360.60712,238.3906c-3.311,0.884 -9.882,4.045 -11.554,5.558c-2.341,2.117 -6.625,7.722 -7.257,9.492c-1.28,3.585 -1.608,10.195 -0.878,17.672c0.582,5.964 0.825,7.176 1.881,9.412c1.463,3.097 4.606,6.377 7.461,7.785c2.566,1.266 8.502,3.473 9.34,3.473c0.934,0 2.236,-1.493 2.236,-2.565c0,-1.404 -0.97,-2.053 -5.625,-3.768c-4.674,-1.721 -7.52,-3.843 -8.972,-6.689c-1.085,-2.126 -1.777,-7.797 -1.767,-14.468c0.012,-8.13 0.177,-8.755 3.344,-12.655c3.493,-4.303 3.725,-4.495 7.699,-6.385c3.737,-1.777 7.394,-2.775 10.206,-2.784c2.315,-0.007 8.615,1.989 11.518,3.65c5.381,3.078 9.544,12.281 8.917,19.71c-0.27,3.202 -1.6,8.897 -2.468,10.564c-0.297,0.571 -1.468,2.095 -2.6,3.387c-2.251,2.565 -2.364,2.9 -1.431,4.232c0.78,1.113 2.953,1.213 4.16,0.191c0.46,-0.389 1.667,-1.79 2.682,-3.114c2.027,-2.644 3.107,-5.586 4.063,-11.069c1.228,-7.041 0.545,-12.182 -2.453,-18.47c-1.454,-3.051 -2.433,-4.468 -4.557,-6.598c-2.965,-2.974 -5.114,-4.174 -10.932,-6.107c-4.38,-1.455 -8.699,-1.606 -13.013,-0.454z" data-paper-data="{&quot;wickUUID&quot;:&quot;62363f49-ec5b-445c-98c2-56ba1d4234d3&quot;,&quot;wickType&quot;:&quot;path&quot;,&quot;originalStyle&quot;:{&quot;strokeColor&quot;:null,&quot;fillColor&quot;:[&quot;Color&quot;,0,0,0],&quot;strokeWidth&quot;:1}}" id="62363f49-ec5b-445c-98c2-56ba1d4234d3" fill="#000000"/><path d="M391.46876,186.37125c-1.934,2.034 -4.017,5.557 -7.21,12.2c-1.611,3.351 -3.196,6.441 -3.522,6.867c-0.564,0.737 -0.805,0.588 -4.918,-3.032c-7.124,-6.269 -9.866,-7.764 -11.616,-6.333c-0.34,0.278 -2.673,3.507 -5.184,7.176c-2.512,3.669 -6.408,9.1 -8.657,12.069c-2.249,2.968 -4.598,6.186 -5.22,7.149c-0.621,0.964 -2.789,6.63 -4.818,12.592c-4.948,14.542 -4.972,15.534 -0.621,25.393c0.884,2.001 1.894,3.866 2.245,4.144c1.455,1.151 3.718,0.047 3.718,-1.813c0,-0.463 -0.566,-2.085 -1.257,-3.607c-2.011,-4.422 -3.19,-8.079 -3.19,-9.89c0,-1.592 6.185,-20.896 7.525,-23.488c0.315,-0.609 1.377,-2.094 2.36,-3.301c2.297,-2.82 9.456,-12.709 12.691,-17.53c1.38,-2.057 2.621,-3.739 2.757,-3.739c0.301,0 4.709,3.638 8,6.603l2.406,2.169l-0.706,3.287c-0.786,3.654 -0.551,4.732 1.123,5.152c1.663,0.417 2.582,-0.535 4.819,-4.994c10.136,-20.2 11.76,-23.13 12.826,-23.132c0.786,0 4.424,2.514 8.41,5.815c1.642,1.359 3.451,2.856 4.019,3.326l1.032,0.854l-2.467,7.433c-1.357,4.089 -2.597,8.616 -2.756,10.062c-0.158,1.445 -0.536,3.446 -0.839,4.446c-0.304,1.001 -0.554,2.838 -0.556,4.083l-0.005,2.263l3.396,2.661l3.396,2.66l0.831,3.566c1.563,6.703 2.553,13.598 2.619,18.244l0.067,4.637l-2.021,0.695c-5.067,1.742 -11.779,5.761 -17.99,10.773c-5.838,4.711 -6.259,5.335 -4.829,7.154c1.344,1.708 2.402,1.391 6.331,-1.897c7.581,-6.344 14.28,-10.35 19.638,-11.746c3.264,-0.85 3.853,-1.267 4.169,-2.95c0.614,-3.273 -1.328,-18.301 -3.645,-28.217c-0.104,-0.445 -0.291,-1.296 -0.416,-1.892c-0.155,-0.739 -1.262,-1.896 -3.482,-3.638c-2.82,-2.215 -3.226,-2.69 -3.046,-3.566c0.114,-0.556 0.484,-2.284 0.822,-3.84c0.338,-1.557 0.618,-3.296 0.622,-3.865c0.004,-0.569 0.984,-3.934 2.179,-7.478c2.936,-8.707 3.298,-10.337 2.612,-11.751c-0.73,-1.503 -12.067,-10.454 -15.093,-11.915c-3.279,-1.584 -4.942,-1.548 -6.549,0.141z" data-paper-data="{&quot;wickUUID&quot;:&quot;7f5d2bd6-d390-4f0b-b9e4-e593222f14e9&quot;,&quot;wickType&quot;:&quot;path&quot;,&quot;originalStyle&quot;:{&quot;strokeColor&quot;:null,&quot;fillColor&quot;:[&quot;Color&quot;,0,0,0],&quot;strokeWidth&quot;:1}}" id="7f5d2bd6-d390-4f0b-b9e4-e593222f14e9" fill="#000000"/><path d="M381.44317,281.35675c-0.445,0.255 -2.22,1.705 -3.944,3.222c-3.182,2.797 -4.246,3.242 -5.152,2.151c-0.277,-0.334 -1.014,-0.607 -1.637,-0.607c-1.281,0 -2.269,1.053 -3.635,3.874c-1.036,2.142 -0.819,3.628 0.629,4.288c0.838,0.382 1.427,0.253 3.76,-0.823c1.522,-0.701 3.033,-1.275 3.359,-1.275c0.969,0 4.506,-2.451 7.427,-5.147c3.029,-2.795 3.47,-4.109 1.826,-5.44c-1.042,-0.844 -1.511,-0.888 -2.633,-0.243z" data-paper-data="{&quot;wickUUID&quot;:&quot;8427d3f3-3bb0-4cc5-8efa-b813ec7bd131&quot;,&quot;wickType&quot;:&quot;path&quot;,&quot;originalStyle&quot;:{&quot;strokeColor&quot;:null,&quot;fillColor&quot;:[&quot;Color&quot;,0,0,0],&quot;strokeWidth&quot;:1}}" id="8427d3f3-3bb0-4cc5-8efa-b813ec7bd131" fill="#000000"/><path d="M387.48361,275.37773c-0.76,0.555 -0.781,1.134 -0.653,17.888c0.073,9.524 0.207,17.679 0.298,18.124c0.225,1.103 1.299,14.299 1.628,20.011c0.288,5.001 0.718,6.064 2.451,6.064c0.522,0 1.312,-0.364 1.757,-0.809c1.037,-1.037 1.032,-2.332 -0.053,-14.755c-0.598,-6.843 -0.93,-14.886 -1.127,-27.288c-0.193,-12.149 -0.426,-17.852 -0.752,-18.448c-0.775,-1.416 -2.244,-1.742 -3.549,-0.787z" data-paper-data="{&quot;wickUUID&quot;:&quot;3201205b-bc7b-41c9-aa78-8b74869796f7&quot;,&quot;wickType&quot;:&quot;path&quot;,&quot;originalStyle&quot;:{&quot;strokeColor&quot;:null,&quot;fillColor&quot;:[&quot;Color&quot;,0,0,0],&quot;strokeWidth&quot;:1}}" id="3201205b-bc7b-41c9-aa78-8b74869796f7" fill="#000000"/><path d="M390.08649,333.42449c-0.935,0.546 -1.428,2.023 -2.36,7.072c-0.452,2.446 -1.187,5.72 -1.632,7.275c-1.083,3.778 -1.006,5.079 0.522,8.883c1.002,2.493 1.615,3.437 2.71,4.178c2.013,1.362 4.19,1.033 5.962,-0.901c1.222,-1.333 1.314,-1.634 1.314,-4.269c0,-2.297 -0.153,-2.99 -0.808,-3.645c-1.528,-1.528 -4.043,-0.507 -4.043,1.64c0,1.715 -0.694,1.463 -1.271,-0.461c-0.388,-1.295 -0.389,-2.015 -0.006,-3.336c0.269,-0.926 1.032,-4.23 1.696,-7.343c0.664,-3.113 1.315,-6.141 1.447,-6.729c0.425,-1.896 -1.792,-3.38 -3.531,-2.364z" data-paper-data="{&quot;wickUUID&quot;:&quot;e29cc510-9f73-488b-b751-39ec797ba719&quot;,&quot;wickType&quot;:&quot;path&quot;,&quot;originalStyle&quot;:{&quot;strokeColor&quot;:null,&quot;fillColor&quot;:[&quot;Color&quot;,0,0,0],&quot;strokeWidth&quot;:1}}" id="e29cc510-9f73-488b-b751-39ec797ba719" fill="#000000"/><path d="M393.63343,332.13945c-0.368,0.407 -0.669,1.32 -0.669,2.03c0,1.414 0.614,1.835 3.314,2.273c1.259,0.204 1.814,0.668 3.528,2.956c2.352,3.139 3.085,5.71 2.663,9.347c-0.225,1.937 -0.124,2.598 0.613,4.012c1.335,2.562 0.997,3.357 -2.826,6.638c-0.474,0.407 -0.824,1.201 -0.824,1.871c0,1.506 -0.88,2.277 -1.948,1.706c-0.923,-0.494 -1.286,-1.296 -1.286,-2.84c0,-2.201 -2.478,-3.211 -4.042,-1.646c-2.155,2.154 -0.005,7.626 3.586,9.131c3.588,1.503 7.435,-0.332 8.352,-3.984c0.137,-0.549 0.761,-1.375 1.385,-1.837c1.555,-1.15 3.251,-4.684 3.251,-6.775c0,-0.929 -0.273,-2.463 -0.606,-3.408c-0.334,-0.945 -0.607,-2.757 -0.607,-4.026c0,-3.559 -0.809,-6.898 -2.16,-8.91c-2.214,-3.3 -4.829,-6.102 -6.245,-6.694c-1.99,-0.831 -4.654,-0.755 -5.479,0.156z" data-paper-data="{&quot;wickUUID&quot;:&quot;367df307-163b-46e0-90ee-5c0049a254b3&quot;,&quot;wickType&quot;:&quot;path&quot;,&quot;originalStyle&quot;:{&quot;strokeColor&quot;:null,&quot;fillColor&quot;:[&quot;Color&quot;,0,0,0],&quot;strokeWidth&quot;:1}}" id="367df307-163b-46e0-90ee-5c0049a254b3" fill="#000000"/><path d="M340.72033,330.62066c-0.386,0.225 -0.997,1.424 -1.358,2.666c-0.612,2.107 -0.608,2.514 0.066,6.095c0.762,4.048 1.742,6.015 3.42,6.864c2.552,1.291 6.006,-0.142 7.526,-3.122c1.241,-2.431 1.312,-6.106 0.143,-7.276c-1.862,-1.862 -4.043,-0.362 -4.043,2.78c0,1.93 -0.733,3.224 -1.542,2.724c-0.648,-0.401 -1.39,-6.174 -0.909,-7.073c1.348,-2.52 -0.929,-5.041 -3.303,-3.658z" data-paper-data="{&quot;wickUUID&quot;:&quot;650fc731-60ea-43ec-9915-3a46d839eaea&quot;,&quot;wickType&quot;:&quot;path&quot;,&quot;originalStyle&quot;:{&quot;strokeColor&quot;:null,&quot;fillColor&quot;:[&quot;Color&quot;,0,0,0],&quot;strokeWidth&quot;:1}}" id="650fc731-60ea-43ec-9915-3a46d839eaea" fill="#000000"/><path d="M346.02912,326.75004c-2.618,0.841 -5.619,4.065 -5.619,6.039c0,1.064 0.25,1.586 0.991,2.072c1.324,0.867 2.191,0.52 3.949,-1.584c1.088,-1.301 1.857,-1.824 2.944,-2c2.791,-0.453 3.212,-0.001 4.288,4.609c0.941,4.037 1.915,6.025 2.949,6.025c0.394,0 0.37,0.452 -0.107,2.007c-0.514,1.673 -0.81,2.048 -1.782,2.262c-0.642,0.141 -1.776,0.142 -2.52,0.002c-1.214,-0.227 -1.45,-0.507 -2.297,-2.726c-1.063,-2.786 -1.742,-3.402 -3.313,-3.008c-1.67,0.419 -2.075,1.761 -1.313,4.346c1.502,5.088 2.985,6.213 8.19,6.213c3.251,0 3.872,-0.116 4.869,-0.906c0.628,-0.498 1.709,-1.161 2.402,-1.473c1.866,-0.839 3.331,-3.02 3.825,-5.695c0.684,-3.696 -0.425,-5.371 -3.872,-5.85l-1.617,-0.225l-0.83,-3.234c-1.215,-4.738 -1.277,-4.862 -2.996,-6.054c-1.959,-1.357 -5.39,-1.703 -8.141,-0.82z" data-paper-data="{&quot;wickUUID&quot;:&quot;8588b57e-c089-48b4-b417-a3ee6741be84&quot;,&quot;wickType&quot;:&quot;path&quot;,&quot;originalStyle&quot;:{&quot;strokeColor&quot;:null,&quot;fillColor&quot;:[&quot;Color&quot;,0,0,0],&quot;strokeWidth&quot;:1}}" id="8588b57e-c089-48b4-b417-a3ee6741be84" fill="#000000"/><path d="M354.15512,286.80833c-1.669,0.596 -2.098,3.326 -1.004,6.389c0.318,0.89 0.779,2.982 1.025,4.649c0.245,1.668 0.802,4.841 1.237,7.052l0.79,4.02l-1.428,2.074c-1.66,2.41 -1.716,3.004 -0.598,6.323c0.663,1.969 0.744,2.71 0.404,3.686c-0.778,2.231 -0.543,4.24 0.582,4.977c1.179,0.773 2.839,0.503 3.361,-0.546c0.192,-0.386 0.593,-1.761 0.891,-3.055c0.474,-2.056 0.458,-2.706 -0.129,-5.15l-0.671,-2.798l1.206,-1.902c1.441,-2.272 1.503,-3.518 0.433,-8.706c-0.425,-2.063 -0.987,-5.297 -1.249,-7.186c-0.261,-1.889 -0.732,-4.048 -1.045,-4.799c-0.314,-0.751 -0.571,-1.875 -0.571,-2.499c0,-0.744 -0.366,-1.423 -1.065,-1.972c-1.121,-0.882 -1.202,-0.903 -2.169,-0.557z" data-paper-data="{&quot;wickUUID&quot;:&quot;7079ac9e-4119-42ff-b650-11974dec9f85&quot;,&quot;wickType&quot;:&quot;path&quot;,&quot;originalStyle&quot;:{&quot;strokeColor&quot;:null,&quot;fillColor&quot;:[&quot;Color&quot;,0,0,0],&quot;strokeWidth&quot;:1}}" id="7079ac9e-4119-42ff-b650-11974dec9f85" fill="#000000"/><path d="M358.01825,309.66033c-0.942,1.346 -0.77,2.252 0.683,3.579c1.32,1.206 4.937,2.799 6.355,2.799c0.42,0 1.144,-0.483 1.609,-1.074c1.372,-1.744 0.469,-3.392 -2.272,-4.149c-0.727,-0.201 -1.855,-0.745 -2.507,-1.209c-1.55,-1.104 -3.071,-1.083 -3.868,0.054z" data-paper-data="{&quot;wickUUID&quot;:&quot;b76aedb0-6109-4c8b-8486-392497745762&quot;,&quot;wickType&quot;:&quot;path&quot;,&quot;originalStyle&quot;:{&quot;strokeColor&quot;:null,&quot;fillColor&quot;:[&quot;Color&quot;,0,0,0],&quot;strokeWidth&quot;:1}}" id="b76aedb0-6109-4c8b-8486-392497745762" fill="#000000"/><path d="M352.9421,289.76191c-0.706,0.706 -0.81,1.357 -0.821,5.154c-0.015,5.005 -0.747,10.851 -2.013,16.069c-1.139,4.691 -2.415,12.106 -2.418,14.048c-0.003,1.698 1.106,3.133 2.423,3.133c1.255,0 2.425,-1.437 2.425,-2.979c0,-1.882 1.467,-10.289 2.478,-14.202c1.131,-4.376 1.961,-11.249 1.965,-16.271c0.004,-3.608 -0.101,-4.249 -0.804,-4.952c-0.445,-0.445 -1.173,-0.809 -1.618,-0.809c-0.444,0 -1.172,0.364 -1.617,0.809z" data-paper-data="{&quot;wickUUID&quot;:&quot;a777514e-6804-4f9c-b06c-cabd1f942199&quot;,&quot;wickType&quot;:&quot;path&quot;,&quot;originalStyle&quot;:{&quot;strokeColor&quot;:null,&quot;fillColor&quot;:[&quot;Color&quot;,0,0,0],&quot;strokeWidth&quot;:1}}" id="a777514e-6804-4f9c-b06c-cabd1f942199" fill="#000000"/><path d="M358.24642,273.18711c-1.77,1.717 -3.355,2.083 -4.885,1.127c-1.137,-0.709 -2.937,0.031 -3.421,1.407c-1.06,3.014 4.981,6.204 8.939,4.72c4.541,-1.704 6.697,-5.572 4.39,-7.879c-1.5,-1.5 -3.03,-1.31 -5.023,0.625z" data-paper-data="{&quot;wickUUID&quot;:&quot;aaaac1ef-6fad-4398-b03e-c365651a630b&quot;,&quot;wickType&quot;:&quot;path&quot;,&quot;originalStyle&quot;:{&quot;strokeColor&quot;:null,&quot;fillColor&quot;:[&quot;Color&quot;,0,0,0],&quot;strokeWidth&quot;:1}}" id="aaaac1ef-6fad-4398-b03e-c365651a630b" fill="#000000"/><path d="M368.89294,272.15737c-1.226,1.226 -1.319,3.336 -0.21,4.746c0.431,0.547 1.595,1.426 2.587,1.952c1.657,0.879 1.945,0.915 3.562,0.444c2.673,-0.778 4.441,-1.755 5.309,-2.933c0.699,-0.95 0.724,-1.191 0.232,-2.224c-0.662,-1.386 -2.342,-1.733 -3.793,-0.783c-1.366,0.895 -1.71,0.818 -3.478,-0.779c-1.849,-1.671 -2.86,-1.772 -4.209,-0.423z" data-paper-data="{&quot;wickUUID&quot;:&quot;62e2f17f-aac5-4f51-8a90-6e885ff35666&quot;,&quot;wickType&quot;:&quot;path&quot;,&quot;originalStyle&quot;:{&quot;strokeColor&quot;:null,&quot;fillColor&quot;:[&quot;Color&quot;,0,0,0],&quot;strokeWidth&quot;:1}}" id="62e2f17f-aac5-4f51-8a90-6e885ff35666" fill="#000000"/><path d="M395.79448,328.16682c-0.445,0.444 -0.809,1.013 -0.809,1.263c0,0.25 0.709,2.387 1.575,4.75c0.867,2.362 1.882,5.842 2.257,7.731c0.375,1.89 1.051,4.673 1.502,6.184c0.844,2.826 0.814,5.629 -0.106,9.857c-1.242,5.715 -2.52,15.661 -2.188,17.04c0.224,0.934 3.343,4.07 5.393,5.423c1.251,0.826 2.802,0.904 4.384,0.222c2.236,-0.965 4.461,-2.729 4.96,-3.932c1.533,-3.702 -2.723,-8.483 -7.574,-8.508l-1.723,-0.009l0.236,-1.718c0.13,-0.945 0.586,-3.644 1.015,-5.998c1.321,-7.257 1.416,-9.968 0.459,-13.153c-0.46,-1.529 -1.284,-4.781 -1.83,-7.227c-1.132,-5.065 -3.241,-10.849 -4.365,-11.973c-0.984,-0.985 -2.172,-0.967 -3.186,0.048z" data-paper-data="{&quot;wickUUID&quot;:&quot;45cd0a4b-4855-458a-a6db-4c0c6188a564&quot;,&quot;wickType&quot;:&quot;path&quot;,&quot;originalStyle&quot;:{&quot;strokeColor&quot;:null,&quot;fillColor&quot;:[&quot;Color&quot;,0,0,0],&quot;strokeWidth&quot;:1}}" id="45cd0a4b-4855-458a-a6db-4c0c6188a564" fill="#000000"/></g><g fill="none" fill-rule="nonzero" stroke="none" stroke-width="1" stroke-linecap="butt" stroke-linejoin="miter" stroke-miterlimit="10" stroke-dasharray="" stroke-dashoffset="0" font-family="sans-serif" font-weight="normal" font-size="12" text-anchor="start" style="mix-blend-mode: normal"/><g id="wick_project_gui" fill="none" fill-rule="nonzero" stroke="none" stroke-width="1" stroke-linecap="butt" stroke-linejoin="miter" stroke-miterlimit="10" stroke-dasharray="" stroke-dashoffset="0" font-family="sans-serif" font-weight="normal" font-size="12" text-anchor="start" style="mix-blend-mode: normal"/></g></svg>