<svg version="1.1" xmlns="http://www.w3.org/2000/svg" xmlns:xlink="http://www.w3.org/1999/xlink" width="1260" height="594" viewBox="0,0,1260,594"><g transform="translate(230.20498,30.46998) scale(1.11054,1.11054)"><g id="wick_project_bg" fill-opacity="0" fill="#ffffff" fill-rule="nonzero" stroke="none" stroke-width="1" stroke-linecap="butt" stroke-linejoin="miter" stroke-miterlimit="10" stroke-dasharray="" stroke-dashoffset="0" font-family="none" font-weight="none" font-size="none" text-anchor="none" style="mix-blend-mode: normal"><rect x="0" y="0" width="720" height="480"/></g><g data-paper-data="{&quot;wickUUID&quot;:&quot;04ced940-ff76-43e1-91bf-93bf926100ac&quot;,&quot;wickType&quot;:&quot;clipsandpaths&quot;}" fill="none" fill-rule="evenodd" stroke="none" stroke-width="1" stroke-linecap="butt" stroke-linejoin="miter" stroke-miterlimit="10" stroke-dasharray="" stroke-dashoffset="0" font-family="none" font-weight="none" font-size="none" text-anchor="none" style="mix-blend-mode: normal"><path d="M393.05766,286.51213c-1.28333,0.32567 -3.93497,0.89995 -5.3903,1.28728c-1.45533,0.38767 -3.26825,0.71635 -4.01292,0.72735c-1.18133,0.017 -1.74032,1.42447 -1.19065,1.7708c0.34633,0.21833 1.68338,1.22994 2.71205,2.01527c2.96567,2.26367 3.18726,2.39524 6.63826,3.94957l3.55061,1.56931l1.22709,-1.65267c0.137,-0.502 0.31028,-3.19372 0.43095,-5.53105c0.25333,-4.899 -0.03076,-5.13419 -3.96509,-4.13586z" data-paper-data="{&quot;wickUUID&quot;:&quot;cd6b54f0-d71c-4eb4-8490-6aab6805fb1c&quot;,&quot;wickType&quot;:&quot;path&quot;,&quot;originalStyle&quot;:{&quot;strokeColor&quot;:null,&quot;fillColor&quot;:[&quot;Color&quot;,0.50196,0,1],&quot;strokeWidth&quot;:1}}" id="cd6b54f0-d71c-4eb4-8490-6aab6805fb1c" fill="#8000ff"/><path d="M416.20042,176.21704c-7.19702,2.76279 -14.47858,6.17932 -22.12399,10.37533c-5.94774,3.26426 -7.4734,4.44777 -9.07266,7.10079c-1.53995,2.55435 -1.72127,2.90938 -3.26501,2.95188c-1.20287,0.03312 -1.52234,-0.63259 -1.55944,-1.98008c-0.01374,-0.49914 0.41769,-1.43131 0.93543,-2.52597c1.09031,-2.30488 1.11856,-2.96808 0.34361,-4.76043c-0.38747,-0.89568 -1.71311,-2.08965 -2.261,-2.21129c-1.03605,-0.2299 -9.81228,1.60316 -11.01314,2.26679c-1.21861,0.67312 -2.14445,2.14059 -12.2101,19.98671c-4.78085,8.47646 -9.94598,17.48172 -11.47059,19.99963c-1.52495,2.51792 -3.17531,5.4561 -3.56543,6.28082c-0.75404,1.59569 -0.75201,2.90283 0.14956,6.5564l1.77377,2.36964l3.12416,-4.34523c1.61755,-2.29139 3.92835,-5.26154 5.24137,-6.72023c2.32801,-2.58705 2.15062,-2.48596 5.25114,-3.57538c5.13363,-1.80397 8.48539,-2.49291 12.74132,-2.61476c4.67509,-0.13372 13.06303,0.34306 15.68337,0.94917c6.95725,1.60913 12.06333,6.42452 17.32322,16.27949c3.07227,5.75663 4.24092,9.1903 4.74353,13.60214c0.22911,2.01113 0.48369,4.18175 0.59875,4.98156l1.55265,2.03456l1.8901,-3.0423c7.06538,-11.85562 6.61378,-11.26461 8.98132,-12.53725c2.6485,-1.42343 6.68888,-3.20442 10.7833,-4.78338c3.46157,-1.33511 3.49521,-1.35477 4.36418,-6.85444c0.65654,-4.15597 -0.03879,-5.13835 -1.89633,-5.08421c-2.94941,0.08621 -7.76858,0.85016 -14.01179,2.28486c-5.76142,1.32374 -6.04134,1.39205 -6.89497,0.94504c-0.77648,-0.40645 -0.22449,0.238 -0.34952,-1.13008c-0.18978,-2.07256 0.27681,-3.63619 2.95591,-9.88262c2.8273,-6.59264 5.37147,-11.03608 8.55771,-14.95893l2.6307,-3.27339l-0.17693,-2.48032c-0.13526,-1.12203 -0.46301,-4.17062 -0.72258,-6.73112c-0.71808,-7.07825 -2.2798,-16.27705 -3.23235,-19.04521c-0.22578,-0.65503 -1.45138,-1.74198 -1.79145,-1.72795c-0.3061,0.01243 -2.28371,0.63806 -4.00782,1.29976z" data-paper-data="{&quot;wickUUID&quot;:&quot;814e66f4-bbdc-49d3-82a1-9e8d0b34c50c&quot;,&quot;wickType&quot;:&quot;path&quot;,&quot;originalStyle&quot;:{&quot;strokeColor&quot;:null,&quot;fillColor&quot;:[&quot;Color&quot;,1,0.50196,0],&quot;strokeWidth&quot;:1}}" id="814e66f4-bbdc-49d3-82a1-9e8d0b34c50c" fill="#ff8000"/><path d="M393.94542,274.38493c0.00299,0.10863 0.42217,2.09254 1.07306,3.19404l1.42842,2.27603l1.86087,-1.41978c0.7257,-1.09906 0.41117,-2.80906 -0.48586,-3.35491c-0.85531,-0.52033 -3.88484,-0.9986 -3.87649,-0.69538z" data-paper-data="{&quot;wickUUID&quot;:&quot;489b505a-ef88-436f-a532-d81dd8d777d9&quot;,&quot;wickType&quot;:&quot;path&quot;,&quot;originalStyle&quot;:{&quot;strokeColor&quot;:null,&quot;fillColor&quot;:[&quot;Color&quot;,1,1,1],&quot;strokeWidth&quot;:1}}" id="489b505a-ef88-436f-a532-d81dd8d777d9" fill="#ffffff"/><path d="M385.86443,274.68821c-1.645,0.65219 -1.7817,1.42354 -0.80765,5.02109l1.10058,3.02039l2.97232,-0.92149c1.24686,-0.50651 2.74608,-1.63361 2.74271,-1.75589c-0.00336,-0.12195 -0.76545,-1.96527 -1.58458,-3.39994l-1.74214,-2.89288z" data-paper-data="{&quot;wickUUID&quot;:&quot;c5cbbc21-1406-4742-8448-bf34b6942dbb&quot;,&quot;wickType&quot;:&quot;path&quot;,&quot;originalStyle&quot;:{&quot;strokeColor&quot;:null,&quot;fillColor&quot;:[&quot;Color&quot;,1,1,1],&quot;strokeWidth&quot;:1}}" id="c5cbbc21-1406-4742-8448-bf34b6942dbb" fill="#ffffff"/><path d="M378.35696,279.15984c-1.45138,2.11342 -1.85922,4.25306 -1.25629,4.6176c0.36046,0.21783 4.48183,0.18618 4.82757,-0.08244c0.03004,-0.02317 0.0075,-1.97882 -0.34422,-3.34466l-1.00286,-2.99437z" data-paper-data="{&quot;wickUUID&quot;:&quot;ccbff5c9-820a-4147-8d1c-5cb58c349227&quot;,&quot;wickType&quot;:&quot;path&quot;,&quot;originalStyle&quot;:{&quot;strokeColor&quot;:null,&quot;fillColor&quot;:[&quot;Color&quot;,1,1,1],&quot;strokeWidth&quot;:1}}" id="ccbff5c9-820a-4147-8d1c-5cb58c349227" fill="#ffffff"/><path d="M365.39343,229.26103c-3.58751,0.685 -8.45779,2.11689 -9.75258,2.82079c-1.11146,0.60415 -5.3534,6.04363 -8.18642,10.53897c-1.28856,2.04424 -1.91779,3.57087 -2.53485,6.19318c-1.12011,4.7593 -1.4161,6.85723 -1.35018,9.25132c0.05847,2.12353 1.39328,7.52792 2.39736,9.66076c0.52275,1.11003 1.98881,1.4446 1.99112,0.58388c0.00148,-0.49123 -0.03156,-0.93098 0.23317,-1.2107c0.54018,-0.57041 3.01997,-1.22994 4.89062,-1.31679c0.67806,-0.03167 1.87029,-0.36411 2.20944,-0.5085c0.49704,-0.21143 0.42507,-1.53024 -0.69233,-1.83193c-1.67137,-0.45084 -2.3299,-0.99643 -2.0445,-2.28177c0.11126,-0.50092 0.82426,-1.27658 1.8876,-2.47797c1.70108,-1.92188 1.77735,-1.99275 2.86027,-2.02257c0.67674,-0.01863 0.47744,-0.18174 0.78731,0.03915c0.78332,0.55798 2.78547,4.5652 3.85378,7.90439c1.79404,5.60875 1.65507,5.73097 -4.33147,7.07757c-2.27843,0.51257 -4.54426,0.77999 -5.55187,0.82007l-2.56548,0.93819l2.31465,2.33678c5.90861,5.08831 10.58176,7.51391 15.24627,7.91636c1.4286,0.12306 3.54177,0.34903 3.99504,0.44959c0.75658,0.16791 1.35974,-0.33404 1.91003,-2.11153c0.74534,-2.4081 2.35801,-5.16898 3.93965,-6.63273c1.34037,-1.24036 5.78875,-3.63334 9.07271,-4.87919c3.06878,-1.16457 6.22183,-1.19968 9.8052,-0.12122c3.05715,0.92021 4.99289,2.07027 5.94385,3.43629l1.62586,0.87873l0.79708,-2.33325c0.26332,-0.98495 0.45847,-2.99845 0.42376,-4.2593c-0.09292,-3.37505 -0.98118,-11.92631 -1.45349,-14.02644c-0.42329,-1.88206 -2.64694,-7.35363 -4.04003,-9.91759l-1.2741,-1.92022l-1.26371,0.83551c-0.93928,1.05658 -1.55374,1.08596 -3.87305,0.23447c-1.48052,-0.54346 -2.3283,-0.60115 -4.40094,-0.37769c-3.42781,0.36915 -7.45349,1.50969 -8.40553,2.26018c-1.18671,0.93535 -2.77918,4.16477 -5.25096,10.92869c-2.48573,6.80232 -3.16312,8.41119 -4.33317,9.2247c-1.21882,0.8472 -1.37225,0.33165 -3.98186,-2.05276l-2.02076,-1.8193l0.02321,-1.8764c-0.0529,-1.92127 -0.40205,-2.62336 -2.02375,-4.96394c-2.95034,-4.25908 -5.21701,-5.73409 -8.27247,-5.33352c-1.67858,0.21995 -1.79257,0.22298 -2.73549,-0.66941c-0.81178,-0.76828 -0.70151,-0.09187 -0.54955,-0.822c0.24581,-1.18488 0.16298,-1.56075 1.85701,-2.06724c4.05152,-1.21164 8.98969,1.63788 13.26637,7.63512c1.62812,2.28306 1.88279,2.95516 2.08587,4.2754l1.73562,1.86544l1.21546,-3.74946c2.78768,-8.79472 5.43723,-13.17657 8.89723,-14.58066c2.41296,-0.97945 5.16557,-1.52434 8.43448,-1.88777c2.4541,-0.27265 4.18182,-0.02461 6.63008,0.90769c0.37407,0.14276 0.9847,-1.44323 0.62228,-2.08317c-1.70517,-3.01054 -5.03849,-5.77131 -8.94634,-7.44406c-1.97467,-0.84497 -3.41141,-1.15566 -7.33141,-1.44088c-7.50186,-0.54574 -10.91575,-0.54114 -13.78609,0.00674zM386.36736,247.11672c1.57025,0.73839 2.29668,1.46646 2.32915,2.64568c0.02112,0.76704 -0.78814,4.05733 -1.40829,5.81639c-0.12804,0.36366 1.27863,1.10996 2.6527,0.57294c0.97258,-0.37991 2.88057,-0.95783 4.56184,-1.31024c4.31773,-0.90485 4.59983,-0.89173 5.9687,1.91866c1.30242,2.67417 1.44015,2.92879 0.30863,3.87029c-1.23323,1.026 -5.01886,2.47876 -11.14635,4.37412c-2.97116,0.91912 -6.56128,2.13732 -8.21865,2.7645c-3.59295,1.3594 -3.3859,1.65245 -4.99458,-0.73618c-1.51413,-2.24851 -1.33673,-2.71111 0.70699,-7.18205c0.94731,-2.07286 2.24328,-5.24133 2.96754,-7.2767c1.37453,-3.86296 2.64584,-5.91908 3.94161,-6.19952c0.93579,-0.20216 0.776,0.01095 2.33071,0.74211z" data-paper-data="{&quot;wickUUID&quot;:&quot;dfc3d9ad-3877-4d7e-9089-15df91d896df&quot;,&quot;wickType&quot;:&quot;path&quot;,&quot;originalStyle&quot;:{&quot;strokeColor&quot;:null,&quot;fillColor&quot;:[&quot;Color&quot;,1,1,1],&quot;strokeWidth&quot;:1}}" id="dfc3d9ad-3877-4d7e-9089-15df91d896df" fill="#ffffff"/><path d="M388.18981,269.099c-3.70149,1.01426 -9.18378,3.62213 -11.57882,5.50676c-2.23246,1.75811 -4.60361,6.65422 -4.91832,10.15721c-0.12705,1.41703 -0.03966,1.8658 0.4854,2.47858c0.64085,0.74865 2.21151,1.00552 11.54839,1.88988c2.66896,0.25264 11.00909,-2.54596 14.62053,-4.90525c4.34355,-2.83762 5.09518,-4.20582 4.59173,-8.35754c-0.23036,-1.89938 -0.4245,-2.37421 -1.37939,-3.37431c-1.25361,-1.313 -5.0425,-2.8553 -8.63598,-3.51365c-2.51667,-0.46191 -2.62663,-0.45889 -4.73354,0.11832zM392.68494,273.87409c0.97676,0.23221 2.56264,0.71474 3.5229,1.07445c1.73251,0.64856 1.74697,0.66517 1.78542,2.06164c0.03614,1.3125 -0.06223,1.48227 -1.46363,2.50423c-2.72141,1.98465 -9.19466,4.46275 -11.94565,4.57351c-1.42496,0.05724 -7.22243,-0.49741 -7.5036,-0.71776c-0.0726,-0.05702 0.30973,-1.06793 0.8505,-2.24626c1.3712,-2.99087 3.17943,-4.27912 9.03034,-6.43397c3.82665,-1.40985 3.44601,-1.35536 5.72372,-0.81584z" data-paper-data="{&quot;wickUUID&quot;:&quot;1bad2998-cc04-4dc2-9cb9-91193c57d1cc&quot;,&quot;wickType&quot;:&quot;path&quot;,&quot;originalStyle&quot;:{&quot;strokeColor&quot;:null,&quot;fillColor&quot;:[&quot;Color&quot;,0,0,0],&quot;strokeWidth&quot;:1}}" id="1bad2998-cc04-4dc2-9cb9-91193c57d1cc" fill="#000000"/><path d="M380.86626,274.50282c-0.79223,0.83812 -0.81639,0.97784 -0.53558,3.21996c0.16051,1.28807 0.50613,2.90417 0.76808,3.58922c0.26098,0.68608 0.48202,1.52031 0.49124,1.85518c0.02694,0.97863 1.22707,1.87493 2.4646,1.84086c2.1012,-0.05785 2.96537,-2.31648 1.84125,-4.81249c-0.28554,-0.63338 -0.53349,-1.60893 -0.54987,-2.16769c-0.03992,-1.37742 -0.65369,-3.28625 -1.19252,-3.70858c-0.24233,-0.1904 -0.89502,-0.42453 -1.44984,-0.5193c-0.81013,-0.13876 -1.1705,-0.00178 -1.83736,0.70284z" data-paper-data="{&quot;wickUUID&quot;:&quot;afbf1165-1866-4d73-a339-4f4bf62b7c2c&quot;,&quot;wickType&quot;:&quot;path&quot;,&quot;originalStyle&quot;:{&quot;strokeColor&quot;:null,&quot;fillColor&quot;:[&quot;Color&quot;,0,0,0],&quot;strokeWidth&quot;:1}}" id="afbf1165-1866-4d73-a339-4f4bf62b7c2c" fill="#000000"/><path d="M388.44925,271.77076c-0.87109,1.17142 -0.81416,1.60402 0.52781,4.019c3.70272,6.66062 5.00581,8.17232 6.71999,7.792c1.14245,-0.25354 2.11676,-1.30975 2.09042,-2.26639c-0.00974,-0.35387 -0.90024,-2.03099 -1.97735,-3.72799c-1.07811,-1.69697 -2.24762,-3.58851 -2.59972,-4.20505c-1.06461,-1.8604 -1.89781,-2.54673 -3.05537,-2.51486c-0.75471,0.02078 -1.24181,0.27828 -1.70578,0.90329z" data-paper-data="{&quot;wickUUID&quot;:&quot;b0d31d36-8ff8-4394-96a3-f06c5cbb4e25&quot;,&quot;wickType&quot;:&quot;path&quot;,&quot;originalStyle&quot;:{&quot;strokeColor&quot;:null,&quot;fillColor&quot;:[&quot;Color&quot;,0,0,0],&quot;strokeWidth&quot;:1}}" id="b0d31d36-8ff8-4394-96a3-f06c5cbb4e25" fill="#000000"/><path d="M385.46361,239.02299c-6.00382,1.10666 -8.53228,2.28769 -10.10596,4.71892c-1.58035,2.44342 -3.96496,7.90412 -4.92358,11.27378c-0.50985,1.79271 -1.12552,3.63035 -1.36812,4.0842c-0.41959,0.78384 -0.44406,0.7305 -0.50564,-1.1065c-0.04934,-1.4652 -0.25575,-2.20379 -0.85564,-3.06361c-0.43532,-0.62326 -1.44757,-2.10796 -2.25069,-3.30031c-1.72099,-2.5556 -3.80814,-4.38585 -6.39271,-5.60618c-2.80954,-1.32518 -4.45059,-1.5591 -6.41666,-0.91675c-2.60454,0.85201 -3.34983,2.74123 -1.69818,4.30437c0.71486,0.67558 1.04657,0.76949 2.04657,0.57389c1.84279,-0.35985 2.58736,-0.31333 3.73589,0.23527c2.11358,1.00921 3.5591,2.38895 5.23448,4.99583c1.55628,2.42309 1.71273,2.83693 1.76246,4.64325l0.0546,1.98325l2.08986,2.03725c3.71815,3.62404 4.81412,3.42581 7.00481,-1.26626c0.81428,-1.74507 1.84208,-4.4914 2.28386,-6.10417c0.87998,-3.21043 3.69888,-9.53842 4.65421,-10.44806c1.03037,-0.98173 2.69337,-1.54971 6.48054,-2.21319c3.83696,-0.67186 4.95982,-0.61974 6.96465,0.32744c1.62877,0.76846 2.42126,0.70263 3.35056,-0.28032c1.7352,-1.83345 0.32088,-3.89631 -3.37891,-4.92787c-2.51125,-0.70115 -3.70945,-0.69217 -7.7664,0.05577z" data-paper-data="{&quot;wickUUID&quot;:&quot;89080fe6-726a-46ec-9e0d-92973aa03211&quot;,&quot;wickType&quot;:&quot;path&quot;,&quot;originalStyle&quot;:{&quot;strokeColor&quot;:null,&quot;fillColor&quot;:[&quot;Color&quot;,0,0,0],&quot;strokeWidth&quot;:1}}" id="89080fe6-726a-46ec-9e0d-92973aa03211" fill="#000000"/><path d="M382.98123,246.18018c-1.05777,0.4953 -2.29144,2.44999 -2.93804,4.65362c-0.69603,2.37005 -3.91802,10.11767 -4.71471,11.33906c-1.05688,1.6177 -0.96668,3.07677 0.29826,4.83762c0.55443,0.77103 1.0109,1.50875 1.01448,1.6387c0.00358,0.12995 0.45237,0.40671 0.9973,0.61479c0.87455,0.33506 1.20805,0.27585 2.83039,-0.49709c1.01112,-0.48201 4.88397,-1.7761 8.60708,-2.87698c6.93519,-2.05065 11.03511,-3.6721 12.29578,-4.86425c0.42216,-0.39977 0.70238,-1.04973 0.6873,-1.59752c-0.0338,-1.22753 -1.59304,-4.73895 -2.33246,-5.25279c-0.97401,-0.67745 -2.45745,-0.74565 -4.12478,-0.18955c-0.86935,0.29004 -2.06591,0.54006 -2.65869,0.55638c-1.02261,0.02816 -3.12317,0.72724 -4.41424,1.46905c-0.325,0.18602 -0.66894,0.26551 -0.76344,0.17608c-0.09552,-0.09041 0.25216,-1.26942 0.77115,-2.62122c1.06607,-2.77339 1.16478,-4.71085 0.28805,-5.67008c-0.68175,-0.74452 -3.64715,-2.24446 -4.36436,-2.20571c-0.26871,0.0144 -0.93488,0.23482 -1.47907,0.48989z" data-paper-data="{&quot;wickUUID&quot;:&quot;42123429-55a6-4844-8374-676d9cecae93&quot;,&quot;wickType&quot;:&quot;path&quot;,&quot;originalStyle&quot;:{&quot;strokeColor&quot;:null,&quot;fillColor&quot;:[&quot;Color&quot;,0,0,0],&quot;strokeWidth&quot;:1}}" id="42123429-55a6-4844-8374-676d9cecae93" fill="#000000"/><path d="M354.06002,257.97006c-2.95129,3.11841 -3.03096,5.09334 -0.23305,5.81461c0.77276,0.19881 1.47597,0.41454 1.56178,0.4792c0.37284,0.27984 -0.89164,0.75183 -2.11807,0.7896c-2.18095,0.06805 -4.76701,0.75548 -5.41346,1.43853c-0.65325,0.69024 -0.73183,2.48709 -0.13303,3.05282c0.19516,0.1847 0.3652,0.72922 0.37841,1.20904c0.01324,0.48082 0.31034,1.20692 0.65972,1.61546c0.99536,1.16205 4.52975,1.12776 8.86501,-0.08502c1.84347,-0.51693 3.66532,-0.94724 4.04718,-0.95775c0.91165,-0.0251 1.99988,-1.52162 1.96732,-2.70417c-0.06223,-2.26014 -3.38472,-10.77093 -4.77114,-12.22032c-0.33787,-0.35384 -1.00203,-0.56863 -1.69577,-0.54953c-0.96663,0.02661 -1.44289,0.35084 -3.1149,2.11753z" data-paper-data="{&quot;wickUUID&quot;:&quot;dbc98e23-9a24-4b1a-89cf-2cd1feb820d2&quot;,&quot;wickType&quot;:&quot;path&quot;,&quot;originalStyle&quot;:{&quot;strokeColor&quot;:null,&quot;fillColor&quot;:[&quot;Color&quot;,0,0,0],&quot;strokeWidth&quot;:1}}" id="dbc98e23-9a24-4b1a-89cf-2cd1feb820d2" fill="#000000"/><path d="M365.34673,224.90916c-2.55828,0.38856 -8.24174,1.93957 -10.56763,2.88394c-2.47629,1.00453 -3.29783,1.79544 -6.56454,6.32006c-1.52932,2.11689 -3.42872,4.70814 -4.22109,5.75935c-1.87722,2.48861 -2.46771,4.04145 -3.7146,9.76694c-0.88441,4.06688 -1.01866,5.29504 -0.94065,8.63716c0.08575,3.62301 0.18583,4.16947 1.42211,7.7598c2.05838,5.98061 3.61988,8.73868 6.44686,11.38788c5.71762,5.35767 12.15899,9.3519 16.4551,10.20499c4.74977,0.94363 7.396,1.24291 10.46153,1.18352c2.47059,-0.04901 3.60299,0.05886 4.013,0.3807c0.7474,0.58565 1.94856,0.53858 5.8719,-0.22969c1.77709,-0.34804 4.2502,-0.81429 5.49555,-1.03665c3.21743,-0.57377 11.30606,-2.80622 12.65862,-3.49471c0.6916,-0.35117 1.45694,-1.14853 1.94399,-2.02527c0.44227,-0.79547 1.3452,-2.33691 2.00746,-3.42655c1.44514,-2.37667 2.20619,-4.92859 2.60547,-8.73902c0.24406,-2.3266 0.1765,-3.76328 -0.37994,-8.02258c-0.37168,-2.85385 -0.70411,-6.06192 -0.7365,-7.12943c-0.0383,-1.2094 -0.37119,-2.72682 -0.88423,-4.02919c-0.45282,-1.14997 -1.33184,-3.39163 -1.95488,-4.98309c-1.40116,-3.58379 -5.87893,-10.88932 -8.4371,-13.767c-3.54921,-3.99183 -8.84982,-6.62995 -14.40077,-7.16938c-3.60902,-0.3508 -11.58202,-0.71351 -13.33973,-0.60609c-0.7141,0.04267 -2.172,0.21186 -3.23993,0.37431zM375.71391,229.64163c3.13181,0.16787 6.50255,0.4392 7.49046,0.60407c3.3235,0.55374 7.29846,2.8232 9.68177,5.52663c4.00354,4.54253 9.76362,16.23844 9.87031,20.04094c0.02562,0.93065 0.33184,3.87733 0.68047,6.54775c0.93824,7.1899 0.51976,10.59371 -1.77742,14.4704c-0.7418,1.25289 -1.48894,2.52994 -1.66053,2.83778c-0.17348,0.31189 -1.44711,0.92418 -2.88592,1.38695l-2.57621,0.82722l-0.77972,-0.92389c-0.96277,-1.14093 -1.89754,-1.15622 -4.09043,-0.06845c-7.30004,3.62329 -21.10062,3.97424 -28.44485,0.72414c-2.18645,-0.96719 -5.44867,-3.29229 -9.36217,-6.67186c-3.37243,-2.91229 -4.51805,-4.80848 -6.44282,-10.65972c-1.4707,-4.47422 -1.58352,-7.40923 -0.4826,-12.65952c1.40152,-6.68611 1.6779,-7.22091 8.31382,-16.0719c2.1084,-2.81209 2.24529,-2.9269 4.30172,-3.59375c4.51639,-1.46486 8.36562,-2.30911 11.65799,-2.55882c0.44623,-0.03429 3.37335,0.07519 6.50613,0.24203z" data-paper-data="{&quot;wickUUID&quot;:&quot;2318f227-3876-4372-913a-1840ddc416ea&quot;,&quot;wickType&quot;:&quot;path&quot;,&quot;originalStyle&quot;:{&quot;strokeColor&quot;:null,&quot;fillColor&quot;:[&quot;Color&quot;,0,0,0],&quot;strokeWidth&quot;:1}}" id="2318f227-3876-4372-913a-1840ddc416ea" fill="#000000"/><path d="M400.37491,279.0264c-0.819,0.338 -1.402,1.284 -1.402,2.272c0,0.95 1.421,2.28 2.436,2.28c1.062,0 2.436,-1.345 2.436,-2.385c0,-1.627 -1.902,-2.814 -3.47,-2.167z" data-paper-data="{&quot;wickUUID&quot;:&quot;29e27daa-962c-4ca1-91ce-b0970c7fa0d4&quot;,&quot;wickType&quot;:&quot;path&quot;,&quot;originalStyle&quot;:{&quot;strokeColor&quot;:null,&quot;fillColor&quot;:[&quot;Color&quot;,0,0,0],&quot;strokeWidth&quot;:1}}" id="29e27daa-962c-4ca1-91ce-b0970c7fa0d4" fill="#000000"/><path d="M419.59591,170.53775c-8.68657,2.9692 -12.87753,4.73622 -20.39802,8.60066c-4.49314,2.30954 -9.31283,4.89415 -10.70897,5.7439l-2.53846,1.54445l-1.14601,-2.12826c-0.63044,-1.17009 -1.61134,-2.53362 -2.18025,-3.03115c-1.01475,-0.88541 -1.08309,-0.89653 -3.63298,-0.60324c-3.38657,0.38935 -10.64141,1.9116 -12.55127,2.63344c-1.23164,0.46607 -1.80144,0.98996 -3.20405,2.9493c-0.93729,1.31029 -2.46856,3.79237 -3.40148,5.5157c-0.9339,1.72436 -3.6201,6.55012 -5.97008,10.72538c-2.34995,4.17626 -5.5885,9.94157 -7.19511,12.81187c-1.60758,2.87133 -4.4397,7.6661 -6.29513,10.6553c-1.85443,2.98917 -3.68378,6.1267 -4.06467,6.9715c-0.66088,1.46674 -0.67045,1.66408 -0.21747,4.30962c0.7594,4.43678 2.62664,11.61411 3.49527,13.4419c1.15102,2.41924 2.59883,2.9736 4.22717,1.61927c1.01318,-0.8432 1.04124,-1.82234 0.11823,-4.06279c-0.6732,-1.63309 -2.83039,-10.40304 -3.01778,-12.26759c-0.11684,-1.15522 0.54101,-2.44182 4.37247,-8.54558c1.48348,-2.36472 5.8026,-9.86844 9.59772,-16.67447c3.79409,-6.807 7.14384,-12.74844 7.44342,-13.20386c0.29961,-0.45442 1.20999,-2.08809 2.02286,-3.63005c0.8139,-1.54098 2.0435,-3.57059 2.73391,-4.50995c1.12916,-1.53566 1.43546,-1.74716 3.06098,-2.11404c4.49676,-1.01515 7.3055,-1.53564 8.46506,-1.56757c1.41946,-0.03908 1.93532,0.49392 2.66474,2.7517c0.41563,1.28905 0.38939,1.42582 -0.57974,3.0331c-1.96421,3.25329 -1.3703,5.89395 1.30868,5.82019c1.29251,-0.03559 2.05355,-0.7348 3.31244,-3.04532c0.42469,-0.77998 1.20878,-1.87797 1.74157,-2.43785c0.91969,-0.96868 6.23867,-4.27632 9.38295,-5.83545c0.80432,-0.39929 4.20522,-2.12055 7.55557,-3.8254c5.31064,-2.70218 15.194,-6.67669 16.70443,-6.71828c1.00862,-0.02777 3.52241,13.99135 4.23328,23.60543c0.16542,2.22929 0.37134,4.44046 0.45739,4.91327c0.12847,0.70573 -0.23639,1.297 -2.0418,3.30545c-3.05563,3.39838 -5.104,6.79205 -8.15916,13.51368c-4.55398,10.01913 -5.16367,13.45421 -2.5496,14.36561c0.61718,0.2161 1.79403,0.01263 4.75018,-0.82205c2.16204,-0.60973 5.79369,-1.435 8.07158,-1.83384c4.02809,-0.70613 9.14393,-1.14609 9.49213,-0.81655c0.1808,0.17209 -0.44379,4.70099 -1.06307,7.71518l-0.36351,1.76667l-3.20124,1.12553c-3.8353,1.35007 -11.81791,5.07118 -12.71763,5.92927c-0.68526,0.65411 -2.78254,3.97908 -4.55304,7.21904c-0.59526,1.0888 -2.17433,3.72426 -3.50914,5.8568c-1.33481,2.13254 -2.61891,4.58081 -2.85334,5.44059c-0.23443,0.85978 -0.78287,2.37745 -1.21867,3.37182c-1.05505,2.41095 -1.0095,3.99229 0.14146,4.84694c2.18656,1.62544 3.45161,0.22909 5.63415,-6.21242c0.3793,-1.12086 1.6584,-3.56899 2.84135,-5.44026c1.18395,-1.87129 2.54293,-4.14355 3.02016,-5.05003c0.47721,-0.90748 1.51455,-2.72572 2.30665,-4.04102l1.4397,-2.39253l4.78724,-2.27361c2.63257,-1.25093 6.24839,-2.68799 8.03516,-3.19336c3.34722,-0.94648 4.68601,-1.84466 4.65086,-3.12118c-0.01902,-0.69074 1.52889,-10.01688 1.96236,-11.82249c0.39934,-1.66462 -0.32626,-3.27526 -1.80404,-4.00987c-2.25674,-1.12231 -10.69547,-0.55985 -18.52411,1.23229c-1.38279,0.31718 -2.65635,0.53231 -2.83188,0.47912c-0.43477,-0.13108 5.70621,-13.26007 7.06211,-15.09908c0.59986,-0.81282 2.27217,-2.78659 3.71767,-4.38698l2.62793,-2.90943l-0.30963,-3.97898c-0.77103,-9.87352 -1.9353,-17.86051 -3.96872,-27.22209c-1.06433,-4.90256 -1.60483,-5.71299 -3.73665,-5.60428c-0.72726,0.03703 -2.04612,0.31443 -2.93213,0.61693z" data-paper-data="{&quot;wickUUID&quot;:&quot;846d724d-dbe1-4d33-89a8-60076fd87534&quot;,&quot;wickType&quot;:&quot;path&quot;,&quot;originalStyle&quot;:{&quot;strokeColor&quot;:null,&quot;fillColor&quot;:[&quot;Color&quot;,0,0,0],&quot;strokeWidth&quot;:1}}" id="846d724d-dbe1-4d33-89a8-60076fd87534" fill="#000000"/><path d="M325.73832,267.21042c-3.77357,0.43128 -6.49873,1.31173 -7.48336,2.4164c-1.96609,2.20653 0.49832,4.98097 3.15786,3.55446c2.05031,-1.09927 6.81489,-1.53275 9.76392,-0.8886c1.34549,0.29411 1.59084,0.24706 2.38756,-0.45738c1.82123,-1.61029 1.0002,-3.44412 -1.96874,-4.40008c-2.22627,-0.71594 -1.73146,-0.69755 -5.85724,-0.2248z" data-paper-data="{&quot;wickUUID&quot;:&quot;461fdb4f-d9f3-47dc-a90f-ccd3f1b8ea8e&quot;,&quot;wickType&quot;:&quot;path&quot;,&quot;originalStyle&quot;:{&quot;strokeColor&quot;:null,&quot;fillColor&quot;:[&quot;Color&quot;,0,0,0],&quot;strokeWidth&quot;:1}}" id="461fdb4f-d9f3-47dc-a90f-ccd3f1b8ea8e" fill="#000000"/><path d="M357.71943,281.40039c-1.192,0.602 -1.669,2.414 -1.94,7.376c-0.418,7.669 -3.07,17.534 -5.577,20.752c-1.199,1.538 -0.481,4.522 1.682,6.985c1.334,1.52 5.415,3.608 8.687,4.444c5.012,1.282 14.408,0.313 20.698,-2.135c1.072,-0.417 3.104,-1.068 4.515,-1.447c2.815,-0.755 3.406,-1.103 7.068,-4.16c3.616,-3.019 5.466,-5.862 6.604,-10.15c1.306,-4.92 1.724,-7.677 1.969,-12.99c0.2,-4.333 0.164,-4.834 -0.458,-6.257c-0.806,-1.845 -1.905,-2.439 -3.381,-1.828c-1.294,0.537 -1.663,1.657 -1.173,3.57c0.517,2.015 -0.074,9.788 -1.022,13.448c-0.37,1.429 -0.831,3.251 -1.023,4.049c-0.193,0.797 -0.92,2.221 -1.617,3.165c-1.823,2.468 -5.923,5.871 -7.554,6.269c-0.731,0.179 -2.645,0.77 -4.253,1.314c-2.671,0.904 -4.943,1.514 -8.445,2.271c-2.63,0.569 -8.186,0.745 -10.176,0.323c-2.498,-0.531 -6.472,-2.572 -7.136,-3.666c-0.489,-0.806 -0.471,-0.939 0.329,-2.417c2.254,-4.165 5.127,-15.379 5.126,-20.011c0,-1.288 0.171,-3.57 0.381,-5.071l0.381,-2.729l-0.886,-0.763c-1,-0.86 -1.624,-0.936 -2.799,-0.342z" data-paper-data="{&quot;wickUUID&quot;:&quot;1ad7b98a-5a3e-42ef-b30f-d796393e7e0a&quot;,&quot;wickType&quot;:&quot;path&quot;,&quot;originalStyle&quot;:{&quot;strokeColor&quot;:null,&quot;fillColor&quot;:[&quot;Color&quot;,0,0,0],&quot;strokeWidth&quot;:1}}" id="1ad7b98a-5a3e-42ef-b30f-d796393e7e0a" fill="#000000"/><path d="M402.07189,374.96722c-0.93524,0.089 -2.31735,0.28859 -3.06981,0.44297c-0.75355,0.1553 -2.33377,0.22864 -3.51137,0.16334c-1.9616,-0.10944 -2.22906,-0.03988 -3.17948,0.81847c-1.39378,1.25834 -1.6064,2.0933 -1.03782,4.05819c0.71702,2.47393 2.14069,4.20071 4.59283,5.57028c5.67696,3.16921 11.43985,3.22015 14.46193,0.12746c1.6072,-1.6447 2.50511,-4.01298 2.13222,-5.62356c-0.74672,-3.22318 -3.03023,-5.12722 -6.59891,-5.50024c-1.1485,-0.11974 -2.85435,-0.14591 -3.78959,-0.05691z" data-paper-data="{&quot;wickUUID&quot;:&quot;05df4568-522b-4d1b-b6b1-e56c9e0a5a00&quot;,&quot;wickType&quot;:&quot;path&quot;,&quot;originalStyle&quot;:{&quot;strokeColor&quot;:null,&quot;fillColor&quot;:[&quot;Color&quot;,0,0,0],&quot;strokeWidth&quot;:1}}" id="05df4568-522b-4d1b-b6b1-e56c9e0a5a00" fill="#000000"/><path d="M388.25911,312.44063c-0.89232,0.75145 -1.00292,0.99508 -0.89463,1.95828c0.067,0.60479 0.65991,2.35957 1.31595,3.89952c3.02007,7.08414 5.35109,14.62131 6.51365,21.06085c0.90385,5.00261 2.19152,10.64456 2.93999,12.87435c1.02587,3.05692 0.83896,4.34187 -1.43592,9.89051c-1.06736,2.60268 -2.37383,6.0113 -2.90457,7.57495c-0.5297,1.56371 -1.19272,3.44157 -1.47448,4.17231c-0.76735,1.99199 -0.71077,2.65226 0.30596,3.55839c1.00985,0.89885 1.38349,0.9789 2.56404,0.54763c0.94019,-0.34349 1.89835,-1.76504 2.31519,-3.43347c0.46127,-1.84693 2.30541,-6.7942 4.19995,-11.26747c1.25896,-2.97159 1.85052,-4.80134 2.06871,-6.40128c0.2836,-2.07726 0.22977,-2.50916 -0.73551,-5.92072c-0.57358,-2.02419 -1.74418,-7.04378 -2.60344,-11.15466c-1.74118,-8.33713 -2.93125,-12.45582 -5.48619,-18.99439c-0.95516,-2.44405 -1.99633,-5.21068 -2.31445,-6.14732c-0.68704,-2.02566 -1.10106,-2.51718 -2.38936,-2.8366c-0.8178,-0.20243 -1.12423,-0.10658 -1.98489,0.61912z" data-paper-data="{&quot;wickUUID&quot;:&quot;0da4a950-4d75-453f-9274-d795d6667913&quot;,&quot;wickType&quot;:&quot;path&quot;,&quot;originalStyle&quot;:{&quot;strokeColor&quot;:null,&quot;fillColor&quot;:[&quot;Color&quot;,0,0,0],&quot;strokeWidth&quot;:1}}" id="0da4a950-4d75-453f-9274-d795d6667913" fill="#000000"/><path d="M356.6851,318.909c-4.79063,4.29368 -5.44241,5.54906 -4.00007,7.69638c1.24786,1.85732 10.21097,9.69201 12.89696,11.27364c1.40555,0.82706 2.55458,1.59881 2.55458,1.71614c0,0.11733 -0.52354,0.71259 -1.16376,1.32311c-1.37926,1.31548 -2.72803,1.63505 -5.0219,1.18861c-2.83948,-0.55233 -4.67183,-0.40447 -6.25189,0.50463c-3.74672,2.1559 -5.33519,6.38089 -4.01164,10.66694c1.15429,3.73658 2.68389,4.95571 6.21825,4.95571c3.32726,0 4.30389,-0.25852 6.99303,-1.8516c4.55094,-2.69583 7.38937,-5.67783 9.5287,-10.00776c1.67467,-3.38839 1.50857,-5.79709 -0.58766,-8.54252c-0.88832,-1.16285 -1.34037,-1.48719 -5.5486,-3.97888c-2.67022,-1.58163 -5.88604,-4.21927 -8.88636,-7.29l-1.88177,-1.92695l2.36955,-1.98133c2.74696,-2.29708 4.03267,-4.05424 3.74042,-5.11216c-0.25861,-0.93391 -1.03866,-1.54443 -2.25813,-1.76574c-0.94299,-0.17075 -1.18583,-0.00859 -4.68971,3.13178z" data-paper-data="{&quot;wickUUID&quot;:&quot;7faacf20-fed1-40af-82d4-34dc97de9753&quot;,&quot;wickType&quot;:&quot;path&quot;,&quot;originalStyle&quot;:{&quot;strokeColor&quot;:null,&quot;fillColor&quot;:[&quot;Color&quot;,0,0,0],&quot;strokeWidth&quot;:1}}" id="7faacf20-fed1-40af-82d4-34dc97de9753" fill="#000000"/><path d="M332.74402,273.86079c-0.66885,0.47686 -0.91502,1.13532 -0.92325,2.68173c-0.01805,3.3088 -0.19578,4.47413 -1.01779,6.69822c-0.44789,1.21213 -0.10939,3.16812 0.04299,3.17749c0.15204,0.00935 1.77556,-0.95443 2.63841,-1.95771c1.27105,-1.47747 1.48124,-1.67546 2.37052,-1.70696c0.60444,-0.02128 1.22145,0.2511 1.64071,0.56408c0.74366,0.55534 1.55535,-0.57534 1.94992,-1.7243c0.84933,-2.47288 -1.94649,-8.06039 -4.13483,-8.26337c-0.20822,-0.01914 -2.13533,0.22338 -2.56668,0.53082z" data-paper-data="{&quot;wickUUID&quot;:&quot;95b57b4a-c7fb-4e2f-b75e-764fe864ec76&quot;,&quot;wickType&quot;:&quot;path&quot;,&quot;originalStyle&quot;:{&quot;strokeColor&quot;:null,&quot;fillColor&quot;:[&quot;Color&quot;,0,0,0],&quot;strokeWidth&quot;:1}}" id="95b57b4a-c7fb-4e2f-b75e-764fe864ec76" fill="#000000"/><path d="M322.9571,272.13542c-0.74921,0.23581 -2.46959,0.50938 -3.18432,0.61339c-0.71475,0.10434 -2.26089,0.76564 -3.05183,1.25103c-1.38578,0.85025 -1.72104,1.69752 -1.93346,3.62111c-0.26679,2.41685 0.62212,3.99404 2.99423,5.3852c2.00626,1.17664 3.44225,1.08137 4.91959,-0.06314c1.7968,-1.39205 3.0123,-4.36612 3.11491,-7.6814c0.09194,-2.96795 -0.52089,-3.86211 -2.85912,-3.12619z" data-paper-data="{&quot;wickUUID&quot;:&quot;d9173ab6-ffd6-412b-b2c1-bfd5e4c93053&quot;,&quot;wickType&quot;:&quot;path&quot;,&quot;originalStyle&quot;:{&quot;strokeColor&quot;:null,&quot;fillColor&quot;:[&quot;Color&quot;,0,0,0],&quot;strokeWidth&quot;:1}}" id="d9173ab6-ffd6-412b-b2c1-bfd5e4c93053" fill="#000000"/><path d="M323.43221,286.75243c-1.69117,0.76568 -1.88403,0.80497 -3.96075,0.54639c-1.47186,-0.18332 -2.64332,-0.5512 -3.49236,-1.05457c-1.1123,-0.65949 -2.43471,0.24507 -2.61223,0.63391c-0.41534,0.9109 1.86362,7.35051 2.96237,8.38254c0.28636,0.26908 2.07324,0.41824 3.43216,-0.12541c1.82658,-0.7303 2.0914,-0.96578 2.37371,-2.46696c0.48901,-2.59822 0.3117,-2.90032 1.99419,-2.79689c1.77465,0.10909 1.72524,0.24596 1.89669,2.59624c0.12345,1.69143 -0.62954,3.13513 -2.1921,4.6284l-0.80569,1.37343l1.84294,2.166c1.48757,1.68244 2.22808,1.90392 3.3778,1.66134c1.51278,-0.31945 5.0009,-2.28738 5.30896,-2.96342c0.12889,-0.28229 -0.09685,-2.81179 -0.58144,-4.66969c-0.87757,-3.36418 -1.46422,-4.27983 -2.82665,-4.36358c-0.83609,-0.0514 -3.37422,-2.33733 -3.7392,-3.36466l-0.91706,-1.06072z" data-paper-data="{&quot;wickUUID&quot;:&quot;96f439a9-2cab-4abb-a468-24952b52b973&quot;,&quot;wickType&quot;:&quot;path&quot;,&quot;originalStyle&quot;:{&quot;strokeColor&quot;:null,&quot;fillColor&quot;:[&quot;Color&quot;,0,0,0],&quot;strokeWidth&quot;:1}}" id="96f439a9-2cab-4abb-a468-24952b52b973" fill="#000000"/><path d="M319.82007,267.95119c-1.10281,0.33797 -3.12742,1.19836 -4.4987,1.91057c-2.994,1.55423 -4.27494,3.14363 -4.94793,6.13798c-1.01892,4.53102 0.84461,8.16521 5.68198,11.0785c2.09159,1.26071 5.12759,1.50044 7.19754,0.57069c3.22921,-1.45261 4.53876,-3.00218 6.06481,-7.17741c0.97218,-2.66237 1.06323,-4.99117 0.26556,-6.79752c-0.83806,-1.899 -3.08926,-2.29085 -4.24753,-0.741c-0.52189,0.6993 -0.55745,1.00068 -0.28509,2.42107c0.27694,1.44371 0.22204,1.86414 -0.50155,3.8074c-0.63376,1.70433 -1.11496,2.42616 -2.18637,3.28003c-1.61615,1.28927 -2.18845,1.30919 -4.17059,0.14238c-2.30602,-1.35805 -2.95464,-2.34571 -2.97653,-4.53217c-0.01551,-1.55688 0.1096,-2.01107 0.7498,-2.72814c0.79074,-0.88415 3.81429,-2.33236 5.49071,-2.63006c1.27328,-0.2263 2.91224,-1.72356 2.97323,-2.71569c0.06277,-1.02107 -0.77564,-2.14864 -1.80354,-2.42623c-0.44057,-0.11825 -1.70193,0.06069 -2.8058,0.3996z" data-paper-data="{&quot;wickUUID&quot;:&quot;24a69607-0af8-4c0d-bc2a-5dfe3de89407&quot;,&quot;wickType&quot;:&quot;path&quot;,&quot;originalStyle&quot;:{&quot;strokeColor&quot;:null,&quot;fillColor&quot;:[&quot;Color&quot;,0,0,0],&quot;strokeWidth&quot;:1}}" id="24a69607-0af8-4c0d-bc2a-5dfe3de89407" fill="#000000"/><path d="M312.00712,280.08366c-0.3257,0.16433 -1.03823,1.03124 -1.58325,1.92749c-0.88939,1.46219 -1.0112,1.96065 -1.18712,4.87134l-0.19529,3.24213l1.6352,3.73036c0.89879,2.05201 2.04786,4.12341 2.55231,4.60427c2.48933,2.3692 5.78591,2.20014 10.41451,-0.53602c1.05424,-0.62349 1.73596,-1.36405 2.39933,-2.60469c0.85587,-1.6015 0.90507,-1.86398 0.64862,-3.46173c-0.32143,-2.0075 -1.00778,-2.85421 -2.41566,-2.98083c-1.57626,-0.14198 -2.35344,0.70092 -2.47535,2.68418c-0.074,1.20373 -0.27728,1.82142 -0.71457,2.17125c-0.88929,0.71078 -3.6168,1.66222 -4.11375,1.4343c-0.2339,-0.10655 -1.03106,-1.66039 -1.77146,-3.4532c-1.51731,-3.67602 -1.60148,-5.02873 -0.44441,-7.21085c1.01207,-1.9095 1.02057,-3.04211 0.02791,-3.92568c-0.88334,-0.78768 -1.84968,-0.9583 -2.77702,-0.49232z" data-paper-data="{&quot;wickUUID&quot;:&quot;db2887d1-a93e-4b7c-b9e4-947168eb9ddd&quot;,&quot;wickType&quot;:&quot;path&quot;,&quot;originalStyle&quot;:{&quot;strokeColor&quot;:null,&quot;fillColor&quot;:[&quot;Color&quot;,0,0,0],&quot;strokeWidth&quot;:1}}" id="db2887d1-a93e-4b7c-b9e4-947168eb9ddd" fill="#000000"/><path d="M333.01389,268.9374c-2.15361,0.61202 -3.84344,2.00797 -5.09287,4.20946c-0.90771,1.59732 -0.9327,1.74306 -0.64647,3.67125c0.36882,2.47529 0.3988,2.21565 -0.6166,5.18995c-0.46302,1.35514 -0.88349,3.14271 -0.93448,3.97214c-0.08252,1.34247 0.04974,1.6682 1.20758,2.97771c1.01632,1.15053 1.6236,1.53952 2.7806,1.78697l1.48043,0.31543l0.86407,2.68206c0.47534,1.47595 0.91036,3.29807 0.96627,4.05092c0.09543,1.26724 0.01749,1.42676 -1.04932,2.14065c-1.44307,0.96728 -3.90822,1.92083 -4.84001,1.87257c-0.4824,-0.02464 -1.56093,-1.0758 -3.37841,-3.29149c-2.96661,-3.61784 -3.75816,-4.00813 -5.32724,-2.62079c-1.57867,1.39677 -1.24431,2.37914 2.24827,6.60038c2.94797,3.56259 3.91408,4.17702 6.48233,4.12149c3.71386,-0.07928 8.73145,-2.57513 10.00519,-4.9765c1.08896,-2.05205 1.01224,-4.29198 -0.31787,-9.36715c-0.09825,-0.37373 0.1023,-0.60486 0.62896,-0.72978c2.09528,-0.49437 4.74252,-4.1819 6.18852,-8.61954c0.77324,-2.37603 0.60828,-3.68562 -0.91818,-7.27805c-1.40653,-3.31054 -2.17692,-4.3708 -4.07724,-5.61374c-2.22971,-1.45855 -3.50198,-1.70508 -5.65353,-1.09394zM336.46662,274.57287c1.08944,1.0368 2.78119,4.92291 2.67053,6.13641c-0.04263,0.46526 -0.25909,1.24846 -0.48165,1.73973l-0.40455,0.89286l-0.81215,-0.7232c-1.63849,-1.46028 -3.10274,-0.88203 -4.86199,1.92031c-0.58098,0.9271 -1.49353,1.51121 -1.80635,1.15635c-0.07781,-0.08694 0.01632,-0.57508 0.20898,-1.08522c1.69889,-4.49323 1.72142,-4.59905 1.45496,-6.89773c-0.27508,-2.37034 -0.02538,-3.22163 1.11287,-3.79387c0.97391,-0.49017 1.94636,-0.27208 2.91935,0.65436z" data-paper-data="{&quot;wickUUID&quot;:&quot;3baa01da-cb81-42a1-ade1-440378e02efd&quot;,&quot;wickType&quot;:&quot;path&quot;,&quot;originalStyle&quot;:{&quot;strokeColor&quot;:null,&quot;fillColor&quot;:[&quot;Color&quot;,0,0,0],&quot;strokeWidth&quot;:1}}" id="3baa01da-cb81-42a1-ade1-440378e02efd" fill="#000000"/><path d="M340.08901,277.04797c-1.44942,1.28249 -1.22244,2.25123 1.10812,4.72589c2.78854,2.96167 7.2409,5.92844 10.8932,7.25804c1.38762,0.50509 1.48049,0.49376 9.48152,-1.20052c3.14069,-0.66455 4.14844,-1.31394 4.23544,-2.72927c0.05921,-0.96318 -1.19907,-2.46422 -2.11434,-2.52048c-0.3683,-0.02264 -1.81699,0.20491 -3.21907,0.50545c-7.19807,1.54026 -6.62697,1.50723 -8.56603,0.50337c-2.85376,-1.47688 -5.37313,-3.27585 -7.40947,-5.28858c-2.1666,-2.14297 -3.10304,-2.40893 -4.40937,-1.2539z" data-paper-data="{&quot;wickUUID&quot;:&quot;5f19e3f1-3b5b-45b3-acf7-ebf05de29ff1&quot;,&quot;wickType&quot;:&quot;path&quot;,&quot;originalStyle&quot;:{&quot;strokeColor&quot;:null,&quot;fillColor&quot;:[&quot;Color&quot;,0,0,0],&quot;strokeWidth&quot;:1}}" id="5f19e3f1-3b5b-45b3-acf7-ebf05de29ff1" fill="#000000"/><path d="M345.36926,293.10828c-2.03843,2.35766 -4.38751,5.75378 -4.91774,7.27141c-0.60195,1.72178 -1.03656,5.10425 -0.86634,5.58925c0.07033,0.20039 2.39305,0.28523 4.77626,-0.38928c3.35702,-0.95013 3.55466,-1.02581 4.57467,-0.668c1.02943,0.36083 0.46397,-0.13019 0.7418,1.17143c0.16933,0.79446 0.10639,3.25297 -0.13125,5.52648c-0.77177,7.38276 -0.43868,8.25106 1.83632,8.45325c1.64819,0.1466 4.43067,-0.65447 5.52624,-2.299c1.6064,-2.41188 2.46457,-2.82545 4.41576,-2.07365l0.23612,0.0826l1.0849,3.74828l1.21286,4.05584l1.96146,1.51425c1.93842,1.41728 5.05031,2.65287 5.96413,2.3919c0.37635,-0.10752 1.97857,-1.14401 2.38375,-1.70027c0.71231,-0.97813 0.72288,-1.601 -0.06781,-2.45728c-0.4498,-0.48744 -1.08176,-1.42032 -1.42048,-2.12104c-0.52931,-1.0944 -0.78717,-0.61311 -0.26011,-1.59965c0.76044,-1.42365 1.1338,-1.46827 4.30707,-1.2178c2.19644,0.17328 3.09974,0.01054 6.05242,-0.86927c4.00786,-1.19417 5.42109,-2.31113 6.85586,-5.22967c1.027,-2.08978 2.08215,-6.75793 2.14428,-9.67976l-0.18433,-2.48902l-3.68706,-1.80442c-1.91323,-0.90695 -3.80552,-2.02667 -4.2763,-2.52922c-1.01429,-1.08383 -5.33146,-3.95458 -7.36068,-4.89756c-1.12275,-0.52194 -2.05196,-0.68307 -2.43565,-0.32376c-1.46997,1.37609 -9.90176,1.96466 -18.73005,1.30701c-7.23723,-0.53902 -8.38245,-0.32852 -9.7361,1.23695z" data-paper-data="{&quot;wickUUID&quot;:&quot;93a42aae-7a1e-49fc-81de-c4c2a954c4aa&quot;,&quot;wickType&quot;:&quot;path&quot;,&quot;originalStyle&quot;:{&quot;strokeColor&quot;:null,&quot;fillColor&quot;:[&quot;Color&quot;,0,0,0],&quot;strokeWidth&quot;:1}}" id="93a42aae-7a1e-49fc-81de-c4c2a954c4aa" fill="#000000"/><path d="M354.02363,282.62009c-0.89293,0.67191 -1.43595,2.31282 -1.20916,3.65564c0.11106,0.65852 0.17878,1.20295 0.15097,1.21082c-0.02781,0.00787 -0.93306,-0.0147 -2.01141,-0.05147c-4.60172,-0.15673 -8.17536,1.23478 -9.90799,3.85621c-0.47166,0.71514 -1.47933,2.08341 -2.23739,3.04007c-1.82857,2.30761 -3.06571,5.12776 -3.67625,8.38332c-0.65461,3.48765 -0.4457,4.77029 1.0255,6.29642c0.93402,0.96915 1.45146,1.21483 2.90465,1.37717c0.97165,0.10909 2.76271,-0.0007 3.9797,-0.24385l2.21406,-0.44112l-0.45947,3.87568c-0.71473,6.03786 0.3237,8.58904 4.13063,10.14204c2.20425,0.89947 4.41039,0.91787 6.72797,0.05636c1.07746,-0.40122 2.16171,-0.88259 2.40924,-1.06998c0.37696,-0.2852 0.59924,-0.0282 1.3657,1.57704c1.11761,2.33823 1.93931,3.13356 4.81959,4.65902c1.22785,0.64931 2.79455,1.54873 3.48271,1.99778c1.62274,1.05903 4.26284,1.16623 6.33113,0.25693c3.33484,-1.46533 6.27347,-5.54624 5.52649,-7.67448l-0.35412,-1.00892l2.25771,-0.3261c2.87837,-0.41453 7.33158,-2.21743 8.96969,-3.63076c2.68599,-2.31562 4.77839,-6.90718 5.49478,-12.05697c0.51073,-3.67056 0.32336,-6.49973 -0.5528,-8.36775c-0.61003,-1.29953 -0.86998,-1.52076 -2.45176,-2.09298c-2.72669,-0.98526 -4.89299,-2.16225 -6.06776,-3.29792c-0.58819,-0.56861 -1.89813,-1.53265 -2.90993,-2.14182c-1.0118,-0.60917 -2.8541,-1.7184 -4.09411,-2.46455c-1.24001,-0.74615 -3.9044,-1.97068 -5.92216,-2.72135c-2.01677,-0.75095 -4.71471,-1.76942 -5.99505,-2.26348c-4.80292,-1.85276 -11.82761,-2.12 -13.94116,-0.531zM349.36038,292.10711c0.82789,-0.0548 3.14214,0.09749 5.14129,0.33796c3.86846,0.46555 7.38818,0.52537 13.0175,0.22279c3.98995,-0.21467 5.54017,-0.57219 6.27195,-1.4482c0.47805,-0.57254 0.64117,-0.55251 2.23816,0.26209c3.45879,1.76787 7.32497,4.37614 7.5856,5.11869c0.27375,0.77996 0.63651,0.98617 4.80696,2.73513l2.63433,1.10467l0.05506,1.75244c0.14753,4.65959 -1.74332,10.66828 -4.00236,12.71364c-1.09935,0.9951 -1.75237,1.29926 -4.57184,2.12733c-2.99094,0.8776 -3.50905,0.94098 -5.69222,0.68941c-2.85783,-0.32939 -4.34077,0.00207 -4.96448,1.10824c-0.68661,1.21623 -0.17833,3.14024 1.10978,4.20072c1.38525,1.14129 1.48476,1.52128 0.65873,2.5082c-1.56349,1.86855 -2.08345,1.88937 -5.35976,0.21527c-3.84735,-1.96678 -3.96732,-2.13439 -5.27595,-7.45216c-0.67661,-2.74884 -0.70509,-2.80197 -1.78714,-3.32206c-1.65199,-0.79402 -3.11726,-0.26297 -4.19805,1.52212c-1.1453,1.8906 -2.04557,2.66285 -3.63041,3.1114c-1.48454,0.42017 -3.25738,-0.1832 -3.62622,-1.23409c-0.11622,-0.33114 -0.05599,-2.0039 0.13405,-3.71739c1.05129,-9.47058 0.99626,-9.96947 -1.14358,-10.53616c-0.90852,-0.24028 -1.64744,-0.11237 -4.65071,0.80783c-2.17258,0.66504 -3.69215,0.99785 -3.88095,0.84871c-0.16949,-0.13455 -0.12999,-1.29098 0.08935,-2.56951c0.43057,-2.50864 1.81766,-5.18771 4.26835,-8.23901c2.09583,-2.6099 2.24631,-2.70062 4.77256,-2.86806z" data-paper-data="{&quot;wickUUID&quot;:&quot;507b2077-4d6a-4faf-b2eb-a9ad9e17314e&quot;,&quot;wickType&quot;:&quot;path&quot;,&quot;originalStyle&quot;:{&quot;strokeColor&quot;:null,&quot;fillColor&quot;:[&quot;Color&quot;,0,0,0],&quot;strokeWidth&quot;:1}}" id="507b2077-4d6a-4faf-b2eb-a9ad9e17314e" fill="#000000"/><path d="M398.63273,281.991c-1.10696,0.87211 -1.15548,1.50947 -0.29149,3.81462c0.37861,1.00902 1.30307,4.25123 2.05393,7.20434c0.75086,2.95311 1.43012,5.48107 1.50904,5.61883c0.24344,0.42236 -0.63938,0.21457 -3.3191,-0.78416c-3.88,-1.44584 -5.59464,-1.38327 -6.41053,0.23417c-0.73894,1.46617 0.54885,3.22633 2.46333,3.36579c0.33105,0.02412 2.39112,0.79405 4.57758,1.71093c5.28797,2.21704 5.99936,2.37888 7.2012,1.64091c1.24126,-0.76188 1.64388,-2.2229 1.15066,-4.17293c-4.1619,-16.4396 -4.68971,-18.10134 -5.99087,-18.85903c-1.01999,-0.59468 -1.99877,-0.51964 -2.94375,0.22653z" data-paper-data="{&quot;wickUUID&quot;:&quot;01d370d5-4ab6-4cd7-8d43-756a95650335&quot;,&quot;wickType&quot;:&quot;path&quot;,&quot;originalStyle&quot;:{&quot;strokeColor&quot;:null,&quot;fillColor&quot;:[&quot;Color&quot;,0,0,0],&quot;strokeWidth&quot;:1}}" id="01d370d5-4ab6-4cd7-8d43-756a95650335" fill="#000000"/></g><g data-paper-data="{&quot;wickUUID&quot;:&quot;99244c09-8c40-482d-b781-65d556971edc&quot;,&quot;wickType&quot;:&quot;clipsandpaths&quot;}" fill="none" fill-rule="nonzero" stroke="none" stroke-width="1" stroke-linecap="butt" stroke-linejoin="miter" stroke-miterlimit="10" stroke-dasharray="" stroke-dashoffset="0" font-family="sans-serif" font-weight="normal" font-size="12" text-anchor="start" style="mix-blend-mode: normal"/><g fill="none" fill-rule="nonzero" stroke="none" stroke-width="1" stroke-linecap="butt" stroke-linejoin="miter" stroke-miterlimit="10" stroke-dasharray="" stroke-dashoffset="0" font-family="sans-serif" font-weight="normal" font-size="12" text-anchor="start" style="mix-blend-mode: normal"/><g id="wick_project_gui" fill="none" fill-rule="nonzero" stroke="none" stroke-width="1" stroke-linecap="butt" stroke-linejoin="miter" stroke-miterlimit="10" stroke-dasharray="" stroke-dashoffset="0" font-family="sans-serif" font-weight="normal" font-size="12" text-anchor="start" style="mix-blend-mode: normal"/></g></svg>