<svg version="1.1" xmlns="http://www.w3.org/2000/svg" xmlns:xlink="http://www.w3.org/1999/xlink" width="1260" height="594" viewBox="0,0,1260,594"><g transform="translate(230.20498,30.46998) scale(1.11054,1.11054)"><g id="wick_project_bg" fill-opacity="0" fill="#ffffff" fill-rule="nonzero" stroke="none" stroke-width="1" stroke-linecap="butt" stroke-linejoin="miter" stroke-miterlimit="10" stroke-dasharray="" stroke-dashoffset="0" font-family="none" font-weight="none" font-size="none" text-anchor="none" style="mix-blend-mode: normal"><rect x="0" y="0" width="720" height="480"/></g><g data-paper-data="{&quot;wickUUID&quot;:&quot;17f3bc3c-7289-4332-9390-92848b3f06c6&quot;,&quot;wickType&quot;:&quot;clipsandpaths&quot;}" fill="none" fill-rule="evenodd" stroke="none" stroke-width="1" stroke-linecap="butt" stroke-linejoin="miter" stroke-miterlimit="10" stroke-dasharray="" stroke-dashoffset="0" font-family="none" font-weight="none" font-size="none" text-anchor="none" style="mix-blend-mode: normal"><path d="M385.45651,182.03659c-2.348,1.256 -3.259,3.022 -2.338,4.532c0.85,1.395 2.474,1.588 3.842,0.458c0.447,-0.369 1.05,-0.854 1.341,-1.077c1.392,-1.069 1.032,-3.396 -0.634,-4.092c-0.831,-0.348 -1.296,-0.31 -2.211,0.179z" data-paper-data="{&quot;wickUUID&quot;:&quot;afc0adf9-ba4f-4f7a-a699-43f3dd623654&quot;,&quot;wickType&quot;:&quot;path&quot;,&quot;originalStyle&quot;:{&quot;strokeColor&quot;:null,&quot;fillColor&quot;:[&quot;Color&quot;,1,0.50196,0],&quot;strokeWidth&quot;:1}}" fill="#ff8000"/><path d="M412.43197,167.89474c-9.35967,7.73167 -11.85911,9.93016 -19.55011,17.19649c-7.559,7.142 -8.40524,7.85603 -9.42224,7.85603c-0.74967,0 -0.07093,0.43714 -0.55193,-0.07486c-1.21467,-1.29333 -1.08547,-1.59336 1.62286,-5.34436c0.90533,-1.254 0.53369,-3.47771 0.44136,-3.57004c-0.22633,-0.226 -7.26289,3.52 -8.72756,4.65067c-0.64167,0.49533 -2.31733,1.60893 -3.60066,2.39193c-2.99767,1.829 -6.5034,4.69955 -10.85073,8.88088c-3.06333,2.946 -7.47144,7.90283 -7.47144,8.40183c0,0.09967 1.48464,1.24947 2.28064,0.90847c2.87933,-1.23433 6.41327,-1.83922 10.7746,-1.83222c3.69567,0.006 4.09742,0.04777 6.45942,0.87477c12.60067,4.41167 16.625,6.436 20.341,10.332c2.82533,2.96167 4.08316,6.1018 4.51549,10.87847c0.22467,2.487 -0.42182,16.33618 -0.85182,18.33251c-0.158,0.73333 -0.38393,1.73446 -0.52326,2.37613l0.79024,2.16948l1.95658,-1.68109c0.90433,-0.83967 3.30205,-2.64323 5.50972,-4.1219c7.41333,-4.96667 14.31381,-7.94008 21.81681,-9.40375l2.1237,-0.50617l0.93916,-2.20467c0.65267,-1.74467 2.06278,-7.01309 2.06278,-7.66042c0,-0.17767 -1.50891,-1.2629 -2.56324,-1.38857c-1.05433,-0.126 -3.08483,-0.58979 -4.47616,-1.02312c-2.92567,-0.91033 -8.4093,-2.00697 -11.6843,-2.34264c-2.667,-0.27333 -3.61133,-0.5246 -3.61133,-2.00127c0,-1.04867 1.645,-4.36137 3.41033,-7.12137c0.68067,-1.06367 2.46238,-3.33183 4.04705,-5.16516c1.58467,-1.83333 3.81313,-4.4852 4.9598,-5.90153l2.28092,-3.11258l-2.06179,-6.69087c-1.11167,-3.53367 -2.14204,-6.66849 -2.30904,-7.03516c-0.50767,-1.11333 -0.99982,-3.60395 -2.29049,-11.56928l-1.43105,-8.02623z" data-paper-data="{&quot;wickUUID&quot;:&quot;55473a13-e43c-44ac-b6b2-28d1a7ce8a64&quot;,&quot;wickType&quot;:&quot;path&quot;,&quot;originalStyle&quot;:{&quot;strokeColor&quot;:null,&quot;fillColor&quot;:[&quot;Color&quot;,1,0.50196,0],&quot;strokeWidth&quot;:1}}" fill="#ff8000"/><path d="M378.72483,224.01337c-0.403,0.149 -2.281,0.914 -4.173,1.701c-3.633,1.509 -4.241,1.887 -4.552,2.827c-0.499,1.514 0.768,3.258 2.367,3.258c0.254,0 2.019,-0.65 3.922,-1.444c1.904,-0.794 3.776,-1.562 4.16,-1.705c0.752,-0.281 1.509,-1.02 1.66,-1.621c0.16,-0.638 -0.025,-1.757 -0.37,-2.242c-0.648,-0.909 -1.828,-1.212 -3.014,-0.774z" data-paper-data="{&quot;wickUUID&quot;:&quot;3416e908-513d-4fc5-a5d6-290953a5f640&quot;,&quot;wickType&quot;:&quot;path&quot;,&quot;originalStyle&quot;:{&quot;strokeColor&quot;:null,&quot;fillColor&quot;:[&quot;Color&quot;,1,1,1],&quot;strokeWidth&quot;:1}}" fill="#ffffff"/><path d="M362.02616,211.29736c-2.997,0.68933 -5.85698,2.09605 -8.18831,4.03638c-2.59067,2.156 -4.33441,4.76059 -5.67741,8.42559c-1.143,3.11967 -1.17908,4.39228 -0.14808,10.87295c1.266,7.96033 2.6945,12.93126 4.23683,15.06026c1.925,2.65733 9.36131,7.62672 11.81731,7.85505c0.685,0.06333 1.86647,0.56604 2.33714,1.00837c0.80667,0.75867 1.15358,0.79675 7.88325,0.90075c5.72067,0.08833 7.34343,0.00776 8.9691,-0.45591c2.81833,-0.804 4.34033,-0.94583 5.204,-0.4835c0.659,0.35267 1.48011,-0.15487 2.01044,-0.8432c0.81833,-1.063 2.55178,-5.62552 3.61578,-9.49952c0.83,-3.02333 0.88715,-3.78071 0.90782,-12.05504c0.024,-9.684 -0.34697,-11.14421 -2.5193,-14.20021c-2.07533,-2.91867 -8.50254,-6.37527 -18.69487,-9.9566c-2.92533,-1.02767 -8.7237,-1.36237 -11.7537,-0.66537zM385.3118,220.51293c2.30567,2.30567 0.63209,3.78734 -6.00791,5.41267c-1.08967,0.26667 -1.3757,1.22576 -0.47837,1.78609c0.49133,0.307 0.72178,0.97848 0.72178,1.99081c0,1.10167 0.19184,1.50969 1.12751,2.54536c1.34133,1.48467 1.72851,1.77525 0.77018,3.34725c-0.76333,1.25167 -0.65045,1.11796 -6.30745,1.40963c-3.224,0.16633 -3.76906,0.27938 -4.15606,-0.04162c-0.84,-0.697 -1.13825,-1.82537 -1.13825,-3.67204c0,-1.87233 0.45406,-2.88629 2.47873,-3.95362c1.849,-0.975 -0.81351,-1.17479 -4.26418,0.19988c-2.88633,1.15 -3.64043,1.32926 -4.51176,1.06193c-0.97733,-0.3 -1.41626,-0.03209 -1.79893,1.02624c-0.22233,0.615 -0.67679,1.47646 -1.28246,2.11879c-1.3,1.37833 -1.82521,1.52359 -2.98354,0.43559c-0.636,-0.59767 -0.29868,-0.34476 -0.29868,-1.95476c0,-1.074 0.20501,-2.26442 0.48001,-2.92242c0.275,-0.65833 0.16194,-2.11321 0.16194,-2.15654c0,-0.04333 -1.50052,-0.34953 -3.14552,-0.5742c-3.547,-0.48467 -4.19603,-0.62114 -4.19603,-2.27081c0,-1.711 0.17704,-1.45148 2.27871,-1.45148c3.968,0 7.97845,1.14274 10.25745,2.88241c1.44833,1.10533 2.03954,1.16451 2.99087,0.77018c4.21167,-1.74567 16.69071,-5.59736 18.29171,-5.64603c0.62267,-0.01867 0.36625,-0.98731 1.01025,-0.34331zM371.63069,248.68619c2.69967,0.63633 3.70695,1.18468 4.84095,2.53268c1.14,1.35467 1.0999,1.92486 -0.25877,3.10486c-0.842,0.73133 -0.63095,0.54878 -4.42095,0.49378c-2.21767,-0.03233 -4.52277,0.04452 -5.27077,0.17319c-1.102,0.189 -1.26952,0.22404 -2.80952,-0.50429c-2.318,-1.09667 -2.9775,-0.73844 -2.7075,-2.40111c0.54833,-3.38 4.90256,-4.74878 10.62656,-3.39911z" data-paper-data="{&quot;wickUUID&quot;:&quot;2cb0533c-61c5-4293-9031-ff1cb85f1e6f&quot;,&quot;wickType&quot;:&quot;path&quot;,&quot;originalStyle&quot;:{&quot;strokeColor&quot;:null,&quot;fillColor&quot;:[&quot;Color&quot;,1,1,1],&quot;strokeWidth&quot;:1}}" fill="#ffffff"/><path d="M366.94276,264.27969c0.44333,1.45767 2.20731,12.81043 2.20731,14.21543c0,1.797 -0.45691,2.60457 -1.90124,3.9779c-0.86867,0.826 -1.02465,1.21188 -0.85565,2.11188c0.16133,0.86 -0.31761,2.28324 -2.46961,7.33291c-1.47267,3.455 -2.88152,6.92898 -3.06619,7.41831c-0.31433,0.83333 0.08872,1.71432 2.59272,4.10665c2.484,2.37333 2.95104,2.6801 3.49304,2.18943c1.345,-1.217 4.10067,-0.27669 4.10067,1.39664c0,0.594 0.53782,0.79331 3.68282,1.41998c1.97067,0.39233 4.69937,0.73379 5.79937,0.73312c1.989,-0.00167 7.75215,-0.81 8.32848,-1.16633c0.166,-0.10267 0.86415,-1.10942 0.97515,-1.80342c0.31033,-1.94167 1.92281,-4.18658 3.99281,-5.56091c1.45,-0.963 1.96832,-1.70926 1.85732,-2.26393c-0.07767,-0.38833 -0.22794,-2.67611 -0.33761,-4.65844c-0.54767,-9.91533 -2.8495,-20.39377 -5.8955,-26.84844c-0.96933,-2.054 -1.62043,-2.66244 -2.69376,-2.35477c-0.59167,0.16967 -2.9462,0.29078 -5.05553,0.29011c-3.179,-0.001 -3.89684,-0.09737 -4.75684,-0.62204c-0.66367,-0.40467 -1.99541,-0.71017 -3.67774,-0.84484c-1.446,-0.11567 -3.41995,-0.30225 -4.21562,-0.40158c-1.288,-0.16067 -2.26907,0.79101 -2.1044,1.33234z" data-paper-data="{&quot;wickUUID&quot;:&quot;597927cd-6cfc-4872-a222-f37908d603c1&quot;,&quot;wickType&quot;:&quot;path&quot;,&quot;originalStyle&quot;:{&quot;strokeColor&quot;:null,&quot;fillColor&quot;:[&quot;Color&quot;,0.50196,0,1],&quot;strokeWidth&quot;:1}}" fill="#8000ff"/><path d="M406.22323,374.96904c-0.082,0.082 -0.63315,2.18123 -0.56382,2.90923c0.14133,1.481 0.78523,1.88039 4.26523,2.76739c2.647,0.67467 4.91258,0.58004 5.55758,-0.14596c0.60067,-0.67567 1.60946,-4.64216 1.39579,-4.85583c-0.58133,-0.58133 -10.13811,-1.1915 -10.65478,-0.67483z" data-paper-data="{&quot;wickUUID&quot;:&quot;79249a74-69bf-4385-bea6-acaad7d89f9a&quot;,&quot;wickType&quot;:&quot;path&quot;,&quot;originalStyle&quot;:{&quot;strokeColor&quot;:null,&quot;fillColor&quot;:[&quot;Color&quot;,0,0,0],&quot;strokeWidth&quot;:1}}" fill="#000000"/><path d="M329.71773,288.81227c-2.792,1.561 -3.52544,2.3726 -4.01477,4.22793c-0.88933,3.371 -0.98106,5.46481 -0.21973,6.74914c0.38033,0.64167 1.17832,2.29802 1.64165,3.30635c1.58933,3.458 1.97744,4.03629 3.83177,6.11796c2.32033,2.605 4.42684,3.78358 5.92884,3.30891c0.58333,-0.18433 2.7745,-0.43475 4.33283,-0.55708c3.043,-0.23933 6.33609,-1.57873 6.85876,-2.5554c0.31167,-0.582 -0.11916,-2.07712 -2.77616,-5.23912c-0.356,-0.42367 -1.97107,-1.2112 -3.6904,-1.73553c-2.43033,-0.74133 -2.63319,-0.73316 -3.05686,-1.55216c-0.70233,-1.358 -0.74995,-0.84856 0.24405,-1.84256c0.81567,-0.81533 0.45688,-0.60496 2.65321,-0.40063l2.6265,0.13475l-0.29527,-2.32183c-0.33267,-0.57333 -1.32208,-1.76887 -2.19275,-2.64954c-0.87067,-0.881 -1.54354,-1.8326 -1.54354,-2.18393c0,-0.35133 -0.72253,-1.42784 -1.31853,-2.09951c-1.035,-1.167 -1.6092,-1.37413 -4.1572,-1.56446c-2.499,-0.187 -3.26273,-0.03196 -4.8524,0.85671z" data-paper-data="{&quot;wickUUID&quot;:&quot;7cc2b5e4-ad67-4782-bea1-282ab3ed485b&quot;,&quot;wickType&quot;:&quot;path&quot;,&quot;originalStyle&quot;:{&quot;strokeColor&quot;:null,&quot;fillColor&quot;:[&quot;Color&quot;,0,0,0],&quot;strokeWidth&quot;:1}}" fill="#000000"/><path d="M362.49655,206.91711c-4.376,0.802 -6.114,1.393 -8.411,2.858c-5.27,3.359 -8.521,7.455 -10.104,12.728c-0.591,1.968 -1.075,4.36 -1.075,5.314c0,5.236 2.755,19.021 4.475,22.394c1.476,2.891 5.788,6.684 10.508,9.243c2.328,1.262 4.822,2.539 5.54,2.837c2.146,0.891 6.877,1.73 9.755,1.73c2.232,0 2.842,0.136 3.537,0.789c0.74,0.695 1.321,0.796 4.875,0.84c3.928,0.049 4.122,0.012 7.325,-1.404c4.109,-1.816 5.233,-3.078 6.908,-7.757c3.056,-8.535 3.086,-8.696 3.456,-18.399c0.324,-8.49 0.301,-9.117 -0.444,-12.127c-1.036,-4.182 -2.239,-6.321 -4.999,-8.89c-2.793,-2.601 -7.4,-5.063 -13.622,-7.279c-2.565,-0.915 -5.587,-1.999 -6.716,-2.411c-3.063,-1.117 -6.633,-1.268 -11.008,-0.466zM376.30255,213.58011c12.264,4.577 15.859,7.082 17.419,12.137c0.751,2.435 0.815,3.341 0.736,10.319c-0.103,9.108 -0.347,10.701 -2.576,16.791c-2.087,5.701 -2.201,5.852 -3.743,4.967c-1.019,-0.585 -1.315,-0.606 -2.394,-0.172c-2.515,1.011 -4.369,1.239 -10.561,1.3c-7.444,0.073 -8.278,-0.123 -14.31,-3.356c-4.234,-2.27 -7.382,-4.907 -8.853,-7.417c-1.172,-2 -2.937,-9.564 -3.698,-15.845l-0.609,-5.037l0.936,-3.083c1.094,-3.602 3.17,-6.565 6.277,-8.962c3.493,-2.695 7.542,-3.844 12.981,-3.685c2.784,0.081 3.81,0.331 8.395,2.043z" data-paper-data="{&quot;wickUUID&quot;:&quot;4b37980d-159a-4e0d-9dcf-cfbb56c1dfae&quot;,&quot;wickType&quot;:&quot;path&quot;,&quot;originalStyle&quot;:{&quot;strokeColor&quot;:null,&quot;fillColor&quot;:[&quot;Color&quot;,0,0,0],&quot;strokeWidth&quot;:1}}" fill="#000000"/><path d="M412.73408,161.98889c-2.167,1.974 -5.933,5.123 -9.483,7.932c-1.97,1.558 -5.353,4.56 -7.517,6.67l-3.936,3.837l-0.21,-1.135c-0.149,-0.808 -0.414,-1.306 -0.919,-1.731c-1.378,-1.16 -2.934,-0.716 -7.239,2.07c-1.314,0.849 -3.194,1.9 -4.179,2.335c-2.148,0.949 -5.101,2.7 -6.09,3.613c-0.394,0.363 -1.361,1.009 -2.149,1.435c-3.396,1.836 -4.26,2.519 -10.269,8.12c-8.558,7.977 -12.195,12.83 -14.037,18.727c-0.881,2.824 -0.992,3.764 -0.546,4.628c0.473,0.913 1.038,1.223 2.233,1.223c1.107,0 2.106,-0.788 2.32,-1.831c0.417,-2.022 1.691,-5.384 2.655,-7.004c1.735,-2.917 3.227,-4.763 6.61,-8.184c6.556,-6.626 10.607,-10.029 13.968,-11.732c0.694,-0.352 1.661,-0.989 2.149,-1.416c1.309,-1.145 2.465,-1.835 5.783,-3.448c1.642,-0.798 3.334,-1.686 3.761,-1.972c0.427,-0.286 0.776,-0.417 0.776,-0.29c0,0.127 -1.032,1.558 -2.294,3.18c-2.506,3.221 -2.814,3.789 -2.594,4.791c0.196,0.891 1.398,1.875 2.291,1.875c0.774,0 2.119,-0.599 2.119,-0.943c0,-0.119 0.941,-1.045 2.09,-2.058c1.149,-1.014 4.884,-4.55 8.299,-7.858c3.566,-3.454 7.785,-7.269 9.911,-8.962c2.035,-1.621 5.119,-4.164 6.852,-5.652c1.733,-1.487 3.198,-2.624 3.254,-2.526c0.057,0.098 0.178,0.822 0.27,1.611c0.532,4.569 2.578,16.406 3.046,17.623c0.473,1.23 2.382,1.759 3.505,0.973c0.306,-0.214 0.703,-0.741 0.882,-1.17c0.292,-0.697 0.249,-1.199 -0.394,-4.686c-0.396,-2.147 -1.035,-6 -1.42,-8.561c-0.384,-2.562 -0.94,-5.974 -1.235,-7.583l-0.536,-2.925h-3.301h-3.302l-1.124,1.024z" data-paper-data="{&quot;wickUUID&quot;:&quot;c20fb239-dbf4-4a5a-9001-b151b5d660ad&quot;,&quot;wickType&quot;:&quot;path&quot;,&quot;originalStyle&quot;:{&quot;strokeColor&quot;:null,&quot;fillColor&quot;:[&quot;Color&quot;,0,0,0],&quot;strokeWidth&quot;:1}}" fill="#000000"/><path d="M415.61551,158.35195c-0.793,0.555 -3.249,3.184 -3.609,3.863c-0.665,1.252 0.243,2.939 1.79,3.327c0.335,0.084 0.958,-0.058 1.563,-0.358c1.193,-0.59 1.299,-0.492 1.515,1.4c0.082,0.724 0.402,2.874 0.711,4.778c0.309,1.905 0.631,4.108 0.716,4.896c0.197,1.828 0.779,4.255 1.329,5.539c0.803,1.876 2.885,2.259 4.144,0.763c0.739,-0.878 0.761,-1.457 0.126,-3.341c-0.267,-0.793 -0.643,-2.643 -0.837,-4.112c-0.193,-1.468 -0.553,-3.852 -0.801,-5.297c-0.248,-1.445 -0.576,-3.54 -0.73,-4.657c-0.574,-4.161 -0.913,-5.162 -2.173,-6.422c-0.639,-0.64 -0.912,-0.742 -1.983,-0.742c-0.726,0 -1.458,0.151 -1.761,0.363z" data-paper-data="{&quot;wickUUID&quot;:&quot;5c515f07-681f-46d1-a9e4-e0e89aeb96ea&quot;,&quot;wickType&quot;:&quot;path&quot;,&quot;originalStyle&quot;:{&quot;strokeColor&quot;:null,&quot;fillColor&quot;:[&quot;Color&quot;,0,0,0],&quot;strokeWidth&quot;:1}}" fill="#000000"/><path d="M419.76795,178.30033c-0.735,0.578 -1.208,2.104 -0.984,3.172c0.088,0.416 1.33,4.404 2.761,8.863c1.432,4.458 2.603,8.221 2.603,8.361c0,0.267 -5.626,7.109 -8.354,10.159c-2.179,2.437 -3.655,4.654 -5.085,7.639c-1.496,3.124 -1.565,4.051 -0.382,5.127c0.757,0.688 1.015,0.758 4.268,1.158c4.32,0.531 9.696,1.686 11.583,2.487c0.997,0.424 2.013,0.641 3.343,0.714c2.604,0.142 2.487,0.062 2.223,1.513c-0.434,2.391 -2.264,8.052 -2.79,8.632c-0.082,0.091 -1.471,0.39 -3.087,0.665c-3.846,0.654 -6.112,1.39 -9.927,3.225c-1.725,0.829 -3.527,1.67 -4.006,1.868c-1.153,0.478 -5.272,2.909 -6.109,3.606c-0.365,0.303 -1.63,1.172 -2.812,1.932c-1.292,0.829 -3.246,2.445 -4.896,4.048c-3.232,3.14 -3.701,3.487 -6.01,4.452c-2.094,0.875 -2.587,1.38 -2.587,2.65c0,1.206 0.308,1.768 1.23,2.245c1.01,0.522 1.874,0.318 4.752,-1.123c2.119,-1.06 2.756,-1.544 5.433,-4.127c3.476,-3.353 9.326,-7.485 12.944,-9.143c0.722,-0.331 2.521,-1.18 3.996,-1.887c3.743,-1.792 4.893,-2.16 9.328,-2.98c2.14,-0.395 4.137,-0.813 4.439,-0.928c0.655,-0.249 1.819,-1.575 1.819,-2.072c0,-0.194 0.323,-1.111 0.718,-2.038c0.957,-2.251 2.034,-6.003 2.537,-8.845c0.548,-3.096 0.331,-3.872 -1.467,-5.228c-1.258,-0.95 -1.373,-0.986 -3.765,-1.178c-1.817,-0.145 -2.836,-0.36 -3.864,-0.815c-0.768,-0.339 -1.836,-0.683 -2.375,-0.762c-0.538,-0.08 -1.749,-0.352 -2.691,-0.604c-0.942,-0.252 -2.861,-0.609 -4.265,-0.793c-1.403,-0.184 -2.607,-0.39 -2.674,-0.457c-0.316,-0.316 1.681,-3.22 4.122,-5.995c0.923,-1.051 2.981,-3.469 4.571,-5.374c1.59,-1.904 3.33,-3.946 3.867,-4.537c1.76,-1.94 1.777,-1.704 -0.69,-9.356c-1.199,-3.72 -2.548,-7.82 -2.998,-9.11c-0.449,-1.291 -0.817,-2.656 -0.817,-3.034c0,-2.136 -2.299,-3.391 -3.902,-2.13z" data-paper-data="{&quot;wickUUID&quot;:&quot;b7710d30-947a-42b9-b543-38870cc79d1a&quot;,&quot;wickType&quot;:&quot;path&quot;,&quot;originalStyle&quot;:{&quot;strokeColor&quot;:null,&quot;fillColor&quot;:[&quot;Color&quot;,0,0,0],&quot;strokeWidth&quot;:1}}" fill="#000000"/><path d="M365.96964,247.54363c-3.21,0.47 -5.123,1.792 -5.457,3.771c-0.285,1.686 0.476,2.671 2.977,3.853c1.725,0.816 3.172,0.947 4.006,0.363c0.454,-0.319 0.853,-0.336 2.79,-0.12c4.741,0.529 6.33,0.212 7.18,-1.43c1.171,-2.265 -0.673,-4.523 -4.663,-5.708c-1.344,-0.399 -4.978,-1.025 -5.45,-0.938c-0.089,0.016 -0.711,0.11 -1.383,0.209z" data-paper-data="{&quot;wickUUID&quot;:&quot;54d340a4-609c-44b0-a529-b20cd35893ae&quot;,&quot;wickType&quot;:&quot;path&quot;,&quot;originalStyle&quot;:{&quot;strokeColor&quot;:null,&quot;fillColor&quot;:[&quot;Color&quot;,0,0,0],&quot;strokeWidth&quot;:1}}" fill="#000000"/><path d="M383.43008,220.22919c-0.263,0.06 -1.875,0.528 -3.582,1.039c-1.708,0.51 -4.487,1.316 -6.177,1.79c-1.689,0.474 -4,1.245 -5.134,1.712c-1.135,0.468 -2.465,1.017 -2.956,1.22l-0.892,0.369l-1.138,-1.061c-1.488,-1.39 -3.68,-2.25 -7.055,-2.768c-3.877,-0.596 -5.238,-0.56 -6,0.155c-1.136,1.068 -0.958,3.15 0.329,3.839c0.256,0.137 1.96,0.451 3.786,0.698c3.86,0.522 4.921,0.935 6.705,2.609c0.979,0.918 1.57,1.27 2.45,1.459c1.282,0.275 0.885,0.391 6.29,-1.84c1.577,-0.65 4.371,-1.581 6.21,-2.068c1.838,-0.487 4.31,-1.194 5.492,-1.57c1.182,-0.376 2.633,-0.826 3.224,-0.999c2.601,-0.762 2.324,-4.195 -0.37,-4.591c-0.388,-0.057 -0.919,-0.054 -1.182,0.007z" data-paper-data="{&quot;wickUUID&quot;:&quot;d48a1dbd-bc89-4a59-a7ec-707f3458158d&quot;,&quot;wickType&quot;:&quot;path&quot;,&quot;originalStyle&quot;:{&quot;strokeColor&quot;:null,&quot;fillColor&quot;:[&quot;Color&quot;,0,0,0],&quot;strokeWidth&quot;:1}}" fill="#000000"/><path d="M374.11589,228.45057c-5.126,2.226 -5.693,3.036 -4.751,6.786c0.238,0.948 0.603,1.73 0.968,2.073c0.661,0.621 0.471,0.613 6.615,0.287c3.977,-0.21 4.032,-0.221 4.588,-0.868c0.704,-0.819 1.169,-2.322 0.967,-3.127c-0.161,-0.645 -1.706,-2.394 -2.271,-2.573c-0.273,-0.086 -0.279,-0.206 -0.038,-0.656c0.396,-0.742 0.136,-1.973 -0.554,-2.622c-1.052,-0.988 -1.875,-0.884 -5.524,0.7z" data-paper-data="{&quot;wickUUID&quot;:&quot;0f675288-03d1-4d2e-9817-e6359301a32b&quot;,&quot;wickType&quot;:&quot;path&quot;,&quot;originalStyle&quot;:{&quot;strokeColor&quot;:null,&quot;fillColor&quot;:[&quot;Color&quot;,0,0,0],&quot;strokeWidth&quot;:1}}" fill="#000000"/><path d="M358.33683,227.21594c-1.179,0.719 -1.893,2.597 -1.893,4.978c0,1.789 0.055,2.02 0.61,2.575c1.563,1.563 3.377,0.811 4.823,-1.998c1.06,-2.058 1.108,-2.81 0.272,-4.238c-0.996,-1.699 -2.393,-2.182 -3.812,-1.317z" data-paper-data="{&quot;wickUUID&quot;:&quot;9fe03a49-2589-47f2-9766-1bb3f3524128&quot;,&quot;wickType&quot;:&quot;path&quot;,&quot;originalStyle&quot;:{&quot;strokeColor&quot;:null,&quot;fillColor&quot;:[&quot;Color&quot;,0,0,0],&quot;strokeWidth&quot;:1}}" fill="#000000"/><path d="M363.60833,257.08313c-0.262,0.107 -0.692,0.435 -0.955,0.729c-0.726,0.811 -0.556,3.242 0.697,9.911c0.592,3.152 1.298,7.075 1.569,8.717c0.685,4.142 0.645,4.021 1.502,4.544c1.038,0.633 1.903,0.591 2.763,-0.133c1.282,-1.078 1.278,-1.132 -0.886,-12.77c-0.647,-3.481 -1.246,-6.973 -1.332,-7.761c-0.209,-1.921 -0.547,-2.701 -1.35,-3.116c-0.741,-0.383 -1.287,-0.416 -2.008,-0.121z" data-paper-data="{&quot;wickUUID&quot;:&quot;01bb804b-6772-4568-b601-1d681019a7c6&quot;,&quot;wickType&quot;:&quot;path&quot;,&quot;originalStyle&quot;:{&quot;strokeColor&quot;:null,&quot;fillColor&quot;:[&quot;Color&quot;,0,0,0],&quot;strokeWidth&quot;:1}}" fill="#000000"/><path d="M366.48952,277.42719c-0.254,0.154 -0.845,0.667 -1.314,1.139c-0.468,0.472 -1.195,1.151 -1.617,1.509c-1.218,1.032 -1.613,1.988 -1.605,3.887c0.008,1.91 0.417,2.761 1.555,3.232c1.568,0.65 3.218,-0.611 3.171,-2.423c-0.023,-0.865 0.102,-1.079 1.281,-2.194c2.127,-2.011 2.475,-3.189 1.32,-4.47c-0.735,-0.815 -2.042,-1.134 -2.791,-0.68z" data-paper-data="{&quot;wickUUID&quot;:&quot;001469e7-fd98-42e5-b94a-3f4862f7287b&quot;,&quot;wickType&quot;:&quot;path&quot;,&quot;originalStyle&quot;:{&quot;strokeColor&quot;:null,&quot;fillColor&quot;:[&quot;Color&quot;,0,0,0],&quot;strokeWidth&quot;:1}}" fill="#000000"/><path d="M387.87639,260.35088c-0.306,0.214 -0.704,0.743 -0.884,1.174c-0.423,1.012 -0.064,2.288 1.198,4.252c0.493,0.768 1.204,2.326 1.579,3.462c0.376,1.137 1.017,3.034 1.425,4.216c0.408,1.182 0.889,2.794 1.068,3.582c0.179,0.788 0.552,2.437 0.828,3.663c0.809,3.592 1.968,15.051 2.007,19.843l0.034,4.162l-1.705,0.871c-2.681,1.37 -4.942,2.049 -8.764,2.632c-3.215,0.49 -3.765,0.513 -5.92,0.252c-4.196,-0.508 -9.529,-1.785 -11.552,-2.766c-0.749,-0.363 -2.073,-1.464 -3.558,-2.957l-2.365,-2.378l0.318,-1.153c0.175,-0.635 0.666,-1.798 1.092,-2.586c0.426,-0.789 1.254,-2.723 1.84,-4.299c0.586,-1.576 1.41,-3.564 1.832,-4.418c1.03,-2.088 1.04,-3.206 0.034,-4.104c-0.802,-0.717 -2.03,-0.896 -2.911,-0.425c-0.595,0.319 -1.495,2.121 -3.213,6.439c-0.758,1.905 -1.727,4.162 -2.154,5.015c-0.426,0.854 -0.854,1.821 -0.952,2.15c-0.097,0.328 -0.444,1.112 -0.771,1.741c-0.939,1.804 -0.709,2.633 1.366,4.935c2.963,3.287 5.551,5.583 7.194,6.384c1.592,0.776 4.823,1.728 8.371,2.466c2.759,0.574 8.208,1.259 8.737,1.098c0.763,-0.232 5.984,-1.101 6.614,-1.101c0.963,0 3.331,-0.875 6.664,-2.461c3.296,-1.568 4.254,-2.37 4.685,-3.921c0.542,-1.953 0.207,-8.099 -1.063,-19.467c-0.727,-6.512 -2.242,-13.195 -3.833,-16.913c-0.312,-0.73 -0.74,-2.073 -0.95,-2.985c-0.26,-1.132 -0.711,-2.15 -1.422,-3.21c-0.573,-0.854 -1.178,-1.856 -1.344,-2.227c-0.558,-1.243 -2.407,-1.749 -3.525,-0.966z" data-paper-data="{&quot;wickUUID&quot;:&quot;001c2ed2-947a-46ff-b253-52ba6b704e78&quot;,&quot;wickType&quot;:&quot;path&quot;,&quot;originalStyle&quot;:{&quot;strokeColor&quot;:null,&quot;fillColor&quot;:[&quot;Color&quot;,0,0,0],&quot;strokeWidth&quot;:1}}" fill="#000000"/><path d="M388.9232,258.516c-0.747,0.305 -1.322,1.073 -1.465,1.954c-0.161,0.99 0.445,1.902 3.776,5.686c1.272,1.444 3.089,3.731 4.039,5.081c4.308,6.125 7.011,9.899 7.416,10.351c0.509,0.568 1.637,3.733 1.637,4.591c0,0.32 -0.426,1.994 -0.946,3.72c-0.52,1.726 -1.139,3.822 -1.376,4.657l-0.431,1.519l-2.912,1.26c-7.84,3.393 -9.858,5.979 -9.858,12.635c0,2.901 -0.003,2.919 -0.932,4.813c-0.512,1.046 -1.062,2.563 -1.221,3.372c-0.253,1.284 -0.236,1.61 0.129,2.567c0.492,1.287 1.831,2.584 3.102,3.004c1.002,0.33 2.968,0.207 4.282,-0.268c0.461,-0.166 0.903,-0.237 0.983,-0.157c0.08,0.08 -0.078,1.041 -0.351,2.136c-0.412,1.649 -0.457,2.229 -0.267,3.393c0.127,0.772 0.402,1.665 0.611,1.985c0.451,0.688 1.937,1.366 4.084,1.864c3.262,0.756 5.04,0.359 7.567,-1.69c1.383,-1.121 1.816,-1.34 2.866,-1.452c3.249,-0.346 5.6,-1.901 6.961,-4.602c0.441,-0.876 1.388,-2.189 2.105,-2.918c1.804,-1.832 2.474,-3.578 2.139,-5.576c-0.513,-3.067 -3.518,-9.351 -5.611,-11.733c-0.562,-0.64 -1.424,-1.667 -1.917,-2.282c-1.205,-1.508 -4.389,-3.871 -5.883,-4.367c-1.13,-0.376 -1.203,-0.447 -1.063,-1.041c0.303,-1.281 2.522,-8.516 2.735,-8.913c0.36,-0.674 0.25,-2.376 -0.27,-4.148c-0.268,-0.916 -0.628,-2.152 -0.799,-2.745c-0.193,-0.667 -1.129,-2.168 -2.459,-3.94c-1.181,-1.574 -3.419,-4.689 -4.973,-6.922c-2.622,-3.766 -3.949,-5.447 -7.716,-9.773c-1.913,-2.198 -2.68,-2.595 -3.982,-2.061z" data-paper-data="{&quot;wickUUID&quot;:&quot;0356fca0-9d48-47af-8d7e-22ad6ec78c7c&quot;,&quot;wickType&quot;:&quot;path&quot;,&quot;originalStyle&quot;:{&quot;strokeColor&quot;:null,&quot;fillColor&quot;:[&quot;Color&quot;,0,0,0],&quot;strokeWidth&quot;:1}}" fill="#000000"/><path d="M331.28396,283.61031c-2.581,0.538 -7.745,3.77 -8.724,5.461c-0.632,1.091 -1.771,5.482 -1.96,7.553c-0.209,2.294 0.328,4.317 1.678,6.324c0.574,0.853 1.231,2.143 1.458,2.865c0.228,0.723 0.623,1.729 0.878,2.237c1.04,2.069 7.38,8.629 8.945,9.256c0.372,0.148 1.643,0.298 2.825,0.333c2.299,0.067 3.234,-0.206 3.703,-1.082c0.22,-0.41 0.504,-0.475 2.097,-0.479c2,-0.004 4.626,-0.589 6.141,-1.367c1.354,-0.695 3.167,-2.356 3.683,-3.374c0.241,-0.477 0.512,-1.305 0.601,-1.84c0.274,-1.647 -0.635,-4.444 -1.778,-5.475c-0.292,-0.262 -0.982,-1.07 -1.534,-1.795l-1.004,-1.318l0.433,-0.712c0.492,-0.811 0.573,-2.918 0.178,-4.653c-0.135,-0.591 -0.667,-1.951 -1.184,-3.022c-0.84,-1.742 -1.094,-2.051 -2.404,-2.925c-0.805,-0.538 -1.593,-0.978 -1.751,-0.978c-0.158,0 -0.535,-0.441 -0.838,-0.981c-0.74,-1.317 -1.847,-2.549 -2.676,-2.977c-0.699,-0.362 -4.409,-1.034 -6.533,-1.184c-0.656,-0.046 -1.662,0.013 -2.234,0.133zM335.66796,288.71731c0.262,0.057 0.823,0.112 1.246,0.122c0.684,0.017 0.897,0.211 1.911,1.75c0.973,1.476 1.345,1.83 2.527,2.403c1.526,0.74 2.083,1.446 2.722,3.454c0.363,1.139 0.366,1.295 0.03,1.631c-0.336,0.335 -0.493,0.335 -1.641,-0.006c-2.452,-0.728 -4.031,-0.401 -4.738,0.98c-0.698,1.366 0.116,3.012 1.693,3.424c2.505,0.654 4.876,1.488 5.286,1.859c0.245,0.222 0.61,0.726 0.812,1.121c0.201,0.394 0.789,1.11 1.307,1.592c1.286,1.197 1.201,1.951 -0.336,2.978c-1.281,0.857 -3.219,1.277 -5.943,1.289c-1.124,0.005 -2.252,0.177 -3.085,0.47l-1.314,0.463l-1.48,-0.718c-1.226,-0.595 -1.85,-1.149 -3.635,-3.224c-1.793,-2.086 -2.233,-2.763 -2.629,-4.043c-0.575,-1.862 -1.054,-2.818 -2.009,-4.007c-1.157,-1.44 -1.134,-3.261 0.099,-7.874c0.199,-0.744 0.54,-1.097 2.037,-2.107c2.434,-1.643 3.221,-1.916 5.11,-1.777c0.853,0.063 1.767,0.162 2.03,0.22z" data-paper-data="{&quot;wickUUID&quot;:&quot;529e62b6-9bee-4b55-9dba-390340afaa94&quot;,&quot;wickType&quot;:&quot;path&quot;,&quot;originalStyle&quot;:{&quot;strokeColor&quot;:null,&quot;fillColor&quot;:[&quot;Color&quot;,0,0,0],&quot;strokeWidth&quot;:1}}" fill="#000000"/><path d="M341.0409,289.50381c-0.709,0.26 -1.428,1.117 -1.57,1.871c-0.189,1.011 0.368,2.068 1.44,2.731c0.881,0.544 3.241,3.69 3.834,5.111c0.221,0.527 0.329,1.464 0.293,2.54c-0.055,1.653 -0.033,1.726 0.723,2.403c1.304,1.168 3.265,0.817 3.834,-0.686c0.7,-1.848 0.489,-4.659 -0.497,-6.616c-0.763,-1.515 -3.462,-5.282 -4.275,-5.966c-1.469,-1.236 -2.831,-1.735 -3.782,-1.388z" data-paper-data="{&quot;wickUUID&quot;:&quot;d9469be8-9c4a-4c0a-bbcb-178920276b82&quot;,&quot;wickType&quot;:&quot;path&quot;,&quot;originalStyle&quot;:{&quot;strokeColor&quot;:null,&quot;fillColor&quot;:[&quot;Color&quot;,0,0,0],&quot;strokeWidth&quot;:1}}" fill="#000000"/><path d="M363.06233,261.51013c-1.445,0.638 -1.855,2.791 -1.103,5.791c0.636,2.534 0.073,7.977 -1.324,12.805c-0.871,3.012 -3.465,7.187 -5.998,9.653c-0.453,0.441 -1.328,0.94 -2.006,1.143c-1.975,0.592 -5.419,1.299 -6.325,1.3c-0.466,0 -1.223,0.188 -1.683,0.418c-2.216,1.107 -1.621,4.186 0.872,4.52c0.538,0.072 2.16,-0.133 3.904,-0.493c6.072,-1.254 6.902,-1.601 9.003,-3.765c4.43,-4.562 7.022,-9.757 8.084,-16.204c0.184,-1.116 0.456,-2.621 0.606,-3.343c0.302,-1.456 0.14,-5.755 -0.256,-6.796c-0.133,-0.351 -0.243,-1.215 -0.243,-1.921c0,-1.568 -0.284,-2.371 -1.004,-2.837c-0.864,-0.559 -1.678,-0.646 -2.527,-0.271z" data-paper-data="{&quot;wickUUID&quot;:&quot;5ea9a77f-c795-4b6c-8b5b-da2e4466abf8&quot;,&quot;wickType&quot;:&quot;path&quot;,&quot;originalStyle&quot;:{&quot;strokeColor&quot;:null,&quot;fillColor&quot;:[&quot;Color&quot;,0,0,0],&quot;strokeWidth&quot;:1}}" fill="#000000"/><path d="M344.63339,356.59849c-1.496,0.523 -2.398,1.281 -3.278,2.752c-1.814,3.035 -0.913,5.908 2.374,7.565c3.63,1.829 5.261,1.595 11.317,-1.628c4.576,-2.436 4.774,-2.643 4.567,-4.796c-0.205,-2.134 -1.181,-2.689 -5.442,-3.095c-1.337,-0.127 -3.342,-0.448 -4.456,-0.712c-2.399,-0.57 -3.639,-0.591 -5.082,-0.086z" data-paper-data="{&quot;wickUUID&quot;:&quot;791ac6ff-9fcc-4f96-b76d-019039ede781&quot;,&quot;wickType&quot;:&quot;path&quot;,&quot;originalStyle&quot;:{&quot;strokeColor&quot;:null,&quot;fillColor&quot;:[&quot;Color&quot;,0,0,0],&quot;strokeWidth&quot;:1}}" fill="#000000"/><path d="M366.80296,305.40637c-0.588,0.564 -1.596,1.773 -2.239,2.686c-1.6,2.274 -5.302,7.111 -6.663,8.705c-1.689,1.979 -2.092,3.576 -2.887,11.465c-0.813,8.056 -1.035,15.676 -0.876,29.935l0.038,3.307l0.812,0.812c0.916,0.916 1.719,1.037 2.772,0.415c0.371,-0.219 0.794,-0.662 0.941,-0.984c0.185,-0.407 0.261,-3.828 0.249,-11.125c-0.02,-12.111 0.29,-18.101 1.336,-25.823c0.434,-3.206 0.705,-4.268 1.192,-4.672c0.489,-0.407 5.353,-6.691 7.242,-9.358c0.813,-1.15 1.579,-2.09 1.7,-2.09c0.122,0 0.385,-0.317 0.586,-0.705c0.93,-1.798 -0.11,-3.594 -2.082,-3.594c-0.912,0 -1.192,0.135 -2.121,1.026z" data-paper-data="{&quot;wickUUID&quot;:&quot;6e717800-29b5-427b-86fe-abdd40e0ee5c&quot;,&quot;wickType&quot;:&quot;path&quot;,&quot;originalStyle&quot;:{&quot;strokeColor&quot;:null,&quot;fillColor&quot;:[&quot;Color&quot;,0,0,0],&quot;strokeWidth&quot;:1}}" fill="#000000"/><path d="M393.99714,319.20655c-0.23,0.134 -0.582,0.561 -0.783,0.95c-0.329,0.637 -0.328,1.002 0.012,3.63c0.535,4.135 1.23,7.968 2.033,11.205c0.38,1.534 0.757,3.522 0.837,4.418c0.079,0.896 0.305,2.714 0.5,4.041c0.207,1.403 0.325,3.55 0.282,5.134c-0.119,4.382 0.988,15.163 1.837,17.887c0.185,0.592 0.504,1.989 0.709,3.105c0.206,1.117 0.686,3.158 1.067,4.537c0.381,1.38 0.766,3.36 0.855,4.401c0.168,1.953 0.381,2.668 1.115,3.752c0.476,0.703 2.525,1.472 6.554,2.459c3.403,0.833 4.39,0.934 5.969,0.608c2.735,-0.564 4.036,-1.633 5.458,-4.483c1.509,-3.023 1.672,-5.298 0.527,-7.333c-1.082,-1.921 -3.83,-2.726 -9.961,-2.916c-3.453,-0.107 -4.063,-0.069 -4.895,0.307c-0.523,0.236 -1.051,0.436 -1.174,0.444c-0.291,0.02 -1.417,-5.175 -2.171,-10.015c-0.672,-4.312 -1.082,-9.395 -1.156,-14.329c-0.062,-4.177 -0.671,-9.164 -1.573,-12.896c-0.822,-3.398 -1.576,-7.66 -1.796,-10.149c-0.333,-3.771 -1.043,-5.021 -2.845,-5.008c-0.541,0.004 -1.171,0.117 -1.401,0.251zM414.25214,375.69655c2.365,0.368 2.492,0.417 2.492,0.962c0,0.79 -1.327,3.353 -1.893,3.656c-0.979,0.523 -3.698,0.155 -7.092,-0.962c-1.385,-0.456 -1.471,-0.529 -1.61,-1.367c-0.08,-0.488 -0.147,-1.229 -0.149,-1.649c-0.002,-0.724 0.049,-0.767 1.013,-0.854c2.446,-0.22 4.923,-0.147 7.239,0.214z" data-paper-data="{&quot;wickUUID&quot;:&quot;09756112-aec8-43a2-8d49-6d1a83d835f3&quot;,&quot;wickType&quot;:&quot;path&quot;,&quot;originalStyle&quot;:{&quot;strokeColor&quot;:null,&quot;fillColor&quot;:[&quot;Color&quot;,0,0,0],&quot;strokeWidth&quot;:1}}" fill="#000000"/></g><g data-paper-data="{&quot;wickUUID&quot;:&quot;99244c09-8c40-482d-b781-65d556971edc&quot;,&quot;wickType&quot;:&quot;clipsandpaths&quot;}" fill="none" fill-rule="nonzero" stroke="none" stroke-width="1" stroke-linecap="butt" stroke-linejoin="miter" stroke-miterlimit="10" stroke-dasharray="" stroke-dashoffset="0" font-family="sans-serif" font-weight="normal" font-size="12" text-anchor="start" style="mix-blend-mode: normal"/><g fill="none" fill-rule="nonzero" stroke="none" stroke-width="1" stroke-linecap="butt" stroke-linejoin="miter" stroke-miterlimit="10" stroke-dasharray="" stroke-dashoffset="0" font-family="sans-serif" font-weight="normal" font-size="12" text-anchor="start" style="mix-blend-mode: normal"/><g id="wick_project_gui" fill="none" fill-rule="nonzero" stroke="none" stroke-width="1" stroke-linecap="butt" stroke-linejoin="miter" stroke-miterlimit="10" stroke-dasharray="" stroke-dashoffset="0" font-family="sans-serif" font-weight="normal" font-size="12" text-anchor="start" style="mix-blend-mode: normal"/></g></svg>