<svg version="1.1" xmlns="http://www.w3.org/2000/svg" xmlns:xlink="http://www.w3.org/1999/xlink" width="1260" height="594" viewBox="0,0,1260,594"><g transform="translate(230.20498,30.46998) scale(1.11054,1.11054)"><g id="wick_project_bg" fill-opacity="0" fill="#ffffff" fill-rule="nonzero" stroke="none" stroke-width="1" stroke-linecap="butt" stroke-linejoin="miter" stroke-miterlimit="10" stroke-dasharray="" stroke-dashoffset="0" font-family="none" font-weight="none" font-size="none" text-anchor="none" style="mix-blend-mode: normal"><rect x="0" y="0" width="720" height="480"/></g><g data-paper-data="{&quot;wickUUID&quot;:&quot;7201473b-49bf-4697-a742-4d7fec4c4ec6&quot;,&quot;wickType&quot;:&quot;clipsandpaths&quot;}" fill="none" fill-rule="evenodd" stroke="none" stroke-width="1" stroke-linecap="butt" stroke-linejoin="miter" stroke-miterlimit="10" stroke-dasharray="" stroke-dashoffset="0" font-family="none" font-weight="none" font-size="none" text-anchor="none" style="mix-blend-mode: normal"><path d="M408.4357,374.29308c-1.31267,0.24733 -3.67997,0.89863 -4.6123,1.2083c-1.87433,0.62267 -1.86255,2.2245 -0.19122,3.89583c0.88933,0.88933 3.00045,1.45098 5.84378,1.45098c1.06733,0 1.99104,-0.25378 2.57537,-0.83811c0.553,-0.553 1.34975,-0.85721 2.68042,-1.02354c1.177,-0.147 2.42794,-0.99481 2.42794,-1.25581c0,-0.231 -1.19628,-1.92789 -1.94995,-2.53356c-1.64167,-1.31933 -3.35304,-1.54909 -6.77404,-0.90409z" data-paper-data="{&quot;wickUUID&quot;:&quot;e4a312ba-29e1-4edf-9d06-fb2afdd6ef1d&quot;,&quot;wickType&quot;:&quot;path&quot;,&quot;originalStyle&quot;:{&quot;strokeColor&quot;:null,&quot;fillColor&quot;:[&quot;Color&quot;,0,0,0],&quot;strokeWidth&quot;:1}}" fill="#000000"/><path d="M360.08784,288.4437c-0.08033,1.42667 0.09965,3.34366 0.12965,3.38999c0.03,0.04633 1.54921,0.03258 2.63354,-0.35709c4.171,-1.49933 14.44208,-1.06207 21.71941,0.9266c1.74167,0.47567 4.58813,1.47731 6.55146,2.27764c1.96333,0.8 4.20187,1.49064 4.45787,1.49064c0.33133,0 1.23324,-1.43313 1.38457,-3.03513c0.313,-3.31333 0.20215,-7.45546 -0.15485,-7.45546c-0.17133,0 -2.25826,-0.30715 -3.50793,-0.04715c-1.24933,0.26 -4.21087,0.71965 -6.5942,1.02365c-2.38333,0.30367 -4.93009,0.67677 -5.79276,0.83977c-2.04167,0.38633 -9.14201,0.00885 -10.00601,-0.53082c-0.36667,-0.22933 -1.71538,-0.50905 -3.09038,-0.63472c-2.3,-0.20967 -5.018,-0.61107 -6.37133,-1.02007c-0.46567,-0.14067 -1.23471,0.92148 -1.35904,3.13215z" data-paper-data="{&quot;wickUUID&quot;:&quot;afc8945b-38d5-44f0-ba89-997d6461b5dd&quot;,&quot;wickType&quot;:&quot;path&quot;,&quot;originalStyle&quot;:{&quot;strokeColor&quot;:null,&quot;fillColor&quot;:[&quot;Color&quot;,0.50196,0,1],&quot;strokeWidth&quot;:1}}" fill="#8000ff"/><path d="M361.40809,343.72262c-4.81433,1.22 -7.53219,2.31145 -8.27786,3.12545c-1.66633,1.81967 -3.70151,7.43137 -3.31451,9.27404l0.77413,2.17922l3.16552,-0.03443c2.04367,-0.05633 3.67734,-0.52041 4.76767,-1.04808c2.797,-1.35433 6.60698,-7.27741 7.07498,-11.02274c0.125,-0.99867 -0.26194,-3.07144 -0.32994,-3.13744c-0.068,-0.06567 -2.11832,0.22298 -3.85999,0.66398z" data-paper-data="{&quot;wickUUID&quot;:&quot;f7652766-6e37-445b-94db-661d73d1d484&quot;,&quot;wickType&quot;:&quot;path&quot;,&quot;originalStyle&quot;:{&quot;strokeColor&quot;:null,&quot;fillColor&quot;:[&quot;Color&quot;,0,0,0],&quot;strokeWidth&quot;:1}}" fill="#000000"/><path d="M350.99493,253.26496c-1.61845,1.10352 -3.61377,3.30405 -3.68213,4.13463c-0.03729,0.44815 0.4232,1.66144 1.23352,2.16558c1.25166,0.77888 1.73623,0.86326 1.0607,1.41377c-0.2039,0.16615 -1.0577,0.00595 -2.51826,0.04532c-3.07699,0.08287 -4.68274,0.56778 -4.94494,1.4864c-0.10241,0.35795 -0.82289,1.64999 -0.97846,1.72941c-0.31948,0.16318 0.70041,2.85748 1.51257,4.03567c0.47321,0.68665 1.3912,1.09976 2.63348,0.92975c0.77421,-0.10577 3.26318,-0.33133 5.18692,-0.45539c6.52542,-0.42173 7.97728,-1.33379 7.84021,-3.70364c-0.12474,-2.15214 -1.63273,-8.25251 -2.63522,-10.3126c-1.02539,-2.1064 -2.88,-2.71534 -4.70839,-1.4689z" data-paper-data="{&quot;wickUUID&quot;:&quot;a066cc9d-7c4e-4dd1-964e-2858c27732ae&quot;,&quot;wickType&quot;:&quot;path&quot;,&quot;originalStyle&quot;:{&quot;strokeColor&quot;:null,&quot;fillColor&quot;:[&quot;Color&quot;,1,1,1],&quot;strokeWidth&quot;:1}}" id="a066cc9d-7c4e-4dd1-964e-2858c27732ae" fill="#ffffff"/><path d="M423.22885,179.68006c-7.75102,1.94689 -15.66281,4.53412 -24.03821,7.85568c-6.51564,2.58399 -8.22579,3.59088 -10.1769,6.05013c-1.87873,2.36777 -2.106,2.70049 -3.70686,2.57135c-1.24738,-0.10063 -1.50302,-0.79773 -1.39022,-2.1411c0.04178,-0.49761 0.59243,-1.3762 1.25052,-2.40668c1.38585,-2.16974 1.48946,-2.82573 0.88928,-4.69316c-0.30013,-0.93321 -1.53681,-2.26707 -2.08963,-2.44879c-1.04539,-0.34351 -10.32492,0.50401 -11.64094,1.03026c-1.33544,0.53371 -2.45731,1.88942 -14.86627,18.50893c-5.89386,7.89387 -12.24434,16.27061 -14.10311,18.60387c-1.85913,2.33323 -3.89505,5.07022 -4.39092,5.84659c-0.95862,1.50222 -1.10314,2.8016 -0.58085,6.53292l1.5681,2.55207l3.71756,-3.97181c1.92946,-2.0978 4.6518,-4.79325 6.17299,-6.09725c2.69717,-2.31277 2.50243,-2.23201 5.83031,-2.97054c5.5101,-1.223 9.05281,-1.53563 13.46676,-1.18424c4.84864,0.38613 13.46758,1.79121 16.1088,2.68453c7.01269,2.37168 11.75177,7.7245 16.08455,18.10316c2.53071,6.06251 3.35381,9.60491 3.37855,14.04558c0.01128,2.02426 0.031,4.20989 0.06024,5.01758l1.37708,2.19449l2.29548,-2.81385c8.63494,-10.99872 8.10172,-10.46148 10.69232,-11.46349c2.898,-1.12069 7.2752,-2.44224 11.6856,-3.55697c3.72873,-0.94264 3.76574,-0.95847 5.28111,-6.32803c1.14501,-4.05767 0.5363,-5.11121 -1.39032,-5.26363c-3.05911,-0.24176 -8.12741,-0.01752 -14.7433,0.7153c-6.10532,0.67602 -6.40239,0.71283 -7.23483,0.17378c-0.75722,-0.49017 -0.25881,0.21162 -0.23461,-1.16197c0.03627,-2.08096 0.69411,-3.58323 4.16477,-9.49403c3.66273,-6.23845 6.79165,-10.37227 10.526,-13.91739l3.08712,-2.9613l0.0953,-2.4848c-0.01398,-1.13018 -0.01087,-4.19654 0.00799,-6.77019c0.05158,-7.11469 -0.5312,-16.43061 -1.20553,-19.2876c-0.15996,-0.67609 -1.30519,-1.89246 -1.65837,-1.91627c-0.31788,-0.02163 -2.43274,0.38062 -4.28956,0.84687z" data-paper-data="{&quot;wickUUID&quot;:&quot;a36a9942-d914-420b-9d1f-a4fdf2ecb6a9&quot;,&quot;wickType&quot;:&quot;path&quot;,&quot;originalStyle&quot;:{&quot;strokeColor&quot;:null,&quot;fillColor&quot;:[&quot;Color&quot;,1,0.50196,0],&quot;strokeWidth&quot;:1}}" id="a36a9942-d914-420b-9d1f-a4fdf2ecb6a9" fill="#ff8000"/><path d="M389.20688,274.77692c-0.0091,0.1083 0.20174,2.12661 0.75114,3.29364l1.22155,2.4207l2.08325,-1.20451c0.8736,-1.01177 0.74023,-2.74624 -0.126,-3.38834c-0.82595,-0.6121 -3.90455,-1.42378 -3.92994,-1.12149z" data-paper-data="{&quot;wickUUID&quot;:&quot;b6792301-7fa8-48ee-8399-bcb66ad5c4b4&quot;,&quot;wickType&quot;:&quot;path&quot;,&quot;originalStyle&quot;:{&quot;strokeColor&quot;:null,&quot;fillColor&quot;:[&quot;Color&quot;,1,1,1],&quot;strokeWidth&quot;:1}}" id="b6792301-7fa8-48ee-8399-bcb66ad5c4b4" fill="#ffffff"/><path d="M380.8178,274.18119c-1.77395,0.46558 -2.00183,1.21703 -1.39831,4.90073l0.79909,3.12411l3.1765,-0.58587c1.34597,-0.36498 3.02246,-1.31876 3.0327,-1.44066c0.0102,-0.12158 -0.57096,-2.03824 -1.25692,-3.55507l-1.47672,-3.0686z" data-paper-data="{&quot;wickUUID&quot;:&quot;e9df676f-820f-4d1b-80ee-69aec296004f&quot;,&quot;wickType&quot;:&quot;path&quot;,&quot;originalStyle&quot;:{&quot;strokeColor&quot;:null,&quot;fillColor&quot;:[&quot;Color&quot;,1,1,1],&quot;strokeWidth&quot;:1}}" id="e9df676f-820f-4d1b-80ee-69aec296004f" fill="#ffffff"/><path d="M372.55408,277.79201c-1.73768,1.93936 -2.39936,4.02064 -1.81688,4.44989c0.34826,0.25652 4.61295,0.68261 5.00055,0.45402c0.03366,-0.01969 0.22974,-1.9659 0.0193,-3.36243l-0.70097,-3.08738z" data-paper-data="{&quot;wickUUID&quot;:&quot;f515186e-8846-42ab-b5d6-65434690410a&quot;,&quot;wickType&quot;:&quot;path&quot;,&quot;originalStyle&quot;:{&quot;strokeColor&quot;:null,&quot;fillColor&quot;:[&quot;Color&quot;,1,1,1],&quot;strokeWidth&quot;:1}}" id="f515186e-8846-42ab-b5d6-65434690410a" fill="#ffffff"/><path d="M364.74842,226.75912c-3.78601,0.28252 -8.98212,1.16496 -10.39977,1.72081c-1.21693,0.47706 -6.21293,5.41234 -9.64631,9.56568c-1.56158,1.88868 -2.3834,3.33613 -3.31555,5.8739c-1.69198,4.60584 -2.23335,6.65807 -2.43376,9.04484c-0.17776,2.11704 0.59608,7.63655 1.39496,9.86783c0.41595,1.16128 1.89418,1.65657 1.99313,0.80137c0.05664,-0.48806 0.07182,-0.92878 0.37691,-1.1774c0.62248,-0.50696 3.26036,-0.88714 5.20419,-0.76578c0.7046,0.0438 1.97455,-0.15425 2.34141,-0.26011c0.53762,-0.15496 0.61116,-1.47368 -0.5103,-1.89758c-1.67748,-0.63363 -2.29713,-1.249 -1.85787,-2.49481c0.17122,-0.4855 0.99542,-1.17727 2.22958,-2.25326c1.97436,-1.72127 2.06118,-1.78324 3.18417,-1.69265c0.70179,0.05661 0.51402,-0.12761 0.80962,0.12632c0.74729,0.64153 2.36782,4.84651 3.09778,8.28389c1.22571,5.77362 1.06831,5.87967 -5.27231,6.55342c-2.4132,0.25649 -4.78588,0.27072 -5.83216,0.19869l-2.75773,0.64763l2.13103,2.57947c5.53821,5.71316 10.09775,8.64276 14.87531,9.56059c1.46324,0.28091 3.62275,0.7401 4.0801,0.89037c0.7634,0.25087 1.44332,-0.18105 2.21167,-1.88657c1.04075,-2.31062 3.01782,-4.87559 4.8173,-6.1548c1.52497,-1.08397 6.39265,-2.96844 9.92774,-3.8421c3.3035,-0.81675 6.56742,-0.50161 10.15134,0.96808c3.05761,1.25398 4.92999,2.61193 5.75997,4.07517l1.58243,1.05386l1.08585,-2.2305c0.38274,-0.9497 0.81038,-2.92921 0.91593,-4.1862c0.28253,-3.36473 0.32341,-11.96232 0.07066,-14.10204c-0.22652,-1.91755 -1.91178,-7.60252 -3.06451,-10.30546l-1.1019,-2.04993l-1.4003,0.6901c-1.08966,0.94585 -1.72825,0.90682 -4.03071,-0.19695c-1.46976,-0.70451 -2.33984,-0.85594 -4.50783,-0.86396c-3.58547,-0.01366 -7.87563,0.67297 -8.94414,1.31317c-1.33188,0.79787 -3.34064,3.83076 -6.65501,10.27891c-3.3331,6.48476 -4.21394,8.00859 -5.51493,8.68722c-1.35519,0.7067 -1.45597,0.17728 -3.88662,-2.48227l-1.88522,-2.03252l0.23448,-1.86235c0.16083,-1.9154 -0.1214,-2.65195 -1.53554,-5.15826c-2.57263,-4.56059 -4.75069,-6.27823 -7.95472,-6.21932c-1.76019,0.03225 -1.87838,0.02261 -2.75317,-0.969c-0.75313,-0.8537 -0.71501,-0.1692 -0.47599,-0.87799c0.38706,-1.15035 0.34358,-1.53312 2.15189,-1.84844c4.32483,-0.75442 9.11084,2.6259 12.85981,9.06126c1.42724,2.44985 1.61514,3.14613 1.67701,4.48084l1.58522,2.04671l1.67731,-3.59159c3.8688,-8.43145 7.09974,-12.49234 10.83459,-13.50372c2.60466,-0.70558 5.51176,-0.94155 8.9323,-0.93985c2.56791,0.00148 4.3264,0.43982 6.75311,1.63822c0.37074,0.18342 1.17998,-1.3251 0.87706,-2.00136c-1.42529,-3.18143 -4.56195,-6.2954 -8.41469,-8.39177c-1.94685,-1.05903 -3.39747,-1.5273 -7.41843,-2.24598c-7.69507,-1.37525 -11.22524,-1.74969 -14.25439,-1.52383zM384.43067,246.83415c1.54067,0.90821 2.21007,1.71246 2.11136,2.88807c-0.06421,0.76469 -1.26999,3.94502 -2.10851,5.62447c-0.17318,0.34722 1.19747,1.24515 2.67839,0.86395c1.04819,-0.26961 3.08571,-0.63218 4.86353,-0.79577c4.56567,-0.41996 4.85587,-0.37562 5.9559,2.56956c1.04661,2.80241 1.16045,3.07077 -0.11506,3.88089c-1.39015,0.88281 -5.46714,1.90641 -12.01506,3.10991c-3.17503,0.58365 -7.02357,1.39582 -8.8075,1.83517c-3.8673,0.9522 -3.68609,1.26646 -5.08138,-1.28617c-1.31325,-2.40286 -1.07794,-2.84293 1.53663,-7.05964c1.21197,-1.95501 2.9073,-4.96024 3.88445,-6.90275c1.85449,-3.68674 3.39956,-5.58916 4.77074,-5.72403c0.9902,-0.09704 0.80108,0.09706 2.32651,0.99634z" data-paper-data="{&quot;wickUUID&quot;:&quot;3180113a-b6cf-474a-9c7d-e650d33d41db&quot;,&quot;wickType&quot;:&quot;path&quot;,&quot;originalStyle&quot;:{&quot;strokeColor&quot;:null,&quot;fillColor&quot;:[&quot;Color&quot;,1,1,1],&quot;strokeWidth&quot;:1}}" id="3180113a-b6cf-474a-9c7d-e650d33d41db" fill="#ffffff"/><path d="M383.84902,268.88433c-3.9408,0.59712 -9.90158,2.5804 -12.58925,4.18761c-2.50539,1.49951 -5.50621,6.10244 -6.22454,9.54906c-0.29032,1.39427 -0.2503,1.85001 0.22383,2.51733c0.5786,0.81522 2.17372,1.24488 11.72805,3.16041c2.73114,0.5474 11.66806,-1.30816 15.66664,-3.25208c4.80918,-2.33804 5.73979,-3.61444 5.68498,-7.79667c-0.02511,-1.91334 -0.17256,-2.40683 -1.04764,-3.50682c-1.14885,-1.44414 -4.89323,-3.39765 -8.53473,-4.45092c-2.5502,-0.73848 -2.66423,-0.74769 -4.90734,-0.40792zM387.96095,274.12927c0.98385,0.33922 2.56937,0.99487 3.52185,1.45899c1.71851,0.83694 1.7316,0.85505 1.6147,2.24725c-0.10986,1.30849 -0.23062,1.4663 -1.79419,2.32643c-3.03634,1.67038 -10.00713,3.41467 -12.86384,3.21933c-1.47971,-0.10131 -7.41157,-1.29619 -7.67756,-1.54641c-0.06867,-0.06473 0.44003,-1.02701 1.13133,-2.1381c1.75322,-2.82036 3.76727,-3.89998 10.05835,-5.39209c4.11458,-0.97639 3.71492,-0.96448 6.00936,-0.1754z" data-paper-data="{&quot;wickUUID&quot;:&quot;75324de4-f85e-4e37-b03f-383d7a54f366&quot;,&quot;wickType&quot;:&quot;path&quot;,&quot;originalStyle&quot;:{&quot;strokeColor&quot;:null,&quot;fillColor&quot;:[&quot;Color&quot;,0,0,0],&quot;strokeWidth&quot;:1}}" id="75324de4-f85e-4e37-b03f-383d7a54f366" fill="#000000"/><path d="M375.67091,273.44205c-0.91312,0.74505 -0.95377,0.88122 -0.91495,3.1408c0.02146,1.29801 0.19751,2.9426 0.3915,3.65255c0.19287,0.71086 0.32782,1.56453 0.29979,1.89838c-0.08192,0.97564 1.05836,1.9997 2.34168,2.10322c2.17896,0.17577 3.3258,-1.97311 2.44355,-4.57865c-0.22417,-0.66121 -0.3711,-1.65833 -0.32536,-2.21548c0.11324,-1.37343 -0.30723,-3.33874 -0.81695,-3.8183c-0.22919,-0.21614 -0.87776,-0.5213 -1.44076,-0.67708c-0.82203,-0.22785 -1.20998,-0.13172 -1.9785,0.49456z" data-paper-data="{&quot;wickUUID&quot;:&quot;f4147976-f660-4236-b7b1-76a991fcb453&quot;,&quot;wickType&quot;:&quot;path&quot;,&quot;originalStyle&quot;:{&quot;strokeColor&quot;:null,&quot;fillColor&quot;:[&quot;Color&quot;,0,0,0],&quot;strokeWidth&quot;:1}}" id="f4147976-f660-4236-b7b1-76a991fcb453" fill="#000000"/><path d="M383.81754,271.56856c-1.03204,1.06755 -1.02171,1.50383 0.09487,4.05302c3.08112,7.03096 4.25884,8.67808 6.07383,8.4904c1.20964,-0.12516 2.33545,-1.06674 2.41554,-2.02046c0.02962,-0.35279 -0.70293,-2.11851 -1.62621,-3.92471c-0.92432,-1.80629 -1.9213,-3.81608 -2.21618,-4.46795c-0.89201,-1.96722 -1.67648,-2.74185 -2.87688,-2.83869c-0.78263,-0.06314 -1.31515,0.13872 -1.86497,0.70839z" data-paper-data="{&quot;wickUUID&quot;:&quot;d429ebe7-51af-45f5-a019-886e1686aafe&quot;,&quot;wickType&quot;:&quot;path&quot;,&quot;originalStyle&quot;:{&quot;strokeColor&quot;:null,&quot;fillColor&quot;:[&quot;Color&quot;,0,0,0],&quot;strokeWidth&quot;:1}}" id="d429ebe7-51af-45f5-a019-886e1686aafe" fill="#000000"/><path d="M384.40421,238.68957c-6.33159,0.43335 -9.07828,1.32646 -10.97807,3.56811c-1.90804,2.25303 -4.9861,7.41559 -6.35523,10.65822c-0.72825,1.72515 -1.57092,3.4832 -1.87266,3.90734c-0.52174,0.73247 -0.54107,0.67673 -0.39867,-1.15587c0.11335,-1.46172 -0.0172,-2.21872 -0.54099,-3.13987c-0.38017,-0.66777 -1.26019,-2.25578 -1.9568,-3.53c-1.49267,-2.73104 -3.44533,-4.78181 -5.98065,-6.28161c-2.75617,-1.62899 -4.42664,-2.04367 -6.53144,-1.62352c-2.78845,0.55765 -3.77093,2.35257 -2.23862,4.08952c0.66333,0.75082 0.99574,0.88096 2.0516,0.79758c1.94566,-0.15307 2.71026,-0.02416 3.83621,0.6486c2.07204,1.23768 3.41181,2.76947 4.85158,5.54641c1.33724,2.58105 1.45258,3.00973 1.30137,4.81053l-0.16602,1.97717l1.9322,2.25682c3.43772,4.01467 4.59309,3.93931 7.38442,-0.48086c1.03765,-1.644 2.40839,-4.25943 3.04607,-5.81329c1.26995,-3.09311 4.89433,-9.06944 5.9841,-9.86745c1.17544,-0.86134 2.95857,-1.24123 6.94861,-1.4802c4.04246,-0.24177 5.19755,-0.06532 7.16412,1.09865c1.5978,0.94459 2.42454,0.96715 3.49563,0.09338c1.99972,-1.6296 0.76884,-3.83686 -2.94071,-5.27287c-2.51777,-0.97567 -3.7576,-1.09975 -8.03605,-0.80679z" data-paper-data="{&quot;wickUUID&quot;:&quot;06261c59-e849-4af5-bf4b-78f024c3a6a0&quot;,&quot;wickType&quot;:&quot;path&quot;,&quot;originalStyle&quot;:{&quot;strokeColor&quot;:null,&quot;fillColor&quot;:[&quot;Color&quot;,0,0,0],&quot;strokeWidth&quot;:1}}" id="06261c59-e849-4af5-bf4b-78f024c3a6a0" fill="#000000"/><path d="M381.03476,245.5274c-1.1492,0.37484 -2.64399,2.18062 -3.55971,4.29899c-0.98551,2.27828 -5.1859,9.62081 -6.14661,10.74629c-1.27419,1.49048 -1.34461,2.95065 -0.23429,4.84116c0.48674,0.82787 0.87596,1.61174 0.86507,1.7413c-0.01089,0.12956 0.42209,0.45443 0.96216,0.72174c0.86662,0.4301 1.21807,0.4083 2.98214,-0.17981c1.09948,-0.36681 5.24885,-1.22301 9.22173,-1.90383c7.40043,-1.26816 11.82128,-2.42454 13.25844,-3.46943c0.48133,-0.35045 0.84395,-0.96534 0.88981,-1.51145c0.10276,-1.22378 -1.11546,-4.88683 -1.82231,-5.47962c-0.93105,-0.78144 -2.45716,-1.01392 -4.24342,-0.64633c-0.93137,0.19175 -2.19655,0.30741 -2.81126,0.25782c-1.06046,-0.08554 -3.31068,0.37606 -4.72875,0.97c-0.35689,0.1488 -0.72143,0.18962 -0.80909,0.09024c-0.08862,-0.10045 0.40312,-1.23367 1.09135,-2.51958c1.41335,-2.63807 1.73275,-4.55272 0.93388,-5.60343c-0.62135,-0.81566 -3.51906,-2.63564 -4.26494,-2.67675c-0.27944,-0.01551 -0.99294,0.12959 -1.5842,0.32269z" data-paper-data="{&quot;wickUUID&quot;:&quot;25df42f1-130a-4c73-9527-29ef88111e36&quot;,&quot;wickType&quot;:&quot;path&quot;,&quot;originalStyle&quot;:{&quot;strokeColor&quot;:null,&quot;fillColor&quot;:[&quot;Color&quot;,0,0,0],&quot;strokeWidth&quot;:1}}" id="25df42f1-130a-4c73-9527-29ef88111e36" fill="#000000"/><path d="M365.18832,222.42867c-2.68862,0.10216 -8.73884,1.01271 -11.24955,1.69309c-2.67296,0.72348 -3.6111,1.41834 -7.49616,5.55262c-1.81865,1.93416 -4.07315,4.29872 -5.01031,5.25553c-2.22006,2.26499 -3.00476,3.74277 -4.93621,9.29481c-1.37061,3.94382 -1.64719,5.14958 -1.94144,8.47992c-0.31777,3.61038 -0.27559,4.1646 0.59987,7.87023c1.45729,6.17256 2.76236,9.08714 5.38804,12.03398c5.31053,5.95967 11.52228,10.6446 15.8684,11.96942c4.80501,1.46519 7.50742,2.05641 10.68358,2.33772c2.55987,0.22557 3.71858,0.45851 4.1064,0.82389c0.70705,0.66505 1.95421,0.75161 6.0968,0.42361c1.8764,-0.14863 4.4857,-0.33746 5.79824,-0.4202c3.3909,-0.21306 12.00429,-1.53388 13.47996,-2.06799c0.75444,-0.27225 1.63518,-0.97977 2.2371,-1.79707c0.54651,-0.74151 1.65298,-2.17327 2.45993,-3.18272c1.76076,-2.2017 2.83389,-4.65352 3.67415,-8.39633c0.51333,-2.28528 0.60463,-3.72068 0.50712,-8.01571c-0.06415,-2.87766 -0.04795,-6.10303 0.0383,-7.1676c0.09607,-1.20626 -0.07791,-2.75133 -0.46224,-4.1027c-0.33918,-1.19321 -0.99656,-3.51876 -1.4622,-5.16965c-1.04667,-3.71744 -4.85676,-11.47541 -7.17889,-14.61951c-3.22178,-4.36145 -8.40624,-7.5719 -14.08494,-8.7243c-3.69207,-0.74933 -11.8948,-1.99499 -13.72417,-2.08337c-0.7431,-0.03688 -2.2694,-0.03057 -3.39178,0.01233zM375.37622,228.28316c3.21919,0.51453 6.67382,1.15843 7.67674,1.43197c3.37409,0.91933 7.22929,3.6162 9.39016,6.5677c3.62974,4.95924 8.27316,17.22309 7.95692,21.01419c-0.0779,0.92781 -0.09185,3.89048 -0.03096,6.58327c0.16352,7.2501 -0.65099,10.58661 -3.46095,14.18457c-0.9075,1.16287 -1.82323,2.34918 -2.03517,2.63608c-0.21435,0.29073 -1.59987,0.75787 -3.13939,1.05808l-2.75637,0.53615l-0.70253,-1.00481c-0.86743,-1.24084 -1.83219,-1.3598 -4.22148,-0.52214c-7.95407,2.79068 -22.26206,1.60735 -29.49078,-2.43823c-2.1521,-1.20402 -5.26416,-3.87707 -8.93127,-7.67045c-3.16012,-3.26888 -4.13189,-5.28066 -5.46556,-11.30981c-1.01868,-4.61013 -0.80607,-7.53972 0.92116,-12.63568c2.19907,-6.48962 2.54482,-6.99048 10.39867,-15.05063c2.49537,-2.56083 2.64978,-2.65974 4.85076,-3.09421c4.83389,-0.95449 8.90837,-1.36624 12.34042,-1.24891c0.46521,0.01545 3.47932,0.44924 6.69963,0.96286z" data-paper-data="{&quot;wickUUID&quot;:&quot;ca38ccf0-27c2-4e74-b2bc-f1ded45e859f&quot;,&quot;wickType&quot;:&quot;path&quot;,&quot;originalStyle&quot;:{&quot;strokeColor&quot;:null,&quot;fillColor&quot;:[&quot;Color&quot;,0,0,0],&quot;strokeWidth&quot;:1}}" id="ca38ccf0-27c2-4e74-b2bc-f1ded45e859f" fill="#000000"/><path d="M397.87316,279.46797c-0.86474,0.30336 -1.50877,1.22411 -1.54863,2.21131c-0.03833,0.94923 1.38472,2.33778 2.4395,2.38037c1.10364,0.04457 2.58576,-1.2417 2.62772,-2.28085c0.06564,-1.62568 -1.86302,-2.89151 -3.51859,-2.31083z" data-paper-data="{&quot;wickUUID&quot;:&quot;ebc1490a-521e-4ec0-ab7d-bef2fc7c0260&quot;,&quot;wickType&quot;:&quot;path&quot;,&quot;originalStyle&quot;:{&quot;strokeColor&quot;:null,&quot;fillColor&quot;:[&quot;Color&quot;,0,0,0],&quot;strokeWidth&quot;:1}}" id="ebc1490a-521e-4ec0-ab7d-bef2fc7c0260" fill="#000000"/><path d="M427.37659,174.41246c-9.31426,1.98667 -13.84556,3.27758 -22.05461,6.28348c-4.9046,1.79658 -10.17769,3.83035 -11.7165,4.51989l-2.79781,1.25318l-0.94613,-2.24248c-0.52057,-1.23293 -1.38178,-2.69702 -1.91417,-3.25466c-0.94986,-0.99265 -1.01924,-1.0113 -3.68852,-1.00288c-3.54509,0.011 -11.21676,0.71848 -13.27237,1.22388c-1.32569,0.32649 -1.97358,0.78392 -3.64356,2.57556c-1.11607,1.19822 -2.9777,3.49515 -4.13558,5.10436c-1.15901,1.61013 -4.47765,6.10815 -7.37569,9.99699c-2.89812,3.88983 -6.89325,9.26034 -8.87633,11.93473c-1.9842,2.67531 -5.45024,7.12631 -7.70392,9.89125c-2.25264,2.76502 -4.49599,5.68028 -4.98456,6.47763c-0.84783,1.3844 -0.87988,1.57949 -0.70829,4.25913c0.28745,4.49396 1.41288,11.83469 2.10594,13.74773c0.91868,2.53222 2.35339,3.24393 4.18888,2.07867c1.14213,-0.72557 1.28098,-1.6956 0.57799,-4.02482c-0.51283,-1.69784 -1.75939,-10.65366 -1.74397,-12.52761c0.00879,-1.16113 0.83324,-2.36683 5.47936,-8.0079c1.79907,-2.18556 7.10643,-9.16388 11.79374,-15.50696c4.68637,-6.34416 8.81621,-11.87738 9.17703,-12.29676c0.36074,-0.41838 1.48526,-1.94098 2.49868,-3.38327c1.01436,-1.4412 2.51334,-3.3219 3.33254,-4.17886c1.33973,-1.40091 1.68014,-1.57712 3.40194,-1.76129c4.76314,-0.50971 7.72554,-0.71519 8.92801,-0.61819c1.47198,0.11874 1.94557,0.70576 2.44644,3.03071c0.28513,1.32732 0.24264,1.46034 -0.93966,2.9502c-2.39577,3.01534 -2.07795,5.70576 0.70017,5.92987c1.34033,0.10813 2.20563,-0.50231 3.7664,-2.65894c0.52659,-0.72807 1.46044,-1.7323 2.07411,-2.22961c1.05955,-0.86065 6.92997,-3.55754 10.35578,-4.75806c0.87638,-0.30755 4.58573,-1.64071 8.24095,-2.96318c5.79387,-2.09608 16.45827,-4.94906 18.02459,-4.8227c1.04594,0.08438 2.07236,14.29687 1.72886,23.93107c-0.07905,2.23402 -0.11418,4.45453 -0.07825,4.934c0.05366,0.71568 -0.38991,1.26282 -2.48185,3.05856c-3.54049,3.03837 -6.03901,6.18387 -9.9518,12.52521c-5.83235,9.45229 -6.84804,12.79867 -4.24756,13.99471c0.61387,0.2833 1.85345,0.21173 5.00349,-0.28965c2.30376,-0.36598 6.15116,-0.78301 8.55104,-0.92652c4.24392,-0.25461 9.5826,-0.12393 9.90565,0.24225c0.16763,0.19111 -0.98617,4.62299 -1.96458,7.54998l-0.57403,1.71552l-3.43607,0.76324c-4.11682,0.91602 -12.78758,3.72816 -13.81408,4.48111c-0.78188,0.57403 -3.32327,3.64584 -5.51727,6.66942c-0.73759,1.01605 -2.66584,3.46009 -4.28515,5.4314c-1.61931,1.97131 -3.2216,4.26205 -3.56042,5.09055c-0.33882,0.8285 -1.0761,2.276 -1.63823,3.21591c-1.36128,2.27907 -1.4916,3.8558 -0.39748,4.833c2.07839,1.85824 3.54299,0.6109 6.52214,-5.54892c0.5179,-1.07189 2.11501,-3.36306 3.54799,-5.09155c1.43401,-1.72841 3.09398,-3.83592 3.68908,-4.68387c0.59518,-0.84895 1.87169,-2.5409 2.8382,-3.76022l1.75691,-2.21806l5.20465,-1.72823c2.86218,-0.95101 6.76184,-1.97788 8.66589,-2.28178c3.56692,-0.56908 5.05187,-1.31315 5.15872,-2.58576c0.05782,-0.68862 2.7044,-9.78588 3.35512,-11.53233c0.59962,-1.61011 0.0301,-3.29145 -1.4154,-4.18563c-2.20739,-1.36599 -10.99539,-1.74382 -19.29058,-0.83178c-1.46527,0.16173 -2.80617,0.23414 -2.98169,0.16179c-0.43481,-0.17855 7.38723,-12.5455 8.99542,-14.22273c0.71139,-0.74125 2.66181,-2.51729 4.33586,-3.94741l3.04342,-2.59989l0.12623,-3.98903c0.3104,-9.89875 0.0026,-17.96615 -1.04962,-27.49623c-0.55048,-4.99075 -1.0184,-5.85622 -3.23471,-5.98485c-0.75608,-0.04394 -2.15079,0.08534 -3.10078,0.28763z" data-paper-data="{&quot;wickUUID&quot;:&quot;a33082be-3848-4389-bd29-6be8641da990&quot;,&quot;wickType&quot;:&quot;path&quot;,&quot;originalStyle&quot;:{&quot;strokeColor&quot;:null,&quot;fillColor&quot;:[&quot;Color&quot;,0,0,0],&quot;strokeWidth&quot;:1}}" id="a33082be-3848-4389-bd29-6be8641da990" fill="#000000"/><path d="M357.71943,281.40039c-1.192,0.602 -1.669,2.414 -1.94,7.376c-0.418,7.669 -3.07,17.534 -5.577,20.752c-1.199,1.538 -0.481,4.522 1.682,6.985c1.334,1.52 5.415,3.608 8.687,4.444c5.012,1.282 14.408,0.313 20.698,-2.135c1.072,-0.417 3.104,-1.068 4.515,-1.447c2.815,-0.755 3.406,-1.103 7.068,-4.16c3.616,-3.019 5.466,-5.862 6.604,-10.15c1.306,-4.92 1.724,-7.677 1.969,-12.99c0.2,-4.333 0.164,-4.834 -0.458,-6.257c-0.806,-1.845 -1.905,-2.439 -3.381,-1.828c-1.294,0.537 -1.663,1.657 -1.173,3.57c0.517,2.015 -0.074,9.788 -1.022,13.448c-0.37,1.429 -0.831,3.251 -1.023,4.049c-0.193,0.797 -0.92,2.221 -1.617,3.165c-1.823,2.468 -5.923,5.871 -7.554,6.269c-0.731,0.179 -2.645,0.77 -4.253,1.314c-2.671,0.904 -4.943,1.514 -8.445,2.271c-2.63,0.569 -8.186,0.745 -10.176,0.323c-2.498,-0.531 -6.472,-2.572 -7.136,-3.666c-0.489,-0.806 -0.471,-0.939 0.329,-2.417c2.254,-4.165 5.127,-15.379 5.126,-20.011c0,-1.288 0.171,-3.57 0.381,-5.071l0.381,-2.729l-0.886,-0.763c-1,-0.86 -1.624,-0.936 -2.799,-0.342z" data-paper-data="{&quot;wickUUID&quot;:&quot;3115f1b2-fc20-49c2-a60c-e423641a02ea&quot;,&quot;wickType&quot;:&quot;path&quot;,&quot;originalStyle&quot;:{&quot;strokeColor&quot;:null,&quot;fillColor&quot;:[&quot;Color&quot;,0,0,0],&quot;strokeWidth&quot;:1}}" id="3115f1b2-fc20-49c2-a60c-e423641a02ea" fill="#000000"/><path d="M324.9298,283.73543c-0.50268,0.64967 -0.54824,1.35116 -0.10963,2.83408c0.93806,3.17308 1.10435,4.34012 0.95951,6.70682c-0.07884,1.28983 0.81,3.06479 0.9586,3.02976c0.14826,-0.03495 1.42436,-1.42645 1.96079,-2.63613c0.79033,-1.78153 0.93441,-2.03179 1.77672,-2.3187c0.57255,-0.19489 1.24193,-0.11226 1.7337,0.06634c0.87233,0.31697 1.323,-0.99991 1.36902,-2.21386c0.09916,-2.61279 -4.19085,-7.1551 -6.34459,-6.7176c-0.20488,0.0418 -1.97992,0.83039 -2.30412,1.24929z" data-paper-data="{&quot;wickUUID&quot;:&quot;ab64c3f7-6b24-4d26-9539-ab3570c0fe26&quot;,&quot;wickType&quot;:&quot;path&quot;,&quot;originalStyle&quot;:{&quot;strokeColor&quot;:null,&quot;fillColor&quot;:[&quot;Color&quot;,0,0,0],&quot;strokeWidth&quot;:1}}" id="ab64c3f7-6b24-4d26-9539-ab3570c0fe26" fill="#000000"/><path d="M315.06153,284.9093c-0.64922,0.44209 -2.21734,1.20073 -2.87159,1.50668c-0.65418,0.30627 -1.94355,1.38581 -2.56066,2.07889c-1.08127,1.21414 -1.15762,2.12213 -0.8056,4.02513c0.44239,2.39095 1.74882,3.64431 4.42157,4.29133c2.26054,0.54726 3.60789,0.04146 4.69185,-1.48086c1.31834,-1.85155 1.62338,-5.04992 0.7644,-8.25363c-0.7689,-2.8681 -1.6138,-3.54724 -3.63997,-2.16754z" data-paper-data="{&quot;wickUUID&quot;:&quot;dfc1325f-3548-42b6-ab07-730143d6d24d&quot;,&quot;wickType&quot;:&quot;path&quot;,&quot;originalStyle&quot;:{&quot;strokeColor&quot;:null,&quot;fillColor&quot;:[&quot;Color&quot;,0,0,0],&quot;strokeWidth&quot;:1}}" id="dfc1325f-3548-42b6-ab07-730143d6d24d" fill="#000000"/><path d="M319.73675,298.76661c-1.39806,1.22135 -1.57137,1.31466 -3.6343,1.6667c-1.4621,0.24945 -2.68987,0.23548 -3.6481,-0.00131c-1.25535,-0.31025 -2.26026,0.9376 -2.31795,1.36114c-0.13465,0.99203 3.90655,6.49937 5.25648,7.17021c0.35185,0.17494 2.10571,-0.19817 3.24978,-1.11102c1.53793,-1.22659 1.72347,-1.52852 1.56032,-3.04727c-0.282,-2.62876 -0.53897,-2.86678 1.10173,-3.25354c1.73056,-0.40794 1.72277,-0.26265 2.56551,1.93803c0.60656,1.58375 0.30249,3.18338 -0.76238,5.06421l-0.37483,1.54756l2.38984,1.54165c1.90999,1.18128 2.6829,1.17952 3.71362,0.61531c1.35612,-0.74263 4.12748,-3.63386 4.22723,-4.37006c0.0419,-0.30749 -0.90457,-2.66408 -1.90495,-4.30294c-1.81153,-2.96753 -2.63756,-3.67479 -3.96615,-3.3616c-0.81532,0.19219 -3.90538,-1.26355 -4.55143,-2.14174l-1.18427,-0.75077z" data-paper-data="{&quot;wickUUID&quot;:&quot;2c7c1f09-0ef6-4e8f-87f1-ca29854678bf&quot;,&quot;wickType&quot;:&quot;path&quot;,&quot;originalStyle&quot;:{&quot;strokeColor&quot;:null,&quot;fillColor&quot;:[&quot;Color&quot;,0,0,0],&quot;strokeWidth&quot;:1}}" id="2c7c1f09-0ef6-4e8f-87f1-ca29854678bf" fill="#000000"/><path d="M310.85,281.80902c-0.95826,0.64199 -2.64822,2.05032 -3.75547,3.12812c-2.41774,2.35249 -3.18521,4.24405 -2.96498,7.30518c0.3327,4.63224 3.16616,7.57359 8.63866,8.96612c2.36651,0.60312 5.34243,-0.04394 7.05578,-1.53175c2.67227,-2.32311 3.47863,-4.18479 3.73418,-8.62282c0.16208,-2.82968 -0.42313,-5.08558 -1.70838,-6.58469c-1.35066,-1.57615 -3.61912,-1.30134 -4.28058,0.51693c-0.29776,0.8202 -0.24479,1.11903 0.42608,2.40028c0.68199,1.30227 0.75082,1.72063 0.61912,3.79005c-0.11468,1.81473 -0.36697,2.64476 -1.14621,3.77161c-1.17507,1.70099 -1.71724,1.8853 -3.95186,1.34049c-2.59992,-0.63439 -3.50609,-1.39271 -4.15834,-3.47974c-0.46436,-1.4861 -0.47572,-1.95706 -0.06982,-2.82844c0.50179,-1.0748 2.97842,-3.33433 4.49749,-4.10338c1.15371,-0.5843 2.29057,-2.49101 2.06251,-3.45849c-0.23472,-0.99571 -1.36297,-1.83318 -2.42725,-1.80216c-0.45595,0.01399 -1.61192,0.54949 -2.57093,1.19269z" data-paper-data="{&quot;wickUUID&quot;:&quot;b01164a1-e288-4934-862b-c9c293545ab0&quot;,&quot;wickType&quot;:&quot;path&quot;,&quot;originalStyle&quot;:{&quot;strokeColor&quot;:null,&quot;fillColor&quot;:[&quot;Color&quot;,0,0,0],&quot;strokeWidth&quot;:1}}" id="b01164a1-e288-4934-862b-c9c293545ab0" fill="#000000"/><path d="M306.87279,295.68062c-0.26438,0.25136 -0.69626,1.28708 -0.95929,2.30252c-0.42934,1.65671 -0.40206,2.16912 0.26992,5.00664l0.74913,3.16042l2.64261,3.09936c1.45299,1.70511 3.1512,3.35653 3.773,3.67126c3.06736,1.54956 6.17473,0.43589 9.8162,-3.52015c0.82932,-0.90133 1.26819,-1.8072 1.5451,-3.18653c0.35702,-1.78041 0.32835,-2.04591 -0.3785,-3.50156c-0.88737,-1.8292 -1.78895,-2.44169 -3.17343,-2.15642c-1.55012,0.31917 -2.05084,1.35058 -1.59494,3.28458c0.2767,1.17382 0.26043,1.8239 -0.05723,2.28509c-0.64619,0.93727 -2.98284,2.63569 -3.52443,2.56096c-0.2547,-0.03448 -1.46656,-1.29197 -2.69305,-2.79465c-2.51406,-3.08137 -2.98521,-4.35218 -2.50746,-6.77544c0.41763,-2.12039 0.09876,-3.20722 -1.10673,-3.76655c-1.07314,-0.4991 -2.0476,-0.38342 -2.8009,0.33047z" data-paper-data="{&quot;wickUUID&quot;:&quot;45d19753-e6de-4b14-8cb3-ca269352556f&quot;,&quot;wickType&quot;:&quot;path&quot;,&quot;originalStyle&quot;:{&quot;strokeColor&quot;:null,&quot;fillColor&quot;:[&quot;Color&quot;,0,0,0],&quot;strokeWidth&quot;:1}}" id="45d19753-e6de-4b14-8cb3-ca269352556f" fill="#000000"/><path d="M323.76665,278.9438c-1.88518,1.20776 -3.1,3.03217 -3.66058,5.50064c-0.40786,1.79137 -0.38971,1.93812 0.44106,3.70155c1.0678,2.26338 1.02154,2.00614 0.90815,5.14694c-0.05203,1.43111 0.06153,3.26395 0.2522,4.07278c0.3086,1.30912 0.52927,1.5828 2.01589,2.50224c1.30523,0.80809 1.99896,1.00517 3.17813,0.90803l1.50845,-0.12545l1.60166,2.31835c0.88124,1.27584 1.82384,2.89476 2.09474,3.5994c0.45725,1.18572 0.4287,1.36095 -0.38656,2.35246c-1.10233,1.34274 -3.18717,2.96743 -4.09322,3.19026c-0.46897,0.11568 -1.80506,-0.5793 -4.18487,-2.17586c-3.88484,-2.60721 -4.75537,-2.75236 -5.85706,-0.97106c-1.10816,1.79309 -0.5044,2.6371 4.05823,5.67015c3.85104,2.5597 4.95341,2.86901 7.39625,2.07432c3.5328,-1.14821 7.61608,-4.98647 8.14222,-7.65334c0.4501,-2.27907 -0.27008,-4.40144 -3.00889,-8.87643c-0.20197,-0.32945 -0.0767,-0.60865 0.39146,-0.88031c1.8633,-1.07829 3.33311,-5.37309 3.43625,-10.03923c0.05428,-2.4981 -0.48177,-3.70428 -2.98046,-6.70298c-2.30247,-2.76344 -3.34618,-3.55611 -5.52444,-4.19744c-2.55588,-0.75266 -3.84515,-0.62134 -5.72861,0.58498zM328.69946,283.34236c1.3424,0.67809 4.08412,3.91025 4.32855,5.10401c0.09352,0.45776 0.11241,1.2701 0.04117,1.8047l-0.12952,0.97163l-0.98638,-0.4579c-1.99033,-0.92501 -3.22526,0.05138 -4.10047,3.24232c-0.28855,1.05536 -0.99359,1.87808 -1.39555,1.62865c-0.0996,-0.06077 -0.15042,-0.5553 -0.11325,-1.09934c0.32921,-4.79238 0.32024,-4.9002 -0.59857,-7.02405c-0.94775,-2.18997 -0.95449,-3.07709 -0.02993,-3.95361c0.7909,-0.75049 1.78491,-0.82246 2.98395,-0.21641z" data-paper-data="{&quot;wickUUID&quot;:&quot;a4182ed9-6cb6-489d-bb94-34881acf2530&quot;,&quot;wickType&quot;:&quot;path&quot;,&quot;originalStyle&quot;:{&quot;strokeColor&quot;:null,&quot;fillColor&quot;:[&quot;Color&quot;,0,0,0],&quot;strokeWidth&quot;:1}}" id="a4182ed9-6cb6-489d-bb94-34881acf2530" fill="#000000"/><path d="M332.8822,284.66616c-1.0174,1.64635 -0.52037,2.50831 2.42544,4.20467c3.5249,2.03041 8.64422,3.58531 12.52487,3.80375c1.47436,0.08293 1.56,0.04527 8.73109,-3.88698c2.81505,-1.54306 3.59239,-2.45575 3.26704,-3.83592c-0.22141,-0.93926 -1.8595,-2.01306 -2.75204,-1.80266c-0.35915,0.08467 -1.68044,0.72079 -2.93603,1.41335c-6.44679,3.55295 -5.90955,3.35645 -8.05587,2.9552c-3.15864,-0.59002 -6.09013,-1.58496 -8.62088,-2.92402c-2.69307,-1.42615 -3.66641,-1.4104 -4.58362,0.07261z" data-paper-data="{&quot;wickUUID&quot;:&quot;04b6fabc-4fac-4f5b-94ee-5fbd0f76ee17&quot;,&quot;wickType&quot;:&quot;path&quot;,&quot;originalStyle&quot;:{&quot;strokeColor&quot;:null,&quot;fillColor&quot;:[&quot;Color&quot;,0,0,0],&quot;strokeWidth&quot;:1}}" id="04b6fabc-4fac-4f5b-94ee-5fbd0f76ee17" fill="#000000"/><path d="M354.01184,305.93044c-1.21104,2.92896 -2.41536,6.98965 -2.47569,8.66416c-0.0688,1.89986 0.48399,5.43051 0.77715,5.87405c0.12113,0.18325 2.2815,-0.3575 4.28367,-1.68087c2.82029,-1.86411 2.98076,-1.99378 4.01975,-1.90775c1.04851,0.08652 0.39011,-0.2565 1.01221,0.98212c0.37948,0.75608 1.01396,3.25405 1.43563,5.61247c1.36921,7.65849 1.92012,8.44491 4.06965,8.03545c1.55731,-0.29653 3.8911,-1.85529 4.4357,-3.81031c0.79837,-2.86716 1.47128,-3.51594 3.47774,-3.28343l0.24045,0.01968l2.05348,3.49004l2.2578,3.76589l2.23063,0.99919c2.18212,0.90753 5.39247,1.31524 6.15952,0.80545c0.31589,-0.20999 1.49775,-1.68805 1.71379,-2.35867c0.37974,-1.17919 0.21405,-1.8106 -0.75438,-2.46149c-0.55101,-0.37059 -1.39499,-1.1416 -1.90389,-1.75739c-0.79507,-0.96168 -0.89673,-0.40645 -0.68976,-1.54416c0.29855,-1.64176 0.62941,-1.78747 3.61878,-2.39043c2.06912,-0.41745 2.85418,-0.82529 5.32234,-2.5094c3.35021,-2.2859 4.33557,-3.79419 4.83339,-7.12636c0.35614,-2.38586 0.01206,-7.38131 -0.75362,-10.34665l-0.87051,-2.46211l-3.89958,-0.82665c-2.01523,-0.39932 -4.07114,-1.01898 -4.6457,-1.39919c-1.23819,-0.82022 -6.01763,-2.55306 -8.14971,-2.95746c-1.17971,-0.22395 -2.0798,-0.13597 -2.33154,0.3301c-0.96458,1.7851 -8.55456,4.65287 -16.8602,6.36991c-6.80874,1.4077 -7.80286,1.92896 -8.6071,3.87381z" data-paper-data="{&quot;wickUUID&quot;:&quot;1e256f7a-3d27-465b-b746-8665eb3335e5&quot;,&quot;wickType&quot;:&quot;path&quot;,&quot;originalStyle&quot;:{&quot;strokeColor&quot;:null,&quot;fillColor&quot;:[&quot;Color&quot;,0,0,0],&quot;strokeWidth&quot;:1}}" id="1e256f7a-3d27-465b-b746-8665eb3335e5" fill="#000000"/><path d="M359.01866,293.01238c-0.63212,0.91887 -0.66949,2.72123 -0.08273,4.01519c0.2876,0.6346 0.50321,1.16574 0.47985,1.18119c-0.02336,0.01545 -0.86237,0.23679 -1.86462,0.49048c-4.2769,1.08278 -7.17213,3.45073 -8.0276,6.5634c-0.23245,0.84888 -0.774,2.50142 -1.20186,3.67127c-1.0321,2.82185 -1.37584,6.00146 -1.02062,9.45146c0.38005,3.69611 0.93347,4.93416 2.71648,6.07753c1.13205,0.72615 1.67719,0.83454 3.05957,0.60648c0.92447,-0.15194 2.541,-0.74572 3.59194,-1.31929l1.9123,-1.04222l0.66882,4.03508c1.04294,6.28588 2.71655,8.58037 6.65559,9.12099c2.28081,0.31329 4.31526,-0.26305 6.2044,-1.75744c0.87808,-0.69545 1.73983,-1.47364 1.91474,-1.72949c0.26641,-0.38946 0.54327,-0.19005 1.70033,1.2232c1.68648,2.05826 2.66627,2.63928 5.7452,3.40199c1.31226,0.32415 3.00662,0.80929 3.76606,1.07689c1.79087,0.63112 4.24948,0.02736 5.89586,-1.44802c2.65479,-2.37806 4.20856,-7.28881 2.92212,-9.23509l-0.60986,-0.92266l1.98485,-0.93793c2.53085,-1.19454 6.11926,-4.21483 7.22801,-6.08285c1.81851,-3.06115 2.45007,-8.25903 1.65876,-13.64917c-0.56391,-3.8419 -1.53297,-6.64643 -2.86495,-8.29529c-0.92708,-1.14692 -1.22852,-1.30009 -2.84461,-1.45098c-2.78553,-0.25897 -5.10958,-0.86255 -6.50998,-1.69182c-0.70116,-0.41519 -2.17755,-1.03482 -3.27978,-1.37672c-1.10223,-0.3419 -3.10918,-0.96445 -4.4599,-1.38305c-1.35072,-0.4186 -4.14632,-0.93584 -6.2137,-1.14926c-2.06654,-0.21397 -4.83498,-0.5142 -6.15179,-0.66751c-4.93959,-0.57452 -11.47628,1.05012 -12.97288,3.22364zM357.401,303.84381c0.74608,-0.27856 2.91764,-0.74897 4.82423,-1.0454c3.68939,-0.57339 6.94375,-1.46218 12.0365,-3.28559c3.60958,-1.29261 4.93482,-2.07145 5.36122,-3.15282c0.27848,-0.7067 0.43417,-0.73048 2.13251,-0.33908c3.67932,0.85133 7.97005,2.44091 8.4189,3.11997c0.47145,0.71328 0.86317,0.82354 5.19178,1.46388l2.7342,0.40438l0.54417,1.75364c1.44792,4.66248 1.40081,11.2361 -0.10109,13.90938c-0.73097,1.30066 -1.24598,1.78371 -3.60618,3.37969c-2.50397,1.69221 -2.9627,1.89591 -5.04167,2.23076c-2.72145,0.43826 -3.99214,1.17264 -4.25432,2.45714c-0.28905,1.41252 0.72032,3.21709 2.20379,3.93992c1.59558,0.77818 1.79413,1.1348 1.31227,2.35352c-0.91191,2.30729 -1.38433,2.46852 -4.8694,1.66261c-4.09274,-0.94727 -4.25028,-1.08407 -6.95155,-6.09764c-1.39648,-2.59155 -1.43764,-2.63748 -2.5794,-2.87053c-1.74314,-0.35581 -2.94137,0.57523 -3.43279,2.66813c-0.52104,2.21676 -1.13166,3.23888 -2.46311,4.11892c-1.24718,0.82435 -3.04779,0.69353 -3.68301,-0.26752c-0.20016,-0.30282 -0.61584,-2.00713 -0.92358,-3.78757c-1.70007,-9.8408 -1.89116,-10.32942 -4.01902,-10.32425c-0.90334,0.00252 -1.54699,0.33085 -4.05032,2.06937c-1.8111,1.257 -3.11511,2.00265 -3.33077,1.90306c-0.1938,-0.09007 -0.48313,-1.26775 -0.64143,-2.61714c-0.31042,-2.64772 0.21098,-5.72537 1.60588,-9.46549c1.1928,-3.19898 1.30565,-3.33112 3.58219,-4.18134z" data-paper-data="{&quot;wickUUID&quot;:&quot;338ad191-4e1a-43d6-a22a-bb3fb16e53bc&quot;,&quot;wickType&quot;:&quot;path&quot;,&quot;originalStyle&quot;:{&quot;strokeColor&quot;:null,&quot;fillColor&quot;:[&quot;Color&quot;,0,0,0],&quot;strokeWidth&quot;:1}}" id="338ad191-4e1a-43d6-a22a-bb3fb16e53bc" fill="#000000"/><path d="M399.87381,280.34781c-0.7726,1.1786 -0.63774,1.83489 0.80614,3.92815c0.63242,0.91616 2.3958,3.93876 3.9181,6.71643c1.5223,2.77767 2.859,5.14561 2.97039,5.26334c0.34286,0.36059 -0.52768,0.38895 -3.2738,0.10371c-3.97607,-0.41276 -5.53561,0.11279 -5.83058,1.96505c-0.26679,1.67886 1.41342,3.10786 3.21367,2.73233c0.3113,-0.06494 2.42302,0.15651 4.69238,0.49216c5.48833,0.81134 6.18826,0.78281 7.08591,-0.28602c0.92718,-1.10359 0.88605,-2.68655 -0.11677,-4.52143c-8.45785,-15.4678 -9.41131,-17.00243 -10.82152,-17.41617c-1.10568,-0.32507 -1.98484,0.01463 -2.64392,1.02245z" data-paper-data="{&quot;wickUUID&quot;:&quot;6732ea34-cbfd-47fa-a821-554226fec098&quot;,&quot;wickType&quot;:&quot;path&quot;,&quot;originalStyle&quot;:{&quot;strokeColor&quot;:null,&quot;fillColor&quot;:[&quot;Color&quot;,0,0,0],&quot;strokeWidth&quot;:1}}" id="6732ea34-cbfd-47fa-a821-554226fec098" fill="#000000"/><path d="M351.54288,251.76754c-1.29728,0.42309 -1.77482,1.2133 -2.3019,3.8115c-0.41636,2.0503 -0.43778,2.72782 -0.16847,5.42438c0.54329,5.43664 1.16149,6.68747 3.39643,6.86777c1.44193,0.11633 2.17839,-0.25268 2.98731,-1.49674c0.52851,-0.81319 0.63731,-3.36389 0.36708,-8.64707c-0.18303,-3.59961 -0.6209,-5.07166 -1.70059,-5.72363c-0.92683,-0.55836 -1.44566,-0.60624 -2.57986,-0.23621z" data-paper-data="{&quot;wickUUID&quot;:&quot;5ec94357-6225-4d10-a9a6-6f688a3228ef&quot;,&quot;wickType&quot;:&quot;path&quot;,&quot;originalStyle&quot;:{&quot;strokeColor&quot;:null,&quot;fillColor&quot;:[&quot;Color&quot;,0,0,0],&quot;strokeWidth&quot;:1}}" id="5ec94357-6225-4d10-a9a6-6f688a3228ef" fill="#000000"/><path d="M356.57417,317.11378c-1.20883,1.16674 -5.49439,7.90213 -5.54145,8.71076c-0.05084,0.87352 0.78838,2.3057 2.72991,4.65948c1.06379,1.29099 2.19886,2.75139 2.52167,3.24598c0.32281,0.49459 1.85688,1.846 3.40822,3.00409l2.82238,2.10654l-1.0125,0.35778c-0.55738,0.19695 -2.78063,0.80781 -4.9412,1.35721c-2.16057,0.5494 -4.3211,1.25306 -4.8009,1.56271c-1.66427,1.07512 -3.51666,3.79911 -4.66312,6.85466c-1.86725,4.97592 -1.90778,5.15587 -1.659,7.37006c0.26301,2.34825 0.8327,3.7988 1.96826,5.00982c1.17804,1.25556 2.2849,1.54836 5.25044,1.38438c6.5279,-0.35934 9.01412,-1.51284 12.35183,-5.73105c3.36482,-4.25369 4.19834,-6.2867 5.03755,-12.29008c0.29043,-2.08164 0.53139,-3.8296 0.53447,-3.88251c0.02626,-0.45124 -5.87097,-6.48805 -7.5422,-7.72023c-1.21305,-0.89499 -3.09348,-2.73235 -4.37505,-4.27441l-2.24769,-2.70416l1.29242,-2.24169c0.71082,-1.23278 1.7152,-2.75902 2.23185,-3.39207c1.18634,-1.45153 1.23992,-2.33791 0.21133,-3.49362c-1.15734,-1.30144 -2.14773,-1.27193 -3.57722,0.10635zM365.1424,345.39736c-0.69626,3.87409 -1.53318,5.63844 -4.22695,8.91247c-2.2271,2.70818 -3.67346,3.30917 -8.53995,3.55485c-1.85456,0.09341 -1.78563,0.16554 -2.03746,-2.13398c-0.09431,-0.85793 0.17772,-1.91792 1.12003,-4.37432c1.82071,-4.74423 1.90575,-4.81141 8.24314,-6.52711c2.88834,-0.78251 5.36019,-1.34485 5.49396,-1.25092c0.13377,0.09393 0.1102,0.91195 -0.05277,1.81901z" data-paper-data="{&quot;wickUUID&quot;:&quot;89212ea1-4a20-462c-bb97-75cab887edbe&quot;,&quot;wickType&quot;:&quot;path&quot;,&quot;originalStyle&quot;:{&quot;strokeColor&quot;:null,&quot;fillColor&quot;:[&quot;Color&quot;,0,0,0],&quot;strokeWidth&quot;:1}}" id="89212ea1-4a20-462c-bb97-75cab887edbe" fill="#000000"/><path d="M318.2287,279.0675c-1.347,0.224 -4.467,1.178 -5.295,1.618c-1.85,0.983 -2.394,1.668 -2.309,2.905c0.031,0.443 0.143,1.01 0.25,1.26c0.176,0.412 0.145,0.61 -0.328,2.123c-0.287,0.918 -0.674,2.197 -0.86,2.841c-0.186,0.645 -0.526,1.633 -0.756,2.197c-0.785,1.925 -0.99,2.636 -1.15,3.986c-0.17,1.439 -0.151,1.759 0.218,3.691c0.129,0.679 0.197,1.472 0.15,1.764c-0.134,0.837 0.165,1.664 0.815,2.25c0.961,0.869 2.223,0.897 3.164,0.07c0.669,-0.587 0.754,-0.762 0.943,-1.948c0.136,-0.852 0.114,-1.231 -0.159,-2.672c-0.392,-2.077 -0.329,-3.094 0.279,-4.506c0.438,-1.014 0.818,-2.153 1.859,-5.564c0.295,-0.967 0.585,-1.808 0.644,-1.871c0.06,-0.062 0.348,-0.012 0.642,0.11c0.862,0.361 1.51,0.279 2.729,-0.343c0.61,-0.312 2.097,-0.879 3.306,-1.261c2.615,-0.826 2.829,-0.928 3.546,-1.701c1.534,-1.653 1.005,-3.636 -1.166,-4.369c-0.495,-0.167 -1.101,-0.304 -1.347,-0.304c-0.246,0 -0.909,-0.097 -1.473,-0.217c-1.121,-0.237 -2.499,-0.259 -3.702,-0.059z" data-paper-data="{&quot;wickUUID&quot;:&quot;0ebbd27b-1610-45e7-a976-907376424440&quot;,&quot;wickType&quot;:&quot;path&quot;,&quot;originalStyle&quot;:{&quot;strokeColor&quot;:null,&quot;fillColor&quot;:[&quot;Color&quot;,0,0,0],&quot;strokeWidth&quot;:1}}" id="0ebbd27b-1610-45e7-a976-907376424440" fill="#000000"/><path d="M390.19439,311.95437c-0.351,0.218 -0.754,0.65 -0.895,0.96c-0.64,1.404 -0.082,5.583 2.227,16.661c0.466,2.233 1.118,5.994 1.45,8.359c0.332,2.364 0.922,5.856 1.312,7.761c0.39,1.905 0.818,4.322 0.952,5.373c0.133,1.051 0.515,3.953 0.848,6.448c0.522,3.906 0.606,5.421 0.601,10.882c-0.006,7.296 0.163,8.613 1.359,10.611c2.185,3.648 3.838,5.025 6.755,5.625c1.931,0.398 6.091,0.432 9.042,0.075c1.898,-0.23 2.331,-0.366 2.866,-0.901c0.489,-0.489 0.63,-0.864 0.63,-1.674c0,-1.956 -1.522,-2.79 -4.23,-2.318c-1.831,0.319 -6.14,0.344 -7.435,0.043c-0.505,-0.117 -1.189,-0.464 -1.519,-0.77c-0.743,-0.69 -2.161,-2.867 -2.345,-3.601c-0.075,-0.3 -0.17,-3.767 -0.21,-7.706c-0.064,-6.228 -0.157,-7.752 -0.715,-11.699c-0.353,-2.495 -0.733,-5.289 -0.844,-6.209c-0.112,-0.919 -0.53,-3.23 -0.93,-5.134c-0.4,-1.905 -1.003,-5.424 -1.341,-7.822c-0.337,-2.397 -1.049,-6.427 -1.581,-8.955c-1.311,-6.224 -1.792,-8.915 -2.124,-11.881c-0.34,-3.024 -0.542,-3.609 -1.43,-4.133c-0.856,-0.506 -1.622,-0.505 -2.443,0.005z" data-paper-data="{&quot;wickUUID&quot;:&quot;8b2f38bb-d3eb-484b-b99e-ace13c40cd08&quot;,&quot;wickType&quot;:&quot;path&quot;,&quot;originalStyle&quot;:{&quot;strokeColor&quot;:null,&quot;fillColor&quot;:[&quot;Color&quot;,0,0,0],&quot;strokeWidth&quot;:1}}" fill="#000000"/><path d="M405.87814,370.42537c-4.813,1.046 -7.284,2.497 -7.284,4.278c0,0.695 0.179,1.07 0.812,1.703c1.015,1.015 1.637,1.03 3.505,0.087c1.755,-0.886 6.516,-1.902 8.915,-1.902c1.635,0 1.75,0.039 2.893,0.967c1.246,1.014 2.025,1.832 2.025,2.127c0,0.249 -1.709,0.727 -2.602,0.727c-2.089,0 -3.446,1.539 -2.878,3.263c0.656,1.987 3.051,2.248 6.913,0.755c4.493,-1.737 4.741,-6.302 0.539,-9.919c-2.946,-2.535 -3.039,-2.571 -6.867,-2.617c-2.74,-0.033 -3.818,0.063 -5.971,0.531z" data-paper-data="{&quot;wickUUID&quot;:&quot;109db32b-ea43-4b3e-af94-8e7e23e72cdb&quot;,&quot;wickType&quot;:&quot;path&quot;,&quot;originalStyle&quot;:{&quot;strokeColor&quot;:null,&quot;fillColor&quot;:[&quot;Color&quot;,0,0,0],&quot;strokeWidth&quot;:1}}" fill="#000000"/></g><g data-paper-data="{&quot;wickUUID&quot;:&quot;99244c09-8c40-482d-b781-65d556971edc&quot;,&quot;wickType&quot;:&quot;clipsandpaths&quot;}" fill="none" fill-rule="nonzero" stroke="none" stroke-width="1" stroke-linecap="butt" stroke-linejoin="miter" stroke-miterlimit="10" stroke-dasharray="" stroke-dashoffset="0" font-family="sans-serif" font-weight="normal" font-size="12" text-anchor="start" style="mix-blend-mode: normal"/><g fill="none" fill-rule="nonzero" stroke="none" stroke-width="1" stroke-linecap="butt" stroke-linejoin="miter" stroke-miterlimit="10" stroke-dasharray="" stroke-dashoffset="0" font-family="sans-serif" font-weight="normal" font-size="12" text-anchor="start" style="mix-blend-mode: normal"/><g id="wick_project_gui" fill="none" fill-rule="nonzero" stroke="none" stroke-width="1" stroke-linecap="butt" stroke-linejoin="miter" stroke-miterlimit="10" stroke-dasharray="" stroke-dashoffset="0" font-family="sans-serif" font-weight="normal" font-size="12" text-anchor="start" style="mix-blend-mode: normal"/></g></svg>