<svg version="1.1" xmlns="http://www.w3.org/2000/svg" xmlns:xlink="http://www.w3.org/1999/xlink" width="1260" height="594" viewBox="0,0,1260,594"><g transform="translate(230.20498,30.46998) scale(1.11054,1.11054)"><g id="wick_project_bg" fill-opacity="0" fill="#ffffff" fill-rule="nonzero" stroke="none" stroke-width="1" stroke-linecap="butt" stroke-linejoin="miter" stroke-miterlimit="10" stroke-dasharray="" stroke-dashoffset="0" font-family="none" font-weight="none" font-size="none" text-anchor="none" style="mix-blend-mode: normal"><rect x="0" y="0" width="720" height="480"/></g><g data-paper-data="{&quot;wickUUID&quot;:&quot;d5f2bb4b-31bb-4dd1-a44f-6458a09e2028&quot;,&quot;wickType&quot;:&quot;clipsandpaths&quot;}" fill="none" fill-rule="evenodd" stroke="none" stroke-width="1" stroke-linecap="butt" stroke-linejoin="miter" stroke-miterlimit="10" stroke-dasharray="" stroke-dashoffset="0" font-family="none" font-weight="none" font-size="none" text-anchor="none" style="mix-blend-mode: normal"><path d="M387.53239,211.78877c-3.21232,0.56526 -7.19864,1.98491 -12.12454,4.32149c-8.04695,3.81687 -7.01969,3.55986 -8.12084,3.09647c-1.22924,-0.51721 -5.27865,-3.36145 -8.65361,-5.97281l-2.97651,-2.11698l-1.75093,2.21695c-0.51976,0.96696 -1.01681,2.4258 -1.01996,2.51007c-0.00316,0.08461 1.12794,1.08292 2.07159,1.60147c0.944,0.51824 2.47482,1.51454 3.32209,2.16659c1.78469,1.37352 2.28361,1.49737 2.31347,0.69726c0.05195,-1.39203 1.53597,-1.87863 2.95098,-0.80678c0.41975,0.31821 0.86919,1.36353 1.48026,2.78531l1.32422,2.84891l2.40464,-0.03006l2.23831,-0.44327l0.24184,-1.75229c0.07408,-1.98495 0.14729,-2.29529 1.84068,-2.98929c1.74793,-0.71631 3.46357,-0.60073 4.23537,0.15191c0.53363,0.52059 0.91923,0.47297 2.06446,-0.14642c0.68019,-0.36789 3.04926,-1.33768 5.1241,-2.09916c4.43073,-1.62621 6.5659,-2.78165 7.09495,-3.83665c0.21047,-0.41977 0.09464,-2.38229 0.09774,-2.46523c0.00971,-0.26015 -1.81094,-0.15056 -4.15831,0.26251z" data-paper-data="{&quot;wickUUID&quot;:&quot;c7e367cd-d3e6-4fc4-9d66-8ae669e590fa&quot;,&quot;wickType&quot;:&quot;path&quot;,&quot;originalStyle&quot;:{&quot;strokeColor&quot;:null,&quot;fillColor&quot;:[&quot;Color&quot;,1,1,1],&quot;strokeWidth&quot;:1}}" id="c7e367cd-d3e6-4fc4-9d66-8ae669e590fa" fill="#ffffff"/><path d="M381.93246,258.69569c-2.271,0.72267 -5.98774,0.8958 -10.78341,0.5028c-3.16933,-0.25967 -5.15157,0.29934 -5.32057,0.57267c-0.635,1.02733 -6.6648,27.17235 -7.4708,32.39968c-1.29433,8.39433 -2.2067,15.62204 -2.2067,17.35704c0,2.245 0.66204,3.78766 3.50804,7.63266c2.281,3.08133 3.04393,3.70037 4.86093,4.66904c1.63333,0.87033 5.12648,0.88583 12.28148,0.0025c7.14833,-0.88233 13.49319,-2.38409 16.35552,-3.87776c0.48233,-0.25167 1.34527,-0.52121 1.71194,-0.52521c0.82433,-0.00933 3.66105,-1.69405 3.58805,-2.11038c-0.02933,-0.16767 0.01898,-1.77108 -0.09169,-2.77241c-0.11033,-1.00167 -0.35823,-2.3272 -0.5389,-2.88387c-1.15967,-3.57233 -4.91453,-20.31707 -6.1992,-27.64674c-1.75867,-10.036 -5.72773,-23.38592 -6.9224,-23.29025c-0.227,0.018 -1.94729,-0.2921 -2.77229,-0.02977z" data-paper-data="{&quot;wickUUID&quot;:&quot;c9aec287-7348-4f90-b51f-ab199cdfa5c1&quot;,&quot;wickType&quot;:&quot;path&quot;,&quot;originalStyle&quot;:{&quot;strokeColor&quot;:null,&quot;fillColor&quot;:[&quot;Color&quot;,0.50196,0,1],&quot;strokeWidth&quot;:1}}" id="c9aec287-7348-4f90-b51f-ab199cdfa5c1" fill="#8000ff"/><path d="M363.26616,206.33956c-2.28536,0.32432 -5.07258,1.59978 -6.22926,2.87453c-0.50304,0.55462 -1.05479,2.50019 -1.06053,2.65408c-0.02131,0.57093 10.90491,8.31833 11.79381,8.36451c0.1911,0.0098 2.57664,-0.83315 4.5341,-1.88154c7.10721,-3.80558 12.63471,-5.81074 16.68113,-6.05032l2.69605,-0.3642l-1.92728,-2.2008c-2.78429,-1.4832 -9.47727,-2.62339 -19.44416,-3.31292c-2.74483,-0.18983 -6.07104,-0.22115 -7.04386,-0.08334z" data-paper-data="{&quot;wickUUID&quot;:&quot;0ff2bd86-145c-4d7f-a9e1-0309ab08c51d&quot;,&quot;wickType&quot;:&quot;path&quot;,&quot;originalStyle&quot;:{&quot;strokeColor&quot;:null,&quot;fillColor&quot;:[&quot;Color&quot;,1,1,1],&quot;strokeWidth&quot;:1}}" id="0ff2bd86-145c-4d7f-a9e1-0309ab08c51d" fill="#ffffff"/><path d="M391.57049,212.17451c0.34279,1.6476 -2.04898,3.39308 -6.50183,4.74495c-0.93188,0.28311 -2.79767,0.96194 -4.29546,1.58084l-3.18283,1.55022l-0.2487,5.17602c-0.15917,4.57758 0.44058,4.26597 -0.3951,5.77886c-2.32605,4.21218 -5.25502,1.81135 -6.10434,-4.64882c-0.25118,-1.91237 -0.44739,-2.29603 -0.91108,-2.11653c-0.30461,0.11805 -1.78823,0.16029 -2.28205,0.22659c-0.55885,0.07488 -1.28434,0.69564 -1.19141,0.9673c0.25049,0.73352 -0.46753,2.83319 -1.3741,3.8324c-0.95178,1.0489 -1.06839,1.39988 -2.24265,0.90241c-1.21203,-0.51323 -1.80019,-2.61252 -1.90816,-6.18136l-0.19544,-3.34078l-3.46639,-2.60433c-1.7643,-1.28503 -3.94487,-2.3453 -4.09806,-2.20024c-0.15285,0.14507 -1.42992,2.18025 -1.98327,3.62729c-1.276,3.33673 -1.48122,7.48675 -0.67412,13.04939c1.02924,7.09132 2.64531,12.07149 4.55697,14.35971c0.90649,1.08523 6.36197,4.06767 13.33045,7.18774c4.04395,1.81075 5.31174,2.18807 7.62383,2.38077c3.15806,0.26297 7.14978,-0.51246 9.55842,-1.70913c4.59706,-2.28414 12.52925,-12.68416 14.37632,-18.82722c1.28377,-4.26876 0.7868,-11.25113 -1.19298,-15.56597c-1.05993,-2.30947 -3.41811,-5.86474 -5.10118,-7.60139c-1.12612,-1.16181 -2.26771,-1.38866 -2.09684,-0.56872zM361.10516,236.46668c2.63751,3.02047 3.10508,2.15601 1.54072,3.48592c-2.19271,1.86385 -2.90585,1.43806 -4.85186,-2.19972c-1.39598,-2.60955 -1.00601,-3.36056 1.39459,-3.29631c0.76709,0.02062 0.30271,0.1613 1.91655,2.01011z" data-paper-data="{&quot;wickUUID&quot;:&quot;4f8b30de-d8fb-48eb-a09c-ca1ab2fb1f78&quot;,&quot;wickType&quot;:&quot;path&quot;,&quot;originalStyle&quot;:{&quot;strokeColor&quot;:null,&quot;fillColor&quot;:[&quot;Color&quot;,1,1,1],&quot;strokeWidth&quot;:1}}" id="4f8b30de-d8fb-48eb-a09c-ca1ab2fb1f78" fill="#ffffff"/><path d="M410.94438,166.05838c-1.56903,1.45516 -4.73476,4.64406 -6.97754,7.0274c-3.4227,3.63721 -4.09159,4.51397 -3.977,5.23307c0.21376,1.34224 -1.87916,4.00982 -7.77783,9.84321c-7.02292,6.94524 -7.85927,7.39847 -9.39866,4.91333c-0.93752,-1.51402 0.05598,-0.61209 1.47843,-2.27787c0.66169,-0.77486 0.12509,-2.55239 0.05838,-2.62393c-0.19433,-0.20939 -7.38816,2.63742 -9.43252,3.73494c-1.02967,0.55298 -4.20075,1.99692 -6.9382,3.15563c-5.01465,2.12245 -7.42555,3.69725 -8.79971,5.74943c-0.63303,0.94538 -0.134,2.4907 0.53125,2.237c2.37174,-0.90517 5.14421,-1.05196 12.14222,-0.62667c7.48724,0.45489 10.93433,1.00693 16.27633,2.63497c4.4848,1.36722 5.78584,2.20894 9.08104,5.79533c2.54352,2.76846 2.87409,3.24421 4.41908,6.66955c3.23972,7.18216 4.06918,12.65609 2.60817,17.64307c-1.18424,4.04197 -4.35969,10.06289 -7.571,14.48887c-0.55703,0.76809 -0.78889,2.53606 -0.7921,2.622c-0.00322,0.08627 1.77032,0.28257 3.46947,0.2299c5.72195,-0.17805 13.87756,1.33252 20.56885,3.80913c1.97774,0.73227 4.11388,1.27934 4.50524,1.19655c0.39169,-0.08278 1.72317,-1.08842 2.12743,-1.76714c0.40426,-0.67872 2.91296,-4.86334 5.55114,-9.26101c2.63852,-4.39765 5.06093,-8.46247 5.38163,-9.02957l0.52412,-1.98471l-4.07615,-3.42932c-5.66214,-4.73147 -8.8058,-6.90045 -14.44439,-9.96588c-4.93569,-2.68328 -6.32997,-3.3462 -6.28175,-4.6383c0.06953,-1.86303 5.62333,-15.63423 8.7134,-21.66485c1.87367,-3.65633 2.07289,-4.33016 2.16835,-6.65555c0.08735,-2.12589 -0.11055,-3.32641 -1.08496,-6.05965c-5.59696,-15.70167 -7.07694,-19.45696 -7.6049,-19.47666c-0.16056,-0.00599 -2.87846,1.02258 -4.44782,2.47773z" data-paper-data="{&quot;wickUUID&quot;:&quot;22acb693-863c-4425-96c4-d8a064e3455e&quot;,&quot;wickType&quot;:&quot;path&quot;,&quot;originalStyle&quot;:{&quot;strokeColor&quot;:null,&quot;fillColor&quot;:[&quot;Color&quot;,1,0.50196,0],&quot;strokeWidth&quot;:1}}" id="22acb693-863c-4425-96c4-d8a064e3455e" fill="#ff8000"/><path d="M360.23551,202.36775c-4.34404,1.36794 -6.74725,3.58085 -10.00547,9.21025c-4.42848,7.65216 -4.98268,10.48947 -3.9148,20.05795c1.60621,14.39592 3.55135,18.07502 11.95607,22.60964c2.81234,1.51795 5.26619,3.4448 5.45212,4.28132c0.28012,1.26233 1.61001,1.66521 7.78147,2.35786c8.13761,0.91313 11.08587,0.45177 16.82988,-2.63215c4.40428,-2.36538 7.82844,-6.19334 12.07083,-13.4982c4.70001,-8.09034 5.80194,-12.33118 4.72683,-18.19336c-1.54883,-8.45265 -5.35082,-15.22717 -10.86449,-19.36068c-5.60418,-4.20194 -26.5797,-7.18031 -34.03244,-4.83263zM385.04458,208.72745c4.00181,0.80381 5.52172,1.61206 8.12342,4.32298c4.97223,5.18105 7.27526,10.85389 7.05381,17.37717c-0.15874,4.68234 -0.65693,6.28687 -3.45969,11.16173c-3.51859,6.11703 -8.32734,11.35633 -11.96236,13.03192c-1.2402,0.57214 -3.98955,1.22707 -6.10949,1.45416c-3.32164,0.35737 -4.98743,-0.10809 -12.07757,-3.3738c-4.52342,-2.08415 -9.21368,-4.55079 -10.42377,-5.48257c-2.3774,-1.82994 -4.01747,-6.52438 -5.16533,-14.78093c-1.01511,-7.30894 -0.72523,-10.19615 1.50868,-15.00518c4.68973,-10.09411 7.29343,-11.51199 19.19293,-10.44545c4.61779,0.41351 10.61075,1.19657 13.31937,1.73997z" data-paper-data="{&quot;wickUUID&quot;:&quot;86de8869-8e09-4e24-8b07-4c2f9eaf46a7&quot;,&quot;wickType&quot;:&quot;path&quot;,&quot;originalStyle&quot;:{&quot;strokeColor&quot;:null,&quot;fillColor&quot;:[&quot;Color&quot;,0,0,0],&quot;strokeWidth&quot;:1}}" id="86de8869-8e09-4e24-8b07-4c2f9eaf46a7" fill="#000000"/><path d="M357.46957,234.68762c-1.62234,0.94415 -0.66689,3.41651 1.34971,3.49177c1.94465,0.07258 2.95168,-1.8402 1.68668,-3.20433c-1.08518,-1.16829 -1.4621,-1.20436 -3.03639,-0.28744z" data-paper-data="{&quot;wickUUID&quot;:&quot;277d2f09-93d2-4410-81c0-e4a3e2987ee3&quot;,&quot;wickType&quot;:&quot;path&quot;,&quot;originalStyle&quot;:{&quot;strokeColor&quot;:null,&quot;fillColor&quot;:[&quot;Color&quot;,0,0,0],&quot;strokeWidth&quot;:1}}" id="277d2f09-93d2-4410-81c0-e4a3e2987ee3" fill="#000000"/><path d="M356.82339,235.16285c-0.61954,1.4509 1.53105,5.38985 3.37201,6.17606c0.69344,0.29607 1.8973,-0.05327 2.67579,-0.77574c1.30612,-1.21213 1.23548,-1.51798 -0.91769,-3.93997c-2.56516,-2.88568 -4.30887,-3.38206 -5.13011,-1.46035z" data-paper-data="{&quot;wickUUID&quot;:&quot;755f4ee2-7991-4f43-993f-07a67511ac58&quot;,&quot;wickType&quot;:&quot;path&quot;,&quot;originalStyle&quot;:{&quot;strokeColor&quot;:null,&quot;fillColor&quot;:[&quot;Color&quot;,0,0,0],&quot;strokeWidth&quot;:1}}" id="755f4ee2-7991-4f43-993f-07a67511ac58" fill="#000000"/><path d="M372.48439,219.34116c-1.51941,0.54571 -1.94493,1.35641 -2.03481,3.87181c-0.18303,5.09172 1.15897,9.37975 3.16058,10.0979c2.62667,0.94262 4.09451,-1.49233 4.30553,-7.14639c0.27927,-7.48279 -0.58298,-8.56471 -5.4313,-6.82332z" data-paper-data="{&quot;wickUUID&quot;:&quot;c551801f-b354-4ca5-8738-861bf1eb5309&quot;,&quot;wickType&quot;:&quot;path&quot;,&quot;originalStyle&quot;:{&quot;strokeColor&quot;:null,&quot;fillColor&quot;:[&quot;Color&quot;,0,0,0],&quot;strokeWidth&quot;:1}}" id="c551801f-b354-4ca5-8738-861bf1eb5309" fill="#000000"/><path d="M361.09982,218.5808c-0.91117,0.84561 -0.99047,7.42122 -0.11987,9.99548c1.01297,2.99586 4.17309,2.75656 5.41607,-0.41029c0.85251,-2.16971 0.6856,-2.9795 -1.70066,-8.2992c-0.64389,-1.43601 -2.65742,-2.15661 -3.59554,-1.28599z" data-paper-data="{&quot;wickUUID&quot;:&quot;2027bd05-c425-4f55-831f-35415b83f883&quot;,&quot;wickType&quot;:&quot;path&quot;,&quot;originalStyle&quot;:{&quot;strokeColor&quot;:null,&quot;fillColor&quot;:[&quot;Color&quot;,0,0,0],&quot;strokeWidth&quot;:1}}" id="2027bd05-c425-4f55-831f-35415b83f883" fill="#000000"/><path d="M406.21039,164.76948c-5.01826,4.79317 -10.47158,10.46473 -12.1175,12.60383c-1.64692,2.13906 -3.60271,3.86633 -4.34719,3.83854c-0.74348,-0.02775 -2.11874,0.43629 -3.05453,1.0298c-0.93582,0.59451 -3.23343,1.50645 -5.10615,2.02697c-1.87272,0.52052 -5.53046,2.05416 -8.12977,3.40816c-2.59831,1.35404 -6.84107,3.30616 -9.42733,4.33742c-2.58626,1.03126 -5.54318,2.55604 -6.56997,3.38932c-2.2321,1.81101 -6.62476,10.40716 -6.96518,13.62971c-0.20152,1.91382 0.09709,2.30523 1.8109,2.36919c1.7278,0.06448 2.38682,-0.70147 4.17148,-4.84179c2.59112,-6.01455 5.19944,-8.62908 10.53426,-10.56246c2.24695,-0.81476 5.82451,-2.39844 7.95185,-3.52088c4.09544,-2.16076 15.17765,-6.19625 16.84449,-6.13404c0.54362,0.02029 4.13396,-3.54128 7.97875,-7.91493c7.09706,-8.07393 14.72915,-15.4414 15.28076,-14.75035c1.05546,1.32128 8.32301,21.55141 8.6301,24.02158c0.28486,2.28822 -0.22172,4.09057 -2.09025,7.44822c-2.81881,5.06339 -8.74949,20.17372 -8.83687,22.51509c-0.04222,1.13121 1.66458,2.42877 6.16156,4.68506c5.49896,2.75801 9.84622,5.83528 16.80498,11.89703l2.04017,1.77633l-2.13199,3.52594c-1.17212,1.93863 -3.93217,6.58092 -6.13395,10.3144c-2.20081,3.73452 -4.33527,6.97817 -4.74117,7.20919c-0.4069,0.23099 -2.16362,-0.18482 -3.90429,-0.92325c-13.25731,-5.62836 -32.7251,-5.51435 -32.13135,0.18776c0.22689,2.17898 1.55453,2.32059 8.8172,0.9365c3.66054,-0.69696 5.63852,-0.55209 11.75999,0.8632c4.04792,0.93562 8.93073,2.34571 10.85071,3.13286c4.82746,1.98142 7.31392,1.23764 9.88628,-2.96034c13.66087,-22.29101 13.43251,-21.77617 11.21586,-25.20523c-1.79561,-2.7789 -12.95153,-11.56908 -17.39784,-13.7084c-6.2305,-2.99846 -6.14564,-2.72511 -3.20997,-10.32991c1.44459,-3.74273 3.93487,-9.38778 5.53471,-12.54431c3.66529,-7.23233 3.54979,-8.34741 -2.51248,-24.29961c-4.77104,-12.55568 -6.45022,-16.09477 -7.65338,-16.13967c-0.37874,-0.01414 -4.79463,3.8959 -9.81289,8.68907z" data-paper-data="{&quot;wickUUID&quot;:&quot;e6c953b1-cb32-4f40-8f0a-29a991ce3158&quot;,&quot;wickType&quot;:&quot;path&quot;,&quot;originalStyle&quot;:{&quot;strokeColor&quot;:null,&quot;fillColor&quot;:[&quot;Color&quot;,0,0,0],&quot;strokeWidth&quot;:1}}" id="e6c953b1-cb32-4f40-8f0a-29a991ce3158" fill="#000000"/><path d="M390.40499,183.75099c-4.06339,4.01024 -7.51821,7.80203 -7.67754,8.42452c-0.15837,0.62353 0.32063,1.67812 1.0643,2.34432c1.20076,1.07453 2.07117,0.51661 7.70553,-4.93805c8.26824,-8.0032 9.75052,-10.07435 8.43639,-11.78455c-0.54879,-0.71296 -1.25418,-1.30569 -1.56896,-1.31744c-0.31478,-0.01175 -3.89729,3.25992 -7.95972,7.2712z" data-paper-data="{&quot;wickUUID&quot;:&quot;8c718229-4cb8-4f73-bea5-5b636fadd021&quot;,&quot;wickType&quot;:&quot;path&quot;,&quot;originalStyle&quot;:{&quot;strokeColor&quot;:null,&quot;fillColor&quot;:[&quot;Color&quot;,0,0,0],&quot;strokeWidth&quot;:1}}" id="8c718229-4cb8-4f73-bea5-5b636fadd021" fill="#000000"/><path d="M363.82988,254.11864c-1.317,0.922 -2.415,3.931 -4.157,11.387c-0.866,3.706 -2.393,10.173 -3.393,14.372c-1.001,4.199 -2.212,10.547 -2.691,14.107c-0.48,3.56 -1.179,8.497 -1.554,10.972c-1.059,6.98 -0.872,7.803 3.038,13.386c3.746,5.346 5.314,6.823 8.515,8.022c2.694,1.009 3.609,1.023 11.669,0.184c10.332,-1.076 19.914,-3.724 25.312,-6.996c2.531,-1.533 3.642,-3.634 2.777,-5.25c-0.238,-0.444 -1.129,-3.927 -1.98,-7.739c-0.852,-3.813 -2.177,-9.4 -2.946,-12.415c-0.769,-3.015 -1.801,-8.135 -2.293,-11.377c-1.293,-8.516 -4.404,-20.068 -6.838,-25.386c-1.441,-3.15 -2.669,-3.966 -4.329,-2.878c-1.355,0.887 -1.374,2.171 -0.076,5.024c2.357,5.179 5.041,15.053 6.433,23.661c0.561,3.474 1.952,10.106 3.089,14.739c2.241,9.119 3.802,16.067 3.802,16.919c0,0.654 -1.599,1.505 -5.358,2.853c-5.38,1.928 -9.178,2.79 -15.908,3.607c-8.084,0.981 -10.185,1.023 -12.055,0.239c-1.755,-0.735 -2.585,-1.611 -5.816,-6.141c-2.912,-4.082 -2.966,-4.384 -1.943,-10.95c0.342,-2.201 0.93,-6.464 1.305,-9.475c0.623,-4.987 2.05,-11.596 6.368,-29.478c0.839,-3.474 1.782,-6.828 2.095,-7.453c0.789,-1.572 0.714,-3.025 -0.199,-3.851c-0.949,-0.859 -1.727,-0.881 -2.867,-0.083z" data-paper-data="{&quot;wickUUID&quot;:&quot;a5508e7a-4f4d-41c7-92b4-2a176a647d54&quot;,&quot;wickType&quot;:&quot;path&quot;,&quot;originalStyle&quot;:{&quot;strokeColor&quot;:null,&quot;fillColor&quot;:[&quot;Color&quot;,0,0,0],&quot;strokeWidth&quot;:1}}" id="a5508e7a-4f4d-41c7-92b4-2a176a647d54" fill="#000000"/><path d="M392.9142,314.85879c-0.8371,0.95798 -0.69768,3.4609 0.34183,6.13438c0.47351,1.21661 1.42439,4.92773 2.11481,8.24794c0.69042,3.32021 1.95755,9.0664 2.81542,12.77002c3.16052,13.64668 5.84924,30.65374 5.74769,36.35714l-0.0471,2.62715l3.46343,1.7505c3.25825,1.64671 3.63793,1.73782 6.41071,1.5324c2.48448,-0.18506 3.17116,-0.41519 4.37547,-1.46663c1.60134,-1.39832 2.00837,-2.70144 1.58336,-5.06563c-0.52405,-2.90974 -2.89511,-4.17871 -8.40532,-4.49838l-2.91774,-0.16934l-0.30286,-1.79026c-0.16581,-0.98508 -0.6508,-4.5361 -1.07657,-7.89152c-0.77532,-6.12198 -2.43369,-14.67085 -5.08002,-26.19405c-0.78078,-3.39846 -1.66945,-7.59675 -1.97437,-9.32876c-0.7225,-4.10578 -3.46124,-12.99834 -4.13457,-13.42842c-0.85273,-0.54402 -2.25064,-0.34587 -2.91417,0.41346z" data-paper-data="{&quot;wickUUID&quot;:&quot;0eb98a29-6649-4533-b5b8-eef7a0f1e47b&quot;,&quot;wickType&quot;:&quot;path&quot;,&quot;originalStyle&quot;:{&quot;strokeColor&quot;:null,&quot;fillColor&quot;:[&quot;Color&quot;,0,0,0],&quot;strokeWidth&quot;:1}}" id="0eb98a29-6649-4533-b5b8-eef7a0f1e47b" fill="#000000"/><path d="M360.94139,321.65405c-1.09079,0.21761 -1.96709,2.04111 -2.48491,5.16931c-1.3022,7.868 -2.46142,15.70274 -2.97822,20.13087c-0.84567,7.23134 -2.18362,17.35711 -2.30924,17.47399c-0.07354,0.06747 -0.78847,-0.32688 -1.5892,-0.87707c-1.83841,-1.26097 -3.85861,-1.7874 -6.86849,-1.7874c-4.74411,0 -6.89301,1.40065 -7.44045,4.85003c-0.31253,1.9708 1.37881,5.40307 2.93431,5.95326c1.62597,0.5749 6.10759,0.48653 8.82435,-0.17484c2.70654,-0.65852 7.87246,-2.83172 8.55778,-3.60047c0.25636,-0.28792 0.84771,-3.83327 1.31344,-7.8794c1.71176,-14.88078 2.76783,-22.51977 4.81561,-34.8349c0.39934,-2.40221 0.39628,-3.19756 -0.0143,-3.65748c-0.60974,-0.68322 -1.68113,-0.98065 -2.76068,-0.7659z" data-paper-data="{&quot;wickUUID&quot;:&quot;87faef4e-9e8c-4600-9213-c1ece60bc4ba&quot;,&quot;wickType&quot;:&quot;path&quot;,&quot;originalStyle&quot;:{&quot;strokeColor&quot;:null,&quot;fillColor&quot;:[&quot;Color&quot;,0,0,0],&quot;strokeWidth&quot;:1}}" id="87faef4e-9e8c-4600-9213-c1ece60bc4ba" fill="#000000"/><path d="M410.37074,296.95732c-0.28466,0.16175 -1.46587,0.55533 -1.8327,0.54779c-1.31427,-0.02677 -7.36633,7.23755 -7.46413,8.95477c-0.05066,0.88956 0.65505,3.51007 1.03011,3.53143c0.14377,0.00819 1.52062,-0.25219 1.78751,-0.73513c0.74775,-1.352 2.26638,-2.1714 3.99258,-2.07309c1.23333,0.07024 0.74689,-0.25723 1.61152,0.71183c1.47223,1.65005 1.58611,3.11116 0.44558,6.01935c-0.91245,2.32688 -2.42173,4.85755 -3.48295,5.80441c-0.83293,0.74317 -1.57172,0.57968 -2.57637,-0.28752c-0.69502,-0.59982 -0.39855,-0.31391 -0.23089,-2.00912c0.10442,-1.05377 -1.56822,-1.92239 -1.68078,-1.82196c-0.4263,0.38005 -1.1995,6.96007 -1.07418,8.16582c0.20413,1.96145 0.14371,2.07922 13.09359,1.48825c3.50911,-0.16006 6.88358,-0.42134 7.34035,-0.57429c0.4571,-0.15293 1.21137,-0.5692 1.02915,-0.59393c-0.20076,-0.02746 -0.07364,-0.28512 0.15311,-0.42078c0.20534,-0.12319 1.31135,-1.97746 2.41031,-4.02662c1.82025,-3.39399 2.09784,-4.36489 2.37704,-6.95153c0.56483,-5.23368 -1.18196,-12.15431 -3.37282,-13.45031c-0.55879,-0.33031 -3.52088,-1.2878 -6.09892,-1.70038c-5.38242,-0.8611 -6.76977,-0.96987 -7.45711,-0.57899z" data-paper-data="{&quot;wickUUID&quot;:&quot;50bebbba-3235-464a-8ea2-b81ea7f16a25&quot;,&quot;wickType&quot;:&quot;path&quot;,&quot;originalStyle&quot;:{&quot;strokeColor&quot;:null,&quot;fillColor&quot;:[&quot;Color&quot;,0,0,0],&quot;strokeWidth&quot;:1}}" id="50bebbba-3235-464a-8ea2-b81ea7f16a25" fill="#000000"/><path d="M386.01997,253.03135c-1.67045,1.49043 -1.21009,2.76367 1.83301,5.06442c1.40391,1.06154 2.37638,2.43505 4.16216,5.88417c1.28135,2.47486 3.57931,6.14646 5.10632,8.15954c4.79248,6.31872 5.91046,8.60198 9.14885,18.69444c1.7201,5.35847 2.51293,6.40425 4.40196,5.80669c1.64219,-0.51947 1.85464,-1.87559 0.80906,-5.16636c-0.50274,-1.58415 -1.32524,-4.18412 -1.82735,-5.77925c-2.1436,-6.80389 -4.45721,-11.18553 -8.89731,-16.85015c-1.14199,-1.45729 -3.25623,-4.92512 -4.69847,-7.70562c-2.37358,-4.57736 -2.86496,-5.23537 -5.17985,-6.93875c-2.88881,-2.12569 -3.59631,-2.29519 -4.85838,-1.16913z" data-paper-data="{&quot;wickUUID&quot;:&quot;7067f33a-7341-4326-b97c-76fb8a536014&quot;,&quot;wickType&quot;:&quot;path&quot;,&quot;originalStyle&quot;:{&quot;strokeColor&quot;:null,&quot;fillColor&quot;:[&quot;Color&quot;,0,0,0],&quot;strokeWidth&quot;:1}}" id="7067f33a-7341-4326-b97c-76fb8a536014" fill="#000000"/><path d="M409.16545,292.49288c-1.64153,0.24406 -3.11937,0.76187 -3.8192,1.33701c-2.18908,1.80345 -5.8922,6.22004 -7.40095,8.82847c-1.88653,3.26201 -2.03803,5.0603 -0.65448,7.76334c0.84274,1.64658 0.94979,2.21158 0.55563,2.95938c-0.6931,1.31872 -2.12363,10.22179 -1.86211,11.59188c0.26086,1.36404 2.24924,3.55965 4.185,4.62143c1.43458,0.78684 1.55455,0.79067 10.15221,0.33779c1.9781,-0.1037 5.51553,-0.2568 7.86103,-0.33957c2.3465,-0.08271 4.6564,-0.33179 5.13275,-0.55306c1.3539,-0.62803 2.99775,-2.77704 4.6902,-6.13123c0.85354,-1.6912 1.70885,-3.25511 1.90175,-3.4765c0.75971,-0.87021 1.96518,-5.01237 2.08839,-7.17586c0.26479,-4.64947 -2.00421,-13.13822 -4.21945,-15.78245c-1.42931,-1.70603 -3.97961,-2.77577 -7.7712,-3.26014c-1.95797,-0.24973 -4.59508,-0.60425 -5.86076,-0.78651c-1.26563,-0.18326 -3.50594,-0.15359 -4.97881,0.06602zM419.57361,298.32612c3.76878,0.53315 4.66143,1.10983 5.82727,3.76642c1.06464,2.42846 1.73192,6.68128 1.5498,9.8791c-0.14886,2.61376 -0.42656,3.46236 -2.3494,7.18605c-1.19894,2.32159 -2.50865,4.4776 -2.90902,4.78934c-0.41714,0.32481 -2.08463,0.60245 -3.89612,0.64752c-4.0413,0.10138 -10.1933,0.40106 -12.82023,0.62406c-1.40811,0.12013 -2.36249,-0.02337 -3.0836,-0.46408c-1.01923,-0.62296 -1.03396,-0.71595 -0.59886,-3.78317c0.53318,-3.75175 1.13366,-5.71278 1.65142,-5.39483c0.20806,0.12804 0.2715,1.01909 0.14058,1.9812c-0.20227,1.49392 -0.08491,1.86018 0.80314,2.51774c1.7387,1.28594 2.86375,0.71899 4.71582,-2.37771c2.25968,-3.78163 2.89502,-5.84485 2.45017,-7.97058c-0.40071,-1.91588 -1.58568,-3.05811 -3.27295,-3.1542c-1.77213,-0.10092 -3.18374,0.62599 -4.09563,2.11054c-0.93841,1.52812 -1.35628,1.42618 -2.03911,-0.49575c-0.43076,-1.21245 -0.35398,-1.54062 0.8386,-3.59213c1.41121,-2.42568 6.17645,-7.39478 6.72352,-7.01105c0.18304,0.12761 0.78636,0.06882 1.34156,-0.12993c0.55426,-0.19981 2.04228,-0.19318 3.3066,0.01304c1.26426,0.20722 3.83648,0.5931 5.71644,0.85842z" data-paper-data="{&quot;wickUUID&quot;:&quot;0f949806-9828-48a1-ab5a-2a367cd024bc&quot;,&quot;wickType&quot;:&quot;path&quot;,&quot;originalStyle&quot;:{&quot;strokeColor&quot;:null,&quot;fillColor&quot;:[&quot;Color&quot;,0,0,0],&quot;strokeWidth&quot;:1}}" id="0f949806-9828-48a1-ab5a-2a367cd024bc" fill="#000000"/><path d="M402.7168,313.47454c-1.91136,1.81626 -2.86465,4.43229 -3.13259,8.59178c-0.23281,3.63064 -0.18982,3.9486 0.64245,4.70615c1.14262,1.04165 2.17253,1.09029 3.2256,0.15165c0.70074,-0.62617 0.8681,-1.27871 1.02695,-4.01511c0.15367,-2.64554 0.40076,-3.66014 1.29715,-5.32987c1.33897,-2.4939 1.38496,-2.93199 0.42372,-4.01039c-0.98577,-1.10484 -2.37891,-1.14211 -3.48328,-0.09421z" data-paper-data="{&quot;wickUUID&quot;:&quot;2c626c8c-4a5b-4d3d-9846-319cd16a673f&quot;,&quot;wickType&quot;:&quot;path&quot;,&quot;originalStyle&quot;:{&quot;strokeColor&quot;:null,&quot;fillColor&quot;:[&quot;Color&quot;,0,0,0],&quot;strokeWidth&quot;:1}}" id="2c626c8c-4a5b-4d3d-9846-319cd16a673f" fill="#000000"/><path d="M349.70626,301.84148c-0.95841,2.8817 -3.08762,3.34645 -4.45844,0.98644c-0.54929,-0.94538 -0.99137,-0.93219 -2.30394,-0.73352c-2.55501,0.38691 -7.07153,3.28341 -8.23265,5.2777c-0.41432,0.71155 -0.8874,2.20523 -0.86499,3.34268l0.18033,2.32775l2.2757,0.70274c2.672,0.66294 6.6882,-0.49977 6.40323,-1.84294c-0.08405,-0.39605 -0.57505,-2.09538 -1.66737,-2.19891c-1.69929,-0.16123 -2.10556,0.11188 -2.57106,-1.04191c-0.66032,-1.63594 0.02756,-2.44335 2.62612,-3.08286c2.01369,-0.49562 3.14498,0.00084 5.28585,1.87913c1.0163,0.8919 2.42303,1.68782 2.68165,1.68257c0.25828,-0.00524 2.0562,-1.27945 3.08176,-2.23178c2.30343,-2.13849 2.50794,-3.55346 0.70203,-5.07514c-0.65941,-0.55574 -2.35892,-1.71486 -2.40124,-1.714c-0.04232,0.00086 -0.43062,0.79998 -0.73698,1.72205z" data-paper-data="{&quot;wickUUID&quot;:&quot;2d090e24-e1ba-4560-adab-bd9afd728bf8&quot;,&quot;wickType&quot;:&quot;path&quot;,&quot;originalStyle&quot;:{&quot;strokeColor&quot;:null,&quot;fillColor&quot;:[&quot;Color&quot;,0,0,0],&quot;strokeWidth&quot;:1}}" id="2d090e24-e1ba-4560-adab-bd9afd728bf8" fill="#000000"/><path d="M352.13953,313.04819c-0.27134,0.18321 -1.5739,0.40227 -2.46799,0.42341c-1.48693,0.03484 -1.86182,0.22155 -3.09046,1.58275c-1.08876,1.206 -1.78385,1.62792 -3.79609,2.29354c-1.36612,0.4518 -2.85557,1.11987 -2.99913,1.24181c-0.14323,0.12193 0.65942,2.07683 1.21137,2.64408c1.23534,1.26987 2.74654,1.33304 6.61959,0.24492c1.81304,-0.50955 3.47496,-0.73395 5.05516,-0.69099c1.39806,0.03798 2.94809,-0.49939 2.94268,-0.70032c-0.00505,-0.18327 -0.33585,-1.9106 -0.8114,-3.00118c-0.47522,-1.09058 -0.93707,-2.53367 -0.95162,-3.03748c-0.02853,-0.97862 -0.92737,-1.53057 -1.71211,-1.00054z" data-paper-data="{&quot;wickUUID&quot;:&quot;7f588f83-9527-4b24-81f4-1470a08feea0&quot;,&quot;wickType&quot;:&quot;path&quot;,&quot;originalStyle&quot;:{&quot;strokeColor&quot;:null,&quot;fillColor&quot;:[&quot;Color&quot;,0,0,0],&quot;strokeWidth&quot;:1}}" id="7f588f83-9527-4b24-81f4-1470a08feea0" fill="#000000"/><path d="M360.81184,259.56574c-0.80812,0.34746 -5.74793,9.77361 -6.47464,12.35888c-0.16326,0.58043 -0.82722,2.26525 -1.47536,3.7437c-1.73317,3.95297 -6.04743,17.88635 -7.028,22.69923c-0.95973,4.70644 -0.7184,5.9528 1.23912,6.40218c1.78568,0.40986 2.74542,-1.14092 3.744,-6.05219c0.7539,-3.71006 4.6096,-16.08882 7.25217,-23.2849c0.51369,-1.40071 2.07115,-4.89402 3.46124,-7.76281c1.39009,-2.86879 2.51736,-5.67723 2.50594,-6.24011c-0.01177,-0.57988 -0.43142,-1.29852 -0.96984,-1.65867c-1.06571,-0.71453 -1.06471,-0.71455 -2.25463,-0.20531z" data-paper-data="{&quot;wickUUID&quot;:&quot;446fcf89-7252-4537-8e66-47479489e6b9&quot;,&quot;wickType&quot;:&quot;path&quot;,&quot;originalStyle&quot;:{&quot;strokeColor&quot;:null,&quot;fillColor&quot;:[&quot;Color&quot;,0,0,0],&quot;strokeWidth&quot;:1}}" id="446fcf89-7252-4537-8e66-47479489e6b9" fill="#000000"/><path d="M349.00365,311.60115c-0.87274,0.90889 -0.88429,2.60747 -0.02241,3.33214c0.35409,0.29688 1.13266,0.61315 1.72959,0.70206c0.59793,0.08889 1.59056,0.35682 2.20655,0.59637c2.30364,0.89546 4.29879,-0.74436 3.50035,-2.8776c-0.25903,-0.68889 -0.90375,-1.1619 -2.3575,-1.72653c-2.5244,-0.98 -4.1319,-0.98839 -5.05658,-0.02644z" data-paper-data="{&quot;wickUUID&quot;:&quot;074ae686-9b1e-41a3-b85c-9a59fec5f3ea&quot;,&quot;wickType&quot;:&quot;path&quot;,&quot;originalStyle&quot;:{&quot;strokeColor&quot;:null,&quot;fillColor&quot;:[&quot;Color&quot;,1,1,1],&quot;strokeWidth&quot;:1}}" id="074ae686-9b1e-41a3-b85c-9a59fec5f3ea" fill="#ffffff"/><path d="M347.21968,295.83094c-0.70648,0.3284 -2.25671,0.82595 -3.44429,1.1051c-8.92315,2.10444 -14.67063,7.56215 -14.53793,13.80674c0.08339,3.91311 0.74434,5.43201 2.72779,6.27195c1.30246,0.55169 1.92507,1.16719 2.5752,2.54729c3.28183,6.95886 6.86364,8.68757 13.38375,6.45785c1.80584,-0.61776 3.25329,-0.80717 5.41073,-0.70891c2.90028,0.1322 2.98476,0.10548 5.64379,-1.74384c2.30596,-1.60311 2.71535,-2.0805 2.80523,-3.27057c0.08352,-1.10892 -0.20605,-1.72618 -1.41944,-3.01483c-1.67956,-1.7853 -1.82188,-2.1935 -2.24073,-6.47088c-0.19908,-2.02338 -0.1021,-3.60267 0.31042,-5.06034c0.90638,-3.19504 0.43475,-4.65077 -2.4031,-7.42478c-1.76741,-1.7275 -2.83083,-2.42808 -3.91918,-2.58203c-0.82151,-0.11536 -1.96903,-0.27711 -2.54982,-0.35935c-0.58079,-0.08224 -1.63494,0.11818 -2.34242,0.4466zM352.6896,302.03227c0.7942,0.84006 1.14218,1.57515 1.00841,2.12998c-0.27218,1.12775 -3.85651,4.50015 -4.80332,4.51936c-0.41192,0.00836 -1.446,-0.72482 -2.29753,-1.62973c-2.28982,-2.43305 -4.75792,-2.80707 -7.68516,-1.16235c-1.21542,0.68179 -1.50711,2.03099 -0.69591,3.21578c0.50919,0.74382 1.13387,1.01721 2.47956,1.08693c1.48489,0.0779 1.82455,0.25504 1.94913,1.02167c0.28222,1.73363 -3.95916,2.89191 -6.98076,1.907c-1.23039,-0.40112 -1.3381,-0.58298 -1.37352,-2.32862c-0.05128,-2.52748 0.78669,-3.86876 3.6047,-5.77031c2.90583,-1.96035 3.87403,-2.35507 6.83289,-2.78618c1.28547,-0.18711 2.83573,-0.68266 3.44539,-1.10011c1.4679,-1.00598 3.0064,-0.70112 4.51612,0.89658zM354.54306,317.81192c0.52249,1.00461 0.84196,2.01033 0.70947,2.23406c-0.13635,0.23081 -1.19083,0.31623 -2.42754,0.19529c-1.55035,-0.14958 -3.06064,0.04909 -5.18915,0.6864c-4.57519,1.36809 -5.70537,1.27199 -7.03862,-0.60035l-1.10881,-1.55683l0.95417,-0.14938c1.3041,-0.2055 4.53615,-1.46832 5.52931,-2.16061c0.44774,-0.31315 1.03102,-0.99512 1.2965,-1.51661c0.39823,-0.78124 0.78525,-0.93212 2.20003,-0.8588c1.07034,0.0553 2.07293,-0.17209 2.66129,-0.60411c0.92738,-0.68095 0.94972,-0.6644 1.20362,0.90577c0.14287,0.87928 0.68724,2.42056 1.20973,3.42517z" data-paper-data="{&quot;wickUUID&quot;:&quot;16c35c0b-7bf5-4c1b-bbdd-12c249358deb&quot;,&quot;wickType&quot;:&quot;path&quot;,&quot;originalStyle&quot;:{&quot;strokeColor&quot;:null,&quot;fillColor&quot;:[&quot;Color&quot;,0,0,0],&quot;strokeWidth&quot;:1}}" id="16c35c0b-7bf5-4c1b-bbdd-12c249358deb" fill="#000000"/><path d="M344.46054,301.7106c-0.34539,0.28006 -2.11573,4.42283 -3.93404,9.2077l-3.30624,8.69785l0.83296,1.07433c1.02398,1.3195 2.14808,1.51074 3.22577,0.54768c0.94311,-0.8423 6.90954,-16.2625 6.87879,-17.77819c-0.03787,-1.86662 -2.2566,-2.91583 -3.69724,-1.74937z" data-paper-data="{&quot;wickUUID&quot;:&quot;e3ca560f-f8aa-44d4-8a09-892dcd6c44b8&quot;,&quot;wickType&quot;:&quot;path&quot;,&quot;originalStyle&quot;:{&quot;strokeColor&quot;:null,&quot;fillColor&quot;:[&quot;Color&quot;,0,0,0],&quot;strokeWidth&quot;:1}}" id="e3ca560f-f8aa-44d4-8a09-892dcd6c44b8" fill="#000000"/><path d="M410.8004,314.88498c-2.05512,2.15964 -4.16634,7.08056 -3.86315,9.00291c0.17475,1.09972 1.26966,2.15267 2.29999,2.21135c1.10721,0.06306 2.51975,-1.48914 2.59753,-2.85493c0.0402,-0.70586 0.66221,-2.2009 1.4671,-3.53029c1.55991,-2.57447 1.70562,-3.25128 0.95718,-4.46079c-0.64112,-1.03613 -2.62238,-1.24612 -3.45865,-0.36825z" data-paper-data="{&quot;wickUUID&quot;:&quot;a50cfd6a-c14a-4b8f-9a40-28d28f87c7c4&quot;,&quot;wickType&quot;:&quot;path&quot;,&quot;originalStyle&quot;:{&quot;strokeColor&quot;:null,&quot;fillColor&quot;:[&quot;Color&quot;,1,1,1],&quot;strokeWidth&quot;:1}}" id="a50cfd6a-c14a-4b8f-9a40-28d28f87c7c4" fill="#ffffff"/><path d="M418.58757,316.80385c-1.19919,1.18273 -0.83612,5.79985 0.51991,6.62929c0.97184,0.59322 2.33912,0.27544 3.07048,-0.71257c0.79972,-1.08028 0.62299,-4.7132 -0.2781,-5.72207c-0.80212,-0.90006 -2.49521,-0.99949 -3.31229,-0.19465z" data-paper-data="{&quot;wickUUID&quot;:&quot;6e92a3a3-5959-41c9-bbdf-873a1cc6a274&quot;,&quot;wickType&quot;:&quot;path&quot;,&quot;originalStyle&quot;:{&quot;strokeColor&quot;:null,&quot;fillColor&quot;:[&quot;Color&quot;,1,1,1],&quot;strokeWidth&quot;:1}}" id="6e92a3a3-5959-41c9-bbdf-873a1cc6a274" fill="#ffffff"/><path d="M339.169,306.0466c-3.16538,1.19645 -3.95157,2.47667 -2.63167,4.28227c0.66045,0.90279 1.86543,0.98836 4.24593,0.29893c1.95395,-0.56475 3.14769,-0.29391 4.78502,1.08616c1.57117,1.3234 1.61323,1.76964 0.27869,2.93995c-0.88544,0.77612 -1.2993,0.88554 -2.88406,0.76566c-1.4435,-0.10874 -2.00432,0.00467 -2.55,0.51884c-0.99419,0.93736 -0.89528,2.90376 0.18062,3.57807c1.31903,0.82641 4.58633,1.00517 6.10601,0.33321c1.58116,-0.69822 4.07712,-2.99332 4.75433,-4.37034c1.50617,-3.06318 -0.85716,-7.00005 -5.53515,-9.21962c-2.56118,-1.2153 -3.9784,-1.26056 -6.74972,-0.21313z" data-paper-data="{&quot;wickUUID&quot;:&quot;f1e70f8b-53f5-4b91-8da3-39b46269e685&quot;,&quot;wickType&quot;:&quot;path&quot;,&quot;originalStyle&quot;:{&quot;strokeColor&quot;:null,&quot;fillColor&quot;:[&quot;Color&quot;,1,1,1],&quot;strokeWidth&quot;:1}}" id="f1e70f8b-53f5-4b91-8da3-39b46269e685" fill="#ffffff"/><path d="M338.44234,304.66884c-3.11907,0.76743 -5.50607,1.9751 -5.90162,2.98733c-0.36699,0.94064 -0.15969,1.7916 0.64151,2.63152c0.71333,0.74868 2.1726,0.74709 3.86169,-0.00533c1.59396,-0.70848 4.8329,-1.43433 6.56454,-1.46946c0.9948,-0.02018 1.90872,0.21333 3.41843,0.87384c1.74889,0.76568 2.18154,1.08897 2.85699,2.13948c0.43789,0.68026 1.26064,1.64577 1.82787,2.14437l1.03259,0.90624l-1.32836,0.09396c-2.26322,0.15994 -2.95896,0.3771 -4.00146,1.25043l-1.00908,0.84464l-4.29558,-0.08388l-4.29557,-0.08289l-0.67516,0.83687c-0.77763,0.96297 -0.86317,2.26798 -0.2242,3.44326c0.5424,1.0002 3.75379,2.51537 6.06533,2.86355c1.61927,0.2432 2.01919,0.18609 6.4807,-0.91864c2.61639,-0.64821 5.28542,-1.26547 5.9324,-1.37162c1.75746,-0.29071 2.77121,-0.9054 3.38795,-2.05815c0.7334,-1.36816 0.69835,-1.71552 -0.3917,-3.87585c-0.50859,-1.00989 -1.07934,-2.27357 -1.26824,-2.80885c-0.18892,-0.53628 -0.97925,-1.67849 -1.75588,-2.53991c-0.77763,-0.8614 -1.84103,-2.10208 -2.36341,-2.75662c-0.5234,-0.65552 -1.43585,-1.40816 -2.02835,-1.6732c-0.5935,-0.26502 -1.87541,-0.83914 -2.84946,-1.27547c-1.66548,-0.74637 -1.9454,-0.7887 -4.66827,-0.70545c-1.70828,0.05266 -3.76562,0.30345 -5.01366,0.60983z" data-paper-data="{&quot;wickUUID&quot;:&quot;dde0be73-4d90-40eb-92d6-383a06da9885&quot;,&quot;wickType&quot;:&quot;path&quot;,&quot;originalStyle&quot;:{&quot;strokeColor&quot;:null,&quot;fillColor&quot;:[&quot;Color&quot;,0,0,0],&quot;strokeWidth&quot;:1}}" id="dde0be73-4d90-40eb-92d6-383a06da9885" fill="#000000"/><path d="M412.04545,308.1381c-0.81154,0.56677 -0.94528,0.76949 -3.13732,4.73527c-2.94922,5.33694 -5.586,9.72512 -6.29484,10.47603c-1.05954,1.12257 -1.06619,2.55852 -0.0178,3.54873c0.6512,0.61302 0.98739,0.74235 1.73501,0.66473c1.3996,-0.14666 2.36492,-1.16242 4.57094,-4.81089l2.0082,-3.32319l-0.20808,2.91488c-0.23228,3.25205 -0.07522,3.87099 1.23435,4.88309c1.02659,0.79265 5.51771,1.60433 7.27102,1.31455c1.3752,-0.22818 4.51817,-1.84409 5.64524,-2.90372c0.82014,-0.77061 0.84745,-0.86321 0.94632,-3.23242c0.08987,-2.15838 -0.01275,-2.83631 -0.90083,-5.90277c-1.18691,-4.09812 -1.85503,-5.34613 -3.41839,-6.3867c-3.16735,-2.1065 -7.84417,-3.087 -9.43382,-1.97759zM419.20524,314.88811c1.0972,2.7889 2.05773,7.0454 1.5029,6.65723c-0.14929,-0.10466 -0.2598,-0.41544 -0.24416,-0.69c0.01564,-0.27456 -0.57706,-1.94996 -1.31856,-3.72099c-0.74144,-1.77202 -1.38269,-3.31599 -1.42624,-3.43065c-0.04349,-0.11566 0.20965,-0.05818 0.56168,0.12714c0.35297,0.18637 0.76862,0.66177 0.92438,1.05727z" data-paper-data="{&quot;wickUUID&quot;:&quot;86d3d6e5-49cc-4705-9bcf-fa44f459d66a&quot;,&quot;wickType&quot;:&quot;path&quot;,&quot;originalStyle&quot;:{&quot;strokeColor&quot;:null,&quot;fillColor&quot;:[&quot;Color&quot;,0,0,0],&quot;strokeWidth&quot;:1}}" id="86d3d6e5-49cc-4705-9bcf-fa44f459d66a" fill="#000000"/><path d="M371.04538,205.44592c-0.59694,0.04077 -1.19914,0.11536 -1.33817,0.16721c-0.73361,0.27083 -1.89454,0.99803 -2.55655,1.60276c-1.32403,1.20946 -2.04539,2.35836 -3.83134,6.10436c-0.59713,1.2526 -1.23699,2.57766 -1.42282,2.94498l-0.33815,0.66785l-0.66941,-0.45728c-0.36886,-0.25193 -1.13139,-0.84178 -1.69428,-1.3111c-1.22383,-1.01935 -2.59936,-1.56704 -4.39186,-1.74802c-1.7177,-0.17418 -5.51321,0.73389 -6.36111,1.51981c-1.24807,1.15826 -0.90954,3.16128 0.66616,3.9496c0.72499,0.36229 1.00359,0.35168 2.62183,-0.10729c2.66705,-0.75606 3.35674,-0.65426 5.05584,0.74208c1.68649,1.38586 2.67717,2.05628 3.86612,2.61601c1.44271,0.67828 1.68764,0.73845 2.36085,0.58445c1.28591,-0.29525 1.7901,-1.04196 4.34407,-6.43646c1.69789,-3.58517 2.39443,-4.79303 3.12218,-5.41632c0.80831,-0.69033 1.47798,-0.7494 2.59836,-0.22925c1.10269,0.51148 1.8621,0.99713 2.68489,1.71532c1.34319,1.17291 3.14569,0.92497 3.92387,-0.54003c0.97193,-1.83002 -0.30939,-3.48096 -4.25156,-5.48038c-0.96538,-0.49035 -2.55878,-0.99212 -3.07795,-0.97047c-0.12425,0.00437 -0.71307,0.04244 -1.31097,0.08217z" data-paper-data="{&quot;wickUUID&quot;:&quot;c1b98c87-9d75-4674-ab19-1e8e02647fc1&quot;,&quot;wickType&quot;:&quot;path&quot;,&quot;originalStyle&quot;:{&quot;strokeColor&quot;:null,&quot;fillColor&quot;:[&quot;Color&quot;,0,0,0],&quot;strokeWidth&quot;:1}}" id="c1b98c87-9d75-4674-ab19-1e8e02647fc1" fill="#000000"/></g><g data-paper-data="{&quot;wickUUID&quot;:&quot;99244c09-8c40-482d-b781-65d556971edc&quot;,&quot;wickType&quot;:&quot;clipsandpaths&quot;}" fill="none" fill-rule="nonzero" stroke="none" stroke-width="1" stroke-linecap="butt" stroke-linejoin="miter" stroke-miterlimit="10" stroke-dasharray="" stroke-dashoffset="0" font-family="sans-serif" font-weight="normal" font-size="12" text-anchor="start" style="mix-blend-mode: normal"/><g fill="none" fill-rule="nonzero" stroke="none" stroke-width="1" stroke-linecap="butt" stroke-linejoin="miter" stroke-miterlimit="10" stroke-dasharray="" stroke-dashoffset="0" font-family="sans-serif" font-weight="normal" font-size="12" text-anchor="start" style="mix-blend-mode: normal"/><g id="wick_project_gui" fill="none" fill-rule="nonzero" stroke="none" stroke-width="1" stroke-linecap="butt" stroke-linejoin="miter" stroke-miterlimit="10" stroke-dasharray="" stroke-dashoffset="0" font-family="sans-serif" font-weight="normal" font-size="12" text-anchor="start" style="mix-blend-mode: normal"/></g></svg>