<svg version="1.1" xmlns="http://www.w3.org/2000/svg" xmlns:xlink="http://www.w3.org/1999/xlink" width="1260" height="490" viewBox="0,0,1260,490"><g transform="translate(145.99587,-204.33028) scale(1.18074,1.18074)"><g id="wick_project_bg" fill-opacity="0" fill="#ffffff" fill-rule="nonzero" stroke="none" stroke-width="1" stroke-linecap="butt" stroke-linejoin="miter" stroke-miterlimit="10" stroke-dasharray="" stroke-dashoffset="0" font-family="none" font-weight="none" font-size="none" text-anchor="none" style="mix-blend-mode: normal"><rect x="0" y="0" width="720" height="480"/></g><g data-paper-data="{&quot;wickUUID&quot;:&quot;c6f803ff-49ac-4fdb-98b4-c989ffdb5604&quot;,&quot;wickType&quot;:&quot;clipsandpaths&quot;}" fill="none" fill-rule="evenodd" stroke="none" stroke-width="1" stroke-linecap="butt" stroke-linejoin="miter" stroke-miterlimit="10" stroke-dasharray="" stroke-dashoffset="0" font-family="none" font-weight="none" font-size="none" text-anchor="none" style="mix-blend-mode: normal"><path d="M333.6216,325.66014c-0.207,0.24967 -1.5944,0.74966 -2.5764,0.95366c-2.463,0.51133 -5.35096,2.4832 -10.09396,6.8722c-8.08933,7.48467 -10.38474,9.87747 -13.84774,14.44914c-1.944,2.56667 -4.96942,6.47553 -6.66109,8.60953c-4.86267,6.13433 -6.28707,8.56115 -6.28707,9.45648c0,1.57967 5.84728,8.27057 8.36795,9.47257c0.65733,0.31367 1.50216,0.87523 1.50216,0.99756c0,0.63367 5.18798,2.47597 9.89765,3.5153c2.88733,0.637 7.33989,1.68349 9.83889,2.31049c2.49867,0.627 5.44239,1.20191 5.99639,1.29624c0.90533,0.154 1.96124,-0.52601 8.25057,-5.63268c12.50833,-10.15667 21.40299,-16.80173 24.01866,-17.93006c3.01167,-1.299 3.66338,-0.93848 3.48505,1.46419c-0.09333,1.261 -0.02707,0.3985 -2.04407,1.7315c-5.67133,3.748 -15.89406,11.53366 -24.61339,18.74533c-4.11033,3.39967 -4.50818,4.85197 -3.98851,5.37164c1.099,1.09933 4.92802,2.57488 10.11535,3.67755c5.921,1.25867 12.16139,1.74321 24.59372,1.90288l7.6516,-0.04811l3.62573,-7.37676c5.93933,-12.55167 9.45048,-21.04707 12.68981,-30.7004c1.73833,-5.18 2.04822,-6.45396 2.07989,-8.70996c0.03267,-2.34367 -0.30509,-2.13214 0.42358,-2.72214c1.07233,-0.86833 1.28699,-0.66805 2.67832,0.80862c0.92033,0.97733 0.78208,0.53087 0.78208,1.92854c0,2.83 -2.98157,12.21934 -7.1159,22.40501c-4.51133,11.11433 -12.63546,27.73184 -13.99246,28.62084c-0.614,0.40233 -0.54554,0.06051 -1.80154,-0.08816l-2.29512,1.21279l4.91139,3.81616c5.05867,3.91067 10.00903,7.41738 11.2487,8.08105c0.953,0.51 2.08293,-0.04779 5.95026,-4.76946c5.00767,-6.113 6.04204,-7.86785 7.84871,-13.23785c1.23633,-3.67533 4.82326,-16.84877 5.44059,-19.9751c1.118,-5.65933 0.90738,-20.04694 -0.35129,-24.20361c-0.89667,-2.96133 -2.64331,-5.22216 -5.37798,-6.64116c-1.33033,-0.69033 -4.11431,-2.2802 -5.90064,-3.35653c-4.50767,-2.71567 -5.60766,-3.08642 -11.85766,-4.00009c-6.48467,-0.94767 -13.36435,-2.45847 -22.54535,-4.94914c-8.575,-2.32633 -10.89555,-2.74259 -17.57388,-3.16192c-10.52267,-0.66067 -12.06533,-0.68714 -12.473,-0.19614z" data-paper-data="{&quot;wickUUID&quot;:&quot;61633622-cb2d-4c5c-aeb5-3750cc06fc30&quot;,&quot;wickType&quot;:&quot;path&quot;,&quot;originalStyle&quot;:{&quot;strokeColor&quot;:null,&quot;fillColor&quot;:[&quot;Color&quot;,1,0.50196,0],&quot;strokeWidth&quot;:1}}" fill="#ff8000"/><path d="M413.72602,350.20496c0.14133,1.07567 0.24952,5.9182 0.23985,10.77653c-0.01567,7.766 -0.08941,9.09141 -0.72408,12.02208c-0.98467,4.54833 -4.15928,16.10644 -5.68195,20.69377l-1.27906,3.93894l2.16223,0.63343c1.63367,-0.35067 5.32564,-1.81054 6.85197,-2.70521c0.774,-0.45367 2.90586,-1.97667 4.60886,-3.305c1.70267,-1.32833 4.61688,-3.463 6.45021,-4.72467c3.91133,-2.692 5.31928,-3.81937 10.68428,-8.5557c2.2,-1.94233 5.60948,-4.81846 7.53448,-6.35546c7.53467,-6.01533 11.53665,-9.8725 10.86965,-10.44983c-0.14433,-0.12467 -1.4988,-1.86527 -2.5988,-2.2946c-1.1,-0.42933 -4.45629,-1.90683 -7.38496,-3.2545c-6.27733,-2.88867 -8.44484,-3.57743 -17.59984,-5.5931c-6.22833,-1.37133 -11.26309,-2.68603 -12.84376,-3.36503c-0.54267,-0.233 -1.52575,0.74302 -1.28908,2.53835z" data-paper-data="{&quot;wickUUID&quot;:&quot;d49805d4-69da-45a4-b747-09de14eb3911&quot;,&quot;wickType&quot;:&quot;path&quot;,&quot;originalStyle&quot;:{&quot;strokeColor&quot;:null,&quot;fillColor&quot;:[&quot;Color&quot;,0.50196,0,1],&quot;strokeWidth&quot;:1}}" fill="#8000ff"/><path d="M360.22356,417.21185c-0.627,0.182 -2.43479,1.60089 -3.97479,3.21256c-2.501,2.61767 -3.32583,4.39077 -2.16516,3.94544c0.31833,-0.12233 2.21864,0.34992 3.32764,0.24625c2.00367,-0.187 1.71022,-0.28011 2.80622,0.96789l0.68045,0.68497l-0.24874,2.71659c-0.127,1.606 -0.05328,3.62511 0.07539,4.03111c0.21,0.66133 1.29845,1.22039 2.76412,1.07972c0.994,-0.09567 2.72471,-0.68064 4.15171,-1.42831c1.35733,-0.711 1.90218,-1.21259 2.24451,-1.10392c1.28967,0.40933 1.70742,1.32957 2.03675,3.6559c0.178,1.25633 1.4451,2.88939 1.6091,3.05339c0.37667,0.37667 10.21518,-4.6598 11.06718,-5.66713c0.476,-0.563 0.90413,-2.00992 0.75513,-3.09692c-0.28733,-2.098 -2.3158,-6.00701 -3.42913,-6.78701c-1.23433,-0.86533 -12.17492,-4.76951 -15.15025,-5.39851c-2.52367,-0.53367 -4.9868,-0.56535 -6.55013,-0.11202z" data-paper-data="{&quot;wickUUID&quot;:&quot;8109189f-84ad-4568-96cd-748d54b7d56c&quot;,&quot;wickType&quot;:&quot;path&quot;,&quot;originalStyle&quot;:{&quot;strokeColor&quot;:null,&quot;fillColor&quot;:[&quot;Color&quot;,0,0,0],&quot;strokeWidth&quot;:1}}" fill="#000000"/><path d="M331.05674,321.53283c-0.654,0.35 -2.418,1.197 -3.919,1.882c-4.549,2.076 -19.328,16.09 -23.916,22.678c-2.858,4.103 -4.753,6.493 -9.055,11.417c-1.314,1.503 -2.991,3.84 -3.727,5.193c-1.295,2.378 -1.316,2.528 -0.642,4.506c0.898,2.635 4.299,7.076 7.571,9.885c3.408,2.926 9.442,5.916 13.262,6.572c4.152,0.712 12.21,2.694 16.968,4.174l3.917,1.218l4.173,-3.555c7.817,-6.66 23.011,-18.565 25.73,-20.161c4.45,-2.612 4.854,-2.989 4.854,-4.529c0,-1.046 -0.309,-1.556 -1.184,-1.955c-1.013,-0.461 -1.627,-0.315 -4.25,1.016c-3.037,1.542 -12.686,8.88 -23.988,18.242c-3.226,2.672 -6.121,4.919 -6.434,4.992c-0.313,0.073 -3.855,-0.73 -7.872,-1.785c-4.017,-1.054 -8.689,-2.138 -10.383,-2.409c-4.846,-0.774 -9.866,-3.56 -13.512,-7.498c-1.678,-1.812 -3.344,-3.843 -3.702,-4.512c-0.766,-1.432 -0.483,-1.897 6.128,-10.053c2.225,-2.745 4.902,-6.214 5.949,-7.709c3.047,-4.351 4.93,-6.418 10.042,-11.026c2.645,-2.383 5.643,-5.217 6.663,-6.297c2.228,-2.36 6.253,-4.761 7.98,-4.761c2.54,0 4.477,-3.511 2.899,-5.254c-0.983,-1.086 -1.898,-1.156 -3.552,-0.271z" data-paper-data="{&quot;wickUUID&quot;:&quot;6e3de98a-bc6b-4a1c-9fe1-96901a7ae5c4&quot;,&quot;wickType&quot;:&quot;path&quot;,&quot;originalStyle&quot;:{&quot;strokeColor&quot;:null,&quot;fillColor&quot;:[&quot;Color&quot;,0,0,0],&quot;strokeWidth&quot;:1}}" fill="#000000"/><path d="M395.30031,343.00206c-0.387,0.467 -0.488,1.385 -0.289,2.631c0.247,1.539 -0.123,3.194 -1.883,8.444c-3.099,9.24 -7.646,20.278 -12.403,30.107l-4.088,8.449l-3.636,-0.181c-1.999,-0.1 -7.383,-0.282 -11.963,-0.405c-4.581,-0.122 -9.613,-0.462 -11.184,-0.754c-8.573,-1.596 -10.204,-2.002 -12.45,-3.101c-1.774,-0.868 -2.595,-1.596 -2.952,-2.621c-0.566,-1.622 -1.468,-2.111 -3.127,-1.695c-2.542,0.638 -1.865,4.49 1.259,7.164c2.369,2.027 7.682,3.856 13.136,4.52c2.176,0.265 4.166,0.612 4.422,0.771c0.257,0.158 6.079,0.486 12.939,0.729c6.859,0.242 13.163,0.569 14.007,0.725c1.232,0.229 1.732,0.062 2.524,-0.838c1.423,-1.619 10.347,-20.39 13.514,-28.427c4.749,-12.05 7.54,-20.876 7.191,-22.737c-0.555,-2.955 -3.512,-4.594 -5.017,-2.781z" data-paper-data="{&quot;wickUUID&quot;:&quot;117468ca-9c72-4ae5-b57e-9858666536bc&quot;,&quot;wickType&quot;:&quot;path&quot;,&quot;originalStyle&quot;:{&quot;strokeColor&quot;:null,&quot;fillColor&quot;:[&quot;Color&quot;,0,0,0],&quot;strokeWidth&quot;:1}}" fill="#000000"/><path d="M404.18007,338.39704c-1.24,1.371 -0.954,2.762 0.853,4.14c3.843,2.931 4.826,6.963 4.696,19.26c-0.086,8.176 -0.127,8.481 -2.221,16.657c-2.985,11.658 -4.926,17.459 -6.764,20.225c-2.445,3.679 -8.753,11.185 -9.391,11.175c-0.773,-0.011 -7.303,-4.741 -15.018,-10.878c-3.495,-2.781 -6.621,-5.248 -6.945,-5.483c-0.891,-0.644 -3.014,0.067 -3.349,1.122c-0.162,0.512 -0.016,1.462 0.325,2.112c0.597,1.136 10.599,9.205 19.082,15.396c5.178,3.778 6.478,3.906 9.706,0.952c2.608,-2.386 9.125,-10.434 10.79,-13.322c1.535,-2.665 3.653,-9.424 6.528,-20.839c2.282,-9.06 2.344,-9.496 2.452,-17.132c0.188,-13.292 -1.378,-18.981 -6.252,-22.708c-2.302,-1.761 -3.366,-1.921 -4.492,-0.677z" data-paper-data="{&quot;wickUUID&quot;:&quot;511318b0-2d6f-4133-8d37-370af595a2e0&quot;,&quot;wickType&quot;:&quot;path&quot;,&quot;originalStyle&quot;:{&quot;strokeColor&quot;:null,&quot;fillColor&quot;:[&quot;Color&quot;,0,0,0],&quot;strokeWidth&quot;:1}}" fill="#000000"/><path d="M300.87203,375.87004c-0.936,0.936 -0.935,0.945 0.149,4.428c1.037,3.332 2.787,6.485 4.475,8.062l1.18,1.102l7.449,-1.653c4.096,-0.909 7.761,-1.913 8.145,-2.231c0.973,-0.807 0.869,-2.538 -0.211,-3.515c-0.863,-0.781 -1.225,-0.753 -7.257,0.569c-4.037,0.884 -6.556,1.23 -6.916,0.951c-0.312,-0.242 -1.155,-1.977 -1.874,-3.855c-0.719,-1.879 -1.507,-3.684 -1.752,-4.011c-0.62,-0.828 -2.492,-0.743 -3.388,0.153z" data-paper-data="{&quot;wickUUID&quot;:&quot;dba9e52e-dcf2-47e4-9673-0d3d7473c6f0&quot;,&quot;wickType&quot;:&quot;path&quot;,&quot;originalStyle&quot;:{&quot;strokeColor&quot;:null,&quot;fillColor&quot;:[&quot;Color&quot;,0,0,0],&quot;strokeWidth&quot;:1}}" fill="#000000"/><path d="M358.24391,413.26506c-0.883,0.254 -2.703,1.07 -4.045,1.813c-1.342,0.743 -2.976,1.508 -3.63,1.699c-3.32,0.972 -5.525,4.214 -5.004,7.356c0.271,1.635 0.217,1.704 -2.445,3.1c-1.497,0.785 -3.16,2.026 -3.695,2.758c-0.89,1.218 -0.912,1.439 -0.267,2.617c0.392,0.715 1.853,1.869 3.288,2.596c3.676,1.863 7.51,1.83 11.171,-0.096l2.669,-1.404l0.671,1.605c1.239,2.965 4.284,3.965 8.926,2.929c1.696,-0.379 1.781,-0.333 2.698,1.465c1.821,3.569 5.386,3.98 10.095,1.164c1.685,-1.007 4.101,-2.222 5.369,-2.699c3.14,-1.181 4.844,-3.009 5.55,-5.952c0.684,-2.849 0.476,-4.194 -1.182,-7.654c-2.556,-5.334 -3.625,-5.977 -17.753,-10.689c-3.713,-1.238 -9.277,-1.511 -12.416,-0.608zM370.79391,419.19506c2.617,0.934 6.044,2.137 7.614,2.674c3.652,1.248 3.974,1.523 5.312,4.544c1.12,2.529 1.398,4.632 0.746,5.656c-0.194,0.305 -1.957,1.329 -3.919,2.276c-1.962,0.947 -4.357,2.192 -5.323,2.766c-0.966,0.574 -1.928,0.872 -2.139,0.662c-0.21,-0.211 -0.49,-1.59 -0.623,-3.066c-0.204,-2.284 -0.428,-2.789 -1.504,-3.391c-1.178,-0.659 -1.387,-0.621 -3.093,0.558c-2.231,1.541 -5.775,2.239 -6.383,1.257c-0.226,-0.365 -0.282,-2.181 -0.126,-4.036c0.264,-3.126 0.202,-3.452 -0.849,-4.443c-0.92,-0.868 -1.499,-1.022 -3.059,-0.814c-1.059,0.141 -2.291,0.396 -2.737,0.568c-0.446,0.171 -0.81,0.127 -0.809,-0.097c0.004,-0.851 5.3,-6.302 6.313,-6.498c3.178,-0.613 6.023,-0.241 10.579,1.384z" data-paper-data="{&quot;wickUUID&quot;:&quot;77e4b7ad-5686-495d-adf1-20ed242b2a1e&quot;,&quot;wickType&quot;:&quot;path&quot;,&quot;originalStyle&quot;:{&quot;strokeColor&quot;:null,&quot;fillColor&quot;:[&quot;Color&quot;,0,0,0],&quot;strokeWidth&quot;:1}}" fill="#000000"/><path d="M301.87636,386.20552c-2.454,2.284 -2.704,2.7 -2.704,4.502c0,1.971 1.305,3.927 2.621,3.927c0.296,0 1.24,0.625 2.096,1.39c1.484,1.325 1.769,1.391 6.006,1.4c3.692,0.008 4.648,-0.148 5.622,-0.915c0.646,-0.508 1.537,-0.924 1.98,-0.924c0.443,0 1.534,-0.728 2.424,-1.618c1.32,-1.32 1.618,-1.981 1.618,-3.593c0,-2.422 -0.979,-4.425 -2.503,-5.119c-0.63,-0.287 -2.532,-0.671 -4.227,-0.852c-2.867,-0.307 -3.185,-0.244 -4.55,0.905c-1.641,1.38 -2.521,1.574 -2.521,0.556c0,-0.939 -1.323,-2.176 -2.327,-2.176c-0.457,0 -2.048,1.133 -3.535,2.517z" data-paper-data="{&quot;wickUUID&quot;:&quot;14bfbf75-8851-4295-9516-2ee1d73e60f7&quot;,&quot;wickType&quot;:&quot;path&quot;,&quot;originalStyle&quot;:{&quot;strokeColor&quot;:null,&quot;fillColor&quot;:[&quot;Color&quot;,0,0,0],&quot;strokeWidth&quot;:1}}" fill="#000000"/><path d="M374.2731,401.4152c-0.609,0.484 -0.793,2.1 -0.99,8.685c-0.132,4.45 -0.095,8.624 0.083,9.276c0.472,1.725 2.64,2.39 3.819,1.17c0.777,-0.803 0.941,-2.012 1.226,-9.018c0.319,-7.837 0.297,-8.131 -0.704,-9.399c-1.119,-1.416 -2.254,-1.652 -3.434,-0.714z" data-paper-data="{&quot;wickUUID&quot;:&quot;60d12b6a-cd58-439c-8d4a-a6696a7af446&quot;,&quot;wickType&quot;:&quot;path&quot;,&quot;originalStyle&quot;:{&quot;strokeColor&quot;:null,&quot;fillColor&quot;:[&quot;Color&quot;,0,0,0],&quot;strokeWidth&quot;:1}}" fill="#000000"/><path d="M331.32742,322.24872c-0.736,0.824 -0.829,1.29 -0.466,2.325l0.454,1.294l9.032,0.334c10.319,0.382 13.772,0.844 20.453,2.738c11.129,3.154 19.356,4.983 26.513,5.894c5.421,0.691 5.69,0.782 9.775,3.309c8.144,5.037 10.64,5.926 12.219,4.347c1.717,-1.717 0.83,-2.963 -3.786,-5.315c-1.577,-0.803 -4.657,-2.548 -6.844,-3.876c-2.186,-1.328 -4.644,-2.521 -5.46,-2.652c-0.816,-0.13 -4.054,-0.587 -7.195,-1.014c-3.141,-0.428 -7.638,-1.294 -9.994,-1.924c-2.355,-0.63 -5.782,-1.474 -7.614,-1.875c-1.832,-0.401 -4.723,-1.158 -6.424,-1.682c-5.741,-1.77 -10.177,-2.357 -19.988,-2.646c-9.583,-0.283 -9.772,-0.27 -10.675,0.743z" data-paper-data="{&quot;wickUUID&quot;:&quot;1593bb83-03ef-4bd3-8a67-bcdcc2b08096&quot;,&quot;wickType&quot;:&quot;path&quot;,&quot;originalStyle&quot;:{&quot;strokeColor&quot;:null,&quot;fillColor&quot;:[&quot;Color&quot;,0,0,0],&quot;strokeWidth&quot;:1}}" fill="#000000"/><path d="M410.80242,342.55772c-1.264,1.265 -0.909,2.888 0.94,4.298c1.873,1.429 8.501,3.444 16.396,4.985c8.202,1.601 10.476,2.291 15.467,4.693c2.617,1.26 6.258,2.877 8.09,3.594c1.832,0.716 3.409,1.373 3.504,1.46c0.498,0.457 -4.044,5.051 -7.787,7.875c-4.11,3.102 -6.957,5.518 -14.584,12.376c-1.925,1.731 -4.916,4.002 -6.646,5.046c-1.73,1.045 -4.94,3.371 -7.132,5.17c-3.072,2.521 -4.842,3.574 -7.715,4.591c-3.916,1.386 -5.787,1.637 -6.277,0.844c-0.452,-0.731 -2.461,-0.565 -3.298,0.272c-1.124,1.124 -0.906,2.498 0.644,4.047c1.854,1.854 3.524,1.81 9.92,-0.266c4.702,-1.526 5.446,-1.942 9.39,-5.253c2.356,-1.977 5.675,-4.374 7.376,-5.327c1.702,-0.953 5.235,-3.682 7.852,-6.064c6.536,-5.949 10.262,-9.099 14.883,-12.58c4.107,-3.095 8.787,-8.637 9.411,-11.147c0.269,-1.082 0.076,-1.608 -1.005,-2.736c-0.736,-0.769 -1.64,-1.397 -2.01,-1.397c-0.949,0 -9.39,-3.449 -13.267,-5.421c-3.666,-1.864 -8.424,-3.288 -14.549,-4.353c-2.287,-0.397 -5.499,-1.126 -7.138,-1.62c-1.64,-0.493 -3.73,-1.043 -4.646,-1.223c-0.916,-0.179 -2.561,-0.84 -3.654,-1.469c-2.328,-1.338 -3.144,-1.415 -4.165,-0.395z" data-paper-data="{&quot;wickUUID&quot;:&quot;1c6972a0-9828-4fc4-b5d7-712354ecee1e&quot;,&quot;wickType&quot;:&quot;path&quot;,&quot;originalStyle&quot;:{&quot;strokeColor&quot;:null,&quot;fillColor&quot;:[&quot;Color&quot;,0,0,0],&quot;strokeWidth&quot;:1}}" fill="#000000"/><path d="M466.09605,335.60258c-2.937,0.927 -11.76,10.493 -14.251,15.451c-0.536,1.067 -1.287,2.296 -1.668,2.731c-0.879,1.001 -0.636,3.239 0.423,3.902c1.633,1.022 3.327,-0.199 5.367,-3.869c2.072,-3.728 7.108,-9.977 9.293,-11.533c1.346,-0.958 1.359,-0.958 1.655,-0.027c0.164,0.516 0.945,1.483 1.737,2.149c2.631,2.214 7.1,1.327 8.999,-1.787c2.503,-4.106 -0.344,-6.732 -7.872,-7.261c-1.308,-0.092 -2.966,0.018 -3.683,0.244z" data-paper-data="{&quot;wickUUID&quot;:&quot;6f637d5c-24c0-4248-ad1a-16960ba5d5a1&quot;,&quot;wickType&quot;:&quot;path&quot;,&quot;originalStyle&quot;:{&quot;strokeColor&quot;:null,&quot;fillColor&quot;:[&quot;Color&quot;,0,0,0],&quot;strokeWidth&quot;:1}}" fill="#000000"/><path d="M442.11121,329.4071c-2.385,0.669 -3.829,1.565 -7.852,4.873c-2.712,2.229 -5.618,4.409 -6.458,4.842c-2.606,1.346 -7.777,2.299 -12.886,2.376c-3.774,0.057 -4.998,0.237 -5.346,0.788c-0.655,1.036 -0.572,1.668 0.376,2.838c2.093,2.585 15.632,1.191 21.049,-2.167c0.916,-0.568 3.266,-2.343 5.221,-3.945c1.956,-1.602 3.804,-2.913 4.106,-2.913c0.303,0 0.835,0.344 1.184,0.764c0.492,0.593 1.267,0.718 3.46,0.559c2.45,-0.177 3.008,-0.407 4.184,-1.723c1.508,-1.688 1.704,-3.257 0.66,-5.276c-1.136,-2.198 -2.731,-2.408 -7.698,-1.016z" data-paper-data="{&quot;wickUUID&quot;:&quot;33b7f0a6-d566-4dc6-b1f7-c446b7da5474&quot;,&quot;wickType&quot;:&quot;path&quot;,&quot;originalStyle&quot;:{&quot;strokeColor&quot;:null,&quot;fillColor&quot;:[&quot;Color&quot;,0,0,0],&quot;strokeWidth&quot;:1}}" fill="#000000"/></g><g fill="none" fill-rule="nonzero" stroke="none" stroke-width="1" stroke-linecap="butt" stroke-linejoin="miter" stroke-miterlimit="10" stroke-dasharray="" stroke-dashoffset="0" font-family="sans-serif" font-weight="normal" font-size="12" text-anchor="start" style="mix-blend-mode: normal"/><g id="wick_project_gui" fill="none" fill-rule="nonzero" stroke="none" stroke-width="1" stroke-linecap="butt" stroke-linejoin="miter" stroke-miterlimit="10" stroke-dasharray="" stroke-dashoffset="0" font-family="sans-serif" font-weight="normal" font-size="12" text-anchor="start" style="mix-blend-mode: normal"/></g></svg>