<svg version="1.1" xmlns="http://www.w3.org/2000/svg" xmlns:xlink="http://www.w3.org/1999/xlink" width="1260" height="490" viewBox="0,0,1260,490"><g transform="translate(145.99587,-204.33028) scale(1.18074,1.18074)"><g id="wick_project_bg" fill-opacity="0" fill="#ffffff" fill-rule="nonzero" stroke="none" stroke-width="1" stroke-linecap="butt" stroke-linejoin="miter" stroke-miterlimit="10" stroke-dasharray="" stroke-dashoffset="0" font-family="none" font-weight="none" font-size="none" text-anchor="none" style="mix-blend-mode: normal"><rect x="0" y="0" width="720" height="480"/></g><g data-paper-data="{&quot;wickUUID&quot;:&quot;c13e60ad-d600-45d0-907c-721bbc057e09&quot;,&quot;wickType&quot;:&quot;clipsandpaths&quot;}" fill="none" fill-rule="evenodd" stroke="none" stroke-width="1" stroke-linecap="butt" stroke-linejoin="miter" stroke-miterlimit="10" stroke-dasharray="" stroke-dashoffset="0" font-family="none" font-weight="none" font-size="none" text-anchor="none" style="mix-blend-mode: normal"><path d="M341.17473,359.52782c-1.375,0.14933 -4.63196,0.66213 -6.72096,1.11713c-3.69867,0.80533 -4.0056,0.93941 -5.6626,2.56774c-0.936,0.91967 -2.35726,1.95127 -3.27393,2.34727c-3.80833,1.64533 -14.79757,5.39754 -17.59757,6.00921c-5.78267,1.26333 -7.4179,1.74211 -10.06657,2.92878c-2.70467,1.212 -6.72091,3.49973 -6.99758,3.9474c-0.08333,0.135 1.81544,1.73676 3.59844,1.85909c6.82567,0.46867 14.77982,1.66774 16.59182,2.63741c2.312,1.23767 0.76007,2.82628 -4.3506,6.77595c-4.005,3.09533 -7.17721,5.00862 -16.99888,10.30962c-4.56067,2.462 -10.1349,5.55596 -12.42657,6.89796c-4.51433,2.64367 -17.75887,9.43854 -22.3002,11.44087l-3.23943,2.26157l4.26189,2.3512c2.09767,1.01433 4.71581,2.21551 5.81581,2.66884c1.1,0.45333 4.9726,2.27468 8.61527,4.05235l7.02534,3.31436l7.87261,-3.92822c4.13367,-2.108 10.89617,-5.67314 15.0365,-7.92747c10.28367,-5.59933 20.64247,-10.75358 23.8238,-11.85158c2.14133,-0.739 3.28243,-0.92058 7.6861,-1.22025c6.92267,-0.47133 7.49221,-0.34657 14.44754,3.0361c3.00267,1.46 6.27981,2.3561 6.27981,2.25043c0,-1.27433 1.65472,-8.75988 2.17439,-9.96788c1.237,-2.87567 4.77105,-5.55573 7.51038,-5.55573c2.49033,0 4.30989,2.1236 5.11289,5.40293c0.26933,1.1 0.48603,3.36429 0.61036,5.42662c0.124,2.06267 0.38074,4.04851 0.45807,4.04851c0.07767,0 1.62436,0.20836 2.28236,-0.06664c0.65833,-0.275 1.72882,-0.48161 2.70815,-0.48161c1.521,0 1.296,-0.26966 2.313,0.62334c2.57033,2.25667 3.72547,5.99765 2.77247,8.88565c-0.37467,1.135 -0.30782,1.38196 0.81151,3.19563c0.65633,1.063 1.3015,2.30286 1.4835,2.93786c0.42133,1.46867 0.41307,3.98111 -0.00393,5.43544l0.24727,1.96861l3.30873,-0.19101c3.025,-0.238 7.89798,-1.02547 13.56098,-2.19114c1.82133,-0.375 4.96506,-0.85635 7.00806,-1.07335l4.04108,-0.51066l0.05885,-2.68206c-0.16733,-0.926 -1.19469,-3.60708 -2.26136,-5.89875c-2.41933,-5.199 -2.92585,-6.41551 -6.50485,-15.62584c-1.59333,-4.09967 -3.36009,-8.36336 -3.98442,-9.66636c-1.75233,-3.656 -2.02055,-4.90718 0.22845,-5.47151c1.138,-0.28567 4.97454,0.85664 9.05654,2.47797c1.83333,0.728 6.4544,2.32668 10.3044,3.56401c7.583,2.43667 14.69959,4.85552 19.13526,6.50319l3.83547,0.62598l-0.12598,-6.47912c-0.121,-3.338 -0.21981,-8.47312 -0.21981,-11.42412l-0.01892,-5.53259l-1.98101,-1.11271c-1.69067,-0.60533 -8.36581,-1.26662 -15.44581,-1.52995c-3.20833,-0.11933 -7.40576,-0.3599 -9.42243,-0.5469c-6.16567,-0.57233 -28.15363,-5.27865 -30.64263,-6.55898c-0.71033,-0.36567 -2.15522,-1.37979 -3.25722,-2.26712c-9.74833,-7.85 -23.17751,-11.56014 -36.57384,-10.10747z" data-paper-data="{&quot;wickUUID&quot;:&quot;0ef23e67-8298-4e65-81b2-c68cd7653b36&quot;,&quot;wickType&quot;:&quot;path&quot;,&quot;originalStyle&quot;:{&quot;strokeColor&quot;:null,&quot;fillColor&quot;:[&quot;Color&quot;,1,0.50196,0],&quot;strokeWidth&quot;:1}}" fill="#ff8000"/><path d="M393.7583,345.71652c-10.17067,5.38133 -17.28466,9.31586 -20.35866,11.25886l-3.77891,2.79417l3.46673,2.48109c1.68433,0.93033 4.55017,2.76228 6.3785,4.07695c1.82833,1.31433 4.18739,2.71364 4.96272,2.98731c2.089,0.737 19.93131,4.4906 26.09664,5.48993c1.19167,0.193 6.07669,0.5243 10.75169,0.72397c4.675,0.19933 10.26185,0.56795 12.42718,0.81962l4.34724,0.38733l10.61849,-6.92191c5.77167,-3.76967 10.6762,-7.11617 10.62253,-7.16884c-0.05367,-0.05267 -2.41654,-2.14246 -4.70821,-3.05313c-8.82167,-3.506 -20.97324,-7.13169 -41.11457,-12.26802c-8.21233,-2.09433 -15.12178,-3.83457 -15.15945,-3.83124c-0.038,0.00333 -2.35192,1.05991 -4.55192,2.22391z" data-paper-data="{&quot;wickUUID&quot;:&quot;873dceee-a1e6-4146-ba92-149e72a095c1&quot;,&quot;wickType&quot;:&quot;path&quot;,&quot;originalStyle&quot;:{&quot;strokeColor&quot;:null,&quot;fillColor&quot;:[&quot;Color&quot;,0.50196,0,1],&quot;strokeWidth&quot;:1}}" fill="#8000ff"/><path d="M319.18341,325.1022c-0.208,0.257 -0.95705,1.58216 -1.60672,2.88083c-1.33967,2.677 -2.73439,4.11938 -4.41072,4.43405c-0.72233,0.13533 -1.66606,-0.11887 -3.40573,-0.55887c-1.515,-0.383 -3.53896,-0.38836 -3.64496,-0.27803c-0.10633,0.11033 0.69657,2.23748 1.6619,3.10581c1.44967,1.304 2.39455,1.79778 4.66188,2.42711c1.50967,0.41933 3.65204,1.01725 4.56871,1.27292c0.91667,0.25567 2.92795,0.43736 4.21128,0.38703c2.12333,-0.083 3.073,-0.7173 2.974,-1.32397c-0.45067,-2.76167 -0.37963,-5.01027 0.11804,-5.97294c0.29467,-0.56967 0.47007,-1.5129 0.47007,-1.59623c0,-0.08333 -0.83242,-0.7932 -1.64775,-1.2712c-1.71367,-1.004 -1.85878,-1.2005 -2.11145,-2.7545c-0.14933,-0.919 -1.53555,-1.12734 -1.83855,-0.75201z" data-paper-data="{&quot;wickUUID&quot;:&quot;77b30f6a-cf8e-48ee-bdb1-7d865359ad74&quot;,&quot;wickType&quot;:&quot;path&quot;,&quot;originalStyle&quot;:{&quot;strokeColor&quot;:null,&quot;fillColor&quot;:[&quot;Color&quot;,0,0,0],&quot;strokeWidth&quot;:1}}" fill="#000000"/><path d="M359.2305,409.09293c-0.38067,1.39867 -0.86834,3.66699 -1.05667,4.85366c-0.33833,2.12867 -0.22489,2.62695 0.72811,3.62262c0.53133,0.555 2.99624,4.08231 5.42224,7.74898c2.426,3.66667 4.99749,7.38718 5.63349,8.16651c1.103,1.35067 1.87366,1.69863 3.59866,1.69863c1.80567,0 2.65856,-0.78864 3.30023,-2.20231c1.199,-2.64167 0.81175,-4.27864 -1.87292,-7.28764c-1.02067,-1.144 -1.82396,-2.26783 -1.82396,-2.6235c0,-0.35567 0.28869,-0.54597 0.72169,-1.12964c0.43333,-0.58367 0.95852,-1.74492 1.05952,-2.16192c0.21667,-0.89567 -0.61445,-3.75305 -1.05312,-3.75305c-0.168,0 -1.79939,0.11024 -2.73406,0.47857c-2.79067,1.1 -3.90063,1.5122 -5.38663,1.11187c-1.88133,-0.50633 -1.72604,-0.67818 -1.37771,-5.58385l0.26523,-4.11232l-2.01358,-1.25161l-2.43336,-0.57631z" data-paper-data="{&quot;wickUUID&quot;:&quot;2f110314-10eb-421a-acdd-84dd71f8b82f&quot;,&quot;wickType&quot;:&quot;path&quot;,&quot;originalStyle&quot;:{&quot;strokeColor&quot;:null,&quot;fillColor&quot;:[&quot;Color&quot;,0,0,0],&quot;strokeWidth&quot;:1}}" fill="#000000"/><path d="M337.95737,355.47499c-0.785,0.108 -2.484,0.504 -3.774,0.88c-1.291,0.376 -3.167,0.684 -4.169,0.684c-1.284,0 -2.067,0.299 -2.65,1.015c-0.456,0.559 -1.269,1.549 -1.807,2.202c-1.478,1.791 -16.656,7.292 -19.872,7.202c-2.856,-0.079 -9.537,2.649 -16.031,6.547c-4.857,2.915 -5.599,3.537 -6.596,5.536c-1.023,2.051 -1.06,2.348 -0.413,3.335c0.68,1.037 1.149,1.11 10.848,1.688c5.576,0.332 10.424,0.764 10.775,0.96c1.044,0.584 -6.273,5.338 -16.106,10.463c-3.046,1.588 -7.65,4.111 -10.232,5.607c-9.834,5.699 -11.546,6.624 -18.257,9.864c-3.795,1.832 -9.135,4.11 -11.865,5.062c-2.73,0.953 -5.171,2.06 -5.424,2.461c-0.253,0.4 -0.322,1.274 -0.155,1.941c0.255,1.016 1.057,1.502 4.948,2.997c2.554,0.981 6.785,2.8 9.403,4.042c2.617,1.242 7.269,3.389 10.338,4.771c3.069,1.382 6.161,3.12 6.871,3.861c0.71,0.741 1.789,1.347 2.398,1.347c0.609,0 3.885,-1.391 7.279,-3.092c6.17,-3.092 9.784,-5.007 28.081,-14.875c10.446,-5.634 15.036,-7.507 17.288,-7.057c0.783,0.157 2.341,-0.063 3.592,-0.508c3.367,-1.196 5.791,-0.599 13.278,3.272c3.591,1.856 7.6,3.915 8.908,4.575c2.121,1.069 2.753,1.799 5.812,6.706c1.887,3.029 4.581,7.005 5.986,8.838l2.554,3.331l8.053,0.143c8.076,0.144 13.288,-0.314 18.418,-1.619c1.514,-0.385 5.69,-1.111 9.28,-1.615c6.157,-0.863 6.603,-0.998 7.837,-2.37c0.87,-0.967 1.309,-1.982 1.309,-3.026c0,-2.165 -1.275,-6.336 -2.678,-8.764c-1.975,-3.417 -10.036,-23.732 -9.592,-24.176c0.119,-0.119 2.125,0.516 4.458,1.411c2.334,0.895 8.204,2.855 13.047,4.356c4.842,1.502 10.731,3.573 13.087,4.604c7.055,3.087 6.626,2.969 8.291,2.28c2.773,-1.149 3.087,-2.526 2.604,-11.428c-0.234,-4.324 -0.426,-10.797 -0.426,-14.385c0,-5.222 -0.145,-6.669 -0.729,-7.255c-1.042,-1.047 -9.415,-2.038 -20.448,-2.422c-9.719,-0.338 -10.318,-0.422 -25.188,-3.532c-11.896,-2.487 -12.749,-2.745 -15.025,-4.537c-7.963,-6.273 -15.845,-9.745 -25.313,-11.152c-3.246,-0.482 -14.929,-0.591 -17.993,-0.168zM354.22237,360.39599c9.339,1.258 18.226,5.139 24.269,10.599c2.45,2.213 3.277,2.437 27.281,7.384c2.988,0.616 7.504,1.032 13.325,1.227c4.842,0.162 10.999,0.543 13.681,0.847l4.878,0.552l0.048,5.506c0.026,3.028 0.197,8.29 0.381,11.692c0.183,3.403 0.212,6.34 0.064,6.528c-0.149,0.187 -1.343,-0.173 -2.653,-0.8c-2.037,-0.975 -17.964,-6.363 -23.062,-7.801c-0.916,-0.259 -4.18,-1.452 -7.254,-2.652c-7.875,-3.075 -10.83,-2.986 -10.83,0.325c0,0.788 0.425,2.12 0.945,2.961c0.519,0.84 2.319,5.149 4,9.574c3.646,9.6 5.355,13.683 7.418,17.722c0.846,1.657 1.647,3.821 1.78,4.807l0.24,1.794l-3.503,0.319c-1.927,0.176 -5.538,0.75 -8.024,1.275c-8.797,1.86 -12.684,2.337 -19.098,2.346l-6.486,0.008l-1.879,-2.498c-1.033,-1.375 -3.437,-4.962 -5.342,-7.972c-3.989,-6.305 -5.517,-8.09 -6.926,-8.09c-0.553,0 -1.209,-0.197 -1.458,-0.437c-0.923,-0.893 -11.977,-6.573 -14.834,-7.623c-2.503,-0.92 -3.53,-1.044 -6.662,-0.805c-2.036,0.155 -4.46,0.279 -5.385,0.277c-4.07,-0.011 -11.869,3.549 -30.952,14.127c-2.768,1.534 -8.586,4.594 -12.929,6.8l-7.898,4.011l-5.154,-2.642c-2.834,-1.454 -7.081,-3.438 -9.437,-4.409c-2.355,-0.972 -4.956,-2.18 -5.778,-2.685c-0.823,-0.505 -2.322,-1.214 -3.332,-1.577l-1.835,-0.659l2.617,-1.098c3.638,-1.528 15.826,-7.585 19.274,-9.578c1.57,-0.909 4.889,-2.831 7.376,-4.273c2.487,-1.441 7.517,-4.176 11.18,-6.078c8.773,-4.554 13.988,-7.99 17.968,-11.837c2.181,-2.107 2.69,-3.412 1.85,-4.737c-0.657,-1.037 -7.027,-2.341 -14.342,-2.937c-3.795,-0.31 -6.947,-0.61 -7.005,-0.668c-0.058,-0.057 1.334,-0.95 3.093,-1.983c4.358,-2.559 8.305,-4.04 12.049,-4.522c1.728,-0.223 5.261,-1.152 7.853,-2.065c13.481,-4.752 13.639,-4.823 15.415,-6.885c1.134,-1.316 2.085,-1.969 2.872,-1.971c0.648,-0.002 2.034,-0.241 3.081,-0.532c4.988,-1.387 12.678,-1.735 19.12,-0.867z" data-paper-data="{&quot;wickUUID&quot;:&quot;ee7e3a51-454a-4ac7-92ff-16bad1d96fe9&quot;,&quot;wickType&quot;:&quot;path&quot;,&quot;originalStyle&quot;:{&quot;strokeColor&quot;:null,&quot;fillColor&quot;:[&quot;Color&quot;,0,0,0],&quot;strokeWidth&quot;:1}}" fill="#000000"/><path d="M358.08485,398.69349c-3.258,2.037 -4.556,4.389 -5.184,9.388c-0.503,4.009 -1.214,6.449 -2.212,7.593c-0.846,0.969 -3.477,2.382 -5.944,3.192c-2.35,0.771 -4.646,3.56 -4.646,5.643c0,1.871 1.08,4.154 2.163,4.569c2.584,0.992 11.077,-0.522 13.076,-2.332c2.039,-1.845 4.252,0.149 4.266,3.843c0.01,2.771 2.154,5.968 4.822,7.191c2.762,1.266 8.407,2.266 10.9,1.932c5.835,-0.783 8.662,-9.45 4.847,-14.862c-1.265,-1.795 -1.43,-2.33 -1.04,-3.358c0.859,-2.258 0.538,-4.666 -0.931,-6.982c-0.767,-1.21 -1.824,-2.43 -2.348,-2.711c-1.321,-0.706 -3.877,-0.608 -5.298,0.205c-0.654,0.374 -1.35,0.687 -1.547,0.697c-0.196,0.009 -0.356,-1.765 -0.356,-3.942c0,-5.211 -0.962,-8.383 -3.115,-10.274c-2.256,-1.98 -4.035,-1.93 -7.453,0.208zM362.43285,407.30049l1.541,0.768l-0.328,4.382c-0.282,3.753 -0.214,4.496 0.469,5.18c1.071,1.071 3.809,1 6.374,-0.164c1.141,-0.518 2.35,-0.941 2.686,-0.941c1.442,0 1.619,3.745 0.236,4.996c-1.452,1.315 -1.156,2.504 1.19,4.784c1.91,1.856 2.142,2.312 2.142,4.214c0,1.545 -0.305,2.487 -1.105,3.418l-1.105,1.284l-3.297,-0.627c-3.794,-0.722 -5.706,-1.549 -6.312,-2.727c-0.234,-0.455 -0.545,-2.058 -0.693,-3.561c-0.391,-3.993 -2.98,-7.023 -6,-7.023c-0.901,0 -0.915,-0.087 -0.262,-1.65c0.38,-0.908 0.69,-2.766 0.69,-4.13c0,-1.874 1.71,-8.972 2.162,-8.972c0.039,0 0.765,0.346 1.612,0.769z" data-paper-data="{&quot;wickUUID&quot;:&quot;1f6773a7-8af6-4226-8506-f9083a5b2e66&quot;,&quot;wickType&quot;:&quot;path&quot;,&quot;originalStyle&quot;:{&quot;strokeColor&quot;:null,&quot;fillColor&quot;:[&quot;Color&quot;,0,0,0],&quot;strokeWidth&quot;:1}}" fill="#000000"/><path d="M317.19892,319.97626c-0.555,0.555 -1.75,2.612 -2.655,4.57c-1.556,3.369 -1.712,3.543 -2.916,3.242c-0.7,-0.175 -2.627,-0.437 -4.283,-0.582c-2.918,-0.256 -3.062,-0.215 -4.64,1.314c-1.361,1.319 -1.629,1.919 -1.629,3.638c0,1.756 0.293,2.377 1.995,4.223c2.325,2.522 5.129,4.243 7.625,4.68c0.972,0.17 1.894,0.514 2.048,0.764c0.155,0.249 -0.159,2.021 -0.697,3.938c-0.537,1.916 -0.977,4.402 -0.977,5.524c0,2.363 0.569,3.014 7.314,8.369c5.421,4.304 6.496,4.991 7.805,4.994c1.341,0.003 2.365,-1.939 1.73,-3.281c-0.437,-0.925 -11.018,-9.565 -11.713,-9.565c-0.635,0 -0.424,-1.882 0.594,-5.303l0.972,-3.264h3.089c3.521,0 5.915,-0.828 7.041,-2.435c0.876,-1.252 1.006,-3.56 0.302,-5.41c-0.372,-0.979 -0.263,-1.657 0.514,-3.179c1.242,-2.435 0.931,-3.815 -1.366,-6.064c-0.96,-0.94 -2.122,-2.529 -2.583,-3.531c-0.46,-1.002 -1.322,-2.227 -1.915,-2.721c-1.497,-1.249 -4.367,-1.209 -5.655,0.079zM320.59492,326.25226c0.01,1.415 0.436,1.961 2.258,2.895c1.523,0.781 1.538,0.819 0.832,2.184c-0.841,1.627 -0.912,3.243 -0.224,5.055c0.372,0.978 0.343,1.404 -0.119,1.72c-0.935,0.64 -6.268,-0.011 -8.731,-1.067c-1.206,-0.517 -2.719,-0.94 -3.361,-0.94c-1.294,0 -5.406,-3.499 -4.812,-4.093c0.198,-0.198 1.501,-0.001 2.895,0.439c3.252,1.025 4.012,1.004 5.934,-0.168c1.146,-0.699 1.98,-1.87 3.039,-4.269c1.422,-3.218 2.274,-3.872 2.289,-1.756z" data-paper-data="{&quot;wickUUID&quot;:&quot;f2bfda88-cc46-422d-a9f8-3f606476561d&quot;,&quot;wickType&quot;:&quot;path&quot;,&quot;originalStyle&quot;:{&quot;strokeColor&quot;:null,&quot;fillColor&quot;:[&quot;Color&quot;,0,0,0],&quot;strokeWidth&quot;:1}}" fill="#000000"/><path d="M393.39856,340.97904c-13.774,7.077 -27.583,15.268 -29.386,17.431c-1.238,1.485 -0.141,3.863 1.782,3.863c0.485,0 3.213,-1.586 6.062,-3.524c2.849,-1.939 5.985,-3.862 6.97,-4.273c0.985,-0.412 4.274,-2.174 7.309,-3.917c3.035,-1.743 7.004,-3.903 8.819,-4.8l3.301,-1.631l6.257,1.656c3.441,0.91 9.083,2.322 12.539,3.137c10.052,2.372 26.948,7.331 34.154,10.024c8.802,3.291 12.074,4.916 13.91,6.91c1.743,1.893 2.605,2.046 3.95,0.701c3.204,-3.204 -1.914,-7.043 -16.63,-12.475c-7.095,-2.62 -24.382,-7.671 -34.052,-9.952c-3.403,-0.802 -8.971,-2.214 -12.374,-3.138c-8.704,-2.363 -8.036,-2.362 -12.611,-0.012z" data-paper-data="{&quot;wickUUID&quot;:&quot;fc49a717-7d32-4735-bf4a-9fd21f279147&quot;,&quot;wickType&quot;:&quot;path&quot;,&quot;originalStyle&quot;:{&quot;strokeColor&quot;:null,&quot;fillColor&quot;:[&quot;Color&quot;,0,0,0],&quot;strokeWidth&quot;:1}}" fill="#000000"/><path d="M458.12046,362.86783c-2.225,1.357 -5.652,3.592 -7.615,4.967c-1.963,1.374 -6.182,4.126 -9.376,6.114c-5.846,3.639 -6.791,4.655 -5.892,6.334c1.285,2.4 2.951,1.682 15.369,-6.629c4.636,-3.103 9.513,-6.209 10.839,-6.902c3.647,-1.907 4.734,-3.973 2.943,-5.594c-1.275,-1.154 -1.816,-1.007 -6.268,1.71z" data-paper-data="{&quot;wickUUID&quot;:&quot;5b43c269-e45c-485a-b152-b5f24365af27&quot;,&quot;wickType&quot;:&quot;path&quot;,&quot;originalStyle&quot;:{&quot;strokeColor&quot;:null,&quot;fillColor&quot;:[&quot;Color&quot;,0,0,0],&quot;strokeWidth&quot;:1}}" fill="#000000"/><path d="M440.74664,328.21464c-3.142,1.117 -6.355,2.361 -7.138,2.766c-0.784,0.405 -2.388,0.993 -3.566,1.307c-1.178,0.313 -3.32,1.282 -4.759,2.152c-1.44,0.869 -4.01,2.113 -5.711,2.764c-5.551,2.123 -11.398,5.102 -11.917,6.072c-1.111,2.075 0.867,3.826 3.436,3.042c0.608,-0.185 2.604,-1.083 4.436,-1.996c1.832,-0.913 4.753,-2.174 6.492,-2.803c1.738,-0.629 4.402,-1.891 5.92,-2.805c1.518,-0.914 3.06,-1.662 3.425,-1.662c0.366,0 2.37,-0.75 4.453,-1.666c2.084,-0.916 4.075,-1.666 4.425,-1.666c0.35,0 0.987,0.536 1.415,1.19c2.139,3.264 8.841,-0.712 8.846,-5.248c0.003,-2.035 -1.199,-3.565 -2.761,-3.516c-0.705,0.022 -3.853,0.953 -6.996,2.069z" data-paper-data="{&quot;wickUUID&quot;:&quot;3f3e8ffa-23b1-49d9-bba2-26d28fc3e69f&quot;,&quot;wickType&quot;:&quot;path&quot;,&quot;originalStyle&quot;:{&quot;strokeColor&quot;:null,&quot;fillColor&quot;:[&quot;Color&quot;,0,0,0],&quot;strokeWidth&quot;:1}}" fill="#000000"/><path d="M471.30529,330.26753c-1.363,1.242 -4.571,4.24 -7.13,6.663c-2.558,2.422 -4.816,4.404 -5.018,4.404c-0.201,0 -1.203,1.124 -2.225,2.498c-1.023,1.374 -2.984,3.702 -4.357,5.174c-2.909,3.118 -3.528,4.779 -2.29,6.148c0.464,0.513 1.224,0.932 1.689,0.932c0.977,0 4.34,-3.424 7.589,-7.725c1.239,-1.64 3.616,-4.087 5.283,-5.436c1.666,-1.35 3.521,-2.98 4.122,-3.623c1.007,-1.077 1.35,-1.151 4.364,-0.935c4.029,0.288 5.226,0.007 6.842,-1.61c1.452,-1.452 1.656,-3.559 0.591,-6.108c-0.839,-2.008 -1.986,-2.64 -4.788,-2.64c-1.951,0 -2.468,0.249 -4.672,2.258z" data-paper-data="{&quot;wickUUID&quot;:&quot;96e9643b-01f0-42b8-bb62-6d042bb9de14&quot;,&quot;wickType&quot;:&quot;path&quot;,&quot;originalStyle&quot;:{&quot;strokeColor&quot;:null,&quot;fillColor&quot;:[&quot;Color&quot;,0,0,0],&quot;strokeWidth&quot;:1}}" fill="#000000"/></g><g fill="none" fill-rule="nonzero" stroke="none" stroke-width="1" stroke-linecap="butt" stroke-linejoin="miter" stroke-miterlimit="10" stroke-dasharray="" stroke-dashoffset="0" font-family="sans-serif" font-weight="normal" font-size="12" text-anchor="start" style="mix-blend-mode: normal"/><g id="wick_project_gui" fill="none" fill-rule="nonzero" stroke="none" stroke-width="1" stroke-linecap="butt" stroke-linejoin="miter" stroke-miterlimit="10" stroke-dasharray="" stroke-dashoffset="0" font-family="sans-serif" font-weight="normal" font-size="12" text-anchor="start" style="mix-blend-mode: normal"/></g></svg>