<svg version="1.1" xmlns="http://www.w3.org/2000/svg" xmlns:xlink="http://www.w3.org/1999/xlink" width="1260" height="490" viewBox="0,0,1260,490"><g transform="translate(145.99587,-204.33028) scale(1.18074,1.18074)"><g id="wick_project_bg" fill-opacity="0" fill="#ffffff" fill-rule="nonzero" stroke="none" stroke-width="1" stroke-linecap="butt" stroke-linejoin="miter" stroke-miterlimit="10" stroke-dasharray="" stroke-dashoffset="0" font-family="none" font-weight="none" font-size="none" text-anchor="none" style="mix-blend-mode: normal"><rect x="0" y="0" width="720" height="480"/></g><g data-paper-data="{&quot;wickUUID&quot;:&quot;61d51e6f-eadb-4467-bac2-08a404e62303&quot;,&quot;wickType&quot;:&quot;clipsandpaths&quot;}" fill="none" fill-rule="evenodd" stroke="none" stroke-width="1" stroke-linecap="butt" stroke-linejoin="miter" stroke-miterlimit="10" stroke-dasharray="" stroke-dashoffset="0" font-family="none" font-weight="none" font-size="none" text-anchor="none" style="mix-blend-mode: normal"><path d="M370.47326,216.04344c-2.21567,0.59633 -3.65654,1.84613 -3.65654,2.4208c0,0.61367 1.58365,2.06697 3.34998,2.54264c3.48733,0.939 5.64257,2.7878 8.10557,6.95913l1.84831,2.82632l5.47086,0.05482c5.179,0 4.77346,-0.18821 6.81013,0.82946c3.71267,1.85533 4.64838,4.09564 3.02305,7.25097c-0.65,1.26233 -0.97122,1.21767 -3.93689,3.044c-4.09967,2.525 -10.44202,6.67938 -11.57969,7.58638l-1.16713,1.29034l0.54928,3.90962c1.01,7.00567 1.30465,8.96669 0.68532,10.33502c-1.69933,3.75333 -9.9297,9.64072 -20.11403,14.44839c-2.475,1.16833 -4.99285,2.36454 -5.62085,2.67454c-0.628,0.31 -2.60863,1.93036 -4.36996,3.58036c-3.902,3.655 -4.6341,4.20571 -6.39843,3.87471c-1.63567,-0.30667 -2.70191,-1.72532 -3.18191,-3.50799c-0.449,-1.668 -2.20166,-2.47006 -2.88099,-1.90606c-0.25933,0.215 -1.72959,2.64356 -2.86626,4.92623c-1.98567,3.98867 -2.06267,4.80924 -1.55267,5.58791c0.77533,1.183 2.9343,2.86332 4.98497,3.66965c1.90067,0.74767 6.25357,1.74136 7.55124,1.74136c0.44033,0 2.45514,-1.11432 4.14881,-2.41999c3.55533,-2.741 9.20927,-6.58828 11.2466,-7.61928c2.092,-1.059 3.72577,-0.77679 7.56377,0.99121c3.624,1.66933 5.55187,1.81614 9.72654,0.76581c3.20267,-0.80567 9.31986,-1.72267 11.49153,-1.72667c0.86533,-0.00133 2.30709,-0.09136 3.25276,-0.20503l2.47076,-0.83507l-1.45764,-1.67882c-3.30667,-2.52233 -5.95931,-7.89359 -8.20931,-16.64026c-1.24433,-4.83733 -1.2963,-5.14592 -1.15097,-8.04759c0.19367,-3.85633 1.61911,-8.94657 3.54644,-12.42324c2.55667,-4.61167 7.29322,-8.42321 15.35555,-12.42621l3.17151,-1.58683l4.08143,0.02846c3.74867,0.00967 4.61229,0.10799 7.49596,0.93332c4.23067,1.211 8.88774,3.00458 12.60574,4.92258c4.95233,2.555 7.60344,6.09427 10.66011,14.1146l1.12161,2.93971l0.00565,6.9473c0.00467,8.325 -0.20796,9.43947 -3.22429,16.11114c-2.363,5.22667 -3.29291,6.44825 -6.28791,8.53958c-1.70567,1.19067 -2.63071,2.2965 -2.51904,2.64183c0.09,0.27967 0.69158,2.05282 1.34225,3.61115c1.53967,3.688 1.57321,5.17761 0.16388,7.12294c-0.56333,0.778 -0.89785,1.89582 -0.83852,1.95349c0.05933,0.05767 1.81223,0.99776 2.91223,1.49409c4.24167,1.91467 9.19091,1.23881 12.32891,-1.65386c1.74967,-1.61267 1.85659,-3.39151 -0.92908,-3.98251c-2.596,-0.551 -3.68763,-0.92926 -4.31663,-2.43459c-0.85867,-2.05467 -0.40491,-3.5948 2.44676,-9.51913c1.747,-3.62933 3.36396,-7.74658 5.08229,-12.94625l2.5699,-7.82299l-1.56564,-1.88147c-1.80867,-1.60067 -2.16643,-1.8154 -3.1921,-3.50773c-1.557,-2.569 -1.07798,-6.51631 1.21435,-9.84898c1.46467,-2.129 1.95415,-2.30509 4.20682,-2.16109c1.62333,0.10367 1.96133,0.3406 5.023,2.29227c3.289,2.09667 5.53491,2.70803 6.00758,1.94303c0.105,-0.17 1.13202,-2.57876 1.59002,-4.60776l0.8417,-4.04601l-2.08821,-2.64489c-1.68167,-2.00267 -1.9685,-2.49998 -2.53883,-4.69465c-1.033,-3.97333 -1.22019,-4.63811 -0.63686,-5.76644c0.702,-1.35767 1.57787,-1.56417 4.9982,-2.06317c2.567,-0.37467 3.4264,-1.18963 3.37607,-1.76163c-0.38067,-4.31 -1.18874,-12.00428 -1.32141,-12.45861c-0.09333,-0.321 -1.61317,-1.20376 -1.8535,-1.20376c-1.412,0 -5.44345,2.60853 -8.90445,5.76453l-2.37232,2.27804l0.50603,2.5512c0.331,1.273 0.49045,2.58475 0.40112,3.67642c-0.132,1.61067 -0.06478,1.47784 -1.20445,2.46284c-0.70733,0.61133 -1.67571,1.37347 -2.94604,2.00914c-4.30967,2.156 -7.63223,1.3497 -12.4739,-2.9943c-4.35833,-3.91033 -4.2075,-3.89931 -19.50717,-1.49498c-8.64867,1.359 -10.92439,0.96004 -24.07306,-4.23463c-9.21067,-3.639 -12.82825,-4.95232 -14.75392,-5.36832c-3.46867,-0.75 -3.77366,-1.20251 -3.46433,-4.26218l-0.03266,-1.62232l-2.41763,-0.17615c-0.98167,0.012 -2.75704,0.27244 -3.72937,0.53411z" data-paper-data="{&quot;wickUUID&quot;:&quot;d1a3f9e7-2ad6-4b55-86a4-e5d18088717a&quot;,&quot;wickType&quot;:&quot;path&quot;,&quot;originalStyle&quot;:{&quot;strokeColor&quot;:null,&quot;fillColor&quot;:[&quot;Color&quot;,1,0.50196,0],&quot;strokeWidth&quot;:1}}" fill="#ff8000"/><path d="M411.29539,264.58929c-1.775,0.224 -3.068,0.915 -4.667,2.492c-1.181,1.164 -1.505,1.63 -2.311,3.317c-1.111,2.326 -1.928,4.771 -2.728,8.161c-0.481,2.043 -0.586,2.86 -0.596,4.646c-0.011,1.762 0.045,2.257 0.297,2.641c0.353,0.54 1.985,1.82 3.247,2.546c0.561,0.323 0.942,0.699 1.106,1.091c0.258,0.619 1.008,1.276 2.072,1.814c0.456,0.231 0.837,0.281 1.485,0.195c0.942,-0.125 1.27,-0.009 2.312,0.813c0.916,0.724 2.525,1.15 3.334,0.883c0.426,-0.141 2.048,-0.191 5.004,-0.157c4.301,0.051 4.384,0.045 4.949,-0.357c0.316,-0.225 0.575,-0.476 0.575,-0.557c0,-0.08 0.444,-0.202 0.986,-0.27c1.494,-0.186 4.339,-1.831 4.976,-2.876c0.742,-1.217 0.139,-3.261 -1.162,-3.936c-0.609,-0.316 -1.108,-0.354 -5.034,-0.387c-2.769,-0.023 -4.586,-0.114 -4.986,-0.248c-0.89,-0.3 -3.941,-0.262 -5.852,0.073c-1.296,0.227 -1.824,0.243 -2.638,0.084c-0.559,-0.11 -1.774,-0.232 -2.7,-0.27c-3.358,-0.14 -3.544,-0.54 -2.417,-5.202c1.011,-4.185 2.148,-6.991 3.369,-8.315c1.411,-1.531 2.178,-1.659 4.834,-0.805c1.405,0.452 1.786,0.511 2.337,0.362c1.504,-0.405 2.286,-2.283 1.503,-3.608c-0.39,-0.661 -1.602,-1.305 -3.298,-1.753c-1.835,-0.486 -2.582,-0.556 -3.997,-0.377z" data-paper-data="{&quot;wickUUID&quot;:&quot;0e614e05-bb96-44ac-a052-9fa11b7e1a5c&quot;,&quot;wickType&quot;:&quot;path&quot;,&quot;originalStyle&quot;:{&quot;strokeColor&quot;:null,&quot;fillColor&quot;:[&quot;Color&quot;,1,1,1],&quot;strokeWidth&quot;:1}}" fill="#ffffff"/><path d="M420.18942,260.66274c-3.67333,1.289 -7.13643,1.73681 -15.61376,2.01848c-3.025,0.10067 -5.93133,0.26687 -6.34933,0.35154c-0.45467,0.09233 -1.60814,1.18479 -1.93781,1.87679c-0.53533,1.12267 -0.47593,1.83244 0.2874,2.64477c0.43167,0.46 0.99838,0.86265 1.24138,0.86265c0.55733,0 0.44513,-0.22244 -0.1412,0.91123c-0.42833,0.82833 -0.35397,1.28288 0.25436,2.24388c0.371,0.58567 1.49424,1.60462 1.65491,1.60462c1.80933,0 16.50387,1.18362 20.92954,1.68529c3.162,0.35867 7.03561,0.65459 8.51094,0.65459c2.404,0 3.34497,-0.3219 4.07797,-1.05523c0.99367,-0.99333 0.93829,-3.18699 0.04329,-3.99666c-0.52,-0.471 -2.12782,-0.85828 -5.93582,-1.23428c-2.70167,-0.26667 -4.70586,-0.44529 -4.76653,-0.49896c-0.061,-0.054 0.41553,0.08209 0.54186,-0.93091c0.203,-1.623 -0.13326,-1.35212 0.68474,-1.63745c0.81967,-0.28567 0.42111,-0.17584 1.37544,0.80883c1.57233,1.62233 3.90763,1.35825 4.96096,0.66825c1.90533,-1.24867 0.01993,-5.1798 -3.5304,-7.30813c-1.50767,-0.904 -2.45494,-1.0143 -6.28794,0.3307zM416.657,267.69915c0,0.47167 0.38047,0.18294 -1.38453,-0.00173c-1.12667,-0.11767 -1.75114,1.12809 -2.22847,1.10076c-1.10367,-0.06367 0.9542,-0.16327 2.88453,-0.2316c1.112,-0.03933 0.72847,-1.2971 0.72847,-0.86743z" data-paper-data="{&quot;wickUUID&quot;:&quot;6866086c-0aae-4e41-aa40-dc46c4fa5353&quot;,&quot;wickType&quot;:&quot;path&quot;,&quot;originalStyle&quot;:{&quot;strokeColor&quot;:null,&quot;fillColor&quot;:[&quot;Color&quot;,1,1,1],&quot;strokeWidth&quot;:1}}" fill="#ffffff"/><path d="M403.81648,241.86999c-5.61767,2.841 -8.66215,5.02397 -10.60915,7.5543c-1.794,2.33167 -3.82961,6.59513 -4.54661,9.38613c-1.37767,5.36 0.07991,13.1109 4.02024,21.25023c1.22333,2.527 1.87613,3.48991 3.1208,4.26324l2.14676,1.19445l3.69885,-1.18312c4.41367,-1.44567 9.32939,-2.48573 11.88739,-2.4844c5.01267,0.003 14.10216,1.4875 19.31016,3.15617c0.59833,0.19167 1.68639,-0.778 3.03672,-3.647c2.42133,-5.14467 3.01191,-7.71183 3.48924,-15.1085c0.20833,-3.225 0.13463,-3.83921 -1.00837,-7.25421c-1.27767,-3.81833 -3.0747,-7.62973 -4.8677,-10.34206c-0.995,-1.505 -1.88056,-2.18465 -4.60689,-3.45198c-6.70733,-3.11733 -15.295,-5.71173 -18.873,-5.71173c-0.77667,0 -3.21111,0.86748 -6.19844,2.37848zM425.76808,261.46784c0.685,0.34933 1.36685,0.9466 2.23318,1.87293c1.875,2.00433 2.22342,2.48446 0.87742,3.74879c-1.07367,1.00867 -1.59141,0.43462 -3.36108,-1.26171c-1.75867,-1.68567 -3.19355,-1.25328 -3.53355,1.01405c-0.12833,0.85633 -0.0329,3.02867 0.02877,3.09067c0.062,0.06167 2.24733,0.35948 4.62833,0.57848c4.99733,0.45933 5.97136,0.67087 6.28036,1.9012c0.26567,1.059 -0.11652,0.98859 -1.29052,1.43526c-1.28767,0.48933 -4.68779,0.36774 -10.99679,-0.34793c-3.162,-0.35867 -9.15269,-0.88189 -13.36936,-1.16789c-7.49033,-0.508 -7.40503,-0.45678 -8.1377,-1.28411c-0.78467,-0.88533 -0.56579,-2.07201 0.05388,-2.45501c0.21433,-0.13267 -0.21483,-0.78916 -0.81983,-1.15716c-0.56033,-0.341 -0.92326,-0.41946 -1.03993,-0.88479c-0.23333,-0.929 -0.0565,-1.54009 0.9185,-2.04042c0.32067,-0.16467 3.05719,-0.33808 6.35719,-0.45675c8.68933,-0.31233 11.62738,-0.69484 15.57071,-2.02851c4.02067,-1.35967 3.96609,-1.39077 5.60042,-0.5571z" data-paper-data="{&quot;wickUUID&quot;:&quot;8ab19107-f7a7-41ec-ac72-192e6ce52ec8&quot;,&quot;wickType&quot;:&quot;path&quot;,&quot;originalStyle&quot;:{&quot;strokeColor&quot;:null,&quot;fillColor&quot;:[&quot;Color&quot;,1,1,1],&quot;strokeWidth&quot;:1}}" fill="#ffffff"/><path d="M407.81617,296.62187c-0.09167,0.596 -0.37936,2.62291 -0.49236,4.14191c-0.23,3.089 -1.21343,7.4461 -3.13543,13.89377c-4.462,14.96833 -6.21038,23.57662 -6.59471,32.22795c-0.36533,8.22567 1.10168,13.10672 6.71035,21.97739c4.026,6.368 5.64329,8.28452 8.21829,9.63752c1.25333,0.65867 4.72335,2.06598 7.24302,2.91131c5.60433,1.88 8.98773,2.0841 12.94406,0.8401c2.23833,-0.704 3.0058,-1.16001 6.4178,-4.52034c2.00067,-1.97067 5.51343,-5.30246 7.71676,-7.31913c4.29033,-3.927 5.94534,-5.90833 7.88701,-9.44666l1.39447,-2.61178l-0.87851,-1.65993c-1.17667,-1.65233 -8.34953,-9.10479 -8.9322,-9.32846c-0.805,-0.30867 -2.20279,0.67389 -5.32679,6.13222c-3.017,5.27133 -4.78595,7.7656 -6.89562,9.67127c-1.49933,1.355 -0.96723,1.49201 -2.0849,0.70934c-1.52867,-1.071 -1.32662,-0.98349 -0.05862,-3.56382c1.84567,-3.75533 2.27371,-6.28221 2.87838,-16.91188c0.43667,-7.68233 0.74575,-25.79711 0.48442,-25.79711c-0.563,0 -9.03742,11.06778 -9.03742,11.96245c0,1.03367 -1.88686,4.43714 -3.05386,5.46181c-1.329,1.16667 -4.04036,2.57265 -6.06303,3.17798c-1.11933,0.335 -0.71715,0.4506 -1.47648,0.07827c-1.497,-0.73333 -1.98718,-1.07865 -1.70485,-2.36498c0.27767,-1.264 2.3716,-3.51578 4.80793,-5.30345c2.70533,-1.985 4.87715,-4.59999 9.21382,-11.09332c1.53033,-2.29167 3.31022,-4.86234 3.92322,-5.67101l1.14647,-2.40248l-3.10312,-1.66509c-3.28,-1.619 -4.82139,-2.7835 -4.82139,-3.9875c0,-1.16167 1.13872,-2.28993 2.48272,-3.1206c1.75533,-1.08467 1.95778,-1.95038 1.05045,-4.18271c-0.43567,-1.07233 -1.61463,-2.91042 -1.80063,-3.09642c-0.22833,-0.22833 -1.66107,0.48939 -2.85207,1.79239l-1.52254,1.77386l-1.79094,-0.22809c-2.22767,-0.17833 -6.18096,-1.35068 -9.64863,-2.86535c-2.088,-0.912 -3.04807,-0.5291 -3.24507,0.75057z" data-paper-data="{&quot;wickUUID&quot;:&quot;fa8e8b20-baa8-4f99-989f-d04920762cff&quot;,&quot;wickType&quot;:&quot;path&quot;,&quot;originalStyle&quot;:{&quot;strokeColor&quot;:null,&quot;fillColor&quot;:[&quot;Color&quot;,0.50196,0,1],&quot;strokeWidth&quot;:1}}" fill="#8000ff"/><path d="M401.83914,237.99809c-10.166,5.26 -13.856,9.142 -16.525,17.383c-1.967,6.073 -2.031,8.885 -0.354,15.383c1.819,7.051 3.906,12.103 6.191,14.995c1.534,1.94 2.829,2.768 9.581,6.123c8.931,4.438 16.297,7.312 19.607,7.65c1.918,0.195 2.469,0.057 3.45,-0.865c0.643,-0.603 1.174,-1.327 1.181,-1.609c0.007,-0.282 0.81,-0.884 1.784,-1.339c0.975,-0.456 3.684,-2.169 6.021,-3.808c4.159,-2.917 4.294,-3.073 6.486,-7.5c3.305,-6.674 4.366,-10.942 4.436,-17.846c0.052,-5.124 -0.079,-6.102 -1.278,-9.518c-3.711,-10.572 -6.301,-13.616 -14.483,-17.021c-8.401,-3.495 -12.89,-4.632 -18.295,-4.632c-2.424,0 -3.396,0.324 -7.802,2.604zM414.91414,240.88609c4.33,0.821 14.531,4.789 16.676,6.487c1.73,1.369 4.259,6.062 5.982,11.102c1.211,3.54 1.283,4.19 1.041,9.28c-0.292,6.104 -1.121,9.272 -3.83,14.628c-1.576,3.117 -2.087,3.674 -5.358,5.84c-5.069,3.357 -5.019,3.336 -9.971,4.08l-4.457,0.67l-5.132,-2.19c-6.017,-2.567 -13.915,-6.721 -14.782,-7.776c-2.726,-3.314 -6.484,-14.638 -6.434,-19.388c0.064,-6.18 3.139,-12.779 7.695,-16.516c3.142,-2.578 11.54,-6.95 13.348,-6.95c0.748,0 3.098,0.33 5.222,0.733z" data-paper-data="{&quot;wickUUID&quot;:&quot;530e1d51-7900-4508-a836-23a3c13ed8e6&quot;,&quot;wickType&quot;:&quot;path&quot;,&quot;originalStyle&quot;:{&quot;strokeColor&quot;:null,&quot;fillColor&quot;:[&quot;Color&quot;,0,0,0],&quot;strokeWidth&quot;:1}}" id="530e1d51-7900-4508-a836-23a3c13ed8e6" fill="#000000"/><path d="M405.62499,282.44869c-2.912,0.764 -5.745,1.63 -6.295,1.925c-2.234,1.195 -2.441,4.065 -0.332,4.595c0.606,0.152 2.038,-0.037 3.18,-0.421c1.143,-0.383 4.214,-1.187 6.823,-1.786c4.344,-0.997 5.089,-1.041 8.804,-0.527c6.589,0.911 9.106,1.416 12.566,2.523c3.745,1.197 4.733,0.924 4.964,-1.369c0.248,-2.474 -0.992,-3.037 -11.805,-5.355c-1.44,-0.309 -4.866,-0.654 -7.614,-0.768c-4.399,-0.182 -5.631,-0.04 -10.291,1.183z" data-paper-data="{&quot;wickUUID&quot;:&quot;43f90e10-bf0b-4ae8-98e6-b9b2b3c7689a&quot;,&quot;wickType&quot;:&quot;path&quot;,&quot;originalStyle&quot;:{&quot;strokeColor&quot;:null,&quot;fillColor&quot;:[&quot;Color&quot;,0,0,0],&quot;strokeWidth&quot;:1}}" id="43f90e10-bf0b-4ae8-98e6-b9b2b3c7689a" fill="#000000"/><path d="M423.66025,284.26925c-1.031,1.571 -1.483,9.449 -0.634,11.036c0.606,1.132 2.936,1.388 3.716,0.408c0.26,-0.327 0.582,-3.014 0.716,-5.971c0.194,-4.308 0.105,-5.513 -0.449,-6.067c-1.065,-1.065 -2.418,-0.825 -3.349,0.594z" data-paper-data="{&quot;wickUUID&quot;:&quot;d3e4996a-b3db-4178-b5dc-163f2883978f&quot;,&quot;wickType&quot;:&quot;path&quot;,&quot;originalStyle&quot;:{&quot;strokeColor&quot;:null,&quot;fillColor&quot;:[&quot;Color&quot;,0,0,0],&quot;strokeWidth&quot;:1}}" id="d3e4996a-b3db-4178-b5dc-163f2883978f" fill="#000000"/><path d="M412.58496,282.37847c-1.46,0.488 -1.904,1.744 -1.904,5.381c0,4.183 0.854,5.584 3.067,5.029c1.493,-0.375 1.779,-1.44 1.596,-5.948c-0.117,-2.899 -0.307,-3.611 -1.094,-4.104c-0.523,-0.329 -1.273,-0.49 -1.665,-0.358z" data-paper-data="{&quot;wickUUID&quot;:&quot;912ae251-6283-49bb-9637-d3d343d55986&quot;,&quot;wickType&quot;:&quot;path&quot;,&quot;originalStyle&quot;:{&quot;strokeColor&quot;:null,&quot;fillColor&quot;:[&quot;Color&quot;,0,0,0],&quot;strokeWidth&quot;:1}}" id="912ae251-6283-49bb-9637-d3d343d55986" fill="#000000"/><path d="M419.96121,261.44346c-2.297,0.98 -4.112,1.305 -9.28,1.662c-3.534,0.244 -7.87,0.432 -9.635,0.419c-2.886,-0.022 -3.287,0.092 -3.966,1.128c-1.775,2.709 0.998,4.378 6.39,3.847c1.741,-0.171 5.735,-0.466 8.876,-0.655c4.229,-0.254 6.488,-0.638 8.708,-1.478l2.996,-1.135l1.589,1.54c1.777,1.723 3.337,1.819 4.357,0.269c0.878,-1.333 -0.352,-3.746 -2.82,-5.534c-2.273,-1.647 -3.481,-1.657 -7.215,-0.063z" data-paper-data="{&quot;wickUUID&quot;:&quot;639384c4-d8e1-4b60-8037-684506723e03&quot;,&quot;wickType&quot;:&quot;path&quot;,&quot;originalStyle&quot;:{&quot;strokeColor&quot;:null,&quot;fillColor&quot;:[&quot;Color&quot;,0,0,0],&quot;strokeWidth&quot;:1}}" id="639384c4-d8e1-4b60-8037-684506723e03" fill="#000000"/><path d="M398.50599,268.93859c-0.726,1.108 -0.726,1.283 -0.004,2.385c0.429,0.655 0.828,1.193 0.888,1.197c0.059,0.003 3.641,0.212 7.96,0.463c4.318,0.251 10.315,0.781 13.325,1.179c7.599,1.004 11.063,0.964 12.061,-0.14c1.715,-1.895 0.385,-3.888 -2.595,-3.888c-1.038,0 -5.36,-0.411 -9.603,-0.913c-4.244,-0.502 -10.76,-1.04 -14.482,-1.196l-6.767,-0.283l-0.783,1.196z" data-paper-data="{&quot;wickUUID&quot;:&quot;7c41ec75-a3ea-448d-80d2-83ebfa93b224&quot;,&quot;wickType&quot;:&quot;path&quot;,&quot;originalStyle&quot;:{&quot;strokeColor&quot;:null,&quot;fillColor&quot;:[&quot;Color&quot;,0,0,0],&quot;strokeWidth&quot;:1}}" id="7c41ec75-a3ea-448d-80d2-83ebfa93b224" fill="#000000"/><path d="M418.56799,264.2188c-0.988,0.988 -1.32,2.444 -1.137,4.993c0.129,1.8 0.336,2.159 1.469,2.556c1.897,0.663 3.016,-0.674 3.418,-4.085c0.289,-2.448 0.219,-2.758 -0.769,-3.45c-1.364,-0.956 -2.036,-0.959 -2.981,-0.014z" data-paper-data="{&quot;wickUUID&quot;:&quot;28821b5d-e250-48e2-af2d-f4c19c6f362d&quot;,&quot;wickType&quot;:&quot;path&quot;,&quot;originalStyle&quot;:{&quot;strokeColor&quot;:null,&quot;fillColor&quot;:[&quot;Color&quot;,0,0,0],&quot;strokeWidth&quot;:1}}" id="28821b5d-e250-48e2-af2d-f4c19c6f362d" fill="#000000"/><path d="M371.18182,211.60562c-5.219,0.712 -9.073,3.33 -9.017,6.126c0.014,0.684 0.71,2.636 1.547,4.338l1.521,3.093l2.926,0.238c3.299,0.268 4.337,0.965 6.218,4.176c1.047,1.786 1.123,2.204 0.622,3.415c-1.205,2.909 0.887,4.621 3.803,3.114c1.912,-0.989 9.66,-1.508 11.535,-0.772c1.748,0.685 1.651,1.624 -0.26,2.536c-2.845,1.356 -14.117,9.009 -15.088,10.243c-1.055,1.343 -1.183,2.398 -0.486,4.034c0.256,0.601 0.787,3.337 1.181,6.08l0.715,4.986l-1.776,1.829c-3.983,4.105 -8.42,6.849 -19.714,12.191c-3.971,1.878 -5.664,2.996 -7.704,5.085l-2.615,2.678l-0.733,-1.601c-0.403,-0.881 -0.952,-1.922 -1.219,-2.315c-0.268,-0.393 -0.909,-1.736 -1.425,-2.985c-1.424,-3.445 -4.456,-4.003 -5.478,-1.008c-0.258,0.757 -2.15,4.687 -4.203,8.735c-2.963,5.839 -3.677,7.643 -3.459,8.736c0.373,1.866 3.808,5.872 5.987,6.984c2.032,1.037 8.069,2.695 11.44,3.142c2.27,0.301 2.307,0.283 5.757,-2.685c4.333,-3.73 10.937,-8.07 12.278,-8.07c0.557,0 2.284,0.643 3.84,1.428c2.376,1.199 3.386,1.427 6.319,1.427c2.124,0 4.597,-0.354 6.319,-0.906c3.643,-1.167 14.336,-2.182 18.917,-1.795c3.138,0.266 3.706,0.186 4.8,-0.675c1.455,-1.145 1.585,-2.351 0.37,-3.45c-1.708,-1.546 -19.526,-0.736 -25.575,1.161c-4.155,1.304 -6.343,1.174 -9.681,-0.576c-1.555,-0.815 -3.753,-1.581 -4.885,-1.702c-1.859,-0.2 -2.481,0.045 -6.475,2.545c-2.429,1.522 -5.953,4.021 -7.831,5.555c-3.227,2.638 -3.517,2.773 -5.338,2.486c-4.412,-0.695 -8.465,-2.235 -9.839,-3.739c-0.751,-0.822 -1.365,-1.677 -1.365,-1.899c0,-0.223 1.102,-2.535 2.449,-5.14c2.345,-4.532 2.487,-4.7 3.331,-3.937c0.485,0.439 0.882,1.097 0.882,1.462c0,1.364 1.431,3.358 2.824,3.935c2.222,0.92 3.588,0.273 7.306,-3.465c2.921,-2.936 4.072,-3.722 7.716,-5.269c11.564,-4.908 22.337,-12.631 23.372,-16.755c0.238,-0.948 -0.906,-10.549 -1.537,-12.904c-0.246,-0.919 0.49,-1.55 5.958,-5.108c3.431,-2.232 7.09,-4.493 8.13,-5.023c2.149,-1.097 3.338,-3.016 3.338,-5.389c0,-2.105 -1.346,-3.773 -4.166,-5.162c-1.983,-0.977 -2.878,-1.102 -7.334,-1.031l-5.075,0.08l-1.813,-3.099c-2.178,-3.724 -4.426,-5.615 -7.58,-6.374c-2.11,-0.508 -3.537,-1.471 -3.537,-2.387c0,-0.638 3.587,-1.761 6.169,-1.931l2.6,-0.171l-0.134,2.21c-0.113,1.851 0.043,2.335 0.956,2.975c0.6,0.42 1.771,0.764 2.604,0.764c0.832,0 7.156,2.28 14.052,5.066c15.154,6.124 15.948,6.244 28.144,4.251c8.198,-1.339 11.733,-1.521 13.336,-0.686c0.572,0.298 2.163,1.595 3.537,2.882c3.205,3.003 6.235,4.376 8.973,4.068c2.211,-0.249 6.965,-3.07 7.798,-4.627c0.644,-1.203 0.607,-3.523 -0.095,-5.864l-0.575,-1.921l3.066,-2.777c1.686,-1.527 4.291,-3.403 5.788,-4.17c3.233,-1.654 2.967,-2.061 3.704,5.681c0.287,3.01 0.619,5.93 0.739,6.488c0.201,0.941 -0.011,1.031 -2.866,1.212c-3.467,0.221 -5.602,1.412 -5.877,3.278c-0.091,0.62 0.209,2.716 0.666,4.658c0.696,2.953 1.167,3.882 2.881,5.67l2.049,2.138l-0.701,3.15c-0.385,1.732 -0.808,3.631 -0.939,4.22c-0.435,1.952 -2.055,1.508 -6.935,-1.904c-3.517,-2.458 -6.06,-2.501 -8.287,-0.14c-0.853,0.905 -1.896,2.656 -2.317,3.892c-1.568,4.601 -0.722,7.551 3.105,10.826l1.899,1.626l-2.723,8.495c-1.88,5.862 -3.464,9.802 -5.111,12.713c-1.828,3.23 -2.437,4.822 -2.601,6.796c-0.298,3.596 0.967,4.838 5.736,5.628c2.122,0.351 2.249,1.074 0.476,2.709c-3.184,2.938 -8.321,3.577 -12.403,1.543l-2.478,-1.234l1.245,-1.48c1.665,-1.978 1.384,-4.434 -1.062,-9.293c-1.961,-3.894 -3.592,-5.141 -5.315,-4.061c-1.336,0.837 -1.184,2.274 0.595,5.628c2.062,3.886 2.107,4.773 0.292,5.711c-1.678,0.868 -2.884,2.476 -2.884,3.845c0,1.472 1.622,2.703 6.468,4.909c3.854,1.753 4.721,1.969 7.929,1.969c6.105,0 10.79,-2.418 13.437,-6.933c1.538,-2.625 1.348,-3.955 -0.884,-6.187c-1.116,-1.116 -2.169,-1.641 -3.779,-1.882c-2.896,-0.434 -2.908,-1.219 -0.089,-5.937c1.546,-2.587 3.054,-6.417 5.481,-13.918c3.178,-9.823 3.312,-10.418 2.644,-11.711c-0.388,-0.75 -1.362,-1.635 -2.165,-1.968c-1.538,-0.637 -3.827,-3.021 -3.809,-3.968c0.005,-0.307 0.428,-1.479 0.939,-2.604c0.864,-1.905 1.003,-2.007 2.012,-1.473c0.596,0.315 1.906,1.274 2.912,2.13c2.51,2.136 7.446,3.098 9.759,1.902c1.852,-0.958 2.147,-1.591 3.455,-7.414c1.77,-7.878 1.822,-7.352 -0.979,-9.927c-1.877,-1.726 -2.575,-2.757 -2.927,-4.322c-0.254,-1.131 -0.38,-2.139 -0.279,-2.239c0.1,-0.101 1.858,0.066 3.905,0.37c3.653,0.544 3.74,0.533 4.633,-0.57c0.948,-1.171 0.947,-1.309 -0.059,-6.868c-0.284,-1.571 -0.847,-5.737 -1.25,-9.258c-1.077,-9.39 -2.116,-10.374 -8.029,-7.604c-3.977,1.864 -7.617,4.432 -11.199,7.902l-2.572,2.491l0.306,3.979l0.306,3.979l-1.94,0.985c-1.066,0.542 -2.351,0.877 -2.854,0.746c-0.503,-0.132 -2.206,-1.391 -3.784,-2.799c-5.792,-5.169 -7.897,-5.58 -19.016,-3.714c-4.318,0.724 -9.565,1.323 -11.659,1.33c-3.759,0.012 -3.972,-0.055 -16.894,-5.289l-13.087,-5.302l-0.28,-2.008c-0.505,-3.618 -2.543,-4.289 -9.952,-3.278z" data-paper-data="{&quot;wickUUID&quot;:&quot;e9c1eeaf-5866-4a46-8c16-4f46b4444369&quot;,&quot;wickType&quot;:&quot;path&quot;,&quot;originalStyle&quot;:{&quot;strokeColor&quot;:null,&quot;fillColor&quot;:[&quot;Color&quot;,0,0,0],&quot;strokeWidth&quot;:1}}" id="e9c1eeaf-5866-4a46-8c16-4f46b4444369" fill="#000000"/><path d="M403.32224,266.78415c-1.859,2.053 0.921,5.248 4.57,5.252c2.613,0.002 3.966,-1.4 3.797,-3.935c-0.078,-1.16 -2.051,-2.013 -3.215,-1.39c-0.652,0.348 -1.153,0.296 -1.817,-0.189c-1.264,-0.924 -2.338,-0.84 -3.335,0.262z" data-paper-data="{&quot;wickUUID&quot;:&quot;3f492026-38a5-42e6-9178-71787d4613cb&quot;,&quot;wickType&quot;:&quot;path&quot;,&quot;originalStyle&quot;:{&quot;strokeColor&quot;:null,&quot;fillColor&quot;:[&quot;Color&quot;,0,0,0],&quot;strokeWidth&quot;:1}}" id="3f492026-38a5-42e6-9178-71787d4613cb" fill="#000000"/><path d="M404.70297,290.63015c-0.728,0.804 -0.951,2.092 -1.217,7.019c-0.239,4.431 -0.655,7.111 -1.565,10.08c-0.682,2.225 -1.791,6.08 -2.464,8.567c-0.674,2.486 -1.621,5.698 -2.106,7.138c-2.271,6.741 -4.077,19.124 -3.99,27.364c0.046,4.373 0.211,5.183 2.041,9.993c1.095,2.88 2.496,5.985 3.113,6.901c0.617,0.916 2.343,3.593 3.836,5.948c4.654,7.345 6.491,8.684 16.182,11.798c7.197,2.313 9.019,2.522 13.199,1.513c4.744,-1.144 6.616,-2.184 8.981,-4.988c1.113,-1.32 3.967,-4.037 6.341,-6.035c2.373,-1.999 5.391,-4.749 6.705,-6.111c2.617,-2.713 7.366,-10.812 7.366,-12.563c0,-0.72 -1.027,-2.112 -2.974,-4.029c-1.636,-1.61 -4.603,-4.689 -6.593,-6.842c-3.517,-3.803 -3.681,-3.913 -5.796,-3.913c-1.835,0 -2.425,0.249 -3.757,1.59c-0.87,0.874 -1.97,2.106 -2.447,2.736c-0.534,0.707 -0.77,0.834 -0.616,0.331c0.137,-0.448 0.399,-8.853 0.584,-18.677c0.315,-16.846 0.285,-17.917 -0.528,-18.816c-0.475,-0.524 -1.243,-0.953 -1.707,-0.953c-2.097,0 -2.169,0.51 -2.508,17.684c-0.177,8.989 -0.658,19.662 -1.068,23.719c-0.674,6.656 -0.882,7.589 -2.135,9.559c-1.616,2.543 -1.708,3.328 -0.517,4.406c1.938,1.754 3.338,0.813 7.319,-4.923c1.181,-1.702 3.068,-4.88 4.193,-7.064c1.126,-2.183 2.364,-4.092 2.753,-4.241c0.454,-0.174 1.56,0.654 3.079,2.304c1.305,1.417 3.415,3.695 4.69,5.062c1.275,1.367 2.318,2.686 2.318,2.932c0,0.246 -0.877,1.969 -1.95,3.828c-1.904,3.304 -2.672,4.094 -12.079,12.43c-1.827,1.619 -3.812,3.608 -4.412,4.421c-1.381,1.872 -1.928,2.167 -5.933,3.197c-3.152,0.811 -3.417,0.81 -6.941,-0.032c-4.733,-1.131 -9.409,-2.837 -12.109,-4.42c-2.13,-1.248 -2.835,-2.175 -8.68,-11.424c-3.196,-5.057 -5.214,-11.163 -5.221,-15.797c-0.012,-9.081 1.548,-17.807 5.7,-31.885c4.293,-14.553 4.053,-13.353 4.73,-23.65c0.191,-2.91 0.089,-3.814 -0.499,-4.402c-1.017,-1.017 -2.259,-0.926 -3.318,0.245z" data-paper-data="{&quot;wickUUID&quot;:&quot;e5c90994-b7a2-4528-9b72-0414bbd4fb35&quot;,&quot;wickType&quot;:&quot;path&quot;,&quot;originalStyle&quot;:{&quot;strokeColor&quot;:null,&quot;fillColor&quot;:[&quot;Color&quot;,0,0,0],&quot;strokeWidth&quot;:1}}" id="e5c90994-b7a2-4528-9b72-0414bbd4fb35" fill="#000000"/><path d="M434.80542,309.17051c-0.675,0.53 -2.708,3.154 -4.517,5.829c-6.106,9.027 -6.62,9.753 -8.43,11.919c-0.994,1.189 -2.838,2.829 -4.098,3.646c-3.952,2.561 -5.571,5.799 -3.789,7.581c0.546,0.546 1.501,0.993 2.122,0.993c1.435,0 5.318,-1.702 7.277,-3.19c1.567,-1.19 3.491,-4.67 3.491,-6.314c0,-1 6.79,-11.315 10.305,-15.654c2.27,-2.803 2.51,-3.8 1.198,-4.987c-1.149,-1.04 -2.071,-0.994 -3.559,0.177z" data-paper-data="{&quot;wickUUID&quot;:&quot;6c2d45ce-fa38-41bb-9231-8b78dee1e779&quot;,&quot;wickType&quot;:&quot;path&quot;,&quot;originalStyle&quot;:{&quot;strokeColor&quot;:null,&quot;fillColor&quot;:[&quot;Color&quot;,0,0,0],&quot;strokeWidth&quot;:1}}" id="6c2d45ce-fa38-41bb-9231-8b78dee1e779" fill="#000000"/><path d="M402.69627,290.38673c-0.714,0.5 -1.059,1.233 -1.062,2.26c-0.003,0.836 -0.325,2.573 -0.715,3.86c-0.879,2.895 -4.188,18.439 -5.226,24.548c-1.265,7.437 -1.5,7.978 -3.63,8.338c-2.434,0.411 -4.225,2.509 -4.225,4.95c0,1.981 0.911,3.106 2.925,3.608c1.05,0.262 1.698,-0.07 3.885,-1.985c2.279,-1.997 2.783,-2.77 3.823,-5.869c0.659,-1.963 1.449,-5.176 1.756,-7.139c0.74,-4.736 3.544,-18.122 5.003,-23.88c1.483,-5.853 1.507,-7.713 0.11,-8.691c-0.582,-0.408 -1.177,-0.741 -1.322,-0.741c-0.145,0 -0.74,0.333 -1.322,0.741z" data-paper-data="{&quot;wickUUID&quot;:&quot;1d7a7e3f-e917-47b7-8437-329cc39d6568&quot;,&quot;wickType&quot;:&quot;path&quot;,&quot;originalStyle&quot;:{&quot;strokeColor&quot;:null,&quot;fillColor&quot;:[&quot;Color&quot;,0,0,0],&quot;strokeWidth&quot;:1}}" id="1d7a7e3f-e917-47b7-8437-329cc39d6568" fill="#000000"/><path d="M464.45702,339.51673c-1.608,0.249 -2.72,1.325 -3.759,3.637c-0.478,1.063 -1.726,2.897 -2.773,4.075c-3.959,4.45 -5.108,8.529 -2.711,9.621c1.601,0.73 2.539,0.14 3.77,-2.371c1.517,-3.095 4.446,-6.298 5.76,-6.298c1.53,0 2.862,-1.425 3.584,-3.834c0.951,-3.173 -0.763,-5.311 -3.871,-4.83z" data-paper-data="{&quot;wickUUID&quot;:&quot;cd11ccbe-7b37-4539-b653-27aac18010e3&quot;,&quot;wickType&quot;:&quot;path&quot;,&quot;originalStyle&quot;:{&quot;strokeColor&quot;:null,&quot;fillColor&quot;:[&quot;Color&quot;,0,0,0],&quot;strokeWidth&quot;:1}}" id="cd11ccbe-7b37-4539-b653-27aac18010e3" fill="#000000"/><path d="M452.79729,340.65535c-1.284,0.723 -3.488,3.188 -3.839,4.294c-0.346,1.092 0.963,3.231 1.978,3.231c0.404,0 1.202,-0.257 1.773,-0.571c0.572,-0.314 1.469,-0.519 1.994,-0.457c1.532,0.183 2.658,-0.997 2.937,-3.077c0.227,-1.693 0.099,-2.056 -1.047,-2.957c-1.455,-1.145 -2.385,-1.258 -3.796,-0.463z" data-paper-data="{&quot;wickUUID&quot;:&quot;b3a3f777-91d7-4780-8ade-2d941cf9ec5d&quot;,&quot;wickType&quot;:&quot;path&quot;,&quot;originalStyle&quot;:{&quot;strokeColor&quot;:null,&quot;fillColor&quot;:[&quot;Color&quot;,0,0,0],&quot;strokeWidth&quot;:1}}" id="b3a3f777-91d7-4780-8ade-2d941cf9ec5d" fill="#000000"/></g><g fill="none" fill-rule="nonzero" stroke="none" stroke-width="1" stroke-linecap="butt" stroke-linejoin="miter" stroke-miterlimit="10" stroke-dasharray="" stroke-dashoffset="0" font-family="sans-serif" font-weight="normal" font-size="12" text-anchor="start" style="mix-blend-mode: normal"/><g id="wick_project_gui" fill="none" fill-rule="nonzero" stroke="none" stroke-width="1" stroke-linecap="butt" stroke-linejoin="miter" stroke-miterlimit="10" stroke-dasharray="" stroke-dashoffset="0" font-family="sans-serif" font-weight="normal" font-size="12" text-anchor="start" style="mix-blend-mode: normal"/></g></svg>