<svg version="1.1" xmlns="http://www.w3.org/2000/svg" xmlns:xlink="http://www.w3.org/1999/xlink" width="1260" height="490" viewBox="0,0,1260,490"><g transform="translate(145.99587,-204.33028) scale(1.18074,1.18074)"><g id="wick_project_bg" fill-opacity="0" fill="#ffffff" fill-rule="nonzero" stroke="none" stroke-width="1" stroke-linecap="butt" stroke-linejoin="miter" stroke-miterlimit="10" stroke-dasharray="" stroke-dashoffset="0" font-family="none" font-weight="none" font-size="none" text-anchor="none" style="mix-blend-mode: normal"><rect x="0" y="0" width="720" height="480"/></g><g data-paper-data="{&quot;wickUUID&quot;:&quot;e7a5249f-4bb7-49da-86c3-d0571d0ebb5f&quot;,&quot;wickType&quot;:&quot;clipsandpaths&quot;}" fill="none" fill-rule="evenodd" stroke="none" stroke-width="1" stroke-linecap="butt" stroke-linejoin="miter" stroke-miterlimit="10" stroke-dasharray="" stroke-dashoffset="0" font-family="none" font-weight="none" font-size="none" text-anchor="none" style="mix-blend-mode: normal"><path d="M515.407,340.4058c-1.21279,0.23161 -4.53796,1.06409 -7.29264,1.89209l-3.24915,1.6135l3.17101,1.50456c5.48986,1.8867 9.5925,5.0097 12.0917,9.20447l1.16161,1.93511l0.1058,7.40973l0.12246,7.38364l-1.72326,2.64723l-1.50895,3.93729l7.65282,0.11941c6.81452,-0.00461 17.83242,-0.48064 18.18749,-0.78299c0.37636,-0.32081 -0.2999,-2.04057 -4.21432,-2.57668c-5.18387,-0.70959 -6.63004,-1.0217 -7.58664,-1.88938c-1.02443,-0.92982 -0.85605,-0.95407 0.45633,-1.78239c0.91438,-0.57702 1.05673,-0.50138 5.06136,-0.48477c2.46384,0.01015 5.25043,-1.14966 5.25043,-1.29515c0,-0.4992 -2.80775,-1.53099 -5.5581,-1.74352c-4.28681,-0.33096 -5.73715,-1.27559 -4.8603,-3.41973c0.44961,-1.09929 0.84377,-0.57106 2.41416,-0.57106c1.33079,0 2.35814,-0.40941 3.69038,-1.46779l1.38748,-1.71332l-2.05093,-1.71414c-1.25284,-0.97626 -2.50029,-2.42323 -3.68277,-4.27394c-1.76958,-2.76944 -1.90541,-2.88762 -4.46126,-3.93308c-1.41811,-0.5801 -2.61935,-1.1278 -2.93761,-1.51505c-0.7971,-0.9701 -0.64588,-1.80581 0.26453,-2.89556l0.77539,-1.14315l-1.58188,-1.53092c-2.01026,-1.78857 -8.32902,-3.44068 -11.08514,-2.91441z" data-paper-data="{&quot;wickUUID&quot;:&quot;9c385e79-f00d-4c1e-950c-510ea1357b93&quot;,&quot;wickType&quot;:&quot;path&quot;,&quot;originalStyle&quot;:{&quot;strokeColor&quot;:null,&quot;fillColor&quot;:[&quot;Color&quot;,1,0.50196,0],&quot;strokeWidth&quot;:1}}" id="9c385e79-f00d-4c1e-950c-510ea1357b93" fill="#ff8000"/><path d="M492.19117,348.3959c-5.10881,1.69138 -10.47745,3.76046 -11.62421,4.37224c-1.65266,0.88152 -2.04144,2.32485 -2.04144,10.23949l0.04566,7.68137l4.65266,3.94332c2.42162,1.99004 4.75421,3.64387 4.81664,3.48393c0.06243,-0.15963 0.99955,-2.02635 0.59937,-3.01737c-0.40018,-0.99133 -0.7521,-1.66489 -0.7521,-2.04629c0,-0.72066 0.48686,-1.88257 1.337,-1.88257c1.18068,0 2.62542,2.12994 4.19256,5.9753c0.26703,0.65514 1.98916,0.58433 3.19366,-0.53649c0.94902,-0.88306 0.82909,-1.03373 2.00147,-1.03373c1.8118,0 2.2956,0.55876 2.06646,1.88873c-0.13171,0.76649 0.56222,1.20445 1.13488,1.20445c0.59431,0 1.66775,-0.80462 1.41119,-1.52466c-0.56002,-1.5702 -0.51409,-3.33175 0.27616,-4.23419c1.15073,-1.31336 1.99404,-1.85559 3.3822,-1.51633c2.13943,0.52319 3.48172,3.26776 2.51286,4.86472c-0.28471,0.46937 -0.69446,0.44364 -0.94669,0.53038c-0.25223,0.08643 1.53138,0.93064 2.02754,0.94264c2.53131,0.06275 5.59685,-3.6443 6.78294,-8.12328c0.67731,-2.55661 0.70762,-8.33907 0.12774,-11.01317c-1.10778,-5.10767 -6.62601,-9.51437 -13.90025,-11.09041c-3.72138,-0.80617 -6.62194,-0.65551 -11.2963,0.89192zM505.81442,356.50503c0.46765,0.27929 0.92468,1.19663 1.50239,2.67486c0.79385,2.03187 1.04164,2.22867 2.03288,2.72725c2.40719,1.21063 2.15032,2.75663 -1.00814,4.42095c-2.11851,1.11651 -1.84373,1.03054 -3.30947,-0.69436c-1.33187,-1.56712 -1.93713,-3.35014 -1.93713,-5.45491c0,-2.17459 0.39139,-2.95817 1.72723,-3.65237c1.35497,-0.70435 0.02806,-0.59721 0.99224,-0.02142z" data-paper-data="{&quot;wickUUID&quot;:&quot;c3176832-b1f5-424a-965b-ed3611008b28&quot;,&quot;wickType&quot;:&quot;path&quot;,&quot;originalStyle&quot;:{&quot;strokeColor&quot;:null,&quot;fillColor&quot;:[&quot;Color&quot;,1,1,1],&quot;strokeWidth&quot;:1}}" id="c3176832-b1f5-424a-965b-ed3611008b28" fill="#ffffff"/><path d="M471.67958,367.19258l-1.6937,4.74201l2.78699,1.26244c2.466,0.65637 3.36807,0.07492 3.01625,-0.57438c-0.16057,-0.2962 -0.35403,-2.78714 -0.46301,-5.24009l-1.11524,-5.19571z" data-paper-data="{&quot;wickUUID&quot;:&quot;819dfba8-cc1a-4b4b-b37c-9f21fc5ce129&quot;,&quot;wickType&quot;:&quot;path&quot;,&quot;originalStyle&quot;:{&quot;strokeColor&quot;:null,&quot;fillColor&quot;:[&quot;Color&quot;,0.50196,0,1],&quot;strokeWidth&quot;:1}}" id="819dfba8-cc1a-4b4b-b37c-9f21fc5ce129" fill="#8000ff"/><path d="M412.08695,353.81194c-1.40656,3.05642 -1.5838,3.98461 -1.55493,7.62297c0.03175,4.03299 0.63166,6.4848 1.67125,6.95909c0.36914,0.16856 2.25833,0.81226 3.39282,0.92606l2.589,0.15377l0.32958,-1.75318c-0.11475,-0.4909 -0.39368,-1.82079 -0.61091,-2.92039c-0.36192,-1.83226 -3.24025,-12.36784 -3.37773,-12.36507c-0.03283,0.00062 -2.10855,0.65824 -2.43908,1.37675z" data-paper-data="{&quot;wickUUID&quot;:&quot;6ad0332a-cb50-4b96-9f6e-6b65bcbcb1ef&quot;,&quot;wickType&quot;:&quot;path&quot;,&quot;originalStyle&quot;:{&quot;strokeColor&quot;:null,&quot;fillColor&quot;:[&quot;Color&quot;,0.50196,0,1],&quot;strokeWidth&quot;:1}}" id="6ad0332a-cb50-4b96-9f6e-6b65bcbcb1ef" fill="#8000ff"/><path d="M429.16148,338.34298c-2.52554,1.23063 -9.34372,6.02614 -11.22443,7.89961l-1.10881,1.46506l1.50242,5.00463c0.81514,2.69717 2.09194,7.45172 2.84105,10.58135l1.4058,5.81146l2.16911,0.70443c0.76571,0.11719 2.93886,0.22542 4.82427,0.24018c5.63096,0.04367 12.40851,0.55732 13.78368,1.04699c0.70833,0.25221 1.47425,0.81136 1.70483,1.2432c0.56797,1.06207 1.71064,1.01615 4.91349,-0.27538c4.16449,-1.67939 8.34498,-1.94395 14.29528,-0.90495c0.83571,0.1461 1.988,-0.40716 2.09806,-0.7092c1.87711,-5.16026 5.59667,-14.60175 6.51141,-16.53182l1.19947,-3.06464l-3.39527,-1.94554c-5.96365,-3.06657 -19.84554,-8.58831 -25.23329,-10.03916c-3.61709,-0.97379 -7.06629,-1.4288 -11.07021,-1.43187c-2.63019,-0.00215 -3.83447,0.23235 -5.21686,0.90565z" data-paper-data="{&quot;wickUUID&quot;:&quot;7c777453-8115-4ff9-8051-603ff6354674&quot;,&quot;wickType&quot;:&quot;path&quot;,&quot;originalStyle&quot;:{&quot;strokeColor&quot;:null,&quot;fillColor&quot;:[&quot;Color&quot;,0.50196,0,1],&quot;strokeWidth&quot;:1}}" id="7c777453-8115-4ff9-8051-603ff6354674" fill="#8000ff"/><path d="M465.48751,384.77027c-0.8137,0.1138 -2.5395,0.73288 -3.31351,1.25208c-0.77401,0.5192 -2.49319,1.46402 -3.68397,2.02228c-2.85644,1.33951 -3.74261,2.17228 -3.74261,3.05934c0,1.21555 1.04842,2.8334 2.15116,2.8334c0.55245,0 2.51588,0.31037 3.5432,0.57028c2.23867,0.56687 2.63107,0.44255 6.22218,-2.14573c3.08773,-2.22534 4.41406,-2.82126 7.21023,-3.23772c2.52373,-0.37586 4.28958,-0.93057 4.28958,-1.3092c0,-0.14733 -0.69927,-1.92923 -1.08465,-2.22666c-1.01614,-0.78371 -8.21051,-1.29051 -11.59161,-0.81807z" data-paper-data="{&quot;wickUUID&quot;:&quot;83af707a-d7c1-411a-bf86-f8f30246e594&quot;,&quot;wickType&quot;:&quot;path&quot;,&quot;originalStyle&quot;:{&quot;strokeColor&quot;:null,&quot;fillColor&quot;:[&quot;Color&quot;,0,0,0],&quot;strokeWidth&quot;:1}}" id="83af707a-d7c1-411a-bf86-f8f30246e594" fill="#000000"/><path d="M523.60997,389.71276c-0.89309,0.30912 -4.17213,1.74885 -7.04227,3.1225c-2.86978,1.37365 -5.7591,2.5724 -6.46166,2.68036c-2.16109,0.33311 -5.30802,1.50409 -5.30802,1.94024c0,0.22761 0.90792,1.91496 1.78404,2.20039l2.21876,0.59392l5.01447,-1.7185c6.99494,-2.40189 7.60111,-2.48961 11.62668,-1.68406c4.12011,0.82462 8.04618,0.70738 10.3498,-0.3024c1.2911,-0.56626 2.14972,-1.91678 1.85744,-2.38215c-0.5142,-0.81847 -3.49285,-3.08613 -4.08102,-3.08613c-0.27929,0 -1.90211,-0.53683 -3.16037,-1.04403c-2.61287,-1.05377 -4.48773,-1.11985 -6.79785,-0.32014z" data-paper-data="{&quot;wickUUID&quot;:&quot;9b194da4-e953-4a4b-a13f-e2c87e55baeb&quot;,&quot;wickType&quot;:&quot;path&quot;,&quot;originalStyle&quot;:{&quot;strokeColor&quot;:null,&quot;fillColor&quot;:[&quot;Color&quot;,0,0,0],&quot;strokeWidth&quot;:1}}" id="9b194da4-e953-4a4b-a13f-e2c87e55baeb" fill="#000000"/><path d="M492.42505,344.31551c-2.8254,0.80094 -6.90653,2.09277 -9.06726,2.86972c-9.04886,3.2545 -8.70786,2.72485 -8.96875,13.91768c-0.12774,5.4497 0.04871,9.47284 0.46765,10.6641c0.77076,2.19427 9.38012,9.8004 12.02149,10.62072c5.21238,1.61848 6.8221,1.8381 8.85617,1.21156c2.59157,-0.79909 11.24205,-1.64893 12.93513,-1.27153c1.53827,0.34234 4.48925,-0.59702 7.10356,-2.26164c1.07495,-0.68467 2.89684,-2.89647 4.23052,-5.13596l2.34259,-3.93364v-7.00359c0,-6.62434 -0.09093,-7.16231 -1.68874,-9.93606c-2.51038,-4.35717 -6.91411,-7.5157 -13.33351,-9.56234c-6.37068,-2.03187 -8.28243,-2.05403 -14.89885,-0.17902zM506.1526,348.84524c5.18423,1.76889 8.69704,4.67367 10.14438,8.38862c1.61838,4.15417 1.06521,12.21061 -1.08686,15.8056c-2.32419,3.88473 -3.77369,4.66721 -8.70569,4.7032c-2.25816,0.01661 -6.1347,0.39402 -8.61477,0.8397c-2.97587,0.53427 -4.71333,0.63669 -5.10845,0.29989c-0.32909,-0.28051 -1.37806,-0.51028 -2.33177,-0.51028c-1.34017,0 -2.79184,-0.87476 -6.37718,-3.84321l-4.64297,-3.84413l-0.21325,-6.74522c-0.28254,-8.96626 -0.01192,-10.04955 2.81565,-11.27864c1.80782,-0.78617 9.06619,-3.29142 14.01984,-4.83885c2.20728,-0.68929 6.29598,-0.27497 10.10107,1.02332z" data-paper-data="{&quot;wickUUID&quot;:&quot;84f63c2b-9eb3-435d-b221-6983d58973a8&quot;,&quot;wickType&quot;:&quot;path&quot;,&quot;originalStyle&quot;:{&quot;strokeColor&quot;:null,&quot;fillColor&quot;:[&quot;Color&quot;,0,0,0],&quot;strokeWidth&quot;:1}}" id="84f63c2b-9eb3-435d-b221-6983d58973a8" fill="#000000"/><path d="M487.93416,371.45247c-1.1897,1.01501 -1.21243,0.81478 0.57158,5.11567c0.82272,1.98389 1.49713,3.65958 1.4993,3.72233c0.00108,0.06367 0.85086,0.48997 1.88901,0.94765c3.47817,1.53359 7.98041,-0.36263 9.30434,-3.91887c0.92448,-2.48309 -3.15449,-3.53686 -4.89953,-1.266c-1.35533,1.76243 -2.45734,1.61571 -2.90118,-0.38663c-0.48714,-2.19427 -2.53744,-5.02339 -3.64054,-5.02339c-0.47956,0 -1.30012,0.36448 -1.82298,0.80924z" data-paper-data="{&quot;wickUUID&quot;:&quot;45c49255-ceaa-4907-814a-9c6fe4d121f5&quot;,&quot;wickType&quot;:&quot;path&quot;,&quot;originalStyle&quot;:{&quot;strokeColor&quot;:null,&quot;fillColor&quot;:[&quot;Color&quot;,0,0,0],&quot;strokeWidth&quot;:1}}" id="45c49255-ceaa-4907-814a-9c6fe4d121f5" fill="#000000"/><path d="M504.15129,356.095c-2.30254,1.31121 -2.62514,4.77333 -0.7686,8.26498c1.97129,3.70664 3.53013,4.11264 6.65431,1.73382c1.56642,-1.1931 1.84029,-1.70799 1.50904,-2.83373c-0.24898,-0.84431 -0.81947,-1.3758 -1.47765,-1.3758c-0.76643,0 -1.28821,-0.69113 -1.8338,-2.42773c-1.08253,-3.45012 -2.24517,-4.407 -4.0833,-3.36154z" data-paper-data="{&quot;wickUUID&quot;:&quot;28589af4-f85a-4457-953e-7a1562fc00ba&quot;,&quot;wickType&quot;:&quot;path&quot;,&quot;originalStyle&quot;:{&quot;strokeColor&quot;:null,&quot;fillColor&quot;:[&quot;Color&quot;,0,0,0],&quot;strokeWidth&quot;:1}}" id="28589af4-f85a-4457-953e-7a1562fc00ba" fill="#000000"/><path d="M503.75941,371.73331c-1.35966,0.86461 -1.66276,1.457 -1.66276,3.25265c0,2.69532 1.82514,4.51497 3.51064,3.50088c0.56292,-0.33772 1.90742,-0.95412 2.98778,-1.36935c2.33068,-0.89506 2.55369,-2.29485 0.7621,-4.80009c-1.40837,-1.96913 -3.13717,-2.14906 -5.59776,-0.58409z" data-paper-data="{&quot;wickUUID&quot;:&quot;1d4ef2b7-2e6f-4e8c-9a4a-64c7c3ea160f&quot;,&quot;wickType&quot;:&quot;path&quot;,&quot;originalStyle&quot;:{&quot;strokeColor&quot;:null,&quot;fillColor&quot;:[&quot;Color&quot;,0,0,0],&quot;strokeWidth&quot;:1}}" id="1d4ef2b7-2e6f-4e8c-9a4a-64c7c3ea160f" fill="#000000"/><path d="M425.57828,335.71519c-5.6941,3.2545 -12.66559,8.95334 -15.30371,12.51142c-3.23893,4.36732 -4.50224,8.94688 -4.08871,14.82288c0.3778,5.36942 1.49389,8.22161 3.66761,9.37503c1.92474,1.02147 9.17443,1.57419 22.86842,1.7449c6.39991,0.07936 6.49193,0.09782 6.86973,1.38227c0.21109,0.71605 0.92665,1.5502 1.59132,1.85286c1.66168,0.75849 6.11954,0.11903 9.96793,-1.42933c1.73529,-0.69851 4.11469,-1.40256 5.28815,-1.56496c3.76179,-0.52042 13.17005,1.4284 21.52176,4.45775c2.4043,0.87199 4.85947,1.45239 5.45703,1.29091c1.24599,-0.3368 1.94747,-1.78827 1.42461,-2.94815c-0.74261,-1.65078 -14.31429,-5.80218 -23.08277,-7.0608c-4.97747,-0.7142 -9.0402,-0.21869 -12.36465,1.5096c-2.5775,1.33982 -3.68925,1.31675 -4.42862,-0.0895c-0.83679,-1.59173 -2.74205,-1.86301 -15.10453,-2.15275c-13.34433,-0.31373 -17.10179,-0.69483 -17.77945,-1.80396c-0.27929,-0.4586 -0.6939,-2.57352 -0.92015,-4.69859c-0.76751,-7.21951 3.14474,-13.85216 11.65342,-19.75769c7.69353,-5.33989 8.15036,-5.52259 13.01958,-5.19594c6.58502,0.44291 9.57064,1.14973 17.21329,4.07574c9.56523,3.66235 13.90725,5.5678 18.86523,8.27604c2.3112,1.26323 4.57477,2.2967 5.02943,2.2967c1.25465,0 2.30038,-1.34628 2.07846,-2.67687c-0.34966,-2.102 -9.34439,-6.65479 -23.46923,-11.87842c-8.15469,-3.01643 -11.00608,-3.74171 -16.62332,-4.23076c-1.9951,-0.17347 -4.74148,-0.43184 -6.10438,-0.57394c-2.22351,-0.23253 -2.96721,0.0203 -7.24645,2.46556z" data-paper-data="{&quot;wickUUID&quot;:&quot;a471db7a-d1e4-4451-9109-fc03b21eabc2&quot;,&quot;wickType&quot;:&quot;path&quot;,&quot;originalStyle&quot;:{&quot;strokeColor&quot;:null,&quot;fillColor&quot;:[&quot;Color&quot;,0,0,0],&quot;strokeWidth&quot;:1}}" id="a471db7a-d1e4-4451-9109-fc03b21eabc2" fill="#000000"/><path d="M474.37657,349.96056c-1.71473,1.46162 -8.01179,17.07251 -10.73219,26.6081c-1.44301,5.05384 -3.58859,6.73877 -13.02824,10.22949c-4.14933,1.53452 -5.83699,3.37261 -4.82916,5.25961c0.37564,0.7022 1.36615,1.49853 2.20186,1.76889c0.83463,0.27129 1.51879,0.74096 1.51879,1.04362c0,0.30358 0.66793,1.12113 1.48307,1.81688c1.15398,0.98272 2.12932,1.26876 4.38315,1.2826c1.59348,0.01015 3.57885,0.34972 4.40915,0.7548c2.97695,1.45055 3.58641,1.2291 11.26587,-4.09511c1.04356,-0.72343 2.43678,-1.31491 3.09712,-1.31491c2.00268,0 6.64998,-2.00049 7.96958,-3.43074c1.56967,-1.70061 1.57724,-3.4575 0.02381,-5.59918c-1.69849,-2.34283 -4.85947,-3.48704 -9.7958,-3.54517c-3.29197,-0.03968 -4.08871,-0.20669 -4.09304,-0.86091c-0.01083,-1.86393 7.20964,-21.59855 9.38228,-25.64292c1.80025,-3.35139 1.8457,-4.00561 0.32475,-4.69951c-1.6422,-0.74926 -2.29604,-0.67175 -3.581,0.42446zM476.91943,386.03597c0.54884,0.38847 0.99809,0.87198 0.99809,1.07591c0,0.64776 -3.00726,1.56497 -5.1301,1.56497c-1.93664,0 -3.74339,0.99286 -8.9969,4.94311c-0.94938,0.71328 -1.49714,0.75665 -3.39481,0.27221c-1.24491,-0.31742 -2.81349,-0.57764 -3.48466,-0.57764c-0.89633,0 -1.29254,-0.41338 -1.48848,-1.55204c-0.24682,-1.43394 -0.02165,-1.65725 2.97912,-2.95185c1.78509,-0.77049 3.78451,-1.88977 4.44161,-2.48678c1.06737,-0.96795 1.83814,-1.0796 7.13712,-1.039c4.07464,0.03137 6.25485,0.26759 6.93901,0.75111z" data-paper-data="{&quot;wickUUID&quot;:&quot;29b0d600-94d8-440c-9ad2-5bfff4757e1d&quot;,&quot;wickType&quot;:&quot;path&quot;,&quot;originalStyle&quot;:{&quot;strokeColor&quot;:null,&quot;fillColor&quot;:[&quot;Color&quot;,0,0,0],&quot;strokeWidth&quot;:1}}" id="29b0d600-94d8-440c-9ad2-5bfff4757e1d" fill="#000000"/><path d="M496.50534,379.95888c-2.59157,1.2863 -0.32908,4.10895 7.55606,9.4267c1.57941,1.06484 2.87086,2.1343 2.87086,2.37606c0,0.24268 -0.82056,0.59424 -1.82298,0.78156c-2.74638,0.51397 -6.03509,3.39199 -6.03509,5.27991c0,3.04596 6.82967,6.82181 11.03963,6.10392c1.02515,-0.17532 3.51713,-0.97994 5.53713,-1.79011c5.41914,-2.17121 6.00804,-2.25241 9.4061,-1.30568c4.12985,1.15158 8.62883,0.75111 14.96704,-1.33059c6.89463,-2.26532 8.95144,-4.75395 6.35012,-7.68365c-2.98561,-3.36154 -4.59751,-4.64414 -6.2213,-4.94772c-1.18753,-0.22238 -1.78725,-0.65238 -1.78725,-1.27892c0,-1.34074 -3.4024,-3.6116 -5.41157,-3.6116c-0.92989,0 -2.77776,0.32665 -4.10711,0.72712c-4.10278,1.2337 -13.08019,5.00309 -14.43985,6.06332l-1.29038,1.00578l-5.96365,-4.09419c-3.28006,-2.25148 -6.4811,-4.5851 -7.11438,-5.1858c-1.2763,-1.21063 -1.9648,-1.3149 -3.53338,-0.53611zM530.64398,390.73648c1.08794,0.56564 2.38698,1.02885 2.88494,1.02977c0.49905,0.00092 1.63461,0.7788 2.52337,1.72922l1.61622,1.72644l-2.09037,0.84984c-2.58941,1.05192 -7.13169,1.09253 -10.45614,0.0932c-3.10469,-0.93381 -5.10846,-0.63946 -10.86968,1.59726c-4.92009,1.91099 -6.506,2.102 -8.26186,0.99656c-1.56101,-0.98179 -0.74044,-1.62218 3.05815,-2.38344c3.36342,-0.67545 3.47816,-0.7225 10.27536,-4.19569c5.46461,-2.79221 8.08217,-3.12624 11.32001,-1.44316z" data-paper-data="{&quot;wickUUID&quot;:&quot;aa996f0e-cdb5-4fe2-9abd-d646a3fa3fd5&quot;,&quot;wickType&quot;:&quot;path&quot;,&quot;originalStyle&quot;:{&quot;strokeColor&quot;:null,&quot;fillColor&quot;:[&quot;Color&quot;,0,0,0],&quot;strokeWidth&quot;:1}}" id="aa996f0e-cdb5-4fe2-9abd-d646a3fa3fd5" fill="#000000"/><path d="M508.44346,338.07587c-12.99468,3.89673 -16.94049,5.90922 -16.52155,8.42922c0.31502,1.89531 2.7691,1.80118 7.22371,-0.27867c5.9171,-2.76268 15.87962,-5.61948 18.55455,-5.32051c3.37316,0.3774 7.53981,1.82518 8.7425,3.03858c0.96453,0.97441 0.97969,1.17095 0.15047,1.95159c-2.04381,1.92576 -0.68415,4.0093 3.33203,5.10644c1.78509,0.48721 2.42703,1.10176 3.88195,3.71311c0.99701,1.78919 2.6143,3.69557 3.77694,4.45129l2.03407,1.32228l-1.33584,1.21248c-0.85087,0.77233 -2.02433,1.21248 -3.22594,1.21248c-2.23001,0 -3.34068,0.79541 -3.34068,2.39267c0,1.67016 2.2181,2.75991 5.61508,2.75991c3.03,0 5.26542,0.67728 5.26542,1.59541c0,0.34418 -1.46899,0.40509 -4.2197,0.17348c-4.68519,-0.39309 -7.26485,0.44291 -7.26485,2.35298c0,1.55851 2.2246,2.38898 8.31166,3.10133c11.5679,1.3555 5.91169,1.97374 -20.37103,2.22749c-16.33644,0.15779 -18.47661,0.27314 -19.03736,1.03163c-0.44275,0.59701 -0.43517,1.1239 0.0249,1.75505c1.5058,2.06694 2.65328,2.14444 24.42402,1.66185c11.46939,-0.25468 21.99915,-0.47152 23.40103,-0.48259c3.51497,-0.02768 4.04541,-1.00025 2.95963,-5.41925c-0.46116,-1.87501 -1.27738,-3.82198 -1.81323,-4.32672c-0.53585,-0.50474 -0.97428,-1.7689 -0.97428,-2.80975c0,-1.8667 -1.06629,-3.25634 -3.32553,-4.3341c-0.84546,-0.40324 -0.91581,-0.70036 -0.37022,-1.56958c1.35424,-2.15644 0.78266,-3.6236 -2.65112,-6.80797c-1.82839,-1.69507 -3.32444,-3.39938 -3.32444,-3.78785c0,-0.38755 -0.68091,-1.55943 -1.51121,-2.60397c-0.83138,-1.04362 -1.51122,-2.33084 -1.51122,-2.86049c0,-0.52873 -1.41378,-2.40373 -3.14041,-4.16524c-2.44652,-2.49601 -3.99453,-3.53041 -7.01154,-4.68383c-6.21047,-2.37513 -8.93412,-2.38158 -16.74781,-0.03875z" data-paper-data="{&quot;wickUUID&quot;:&quot;6f2a99e2-00b6-4431-b673-97d4938becbe&quot;,&quot;wickType&quot;:&quot;path&quot;,&quot;originalStyle&quot;:{&quot;strokeColor&quot;:null,&quot;fillColor&quot;:[&quot;Color&quot;,0,0,0],&quot;strokeWidth&quot;:1}}" id="6f2a99e2-00b6-4431-b673-97d4938becbe" fill="#000000"/><path d="M413.54465,346.61847c-1.10526,0.68836 -1.09876,0.836 0.25007,5.79572c0.76102,2.79959 1.74504,6.24972 2.18671,7.66612c1.115,3.57285 3.00401,13.56519 2.62621,13.88723c-0.17104,0.14579 -1.2449,0.02398 -2.38697,-0.27037c-4.42863,-1.14327 -16.83224,-1.50314 -23.53418,-0.68282c-11.00607,1.34628 -12.69374,2.10015 -12.69374,5.673c0,3.67712 4.60075,5.41094 8.46213,3.18806c1.38888,-0.79909 2.18238,-1.69969 2.30687,-2.61689c0.26089,-1.90453 1.74071,-2.1795 11.59605,-2.1509c6.5742,0.01845 9.2448,0.26205 13.73513,1.25215c5.51549,1.21525 5.58801,1.21802 6.87297,0.23346c1.16047,-0.88952 1.2644,-1.37304 0.97969,-4.60078c-0.37997,-4.31473 -1.12691,-7.7833 -3.88519,-18.03401c-2.63488,-9.79395 -3.58967,-11.1633 -6.51575,-9.33997z" data-paper-data="{&quot;wickUUID&quot;:&quot;83ca586f-895c-415d-92c3-17fd9511e82b&quot;,&quot;wickType&quot;:&quot;path&quot;,&quot;originalStyle&quot;:{&quot;strokeColor&quot;:null,&quot;fillColor&quot;:[&quot;Color&quot;,0,0,0],&quot;strokeWidth&quot;:1}}" id="83ca586f-895c-415d-92c3-17fd9511e82b" fill="#000000"/><path d="M342.05516,363.45982c-6.5677,1.10452 -9.80122,5.67392 -5.02077,7.09402c1.68333,0.50012 4.54986,0.25929 18.23411,-1.53082c4.71983,-0.61731 9.05752,-0.46506 39.19188,1.38134c12.47398,0.76403 14.586,0.55825 15.04283,-1.46439c0.39188,-1.73198 -0.94938,-2.25517 -6.69003,-2.60858c-18.30232,-1.12666 -36.31018,-1.99404 -43.69195,-2.10292c-4.96015,-0.0729 -9.02072,-0.37187 -9.78282,-0.71974c-1.46683,-0.66899 -3.50955,-0.68283 -7.28325,-0.04891z" data-paper-data="{&quot;wickUUID&quot;:&quot;e0e963b2-c74f-4076-9e49-e73be5fc4efc&quot;,&quot;wickType&quot;:&quot;path&quot;,&quot;originalStyle&quot;:{&quot;strokeColor&quot;:null,&quot;fillColor&quot;:[&quot;Color&quot;,0,0,0],&quot;strokeWidth&quot;:1}}" id="e0e963b2-c74f-4076-9e49-e73be5fc4efc" fill="#000000"/></g><g fill="none" fill-rule="nonzero" stroke="none" stroke-width="1" stroke-linecap="butt" stroke-linejoin="miter" stroke-miterlimit="10" stroke-dasharray="" stroke-dashoffset="0" font-family="sans-serif" font-weight="normal" font-size="12" text-anchor="start" style="mix-blend-mode: normal"/><g id="wick_project_gui" fill="none" fill-rule="nonzero" stroke="none" stroke-width="1" stroke-linecap="butt" stroke-linejoin="miter" stroke-miterlimit="10" stroke-dasharray="" stroke-dashoffset="0" font-family="sans-serif" font-weight="normal" font-size="12" text-anchor="start" style="mix-blend-mode: normal"/></g></svg>