<svg version="1.1" xmlns="http://www.w3.org/2000/svg" xmlns:xlink="http://www.w3.org/1999/xlink" width="1260" height="490" viewBox="0,0,1260,490"><g transform="translate(145.99587,-204.33028) scale(1.18074,1.18074)"><g id="wick_project_bg" fill-opacity="0" fill="#ffffff" fill-rule="nonzero" stroke="none" stroke-width="1" stroke-linecap="butt" stroke-linejoin="miter" stroke-miterlimit="10" stroke-dasharray="" stroke-dashoffset="0" font-family="none" font-weight="none" font-size="none" text-anchor="none" style="mix-blend-mode: normal"><rect x="0" y="0" width="720" height="480"/></g><g data-paper-data="{&quot;wickUUID&quot;:&quot;58eb2b85-9a43-498a-8e2d-4e0def72a071&quot;,&quot;wickType&quot;:&quot;clipsandpaths&quot;}" fill="none" fill-rule="evenodd" stroke="none" stroke-width="1" stroke-linecap="butt" stroke-linejoin="miter" stroke-miterlimit="10" stroke-dasharray="" stroke-dashoffset="0" font-family="none" font-weight="none" font-size="none" text-anchor="none" style="mix-blend-mode: normal"><path d="M509.88995,335.04522c-1.12033,0.251 -4.192,1.15319 -6.73667,2.05052l-3.00145,1.7486l2.92926,1.63053c5.07133,2.04467 8.8612,5.42916 11.16987,9.97516l1.07305,2.09714l0.09773,8.03014l0.11313,8.00188l-1.59189,2.86888l-1.39391,4.26696l7.06939,0.12941c6.295,-0.005 16.47293,-0.52088 16.80093,-0.84855c0.34767,-0.34767 -0.27703,-2.21143 -3.89303,-2.79243c-4.78867,-0.769 -6.12459,-1.10725 -7.00826,-2.04758c-0.94633,-1.00767 -0.79079,-1.03396 0.42154,-1.93163c0.84467,-0.62533 0.97617,-0.54336 4.6755,-0.52536c2.276,0.011 4.85015,-1.24592 4.85015,-1.40359c0,-0.541 -2.5937,-1.65917 -5.13437,-1.8895c-3.96,-0.35867 -5.29976,-1.3824 -4.48976,-3.70607c0.41533,-1.19133 0.77944,-0.61887 2.23011,-0.61887c1.22933,0 2.17837,-0.44369 3.40904,-1.59069l1.2817,-1.85678l-1.89457,-1.85766c-1.15733,-1.058 -2.30968,-2.62613 -3.40201,-4.6318c-1.63467,-3.00133 -1.76015,-3.12939 -4.12115,-4.26239c-1.31,-0.62867 -2.41965,-1.22224 -2.71365,-1.64191c-0.73633,-1.05133 -0.59664,-1.957 0.24436,-3.138l0.71628,-1.23887l-1.46128,-1.6591c-1.857,-1.93833 -7.69404,-3.72877 -10.24004,-3.15844z" data-paper-data="{&quot;wickUUID&quot;:&quot;44b4f04e-e088-4533-ab66-cfbcc127d88f&quot;,&quot;wickType&quot;:&quot;path&quot;,&quot;originalStyle&quot;:{&quot;strokeColor&quot;:null,&quot;fillColor&quot;:[&quot;Color&quot;,1,0.50196,0],&quot;strokeWidth&quot;:1}}" fill="#ff8000"/><path d="M488.44403,343.70434c-4.71933,1.833 -9.67869,4.07532 -10.73802,4.73832c-1.52667,0.95533 -1.8858,2.51951 -1.8858,11.09684l0.04218,8.32453l4.29795,4.2735c2.237,2.15667 4.39176,3.94897 4.44943,3.77564c0.05767,-0.173 0.92335,-2.19602 0.55368,-3.27002c-0.36967,-1.07433 -0.69476,-1.80429 -0.69476,-2.21762c0,-0.781 0.44974,-2.0402 1.23507,-2.0402c1.09067,0 2.42526,2.30828 3.87293,6.47561c0.24667,0.71 1.83751,0.63326 2.95018,-0.58141c0.87667,-0.957 0.76589,-1.12028 1.84889,-1.12028c1.67367,0 2.12059,0.60554 1.90892,2.04687c-0.12167,0.83067 0.51936,1.3053 1.04836,1.3053c0.549,0 1.5406,-0.87199 1.3036,-1.65232c-0.51733,-1.70167 -0.47489,-3.61072 0.25511,-4.58872c1.063,-1.42333 1.84202,-2.01096 3.12435,-1.64329c1.97633,0.567 3.21628,3.54137 2.32128,5.27204c-0.263,0.50867 -0.64151,0.48079 -0.87451,0.57479c-0.233,0.09367 1.41463,1.00856 1.87296,1.02156c2.33833,0.068 5.17016,-3.94944 6.26583,-8.80344c0.62567,-2.77067 0.65367,-9.0373 0.118,-11.9353c-1.02333,-5.53533 -6.12086,-10.311 -12.84053,-12.019c-3.43767,-0.87367 -6.1171,-0.7104 -10.4351,0.9666zM501.02868,352.49244c0.432,0.30267 0.85418,1.29683 1.38785,2.89883c0.73333,2.202 0.96223,2.41527 1.8779,2.9556c2.22367,1.312 1.98639,2.98745 -0.93128,4.79112c-1.957,1.21 -1.70317,1.11683 -3.05717,-0.7525c-1.23033,-1.69833 -1.78945,-3.63065 -1.78945,-5.91165c0,-2.35667 0.36155,-3.20586 1.59555,-3.95819c1.25167,-0.76333 0.02593,-0.64721 0.9166,-0.02321z" data-paper-data="{&quot;wickUUID&quot;:&quot;4bc19b70-2b2e-4366-8754-506a42da133e&quot;,&quot;wickType&quot;:&quot;path&quot;,&quot;originalStyle&quot;:{&quot;strokeColor&quot;:null,&quot;fillColor&quot;:[&quot;Color&quot;,1,1,1],&quot;strokeWidth&quot;:1}}" fill="#ffffff"/><path d="M469.49618,364.07486l-1.56457,5.13906l2.57451,1.36814c2.278,0.71133 3.1113,0.0812 2.7863,-0.62247c-0.14833,-0.321 -0.32704,-3.02051 -0.42771,-5.67884l-1.03022,-5.63075z" data-paper-data="{&quot;wickUUID&quot;:&quot;a2715da0-7951-49db-aced-b3325e418481&quot;,&quot;wickType&quot;:&quot;path&quot;,&quot;originalStyle&quot;:{&quot;strokeColor&quot;:null,&quot;fillColor&quot;:[&quot;Color&quot;,0.50196,0,1],&quot;strokeWidth&quot;:1}}" fill="#8000ff"/><path d="M414.44673,349.57386c-1.29933,3.31233 -1.46306,4.31824 -1.43639,8.26124c0.02933,4.37067 0.58351,7.02777 1.54384,7.54177c0.341,0.18267 2.08616,0.88027 3.13416,1.0036l2.39162,0.16665l0.30446,-1.89998c-0.106,-0.532 -0.36367,-1.97324 -0.56434,-3.16491c-0.33433,-1.98567 -2.99322,-13.4034 -3.12022,-13.4004c-0.03033,0.00067 -1.9478,0.71336 -2.25313,1.49203z" data-paper-data="{&quot;wickUUID&quot;:&quot;16f51a09-c1f0-42cb-94bc-17cc3858edfd&quot;,&quot;wickType&quot;:&quot;path&quot;,&quot;originalStyle&quot;:{&quot;strokeColor&quot;:null,&quot;fillColor&quot;:[&quot;Color&quot;,0.50196,0,1],&quot;strokeWidth&quot;:1}}" fill="#8000ff"/><path d="M430.21954,332.80969c-2.333,1.33367 -8.63138,6.53071 -10.36871,8.56104l-1.02428,1.58773l1.38788,5.42366c0.753,2.923 1.93246,8.07566 2.62446,11.46733l1.29863,6.29805l2.00374,0.76341c0.70733,0.127 2.71481,0.24429 4.45648,0.26029c5.20167,0.04733 11.46252,0.60399 12.73285,1.13466c0.65433,0.27333 1.36186,0.87929 1.57486,1.34729c0.52467,1.151 1.58023,1.10123 4.5389,-0.29844c3.847,-1.82 7.70878,-2.10672 13.20545,-0.98072c0.772,0.15833 1.83644,-0.44125 1.93811,-0.76858c1.734,-5.59233 5.17,-15.82435 6.015,-17.91602l1.10802,-3.32125l-3.13642,-2.10844c-5.509,-3.32333 -18.33258,-9.3074 -23.30958,-10.87973c-3.34133,-1.05533 -6.52758,-1.54843 -10.22625,-1.55176c-2.42967,-0.00233 -3.54214,0.25181 -4.81914,0.98148z" data-paper-data="{&quot;wickUUID&quot;:&quot;dcde09fe-6871-4427-94b2-a316741b7f2e&quot;,&quot;wickType&quot;:&quot;path&quot;,&quot;originalStyle&quot;:{&quot;strokeColor&quot;:null,&quot;fillColor&quot;:[&quot;Color&quot;,0.50196,0,1],&quot;strokeWidth&quot;:1}}" fill="#8000ff"/><path d="M463.77618,383.12433c-0.75167,0.12333 -2.3459,0.79424 -3.0609,1.35691c-0.715,0.56267 -2.30311,1.58661 -3.40311,2.19161c-2.63867,1.45167 -3.45729,2.35416 -3.45729,3.31549c0,1.31733 0.96849,3.07065 1.98716,3.07065c0.51033,0 2.32408,0.33635 3.27308,0.61802c2.068,0.61433 2.43049,0.47961 5.74782,-2.32539c2.85233,-2.41167 4.07754,-3.05748 6.66054,-3.50881c2.33133,-0.40733 3.96256,-1.00849 3.96256,-1.41882c0,-0.15967 -0.64596,-2.09077 -1.00196,-2.4131c-0.93867,-0.84933 -7.58457,-1.39856 -10.7079,-0.88656z" data-paper-data="{&quot;wickUUID&quot;:&quot;95c53c40-f24d-4df2-b58a-ec22ffd423a8&quot;,&quot;wickType&quot;:&quot;path&quot;,&quot;originalStyle&quot;:{&quot;strokeColor&quot;:null,&quot;fillColor&quot;:[&quot;Color&quot;,0,0,0],&quot;strokeWidth&quot;:1}}" fill="#000000"/><path d="M517.46755,388.48065c-0.825,0.335 -3.85406,1.89528 -6.50539,3.38395c-2.651,1.48867 -5.32004,2.78778 -5.96904,2.90478c-1.99633,0.361 -4.90335,1.63003 -4.90335,2.1027c0,0.24667 0.8387,2.0753 1.64803,2.38463l2.0496,0.64364l4.63218,-1.86238c6.46167,-2.603 7.02163,-2.69807 10.7403,-1.82507c3.806,0.89367 7.43276,0.76661 9.56076,-0.32772c1.19267,-0.61367 1.98583,-2.07728 1.71583,-2.58161c-0.475,-0.887 -3.22656,-3.34453 -3.76989,-3.34453c-0.258,0 -1.7571,-0.58177 -2.91943,-1.13144c-2.41367,-1.142 -4.1456,-1.21362 -6.2796,-0.34695z" data-paper-data="{&quot;wickUUID&quot;:&quot;f9fc8561-6548-4cd4-956f-f91f52d9bacb&quot;,&quot;wickType&quot;:&quot;path&quot;,&quot;originalStyle&quot;:{&quot;strokeColor&quot;:null,&quot;fillColor&quot;:[&quot;Color&quot;,0,0,0],&quot;strokeWidth&quot;:1}}" fill="#000000"/><path d="M488.66008,339.2823c-2.61,0.868 -6.38,2.268 -8.376,3.11c-8.359,3.527 -8.044,2.953 -8.285,15.083c-0.118,5.906 0.045,10.266 0.432,11.557c0.712,2.378 8.665,10.621 11.105,11.51c4.815,1.754 6.302,1.992 8.181,1.313c2.394,-0.866 10.385,-1.787 11.949,-1.378c1.421,0.371 4.147,-0.647 6.562,-2.451c0.993,-0.742 2.676,-3.139 3.908,-5.566l2.164,-4.263v-7.59c0,-7.179 -0.084,-7.762 -1.56,-10.768c-2.319,-4.722 -6.387,-8.145 -12.317,-10.363c-5.885,-2.202 -7.651,-2.226 -13.763,-0.194zM501.34108,344.1913c4.789,1.917 8.034,5.065 9.371,9.091c1.495,4.502 0.984,13.233 -1.004,17.129c-2.147,4.21 -3.486,5.058 -8.042,5.097c-2.086,0.018 -5.667,0.427 -7.958,0.91c-2.749,0.579 -4.354,0.69 -4.719,0.325c-0.304,-0.304 -1.273,-0.553 -2.154,-0.553c-1.238,0 -2.579,-0.948 -5.891,-4.165l-4.289,-4.166l-0.197,-7.31c-0.261,-9.717 -0.011,-10.891 2.601,-12.223c1.67,-0.852 8.375,-3.567 12.951,-5.244c2.039,-0.747 5.816,-0.298 9.331,1.109z" data-paper-data="{&quot;wickUUID&quot;:&quot;ed5c940a-f916-4fc9-a6bb-eabe11e19cd2&quot;,&quot;wickType&quot;:&quot;path&quot;,&quot;originalStyle&quot;:{&quot;strokeColor&quot;:null,&quot;fillColor&quot;:[&quot;Color&quot;,0,0,0],&quot;strokeWidth&quot;:1}}" fill="#000000"/><path d="M484.51156,368.69143c-1.099,1.1 -1.12,0.883 0.528,5.544c0.76,2.15 1.383,3.966 1.385,4.034c0.001,0.069 0.786,0.531 1.745,1.027c3.213,1.662 7.372,-0.393 8.595,-4.247c0.854,-2.691 -2.914,-3.833 -4.526,-1.372c-1.252,1.91 -2.27,1.751 -2.68,-0.419c-0.45,-2.378 -2.344,-5.444 -3.363,-5.444c-0.443,0 -1.201,0.395 -1.684,0.877z" data-paper-data="{&quot;wickUUID&quot;:&quot;b5405519-1108-424a-a8e6-90c8a08c90bf&quot;,&quot;wickType&quot;:&quot;path&quot;,&quot;originalStyle&quot;:{&quot;strokeColor&quot;:null,&quot;fillColor&quot;:[&quot;Color&quot;,0,0,0],&quot;strokeWidth&quot;:1}}" fill="#000000"/><path d="M499.49234,352.04808c-2.127,1.421 -2.425,5.173 -0.71,8.957c1.821,4.017 3.261,4.457 6.147,1.879c1.447,-1.293 1.7,-1.851 1.394,-3.071c-0.23,-0.915 -0.757,-1.491 -1.365,-1.491c-0.708,0 -1.19,-0.749 -1.694,-2.631c-1,-3.739 -2.074,-4.776 -3.772,-3.643z" data-paper-data="{&quot;wickUUID&quot;:&quot;4c77e6ae-9ac9-499f-bc0c-1f34b77e1cf6&quot;,&quot;wickType&quot;:&quot;path&quot;,&quot;originalStyle&quot;:{&quot;strokeColor&quot;:null,&quot;fillColor&quot;:[&quot;Color&quot;,0,0,0],&quot;strokeWidth&quot;:1}}" fill="#000000"/><path d="M499.13034,368.99578c-1.256,0.937 -1.536,1.579 -1.536,3.525c0,2.921 1.686,4.893 3.243,3.794c0.52,-0.366 1.762,-1.034 2.76,-1.484c2.153,-0.97 2.359,-2.487 0.704,-5.202c-1.301,-2.134 -2.898,-2.329 -5.171,-0.633z" data-paper-data="{&quot;wickUUID&quot;:&quot;1dbc0211-0372-4a1c-b240-fffa035fd450&quot;,&quot;wickType&quot;:&quot;path&quot;,&quot;originalStyle&quot;:{&quot;strokeColor&quot;:null,&quot;fillColor&quot;:[&quot;Color&quot;,0,0,0],&quot;strokeWidth&quot;:1}}" fill="#000000"/><path d="M426.90952,329.96187c-5.26,3.527 -11.7,9.703 -14.137,13.559c-2.992,4.733 -4.159,9.696 -3.777,16.064c0.349,5.819 1.38,8.91 3.388,10.16c1.778,1.107 8.475,1.706 21.125,1.891c5.912,0.086 5.997,0.106 6.346,1.498c0.195,0.776 0.856,1.68 1.47,2.008c1.535,0.822 5.653,0.129 9.208,-1.549c1.603,-0.757 3.801,-1.52 4.885,-1.696c3.475,-0.564 12.166,1.548 19.881,4.831c2.221,0.945 4.489,1.574 5.041,1.399c1.151,-0.365 1.799,-1.938 1.316,-3.195c-0.686,-1.789 -13.223,-6.288 -21.323,-7.652c-4.598,-0.774 -8.351,-0.237 -11.422,1.636c-2.381,1.452 -3.408,1.427 -4.091,-0.097c-0.773,-1.725 -2.533,-2.019 -13.953,-2.333c-12.327,-0.34 -15.798,-0.753 -16.424,-1.955c-0.258,-0.497 -0.641,-2.789 -0.85,-5.092c-0.709,-7.824 2.905,-15.012 10.765,-21.412c7.107,-5.787 7.529,-5.985 12.027,-5.631c6.083,0.48 8.841,1.246 15.901,4.417c8.836,3.969 12.847,6.034 17.427,8.969c2.135,1.369 4.226,2.489 4.646,2.489c1.159,0 2.125,-1.459 1.92,-2.901c-0.323,-2.278 -8.632,-7.212 -21.68,-12.873c-7.533,-3.269 -10.167,-4.055 -15.356,-4.585c-1.843,-0.188 -4.38,-0.468 -5.639,-0.622c-2.054,-0.252 -2.741,0.022 -6.694,2.672z" data-paper-data="{&quot;wickUUID&quot;:&quot;1a36968c-eaa5-4ec7-b4e1-14f76e5f727b&quot;,&quot;wickType&quot;:&quot;path&quot;,&quot;originalStyle&quot;:{&quot;strokeColor&quot;:null,&quot;fillColor&quot;:[&quot;Color&quot;,0,0,0],&quot;strokeWidth&quot;:1}}" fill="#000000"/><path d="M471.98756,345.4c-1.584,1.584 -7.401,18.502 -9.914,28.836c-1.333,5.477 -3.315,7.303 -12.035,11.086c-3.833,1.663 -5.392,3.655 -4.461,5.7c0.347,0.761 1.262,1.624 2.034,1.917c0.771,0.294 1.403,0.803 1.403,1.131c0,0.329 0.617,1.215 1.37,1.969c1.066,1.065 1.967,1.375 4.049,1.39c1.472,0.011 3.306,0.379 4.073,0.818c2.75,1.572 3.313,1.332 10.407,-4.438c0.964,-0.784 2.251,-1.425 2.861,-1.425c1.85,0 6.143,-2.168 7.362,-3.718c1.45,-1.843 1.457,-3.747 0.022,-6.068c-1.569,-2.539 -4.489,-3.779 -9.049,-3.842c-3.041,-0.043 -3.777,-0.224 -3.781,-0.933c-0.01,-2.02 6.66,-23.407 8.667,-27.79c1.663,-3.632 1.705,-4.341 0.3,-5.093c-1.517,-0.812 -2.121,-0.728 -3.308,0.46zM474.33656,384.496c0.507,0.421 0.922,0.945 0.922,1.166c0,0.702 -2.778,1.696 -4.739,1.696c-1.789,0 -3.458,1.076 -8.311,5.357c-0.877,0.773 -1.383,0.82 -3.136,0.295c-1.15,-0.344 -2.599,-0.626 -3.219,-0.626c-0.828,0 -1.194,-0.448 -1.375,-1.682c-0.228,-1.554 -0.02,-1.796 2.752,-3.199c1.649,-0.835 3.496,-2.048 4.103,-2.695c0.986,-1.049 1.698,-1.17 6.593,-1.126c3.764,0.034 5.778,0.29 6.41,0.814z" data-paper-data="{&quot;wickUUID&quot;:&quot;6d794444-a62d-4867-97f0-bdc5ccf7ce41&quot;,&quot;wickType&quot;:&quot;path&quot;,&quot;originalStyle&quot;:{&quot;strokeColor&quot;:null,&quot;fillColor&quot;:[&quot;Color&quot;,0,0,0],&quot;strokeWidth&quot;:1}}" fill="#000000"/><path d="M492.4293,377.91008c-2.394,1.394 -0.304,4.453 6.98,10.216c1.459,1.154 2.652,2.313 2.652,2.575c0,0.263 -0.758,0.644 -1.684,0.847c-2.537,0.557 -5.575,3.676 -5.575,5.722c0,3.301 6.309,7.393 10.198,6.615c0.947,-0.19 3.249,-1.062 5.115,-1.94c5.006,-2.353 5.55,-2.441 8.689,-1.415c3.815,1.248 7.971,0.814 13.826,-1.442c6.369,-2.455 8.269,-5.152 5.866,-8.327c-2.758,-3.643 -4.247,-5.033 -5.747,-5.362c-1.097,-0.241 -1.651,-0.707 -1.651,-1.386c0,-1.453 -3.143,-3.914 -4.999,-3.914c-0.859,0 -2.566,0.354 -3.794,0.788c-3.79,1.337 -12.083,5.422 -13.339,6.571l-1.192,1.09l-5.509,-4.437c-3.03,-2.44 -5.987,-4.969 -6.572,-5.62c-1.179,-1.312 -1.815,-1.425 -3.264,-0.581zM523.9653,389.59008c1.005,0.613 2.205,1.115 2.665,1.116c0.461,0.001 1.51,0.844 2.331,1.874l1.493,1.871l-1.931,0.921c-2.392,1.14 -6.588,1.184 -9.659,0.101c-2.868,-1.012 -4.719,-0.693 -10.041,1.731c-4.545,2.071 -6.01,2.278 -7.632,1.08c-1.442,-1.064 -0.684,-1.758 2.825,-2.583c3.107,-0.732 3.213,-0.783 9.492,-4.547c5.048,-3.026 7.466,-3.388 10.457,-1.564z" data-paper-data="{&quot;wickUUID&quot;:&quot;6dda3a77-d5a0-4391-89df-0edcb17d5877&quot;,&quot;wickType&quot;:&quot;path&quot;,&quot;originalStyle&quot;:{&quot;strokeColor&quot;:null,&quot;fillColor&quot;:[&quot;Color&quot;,0,0,0],&quot;strokeWidth&quot;:1}}" fill="#000000"/><path d="M503.45729,332.52021c-12.004,4.223 -15.649,6.404 -15.262,9.135c0.291,2.054 2.558,1.952 6.673,-0.302c5.466,-2.994 14.669,-6.09 17.14,-5.766c3.116,0.409 6.965,1.978 8.076,3.293c0.891,1.056 0.905,1.269 0.139,2.115c-1.888,2.087 -0.632,4.345 3.078,5.534c1.649,0.528 2.242,1.194 3.586,4.024c0.921,1.939 2.415,4.005 3.489,4.824l1.879,1.433l-1.234,1.314c-0.786,0.837 -1.87,1.314 -2.98,1.314c-2.06,0 -3.086,0.862 -3.086,2.593c0,1.81 2.049,2.991 5.187,2.991c2.799,0 4.864,0.734 4.864,1.729c0,0.373 -1.357,0.439 -3.898,0.188c-4.328,-0.426 -6.711,0.48 -6.711,2.55c0,1.689 2.055,2.589 7.678,3.361c10.686,1.469 5.461,2.139 -18.818,2.414c-15.091,0.171 -17.068,0.296 -17.586,1.118c-0.409,0.647 -0.402,1.218 0.023,1.902c1.391,2.24 2.451,2.324 22.562,1.801c10.595,-0.276 20.322,-0.511 21.617,-0.523c3.247,-0.03 3.737,-1.084 2.734,-5.873c-0.426,-2.032 -1.18,-4.142 -1.675,-4.689c-0.495,-0.547 -0.9,-1.917 -0.9,-3.045c0,-2.023 -0.985,-3.529 -3.072,-4.697c-0.781,-0.437 -0.846,-0.759 -0.342,-1.701c1.251,-2.337 0.723,-3.927 -2.449,-7.378c-1.689,-1.837 -3.071,-3.684 -3.071,-4.105c0,-0.42 -0.629,-1.69 -1.396,-2.822c-0.768,-1.131 -1.396,-2.526 -1.396,-3.1c0,-0.573 -1.306,-2.605 -2.901,-4.514c-2.26,-2.705 -3.69,-3.826 -6.477,-5.076c-5.737,-2.574 -8.253,-2.581 -15.471,-0.042z" data-paper-data="{&quot;wickUUID&quot;:&quot;b961efc7-fdd2-48f4-9c2e-13505ecec003&quot;,&quot;wickType&quot;:&quot;path&quot;,&quot;originalStyle&quot;:{&quot;strokeColor&quot;:null,&quot;fillColor&quot;:[&quot;Color&quot;,0,0,0],&quot;strokeWidth&quot;:1}}" fill="#000000"/><path d="M415.7933,341.77808c-1.021,0.746 -1.015,0.906 0.231,6.281c0.703,3.034 1.612,6.773 2.02,8.308c1.03,3.872 2.775,14.701 2.426,15.05c-0.158,0.158 -1.15,0.026 -2.205,-0.293c-4.091,-1.239 -15.549,-1.629 -21.74,-0.74c-10.167,1.459 -11.726,2.276 -11.726,6.148c0,3.985 4.25,5.864 7.817,3.455c1.283,-0.866 2.016,-1.842 2.131,-2.836c0.241,-2.064 1.608,-2.362 10.712,-2.331c6.073,0.02 8.54,0.284 12.688,1.357c5.095,1.317 5.162,1.32 6.349,0.253c1.072,-0.964 1.168,-1.488 0.905,-4.986c-0.351,-4.676 -1.041,-8.435 -3.589,-19.544c-2.434,-10.614 -3.316,-12.098 -6.019,-10.122z" data-paper-data="{&quot;wickUUID&quot;:&quot;fd8c4b9b-8d07-4ef9-b89f-1a3c872e7925&quot;,&quot;wickType&quot;:&quot;path&quot;,&quot;originalStyle&quot;:{&quot;strokeColor&quot;:null,&quot;fillColor&quot;:[&quot;Color&quot;,0,0,0],&quot;strokeWidth&quot;:1}}" fill="#000000"/><path d="M349.75396,360.02956c-6.067,1.197 -9.054,6.149 -4.638,7.688c1.555,0.542 4.203,0.281 16.844,-1.659c4.36,-0.669 8.367,-0.504 36.204,1.497c11.523,0.828 13.474,0.605 13.896,-1.587c0.362,-1.877 -0.877,-2.444 -6.18,-2.827c-16.907,-1.221 -33.542,-2.161 -40.361,-2.279c-4.582,-0.079 -8.333,-0.403 -9.037,-0.78c-1.355,-0.725 -3.242,-0.74 -6.728,-0.053z" data-paper-data="{&quot;wickUUID&quot;:&quot;d827bbe3-3778-4f04-aa7b-663ae8207f64&quot;,&quot;wickType&quot;:&quot;path&quot;,&quot;originalStyle&quot;:{&quot;strokeColor&quot;:null,&quot;fillColor&quot;:[&quot;Color&quot;,0,0,0],&quot;strokeWidth&quot;:1}}" fill="#000000"/></g><g fill="none" fill-rule="nonzero" stroke="none" stroke-width="1" stroke-linecap="butt" stroke-linejoin="miter" stroke-miterlimit="10" stroke-dasharray="" stroke-dashoffset="0" font-family="sans-serif" font-weight="normal" font-size="12" text-anchor="start" style="mix-blend-mode: normal"/><g id="wick_project_gui" fill="none" fill-rule="nonzero" stroke="none" stroke-width="1" stroke-linecap="butt" stroke-linejoin="miter" stroke-miterlimit="10" stroke-dasharray="" stroke-dashoffset="0" font-family="sans-serif" font-weight="normal" font-size="12" text-anchor="start" style="mix-blend-mode: normal"/></g></svg>