<svg version="1.1" xmlns="http://www.w3.org/2000/svg" xmlns:xlink="http://www.w3.org/1999/xlink" width="1260" height="490" viewBox="0,0,1260,490"><g transform="translate(145.99587,-204.33028) scale(1.18074,1.18074)"><g id="wick_project_bg" fill-opacity="0" fill="#ffffff" fill-rule="nonzero" stroke="none" stroke-width="1" stroke-linecap="butt" stroke-linejoin="miter" stroke-miterlimit="10" stroke-dasharray="" stroke-dashoffset="0" font-family="none" font-weight="none" font-size="none" text-anchor="none" style="mix-blend-mode: normal"><rect x="0" y="0" width="720" height="480"/></g><g data-paper-data="{&quot;wickUUID&quot;:&quot;31c0d6f3-aa2c-4c66-aaae-4d0c60312fbc&quot;,&quot;wickType&quot;:&quot;clipsandpaths&quot;}" fill="none" fill-rule="evenodd" stroke="none" stroke-width="1" stroke-linecap="butt" stroke-linejoin="miter" stroke-miterlimit="10" stroke-dasharray="" stroke-dashoffset="0" font-family="none" font-weight="none" font-size="none" text-anchor="none" style="mix-blend-mode: normal"><path d="M405.97093,400.24813c-0.96233,0.185 -2.45044,1.12078 -2.44177,1.32445c0.00867,0.20333 0.4866,1.76749 0.99893,2.75682l1.61997,2.28186l2.00414,-1.96822c0.67067,-0.87867 1.28135,-1.89678 1.28135,-2.13045c0,-0.23367 -0.35443,-1.81546 -0.2431,-2.10546c0.23167,-0.604 -0.54785,-0.67267 -3.21952,-0.159z" data-paper-data="{&quot;wickUUID&quot;:&quot;0e8882d2-c924-4af2-9624-b1ed77667617&quot;,&quot;wickType&quot;:&quot;path&quot;,&quot;originalStyle&quot;:{&quot;strokeColor&quot;:null,&quot;fillColor&quot;:[&quot;Color&quot;,1,1,1],&quot;strokeWidth&quot;:1}}" fill="#ffffff"/><path d="M361.46495,364.98306c-0.18333,0.06233 -1.57195,1.55308 -2.28195,1.67241c-1.596,0.268 -1.41095,0.45334 4.45972,3.55067l4.64499,2.38957l11.62081,-0.42903c6.31567,-0.23867 11.73844,-0.6414 11.59644,-0.76507c-0.14233,-0.124 -2.59373,-2.80735 -5.39173,-4.11835l-5.31718,-2.45558l-9.55707,0.01535c-5.177,0.01433 -9.5907,0.07803 -9.77403,0.14003z" data-paper-data="{&quot;wickUUID&quot;:&quot;4c7b5597-8eaf-4758-828c-b18fd8e7d4ca&quot;,&quot;wickType&quot;:&quot;path&quot;,&quot;originalStyle&quot;:{&quot;strokeColor&quot;:null,&quot;fillColor&quot;:[&quot;Color&quot;,1,1,1],&quot;strokeWidth&quot;:1}}" fill="#ffffff"/><path d="M327.56476,411.05288c-1.28333,0.44567 -2.92088,2.27316 -3.19588,2.38016c-0.75967,0.295 4.05715,2.65798 7.00448,3.41198c2.7,0.69033 7.98056,-0.11291 7.62089,-0.69524c-0.32867,-0.53133 -7.73747,-5.93293 -8.1348,-5.90526c-0.19533,0.01367 -2.01136,0.36303 -3.29469,0.80836z" data-paper-data="{&quot;wickUUID&quot;:&quot;df686f8c-b156-4294-89eb-898d5fbbb75d&quot;,&quot;wickType&quot;:&quot;path&quot;,&quot;originalStyle&quot;:{&quot;strokeColor&quot;:null,&quot;fillColor&quot;:[&quot;Color&quot;,1,1,1],&quot;strokeWidth&quot;:1}}" fill="#ffffff"/><path d="M332.49874,359.43109c-0.49233,0.156 -19.18839,8.58476 -24.30972,10.96676l-3.09714,1.77831l1.94815,2.61565c9.72333,10.164 9.6474,10.04812 8.82907,12.19879c-0.267,0.701 -0.5141,0.26023 -0.97943,0.47156c-1.563,0.71 -5.11467,2.50989 -10.095,5.11956c-2.75,1.44133 -12.568,6.12597 -21.82633,10.41464c-28.62533,13.26067 -32.43723,15.08342 -32.28556,15.32875c0.081,0.131 2.90887,3.15215 6.11287,4.92415c9.45567,5.22933 13.78507,6.93303 16.96907,6.93303c2.10867,0 8.21943,-2.55526 20.61743,-8.75726c9.17933,-4.592 16.67265,-8.08008 21.21532,-9.87541c1.24467,-0.492 2.62141,-1.16919 3.05874,-1.50419c0.43733,-0.335 0.98926,-0.57074 1.34593,-0.57074c0.35667,0 1.82151,-0.42 3.34851,-0.959c3.68867,-1.302 6.93251,-2.03 8.07084,-1.70367c1.94367,0.55733 4.32008,2.06261 8.71041,5.37094c2.51767,1.89733 4.90393,3.52848 5.36226,3.66548c1.16533,0.349 1.59131,0.75014 1.59131,1.47914c0,0.39733 1.49777,0.51542 1.90844,0.51542c0.95367,0 1.20767,-0.80724 0.67034,-2.59257c-0.69333,-2.30367 -0.66131,-3.90798 0.27502,-6.49665c1.013,-2.80033 1.27338,-3.23767 3.21071,-3.23767c2.07833,0 10.37792,2.12869 11.98425,3.07002c1.543,0.90433 6.27733,5.85194 7.10333,7.40261c0.348,0.653 0.3975,1.543 0.42117,3.28467c0.02,1.46667 0.37104,3.39854 0.52071,3.72721c0.31367,0.689 2.24089,1.78798 5.36156,2.95998c2.24567,0.84333 2.83858,1.09974 3.40758,2.16274c0.37267,0.69667 1.54978,7.42974 1.55311,8.83541c0.002,0.73733 0.99601,1.56502 1.45401,1.43002c0.32067,-0.09433 2.52862,-0.56553 4.73329,-1.02386c2.20467,-0.45867 8.0545,-1.72796 12.99983,-2.82096c4.94533,-1.093 9.87677,-2.16661 10.9311,-2.37928c1.05667,-0.213 2.54626,-1.26851 2.53593,-1.48518c-0.01067,-0.216 -0.76434,-1.94859 -1.53301,-3.16159c-6.23367,-9.83667 -14.87024,-23.81091 -16.64057,-26.92858c-0.83133,-1.46367 -1.11114,-1.41461 0.16086,-2.15761c1.47167,-0.85933 4.49778,-1.39132 26.99745,-4.78565c11.64,-1.75633 21.60154,-3.43681 21.84321,-3.63714c0.53667,-0.44533 0.78597,-2.66986 -0.5677,-7.91719c-1.34533,-5.21533 -1.88412,-6.07709 -3.54945,-6.07709c-0.73067,0 -3.19853,-0.52844 -4.89253,-0.93544c-2.918,-0.70067 -3.7887,-0.73887 -15.47503,-0.6912c-6.78333,0.02767 -20.2309,0.35999 -29.8559,0.73832c-9.625,0.37833 -19.43566,0.68864 -21.80299,0.68931l-4.05846,0.03083l-4.5164,-2.37736c-2.58267,-1.347 -6.94317,-3.72714 -9.69317,-5.29114c-2.75,-1.56367 -6.78548,-3.73779 -8.89381,-4.79479c-4.107,-2.059 -10.36028,-4.21208 -11.17961,-3.95208z" data-paper-data="{&quot;wickUUID&quot;:&quot;4e63eebe-7b91-4e06-83b9-caf588c9c943&quot;,&quot;wickType&quot;:&quot;path&quot;,&quot;originalStyle&quot;:{&quot;strokeColor&quot;:null,&quot;fillColor&quot;:[&quot;Color&quot;,1,0.50196,0],&quot;strokeWidth&quot;:1}}" fill="#ff8000"/><path d="M417.02614,345.12079c-2.82333,1.40833 -5.49278,2.36207 -10.41378,3.7214c-1.42533,0.39367 -6.09512,2.19464 -10.35312,3.99264c-4.258,1.798 -9.58543,3.99686 -11.8321,4.88386l-4.23633,1.69276l1.20133,1.87232c1.514,0.54967 14.37551,6.56917 16.40184,7.6765c0.91667,0.501 2.23814,1.23161 2.57881,1.52294c0.54967,0.46967 2.69689,0.53308 18.55489,0.53308c16.414,0 18.08342,0.05112 20.58909,0.63479l2.84947,0.63373l1.52453,-1.12204c0.609,-0.533 3.46565,-2.47184 6.34365,-4.30517c3.94133,-2.51067 5.22554,-4.72942 4.92221,-5.00675c-0.32667,-0.29833 -8.5599,-5.00333 -21.62723,-12.311c-0.939,-0.52533 -4.29644,-2.07063 -7.39077,-3.39963l-5.87187,-2.48431z" data-paper-data="{&quot;wickUUID&quot;:&quot;929d6177-c395-4df8-98e4-cb5d50cc61c3&quot;,&quot;wickType&quot;:&quot;path&quot;,&quot;originalStyle&quot;:{&quot;strokeColor&quot;:null,&quot;fillColor&quot;:[&quot;Color&quot;,0.50196,0,1],&quot;strokeWidth&quot;:1}}" fill="#8000ff"/><path d="M352.89032,412.48944c0,2.79067 0.61511,3.62192 2.43978,3.34825c1.337,-0.20033 1.42209,-0.28136 2.32442,0.62097c1.04767,1.04767 1.10784,1.82461 0.47417,3.00861c-0.19733,0.369 0.06624,1.48991 0.17024,1.76124c0.15433,0.40233 1.1032,0.48087 1.9952,-0.19913c1.324,-1.01 3.34998,-1.51338 6.13765,-1.52438c1.146,-0.00433 2.63898,-1.38106 2.63898,-1.52806c0,-0.727 -4.42482,-5.33296 -5.86149,-6.10263c-1.64367,-0.88133 -4.95173,-1.85447 -7.74873,-2.2378l-2.41363,0.02443z" data-paper-data="{&quot;wickUUID&quot;:&quot;96c15832-6c3b-44e1-8116-e12f53012206&quot;,&quot;wickType&quot;:&quot;path&quot;,&quot;originalStyle&quot;:{&quot;strokeColor&quot;:null,&quot;fillColor&quot;:[&quot;Color&quot;,0,0,0],&quot;strokeWidth&quot;:1}}" fill="#000000"/><path d="M363.26976,423.43475c-0.18733,0.13467 -1.31169,1.16472 -1.99302,1.97405l-1.43026,2.22262l2.36782,1.71062c1.76167,1.06133 2.1573,1.12986 3.29397,0.65519c0.64633,-0.27033 2.11023,-0.58652 3.21156,-0.70185c1.64267,-0.17167 1.44452,-0.37882 1.97785,0.10385c0.959,0.868 1.34721,2.44516 0.93554,3.52749c-0.33533,0.88267 -0.00059,1.19243 3.18141,2.6691c2.062,0.95733 4.42866,1.08764 4.56866,0.86097c0.34633,-0.56 -0.31906,-5.31434 -0.87706,-5.94034c-0.27767,-0.31133 -1.80742,-1.23016 -3.01409,-1.65216c-1.63533,-0.57167 -2.6762,-1.22856 -4.2142,-2.65789c-1.14533,-1.06433 -2.87011,-2.22856 -3.65578,-2.50589c-1.511,-0.533 -3.79407,-0.66709 -4.3524,-0.26576z" data-paper-data="{&quot;wickUUID&quot;:&quot;769829d0-07fe-4667-ac2f-a47a3b9d93d2&quot;,&quot;wickType&quot;:&quot;path&quot;,&quot;originalStyle&quot;:{&quot;strokeColor&quot;:null,&quot;fillColor&quot;:[&quot;Color&quot;,0,0,0],&quot;strokeWidth&quot;:1}}" fill="#000000"/><path d="M327.24947,356.88088c-2.224,1.148 -5.855,2.848 -8.068,3.778c-9.064,3.808 -16.443,7.623 -17.749,9.174c-2.089,2.484 -1.783,3.456 2.389,7.589c3.653,3.619 6.603,7.11 6.244,7.387c-2.355,1.817 -18.018,9.44 -37.781,18.39c-12.777,5.785 -27.566,13.13 -29.148,14.475c-2.691,2.288 -1.583,5.038 2.029,5.038c1.432,0 3.647,1.006 10.071,4.574c11.152,6.195 13.24,7.013 18,7.053c3.718,0.031 3.973,-0.043 10.945,-3.218c3.926,-1.788 10.351,-4.922 14.277,-6.965c9.477,-4.932 18.633,-8.939 26.083,-11.414l6.096,-2.025l2.708,1.784c3.633,2.393 8.082,5.879 12.748,9.989c9.006,7.933 13.313,10.863 20.626,14.035c2.333,1.012 6.371,2.922 8.975,4.245c4.921,2.5 6.039,2.719 9.614,1.878c1.178,-0.277 5.568,-1.219 9.756,-2.093c4.188,-0.875 9.97,-2.143 12.849,-2.819c2.879,-0.676 7.143,-1.369 9.476,-1.541c3.187,-0.234 4.458,-0.529 5.115,-1.187c1.114,-1.113 1.111,-2.218 -0.01,-3.462c-1.135,-1.26 -14.543,-22.321 -16.932,-26.596c-0.998,-1.786 -1.627,-3.41 -1.398,-3.609c0.23,-0.199 5.343,-1.064 11.363,-1.922c17.777,-2.534 34.663,-5.233 35.798,-5.724c1.643,-0.709 1.716,-2.255 0.38,-8.131c-1.721,-7.576 -3.482,-12.735 -4.54,-13.302c-0.484,-0.259 -1.773,-0.471 -2.865,-0.471c-1.092,0 -3.301,-0.374 -4.909,-0.832c-2.505,-0.714 -4.904,-0.826 -16.725,-0.78c-7.591,0.029 -19.797,0.314 -27.126,0.632c-7.329,0.319 -16.437,0.695 -20.241,0.836l-6.916,0.256l-5.477,-2.861c-3.013,-1.574 -7.459,-4.063 -9.881,-5.532c-2.422,-1.468 -5.484,-3.217 -6.805,-3.887c-4.272,-2.164 -11.977,-4.966 -13.471,-4.897c-0.8,0.037 -3.275,1.006 -5.5,2.155zM338.76747,361.78888c2.695,1.042 7.792,3.63 11.325,5.751c3.534,2.121 8.774,5.041 11.645,6.49l5.22,2.633l10.008,-0.263c5.505,-0.145 15.363,-0.514 21.906,-0.82c6.544,-0.306 17.251,-0.587 23.795,-0.625c10.008,-0.058 12.375,0.064 14.91,0.763c1.657,0.458 3.813,0.832 4.791,0.832c1.732,0 1.797,0.065 2.531,2.499c1.333,4.419 2.385,9.379 2.131,10.041c-0.136,0.355 -1.176,0.776 -2.311,0.937c-6.275,0.891 -37.956,5.666 -41.797,6.3c-5.982,0.988 -7.393,2.319 -5.323,5.024c0.477,0.625 2.02,3.17 3.429,5.656c1.409,2.487 5.302,8.778 8.65,13.981c3.349,5.203 6.088,9.627 6.088,9.832c0,0.204 -1.552,0.625 -3.45,0.934c-1.898,0.309 -5.913,1.171 -8.923,1.915c-3.01,0.744 -7.721,1.784 -10.47,2.311c-2.748,0.527 -6.338,1.273 -7.977,1.657l-2.981,0.698l-4.871,-2.392c-2.68,-1.315 -6.799,-3.242 -9.155,-4.282c-5.539,-2.444 -10.731,-5.931 -16.656,-11.186c-10.129,-8.983 -18.083,-14.628 -20.512,-14.559c-4.219,0.119 -20.906,6.754 -33.48,13.313c-7.394,3.856 -18.734,9.175 -21.529,10.097c-3.561,1.175 -8.345,-0.714 -23.205,-9.165l-2.12,-1.205l7.593,-3.635c4.176,-1.999 12.197,-5.735 17.824,-8.303c17.485,-7.979 28.665,-13.304 31.885,-15.188c3.695,-2.162 6.155,-3.382 6.817,-3.382c1,0 2.225,-1.625 2.225,-2.951c0,-0.911 -0.555,-1.97 -1.646,-3.138c-0.905,-0.97 -3.399,-3.63 -5.541,-5.911l-3.896,-4.148l4.709,-2.207c2.589,-1.213 7.064,-3.228 9.943,-4.478c2.879,-1.25 6.734,-3.028 8.566,-3.95c1.832,-0.923 3.696,-1.699 4.141,-1.725c0.446,-0.025 3.016,0.807 5.711,1.849z" data-paper-data="{&quot;wickUUID&quot;:&quot;df8e58a8-ac21-4299-878b-89b93786f620&quot;,&quot;wickType&quot;:&quot;path&quot;,&quot;originalStyle&quot;:{&quot;strokeColor&quot;:null,&quot;fillColor&quot;:[&quot;Color&quot;,0,0,0],&quot;strokeWidth&quot;:1}}" fill="#000000"/><path d="M318.00432,409.65852c-1.058,1.058 -0.934,2.106 0.513,4.338c1.245,1.921 5.685,5.179 8.495,6.234c2.278,0.856 6.81,1.529 10.292,1.529c2.784,0 3.316,-0.142 3.957,-1.057c1.569,-2.239 0.333,-3.702 -3.127,-3.702c-7.022,0 -13.305,-2.43 -15.794,-6.109c-1.454,-2.15 -2.984,-2.585 -4.336,-1.233z" data-paper-data="{&quot;wickUUID&quot;:&quot;b97b3839-a8f9-4163-bc3d-6d813c3c6d17&quot;,&quot;wickType&quot;:&quot;path&quot;,&quot;originalStyle&quot;:{&quot;strokeColor&quot;:null,&quot;fillColor&quot;:[&quot;Color&quot;,0,0,0],&quot;strokeWidth&quot;:1}}" fill="#000000"/><path d="M409.64047,400.03316c-0.293,0.352 -0.662,1.294 -0.822,2.094c-0.16,0.799 -1.125,2.268 -2.145,3.263c-2.641,2.58 -2.435,5.424 0.394,5.424c1.264,0 5.09,-3.318 6.117,-5.305c0.951,-1.838 0.859,-4.377 -0.193,-5.329c-1.052,-0.952 -2.626,-1.021 -3.351,-0.147z" data-paper-data="{&quot;wickUUID&quot;:&quot;deb45bc4-312b-4c43-924c-7c95e9a78ad4&quot;,&quot;wickType&quot;:&quot;path&quot;,&quot;originalStyle&quot;:{&quot;strokeColor&quot;:null,&quot;fillColor&quot;:[&quot;Color&quot;,0,0,0],&quot;strokeWidth&quot;:1}}" fill="#000000"/><path d="M361.03787,360.82883c-3.488,0.481 -9.029,2.237 -10.091,3.199c-1.093,0.989 -1.087,2.17 0.016,3.169c1.16,1.049 1.737,1.005 6.363,-0.486c3.721,-1.2 4.501,-1.276 13.468,-1.309l9.518,-0.035l8.884,4.164c4.887,2.29 9.315,4.164 9.841,4.164c1.183,0 2.452,-1.211 2.452,-2.34c0,-1.364 -1.189,-2.09 -10.707,-6.529l-9.042,-4.218l-9.042,-0.07c-4.973,-0.039 -10.22,0.092 -11.66,0.291z" data-paper-data="{&quot;wickUUID&quot;:&quot;6814f158-98c8-47b1-8b5e-8057ab011613&quot;,&quot;wickType&quot;:&quot;path&quot;,&quot;originalStyle&quot;:{&quot;strokeColor&quot;:null,&quot;fillColor&quot;:[&quot;Color&quot;,0,0,0],&quot;strokeWidth&quot;:1}}" fill="#000000"/><path d="M309.5123,381.98218c-1.994,1.994 -2.161,5.494 -0.309,6.485c1.23,0.659 3.294,-0.536 3.294,-1.906c0,-0.502 0.214,-1.045 0.476,-1.207c0.661,-0.409 0.596,-2.782 -0.095,-3.474c-0.775,-0.774 -2.543,-0.721 -3.366,0.102z" data-paper-data="{&quot;wickUUID&quot;:&quot;2be2c398-6553-4d8a-ab5b-5a475581b25e&quot;,&quot;wickType&quot;:&quot;path&quot;,&quot;originalStyle&quot;:{&quot;strokeColor&quot;:null,&quot;fillColor&quot;:[&quot;Color&quot;,0,0,0],&quot;strokeWidth&quot;:1}}" fill="#000000"/><path d="M362.2283,317.5037c-0.524,0.233 -2.161,0.308 -3.638,0.167c-3.636,-0.347 -5.771,0.127 -7.255,1.611c-1.425,1.425 -1.602,3.243 -0.474,4.855c0.425,0.607 0.585,1.269 0.357,1.482c-1.792,1.671 -27.607,20.896 -32.111,23.914c-2.238,1.499 -4.297,3.227 -4.576,3.84c-1.258,2.76 0.426,4.797 6.197,7.497c3.664,1.715 5.374,1.636 5.852,-0.268c0.469,-1.868 -0.068,-2.55 -3.151,-4.008c-1.587,-0.751 -2.93,-1.475 -2.983,-1.609c-0.053,-0.135 1.889,-1.65 4.315,-3.367c5.789,-4.097 12.098,-8.785 20.572,-15.284c3.796,-2.91 7.914,-6.008 9.153,-6.883l2.253,-1.591l2.063,2.216c1.723,1.85 2.349,2.217 3.788,2.217c0.947,0 1.855,-0.215 2.017,-0.476c0.162,-0.262 0.798,-0.476 1.414,-0.476c1.657,0 3.755,-2.67 3.338,-4.248c-0.383,-1.452 -0.376,-2.916 0.028,-5.525c0.429,-2.771 -0.755,-4.097 -3.858,-4.32c-1.292,-0.093 -2.778,0.022 -3.301,0.256z" data-paper-data="{&quot;wickUUID&quot;:&quot;a2e4011a-6fbf-4aa7-841b-e445af77cea3&quot;,&quot;wickType&quot;:&quot;path&quot;,&quot;originalStyle&quot;:{&quot;strokeColor&quot;:null,&quot;fillColor&quot;:[&quot;Color&quot;,0,0,0],&quot;strokeWidth&quot;:1}}" fill="#000000"/><path d="M350.59608,405.78875c-0.6,0.638 -1.383,2.405 -1.741,3.926c-0.566,2.409 -0.554,3.102 0.096,5.383c0.409,1.439 1.302,3.206 1.984,3.926c1.089,1.15 1.592,1.308 4.148,1.308c3.119,0 4.052,-0.507 4.052,-2.202c0,-1.589 -1.263,-2.556 -3.334,-2.556c-1.486,0 -1.902,-0.205 -2.176,-1.069c-0.453,-1.425 -0.364,-3.718 0.164,-4.246c0.25,-0.25 2.236,0.016 4.813,0.645c4.282,1.044 4.457,1.142 7.259,4.06c1.579,1.644 2.786,3.242 2.683,3.551c-0.123,0.371 -1.197,0.522 -3.141,0.442c-3.682,-0.15 -5.384,0.794 -7.814,4.332c-2.085,3.037 -2.738,4.666 -2.738,6.833c0,2.875 3.272,4.861 8.12,4.927l2.646,0.036l0.586,2.287c1.157,4.515 3.598,6.755 7.36,6.755c2.082,0 7.676,-2.846 9.539,-4.854c1.141,-1.229 1.318,-1.747 1.091,-3.185c-0.148,-0.944 -0.48,-3.071 -0.736,-4.727c-0.658,-4.253 -1.311,-5.029 -5.234,-6.221c-3.903,-1.185 -5.312,-2.659 -4.936,-5.161c0.471,-3.14 -0.249,-4.77 -3.719,-8.423c-3.698,-3.894 -3.951,-4.028 -10.758,-5.722c-6.001,-1.494 -6.849,-1.498 -8.214,-0.045zM367.31408,424.22275c1.178,0.352 2.388,1.217 3.28,2.344c1.074,1.357 2.151,2.031 4.473,2.804c3.226,1.074 3.304,1.171 3.787,4.762c0.316,2.343 0.335,2.32 -3.544,4.342c-2.258,1.176 -3.318,0.751 -4.199,-1.685c-0.56,-1.547 -0.524,-1.832 0.365,-2.962c1.187,-1.509 1.251,-2.909 0.201,-4.407c-0.7,-1 -1.045,-1.09 -3.289,-0.859c-1.378,0.143 -3.075,0.632 -3.771,1.088c-1.005,0.658 -1.623,0.738 -3.017,0.389c-2.174,-0.546 -2.123,-1.427 0.251,-4.323c1.801,-2.199 2.485,-2.386 5.463,-1.493z" data-paper-data="{&quot;wickUUID&quot;:&quot;7e7fdf69-be38-4c07-a690-d228a22e0fb0&quot;,&quot;wickType&quot;:&quot;path&quot;,&quot;originalStyle&quot;:{&quot;strokeColor&quot;:null,&quot;fillColor&quot;:[&quot;Color&quot;,0,0,0],&quot;strokeWidth&quot;:1}}" fill="#000000"/><path d="M354.72127,416.04937c-0.731,0.575 -1.934,0.953 -3.038,0.954c-2.81,0.004 -5.118,0.817 -6.749,2.375c-2.869,2.742 -2.327,5.224 1.634,7.489c1.589,0.909 2.569,1.065 6.758,1.071c4.573,0.008 4.978,-0.07 6.068,-1.16c1.618,-1.618 1.551,-3.757 -0.172,-5.48c-1.163,-1.163 -1.257,-1.452 -0.714,-2.196c0.867,-1.184 0.783,-2.288 -0.244,-3.217c-1.146,-1.037 -2.07,-0.994 -3.543,0.164zM349.96327,422.52337c-0.158,0.158 -0.568,0.175 -0.912,0.037c-0.379,-0.151 -0.267,-0.264 0.288,-0.287c0.502,-0.021 0.783,0.092 0.624,0.25z" data-paper-data="{&quot;wickUUID&quot;:&quot;6ed0ec21-fa82-4d40-829e-fed1cc215b0f&quot;,&quot;wickType&quot;:&quot;path&quot;,&quot;originalStyle&quot;:{&quot;strokeColor&quot;:null,&quot;fillColor&quot;:[&quot;Color&quot;,0,0,0],&quot;strokeWidth&quot;:1}}" fill="#000000"/><path d="M412.98862,398.89487c-2.878,0.467 -3.86,2.359 -2.125,4.094c0.685,0.685 1.389,0.76 4.622,0.49l3.814,-0.318l-1.172,1.256c-0.645,0.691 -3.26,3.078 -5.812,5.304c-3.845,3.354 -4.64,4.282 -4.64,5.409c0,1.368 1.069,2.347 2.563,2.347c0.749,0 10.403,-8.28 14.009,-12.015c1.732,-1.794 2.033,-2.386 1.904,-3.742c-0.222,-2.324 -2.323,-3.244 -7.293,-3.196c-2.094,0.02 -4.735,0.187 -5.87,0.371z" data-paper-data="{&quot;wickUUID&quot;:&quot;59f18249-0866-4372-8fe5-0f71c35e0ef0&quot;,&quot;wickType&quot;:&quot;path&quot;,&quot;originalStyle&quot;:{&quot;strokeColor&quot;:null,&quot;fillColor&quot;:[&quot;Color&quot;,0,0,0],&quot;strokeWidth&quot;:1}}" fill="#000000"/><path d="M343.9059,415.51405c-0.392,0.226 -1.886,0.56 -3.319,0.741c-3.004,0.382 -3.819,0.902 -3.819,2.436c0,2.105 1.241,2.724 4.721,2.352c1.722,-0.184 3.717,-0.638 4.433,-1.008c1.443,-0.745 2.19,-2.768 1.456,-3.941c-0.544,-0.87 -2.421,-1.184 -3.472,-0.58z" data-paper-data="{&quot;wickUUID&quot;:&quot;a763a8f9-3464-40d7-ae6f-89e34d9b71da&quot;,&quot;wickType&quot;:&quot;path&quot;,&quot;originalStyle&quot;:{&quot;strokeColor&quot;:null,&quot;fillColor&quot;:[&quot;Color&quot;,0,0,0],&quot;strokeWidth&quot;:1}}" fill="#000000"/><path d="M416.2979,340.65571c-3.527,1.963 -6.794,3.186 -10.659,3.989c-1.513,0.314 -4.511,1.38 -6.663,2.369c-2.151,0.989 -9.694,4.101 -16.761,6.916c-7.067,2.815 -13.006,5.362 -13.198,5.66c-1.197,1.855 0.448,3.822 2.924,3.496c1.669,-0.219 20.792,-7.816 29.31,-11.644c2.356,-1.058 5.235,-2.078 6.398,-2.266c2.805,-0.454 6.313,-1.685 9.746,-3.42l2.803,-1.418l5.483,2.319c5.902,2.495 8.145,3.648 16.973,8.719c3.141,1.804 7.298,4.181 9.238,5.283l3.529,2.003l-2.745,1.828c-1.509,1.006 -4.489,2.923 -6.621,4.26c-4.259,2.67 -5.005,3.992 -3.185,5.64c0.848,0.767 1.21,0.81 2.759,0.332c0.981,-0.302 3.283,-1.615 5.115,-2.917c1.832,-1.302 4.888,-3.251 6.79,-4.331c1.903,-1.081 3.669,-2.358 3.926,-2.837c0.633,-1.183 0.563,-2.911 -0.156,-3.856c-0.585,-0.769 -5.504,-3.766 -11.988,-7.303c-1.832,-1 -5.58,-3.142 -8.328,-4.761c-2.748,-1.62 -6.71,-3.705 -8.804,-4.634c-6.62,-2.937 -11.92,-5.128 -12.393,-5.123c-0.251,0.003 -1.823,0.766 -3.493,1.696z" data-paper-data="{&quot;wickUUID&quot;:&quot;d28b8a5d-b211-481f-9181-7df2143d6b82&quot;,&quot;wickType&quot;:&quot;path&quot;,&quot;originalStyle&quot;:{&quot;strokeColor&quot;:null,&quot;fillColor&quot;:[&quot;Color&quot;,0,0,0],&quot;strokeWidth&quot;:1}}" fill="#000000"/><path d="M454.52484,313.23667c-2.401,0.973 -5.447,5.746 -5.447,8.537c0,1.585 -0.606,2.325 -3.199,3.908c-0.989,0.603 -4.533,3.354 -7.875,6.114c-9.888,8.162 -10.666,8.78 -12.319,9.783c-0.869,0.527 -1.655,1.346 -1.746,1.82c-0.218,1.132 1.229,2.696 2.489,2.69c1.538,-0.007 5.432,-2.451 8.849,-5.553c7.648,-6.942 15.328,-12.526 17.226,-12.526c1.535,0 2.74,-1.415 4.666,-5.473c2.046,-4.311 2.396,-7.359 1.006,-8.749c-1.059,-1.06 -2.031,-1.206 -3.65,-0.551z" data-paper-data="{&quot;wickUUID&quot;:&quot;1d4fb853-dbe4-4434-a8fa-dc334c683079&quot;,&quot;wickType&quot;:&quot;path&quot;,&quot;originalStyle&quot;:{&quot;strokeColor&quot;:null,&quot;fillColor&quot;:[&quot;Color&quot;,0,0,0],&quot;strokeWidth&quot;:1}}" fill="#000000"/><path d="M475.7161,326.22429c-1.726,0.89 -4.05,2.659 -5.472,4.164c-13.165,13.945 -21.166,23.219 -21.166,24.534c0,0.321 0.392,1.067 0.871,1.659c1.221,1.508 2.782,0.992 4.84,-1.6c3.622,-4.562 6.963,-8.369 11.022,-12.56c3.739,-3.862 4.402,-4.355 5.541,-4.128c0.711,0.143 2.255,-0.092 3.43,-0.52c1.174,-0.429 3.421,-1.093 4.991,-1.476c4.09,-0.996 6.769,-2.529 7.645,-4.374c1.199,-2.527 -0.042,-4.577 -3.838,-6.34c-2.714,-1.261 -4.448,-1.119 -7.864,0.641z" data-paper-data="{&quot;wickUUID&quot;:&quot;ff14ce53-f4cd-4a53-bdd9-81889451754d&quot;,&quot;wickType&quot;:&quot;path&quot;,&quot;originalStyle&quot;:{&quot;strokeColor&quot;:null,&quot;fillColor&quot;:[&quot;Color&quot;,0,0,0],&quot;strokeWidth&quot;:1}}" fill="#000000"/></g><g fill="none" fill-rule="nonzero" stroke="none" stroke-width="1" stroke-linecap="butt" stroke-linejoin="miter" stroke-miterlimit="10" stroke-dasharray="" stroke-dashoffset="0" font-family="sans-serif" font-weight="normal" font-size="12" text-anchor="start" style="mix-blend-mode: normal"/><g id="wick_project_gui" fill="none" fill-rule="nonzero" stroke="none" stroke-width="1" stroke-linecap="butt" stroke-linejoin="miter" stroke-miterlimit="10" stroke-dasharray="" stroke-dashoffset="0" font-family="sans-serif" font-weight="normal" font-size="12" text-anchor="start" style="mix-blend-mode: normal"/></g></svg>