<svg version="1.1" xmlns="http://www.w3.org/2000/svg" xmlns:xlink="http://www.w3.org/1999/xlink" width="1260" height="490" viewBox="0,0,1260,490"><g transform="translate(145.99587,-204.33028) scale(1.18074,1.18074)"><g id="wick_project_bg" fill-opacity="0" fill="#ffffff" fill-rule="nonzero" stroke="none" stroke-width="1" stroke-linecap="butt" stroke-linejoin="miter" stroke-miterlimit="10" stroke-dasharray="" stroke-dashoffset="0" font-family="none" font-weight="none" font-size="none" text-anchor="none" style="mix-blend-mode: normal"><rect x="0" y="0" width="720" height="480"/></g><g data-paper-data="{&quot;wickUUID&quot;:&quot;a7a41070-612b-4935-97bf-95815af10268&quot;,&quot;wickType&quot;:&quot;clipsandpaths&quot;}" fill="none" fill-rule="evenodd" stroke="none" stroke-width="1" stroke-linecap="butt" stroke-linejoin="miter" stroke-miterlimit="10" stroke-dasharray="" stroke-dashoffset="0" font-family="none" font-weight="none" font-size="none" text-anchor="none" style="mix-blend-mode: normal"><path d="M468.50566,238.53845c0,0.081 0.67353,1.53223 1.41686,2.52756c2.172,2.90967 4.82019,8.57119 5.63486,12.11719c1.10633,4.815 1.04616,12.44947 -0.14351,17.5148c-1.74567,7.43233 -3.73621,11.61368 -7.36821,15.50201c-2.427,2.598 -3.39202,3.14114 -7.86569,4.89347l-3.4035,1.39046l0.6469,1.96392c1.64,1.94867 2.49162,4.10594 2.67529,6.78461l0.39676,2.89482l4.27865,1.71718c4.99867,1.93367 7.03826,3.24228 8.41959,5.42861c1.979,3.132 1.16466,2.87528 11.61433,3.71228c3.575,0.28633 7.97834,0.8432 9.60334,1.21187c2.99667,0.67967 4.23125,-1.07698 4.23125,-2.15098c0,-0.475 -8.54889,-2.39902 -12.23656,-2.75002c-2.22233,-0.21167 -2.05492,-0.09616 -3.77092,-1.71616c-2.22367,-2.099 -5.58567,-6.23052 -6.876,-8.47219c-1.25867,-2.18667 -1.37213,-3.12804 -0.9588,-7.11537c0.38467,-3.71467 0.18286,-3.86725 2.07719,-4.83358c2.23933,-1.14267 4.99778,-0.90489 13.92045,1.02978c9.24367,2.00467 12.65576,2.96242 15.22943,4.26175l2.21109,0.99957l1.42434,-1.5533c0.407,-0.62133 0.63696,-2.26124 0.63696,-2.43224c0,-0.49067 -5.16681,-4.50279 -6.97514,-5.41912c-2.533,-1.28367 -7.04041,-2.69481 -12.69974,-3.96214c-7.514,-1.683 -9.78256,-2.49921 -11.39523,-4.67388c-0.79467,-1.07133 -0.68615,-2.27243 -0.15548,-11.99843c0.26033,-4.77667 0.09979,-4.91069 0.65712,-5.31802c1.43667,-1.05067 2.89636,0.0592 2.89636,1.69087c0,0.37733 1.03753,0.50565 1.22086,0.39232c0.18333,-0.11333 0.59657,-1.57552 0.59657,-2.00585c0,-0.554 -0.49024,-1.15923 -1.63791,-1.98356c-2.324,-1.66967 -2.95196,-3.15959 -3.51163,-8.35592c-0.25167,-2.33867 -0.6995,-4.94341 -0.8765,-5.53541c-1.00467,-3.36433 -3.85487,-6.0086 -6.78054,-6.25127c-0.99467,-0.08233 -3.13284,0.41304 -3.13284,0.49437z" data-paper-data="{&quot;wickUUID&quot;:&quot;ade6dc8b-771b-4d3b-9df9-70cc63270c77&quot;,&quot;wickType&quot;:&quot;path&quot;,&quot;originalStyle&quot;:{&quot;strokeColor&quot;:null,&quot;fillColor&quot;:[&quot;Color&quot;,1,0.50196,0],&quot;strokeWidth&quot;:1}}" fill="#ff8000"/><path d="M432.24891,247.87745c-0.71233,0.58067 -0.71908,2.19827 -0.18875,2.40494c0.336,0.13067 1.36526,0.07564 1.83526,-0.23203c1.01367,-0.66433 1.28672,-0.6756 2.55305,-0.0436c0.54867,0.27367 1.39915,0.56345 2.02482,0.67145l2.20861,-0.57485l-1.57098,-1.8434c-0.98133,-0.92567 -1.61092,-1.10829 -3.52592,-1.10829c-1.60267,0 -2.74242,0.24145 -3.33609,0.72578z" data-paper-data="{&quot;wickUUID&quot;:&quot;404bb916-4403-44d5-83ae-37327a6ec814&quot;,&quot;wickType&quot;:&quot;path&quot;,&quot;originalStyle&quot;:{&quot;strokeColor&quot;:null,&quot;fillColor&quot;:[&quot;Color&quot;,1,1,1],&quot;strokeWidth&quot;:1}}" fill="#ffffff"/><path d="M454.43081,248.16925c-0.454,0.454 -0.72877,3.26958 -0.31444,3.92225c0.21867,0.345 1.49651,0.96297 1.84251,0.5463c0.23867,-0.28767 1.50419,-1.01675 2.31086,-1.22008c1.72133,-0.43333 1.55735,-1.94597 -0.23098,-2.9643c-1.50433,-0.85667 -3.05495,-0.83717 -3.60795,-0.28417z" data-paper-data="{&quot;wickUUID&quot;:&quot;33d129f0-dde5-406f-9cf7-6f894bc6886f&quot;,&quot;wickType&quot;:&quot;path&quot;,&quot;originalStyle&quot;:{&quot;strokeColor&quot;:null,&quot;fillColor&quot;:[&quot;Color&quot;,1,1,1],&quot;strokeWidth&quot;:1}}" fill="#ffffff"/><path d="M442.5562,233.84482c-5.715,0.71167 -10.24119,2.94331 -13.92986,6.67964c-5.747,5.82067 -7.3121,11.11762 -7.0761,24.40362c0.11133,6.26733 0.20108,6.96826 1.07641,8.45726c1.291,2.19567 3.87775,5.01573 5.58175,6.0144c0.81,0.47467 1.82935,1.32187 1.93535,1.65554c0.17433,0.54967 0.62068,0.63873 2.61701,0.35173c3.52533,-0.507 8.12712,0.11418 11.09279,1.54085c2.59667,1.249 4.65812,3.30438 5.97212,5.81671l1.3951,1.64637l5.07642,-1.78759c2.65833,-0.95467 5.68157,-2.16787 6.4079,-2.51387c1.846,-0.879 4.39522,-4.18406 6.55755,-8.52873c1.53167,-3.07733 2.03108,-4.56265 2.57675,-7.69765c1.01867,-5.85367 1.13781,-8.71973 0.55814,-12.82373c-0.689,-4.87933 -1.67594,-7.84602 -3.66561,-11.15635c-3.45567,-5.75033 -5.8864,-8.03128 -10.22073,-9.70028c-5.78767,-2.22867 -10.91166,-2.98592 -15.95499,-2.35792zM440.18062,244.2651c0.61367,0.25667 1.33397,0.79136 2.24897,1.89069c2.619,3.147 2.59719,4.61328 -0.02514,7.29895l-0.77372,0.72714l-3.49951,-0.02737c-3.457,0 -3.65201,0.03979 -4.38501,0.83079c-1.17233,1.265 -2.18588,1.41503 -3.26588,-0.00097c-1.349,-1.76867 -2.4568,-4.62161 -2.61547,-6.53461l-0.19197,-1.11785l1.86405,-1.74751l1.69561,-1.77421l3.89078,0.03883c2.835,0 4.30262,0.10079 5.05729,0.41612zM458.07565,244.55011c5.83033,1.80767 7.64981,7.00255 3.76114,10.66022c-0.97333,0.91567 -0.48072,0.10787 -2.57005,0.0912c-1.34567,-0.011 -2.38529,-0.19712 -2.69029,-0.45012c-0.43033,-0.357 -0.49402,-0.28234 -1.30869,0.29766c-1.95267,1.39033 -3.26652,0.97841 -4.37652,-1.67759c-0.65267,-1.56233 -0.86811,-3.60804 -0.59844,-5.04604c0.242,-1.28967 1.59254,-3.20384 2.77987,-3.86251c1.139,-0.63167 2.58231,-0.76315 5.00298,-0.01282zM435.20742,268.64943c0.98567,0.65433 1.87731,1.43006 2.44464,2.07606c0.886,1.009 0.85097,0.88034 0.76497,2.20434c-0.082,1.261 0.68965,0.79288 -0.02302,1.19121c-1.26167,0.70533 -1.86732,0.39002 -4.90565,-2.51331c-2.80933,-2.68433 -2.95378,-2.37786 -1.54711,-3.68153c1.20167,-1.11367 1.15617,-0.6771 3.26617,0.72323z" data-paper-data="{&quot;wickUUID&quot;:&quot;1efac3de-aa9e-496e-8b1a-01244e6a2ef2&quot;,&quot;wickType&quot;:&quot;path&quot;,&quot;originalStyle&quot;:{&quot;strokeColor&quot;:null,&quot;fillColor&quot;:[&quot;Color&quot;,1,1,1],&quot;strokeWidth&quot;:1}}" fill="#ffffff"/><path d="M433.87971,284.60772c-0.09767,0.10033 -3.10789,0.66181 -6.55922,1.22214c-9.862,1.60133 -14.15932,2.87309 -14.96032,4.42442c-0.884,1.71133 -1.77497,2.31179 -3.34964,2.31179l-1.75849,1.35231l2.9601,1.48801c3.36367,1.62667 7.31836,4.16279 10.15736,6.53079c1.97267,1.645 4.4986,4.92656 4.95927,6.50623c0.30167,1.03533 -0.37378,1.70878 -1.59378,1.70878c-1.12133,0 -1.33077,-0.36613 -3.56944,-3.1018c-2.84367,-3.47433 -7.93663,-6.86113 -14.50163,-9.67613c-8.42167,-3.61133 -23.87174,-7.93188 -24.85641,-6.94721c-0.16567,0.16567 -0.43592,2.19088 0.40341,2.79355c3.03767,2.18133 5.4899,4.42467 6.9609,6.38134c1.25667,1.67167 1.31701,1.80888 1.31701,3.00355c0,1.16133 0.0204,0.93682 -0.68693,1.49282c-0.483,0.38 -0.10648,0.47828 -0.43415,0.47828c-0.82833,0 -2.05946,-1.13758 -3.59213,-3.24825c-1.225,-1.68733 -5.00162,-4.64385 -5.58229,-4.64385c-0.353,0 -1.62491,4.75467 -1.67024,7.06434c-0.043,2.186 1.2434,7.0879 2.6434,10.07957c0.96433,2.06067 3.74361,5.3587 4.93161,5.9947c0.41333,0.22133 2.70884,-0.31744 7.03384,-1.98111c7.01133,-2.697 9.96798,-3.6588 11.65331,-3.6588c2.30033,0 2.96701,1.25532 1.49801,2.72432c-0.34367,0.34367 -2.30113,0.92573 -4.90913,1.79473c-2.60767,0.869 -6.15436,2.13033 -7.89269,2.80666l-3.7067,2.16857l4.1711,2.38174c2.01233,0.95567 5.06543,2.10957 6.6231,2.51224c2.617,0.67633 3.49558,0.67532 5.86158,0.27765c6.51933,-1.09533 25.52714,-8.9474 31.51881,-13.0164c3.081,-2.09233 6.70483,-6.29927 8.70716,-10.20994c0.91467,-1.786 1.09208,-2.33233 0.65341,-3.18033c-0.799,-1.54567 -0.64252,-2.42634 0.69781,-3.65367l1.25269,-1.22305l-0.41396,-2.7879c-0.48367,-2.91867 -2.42741,-6.6768 -3.88941,-7.6448c-1.741,-1.15267 -4.76298,-2.21974 -7.28098,-2.46507c-1.26867,-0.12367 -2.69867,-0.16055 -2.79634,-0.06022z" data-paper-data="{&quot;wickUUID&quot;:&quot;8d2eccf9-244b-49e9-a517-73eab650be79&quot;,&quot;wickType&quot;:&quot;path&quot;,&quot;originalStyle&quot;:{&quot;strokeColor&quot;:null,&quot;fillColor&quot;:[&quot;Color&quot;,0.50196,0,1],&quot;strokeWidth&quot;:1}}" fill="#8000ff"/><path d="M450.38561,328.15314c0.64167,0.14 1.09182,1.74819 1.47915,1.95852c1.90433,1.03367 4.48085,5.26803 5.15418,8.46503c0.56233,2.67133 1.27056,3.0776 2.77523,1.98527c0.72533,-0.52667 2.43181,-1.31025 3.08348,-1.52058c1.18767,-0.38333 3.39184,-2.43138 4.72117,-4.37738c0.66967,-0.98067 0.6268,-2.1987 0.08447,-2.6847c-0.316,-0.28333 -2.1907,-1.38947 -3.91703,-2.2698l-3.37994,-1.68773l-5.53419,-0.09339c-3.06067,-0.04433 -5.13252,0.07943 -4.46652,0.22476z" data-paper-data="{&quot;wickUUID&quot;:&quot;e31ef19d-94c2-4551-ae7d-f8334590fa13&quot;,&quot;wickType&quot;:&quot;path&quot;,&quot;originalStyle&quot;:{&quot;strokeColor&quot;:null,&quot;fillColor&quot;:[&quot;Color&quot;,0,0,0],&quot;strokeWidth&quot;:1}}" fill="#000000"/><path d="M334.86843,263.49824c-1.778,1.892 -2.517,4.492 -2.984,10.501c-0.634,8.145 -0.594,9.671 0.274,10.539c0.892,0.892 3.799,0.995 4.33,0.153c0.567,-0.897 3.477,-7.855 4.529,-10.827c1.201,-3.392 1.017,-7.968 -0.397,-9.869c-1.352,-1.818 -4.274,-2.071 -5.752,-0.497z" data-paper-data="{&quot;wickUUID&quot;:&quot;582c621c-3be5-47bd-a0d1-dbe8d44ad832&quot;,&quot;wickType&quot;:&quot;path&quot;,&quot;originalStyle&quot;:{&quot;strokeColor&quot;:null,&quot;fillColor&quot;:[&quot;Color&quot;,0,0,0],&quot;strokeWidth&quot;:1}}" fill="#000000"/><path d="M339.10521,280.46222c-4.206,0.607 -5.541,0.982 -6.068,1.702c-2.175,2.976 1.07,4.327 7.469,3.11c7.566,-1.439 15.013,-0.212 23.027,3.794c3.141,1.571 7.745,3.791 10.232,4.934c5.418,2.492 8.856,5.12 10.979,8.397c1.785,2.754 3.308,3.443 4.744,2.143c1.055,-0.954 1.173,-2.37 0.321,-3.824c-2.524,-4.305 -8.648,-9.15 -14.763,-11.679c-1.882,-0.778 -6.207,-2.808 -9.61,-4.51c-5.321,-2.663 -6.912,-3.225 -11.383,-4.025c-6.064,-1.084 -7.699,-1.089 -14.948,-0.042z" data-paper-data="{&quot;wickUUID&quot;:&quot;4215ceab-d843-4e4d-8398-98ec298381b2&quot;,&quot;wickType&quot;:&quot;path&quot;,&quot;originalStyle&quot;:{&quot;strokeColor&quot;:null,&quot;fillColor&quot;:[&quot;Color&quot;,0,0,0],&quot;strokeWidth&quot;:1}}" fill="#000000"/><path d="M432.06189,280.79301c-0.262,0.105 -3.474,0.612 -7.139,1.127c-7.852,1.103 -11.614,2.223 -15.221,4.531c-3.032,1.939 -4.351,2.064 -8.215,0.78c-4.919,-1.637 -9.823,-2.326 -21.714,-3.051c-2.139,-0.131 -3.124,1.685 -4.655,8.577c-1.987,8.949 -2.144,11.918 -0.892,16.799c1.517,5.913 2.5,7.799 5.907,11.337c1.719,1.785 3.132,3.7 3.224,4.368c0.174,1.268 0.254,1.317 7.778,4.811c7.602,3.529 11.413,4.018 18.183,2.333c4.802,-1.195 8.347,-2.532 17.028,-6.42c3.81,-1.707 7.051,-3.104 7.202,-3.104c0.45,0 5.993,-3.43 7.892,-4.883c1.997,-1.529 6.944,-7.821 8.353,-10.625c2.357,-4.69 3.322,-10.063 2.458,-13.687c-2.134,-8.952 -7.443,-13.203 -16.382,-13.116c-1.832,0.018 -3.546,0.118 -3.807,0.223zM440.87189,286.23101c3.007,1.089 4.371,2.546 5.708,6.092c1.948,5.168 0.548,11.014 -4.084,17.062c-3.463,4.521 -5.165,5.902 -10.434,8.465c-11.493,5.589 -18.565,8.444 -24.517,9.895c-3.837,0.936 -4.553,0.98 -7.162,0.441c-1.595,-0.329 -4.114,-1.205 -5.598,-1.945c-1.484,-0.741 -3.489,-1.711 -4.455,-2.156c-1.288,-0.594 -1.796,-1.147 -1.904,-2.074c-0.1,-0.865 -0.598,-1.472 -1.574,-1.922c-3.67,-1.691 -6.335,-5.513 -7.82,-11.217c-1.256,-4.824 -1.253,-4.96 0.304,-12.827l1.308,-6.61l5.722,0.278c5.871,0.286 11.107,1.176 14.049,2.389c0.916,0.378 3.553,0.839 5.861,1.026c3.632,0.293 4.319,0.227 5.116,-0.494c0.506,-0.458 0.92,-1.117 0.92,-1.464c0,-1.621 6.089,-3.479 15.459,-4.718c3.136,-0.415 5.795,-0.847 5.909,-0.96c0.547,-0.547 4.866,-0.103 7.192,0.739z" data-paper-data="{&quot;wickUUID&quot;:&quot;71ce25c8-c2e6-4e15-8ceb-f5755216e1af&quot;,&quot;wickType&quot;:&quot;path&quot;,&quot;originalStyle&quot;:{&quot;strokeColor&quot;:null,&quot;fillColor&quot;:[&quot;Color&quot;,0,0,0],&quot;strokeWidth&quot;:1}}" fill="#000000"/><path d="M398.51118,314.75553c-11.005,3.733 -33.172,13.361 -37.358,16.226c-1.344,0.92 -2.58,2.52 -4.209,5.449c-2.029,3.648 -2.429,4.107 -3.331,3.82c-3.753,-1.193 -6.006,-0.571 -7.223,1.995c-1.43,3.013 0.089,6.334 2.898,6.334c1.455,0 6.422,-1.782 7.378,-2.648c0.448,-0.405 1.831,-2.491 3.075,-4.636c1.244,-2.145 2.557,-4.382 2.92,-4.972c1.412,-2.3 28.554,-14.303 40.01,-17.695c2.879,-0.852 3.495,-1.215 3.744,-2.21c0.383,-1.525 -0.938,-3.059 -2.624,-3.045c-0.679,0.005 -3.055,0.627 -5.28,1.382z" data-paper-data="{&quot;wickUUID&quot;:&quot;3db58232-e888-403d-81bb-f776f0c8ab26&quot;,&quot;wickType&quot;:&quot;path&quot;,&quot;originalStyle&quot;:{&quot;strokeColor&quot;:null,&quot;fillColor&quot;:[&quot;Color&quot;,0,0,0],&quot;strokeWidth&quot;:1}}" fill="#000000"/><path d="M380.17677,287.20371c-0.693,0.766 -0.78,1.235 -0.42,2.261c0.389,1.108 0.796,1.336 2.823,1.587c3.944,0.489 10.589,2.317 17.191,4.731c11.709,4.28 17.061,7.655 21.277,13.417c0.852,1.164 1.686,1.784 2.398,1.784c1.194,0 2.667,-1.34 2.667,-2.425c0,-0.866 -2.058,-3.992 -3.991,-6.061c-1.883,-2.015 -8.709,-6.497 -12.427,-8.159c-4.655,-2.081 -14.88,-5.608 -19.988,-6.894c-5.913,-1.489 -8.345,-1.55 -9.53,-0.241z" data-paper-data="{&quot;wickUUID&quot;:&quot;b152c750-0a69-4d07-a4a4-c79a6bf7374b&quot;,&quot;wickType&quot;:&quot;path&quot;,&quot;originalStyle&quot;:{&quot;strokeColor&quot;:null,&quot;fillColor&quot;:[&quot;Color&quot;,0,0,0],&quot;strokeWidth&quot;:1}}" fill="#000000"/><path d="M446.11905,298.70111c-1.915,2.055 -1.353,3.448 3.298,8.179c5.387,5.478 6.86,7.502 7.816,10.734c1.561,5.278 1.213,5.733 -4.506,5.892c-3.481,0.097 -4.911,0.35 -6.389,1.132c-5.582,2.956 -4.28,10.433 1.653,9.484c2.812,-0.45 4.356,1.683 5.01,6.92c0.373,2.981 0.498,3.237 2.128,4.353c1.629,1.114 3.714,0.994 5.962,-0.343c1.047,-0.623 3.022,-1.704 4.39,-2.401c1.367,-0.698 2.931,-1.844 3.475,-2.548c4.175,-5.398 4.628,-6.304 4.055,-8.106c-0.596,-1.881 -2.237,-3.358 -6.197,-5.581l-4.033,-2.264l0.024,-2.658c0.053,-5.909 -2.709,-11.149 -9.295,-17.635c-1.72,-1.693 -3.127,-3.427 -3.127,-3.852c0,-0.965 -1.482,-2.348 -2.517,-2.348c-0.427,0 -1.214,0.469 -1.747,1.042zM464.05405,330.58111c1.891,1.03 3.548,2.049 3.681,2.264c0.28,0.453 -2.161,3.686 -3.698,4.897c-0.573,0.453 -1.401,0.827 -1.839,0.833c-0.438,0.006 -1.432,0.546 -2.21,1.2c-0.778,0.655 -1.525,1.19 -1.66,1.19c-0.136,0 -0.396,-0.91 -0.577,-2.022c-0.846,-5.177 -4.355,-9.826 -7.488,-9.923c-1.463,-0.044 -1.482,-0.067 -0.356,-0.425c0.655,-0.208 3.332,-0.267 5.949,-0.132c4.413,0.229 5.009,0.383 8.198,2.118z" data-paper-data="{&quot;wickUUID&quot;:&quot;034a562c-8000-4a35-881b-b8a022c4d338&quot;,&quot;wickType&quot;:&quot;path&quot;,&quot;originalStyle&quot;:{&quot;strokeColor&quot;:null,&quot;fillColor&quot;:[&quot;Color&quot;,0,0,0],&quot;strokeWidth&quot;:1}}" fill="#000000"/><path d="M373.70921,318.06688c-2.917,2.916 -2.245,5.511 1.721,6.646c3.062,0.876 3.373,1.22 2.179,2.414c-1.079,1.079 -1.941,2.927 -1.941,4.161c0,0.402 0.728,1.459 1.618,2.349c1.95,1.95 3.726,2.102 6.049,0.518c5.721,-3.901 6.61,-4.706 6.61,-5.988c0,-1.627 -0.793,-2.43 -2.398,-2.43c-0.88,0 -1.42,-0.359 -1.802,-1.197c-0.3,-0.658 -1.03,-1.388 -1.623,-1.622c-0.593,-0.234 -1.785,-0.69 -2.651,-1.014c-1.104,-0.412 -1.423,-0.737 -1.07,-1.09c0.804,-0.805 0.581,-2.612 -0.45,-3.643c-1.626,-1.626 -4.072,-1.275 -6.242,0.896z" data-paper-data="{&quot;wickUUID&quot;:&quot;8830f787-cc9f-4362-aadb-291d197e9abe&quot;,&quot;wickType&quot;:&quot;path&quot;,&quot;originalStyle&quot;:{&quot;strokeColor&quot;:null,&quot;fillColor&quot;:[&quot;Color&quot;,0,0,0],&quot;strokeWidth&quot;:1}}" fill="#000000"/><path d="M441.04713,229.60672c-7.038,1.031 -12.625,4.119 -16.765,9.266c-5.735,7.128 -6.918,11.181 -6.95,23.808c-0.029,11.368 0.32,12.604 4.894,17.314c3.205,3.3 5.146,4.283 7.183,3.637c2.086,-0.662 1.776,-3.614 -0.478,-4.548c-2.048,-0.848 -6.066,-5.525 -6.502,-7.569c-0.199,-0.933 -0.339,-5.122 -0.311,-9.31c0.057,-8.602 0.727,-12.133 3.088,-16.259c4.477,-7.825 10.963,-11.447 20.912,-11.676c3.331,-0.077 4.862,0.163 8.855,1.389c6.028,1.851 8.026,3.164 11.096,7.292c4.027,5.416 5.375,9.278 5.973,17.113c0.346,4.537 -0.862,12.072 -2.546,15.879c-1.377,3.113 -5.06,8.532 -6.309,9.285c-0.962,0.579 -4.284,1.816 -11.376,4.234c-2.765,0.943 -3.331,1.41 -3.331,2.749c0,2.405 2.387,3.2 5.71,1.9c0.916,-0.358 3.671,-1.402 6.121,-2.321c5.284,-1.979 6.958,-3.095 9.35,-6.235c3.755,-4.928 5.615,-9.714 7.134,-18.354c0.726,-4.126 0.416,-10.187 -0.774,-15.131c-0.944,-3.923 -3.987,-9.731 -6.907,-13.183c-4.424,-5.231 -6.311,-6.268 -16.113,-8.859c-3.416,-0.903 -7.649,-1.052 -11.954,-0.421z" data-paper-data="{&quot;wickUUID&quot;:&quot;d931a6a0-e526-48ae-b9ca-cc99ede75b2a&quot;,&quot;wickType&quot;:&quot;path&quot;,&quot;originalStyle&quot;:{&quot;strokeColor&quot;:null,&quot;fillColor&quot;:[&quot;Color&quot;,0,0,0],&quot;strokeWidth&quot;:1}}" fill="#000000"/><path d="M449.26776,290.91484c-1.024,1.131 -0.998,2.124 0.082,3.101c1.131,1.024 2.124,0.998 3.101,-0.082c1.024,-1.132 0.998,-2.124 -0.082,-3.101c-1.132,-1.024 -2.124,-0.998 -3.101,0.082z" data-paper-data="{&quot;wickUUID&quot;:&quot;e282bc51-e8f7-4fc8-9b2c-28f400de599b&quot;,&quot;wickType&quot;:&quot;path&quot;,&quot;originalStyle&quot;:{&quot;strokeColor&quot;:null,&quot;fillColor&quot;:[&quot;Color&quot;,0,0,0],&quot;strokeWidth&quot;:1}}" fill="#000000"/><path d="M449.16476,291.21084c-1.118,1.708 -0.541,2.71 2.467,4.279c3.727,1.944 4.582,3.451 4.206,7.415c-0.371,3.909 -0.23,4.049 6.681,6.63c2.879,1.075 5.463,2.109 5.742,2.297c0.279,0.188 1.19,1.548 2.025,3.022c0.964,1.702 1.994,2.864 2.824,3.186c0.718,0.279 4.304,0.641 7.969,0.806c4.456,0.2 8.29,0.681 11.578,1.453c2.704,0.635 5.455,1.155 6.115,1.155c2.701,0 6.24,-6.553 5.004,-9.266c-1.055,-2.316 -4.851,-1.012 -4.851,1.667c0,0.415 -0.29,1.151 -0.645,1.635c-0.625,0.855 -0.76,0.852 -4.639,-0.115c-2.479,-0.618 -6.436,-1.109 -10.421,-1.293c-8.393,-0.388 -8.255,-0.349 -9.289,-2.641c-1.242,-2.755 -2.909,-3.961 -8.325,-6.024l-4.751,-1.809l-0.004,-1.904c-0.008,-4.572 -2.405,-8.313 -6.733,-10.506c-2.874,-1.456 -3.992,-1.453 -4.953,0.013z" data-paper-data="{&quot;wickUUID&quot;:&quot;e05b5a62-8f8b-4228-b643-eb3792751cf2&quot;,&quot;wickType&quot;:&quot;path&quot;,&quot;originalStyle&quot;:{&quot;strokeColor&quot;:null,&quot;fillColor&quot;:[&quot;Color&quot;,0,0,0],&quot;strokeWidth&quot;:1}}" fill="#000000"/><path d="M467.81775,234.39974c-2.461,1.936 -1.032,4.536 2.251,4.096c2.241,-0.301 3.728,0.364 5.837,2.611c1.858,1.978 2.4,3.791 2.73,9.122c0.293,4.728 1.119,6.65 3.512,8.169c0.825,0.524 1.616,1.233 1.758,1.577c0.34,0.821 -0.697,2.773 -2.827,5.324c-2.609,3.122 -3.217,4.625 -3.277,8.093c-0.04,2.263 0.179,3.487 0.787,4.415c1.299,1.984 5.065,3.594 11.43,4.885c6.581,1.334 11.042,2.709 13.616,4.195c2.162,1.25 6.235,4.64 6.235,5.192c0,0.222 -0.368,0.892 -0.817,1.488l-0.818,1.084l-3.014,-1.367c-1.658,-0.752 -4.984,-1.78 -7.392,-2.284c-2.407,-0.505 -6.733,-1.459 -9.612,-2.122c-6.529,-1.501 -9.792,-1.562 -11.961,-0.221c-1.787,1.104 -1.923,1.509 -2.247,6.704c-0.188,3.016 -0.065,3.954 0.711,5.401c1.176,2.195 4.11,5.968 6.931,8.914c1.975,2.062 2.359,2.26 4.377,2.26c1.217,0 4.844,0.643 8.059,1.428c6.951,1.697 8.657,1.777 9.847,0.461c1.289,-1.423 0.479,-3.498 -1.449,-3.713c-0.78,-0.087 -3.983,-0.783 -7.118,-1.547c-3.134,-0.763 -6.572,-1.388 -7.639,-1.388c-1.869,0 -2.068,-0.157 -5.389,-4.26l-3.449,-4.26l0.143,-2.997l0.142,-2.997l2.241,0.113c1.232,0.062 4.552,0.66 7.376,1.328c2.825,0.668 6.693,1.537 8.596,1.93c4.705,0.974 7.394,2.206 8.643,3.96c1.014,1.424 2.531,1.89 3.606,1.108c1.157,-0.842 5.468,-7.925 5.468,-8.984c0,-1.787 -1.133,-3.542 -3.686,-5.71c-5.305,-4.506 -9.965,-6.49 -20.067,-8.543c-5.669,-1.152 -8.214,-2.026 -8.839,-3.037c-0.645,-1.043 0.447,-3.93 2.472,-6.535c3.75,-4.827 4.709,-7.698 3.432,-10.283c-0.282,-0.572 -1.488,-1.915 -2.679,-2.986l-2.167,-1.946l-0.24,-4.591c-0.328,-6.28 -1.924,-9.572 -6.207,-12.807c-2.705,-2.043 -3.25,-2.266 -5.527,-2.266c-1.834,0 -2.868,0.27 -3.779,0.986z" data-paper-data="{&quot;wickUUID&quot;:&quot;f01feb96-0b81-4299-98cf-a91d843be60c&quot;,&quot;wickType&quot;:&quot;path&quot;,&quot;originalStyle&quot;:{&quot;strokeColor&quot;:null,&quot;fillColor&quot;:[&quot;Color&quot;,0,0,0],&quot;strokeWidth&quot;:1}}" fill="#000000"/><path d="M479.03175,259.68263c-0.384,0.385 -0.571,2.552 -0.571,6.629c0,4.872 0.147,6.204 0.748,6.805c0.994,0.994 2.257,0.946 3.224,-0.122c1.127,-1.246 1.16,-12.015 0.039,-13.135c-0.887,-0.887 -2.639,-0.977 -3.44,-0.177z" data-paper-data="{&quot;wickUUID&quot;:&quot;61617f86-e631-4d44-86b0-44ae05211dfb&quot;,&quot;wickType&quot;:&quot;path&quot;,&quot;originalStyle&quot;:{&quot;strokeColor&quot;:null,&quot;fillColor&quot;:[&quot;Color&quot;,0,0,0],&quot;strokeWidth&quot;:1}}" fill="#000000"/><path d="M431.18388,267.5961c-1.285,1.42 -0.948,2.151 2.324,5.041c2.531,2.236 3.328,2.695 4.275,2.457c1.457,-0.366 2.016,-2.282 1.143,-3.914c-0.805,-1.504 -4.793,-4.454 -6.022,-4.454c-0.513,0 -1.287,0.392 -1.72,0.87z" data-paper-data="{&quot;wickUUID&quot;:&quot;0f2e555b-2133-41b4-9d92-a7223785fc32&quot;,&quot;wickType&quot;:&quot;path&quot;,&quot;originalStyle&quot;:{&quot;strokeColor&quot;:null,&quot;fillColor&quot;:[&quot;Color&quot;,0,0,0],&quot;strokeWidth&quot;:1}}" fill="#000000"/><path d="M431.34775,243.24257c-0.393,0.154 -1.517,1.047 -2.499,1.985c-1.35,1.29 -1.784,2.083 -1.784,3.26c0,1.787 2.023,6.348 3.348,7.547c1.082,0.978 3.124,0.621 3.516,-0.616c0.23,-0.725 0.769,-0.812 4.092,-0.661l3.826,0.173l1.651,-1.75c2.491,-2.642 2.095,-4.957 -1.428,-8.345c-1.684,-1.62 -1.847,-1.669 -5.87,-1.77c-2.276,-0.057 -4.459,0.022 -4.852,0.177zM438.96175,248.88057l1.118,1.189h-1.29c-0.709,0 -1.817,-0.345 -2.462,-0.768c-1.084,-0.711 -1.267,-0.707 -2.414,0.044c-0.94,0.616 -1.372,0.679 -1.784,0.261c-0.879,-0.892 0.996,-1.916 3.509,-1.916c1.737,0 2.443,0.253 3.323,1.19z" data-paper-data="{&quot;wickUUID&quot;:&quot;8ca65be4-3d12-4f7d-bd61-9d90b4e0cf06&quot;,&quot;wickType&quot;:&quot;path&quot;,&quot;originalStyle&quot;:{&quot;strokeColor&quot;:null,&quot;fillColor&quot;:[&quot;Color&quot;,0,0,0],&quot;strokeWidth&quot;:1}}" fill="#000000"/><path d="M452.43134,244.12046c-0.56,0.393 -1.492,1.481 -2.072,2.418c-0.868,1.405 -1.007,2.155 -0.788,4.268c0.494,4.788 3.01,7.156 5.309,4.997c0.666,-0.626 1.234,-0.852 1.413,-0.562c0.584,0.946 4.47,1.183 5.74,0.351c2.923,-1.915 3.384,-6.325 0.929,-8.888c-2.768,-2.888 -8.194,-4.22 -10.531,-2.584zM457.87834,249.11246c1.912,1.166 1.981,1.909 0.178,1.909c-0.754,0 -1.636,0.321 -1.962,0.714c-0.885,1.066 -1.277,0.876 -1.608,-0.782c-0.303,-1.513 0.297,-2.789 1.309,-2.785c0.295,0.001 1.233,0.426 2.083,0.944z" data-paper-data="{&quot;wickUUID&quot;:&quot;da94209b-777c-4100-b076-c66a9722b15e&quot;,&quot;wickType&quot;:&quot;path&quot;,&quot;originalStyle&quot;:{&quot;strokeColor&quot;:null,&quot;fillColor&quot;:[&quot;Color&quot;,0,0,0],&quot;strokeWidth&quot;:1}}" fill="#000000"/></g><g fill="none" fill-rule="nonzero" stroke="none" stroke-width="1" stroke-linecap="butt" stroke-linejoin="miter" stroke-miterlimit="10" stroke-dasharray="" stroke-dashoffset="0" font-family="sans-serif" font-weight="normal" font-size="12" text-anchor="start" style="mix-blend-mode: normal"/><g id="wick_project_gui" fill="none" fill-rule="nonzero" stroke="none" stroke-width="1" stroke-linecap="butt" stroke-linejoin="miter" stroke-miterlimit="10" stroke-dasharray="" stroke-dashoffset="0" font-family="sans-serif" font-weight="normal" font-size="12" text-anchor="start" style="mix-blend-mode: normal"/></g></svg>