<svg version="1.1" xmlns="http://www.w3.org/2000/svg" xmlns:xlink="http://www.w3.org/1999/xlink" width="1260" height="490" viewBox="0,0,1260,490"><g transform="translate(145.99587,-204.33028) scale(1.18074,1.18074)"><g id="wick_project_bg" fill-opacity="0" fill="#ffffff" fill-rule="nonzero" stroke="none" stroke-width="1" stroke-linecap="butt" stroke-linejoin="miter" stroke-miterlimit="10" stroke-dasharray="" stroke-dashoffset="0" font-family="none" font-weight="none" font-size="none" text-anchor="none" style="mix-blend-mode: normal"><rect x="0" y="0" width="720" height="480"/></g><g data-paper-data="{&quot;wickUUID&quot;:&quot;dc4cb46a-dd0a-4f37-b760-d5eadaedf15d&quot;,&quot;wickType&quot;:&quot;clipsandpaths&quot;}" fill="none" fill-rule="evenodd" stroke="none" stroke-width="1" stroke-linecap="butt" stroke-linejoin="miter" stroke-miterlimit="10" stroke-dasharray="" stroke-dashoffset="0" font-family="none" font-weight="none" font-size="none" text-anchor="none" style="mix-blend-mode: normal"><path d="M482.99075,253.94362c4.26633,6.968 5.75237,12.61756 5.39304,20.86189c-0.32267,7.394 -3.05701,15.94585 -6.68034,20.90818c-3.53,4.83467 -6.39028,6.74938 -12.18995,8.41005l-3.40407,1.08259l0.96001,2.32453c1.42233,1.863 1.90935,3.52296 1.94068,6.60996l0.24035,2.8664l4.44452,2.19797c5.095,2.46467 6.5127,3.61749 7.95837,6.50782c1.268,2.53533 1.02621,2.44487 8.94154,3.6122c5.98733,0.883 7.82016,1.27164 12.03816,2.54264c2.56067,0.77167 2.92097,0.77507 3.37564,0.1534c0.25533,-0.34933 0.55521,-2.32437 0.49021,-2.38937c-0.34367,-0.344 -9.80193,-3.08122 -11.82593,-3.42255c-2.28133,-0.38467 -2.0931,-0.2448 -3.88077,-2.1758c-2.16533,-2.339 -4.47326,-5.64829 -5.95226,-8.57829c-1.22633,-2.431 -1.28849,-3.73034 -0.47482,-8.01867c0.665,-3.50567 0.47965,-3.20514 2.34865,-4.11014c1.33667,-0.647 1.16197,-0.56662 3.37264,-0.39229c4.26333,0.33667 19.02939,4.81418 24.22372,7.34485l3.23686,1.53242l1.58673,-1.36857l1.00057,-1.57864l-1.14151,-1.66349c-1.544,-1.879 -5.07129,-4.66109 -7.36229,-5.82542c-2.68767,-1.36567 -5.23205,-2.3117 -11.26305,-4.16137c-5.22767,-1.603 -8.25205,-3.03852 -9.85438,-4.70852c-1.02267,-1.06567 -0.81695,-0.82525 -0.93928,-2.74425c-0.08933,-1.40567 0.09428,-3.05362 0.53395,-5.06295c0.37133,-1.698 0.82159,-4.60217 1.00559,-6.4895c0.18433,-1.88733 0.25355,-3.16517 0.47488,-3.43184c0.56733,-0.68367 1.86201,-0.45982 2.50701,0.25851c0.28833,0.32067 0.0829,0.48157 0.1439,1.02724l0.87125,1.60286l1.31597,-1.99334c0.41567,-0.92167 0.34076,-1.11692 -1.26457,-2.66425c-2.58633,-2.493 -2.73975,-2.94438 -3.02375,-9.04305c-0.17467,-3.75633 -0.46799,-5.87393 -0.85599,-6.7786c-0.77133,-1.798 -3.599,-4.77514 -4.78733,-5.00381c-0.53533,-0.103 -1.80109,-0.44125 -2.37309,-0.55225l-2.04517,0.53078z" data-paper-data="{&quot;wickUUID&quot;:&quot;51a35f50-18ea-4454-949f-eb412e7e7e52&quot;,&quot;wickType&quot;:&quot;path&quot;,&quot;originalStyle&quot;:{&quot;strokeColor&quot;:null,&quot;fillColor&quot;:[&quot;Color&quot;,1,0.50196,0],&quot;strokeWidth&quot;:1}}" fill="#ff8000"/><path d="M445.31505,258.78556c-1.08533,0.79367 0.01583,2.75023 1.45983,2.17223c1.239,-0.49567 1.37041,-0.47771 2.91874,0.34662c0.886,0.47133 2.25844,0.86047 2.62644,0.85547c0.56267,-0.00767 0.76172,-1.752 -0.28495,-2.72533c-1.12533,-1.04633 -1.77472,-1.27816 -3.52905,-1.27816c-1.10233,0 -2.84201,0.37417 -3.19101,0.62917z" data-paper-data="{&quot;wickUUID&quot;:&quot;9615d37c-0c58-4bdb-9191-45b30c37c6a9&quot;,&quot;wickType&quot;:&quot;path&quot;,&quot;originalStyle&quot;:{&quot;strokeColor&quot;:null,&quot;fillColor&quot;:[&quot;Color&quot;,1,1,1],&quot;strokeWidth&quot;:1}}" fill="#ffffff"/><path d="M467.41407,261.06839c-0.36367,0.555 -0.80571,2.32073 -0.65504,3.0064c0.245,1.11533 1.40388,1.67287 2.38455,0.9312c0.356,-0.269 1.84889,-0.86026 2.45556,-0.86026c1.467,0 1.12512,-1.66271 -0.54588,-2.87304c-1.678,-1.21567 -2.94386,-1.26563 -3.63919,-0.2043z" data-paper-data="{&quot;wickUUID&quot;:&quot;6210671e-5c7f-4009-be3c-b43d4e4f61c8&quot;,&quot;wickType&quot;:&quot;path&quot;,&quot;originalStyle&quot;:{&quot;strokeColor&quot;:null,&quot;fillColor&quot;:[&quot;Color&quot;,1,1,1],&quot;strokeWidth&quot;:1}}" fill="#ffffff"/><path d="M454.43686,245.67068c-0.36667,0.085 -1.67745,0.35358 -2.68578,0.55325c-1.00833,0.2 -3.42853,1.1431 -4.97253,1.86077c-4.87867,2.268 -9.97842,8.28102 -11.53842,13.55502c-0.922,3.117 -1.74529,9.31822 -1.96729,15.27289l-0.18607,5.39099l1.5601,2.55477c0.764,1.19167 2.54996,3.2822 3.91529,4.5832l2.78295,2.57556l3.9253,0.2629c3.69,0.208 6.39059,0.78771 8.56159,1.91471c1.847,0.959 4.69033,4.07134 5.66533,6.14434c0.68733,1.46067 1.64664,2.16973 2.07397,2.04273c0.311,-0.09233 3.06528,-0.81041 5.79195,-1.55441c2.72667,-0.744 5.70907,-1.7146 6.30374,-1.99693c1.19033,-0.56467 3.84647,-3.6665 6.22314,-7.26883c1.808,-2.74067 3.59622,-7.90911 4.44355,-12.86811c0.43767,-2.56267 0.52477,-4.67005 0.3601,-7.90038c-0.319,-6.26333 -1.61603,-10.12661 -5.13936,-15.42194c-2.183,-3.28067 -3.86689,-4.72497 -7.70856,-6.49997c-5.31733,-2.45633 -7.66292,-3.07991 -12.33059,-3.21891c-2.30733,-0.06867 -4.71174,-0.06698 -5.07841,0.01835zM451.64222,255.18274c1.88233,0.32767 1.91723,0.34933 3.3009,1.82866c0.847,0.90533 1.56235,1.75817 1.93668,2.60484c0.90667,2.04967 0.57528,3.00168 -1.57739,5.12201l-1.09979,1.13408l-2.05365,-0.37466c-3.60867,-0.52167 -4.97765,-0.44542 -5.66965,0.31925c-0.855,0.94467 -2.19312,1.16547 -3.12079,0.17814c-0.86567,-0.92167 -2.0252,-3.93583 -2.34787,-6.0875c-0.288,-1.92033 -0.17287,-2.01434 2.24313,-3.92434c1.65767,-1.31 1.28247,-1.13795 3.9218,-1.13795c1.481,0 3.31496,0.1368 4.46663,0.33747zM470.95798,257.25401c1.90633,0.65033 4.24749,2.34868 5.08282,3.77901c0.842,1.442 0.89361,3.65812 0.11094,5.13079c-0.927,1.74433 -1.91615,2.18269 -4.03415,2.16836c-1.179,-0.008 -1.87002,-0.25499 -2.54935,-0.65799c-0.99433,-0.59 -1.16724,-0.60077 -1.96557,-0.07777c-1.35233,0.88633 -2.36005,1.1607 -3.13272,0.07337c-1.35867,-1.91133 -1.73303,-5.55556 -0.84003,-7.68056c0.248,-0.59 0.80204,-1.10858 1.65004,-1.88758c1.41233,-1.29767 1.30485,-1.2597 2.93685,-1.2597c0.97967,0 1.92917,0.13507 2.74117,0.41207zM445.04621,278.46897c1.384,0.72533 2.91066,1.95026 3.86433,3.26693c1.63867,2.262 1.4975,3.81409 -0.66683,3.81409c-0.88233,0 -0.57327,-0.27394 -2.88027,-2.61761c-2.263,-2.29867 -2.54993,-2.63776 -2.54993,-3.48676c0,-0.81 -0.15451,-0.19539 0.69349,-0.71239c1.26533,-0.77133 0.57521,-0.76959 1.53921,-0.26426z" data-paper-data="{&quot;wickUUID&quot;:&quot;a36b92d5-dc59-486e-a6a0-58c54ef0115d&quot;,&quot;wickType&quot;:&quot;path&quot;,&quot;originalStyle&quot;:{&quot;strokeColor&quot;:null,&quot;fillColor&quot;:[&quot;Color&quot;,1,1,1],&quot;strokeWidth&quot;:1}}" fill="#ffffff"/><path d="M437.25162,296.16994c-6.93733,0.60033 -11.73557,1.36294 -13.66924,2.17094c-0.588,0.24567 -1.59719,1.03563 -1.88619,1.59463c-0.635,1.22767 -1.72673,2.0397 -3.1864,2.0397c-1.03967,0 -0.77596,1.06029 1.58604,2.52762c5.703,3.543 10.3936,7.8183 12.47693,11.37763c0.813,1.38867 1.25954,2.12426 1.25954,2.54893c0,1.07967 -0.51012,1.72469 -1.67012,1.72469c-1.24467,0 -1.31025,-0.25996 -3.03292,-2.85563c-3.83933,-5.785 -11.10318,-10.55447 -24.39785,-16.03014c-5.792,-2.38567 -14.36016,-5.02146 -14.36016,-4.42646c0,0.13933 0.9527,3.29434 2.93803,5.28034c1.985,1.98633 3.84153,3.99832 4.35586,4.89732c1.76633,3.088 1.43667,4.56825 -1.26833,4.56825c-1.03667,0 -0.26289,-0.07725 -2.08856,-2.77458c-2.39033,-3.53167 -4.90693,-5.98789 -5.3186,-5.32156c-0.15333,0.24767 -1.67283,2.53495 -1.99616,3.90895c-1.43433,6.08967 1.11248,15.30959 5.16515,18.79159c0.689,0.592 1.73533,0.98595 5.90866,-0.32405c5.487,-1.72233 12.1916,-3.36052 13.7686,-3.36052c0.963,0 0.45723,-0.78199 1.13356,0.02168c1.76767,2.10033 1.26598,2.78373 -2.72569,3.74773c-1.55833,0.376 -5.08145,1.2929 -8.07145,2.1379l-5.95399,1.94232l3.80387,3.20232c1.897,1.11767 4.88117,2.51861 6.47384,3.04761c2.54733,0.84667 3.61379,0.95998 5.74746,0.76665c5.19067,-0.47033 11.6927,-2.30135 22.3947,-6.30302c9.313,-3.48233 11.51188,-4.67446 14.90455,-8.05379c3.18367,-3.17133 6.02084,-7.09865 5.68684,-7.92298c-0.11733,-0.289 -0.20709,-1.3377 -0.30542,-2.0307c-0.163,-1.14733 -0.13098,-1.1497 1.12502,-2.30937c1.186,-1.09533 1.46251,-1.9347 1.46251,-3.11503c0,-1.874 -1.59013,-6.60193 -2.67046,-8.0186c-1.06767,-1.39967 -3.93065,-2.95228 -6.76265,-3.61995c-2.421,-0.571 -2.02297,-0.59209 -10.82697,0.16958z" data-paper-data="{&quot;wickUUID&quot;:&quot;5ce3ac79-21c1-42c8-8498-367601c6baf2&quot;,&quot;wickType&quot;:&quot;path&quot;,&quot;originalStyle&quot;:{&quot;strokeColor&quot;:null,&quot;fillColor&quot;:[&quot;Color&quot;,0.50196,0,1],&quot;strokeWidth&quot;:1}}" fill="#8000ff"/><path d="M457.02362,341.49919c0.441,0.08333 1.47542,0.79711 2.42709,1.74878c1.896,1.89567 2.8197,3.89978 3.4837,7.53311c0.58567,3.204 1.05931,3.50104 2.75631,2.42504c0.836,-0.53033 2.63587,-1.17037 3.30354,-1.29537c0.884,-0.166 1.91883,-0.89596 3.4565,-2.43363c1.16033,-1.16033 2.26029,-3.35952 2.26029,-3.53652c0,-0.41267 -5.17372,-3.86723 -6.92372,-4.60456c-1.444,-0.608 -7.35972,-1.52187 -9.51572,-1.4602c-0.858,0.02467 -1.76366,1.52602 -1.24799,1.62335z" data-paper-data="{&quot;wickUUID&quot;:&quot;ea96f057-14ba-4a7d-84e3-d0b3bc379e8a&quot;,&quot;wickType&quot;:&quot;path&quot;,&quot;originalStyle&quot;:{&quot;strokeColor&quot;:null,&quot;fillColor&quot;:[&quot;Color&quot;,0,0,0],&quot;strokeWidth&quot;:1}}" fill="#000000"/><path d="M347.12231,266.6713c-1.92033,1.74737 -2.86012,4.28171 -3.79498,10.23589c-1.26816,8.07061 -1.34746,9.59507 -0.5499,10.52821c0.81961,0.95894 3.70969,1.28865 4.30483,0.49069c0.63532,-0.84998 4.07983,-7.55946 5.36072,-10.44023c1.46224,-3.28785 1.63617,-7.86425 0.37495,-9.86987c-1.20589,-1.91803 -4.09921,-2.39846 -5.69562,-0.94469z" data-paper-data="{&quot;wickUUID&quot;:&quot;566f247a-0e65-4e6b-a4ee-982296f0c8a4&quot;,&quot;wickType&quot;:&quot;path&quot;,&quot;originalStyle&quot;:{&quot;strokeColor&quot;:null,&quot;fillColor&quot;:[&quot;Color&quot;,0,0,0],&quot;strokeWidth&quot;:1}}" id="566f247a-0e65-4e6b-a4ee-982296f0c8a4" fill="#000000"/><path d="M350.02132,283.91435c-4.24056,0.27667 -5.60077,0.54627 -6.18239,1.22291c-2.40077,2.79705 0.72881,4.39734 7.20331,3.6838c7.65527,-0.84373 14.9837,0.96112 22.66037,5.58075c3.00872,1.8115 7.42528,4.38427 9.81542,5.71801c5.20684,2.90752 8.4291,5.79599 10.28969,9.22878c1.56447,2.88499 3.02901,3.69083 4.56215,2.50695c1.12628,-0.86869 1.35451,-2.27115 0.61866,-3.78725c-2.18008,-4.48897 -7.907,-9.79744 -13.80582,-12.79628c-1.81549,-0.9226 -5.96874,-3.28417 -9.22843,-5.24673c-5.09678,-3.07042 -6.63902,-3.75495 -11.03389,-4.90168c-5.96082,-1.55427 -7.59044,-1.68694 -14.89907,-1.20926z" data-paper-data="{&quot;wickUUID&quot;:&quot;3f2d423d-2554-4adc-a98b-56322f528b0c&quot;,&quot;wickType&quot;:&quot;path&quot;,&quot;originalStyle&quot;:{&quot;strokeColor&quot;:null,&quot;fillColor&quot;:[&quot;Color&quot;,0,0,0],&quot;strokeWidth&quot;:1}}" id="3f2d423d-2554-4adc-a98b-56322f528b0c" fill="#000000"/><path d="M442.66826,291.50374c-0.2694,0.08422 -3.51118,0.33882 -7.20521,0.56602c-7.91416,0.48642 -11.75214,1.30919 -15.52837,3.32845c-3.17417,1.69629 -4.49891,1.7179 -8.25083,0.13606c-4.77613,-2.01616 -9.61134,-3.08605 -21.4094,-4.73748c-2.12224,-0.29765 -3.24605,1.43589 -5.31062,8.18727c-2.67982,8.76649 -3.06821,11.71416 -2.20122,16.67803c1.05058,6.01341 1.88328,7.97042 5.00357,11.76369c1.57435,1.9138 2.83348,3.9333 2.87303,4.60644c0.07444,1.27772 0.15037,1.33281 7.37852,5.40374c7.30318,4.11191 11.06435,4.89705 17.94527,3.74591c4.88066,-0.81633 8.51924,-1.87239 17.47737,-5.07056c3.93167,-1.40424 7.27188,-2.54386 7.42242,-2.53207c0.44863,0.03514 6.24257,-2.95148 8.24924,-4.25174c2.11031,-1.36837 7.53358,-7.25481 9.15726,-9.94021c2.71607,-4.4916 4.09775,-9.77283 3.51941,-13.45324c-1.42836,-9.09132 -6.38916,-13.74395 -15.30765,-14.35532c-1.82781,-0.12513 -3.54439,-0.15929 -3.81279,-0.07499zM451.02666,297.61316c2.91277,1.32051 4.15881,2.87958 5.2148,6.51917c1.53845,5.30435 -0.31383,11.02316 -5.40401,16.69094c-3.8055,4.23674 -5.61015,5.48061 -11.06322,7.62429c-11.89438,4.67436 -19.16775,6.96834 -25.21489,7.95008c-3.89838,0.63348 -4.61562,0.62143 -7.17456,-0.11968c-1.56443,-0.45256 -4.00733,-1.5226 -5.42901,-2.37624c-1.4216,-0.85463 -3.34472,-1.97826 -4.27302,-2.49734c-1.23768,-0.69277 -1.70094,-1.28376 -1.73621,-2.21636c-0.03214,-0.87017 -0.48121,-1.5142 -1.41909,-2.03905c-3.52673,-1.97245 -5.8851,-5.99091 -6.9201,-11.79346c-0.87543,-4.90736 -0.86182,-5.0427 1.30481,-12.76408l1.82023,-6.48766l5.68281,0.72402c5.83073,0.74363 10.98124,2.03982 13.81952,3.47888c0.88368,0.44838 3.47662,1.11391 5.76297,1.48059c3.59802,0.57575 4.28809,0.5636 5.13896,-0.09295c0.54022,-0.41708 1.00442,-1.04174 1.03152,-1.38768c0.12659,-1.61605 6.3421,-2.99284 15.78024,-3.49629c3.15883,-0.16882 5.84345,-0.39184 5.96593,-0.49559c0.58805,-0.50261 4.85918,0.27733 7.11232,1.29841z" data-paper-data="{&quot;wickUUID&quot;:&quot;fc003343-5738-4b0d-b6a0-3c7e8a9ca5b7&quot;,&quot;wickType&quot;:&quot;path&quot;,&quot;originalStyle&quot;:{&quot;strokeColor&quot;:null,&quot;fillColor&quot;:[&quot;Color&quot;,0,0,0],&quot;strokeWidth&quot;:1}}" id="fc003343-5738-4b0d-b6a0-3c7e8a9ca5b7" fill="#000000"/><path d="M406.56766,322.74233c-11.26292,2.86214 -34.11414,10.72956 -38.5111,13.2589c-1.41174,0.81223 -2.76892,2.31082 -4.62169,5.10365c-2.3077,3.4784 -2.74233,3.90477 -3.61916,3.5482c-3.64837,-1.48245 -5.94306,-1.03831 -7.35674,1.42481c-1.66094,2.89212 -0.40594,6.32161 2.39448,6.54098c1.45056,0.11363 6.54156,-1.27503 7.56227,-2.06372c0.47826,-0.36878 2.01994,-2.34039 3.42766,-4.38169c1.40772,-2.0413 2.89141,-4.16892 3.29938,-4.72877c1.58731,-2.1827 29.58381,-12.02935 41.26972,-14.51631c2.93675,-0.62456 3.57921,-0.93834 3.90516,-1.91085c0.50093,-1.49043 -0.69624,-3.12292 -2.37818,-3.24063c-0.67732,-0.04804 -3.09463,0.3865 -5.3718,0.96543z" data-paper-data="{&quot;wickUUID&quot;:&quot;fc46fdb2-c250-4f04-86b4-2187ee4c1514&quot;,&quot;wickType&quot;:&quot;path&quot;,&quot;originalStyle&quot;:{&quot;strokeColor&quot;:null,&quot;fillColor&quot;:[&quot;Color&quot;,0,0,0],&quot;strokeWidth&quot;:1}}" id="fc46fdb2-c250-4f04-86b4-2187ee4c1514" fill="#000000"/><path d="M390.44095,293.8428c-0.75071,0.70954 -0.87406,1.17031 -0.59529,2.22129c0.30128,1.135 0.68923,1.39408 2.69044,1.80262c3.89376,0.79552 10.37571,3.13689 16.76902,6.05911c11.33898,5.18136 16.41106,8.96403 20.16419,15.03769c0.75849,1.22698 1.54152,1.91023 2.25135,1.96583c1.19035,0.09325 2.76351,-1.12762 2.84824,-2.20931c0.06763,-0.86336 -1.73996,-4.14053 -3.50547,-6.35417c-1.71988,-2.1559 -8.175,-7.1573 -11.75185,-9.10459c-4.47826,-2.43818 -14.39659,-6.75295 -19.38856,-8.43394c-5.77865,-1.94624 -8.19846,-2.19699 -9.48207,-0.98453z" data-paper-data="{&quot;wickUUID&quot;:&quot;d707c307-0bbf-4916-a241-d3e9b1b4d880&quot;,&quot;wickType&quot;:&quot;path&quot;,&quot;originalStyle&quot;:{&quot;strokeColor&quot;:null,&quot;fillColor&quot;:[&quot;Color&quot;,0,0,0],&quot;strokeWidth&quot;:1}}" id="d707c307-0bbf-4916-a241-d3e9b1b4d880" fill="#000000"/><path d="M455.28392,310.45496c-2.06964,1.89917 -1.61815,3.3318 2.64917,8.41158c4.94273,5.88198 6.25317,8.01483 6.95384,11.31162c1.14404,5.38379 0.76157,5.81022 -4.95238,5.5221c-3.47794,-0.17515 -4.92333,-0.03459 -6.45789,0.62959c-5.79581,2.51104 -5.08171,10.06687 0.90728,9.58412c2.83856,-0.22902 4.21126,2.01805 4.45427,7.29013c0.13905,3.00103 0.24368,3.26601 1.78155,4.5059c1.53702,1.23782 3.62502,1.28102 5.97057,0.12366c1.09246,-0.53933 3.14585,-1.4628 4.56411,-2.05083c1.41734,-0.58911 3.06605,-1.60946 3.66337,-2.26883c4.58381,-5.05546 5.10619,-5.92331 4.67567,-7.76456c-0.44728,-1.9218 -1.96792,-3.52245 -5.74222,-6.04792l-3.84387,-2.57205l0.23151,-2.648c0.51431,-5.88681 -1.83003,-11.32651 -7.88938,-18.30705c-1.58253,-1.82216 -2.84981,-3.66075 -2.81662,-4.08445c0.07536,-0.96205 -1.2941,-2.45656 -2.32594,-2.53739c-0.4257,-0.03335 -1.24692,0.37276 -1.82304,0.90238zM470.67442,343.63825c1.80478,1.17454 3.37715,2.31983 3.49295,2.54456c0.24377,0.47348 -2.44227,3.50598 -4.06915,4.59325c-0.60663,0.40687 -1.46131,0.71505 -1.89844,0.68683c-0.43713,-0.02822 -1.47026,0.4325 -2.29696,1.02374c-0.82678,0.59224 -1.61328,1.06727 -1.74787,1.05673c-0.13558,-0.01062 -0.32372,-0.93815 -0.41732,-2.06089c-0.43911,-5.22726 -3.57432,-10.1361 -6.69018,-10.47748c-1.4551,-0.15812 -1.47224,-0.18253 -0.32172,-0.4515c0.66924,-0.15621 3.34268,-0.00597 5.94114,0.333c4.38164,0.57294 4.96379,0.77301 8.00755,2.75176z" data-paper-data="{&quot;wickUUID&quot;:&quot;570744ee-be6f-4792-a21c-0f154e137f0e&quot;,&quot;wickType&quot;:&quot;path&quot;,&quot;originalStyle&quot;:{&quot;strokeColor&quot;:null,&quot;fillColor&quot;:[&quot;Color&quot;,0,0,0],&quot;strokeWidth&quot;:1}}" id="570744ee-be6f-4792-a21c-0f154e137f0e" fill="#000000"/><path d="M381.58283,324.10661c-3.13582,2.67929 -2.66853,5.31885 1.19672,6.76011c2.98424,1.11246 3.26742,1.47969 1.98382,2.5768c-1.15997,0.99144 -2.16367,2.76647 -2.26004,3.9967c-0.03139,0.40077 0.61183,1.5114 1.42961,2.46819c1.79176,2.09633 3.55046,2.38657 5.99007,0.98883c6.00818,-3.44229 6.95734,-4.17542 7.05746,-5.4535c0.12706,-1.62203 -0.6008,-2.4845 -2.2009,-2.60985c-0.87731,-0.06873 -1.38763,-0.46881 -1.70302,-1.33408c-0.2477,-0.67942 -0.91846,-1.46419 -1.49137,-1.74379c-0.57291,-0.2796 -1.72566,-0.8273 -2.56371,-1.21794c-1.06845,-0.49696 -1.3611,-0.84588 -0.98161,-1.17023c0.86441,-0.73975 0.78321,-2.55865 -0.16412,-3.66702c-1.49405,-1.74802 -3.95999,-1.58912 -6.29291,0.40578z" data-paper-data="{&quot;wickUUID&quot;:&quot;eb142fdc-6b7b-4dac-9713-a001f072df08&quot;,&quot;wickType&quot;:&quot;path&quot;,&quot;originalStyle&quot;:{&quot;strokeColor&quot;:null,&quot;fillColor&quot;:[&quot;Color&quot;,0,0,0],&quot;strokeWidth&quot;:1}}" id="eb142fdc-6b7b-4dac-9713-a001f072df08" fill="#000000"/><path d="M455.62353,241.1755c-7.09702,0.47821 -12.90812,3.12045 -17.43744,7.92841c-6.27416,6.65835 -7.77006,10.60657 -8.78809,23.19251c-0.91671,11.33101 -0.66531,12.59049 3.52688,17.64332c2.93749,3.54022 4.7958,4.6718 6.87703,4.18686c2.13133,-0.49707 2.05281,-3.46426 -0.12136,-4.57144c-1.97552,-1.00535 -5.61599,-5.98185 -5.89103,-8.05366c-0.12553,-0.94569 0.06205,-5.13284 0.41703,-9.30586c0.72861,-8.57128 1.67232,-12.03916 4.34834,-15.96817c5.07443,-7.45146 11.82349,-10.55587 21.75999,-10.00719c3.32684,0.18338 4.83442,0.54221 8.71948,2.07631c5.86503,2.31611 7.75439,3.78114 10.49263,8.13629c3.59173,5.71395 4.634,9.66943 4.61829,17.5272c-0.00938,4.55016 -1.80215,11.96781 -3.77832,15.63167c-1.61591,2.99595 -5.71087,8.11077 -7.01486,8.76393c-1.00428,0.5021 -4.41274,1.47589 -11.67192,3.33264c-2.8302,0.72418 -3.43094,1.14555 -3.53551,2.48046c-0.18782,2.39765 2.12979,3.37664 5.54417,2.34013c0.94116,-0.28537 3.76928,-1.11102 6.28357,-1.83588c5.42241,-1.56029 7.17846,-2.54215 9.80838,-5.48575c4.12839,-4.6197 6.35648,-9.24582 8.5456,-17.7408c1.04601,-4.0567 1.2103,-10.1234 0.41004,-15.14524c-0.63474,-3.98474 -3.21487,-10.01265 -5.85636,-13.68215c-4.00196,-5.56052 -5.80221,-6.74172 -15.37192,-10.09031c-3.33505,-1.16702 -7.54349,-1.64615 -11.88462,-1.35328z" data-paper-data="{&quot;wickUUID&quot;:&quot;469b99ac-3212-4c69-8c57-232647133c5d&quot;,&quot;wickType&quot;:&quot;path&quot;,&quot;originalStyle&quot;:{&quot;strokeColor&quot;:null,&quot;fillColor&quot;:[&quot;Color&quot;,0,0,0],&quot;strokeWidth&quot;:1}}" id="469b99ac-3212-4c69-8c57-232647133c5d" fill="#000000"/><path d="M459.0311,302.93837c-1.1092,1.04757 -1.16083,2.03958 -0.16043,3.09794c1.04757,1.1092 2.03957,1.16082 3.09793,0.16042c1.10928,-1.04857 1.16083,-2.03957 0.16043,-3.09793c-1.04857,-1.10928 -2.03957,-1.16083 -3.09793,-0.16043z" data-paper-data="{&quot;wickUUID&quot;:&quot;30bd1f87-6e21-4c50-a357-e7680727b680&quot;,&quot;wickType&quot;:&quot;path&quot;,&quot;originalStyle&quot;:{&quot;strokeColor&quot;:null,&quot;fillColor&quot;:[&quot;Color&quot;,0,0,0],&quot;strokeWidth&quot;:1}}" id="30bd1f87-6e21-4c50-a357-e7680727b680" fill="#000000"/><path d="M458.90529,303.22543c-1.24797,1.61547 -0.75099,2.65947 2.12529,4.45859c3.5638,2.22913 4.2985,3.7983 3.61407,7.72083c-0.67515,3.86809 -0.54551,4.01867 6.14281,7.13151c2.78625,1.29656 5.28161,2.52921 5.54508,2.73842c0.26347,0.20921 1.06547,1.63621 1.78281,3.17092c0.82814,1.77209 1.76423,3.01097 2.56655,3.39681c0.69402,0.33422 4.2408,0.97517 7.88172,1.42589c4.42677,0.54739 8.21149,1.32635 11.42916,2.35277c2.64615,0.84423 5.34815,1.57749 6.00613,1.62903c2.69275,0.21094 6.73271,-6.04566 5.71236,-8.8469c-0.87091,-2.39132 -4.75716,-1.38776 -4.96638,1.28306c-0.03241,0.41373 -0.379,1.12483 -0.77071,1.57963c-0.68986,0.80358 -0.82422,0.79004 -4.61585,-0.47694c-2.42316,-0.80971 -6.32974,-1.60824 -10.2882,-2.10289c-8.33706,-1.04228 -8.20253,-0.99263 -9.05437,-3.35838c-1.02305,-2.84358 -2.59078,-4.17608 -7.82912,-6.65575l-4.59521,-2.17452l0.1447,-1.89849c0.34908,-4.55866 -1.74843,-8.47544 -5.89195,-10.99974c-2.75151,-1.676 -3.86634,-1.76032 -4.93889,-0.37385z" data-paper-data="{&quot;wickUUID&quot;:&quot;28441b72-eabc-43ee-b3ba-0efb0056f9fd&quot;,&quot;wickType&quot;:&quot;path&quot;,&quot;originalStyle&quot;:{&quot;strokeColor&quot;:null,&quot;fillColor&quot;:[&quot;Color&quot;,0,0,0],&quot;strokeWidth&quot;:1}}" id="28441b72-eabc-43ee-b3ba-0efb0056f9fd" fill="#000000"/><path d="M481.93807,248.04458c-2.60468,1.73789 -1.3831,4.44154 1.92424,4.25928c2.25766,-0.12507 3.68819,0.65404 5.61527,3.05888c1.69785,2.11706 2.0966,3.96685 2.00926,9.30734c-0.07714,4.73644 0.59624,6.71708 2.8633,8.41833c0.78156,0.58683 1.51477,1.35543 1.62947,1.70947c0.27484,0.84505 -0.91143,2.7101 -3.23415,5.08696c-2.84485,2.90871 -3.56837,4.35964 -3.89903,7.81236c-0.21661,2.25296 -0.09387,3.49033 0.4398,4.46298c1.14009,2.07939 4.76885,3.97859 11.01359,5.76273c6.45672,1.84388 10.79671,3.56307 13.2468,5.24555c2.05778,1.41503 5.85359,5.11276 5.81048,5.66307c-0.01734,0.22132 -0.43654,0.86054 -0.93071,1.41965l-0.90016,1.01681l-2.89804,-1.59821c-1.59421,-0.87919 -4.82977,-2.16379 -7.19105,-2.85431c-2.36021,-0.69144 -6.59849,-1.98037 -9.41692,-2.86619c-6.39184,-2.00631 -9.64011,-2.32195 -11.90721,-1.15444c-1.86776,0.96107 -2.03498,1.35421 -2.7637,6.50804c-0.42297,2.99211 -0.37359,3.93686 0.28703,5.44004c1.00099,2.28014 3.63137,6.27075 6.21368,9.42806c1.80793,2.20994 2.17529,2.43733 4.18713,2.59493c1.21328,0.09504 4.77899,1.01933 7.92286,2.05301c6.79724,2.23467 8.49179,2.44767 9.78093,1.22862c1.39619,-1.31799 0.75072,-3.44992 -1.1546,-3.81483c-0.77082,-0.14765 -3.90969,-1.09166 -6.97545,-2.09816c-3.06484,-1.00542 -6.44353,-1.89702 -7.50727,-1.98035c-1.86329,-0.14596 -2.04942,-0.31802 -5.03985,-4.66785l-3.10577,-4.51634l0.37662,-2.97668l0.37562,-2.97676l2.22533,0.28767c1.2234,0.15803 4.48655,1.01349 7.24976,1.89999c2.7642,0.88658 6.55252,2.055 8.41902,2.59542c4.61456,1.33847 7.19914,2.77671 8.30734,4.6229c0.89969,1.49884 2.37566,2.08189 3.50845,1.38623c1.21922,-0.74907 6.07022,-7.47376 6.15292,-8.52953c0.13956,-1.78154 -0.85292,-3.61966 -3.22881,-5.98042c-4.93689,-4.90654 -9.42772,-7.24842 -19.33853,-10.08408c-5.56172,-1.59121 -8.03068,-2.6613 -8.57482,-3.71802c-0.56158,-1.09019 0.75255,-3.88308 2.97481,-6.32198c4.11552,-4.51939 5.29581,-7.30674 4.22459,-9.98357c-0.23647,-0.59228 -1.33391,-2.02536 -2.43763,-3.1861l-2.0084,-2.10929l0.11927,-4.59573c0.16345,-6.28644 -1.17057,-9.69302 -5.18785,-13.25263c-2.53719,-2.24801 -3.06311,-2.51289 -5.33316,-2.69072c-1.8284,-0.14323 -2.88033,0.0452 -3.84446,0.68787z" data-paper-data="{&quot;wickUUID&quot;:&quot;c4c06992-2dd2-4578-a0df-83552468bf5e&quot;,&quot;wickType&quot;:&quot;path&quot;,&quot;originalStyle&quot;:{&quot;strokeColor&quot;:null,&quot;fillColor&quot;:[&quot;Color&quot;,0,0,0],&quot;strokeWidth&quot;:1}}" id="c4c06992-2dd2-4578-a0df-83552468bf5e" fill="#000000"/><path d="M491.14331,274.12602c-0.41289,0.35383 -0.76856,2.49961 -1.08696,6.56416c-0.38049,4.85712 -0.33796,6.19654 0.21427,6.84264c0.91334,1.06859 2.17623,1.11937 3.22368,0.13015c1.22087,-1.15418 2.09479,-11.88771 1.06468,-13.09184c-0.81502,-0.95356 -2.55464,-1.18011 -3.41567,-0.44511z" data-paper-data="{&quot;wickUUID&quot;:&quot;daf0eaee-b0ae-4b8c-8f83-f57e33f366e3&quot;,&quot;wickType&quot;:&quot;path&quot;,&quot;originalStyle&quot;:{&quot;strokeColor&quot;:null,&quot;fillColor&quot;:[&quot;Color&quot;,0,0,0],&quot;strokeWidth&quot;:1}}" id="daf0eaee-b0ae-4b8c-8f83-f57e33f366e3" fill="#000000"/><path d="M442.82356,278.27856c-1.39197,1.31531 -1.11309,2.07039 1.92322,5.2071c2.34865,2.42683 3.10737,2.94668 4.07006,2.78336c1.48113,-0.2511 2.18806,-2.11759 1.44518,-3.81278c-0.68508,-1.56227 -4.43052,-4.81471 -5.65577,-4.91069c-0.51143,-0.04006 -1.31368,0.29029 -1.78269,0.73301z" data-paper-data="{&quot;wickUUID&quot;:&quot;06f5a098-c688-4550-8e88-b367e6672bf3&quot;,&quot;wickType&quot;:&quot;path&quot;,&quot;originalStyle&quot;:{&quot;strokeColor&quot;:null,&quot;fillColor&quot;:[&quot;Color&quot;,0,0,0],&quot;strokeWidth&quot;:1}}" id="06f5a098-c688-4550-8e88-b367e6672bf3" fill="#000000"/><path d="M444.88886,254.01221c-0.40383,0.12284 -1.59413,0.92534 -2.64639,1.78378c-1.44662,1.18063 -1.94122,1.9373 -2.03314,3.11071c-0.13956,1.78154 1.52106,6.4866 2.74838,7.78542c1.00232,1.05951 3.06596,0.86308 3.55337,-0.33953c0.28592,-0.70482 0.83006,-0.74946 4.13112,-0.33941l3.8008,0.47127l1.78263,-1.61572c2.68972,-2.43939 2.47573,-4.77824 -0.77192,-8.43103c-1.55234,-1.74657 -1.71101,-1.80815 -5.71384,-2.22302c-2.2646,-0.23457 -4.44711,-0.3263 -4.85101,-0.20247zM452.0393,260.22762l1.02173,1.27268l-1.28606,-0.10074c-0.70683,-0.05537 -1.7845,-0.48585 -2.3945,-0.95793c-1.02516,-0.79349 -1.20792,-0.80379 -2.41007,-0.14466c-0.98524,0.54071 -1.42083,0.56978 -1.79893,0.12088c-0.80665,-0.95792 1.14259,-1.83237 3.64791,-1.63611c1.73169,0.13565 2.41578,0.44302 3.21992,1.44588z" data-paper-data="{&quot;wickUUID&quot;:&quot;f1a700cc-ddde-48f7-9cfa-425a2494147a&quot;,&quot;wickType&quot;:&quot;path&quot;,&quot;originalStyle&quot;:{&quot;strokeColor&quot;:null,&quot;fillColor&quot;:[&quot;Color&quot;,0,0,0],&quot;strokeWidth&quot;:1}}" id="f1a700cc-ddde-48f7-9cfa-425a2494147a" fill="#000000"/><path d="M465.8395,256.53398c-0.58898,0.34807 -1.6031,1.35996 -2.25451,2.2488c-0.97507,1.33292 -1.17222,2.06977 -1.11891,4.19342c0.11856,4.81196 2.44195,7.36922 4.90254,5.39636c0.71285,-0.57208 1.29676,-0.75303 1.45257,-0.44994c0.50834,0.98872 4.36396,1.52849 5.69506,0.79821c3.06363,-1.68087 3.86762,-6.04141 1.62028,-8.78831c-2.534,-3.09535 -7.8394,-4.84703 -10.29703,-3.39854zM470.88,261.93612c1.8151,1.31176 1.82586,2.05789 0.02837,1.91708c-0.7517,-0.05888 -1.65606,0.19225 -2.01176,0.55859c-0.96555,0.99363 -1.34152,0.7736 -1.54202,-0.90519c-0.18391,-1.53204 0.5139,-2.75729 1.5225,-2.67427c0.29402,0.02404 1.19596,0.52099 2.00291,1.10379z" data-paper-data="{&quot;wickUUID&quot;:&quot;2dcc2549-7db6-4905-9e87-af6fc6e06e8d&quot;,&quot;wickType&quot;:&quot;path&quot;,&quot;originalStyle&quot;:{&quot;strokeColor&quot;:null,&quot;fillColor&quot;:[&quot;Color&quot;,0,0,0],&quot;strokeWidth&quot;:1}}" id="2dcc2549-7db6-4905-9e87-af6fc6e06e8d" fill="#000000"/></g><g fill="none" fill-rule="nonzero" stroke="none" stroke-width="1" stroke-linecap="butt" stroke-linejoin="miter" stroke-miterlimit="10" stroke-dasharray="" stroke-dashoffset="0" font-family="sans-serif" font-weight="normal" font-size="12" text-anchor="start" style="mix-blend-mode: normal"/><g id="wick_project_gui" fill="none" fill-rule="nonzero" stroke="none" stroke-width="1" stroke-linecap="butt" stroke-linejoin="miter" stroke-miterlimit="10" stroke-dasharray="" stroke-dashoffset="0" font-family="sans-serif" font-weight="normal" font-size="12" text-anchor="start" style="mix-blend-mode: normal"/></g></svg>