<svg version="1.1" xmlns="http://www.w3.org/2000/svg" xmlns:xlink="http://www.w3.org/1999/xlink" width="1260" height="414" viewBox="0,0,1260,414"><g transform="translate(276.72,8.28) scale(0.552,0.552)"><g id="wick_project_bg" fill="#cccccc" fill-rule="nonzero" stroke="none" stroke-width="1" stroke-linecap="butt" stroke-linejoin="miter" stroke-miterlimit="10" stroke-dasharray="" stroke-dashoffset="0" font-family="none" font-weight="none" font-size="none" text-anchor="none" style="mix-blend-mode: normal"><rect x="0" y="0" width="1280" height="720"/></g><g data-paper-data="{&quot;wickUUID&quot;:&quot;763df6e7-195e-4acf-bf04-6570680efe78&quot;,&quot;wickType&quot;:&quot;clipsandpaths&quot;}" fill="none" fill-rule="evenodd" stroke="none" stroke-width="1" stroke-linecap="butt" stroke-linejoin="miter" stroke-miterlimit="10" stroke-dasharray="" stroke-dashoffset="0" font-family="none" font-weight="none" font-size="none" text-anchor="none" style="mix-blend-mode: normal"><path d="M1004.81135,24.25515c-25.129,0.93267 -47.15806,3.54048 -91.21173,10.80081c-16.99833,2.80133 -26.99903,4.29346 -31.38836,4.68179c-4.04267,0.35767 -4.6254,1.08351 -4.3694,2.88984c0.12233,0.86233 1.34346,7.83363 2.70113,15.25863c3.07233,16.80333 4.64151,26.28431 6.81484,41.18431c3.36233,23.052 5.46044,32.56864 8.00244,36.42164c1.01967,1.54533 3.31116,2.95048 8.18716,4.52115c11.35933,3.659 18.99397,4.63462 41.2843,5.27995c17.35667,0.50233 49.44804,0.21603 57.24037,-0.51164c8.88033,-0.82933 14.10319,-1.50694 18.43219,-2.40027c3.77233,-0.77833 34.73952,-5.96235 44.64052,-7.47268c8.26167,-1.26033 18.88833,-4.18488 21.70766,-5.97288c1.193,-0.75667 2.241,-2.00287 2.965,-3.61654c1.39233,-3.10267 1.72682,-5.23405 3.90515,-25.00605c2.239,-20.32 3.17383,-27.98447 5.8405,-47.87514c1.001,-7.467 1.69829,-14.58077 1.69829,-15.1331c0,-2.207 -4.89625,-4.54677 -15.46425,-7.04744c-3.81,-0.90167 -7.86384,-1.98218 -8.77917,-2.34318c-2.66867,-1.05167 -7.11716,-1.47666 -27.93549,-2.66933c-24.472,-1.402 -29.95182,-1.52154 -44.27115,-0.98987zM1004.9558,46.40843c2.87267,0.54267 4.87591,1.16548 7.45091,2.28181c1.13267,0.491 1.39199,0.48962 3.05999,-0.28305c2.49633,-1.15667 2.70417,-1.19981 4.6505,0.62086c1.19533,1.118 1.71649,1.67504 2.75716,3.81904c3.275,6.745 2.32175,9.78493 -3.90458,11.7516c-3.774,1.19233 -6.25371,1.41354 -9.94904,1.23521c-4.825,-0.233 -5.63328,-0.51539 -5.63328,-3.67672c0,-2.69333 1.31615,-3.48408 5.34082,-4.51408l1.91656,-1.46362l-2.86304,-1.21857c-4.11667,-1.37433 -7.95595,-1.84488 -14.92195,-1.85088c-7.46333,-0.007 -11.0044,0.49552 -16.54773,2.34552c-4.573,1.526 -7.97253,3.20761 -10.11686,5.03794c-1.931,1.648 -2.15412,1.96651 -3.79012,1.65984c-1.93133,-0.36233 -2.68518,-1.53618 -2.68518,-4.01751c0,-1.91367 0.55338,-3.3014 1.95338,-4.4794c3.25333,-2.73767 14.45912,-6.71322 21.83912,-7.74522c3.47767,-0.486 18.04701,-0.1441 21.44334,0.49723zM1059.24253,56.56563c2.70733,1.30933 3.5096,1.83975 5.35827,3.74808c2.46567,2.54533 4.09477,5.44851 4.95944,8.84951c0.62833,2.47233 0.64784,3.19709 0.02117,5.85409c-0.95867,4.06667 -2.92258,7.02457 -6.55025,9.93157l-2.21286,1.94696l0.77797,3.42475c1.54,5.92933 2.20349,10.34565 2.23249,15.06765c0.032,5.18833 0.07945,5.48238 -2.51022,7.86938c-2.74133,2.52667 -8.24729,3.80358 -15.13596,3.59191c-3.75033,-0.11533 -3.64042,-0.13354 -5.72175,-1.28054c-1.19167,-0.65667 -2.45997,-1.2808 -3.10164,-1.5258c-2.06267,-0.78733 -2.59635,-0.86785 -2.84368,-2.18685c-0.51133,-2.72533 1.78276,-13.89507 4.31409,-21.04807c0.83633,-2.36333 1.62061,-4.53827 1.71561,-4.63327c0.095,-0.095 -0.63436,-1.32478 -1.53269,-2.27445c-1.87,-1.97733 -2.94154,-4.75361 -3.64654,-9.57461c-0.477,-3.262 -0.28893,-11.6706 0.30307,-13.18227c0.46533,-1.18733 2.89405,-3.69168 4.53472,-4.71335c1.957,-1.218 4.1137,-1.48678 10.41337,-1.40978l5.61425,0.06022zM938.24253,59.56563c2.70733,1.30933 3.5096,1.83975 5.35827,3.74808c2.46567,2.54533 4.09477,5.44851 4.95944,8.84951c0.62833,2.47233 0.64784,3.19709 0.02117,5.85409c-0.95867,4.06667 -2.92258,7.02457 -6.55025,9.93157l-2.21286,1.94696l0.77797,3.42475c1.54,5.92933 2.20349,10.34565 2.23249,15.06765c0.032,5.18833 0.07945,5.48238 -2.51022,7.86938c-2.74133,2.52667 -8.24729,3.80358 -15.13596,3.59191c-3.75033,-0.11533 -3.64042,-0.13354 -5.72175,-1.28054c-1.19167,-0.65667 -2.45997,-1.2808 -3.10164,-1.5258c-2.06267,-0.78733 -2.59635,-0.86785 -2.84368,-2.18685c-0.51133,-2.72533 1.78276,-13.89507 4.31409,-21.04807c0.83633,-2.36333 1.62061,-4.53827 1.71561,-4.63327c0.095,-0.095 -0.63436,-1.32478 -1.53269,-2.27445c-1.87,-1.97733 -2.94154,-4.75361 -3.64654,-9.57461c-0.477,-3.262 -0.28893,-11.6706 0.30307,-13.18227c0.46533,-1.18733 2.89405,-3.69168 4.53472,-4.71335c1.957,-1.218 4.1137,-1.48678 10.41337,-1.40978l5.61425,0.06022zM972.71774,108.01129c1.66733,0.70567 1.76187,1.08236 1.91987,3.03736c0.119,1.476 0.01438,1.47877 -0.73262,2.57244c-0.48567,0.71133 -0.46518,2.44342 -0.37551,2.67675c0.24633,0.64233 3.83778,1.86597 7.21745,2.4523c5.17267,0.89733 12.55493,1.13873 23.0396,0.74873l9.95393,-0.38344l3.18495,-2.61369c4.12667,-3.545 4.96056,-4.24859 6.85056,-4.24859c3.17033,0 4.56619,2.09408 3.15519,4.82241c-0.814,1.574 -6.53147,6.74253 -8.46514,7.68853c-2.73067,1.336 -5.36814,1.74505 -13.56281,2.16405c-17.36067,0.887 -28.19321,-0.31462 -36.51254,-4.04729c-2.568,-1.152 -3.32628,-0.81292 -3.64828,1.94808c-0.484,4.14633 -0.76862,5.89011 -2.83495,6.27778c-3.58833,0.67333 -6.17065,-2.57348 -7.25732,-8.81481c-0.589,-3.38233 -0.28463,-9.00741 0.58137,-10.94141c0.93933,-2.097 1.45589,-2.12399 4.86889,-2.12399c1.47767,0 3.83537,-0.25785 5.4377,-0.61152c4.983,-1.099 5.73599,-1.21469 7.17966,-0.60369z" data-paper-data="{&quot;wickUUID&quot;:&quot;feb2da1a-bddf-42bf-82cf-b30cfaa34f52&quot;,&quot;wickType&quot;:&quot;path&quot;}" fill="#000000"/><path d="M923.98543,65.79761c-2.07967,0.626 -2.45819,1.59181 -2.45619,6.46614c0.002,5.421 0.47175,6.71991 3.93642,10.38058l2.38325,2.504l-0.23272,1.85778c-0.12867,1.73667 -0.6358,3.6223 -1.88447,7.01363c-1.89267,5.14133 -3.87874,12.31118 -4.21307,15.21185l-0.17739,2.40671l1.92843,0.7377c2.65367,0.53067 7.46968,0.03812 10.16235,-1.03921l2.00142,-1.0914l-0.17325,-3.11385c-0.28933,-3.76533 -1.35091,-9.42909 -2.54091,-13.55442c-0.55433,-1.92167 -1.02764,-3.67965 -1.02897,-4.39698c-0.003,-1.919 1.23197,-3.68631 4.2213,-6.17931c5.75933,-4.80367 6.50466,-6.92153 4.28466,-11.32753c-1.041,-2.066 -3.04576,-4.28491 -5.16209,-5.25391c-1.40533,-0.64333 -2.79861,-0.92895 -5.68094,-1.03895c-1.99233,-0.07633 -4.71983,0.22217 -5.36783,0.41717z" data-paper-data="{&quot;wickUUID&quot;:&quot;1efa49b7-a235-4104-a6b5-220c273ec69a&quot;,&quot;wickType&quot;:&quot;path&quot;}" id="1efa49b7-a235-4104-a6b5-220c273ec69a" fill="#ffffff"/><path d="M920.15962,58.11097c-1.209,0.54 -3.187,2.032 -4.396,3.316c-2.029,2.156 -2.218,2.817 -2.461,8.623c-0.312,7.465 1.333,14.624 3.916,17.052l1.696,1.593l-2.031,5.619c-1.117,3.09 -2.633,8.858 -3.368,12.817c-1.486,7.991 -1.223,9.165 2.319,10.385c1.17,0.403 2.943,1.309 3.939,2.014c2.221,1.573 7.931,1.655 14.665,0.212c5.516,-1.182 8.398,-3.741 9.235,-8.199c0.517,-2.756 -0.614,-11.558 -2.315,-18.014l-0.915,-3.472l2.97,-2.353c4.143,-3.281 6.743,-9.095 6.183,-13.825c-0.762,-6.43 -5.061,-12.264 -11.116,-15.083c-2.955,-1.376 -4.88,-1.704 -9.896,-1.687c-3.573,0.012 -7.164,0.44 -8.425,1.002zM934.72662,66.88097c4.326,1.807 7.27,7.908 5.381,11.15c-0.495,0.848 -2.713,3.009 -4.929,4.801c-4.546,3.676 -5.015,5.065 -3.353,9.943c1.75,5.136 3.552,16.409 2.751,17.211c-1.941,1.94 -12.585,2.772 -12.585,0.984c0,-2.689 2.353,-11.757 4.365,-16.823c2.942,-7.405 2.896,-9.309 -0.286,-11.932c-3.139,-2.587 -4.079,-5.009 -4.079,-10.501c0,-3.333 0.29,-4.481 1.282,-5.058c1.866,-1.087 8.631,-0.954 11.453,0.225z" data-paper-data="{&quot;wickUUID&quot;:&quot;52a3ba78-a1f2-424c-b768-9438d3c73f56&quot;,&quot;wickType&quot;:&quot;path&quot;}" id="52a3ba78-a1f2-424c-b768-9438d3c73f56" fill="#ffffff"/><path d="M982.06708,45.40512c-7.39,1.115 -19.402,5.752 -21.402,8.262c-1.949,2.446 -2.341,5.404 -0.991,7.465c1.565,2.388 4.922,2.435 6.764,0.095c1.892,-2.404 9.572,-5.569 16.612,-6.846c7.263,-1.317 19.585,-0.792 24.137,1.03l3.038,1.215l-2.54,0.652c-3.385,0.869 -5.104,2.527 -5.104,4.923c0,3.278 2.002,4.396 7.869,4.396c6.006,0 12.979,-2.281 14.254,-4.663c1.188,-2.221 0.89,-5.056 -0.908,-8.637c-3.034,-6.043 -5.463,-7.616 -8.421,-5.453c-1.227,0.898 -1.76,0.849 -4.183,-0.388c-4.911,-2.505 -19.369,-3.524 -29.125,-2.051z" data-paper-data="{&quot;wickUUID&quot;:&quot;e14adf5e-1de5-4b04-99c9-e4b91d866fac&quot;,&quot;wickType&quot;:&quot;path&quot;}" id="e14adf5e-1de5-4b04-99c9-e4b91d866fac" fill="#ffffff"/><path d="M965.21665,108.01639c-1.813,0.514 -4.455,0.771 -5.871,0.571c-3.652,-0.513 -5.305,1.516 -5.702,6.995c-0.656,9.072 2.511,16.22 7.188,16.22c2.678,0 3.919,-1.673 4.374,-5.899l0.378,-3.502l4.395,1.825c7.494,3.109 16.441,4.101 31.863,3.531c15.452,-0.572 16.406,-0.86 22.606,-6.836c4.097,-3.949 4.634,-5.845 2.311,-8.168c-2.314,-2.314 -4.522,-1.796 -8.982,2.106l-4.081,3.572l-11.968,0.509c-12.188,0.519 -23.244,-0.521 -27.021,-2.542c-1.427,-0.764 -1.458,-0.935 -0.393,-2.112c1.485,-1.641 1.49,-4.762 0.009,-6.243c-1.337,-1.336 -4.445,-1.346 -9.106,-0.027z" data-paper-data="{&quot;wickUUID&quot;:&quot;70d6dbd8-1784-46cf-8cde-33014d8136bf&quot;,&quot;wickType&quot;:&quot;path&quot;}" id="70d6dbd8-1784-46cf-8cde-33014d8136bf" fill="#ffffff"/><path d="M1044.98543,62.79761c-2.07967,0.626 -2.45819,1.59181 -2.45619,6.46614c0.002,5.421 0.47175,6.71991 3.93642,10.38058l2.38325,2.504l-0.23272,1.85778c-0.12867,1.73667 -0.6358,3.6223 -1.88447,7.01363c-1.89267,5.14133 -3.87874,12.31118 -4.21307,15.21185l-0.17739,2.40671l1.92843,0.7377c2.65367,0.53067 7.46968,0.03812 10.16235,-1.03921l2.00142,-1.0914l-0.17325,-3.11385c-0.28933,-3.76533 -1.35091,-9.42909 -2.54091,-13.55442c-0.55433,-1.92167 -1.02764,-3.67965 -1.02897,-4.39698c-0.003,-1.919 1.23197,-3.68631 4.2213,-6.17931c5.75933,-4.80367 6.50466,-6.92153 4.28466,-11.32753c-1.041,-2.066 -3.04576,-4.28491 -5.16209,-5.25391c-1.40533,-0.64333 -2.79861,-0.92895 -5.68094,-1.03895c-1.99233,-0.07633 -4.71983,0.22217 -5.36783,0.41717z" data-paper-data="{&quot;wickUUID&quot;:&quot;fe0153fd-b569-41ff-adda-8074daf2b7cb&quot;,&quot;wickType&quot;:&quot;path&quot;}" id="fe0153fd-b569-41ff-adda-8074daf2b7cb" fill="#ffffff"/><path d="M1041.15962,55.11097c-1.209,0.54 -3.187,2.032 -4.396,3.316c-2.029,2.156 -2.218,2.817 -2.461,8.623c-0.312,7.465 1.333,14.624 3.916,17.052l1.696,1.593l-2.031,5.619c-1.117,3.09 -2.633,8.858 -3.368,12.817c-1.486,7.991 -1.223,9.165 2.319,10.385c1.17,0.403 2.943,1.309 3.939,2.014c2.221,1.573 7.931,1.655 14.665,0.212c5.516,-1.182 8.398,-3.741 9.235,-8.199c0.517,-2.756 -0.614,-11.558 -2.315,-18.014l-0.915,-3.472l2.97,-2.353c4.143,-3.281 6.743,-9.095 6.183,-13.825c-0.762,-6.43 -5.061,-12.264 -11.116,-15.083c-2.955,-1.376 -4.88,-1.704 -9.896,-1.687c-3.573,0.012 -7.164,0.44 -8.425,1.002zM1055.72662,63.88097c4.326,1.807 7.27,7.908 5.381,11.15c-0.495,0.848 -2.713,3.009 -4.929,4.801c-4.546,3.676 -5.015,5.065 -3.353,9.943c1.75,5.136 3.552,16.409 2.751,17.211c-1.941,1.94 -12.585,2.772 -12.585,0.984c0,-2.689 2.353,-11.757 4.365,-16.823c2.942,-7.405 2.896,-9.309 -0.286,-11.932c-3.139,-2.587 -4.079,-5.009 -4.079,-10.501c0,-3.333 0.29,-4.481 1.282,-5.058c1.866,-1.087 8.631,-0.954 11.453,0.225z" data-paper-data="{&quot;wickUUID&quot;:&quot;86c23a41-1b3b-41c7-a063-c3a4ebc94250&quot;,&quot;wickType&quot;:&quot;path&quot;}" id="86c23a41-1b3b-41c7-a063-c3a4ebc94250" fill="#ffffff"/><path d="M995.98794,16.29327c-17.356,0.674 -51.916,5.06 -82.788,10.506c-20.939,3.694 -33.949,5.319 -37.924,4.738c-1.718,-0.251 -3.797,-0.242 -4.621,0.019c-1.971,0.626 -3.039,3.498 -2.16,5.81c0.376,0.988 1.345,5.85 2.153,10.806c0.809,4.956 2.128,12.193 2.931,16.083c1.763,8.532 2.975,15.983 6.32,38.853c3.752,25.643 5.32,32.203 9.026,37.751c2.596,3.888 3.494,4.669 6.148,5.352c1.709,0.44 5.086,1.43 7.503,2.201c12.688,4.047 23.011,4.958 59.344,5.24c32.771,0.254 47.28,-0.485 59.344,-3.023c3.626,-0.763 8.901,-1.744 11.722,-2.181c2.821,-0.437 9.25,-1.489 14.286,-2.337c5.037,-0.849 12.95,-2.119 17.584,-2.824c12.749,-1.939 22.841,-4.902 27.288,-8.011c6.343,-4.435 6.804,-5.939 9.34,-30.472c1.208,-11.686 2.992,-27.016 3.964,-34.068c5.175,-37.543 5.182,-37.614 3.816,-39.699c-0.69,-1.052 -2.309,-2.322 -3.599,-2.822c-1.29,-0.499 -4.294,-1.851 -6.675,-3.004c-2.382,-1.153 -5.081,-2.097 -5.999,-2.097c-2.507,0 -10.688,-2.013 -13.149,-3.235c-2.081,-1.034 -7.197,-1.496 -37.332,-3.369c-10.093,-0.628 -33.18,-0.736 -46.522,-0.217zM1038.84694,25.30427c27.649,1.546 36.561,2.272 37.502,3.053c0.543,0.451 4.526,1.553 8.851,2.449c9.453,1.958 15.519,4.509 15.54,6.534c0.008,0.773 -0.478,5.059 -1.08,9.525c-0.602,4.465 -1.914,14.218 -2.915,21.673c-1.001,7.455 -2.821,23.099 -4.044,34.765c-2.723,25.953 -1.962,24.581 -15.757,28.436c-3.626,1.014 -8.407,2.055 -10.623,2.313c-2.216,0.259 -8.645,1.272 -14.286,2.25c-5.642,0.979 -14.873,2.493 -20.514,3.366c-5.642,0.872 -11.047,1.884 -12.013,2.249c-0.965,0.364 -7.394,1.212 -14.286,1.885c-9.883,0.963 -18.878,1.181 -42.569,1.031c-36.732,-0.234 -45.98,-1.116 -59.912,-5.716c-5.128,-1.692 -5.873,-2.183 -7.458,-4.909c-2.002,-3.443 -4.594,-15.856 -6.982,-33.434c-1.834,-13.501 -3.702,-24.875 -6.621,-40.295c-1.182,-6.246 -2.43,-13.215 -2.774,-15.487l-0.626,-4.132l8.119,-0.883c4.465,-0.486 15.371,-2.15 24.236,-3.697c58.031,-10.127 91.759,-13.014 128.212,-10.976z" data-paper-data="{&quot;wickUUID&quot;:&quot;6aa92e11-0455-4d68-9cf4-fe58827eba07&quot;,&quot;wickType&quot;:&quot;path&quot;}" id="6aa92e11-0455-4d68-9cf4-fe58827eba07" fill="#ffffff"/></g><g data-paper-data="{&quot;wickUUID&quot;:&quot;e60ae9d8-3589-4ddb-a128-257431e23266&quot;,&quot;wickType&quot;:&quot;clipsandpaths&quot;}" fill="#ffffff" fill-rule="evenodd" stroke="none" stroke-width="1" stroke-linecap="butt" stroke-linejoin="miter" stroke-miterlimit="10" stroke-dasharray="" stroke-dashoffset="0" font-family="none" font-weight="none" font-size="none" text-anchor="none" style="mix-blend-mode: normal"><path d="M106.44519,32.48974c-6.476,1.589 -19.18967,5.2389 -23.20234,6.6329c-20.13967,6.99733 -31.02948,16.30948 -33.52481,28.67448c-0.73,3.617 -1.11387,8.87834 -0.6762,10.01467c0.99767,2.59 6.54889,7.63624 10.51922,9.51224c1.24133,0.58633 4.99538,1.88065 8.19605,2.79698c12.04367,3.44733 22.84767,8.531 28.015,13.226c3.38333,3.07433 5.12238,8.12972 4.72071,13.27105c-0.23033,2.94567 -1.37835,6.36812 -2.92335,8.91179c-1.42367,2.34367 -4.90823,5.69381 -7.11923,6.81414c-4.40767,2.23333 -10.75498,3.76054 -15.87898,3.76054c-8.98633,0 -15.38013,-2.41971 -24.98546,-9.39038l-2.04965,-1.18915l-1.92523,2.07083c-2.99633,3.71467 -10.82754,15.53651 -16.13287,24.35351l-2.49341,4.19998l1.48489,1.63246c2.68833,1.635 12.94372,7.05983 14.25972,7.56683c3.055,1.17633 26.5392,0.92119 37.47387,-0.41214c5.151,-0.628 9.04262,-1.42574 16.12462,-3.33007c3.025,-0.81333 7.40121,-1.90218 9.55254,-2.36551c9.783,-2.10633 18.25522,-6.30457 20.77989,-10.2389c1.74333,-2.71667 2.47678,-5.95231 2.44411,-12.03931c-0.071,-13.214 -3.31215,-23.55868 -10.22548,-32.86735c-4.991,-6.72033 -8.78705,-9.27036 -22.24272,-14.56603c-5.52967,-2.176 -6.52393,-2.74861 -9.74993,-6.07261c-3.99867,-4.12 -3.97838,-4.04806 -3.83438,-10.26506c0.14033,-6.05667 0.00265,-5.69515 3.68398,-9.36415c3.009,-2.999 4.32495,-3.66837 9.59628,-5.03237c9.184,-2.37567 18.65613,-3.27899 22.82513,-2.18566c1.166,0.30567 2.96696,-0.34804 3.03629,-0.41737c0.186,-0.186 -1.0418,-9.57485 -2.2438,-17.11252l-1.2368,-7.00766l-5.08097,-0.28275c-3.15,0.01767 -5.26602,0.22926 -7.18669,0.70059z" data-paper-data="{&quot;wickUUID&quot;:&quot;a7d6d385-c763-4dce-8f15-b5d67e3c8b0d&quot;,&quot;wickType&quot;:&quot;path&quot;}"/><path d="M202.65445,125.47549c-0.415,0.16667 -1.49048,1.33705 -1.64848,1.75438c-0.158,0.41733 -0.36317,4.50512 -0.4465,8.99679c-0.12567,6.73833 -0.17566,8.0968 -0.64766,9.19313c-1.08033,2.51033 -2.28101,3.34935 -4.74601,3.34935c-1.109,0 -0.82081,-0.04703 -3.23681,-2.52503c-1.48067,-1.51867 -4.89723,-5.32778 -7.5879,-8.46011c-6.108,-7.11167 -6.66251,-7.44306 -8.84984,-7.17039c-3.65167,0.455 -13.53671,2.6013 -13.74771,2.92763c-0.47367,0.73133 -2.16269,10.15176 -3.27236,18.79776c-0.637,4.96333 -1.47083,10.81873 -1.8515,13.0054c-0.381,2.18633 -0.77922,4.70622 -0.88289,5.30222c-0.20233,1.16033 0.81843,1.93452 2.67776,1.81919c0.86767,-0.054 10.70702,-2.23865 13.54135,-3.00398c0.98433,-0.266 1.53681,-1.03141 1.63581,-3.46974c0.05533,-1.36233 -0.1355,-3.97799 -0.42717,-5.69099c-0.49933,-2.93567 -0.76022,-2.53611 -0.19889,-3.68078c1.23133,-2.50933 3.14206,-3.26806 5.73139,-1.94706c1.48433,0.757 6.47055,5.93092 10.66055,10.99059l3.33295,3.84093l6.82121,-0.17161c3.575,-0.12167 7.84207,-0.31575 9.4714,-0.43075l3.56682,-0.50834l-0.01227,-3.63081c-0.98333,-14.04233 -1.54101,-23.92173 -1.73734,-30.77606l-0.29256,-8.35978l-3.86898,-0.50846c-1.671,0.01167 -3.56904,0.18952 -3.98437,0.35652z" data-paper-data="{&quot;wickUUID&quot;:&quot;862e794b-2387-4b13-8ad6-15662cc69148&quot;,&quot;wickType&quot;:&quot;path&quot;}"/><path d="M368.47906,102.32777c-0.82133,0.47733 -3.1812,2.55161 -3.1812,4.12861c0,0.70467 0.39352,2.51467 0.85285,3.68634c0.46367,1.18333 1.50194,5.7489 2.34027,10.29323c1.86767,10.12233 4.70062,24.43222 5.16562,26.09189c0.191,0.68067 1.199,1.99239 1.37733,2.10272c0.17833,0.11 2.45344,-0.1871 4.75944,-0.66243c2.306,-0.475 6.1249,-0.98932 8.49923,-1.14399c2.374,-0.15467 5.08202,-0.86696 5.20635,-0.99163c0.286,-0.28567 -0.71913,-5.9042 -1.31913,-7.16087c-0.40833,-0.85467 -1.32702,-1.41542 -3.14269,-1.51209c-1.09833,-0.05833 -3.75158,0.14266 -5.74191,0.44699c-2.03267,0.311 -3.88474,0.47745 -4.56674,0.35078c-1.63167,-0.30233 -2.69618,-0.82501 -3.26985,-1.93468c-0.699,-1.352 -1.33914,-5.38797 -2.48081,-15.41464c-2.06667,-18.14767 -2.40809,-19.49556 -4.49876,-18.28023z" data-paper-data="{&quot;wickUUID&quot;:&quot;72081163-f624-48bf-aaef-ecf8c28677da&quot;,&quot;wickType&quot;:&quot;path&quot;}"/><path d="M108.17992,23.59927c-7.498,1.205 -33.517,9.05 -38.742,11.681c-7.1,3.576 -16.062,10.165 -20.134,14.802c-6.383,7.27 -10.294,20.313 -8.676,28.936c1.411,7.522 12.298,15.757 24.742,18.717c9.341,2.221 22.653,8.509 25.177,11.892c2.34,3.136 2.421,8.565 0.174,11.65c-0.989,1.358 -3.621,3.417 -5.849,4.575c-3.442,1.79 -5.146,2.063 -11.346,1.815c-9.798,-0.392 -16.006,-3.51 -22.15,-11.127c-4.02,-4.983 -10.982,2.202 -26.866,27.725c-3.277,5.266 -6.478,11.318 -7.113,13.448c-1.036,3.478 -0.979,4.067 0.564,5.773c1.259,1.39 2.402,1.762 4.271,1.388c1.943,-0.388 3.579,0.219 6.86,2.549c9.499,6.743 11.661,7.269 29.387,7.144c16.947,-0.119 26.576,-1.184 36.934,-4.084c3.511,-0.984 9.191,-2.359 12.624,-3.056c3.432,-0.697 9.655,-2.867 13.828,-4.823c6.203,-2.907 8.177,-4.365 10.809,-7.984c5.835,-8.02 6.38,-18.801 1.86,-36.742c-2.167,-8.597 -3.846,-11.895 -10.545,-20.705c-4.688,-6.165 -8.492,-8.682 -20.95,-13.863c-8.311,-3.457 -10.604,-4.814 -11.584,-6.854c-2.82,-5.872 0.729,-8.829 13.37,-11.142c6.971,-1.275 9.302,-1.354 13.818,-0.465c4.553,0.895 5.863,0.846 8.09,-0.305c1.461,-0.756 2.911,-2.039 3.223,-2.85c1.043,-2.719 0.558,-9.916 -1.258,-18.654c-0.989,-4.765 -1.805,-9.975 -1.811,-11.577c-0.008,-1.734 -0.885,-3.927 -2.169,-5.42c-1.89,-2.197 -2.879,-2.531 -7.98,-2.696c-3.202,-0.103 -7.053,0.01 -8.558,0.252zM119.34792,39.39227c0.625,3.762 1.399,9.186 1.72,12.055l0.583,5.216l-3.088,-0.904c-3.443,-1.008 -9.931,-0.471 -19.503,1.615c-7.962,1.735 -10.378,2.957 -13.999,7.081c-2.589,2.949 -2.871,3.852 -2.871,9.187c0,5.641 0.17,6.101 3.67,9.898c2.019,2.19 4.994,4.478 6.612,5.083c17.972,6.725 21.207,8.856 27.562,18.157c5.073,7.426 7.611,15.483 8.358,26.542c0.667,9.872 -0.568,14.667 -4.608,17.891c-3.678,2.935 -11.768,6.322 -17.128,7.172c-2.171,0.344 -6.615,1.435 -9.875,2.423c-10.322,3.13 -20.231,4.385 -36.567,4.633c-14.457,0.219 -16.195,0.075 -19.518,-1.621c-2.967,-1.515 -11.93,-6.534 -13.046,-7.306c-0.417,-0.288 14.13,-23.027 17.255,-26.972l2.698,-3.408l5.76,4.027c9.673,6.761 20.564,8.456 31.881,4.961c7.22,-2.23 10.89,-5.145 13.861,-11.008c3.809,-7.517 2.534,-16.397 -3.105,-21.61c-4.487,-4.15 -18.04,-10.511 -27.345,-12.834c-8.425,-2.104 -11.862,-3.915 -16.46,-8.673c-3.007,-3.111 -3.08,-3.365 -2.622,-9.076c1.3,-16.184 15.226,-27.517 43.104,-35.075c17.823,-4.832 16.705,-4.601 21.43,-4.436l4.104,0.142l1.137,6.84z" data-paper-data="{&quot;wickUUID&quot;:&quot;d321ce88-dd15-416a-ae26-b1e95c16289a&quot;,&quot;wickType&quot;:&quot;path&quot;}" id="d321ce88-dd15-416a-ae26-b1e95c16289a"/><path d="M141.43771,60.97178c-5.553,1.455 -9.092,3.225 -10.804,5.402c-1.232,1.566 -1.307,2.337 -1.175,12.068c0.077,5.717 -0.185,12.506 -0.583,15.086c-0.918,5.961 -0.145,10.226 2.123,11.712c1.348,0.883 1.97,0.916 4.58,0.247c2.366,-0.606 3.843,-0.612 6.812,-0.028c5.236,1.03 11.046,0.546 12.645,-1.052c3.094,-3.094 1.851,-8.644 -2.754,-12.29c-2.361,-1.871 -2.918,-2.028 -7.156,-2.028c-4.291,0 -4.573,-0.084 -4.259,-1.252c0.185,-0.689 0.34,-2.872 0.345,-4.852c0.008,-3.595 0.011,-3.599 1.922,-3.599c3.868,0 7.43,-1.348 9.354,-3.539c1.731,-1.971 1.878,-2.507 1.878,-6.852c0,-4.854 -0.478,-6.428 -2.691,-8.858c-1.587,-1.741 -4.072,-1.782 -10.237,-0.165z" data-paper-data="{&quot;wickUUID&quot;:&quot;c04becbb-b7ea-4a61-aded-1464b99872fe&quot;,&quot;wickType&quot;:&quot;path&quot;}" id="c04becbb-b7ea-4a61-aded-1464b99872fe"/><path d="M139.6264,82.54772c-0.845,0.846 -1.536,2.205 -1.536,3.021c0,1.93 2.453,4.207 4.533,4.207c1.828,0 4.23,-2.553 4.23,-4.495c0,-1.595 -2.744,-4.269 -4.381,-4.269c-0.72,0 -2.001,0.691 -2.846,1.536z" data-paper-data="{&quot;wickUUID&quot;:&quot;a421d3d4-efab-41a2-a5ec-d4cce183b72e&quot;,&quot;wickType&quot;:&quot;path&quot;}" id="a421d3d4-efab-41a2-a5ec-d4cce183b72e"/><path d="M158.41322,60.01281c-1.292,1.293 -1.529,2.113 -1.49,5.165c0.025,1.995 0.296,5.177 0.603,7.07c0.307,1.894 0.846,8.407 1.198,14.474c0.892,15.359 2.637,22.521 6.198,25.432c1.321,1.08 5.163,0.981 6.813,-0.174c0.811,-0.568 3.476,-1.11 6.556,-1.334c3.979,-0.289 5.516,-0.673 6.588,-1.647c3.078,-2.795 2.345,-9.531 -1.276,-11.739c-1.369,-0.835 -3.137,-1.221 -5.6,-1.222l-3.599,-0.003l-0.004,-2.66c-0.003,-1.463 -0.62,-5.055 -1.371,-7.981c-1.073,-4.175 -1.375,-7.209 -1.404,-14.085c-0.051,-11.734 -0.722,-12.832 -7.85,-12.832c-3.227,0 -4.066,0.24 -5.362,1.536z" data-paper-data="{&quot;wickUUID&quot;:&quot;26a494d5-3cb2-4742-946c-362b16795d8e&quot;,&quot;wickType&quot;:&quot;path&quot;}" id="26a494d5-3cb2-4742-946c-362b16795d8e"/><path d="M186.13047,59.71559c-2.132,0.436 -5.003,1.577 -6.39,2.538c-3.256,2.257 -4.133,4.826 -3.517,10.31c0.255,2.275 0.405,7.404 0.333,11.399l-0.131,7.264l1.78,1.418c1.71,1.362 2.096,1.401 9.917,1.013c8.914,-0.443 10.675,-1.099 11.77,-4.382c1.411,-4.234 -2.506,-7.25 -9.423,-7.254l-4.538,-0.002v-3.671v-3.671l2.904,-0.398c1.597,-0.219 4.203,-0.399 5.79,-0.4c5.254,-0.004 8.98,-3.479 9.087,-8.473c0.048,-2.23 -0.276,-3.098 -1.676,-4.499c-1.588,-1.588 -2.174,-1.747 -6.886,-1.86c-2.833,-0.069 -6.892,0.232 -9.02,0.668z" data-paper-data="{&quot;wickUUID&quot;:&quot;baabd7b3-773c-4dab-9f97-3bf9791c3fe8&quot;,&quot;wickType&quot;:&quot;path&quot;}" id="baabd7b3-773c-4dab-9f97-3bf9791c3fe8"/><path d="M183.08559,76.04384c-1.877,1.878 -1.942,3.412 -0.239,5.578c1.744,2.216 4.426,2.216 6.169,0c1.704,-2.166 1.638,-3.7 -0.239,-5.578c-1.95,-1.949 -3.741,-1.949 -5.691,0z" data-paper-data="{&quot;wickUUID&quot;:&quot;5dba5120-98eb-444a-b3bb-03540fff16bd&quot;,&quot;wickType&quot;:&quot;path&quot;}" id="5dba5120-98eb-444a-b3bb-03540fff16bd"/><path d="M250.53339,47.68071c-0.179,0.179 -2.482,0.738 -5.119,1.242c-11.455,2.192 -14.632,6.74 -14.038,20.095c0.265,5.945 0.465,6.769 2.738,11.247c1.875,3.694 3.25,5.463 5.843,7.515c1.865,1.476 4.096,2.861 4.958,3.077c0.862,0.216 2.261,0.939 3.11,1.607c3.081,2.423 6.15,0.969 8.248,-3.91c2.227,-5.175 0.943,-9.162 -3.917,-12.164c-1.455,-0.898 -4.124,-3.071 -5.931,-4.828c-3.248,-3.156 -4.026,-5.172 -2.764,-7.161c0.736,-1.159 4.284,-2.023 8.309,-2.023c4.271,0 6.45,-1.445 7.51,-4.981c1.574,-5.254 -1.416,-10.042 -6.27,-10.042c-1.293,0 -2.498,0.147 -2.677,0.326z" data-paper-data="{&quot;wickUUID&quot;:&quot;7e04b513-225a-4053-b535-2d9b6330a2ef&quot;,&quot;wickType&quot;:&quot;path&quot;}" id="7e04b513-225a-4053-b535-2d9b6330a2ef"/><path d="M217.4809,66.89762c-3.871,0.763 -8.959,3.702 -10.571,6.108c-2.165,3.229 -3.629,10.721 -3.632,18.579c-0.001,5.854 0.2,7.26 1.344,9.389c2.963,5.512 5.899,7.237 12.996,7.635c6.2,0.347 8.459,-0.672 11.493,-5.188c1.831,-2.725 2.018,-3.391 1.66,-5.89c-0.223,-1.549 -0.648,-3.271 -0.945,-3.826c-0.83,-1.55 -4.051,-2.636 -6.37,-2.148c-4.577,0.964 -6.326,0.743 -7.208,-0.911c-0.931,-1.747 -0.735,-6.802 0.371,-9.546c0.624,-1.548 1.002,-1.722 3.746,-1.722c6.151,0 8.267,-1.819 8.227,-7.071c-0.04,-5.314 -3.369,-6.934 -11.111,-5.409z" data-paper-data="{&quot;wickUUID&quot;:&quot;c7a29e0a-1d1a-4653-8c50-e6f4ca87d5d2&quot;,&quot;wickType&quot;:&quot;path&quot;}" id="c7a29e0a-1d1a-4653-8c50-e6f4ca87d5d2"/><path d="M261.73445,29.4068c-10.489,0.61 -13.458,2.104 -13.458,6.772c0,2.573 1.741,7.347 3.142,8.615c1.187,1.073 1.425,1.07 7.03,-0.106c1.585,-0.332 1.721,-0.207 1.721,1.576c0,1.066 0.274,3.844 0.607,6.175c1.647,11.495 2.028,14.747 2.431,20.75l0.437,6.498l-1.751,0.61c-2.33,0.812 -2.764,1.799 -3.295,7.497c-0.446,4.795 -0.436,4.842 1.452,6.73c2.04,2.039 3.398,2.304 6.182,1.205c0.969,-0.383 4.553,-0.899 7.965,-1.148c5.702,-0.416 6.321,-0.59 7.668,-2.156c3.853,-4.48 0.21,-11.415 -6.564,-12.499c-2.824,-0.451 -3.204,-1.23 -3.25,-6.662c-0.016,-1.894 -0.316,-5.415 -0.668,-7.825c-0.351,-2.41 -0.883,-6.494 -1.183,-9.076c-0.3,-2.582 -0.747,-6.174 -0.993,-7.981l-0.448,-3.287l2.121,-0.002c3.249,-0.004 6.041,-2.009 6.546,-4.7c0.472,-2.517 -1.029,-8.759 -2.448,-10.178c-1.147,-1.147 -4.204,-1.334 -13.244,-0.808z" data-paper-data="{&quot;wickUUID&quot;:&quot;20a94353-f74e-417e-bf62-3ccf20cb8793&quot;,&quot;wickType&quot;:&quot;path&quot;}" id="20a94353-f74e-417e-bf62-3ccf20cb8793"/><path d="M282.39197,52.60584c-4.609,1.611 -8.444,6.034 -8.448,9.742c-0.004,3.498 3.192,10.788 6.046,13.79l2.607,2.741l4.279,-0.428c5.644,-0.565 8.151,-1.847 11.01,-5.63c3.285,-4.348 3.991,-6.959 3.035,-11.23c-0.953,-4.257 -2.485,-6.23 -6.364,-8.196c-3.316,-1.68 -8.629,-2.025 -12.165,-0.789zM287.21797,63.58784c1.228,1.413 1.926,4.353 1.148,4.834c-1.282,0.792 -5.035,-3.116 -5.035,-5.244c0,-1.093 2.842,-0.793 3.887,0.41z" data-paper-data="{&quot;wickUUID&quot;:&quot;7828d426-489e-4a9c-aa97-dbb9ec3141b5&quot;,&quot;wickType&quot;:&quot;path&quot;}" id="7828d426-489e-4a9c-aa97-dbb9ec3141b5"/><path d="M331.93173,50.39465c-2.55491,0.95689 -3.87649,2.3511 -4.33089,4.57005c-0.40726,1.98873 -0.89388,1.87274 -3.41732,-0.81822c-1.83745,-1.95845 -2.51248,-2.26102 -6.80601,-3.04737c-5.40831,-0.99014 -8.80695,-0.41427 -11.38313,1.92751c-2.26265,2.05689 -2.8046,5.9595 -1.82773,13.17212c0.43833,3.24287 0.85314,6.90964 0.92119,8.14746c0.14848,2.68436 2.71929,6.12098 5.42563,7.2509c3.44898,1.44123 9.26225,-0.16416 12.02122,-3.31879c0.7409,-0.84657 1.05525,-0.8414 2.10909,0.03381c0.89578,0.74485 3.22953,1.31158 8.4327,2.04739c6.67937,0.94421 7.35431,0.92319 9.44523,-0.2951c2.07814,-1.2107 2.31141,-1.61206 3.02156,-5.19953c0.70476,-3.56611 0.57546,-4.53474 -1.56995,-11.73351c-1.28534,-4.3156 -2.98653,-8.78374 -3.77868,-9.92996c-1.92135,-2.77998 -5.28345,-3.92271 -8.26291,-2.80676z" data-paper-data="{&quot;wickUUID&quot;:&quot;0908a393-8f3f-4782-b88e-889579e9ae19&quot;,&quot;wickType&quot;:&quot;path&quot;}" id="0908a393-8f3f-4782-b88e-889579e9ae19"/><path d="M371.50854,43.23416c-0.61041,0.20099 -3.85951,0.47161 -7.22229,0.59935c-7.05583,0.26984 -8.63163,0.62466 -10.10789,2.27583c-1.36601,1.52747 -5.06988,19.06874 -4.81335,22.80054c0.09783,1.42891 -0.13032,4.92123 -0.50872,7.76183c-0.60727,4.5689 -0.53418,5.34732 0.63587,6.76382c1.11615,1.35284 1.88159,1.66144 4.92679,1.99149c4.18451,0.45363 8.53385,-0.52589 9.99204,-2.25046c0.5597,-0.66275 1.5039,-2.6811 2.09877,-4.48567c1.03992,-3.15645 1.16331,-3.2794 3.25952,-3.26033c2.96165,0.02692 3.43599,0.44415 4.89134,4.30815c1.61954,4.30193 3.74741,5.89223 6.88069,5.1439c3.18859,-0.76311 7.12385,-3.10308 8.44569,-5.0224c2.19056,-3.18177 0.6394,-9.85876 -6.36828,-27.40243c-1.28863,-3.22716 -2.00393,-4.18255 -3.92697,-5.24751c-0.78753,-0.43501 -1.97892,-1.44501 -2.648,-2.24329c-1.30782,-1.56146 -3.74433,-2.32395 -5.53521,-1.73282zM370.33923,59.53629c-0.09792,0.45866 -1.32937,1.03015 -2.73561,1.27086c-2.17658,0.37177 -2.61156,0.29221 -2.91685,-0.53373c-0.55165,-1.49205 -0.30089,-1.90991 1.32574,-2.20583c2.06937,-0.37727 4.54155,0.46238 4.32672,1.4687z" data-paper-data="{&quot;wickUUID&quot;:&quot;3f4ec3a6-418d-478f-9131-057b67a9c3e6&quot;,&quot;wickType&quot;:&quot;path&quot;}" id="3f4ec3a6-418d-478f-9131-057b67a9c3e6"/><path d="M392.84422,20.21141c-10.515,1.704 -15.227,3.96 -16.256,7.782c-0.652,2.423 -0.342,5.669 0.745,7.792c1.074,2.096 4.398,3.007 7.967,2.183c1.736,-0.401 3.282,-0.604 3.435,-0.451c0.152,0.152 0.459,4.637 0.681,9.966c0.222,5.328 0.943,12.646 1.602,16.261c0.659,3.615 1.199,8.492 1.199,10.839c0.001,2.347 0.291,4.808 0.646,5.471c0.926,1.73 3.53,2.901 7.574,3.406c2.854,0.357 4.074,0.197 6.419,-0.84c3.131,-1.385 4.141,-3.023 4.141,-6.71c0,-1.183 0.22,-2.151 0.489,-2.151c0.269,0 2.135,1.663 4.147,3.696c4.009,4.052 7.622,6.052 9.897,5.481c0.806,-0.202 3.113,-1.901 5.127,-3.775c3.532,-3.288 3.646,-3.492 3.218,-5.774c-0.602,-3.21 -2.822,-6.255 -10.324,-14.159l-6.365,-6.707l3.948,-1.796c4.345,-1.977 8.642,-6.153 8.642,-8.398c0,-3.622 -8.366,-16.975 -12.519,-19.982c-3.939,-2.851 -14.364,-3.763 -24.413,-2.134zM409.00522,37.13741c1.831,0.853 3.153,1.836 2.937,2.185c-0.588,0.952 -7.202,0.816 -7.213,-0.147c-0.005,-0.431 -0.178,-1.417 -0.386,-2.191c-0.493,-1.841 0.445,-1.81 4.662,0.153z" data-paper-data="{&quot;wickUUID&quot;:&quot;607160ce-fd93-414e-91b1-a6ee796e4de7&quot;,&quot;wickType&quot;:&quot;path&quot;}"/><path d="M198.65334,117.49238c-5.341,0.612 -5.765,1.283 -6.019,9.529c-0.117,3.794 -0.418,6.813 -0.668,6.708c-0.251,-0.104 -2.492,-2.51 -4.98,-5.347c-2.489,-2.837 -5.057,-5.442 -5.707,-5.79c-1.763,-0.943 -5.28,-0.757 -11.845,0.629c-3.237,0.683 -7.039,1.243 -8.45,1.244c-3.096,0.003 -6.343,1.839 -6.809,3.851c-0.596,2.566 -3.475,21.205 -4.53,29.323c-0.56,4.304 -1.746,10.271 -2.637,13.261c-1.531,5.136 -1.563,5.522 -0.588,7.011c2.155,3.29 9.859,3.764 20.648,1.273c3.85,-0.889 7.678,-1.751 8.508,-1.915c2.009,-0.398 5.69,-4.147 5.69,-5.796c0,-1.883 1.427,-1.62 2.676,0.493c0.587,0.995 2.063,2.682 3.28,3.75l2.212,1.943l13.427,-0.183c13.104,-0.178 13.464,-0.217 14.99,-1.651c2.498,-2.347 3.07,-5.089 2.607,-12.504c-0.227,-3.641 -0.671,-10.705 -0.986,-15.697c-0.315,-4.992 -0.59,-12.655 -0.61,-17.028c-0.04,-8.536 -0.444,-10.134 -3.054,-12.08c-1.376,-1.026 -2.749,-1.268 -7.625,-1.343c-3.271,-0.05 -7.559,0.093 -9.53,0.319zM210.09534,132.13138c0.032,6.027 0.562,16.076 1.579,29.946l0.44,6.003l-9.633,0.45l-9.634,0.449l-1.565,-2.008c-4.195,-5.379 -9.378,-11.042 -11.29,-12.335c-2.722,-1.839 -5.388,-1.62 -7.021,0.576c-1.102,1.484 -1.148,1.965 -0.475,5.008c0.409,1.851 0.649,4.473 0.532,5.825l-0.212,2.459l-7.199,1.753c-9.488,2.31 -9.656,2.306 -9.119,-0.255c1.041,-4.96 2.265,-13.192 2.863,-19.248c0.357,-3.615 1.143,-8.96 1.746,-11.877l1.097,-5.304l4.367,-0.76c2.402,-0.418 5.674,-1.017 7.272,-1.332c1.598,-0.314 3.302,-0.349 3.786,-0.078c0.485,0.271 4.107,4.321 8.049,9c3.989,4.734 7.793,8.668 8.577,8.871c2.332,0.602 4.506,-0.315 5.807,-2.449c1.076,-1.764 1.231,-3.177 1.233,-11.208c0.003,-10.419 -0.458,-9.638 5.793,-9.817l2.973,-0.085l0.034,6.416z" data-paper-data="{&quot;wickUUID&quot;:&quot;8bf1cd96-bfd9-4699-846a-d2ce72d1e78d&quot;,&quot;wickType&quot;:&quot;path&quot;}"/><path d="M272.65863,101.73545c-9.212,0.54 -29.757,3.646 -34.893,5.276c-1.116,0.354 -3.697,0.88 -5.736,1.168c-8.474,1.198 -10.118,3.572 -8.734,12.614c1.036,6.764 2.074,8.052 6.497,8.052c1.851,0 5.562,-0.68 8.248,-1.511c2.686,-0.831 5.757,-1.689 6.823,-1.907l1.94,-0.396l0.404,5.193c0.222,2.856 0.419,7.729 0.438,10.827c0.018,3.099 0.394,8.523 0.835,12.053c0.441,3.531 0.662,6.559 0.492,6.73c-0.171,0.17 -4.361,0.309 -9.313,0.309c-10.041,0 -11.971,0.536 -13.653,3.788c-1.466,2.835 -1.486,9.153 -0.039,12.075c2.045,4.128 3.349,4.404 17.006,3.601c6.514,-0.383 13.535,-0.952 15.6,-1.264c2.066,-0.312 7.418,-0.597 11.894,-0.634c6.548,-0.053 8.647,-0.298 10.749,-1.252c6.751,-3.065 6.785,-11.233 0.073,-17.298l-2.563,-2.316l-5.069,0.401c-2.787,0.22 -6.125,0.577 -7.416,0.793l-2.347,0.392v-8.875c0,-4.882 -0.442,-12.692 -0.983,-17.357c-0.541,-4.664 -0.87,-8.594 -0.731,-8.732c0.934,-0.935 7.02,-1.333 11.53,-0.755c6.133,0.786 9.276,0.318 10.485,-1.563c0.607,-0.945 0.951,-3.81 1.091,-9.101l0.204,-7.722l-1.756,-1.511c-1.827,-1.572 -2.134,-1.601 -11.076,-1.078z" data-paper-data="{&quot;wickUUID&quot;:&quot;868eb48c-381b-456e-a9c8-0dc527e75618&quot;,&quot;wickType&quot;:&quot;path&quot;}"/><path d="M308.48051,127.314c-2.72,1.905 -7.027,6.903 -8.735,10.137c-0.955,1.806 -1.953,3.285 -2.219,3.286c-0.265,0.001 -1.58,-1.759 -2.92,-3.911c-3.545,-5.69 -6.09,-8.441 -8.564,-9.257c-3.187,-1.052 -4.863,-0.353 -7.383,3.08c-3.851,5.246 -3.021,9.001 4.03,18.227c4.297,5.621 11.974,13.146 13.413,13.146c0.567,0 1.805,-0.401 2.751,-0.89c2.595,-1.342 15.101,-15.254 17.82,-19.823c2.136,-3.591 2.361,-4.367 2.133,-7.373c-0.227,-2.992 -0.522,-3.589 -2.701,-5.454c-2.727,-2.334 -5.38,-2.741 -7.625,-1.168z" data-paper-data="{&quot;wickUUID&quot;:&quot;589753bb-8e06-421d-851c-1a04a857cc9f&quot;,&quot;wickType&quot;:&quot;path&quot;}"/><path d="M337.51618,104.75633c-0.994,0.519 -3.285,1.373 -5.092,1.898c-3.789,1.101 -8.712,4.173 -10.111,6.308c-1.021,1.559 -0.939,4.019 0.3,8.997c2.948,11.841 4.118,18.549 4.915,28.169c0.214,2.582 0.901,5.716 1.527,6.965c1.783,3.554 3.901,3.919 8.681,1.497c1.988,-1.007 4.944,-1.767 8.415,-2.161c6.208,-0.705 7.506,-1.271 9.166,-3.994c2.259,-3.705 0.996,-8.932 -2.61,-10.797c-1.69,-0.874 -3.031,-0.987 -7.612,-0.641c-5.013,0.379 -5.54,0.316 -5.353,-0.637c0.127,-0.646 1.343,-1.388 3.129,-1.908c1.83,-0.533 3.546,-1.595 4.599,-2.845c1.436,-1.707 1.619,-2.362 1.272,-4.535c-0.667,-4.172 -5.618,-7.965 -9.181,-7.034c-0.912,0.239 -1.403,-0.091 -1.836,-1.23c-0.822,-2.16 -0.877,-2.101 1.943,-2.101c7.115,0 11.354,-6.608 8.031,-12.52c-2.331,-4.147 -6.266,-5.473 -10.183,-3.431z" data-paper-data="{&quot;wickUUID&quot;:&quot;73737e3a-2825-4470-b249-aef0e2b62f1d&quot;,&quot;wickType&quot;:&quot;path&quot;}"/><path d="M366.24076,93.0969c-3.085,1.425 -7.253,4.718 -8.272,6.536c-1.171,2.09 -0.972,9.284 0.362,13.07c0.641,1.82 1.654,5.986 2.251,9.257c4.297,23.557 6.009,31.503 7.039,32.668c0.514,0.581 2.416,1.522 4.227,2.092c3.152,0.991 3.489,0.98 7.959,-0.274c3.249,-0.912 6.484,-1.31 10.646,-1.31c6.985,0 8.607,-0.838 10.592,-5.468c1.45,-3.383 1.474,-4.733 0.177,-10.079c-2.258,-9.31 -3.544,-10.345 -12.912,-10.397c-3.355,-0.019 -6.102,-0.068 -6.103,-0.11c-0.002,-0.042 -0.697,-6.099 -1.544,-13.459c-1.703,-14.808 -2.632,-18.353 -5.644,-21.547c-2.392,-2.536 -4.821,-2.807 -8.778,-0.979zM370.22576,104.2759c0.325,1.291 1.207,8.404 1.962,15.806c0.754,7.402 1.741,14.329 2.193,15.393c1.217,2.866 3.933,3.793 8.409,2.869c4.453,-0.92 7.975,-0.942 8.524,-0.054c0.806,1.304 2.003,6.691 1.612,7.25c-0.217,0.308 -2.225,0.563 -4.463,0.565c-2.238,0.002 -6.142,0.523 -8.675,1.158c-3.706,0.93 -4.703,0.997 -5.106,0.346c-0.275,-0.444 -0.974,-3.369 -1.553,-6.5c-0.579,-3.13 -1.721,-9.104 -2.537,-13.274c-0.816,-4.171 -1.787,-9.488 -2.159,-11.816c-0.372,-2.328 -1.088,-5.028 -1.591,-6c-1.215,-2.35 -1.159,-5.531 0.122,-6.946c1.588,-1.754 2.613,-1.376 3.262,1.203z" data-paper-data="{&quot;wickUUID&quot;:&quot;9c1a012c-71df-465a-a86e-ff9b2497c3a9&quot;,&quot;wickType&quot;:&quot;path&quot;}"/><path d="M366.40024,91.97341c-4.19533,1.72833 -9.45389,6.45478 -9.89756,8.81911c-0.444,2.368 0.04325,9.25558 0.95758,12.46025c0.827,2.89933 1.87487,7.98697 5.05587,24.54264c1.653,8.60267 3.27346,15.38087 4.00613,16.79754c0.34133,0.66033 1.76522,1.73246 3.56989,2.48379c3.515,1.46333 5.09713,1.60187 8.45013,0.73254c4.64433,-1.20467 5.97697,-1.38722 11.88564,-1.65689c4.85,-0.22167 6.31351,-0.56579 7.52951,-1.18879c2.73567,-1.40167 5.0321,-5.91815 5.0321,-9.90882c0,-2.62033 -1.72233,-9.72996 -2.87366,-12.02496c-1.83867,-3.66567 -3.79309,-4.54083 -11.80376,-4.80283c-5.34667,-0.175 -5.1691,0.09033 -5.30843,-0.583c-0.08033,-0.387 -0.38634,-3.74664 -0.86301,-7.87164c-2.17067,-18.78333 -3.08752,-22.64166 -6.13452,-25.84633c-0.668,-0.70267 -2.28897,-2.08433 -2.78397,-2.344c-1.34533,-0.70633 -4.70761,-0.47961 -6.82194,0.39139z" data-paper-data="{&quot;wickUUID&quot;:&quot;21c48719-a4ac-4c4e-b58f-759c39a1151b&quot;,&quot;wickType&quot;:&quot;path&quot;}"/><path d="M715.23029,80.68299c-0.00767,0.23267 -0.57162,3.03247 0.05438,4.9998c1.47533,4.636 1.84268,6.4549 1.84268,9.28823c0,2.17033 0.08078,1.86119 -0.99189,3.04819c-0.62967,0.697 -1.64805,1.38563 -2.55872,1.8123l-1.07403,0.65332l-2.23794,-1.29396c-1.40933,-0.778 -3.93313,-2.44162 -5.70446,-3.76529c-2.91267,-2.17633 -4.97788,-3.94991 -13.15888,-11.29724l-2.90671,-2.48337l-5.87891,0.57838c-7.26433,0.45733 -7.25231,0.42278 -4.77098,11.09878c0.72467,3.11667 1.84233,7.88872 2.464,10.27205c0.622,2.38333 1.51331,6.8067 1.98131,9.8317c0.86067,5.56633 3.69225,17.47495 4.25492,18.03762c0.445,0.445 8.40278,-1.83257 8.52645,-2.4509c0.16133,-0.80567 -1.85793,-7.07507 -4.0186,-12.11007c-2.39,-5.56967 -2.74042,-7.05331 -1.57275,-8.53264c1.299,-1.64567 2.44532,-2.33787 4.19532,-2.33787c2.42533,0 4.42041,1.6038 12.77274,10.0318c9.50933,9.59567 9.72393,9.72978 12.37126,9.89845c1.973,0.12567 7.88968,-0.39524 9.03201,-0.83324c0.454,-0.17433 1.00583,-1.57795 0.82616,-3.73095c-0.67833,-8.13433 -6.17654,-28.54944 -9.56354,-35.51311c-1.335,-2.745 -3.85715,-6.03798 -3.88382,-5.20198z" data-paper-data="{&quot;wickUUID&quot;:&quot;d63b76f5-e009-4617-bc76-ae8b0e36623b&quot;,&quot;wickType&quot;:&quot;path&quot;}"/><path d="M800.30921,28.65443c-7.26333,2.32433 -10.03769,6.82934 -10.07036,16.39867l0.03549,2.61582l3.37396,3.13278c4.23167,3.897 8.30627,6.93303 11.96294,8.91636c5.519,2.99333 8.03889,5.18209 9.77356,8.95242c2.08667,4.53633 0.82455,9.77199 -3.10612,12.77032c-2.40567,1.83467 -5.32975,2.36563 -13.79708,2.97196c-5.40267,0.38667 -7.5259,1.10257 -8.1559,2.27957c-0.61,1.14 0.64156,2.93735 4.57889,3.87902c8.568,2.04867 16.80856,1.77371 24.36656,-0.79696c4.03833,-1.37367 7.59847,-3.59669 10.15147,-6.35402c3.89167,-4.20367 5.1243,-8.92928 3.4623,-11.40161c-1.76767,-2.629 -14.66842,-11.09967 -23.68942,-15.509c-2.605,-1.273 -5.02609,-2.54403 -5.68676,-3.12436c-2.637,-2.315 -3.40162,-5.2363 -2.00962,-8.02497c0.945,-1.89333 3.97202,-4.81079 5.84002,-5.76946c2.417,-1.24067 2.68739,-2.14856 1.80939,-4.57289c-1.121,-3.09567 -2.88399,-6.36649 -3.61432,-6.75716c-0.893,-0.47833 -3.064,-0.29782 -5.225,0.39351z" data-paper-data="{&quot;wickUUID&quot;:&quot;07efe7d4-f96a-480b-a12a-e35c17ee6067&quot;,&quot;wickType&quot;:&quot;path&quot;}"/><path d="M490.75534,68.93296c-8.96567,1.24333 -17.42623,3.79924 -21.5689,6.40824c-4.36967,2.75267 -6.23551,7.34561 -8.23384,20.94094c-1.14933,7.81967 -1.01134,12.25643 0.64566,20.48643c2.46967,12.26733 6.0126,21.2561 10.1576,25.86643c2.68533,2.987 10.76685,7.92948 15.33918,9.31248c1.27833,0.38667 3.33253,0.85101 4.38486,0.95934c1.52733,0.15733 2.38986,0.46267 3.48419,1.37667c2.24333,1.87433 2.78785,1.80964 8.06552,-0.82403c2.59033,-1.29267 6.1033,-3.41666 7.26097,-4.30366c3.75067,-2.874 5.42222,-6.35754 11.14455,-23.32454l3.17817,-9.44188l-0.39669,-6.23846c-0.66967,-10.095 -2.62961,-18.09944 -5.97294,-24.57277c-3.36067,-6.507 -6.26121,-9.43706 -12.56454,-12.59839c-6.00333,-3.01067 -11.56979,-4.51213 -14.92379,-4.0468zM495.40205,93.11345c2.92667,1.38633 3.46451,1.78003 6.15818,4.50436c2.55167,2.581 3.12916,3.35007 4.42349,5.9884c1.84633,3.76267 2.44047,5.86575 2.7048,9.70775c0.23067,3.35333 -0.34806,6.57555 -1.66873,9.09088c-1.04167,1.985 -4.81354,5.96637 -7.47421,7.79504c-5.92967,4.07567 -9.13502,3.821 -13.63302,-0.96967c-1.19167,-1.26933 -2.44422,-3.20619 -3.30822,-4.69919c-0.864,-1.49267 -2.53417,-4.06118 -3.80084,-5.86451c-4.52433,-6.441 -5.51868,-8.93566 -5.20501,-13.61099c0.36,-5.37133 2.10086,-9.86014 4.50886,-11.78914c1.18333,-0.94767 0.97893,-0.68515 4.30193,-0.88015c1.96033,-0.115 3.87004,-0.37098 4.32837,-0.58131c0.47133,-0.21633 1.69663,-0.34111 3.11163,-0.28144c2.17133,0.092 2.6761,0.2273 5.55277,1.58997z" data-paper-data="{&quot;wickUUID&quot;:&quot;9da1c431-7d6d-4e84-875b-206259673b47&quot;,&quot;wickType&quot;:&quot;path&quot;}" id="9da1c431-7d6d-4e84-875b-206259673b47"/><path d="M481.60675,62.27564c-19.814,4.35 -25.163,9.69 -28.17,28.12c-0.828,5.073 -1.505,11.947 -1.505,15.277c0,8.475 3.323,23.108 7.319,32.226c3.925,8.954 6.909,12.143 16.618,17.759c3.753,2.171 7.013,4.514 7.244,5.208c1.055,3.165 10.286,4.743 16.661,2.849c4.487,-1.333 14.677,-6.848 17.555,-9.5c3.637,-3.352 6.231,-8.134 8.637,-15.921c1.341,-4.341 3.227,-10.024 4.191,-12.629c5.399,-14.594 0.277,-40.626 -10.375,-52.728c-3.243,-3.684 -11.096,-8.255 -18.64,-10.851c-5.455,-1.877 -10.34,-1.829 -19.535,0.19zM503.75275,72.70864c7.419,3.517 9.812,5.66 13.309,11.913c3.553,6.356 5.857,14.986 6.427,24.074l0.47,7.498l-4.62,13.79c-5.214,15.563 -6.463,17.492 -14.027,21.659c-6.931,3.819 -8.229,4.092 -10.069,2.117c-1.063,-1.141 -2.509,-1.654 -4.666,-1.654c-3.744,0 -13.633,-5.214 -18.024,-9.504c-3.872,-3.781 -7.612,-12.923 -9.996,-24.427c-2.324,-11.217 -2.36,-13.441 -0.411,-25.458c1.932,-11.918 3.642,-15.17 9.52,-18.105c5.294,-2.643 17.222,-5.359 22.221,-5.058c2.226,0.133 6.115,1.377 9.866,3.155z" data-paper-data="{&quot;wickUUID&quot;:&quot;25bf17d9-5fbb-4ea9-8430-58fe71d42fd5&quot;,&quot;wickType&quot;:&quot;path&quot;}" id="25bf17d9-5fbb-4ea9-8430-58fe71d42fd5"/><path d="M540.33166,55.72863c-4.375,1.42 -11.834,5.704 -12.678,7.281c-0.494,0.923 -0.676,2.789 -0.405,4.147c0.644,3.224 4.529,13.372 8.349,21.806c2.123,4.687 3.881,10.688 5.835,19.911c2.987,14.096 6.24,22.585 9.465,24.698c1.316,0.862 2.878,1.083 5.317,0.751c5.975,-0.812 6.921,-1.134 8.581,-2.916c1.438,-1.543 1.565,-2.399 1.145,-7.686c-0.522,-6.566 -1.618,-10.938 -5.549,-22.129c-1.449,-4.124 -2.856,-8.785 -3.128,-10.357c-0.464,-2.683 -0.337,-2.913 2.06,-3.749c1.405,-0.49 3.425,-0.891 4.488,-0.891c3.111,0 7.275,-2.392 8.59,-4.936c0.701,-1.355 1.402,-5.436 1.651,-9.612c0.537,-9 -0.696,-12.27 -5.612,-14.876c-2.845,-1.509 -4.66,-1.744 -14.691,-1.902c-6.294,-0.099 -12.332,0.108 -13.418,0.46zM564.28466,65.18363c1.358,1.128 1.655,4.586 0.825,9.604c-0.452,2.728 -0.582,2.817 -5.496,3.749c-2.768,0.525 -6.463,0.955 -8.211,0.955c-2.126,0 -3.701,0.523 -4.756,1.578c-1.88,1.88 -1.916,2.326 -0.457,5.696c0.617,1.426 3.132,8.808 5.59,16.405c4.519,13.97 6.16,22.1 4.459,22.1c-1.497,0 -3.287,-5.363 -6.057,-18.154c-2.793,-12.894 -3.938,-16.701 -6.581,-21.88c-0.891,-1.749 -2.871,-6.5 -4.398,-10.559c-3.069,-8.154 -3.168,-7.728 2.313,-9.965c3.331,-1.359 21.005,-0.994 22.769,0.471z" data-paper-data="{&quot;wickUUID&quot;:&quot;3386b309-81d6-4b2e-a37b-9c44687eb981&quot;,&quot;wickType&quot;:&quot;path&quot;}" id="3386b309-81d6-4b2e-a37b-9c44687eb981"/><path d="M580.98023,86.11925c-4.133,1.886 -8.857,6.496 -11.097,10.828c-1.901,3.676 -1.283,14.053 1.134,19.045c3.889,8.034 18.201,14.44 23.427,10.487c0.843,-0.637 2.367,-1.17 3.387,-1.184c1.033,-0.014 3.045,-1.215 4.539,-2.709c3.101,-3.101 3.436,-5.876 1.422,-11.787c-1.754,-5.146 -3.368,-6.051 -10.8,-6.051c-3.923,0 -6.007,-0.288 -5.698,-0.789c0.269,-0.434 1.556,-0.789 2.861,-0.789c2.668,0 5.349,-1.221 6.783,-3.089c1.426,-1.858 1.213,-5.228 -0.599,-9.44c-2.777,-6.456 -7.85,-7.949 -15.359,-4.522z" data-paper-data="{&quot;wickUUID&quot;:&quot;66e13c5b-e94f-4bc8-bc6d-dad68850f3e4&quot;,&quot;wickType&quot;:&quot;path&quot;}" id="66e13c5b-e94f-4bc8-bc6d-dad68850f3e4"/><path d="M640.91799,55.74559c-1.09321,-0.12198 -4.21785,-0.16951 -6.94338,-0.10696c-2.72457,0.06283 -7.28668,-0.12432 -10.13719,-0.41633c-2.84982,-0.29078 -7.40947,-0.48657 -10.13227,-0.43364c-2.72184,0.05321 -7.27087,0.09846 -10.10902,0.09996c-6.67779,0.00476 -10.02868,1.61956 -10.29367,4.96109c-0.2788,3.51847 3.19963,12.94875 6.30714,17.09833c2.58449,3.4503 2.83806,3.59707 8.28636,4.77154l5.61993,1.21068l-0.57611,2.03087c-0.31712,1.11789 -0.4344,4.77782 -0.26118,8.13555c0.17253,3.3565 -0.18244,11.7201 -0.78872,18.5842c-1.08038,12.22523 -1.05971,12.54812 1.00783,15.74679c1.16092,1.796 2.65751,3.42009 3.32613,3.60976c1.94717,0.55237 7.79829,-1.72319 9.73353,-3.78533c4.19057,-4.46484 6.385,-20.37179 5.08308,-36.85167c-0.38685,-4.9058 -0.57645,-9.37104 -0.42007,-9.92229c0.15638,-0.55125 1.68122,-0.98352 3.3888,-0.96064c3.96914,0.05323 8.25912,-2.46457 10.11766,-5.93822c0.80047,-1.49531 1.94567,-3.5903 2.54503,-4.65515c1.63543,-2.90703 1.77963,-7.44597 0.31936,-10.06283c-1.27076,-2.27724 -2.02849,-2.66578 -6.07324,-3.11571z" data-paper-data="{&quot;wickUUID&quot;:&quot;142397e9-70d0-4be7-a841-cd360787a383&quot;,&quot;wickType&quot;:&quot;path&quot;}" id="142397e9-70d0-4be7-a841-cd360787a383"/><path d="M623.81455,109.25784c-1.18883,0.74275 -2.05346,2.44958 -3.08833,6.09764l-1.43686,5.06514l-2.25984,-0.64106c-1.56139,-0.44293 -2.80138,-0.17205 -4.00777,0.87444c-1.62768,1.41033 -1.72476,1.86614 -1.41509,6.63362c0.18278,2.81473 0.18833,5.17691 0.01402,5.24908c-0.17404,0.07121 -2.36514,0.19182 -4.86908,0.26838c-7.14647,0.2169 -15.17673,1.81608 -16.61744,3.30751c-1.67075,1.73074 -3.36773,10.90071 -2.52059,13.61597c1.1665,3.73305 2.92751,3.97795 11.24538,1.56642c4.29142,-1.24406 8.713,-2.44496 9.82753,-2.66931c3.82885,-0.77136 11.46006,-0.84659 14.02647,-0.13935c3.7519,1.03522 15.94896,1.3831 20.41594,0.5828c4.36399,-0.7817 7.59733,-3.18763 10.9898,-8.1772c2.17225,-3.19444 2.27948,-3.57979 1.60607,-5.73124c-0.61467,-1.95912 -1.15747,-2.36881 -3.61154,-2.72091c-1.58805,-0.22805 -4.57118,-0.33835 -6.62798,-0.24409c-3.62464,0.16507 -13.83757,-0.86732 -14.21735,-1.43761c-0.10386,-0.1542 -0.12469,-2.89492 -0.04555,-6.09063c0.07887,-3.19475 -0.07001,-6.31586 -0.33079,-6.93555c-0.25955,-0.62038 -0.48381,-2.054 -0.49652,-3.18542c-0.05506,-4.72332 -3.30622,-7.33681 -6.58048,-5.28863z" data-paper-data="{&quot;wickUUID&quot;:&quot;e7502078-6f67-4b4f-a00c-a4ba2c274da8&quot;,&quot;wickType&quot;:&quot;path&quot;}" id="e7502078-6f67-4b4f-a00c-a4ba2c274da8"/><path d="M655.6278,89.20935c-5.67448,0.16152 -7.31527,0.8852 -10.51433,4.63967c-2.7417,3.21584 -3.28421,4.41739 -4.65291,10.30121c-1.7926,7.70424 -1.30622,10.90342 2.33188,15.32617c1.83261,2.2277 3.27894,3.13485 6.5164,4.08547c3.57982,1.05189 4.47987,1.01201 6.44841,-0.28811c1.25858,-0.83107 3.71039,-1.74983 5.44828,-2.04266c3.71993,-0.62555 6.4315,-2.6213 8.96244,-6.59648c1.72167,-2.7017 1.77515,-3.2603 0.87255,-9.01924c-1.00742,-6.42274 -3.36447,-11.05588 -7.16614,-14.08123c-2.63221,-2.09487 -3.88822,-2.44908 -8.24658,-2.3248zM659.4074,106.03139c1.86781,2.75949 1.80583,5.00065 -0.16013,5.8483c-1.87249,0.80764 -7.61718,0.52411 -8.1343,-0.40114c-0.54441,-0.97561 1.1617,-7.48094 2.21427,-8.44321c1.2732,-1.16475 4.26179,0.30775 6.08016,2.99605z" data-paper-data="{&quot;wickUUID&quot;:&quot;fba0840a-72b9-4990-a94d-b73b166ece28&quot;,&quot;wickType&quot;:&quot;path&quot;}" id="fba0840a-72b9-4990-a94d-b73b166ece28"/><path d="M485.88921,91.42155c-1.075,0.429 -2.765,0.577 -3.755,0.328c-3.16,-0.793 -6.256,1.517 -7.617,5.683c-2.964,9.07 -2.214,13.736 3.387,21.077c1.678,2.199 3.786,5.463 4.685,7.253c1.833,3.652 5.6,7.16 8.459,7.877c3.51,0.881 8.583,-1.778 14.134,-7.409c8.779,-8.906 3.513,-27.767 -9.445,-33.828c-4.224,-1.976 -6.729,-2.225 -9.848,-0.981zM493.42121,101.18555c6.054,3.548 9.07,13.576 5.652,18.792c-2.244,3.426 -5.212,2.911 -8.512,-1.477c-8.419,-11.194 -9.4,-13.681 -6.45,-16.35c1.159,-1.049 4.354,-2.68 5.637,-2.877c0.179,-0.027 1.832,0.833 3.673,1.912z" data-paper-data="{&quot;wickUUID&quot;:&quot;307dae54-c5bc-4702-aa06-955a6f460479&quot;,&quot;wickType&quot;:&quot;path&quot;}" id="307dae54-c5bc-4702-aa06-955a6f460479"/><path d="M550.98693,60.54436c-6.846,0.605 -13.865,3.468 -15.362,6.266c-1.762,3.291 -0.906,7.481 3.166,15.495c3.62,7.125 4.055,8.563 4.758,15.734c0.921,9.407 0.947,9.506 4.361,16.711c1.928,4.069 2.683,6.761 2.683,9.572c0,4.375 1.147,5.881 4.479,5.881c3.293,0 4.372,-2.18 4.005,-8.09c-0.225,-3.64 -1.058,-6.71 -2.864,-10.568c-2.778,-5.935 -4.042,-11.269 -4.042,-17.066c0,-2.057 -0.517,-5.206 -1.15,-7c-1.106,-3.135 -1.082,-3.305 0.64,-4.433c0.984,-0.645 3.471,-1.678 5.527,-2.297c6.699,-2.016 11.558,-7.025 11.558,-11.913c0,-3.205 -2.043,-6.375 -5.017,-7.787c-2.883,-1.368 -2.95,-1.37 -12.742,-0.505zM557.98593,69.85036c0.21,0.34 -1.171,1.178 -3.07,1.86c-2.846,1.024 -3.523,1.055 -3.86,0.178c-0.259,-0.677 0.37,-1.234 1.735,-1.535c1.179,-0.259 2.498,-0.59 2.932,-0.735c1.37,-0.457 1.869,-0.406 2.263,0.232z" data-paper-data="{&quot;wickUUID&quot;:&quot;352371f6-0d99-4118-aaa4-4960375953ee&quot;,&quot;wickType&quot;:&quot;path&quot;}" id="352371f6-0d99-4118-aaa4-4960375953ee"/><path d="M564.18663,69.67051c-2.128,1.49 -2.274,4.371 -0.311,6.147c1.893,1.714 4.308,1.658 5.932,-0.137c1.736,-1.918 1.648,-3.74 -0.272,-5.66c-1.9,-1.9 -3.031,-1.974 -5.349,-0.35z" data-paper-data="{&quot;wickUUID&quot;:&quot;ed566ca4-13e6-4509-b70a-dd66a9b5e4e1&quot;,&quot;wickType&quot;:&quot;path&quot;}" id="ed566ca4-13e6-4509-b70a-dd66a9b5e4e1"/><path d="M563.18964,73.04451c-3.922,3.175 0.881,8.93 5.13,6.146c2.519,-1.651 2.639,-4.69 0.251,-6.363c-2.264,-1.586 -3.202,-1.548 -5.381,0.217z" data-paper-data="{&quot;wickUUID&quot;:&quot;82f48b90-6eb6-4e6f-987b-502fa4d6a48f&quot;,&quot;wickType&quot;:&quot;path&quot;}" id="82f48b90-6eb6-4e6f-987b-502fa4d6a48f"/><path d="M648.46616,130.36322c-1.14042,0.04446 -5.0263,0.07514 -8.6341,0.06724c-3.60683,-0.00762 -9.40694,0.40618 -12.88724,0.91988c-3.48099,0.51246 -6.61465,0.85215 -6.96291,0.75336c-0.34922,-0.09907 -3.36359,0.70689 -6.69928,1.79173c-3.33445,1.08416 -6.42757,1.87088 -6.87258,1.74672c-0.44528,-0.1232 -1.871,-0.00375 -3.16842,0.26435c-1.29769,0.26906 -2.96482,0.13291 -3.70574,-0.30387c-0.7412,-0.43582 -2.98687,-0.70905 -4.99228,-0.60541c-8.75604,0.44947 -10.1367,1.37375 -12.02642,8.0536c-1.23366,4.35982 -0.49058,8.70974 1.87908,10.99728c1.8294,1.76631 7.26843,2.54107 11.69337,1.66543c1.87331,-0.37083 7.04376,-0.70859 11.49074,-0.74953c4.44725,-0.0419 11.1633,-0.51499 14.92584,-1.05257c3.76226,-0.53662 7.93604,-0.93363 9.27486,-0.88231c1.33882,0.05132 7.12182,-0.6906 12.85002,-1.64974c8.43006,-1.41093 10.87215,-2.15989 12.80643,-3.92917c7.5812,-6.93425 2.02341,-17.5209 -8.97137,-17.08699zM651.7845,140.26261c0.25553,0.8947 -15.18636,3.85069 -20.79236,3.97966c-1.81734,0.04161 -6.63307,0.55068 -10.70198,1.13128c-6.75743,0.96341 -18.01784,1.05482 -18.52228,0.15084c-0.21087,-0.37789 7.82092,-1.60139 8.7618,-1.33449c0.27995,0.07942 2.10654,-0.51879 4.0587,-1.32878c4.7115,-1.95542 18.96433,-3.92237 27.90981,-3.85242c8.43504,0.06652 8.96979,0.13818 9.28631,1.25391z" data-paper-data="{&quot;wickUUID&quot;:&quot;2a537833-7570-4835-a9de-461379c79047&quot;,&quot;wickType&quot;:&quot;path&quot;}" id="2a537833-7570-4835-a9de-461379c79047"/><path d="M662.70433,96.28668c-1.67308,0.93281 -2.89571,4.07752 -1.97707,5.08237c1.07184,1.172 3.32149,12.15278 2.66751,13.02543c-1.0357,1.38284 -6.40132,1.95422 -9.66167,1.02933c-4.92949,-1.39838 -8.48302,2.16925 -6.04535,6.06749c0.91332,1.45966 1.98923,1.95406 5.82571,2.67649c8.93341,1.6808 16.85691,-1.60868 18.5896,-7.71667c0.91561,-3.22764 -1.17176,-15.27149 -3.16279,-18.24888c-1.47116,-2.20104 -4.21529,-3.04394 -6.23594,-1.91556z" data-paper-data="{&quot;wickUUID&quot;:&quot;666bfa72-2cca-4411-9491-597f12f0d656&quot;,&quot;wickType&quot;:&quot;path&quot;}" id="666bfa72-2cca-4411-9491-597f12f0d656"/><path d="M711.18104,71.24784c-6.06666,1.10428 -7.69687,4.67077 -5.35928,11.72863c0.62512,1.88932 0.93374,3.54957 0.68428,3.68877c-0.24946,0.1392 -3.54952,-2.68668 -7.33289,-6.27854c-3.78433,-3.59213 -7.35972,-6.66764 -7.94656,-6.83411c-0.58684,-0.16647 -5.32354,0.01265 -10.52508,0.39772c-8.97926,0.66472 -13.53727,2.06807 -14.18979,4.36831c-0.1471,0.51854 0.35606,3.87111 1.11733,7.44971c0.76223,3.57887 1.96082,9.25443 2.66425,12.61185c0.70316,3.35838 1.70569,6.96592 2.22882,8.01657c0.52409,1.05092 1.13113,4.13256 1.34998,6.84942c0.22009,2.71617 0.95911,7.172 1.64227,9.90103c0.68412,2.72931 1.97162,7.83863 2.86175,11.35504c2.27392,8.98982 4.8167,10.85767 9.58196,7.03816c1.19859,-0.96035 4.34961,-2.28468 7.00314,-2.94352c7.75465,-1.92476 9.63248,-4.34516 8.35924,-10.7799c-0.37458,-1.89309 -0.47573,-3.38326 -0.22464,-3.31203c0.25205,0.0715 2.1848,1.93157 4.29675,4.13457c5.31643,5.5454 6.68624,6.0847 14.32815,5.6383c9.99712,-0.58491 11.82224,-1.02035 13.57751,-3.23956c3.13151,-3.9597 2.04611,-14.50833 -3.48437,-33.84985c-3.71441,-12.99186 -6.82616,-19.46792 -11.14109,-23.19394c-4.02958,-3.47876 -4.58482,-3.63938 -9.49173,-2.74663zM718.0853,85.06871c4.17408,7.85013 11.46646,36.87611 9.85816,39.2368c-0.54313,0.79703 -8.85992,1.45321 -10.94177,0.86264c-0.76675,-0.21751 -4.84927,-4.09588 -9.07271,-8.61712c-11.07605,-11.85891 -13.48902,-13.14006 -17.93351,-9.5206c-2.61532,2.12908 -2.5725,3.5684 0.2898,9.67432c1.47583,3.14828 3.06215,7.27381 3.52533,9.16604l0.84274,3.44163l-3.55798,1.13197c-1.95622,0.62277 -3.71025,1.0898 -3.89689,1.03686c-0.63976,-0.18148 -4.16056,-15.5414 -4.60969,-20.11041c-0.24581,-2.51557 -0.82214,-5.63217 -1.27911,-6.92703c-0.45724,-1.2939 -1.788,-6.47058 -2.95736,-11.50169c-2.41224,-10.371 -2.60561,-9.99344 5.33378,-10.39288l4.73245,-0.23749l7.41513,6.76547c4.07729,3.72097 9.48086,7.98449 12.00616,9.47422l4.59227,2.70806l2.45018,-1.26847c1.3488,-0.69841 2.68067,-2.07727 2.96095,-3.06529c0.58075,-2.04722 -0.39895,-7.75423 -2.05523,-11.97028c-2.06496,-5.25607 -0.51703,-5.17973 2.2973,0.11325z" data-paper-data="{&quot;wickUUID&quot;:&quot;776dd1a2-c8f4-4afb-bb7b-7bad9b7496db&quot;,&quot;wickType&quot;:&quot;path&quot;}" id="776dd1a2-c8f4-4afb-bb7b-7bad9b7496db"/><path d="M753.74133,48.91034c-5.98394,3.1578 -16.83888,7.23934 -18.22833,6.8535c-0.33726,-0.09359 -3.24515,0.65212 -6.46382,1.6579c-5.50685,1.72148 -5.91783,2.01237 -6.98441,4.94044c-0.97324,2.67597 -0.90214,3.37803 0.5108,5.00749c0.90388,1.04224 2.98512,4.51505 4.62424,7.71796c1.63912,3.20291 4.70655,8.8972 6.81621,12.65457c5.33432,9.49834 8.5317,18.33642 11.21087,30.99095c0.49824,2.35123 1.15499,5.42619 1.4597,6.83274c1.2633,5.82488 4.22061,6.44759 18.22443,3.83414c6.14734,-1.14687 13.32039,-3.0807 15.94004,-4.29798c2.62034,-1.21605 7.57442,-3.38539 11.01041,-4.82014c3.43475,-1.43406 6.64863,-3.30604 7.13918,-4.15956c1.21072,-2.10239 0.84694,-5.11815 -1.06265,-8.83332c-2.64551,-5.14426 -3.26928,-5.14761 -26.7263,-0.14742c-8.66042,1.84556 -10.9221,1.60312 -11.92409,-1.2808c-0.61818,-1.77821 -0.49488,-2.09561 1.33501,-3.42363c4.66402,-3.38567 3.43945,-10.45731 -1.9399,-11.20059c-1.43758,-0.19784 -3.241,-0.27493 -4.00673,-0.16992c-1.04257,0.1429 -1.95506,-1.24273 -3.6235,-5.49653c-1.22676,-3.12855 -2.09298,-5.76191 -1.92419,-5.85124c0.94134,-0.50424 12.13974,-4.48834 17.17123,-6.10975c6.85069,-2.20821 8.25904,-3.08724 8.97242,-5.60201c1.69149,-5.96272 -6.18271,-19.95168 -12.18969,-21.65572c-2.55325,-0.7243 -3.73353,-0.4001 -9.34093,2.55892z" data-paper-data="{&quot;wickUUID&quot;:&quot;f8645264-8bb2-45f2-a4c3-3853ebde03d3&quot;,&quot;wickType&quot;:&quot;path&quot;}" id="f8645264-8bb2-45f2-a4c3-3853ebde03d3"/><path d="M798.03449,20.56272c-4.411,1.446 -6.383,2.599 -9.932,5.805c-5.497,4.966 -7.931,17.379 -4.771,24.334c1.967,4.331 10.761,12.193 17.68,15.806c6.251,3.265 6.859,3.838 6.877,6.492c0.016,2.469 -2.643,3.325 -10.498,3.379c-9.988,0.069 -11.433,0.828 -14.95,7.849c-3.483,6.952 -3.511,9.235 -0.14,11.196c3.448,2.006 17.049,4.709 24.021,4.775c10.284,0.097 21.541,-3.769 27.814,-9.552c3.805,-3.507 7.497,-10.055 8.236,-14.608c1.104,-6.805 -5.722,-13.657 -23.292,-23.38l-8.947,-4.952l3.63,-2.361c3.968,-2.582 4.824,-4.488 4.177,-9.311c-0.607,-4.524 -4.823,-13.02 -7.25,-14.611c-2.703,-1.771 -8.648,-2.175 -12.655,-0.861zM805.28549,28.80772c1.254,0.798 4.312,8.021 3.768,8.902c-0.237,0.383 -1.57,1.241 -2.963,1.905c-2.936,1.402 -6.083,5.642 -6.083,8.196c0,3.045 2.182,6.159 5.293,7.552c7.678,3.44 16.918,8.866 23.318,13.694c3.948,2.977 4.539,3.769 4.539,6.079c0,3.419 -3.963,8.703 -8.71,11.613c-7.082,4.341 -17.926,5.67 -28.232,3.459c-5.746,-1.232 -6.326,-1.619 -5.175,-3.453c0.673,-1.072 2.503,-1.433 9.049,-1.788c10.954,-0.594 14.402,-2.435 16.437,-8.778c2.058,-6.411 -1.674,-12.528 -10.29,-16.867c-2.967,-1.494 -7.625,-4.814 -10.35,-7.376l-4.956,-4.66l0.025,-4.642c0.044,-8.242 4.196,-12.831 12.998,-14.363c0.217,-0.038 0.816,0.199 1.332,0.527z" data-paper-data="{&quot;wickUUID&quot;:&quot;5ea81885-7fa7-41ff-bd75-65d1161a7c3b&quot;,&quot;wickType&quot;:&quot;path&quot;}"/><path d="M114.36059,346.88373c-2.89233,0.687 -6.96011,2.90366 -12.49111,6.82533l-3.94887,3.1206l2.08639,7.89351c4.92067,18.02533 7.38241,33.84987 6.12408,39.37554c-0.18767,0.825 -0.64131,1.60508 -1.11064,2.31908l-0.212,2.51957l8.77409,-0.1961c4.74067,-0.112 10.52898,-0.4258 12.82065,-0.69413c2.29167,-0.26833 6.72138,-0.79674 9.83805,-1.17341c10.40967,-1.25833 29.50707,-2.79472 40.04174,-3.22005c6.65733,-0.269 7.48996,-0.84101 7.48996,-3.74168c0,-1.151 -0.46903,-5.71494 -1.1247,-9.55527c-0.65567,-3.84067 -1.35363,-7.97241 -1.54796,-9.16408l-0.92509,-2.833l-5.91279,0.18262c-7.46067,0.29467 -9.72964,0.63702 -21.88764,3.30369c-10.63633,2.33267 -13.6032,2.76961 -19.00053,2.78961c-4.49767,0.01667 -3.95863,0.39639 -4.74696,-0.34328c-2.05233,-1.926 -3.82834,-8.44319 -4.44801,-16.16119c-0.56233,-7.00433 -3.11181,-18.58616 -4.45714,-20.29649c-0.70333,-0.894 -3.04219,-1.50187 -5.36152,-0.95087z" data-paper-data="{&quot;wickUUID&quot;:&quot;de29a9fb-5de4-4835-b146-478ca1876ec6&quot;,&quot;wickType&quot;:&quot;path&quot;}"/><path d="M114.76669,221.16565c-3.685,0.13333 -8.18417,0.4355 -9.81584,0.64817c-3.43367,0.44767 -38.39583,9.29311 -45.07716,11.40511l-1.69937,0.9642l-0.02419,4.30565c0,2.24867 0.09807,5.92222 0.21774,8.14522l0.37893,4.51067l4.15764,1.53704c4.50733,1.502 7.01154,1.70171 12.96654,1.03304c5.54933,-0.62333 8.53826,-0.70586 10.38326,-0.19386c1.66,0.461 2.84073,1.80223 3.95673,4.22023c0.72167,1.56433 0.76644,1.68432 0.75877,4.38332c-0.03033,10.836 -6.49494,32.12504 -12.67761,41.73637c-2.27733,3.54067 -4.99445,6.03539 -8.12078,7.62239c-2.128,1.08033 -2.19026,1.16126 -4.54759,1.29193c-4.93433,0.273 -7.04991,-0.84284 -9.11258,-4.93917c-1.66567,-3.307 -2.06979,-5.13636 -2.30246,-9.00969l-0.40844,-3.89286l-3.97883,-0.01533c-5.52033,0.188 -6.33738,1.42723 -6.33738,7.28056c0,11.93733 3.41992,25.07652 7.61659,29.39452c3.115,3.205 7.48828,4.25278 13.88861,2.77111c6.143,-1.422 9.2987,-1.84208 15.1597,-2.04808c6.52733,-0.22967 8.37874,-0.92567 9.99107,-2.92534c3.7,-4.589 9.7849,-17.35252 14.1459,-29.71652c1.067,-3.025 3.3154,-9.30378 4.9704,-13.88711l3.04013,-8.44094l0.03644,-5.85863c0.00933,-3.11667 -0.09947,-7.51174 -0.24147,-9.74407l-0.31374,-3.72371l2.24975,-1.86998c5.29667,-4.58433 7.32862,-5.27351 13.94795,-4.68051c2.38333,0.21333 5.72736,0.65995 7.74403,0.98695l4.19282,0.49601l0.54307,-3.4788c0.14267,-3.60367 -0.49599,-12.66671 -1.29632,-18.40571c-0.66533,-4.77233 -0.98055,-6.17165 -1.90722,-8.36065l-1.22302,-1.8805l-7.34346,0.0431c-3.95967,0.029 -10.23361,0.16254 -13.91861,0.29587z" data-paper-data="{&quot;wickUUID&quot;:&quot;8d36164e-3731-4619-8a14-4874e3b72f2b&quot;,&quot;wickType&quot;:&quot;path&quot;}"/><path d="M101.10657,213.88975c-14.856,3.46 -43.285,11.185 -46.097,12.525c-1.788,0.852 -3.69,2.445 -4.226,3.538c-1.47,2.999 -1.974,25.687 -0.597,26.83c0.606,0.503 4.903,2.118 9.549,3.589c8.071,2.554 8.762,2.629 15.479,1.67c3.867,-0.553 7.244,-0.791 7.505,-0.531c0.26,0.26 -0.157,4.125 -0.927,8.588c-2.452,14.208 -9.551,30.836 -14.567,34.123c-3.619,2.371 -4.495,0.625 -4.213,-8.404c0.151,-4.808 -0.147,-8.197 -0.787,-8.968c-1.286,-1.55 -4.745,-1.543 -13.662,0.029c-12.528,2.208 -14.455,4.963 -13.317,19.034c1.482,18.324 4.875,27 13.786,35.25c7.077,6.552 9.37,7.59 18.136,8.209c9.445,0.666 12.24,-0.248 21.114,-6.904c13.386,-10.042 23.059,-22.385 26.397,-33.685c3.085,-10.441 3.332,-11.393 5.801,-22.27c1.295,-5.705 2.964,-12.969 3.71,-16.141c0.746,-3.173 1.091,-6.974 0.767,-8.448l-0.588,-2.679l3.928,0.558c12.872,1.825 13.769,1.785 16.794,-0.76c1.772,-1.492 3.083,-3.604 3.45,-5.563c0.949,-5.058 -1.059,-27.248 -2.969,-32.813c-2.602,-7.583 -4.239,-8.137 -23.72,-8.024c-9.313,0.054 -17.819,0.565 -20.746,1.247zM137.07657,223.94175c1.125,2.47 2.752,16.516 2.793,24.109l0.023,4.383l-3.383,-0.549c-13.559,-2.204 -16.396,-1.848 -21.635,2.716l-3.733,3.252l0.496,9.144c0.457,8.425 0.305,9.639 -1.939,15.457c-1.339,3.473 -3.84,10.558 -5.557,15.744c-3.734,11.28 -11.378,27.484 -14.592,30.934c-2.152,2.311 -2.809,2.481 -9.601,2.481c-4.494,0 -9.763,0.685 -13.733,1.785c-6.885,1.908 -10.485,1.479 -14.138,-1.687c-4.132,-3.58 -7.505,-15.243 -7.935,-27.437c-0.27,-7.672 0.231,-8.583 4.873,-8.862c1.365,-0.083 2.988,-0.19 3.608,-0.24c0.745,-0.059 1.028,0.91 0.833,2.852c-0.418,4.182 2.278,11.596 4.995,13.734c5.325,4.188 14.364,1.343 19.541,-6.15c5.547,-8.027 11.397,-24.589 13.167,-37.278c0.975,-6.99 0.924,-8.159 -0.487,-11.134c-2.285,-4.814 -4.311,-5.433 -13.905,-4.252c-7.117,0.877 -8.679,0.802 -12.853,-0.615l-4.751,-1.613l-0.258,-8.179l-0.259,-8.178l2.965,-0.962c3.036,-0.986 31.486,-8.358 40.397,-10.468c2.886,-0.684 11.032,-1.214 19.474,-1.268l14.512,-0.092l1.082,2.373z" data-paper-data="{&quot;wickUUID&quot;:&quot;143d3485-0b33-4d87-a9d0-c4ef5cab3ea5&quot;,&quot;wickType&quot;:&quot;path&quot;}"/><path d="M151.41756,295.30674c-0.76,0.869 -1.578,3.744 -1.818,6.39c-0.299,3.293 -1.045,5.419 -2.366,6.74l-1.929,1.929v-6.45c0,-4.661 -0.393,-6.843 -1.417,-7.868c-1.83,-1.829 -3.231,-1.775 -10.164,0.399c-3.145,0.985 -6.633,1.792 -7.753,1.792c-3.941,0 -5.02,2.541 -5.02,11.822c0,7.846 0.245,9.035 3.083,14.956c3.485,7.272 7.255,10.193 15.664,12.134c4.39,1.013 4.85,0.954 6.795,-0.873c1.229,-1.154 3.252,-1.959 4.925,-1.959c3.407,0 12.618,-3.263 14.942,-5.293c2.33,-2.035 3.228,-3.958 4.146,-8.873c1.389,-7.431 -1.417,-19.917 -5.361,-23.861c-2.186,-2.186 -3.283,-2.563 -7.454,-2.563c-3.53,0 -5.275,0.439 -6.273,1.578zM161.68156,315.70574c0.025,3.325 -0.413,5.709 -1.178,6.421c-1.956,1.816 -7.003,3.172 -11.812,3.172c-2.487,0 -5.553,0.644 -6.927,1.456c-2.249,1.329 -2.705,1.332 -5.209,0.037c-3.85,-1.991 -6.585,-8.183 -6.585,-14.908c0,-4.751 0.216,-5.374 2.029,-5.86c3.691,-0.989 4.07,-0.626 4.712,4.513c0.782,6.26 3.418,9.35 7.974,9.35c4.757,0 10.932,-5.886 12.975,-12.37l1.594,-5.054l1.194,3.977c0.656,2.187 1.211,6.356 1.233,9.266z" data-paper-data="{&quot;wickUUID&quot;:&quot;76b271dd-9fe5-4e2b-8f0f-b1b55289b2c3&quot;,&quot;wickType&quot;:&quot;path&quot;}"/><path d="M187.41056,245.89275c-8.288,2.648 -25.494,11.445 -27.584,14.102c-2.685,3.413 -2.419,4.795 2.235,11.593c2.271,3.316 4.875,8.133 5.786,10.703c0.911,2.57 4.337,10.356 7.614,17.301c3.277,6.945 6.202,14.131 6.5,15.969c0.298,1.838 1.304,4.031 2.235,4.873c1.569,1.42 2.019,1.427 6.111,0.106c4.899,-1.582 9.984,-2.538 25.353,-4.766c12.041,-1.745 13.949,-2.466 15.326,-5.791c1.329,-3.207 0.398,-6.626 -2.71,-9.953c-2.464,-2.638 -2.697,-2.693 -11.399,-2.686c-4.886,0.004 -11.522,0.469 -14.747,1.034c-10.342,1.813 -9.883,1.994 -12.782,-5.042c-1.417,-3.441 -2.258,-6.576 -1.867,-6.967c0.391,-0.391 3.948,-1.328 7.905,-2.084c8.899,-1.699 11.605,-3.526 11.99,-8.098c0.606,-7.178 -4.171,-8.391 -18.154,-4.607l-7.947,2.15l-1.037,-2.276c-1.378,-3.023 0.224,-4.17 9.988,-7.148c12.211,-3.726 16.027,-8.577 12.346,-15.695c-2.523,-4.878 -6.289,-5.553 -15.162,-2.718z" data-paper-data="{&quot;wickUUID&quot;:&quot;cdef013f-6fde-4b73-8337-ee5b9ead97b2&quot;,&quot;wickType&quot;:&quot;path&quot;}"/><path d="M236.84755,211.87075c-4.967,2.109 -10.115,4.574 -11.441,5.478c-3.884,2.648 -9.333,10.57 -12.496,18.166c-2.792,6.708 -2.94,7.643 -2.991,18.88l-0.054,11.823l3.504,7.507c3.117,6.678 4.109,7.934 8.986,11.376c7.782,5.494 20.528,12.097 24.612,12.75c4.141,0.662 11.98,-1.414 19.405,-5.14c6.113,-3.068 6.664,-3.131 7.265,-0.831c0.667,2.55 5.967,5.45 9.968,5.454c4.457,0.004 8.348,-3.666 9.177,-8.656c0.321,-1.935 1.226,-5.674 2.011,-8.309c2.089,-7.013 0.59,-9.68 -8.151,-14.505c-7.334,-4.049 -11.588,-4.624 -20.336,-2.747c-4.668,1.001 -6.944,2.766 -7.485,5.807c-0.743,4.17 -12.447,6.607 -16.866,3.512c-3.312,-2.319 -7.353,-8.524 -7.353,-11.289c0,-4.848 4.197,-12.312 10.553,-18.768c5.792,-5.883 6.418,-6.265 11.223,-6.847c10.466,-1.268 15.203,3.134 10.696,9.94c-2.344,3.54 -2.402,9.552 -0.112,11.624c1.364,1.235 3.147,1.481 9.21,1.268l7.518,-0.264l2.499,-4.059c2.009,-3.264 2.614,-5.569 3.085,-11.764c1.163,-15.27 -2.53,-21.02 -18.692,-29.102c-7.986,-3.994 -9.299,-4.366 -16.687,-4.737c-7.819,-0.393 -8.242,-0.307 -17.048,3.433z" data-paper-data="{&quot;wickUUID&quot;:&quot;22a50380-b0bc-4237-b107-7628fdad24c0&quot;,&quot;wickType&quot;:&quot;path&quot;}"/><path d="M155.40656,293.90874c-1.47,1.471 -1.365,4.776 0.194,6.07c1.097,0.911 1.098,1.398 0.005,3.493c-0.698,1.339 -1.272,3.136 -1.275,3.994c-0.01,2.554 -2.753,8.636 -4.135,9.166c-2.449,0.94 -3.726,-0.47 -5.188,-5.73c-1.578,-5.674 -4.666,-9.055 -8.272,-9.055c-5.545,0 -12.177,10.75 -12.177,19.737c0,4.901 0.312,5.751 3.663,9.991c2.015,2.549 4.68,5.021 5.922,5.493c1.242,0.473 6.653,0.859 12.023,0.859c9.55,0 9.859,-0.065 14.035,-2.942c8.774,-6.047 16.495,-27.274 13.134,-36.113c-0.914,-2.404 -1.836,-2.899 -8.908,-4.776c-5.842,-1.551 -7.619,-1.588 -9.021,-0.187zM157.03056,325.87574c0,1.771 -3.757,2.976 -9.356,3.002c-5.316,0.025 -6.044,-0.157 -5.113,-1.279c0.608,-0.733 3.137,-1.453 5.748,-1.638c2.564,-0.18 5.575,-0.403 6.691,-0.495c1.117,-0.092 2.03,0.093 2.03,0.41z" data-paper-data="{&quot;wickUUID&quot;:&quot;77b1e4a9-6edb-4a88-928e-deaafbb4d495&quot;,&quot;wickType&quot;:&quot;path&quot;}"/><path d="M326.60656,222.84875c-5.183,1.478 -11.623,4.469 -14.129,6.561c-2.135,1.783 -7.534,8.717 -9.434,12.116c-1.857,3.321 -1.515,16.628 0.59,23c1.401,4.238 2.929,6.454 7.627,11.058c9.677,9.484 14.7,10.759 24.901,6.322c8.584,-3.735 13.982,-11.413 16.211,-23.062c3.723,-19.459 -0.324,-31.506 -11.962,-35.608c-5.208,-1.836 -8.412,-1.926 -13.804,-0.387zM329.64056,246.78575c4.452,4.761 4.99,6.602 2.83,9.686c-1.912,2.729 -7.2,5.81 -8.872,5.168c-0.774,-0.297 -2.525,-2.005 -3.891,-3.796c-1.944,-2.548 -2.493,-4.265 -2.528,-7.899c-0.053,-5.578 1.387,-7.63 5.355,-7.63c2.341,0 3.757,0.891 7.106,4.471z" data-paper-data="{&quot;wickUUID&quot;:&quot;aeba34b7-84c9-433c-83c6-a68eb858e21d&quot;,&quot;wickType&quot;:&quot;path&quot;}"/><path d="M112.22556,338.70873c-3.558,1.306 -8.632,3.867 -11.275,5.691c-3.65,2.518 -5.403,3.197 -7.293,2.825c-3.181,-0.628 -7.451,1.141 -9.72,4.025c-1.932,2.456 -2.493,10.706 -0.927,13.633c1.332,2.489 5.253,23.05 6.384,33.478c1.332,12.277 2.249,17.055 3.516,18.323c1.552,1.552 25.321,0.846 40.217,-1.194c6.945,-0.951 19.934,-2.146 28.864,-2.655c26.767,-1.526 28.304,-1.914 30.186,-7.615c0.852,-2.582 0.629,-5.433 -1.278,-16.338c-1.27,-7.265 -2.738,-14.01 -3.261,-14.988c-2.566,-4.794 -13.813,-4.983 -33.314,-0.559c-20.905,4.743 -19.754,4.635 -20.775,1.949c-0.48,-1.263 -0.873,-4.013 -0.873,-6.112c0,-5.025 -3.335,-20.782 -5.401,-25.517c-1.968,-4.509 -4.853,-7.57 -7.002,-7.426c-0.868,0.058 -4.489,1.174 -8.048,2.48zM121.55556,355.96673c1.077,4.713 1.99,10.477 2.029,12.809c0.099,5.845 2.456,14.451 4.359,15.913c2.309,1.775 11.916,0.839 26.381,-2.569c7.147,-1.684 14.971,-2.928 18.94,-3.011l6.764,-0.141l1.936,11.275c2.087,12.153 1.996,12.589 -2.644,12.614c-8.611,0.047 -35.508,2.186 -46.168,3.671c-6.932,0.965 -16.176,1.755 -20.542,1.755h-7.938l1.469,-2.242c2.517,-3.841 0.324,-20.557 -5.412,-41.249l-2.179,-7.861l4.27,-3.068c6.938,-4.985 11.39,-6.956 14.973,-6.629c1.51,0.137 2.123,1.561 3.762,8.733z" data-paper-data="{&quot;wickUUID&quot;:&quot;9adbe319-2cda-4826-b8c7-435087b7f76b&quot;,&quot;wickType&quot;:&quot;path&quot;}"/><path d="M112.38156,336.78073c-0.992,0.248 -3.428,1.391 -5.412,2.542c-1.984,1.15 -6.043,2.982 -9.02,4.069c-8.67,3.168 -11.5,6.852 -7.821,10.18c2.014,1.824 3.62,1.892 5.495,0.234c0.783,-0.692 3.453,-1.936 5.934,-2.764c2.48,-0.828 6.262,-2.481 8.404,-3.673c2.142,-1.192 5.39,-2.436 7.216,-2.765c4.014,-0.723 5.577,-1.849 5.577,-4.017c0,-3.662 -4.427,-5.286 -10.373,-3.806z" data-paper-data="{&quot;wickUUID&quot;:&quot;52db4b70-9f0d-480b-8281-6f0430249d52&quot;,&quot;wickType&quot;:&quot;path&quot;}"/><path d="M166.05056,337.18073c-14.148,2.933 -17.593,3.907 -19.08,5.394c-2.173,2.172 -2.107,4.798 0.212,8.552c1.742,2.817 2.686,3.336 7.593,4.177c1.434,0.245 1.04,0.708 -1.918,2.251c-2.047,1.069 -3.976,2.602 -4.285,3.408c-0.944,2.462 -0.627,6.582 0.565,7.341c1.625,1.035 29.648,0.282 31.796,-0.854c2.672,-1.413 3.998,-3.503 4.03,-6.356c0.063,-5.53 -3.549,-7.833 -12.283,-7.833c-2.654,0 -4.826,-0.406 -4.826,-0.902c0,-0.496 1.642,-0.902 3.649,-0.902c5.016,0 8.077,-3.061 8.077,-8.077c0,-6.646 -3.543,-8.269 -13.53,-6.199z" data-paper-data="{&quot;wickUUID&quot;:&quot;786c0881-f97f-4e58-9ccd-a35158fb3eab&quot;,&quot;wickType&quot;:&quot;path&quot;}"/><path d="M189.75155,326.62873c-6.627,1.317 -8.367,2.535 -8.367,5.857c0,1.351 2.789,8.506 6.198,15.9c3.409,7.394 7.127,15.676 8.261,18.405c2.787,6.699 7.6,11.73 11.206,11.713c3.138,-0.016 13.263,-2.236 16.95,-3.717c2.989,-1.201 7.901,-9.337 7.888,-13.067c-0.021,-6.287 -7.403,-16.577 -11.891,-16.577c-1.494,0 -1.722,-0.383 -1.211,-2.03c1.468,-4.738 1.484,-6.056 0.109,-8.925c-3.638,-7.593 -14.626,-10.443 -29.143,-7.559zM204.43855,341.03073c1.401,1.041 1.551,1.626 0.752,2.932c-1.601,2.616 -3.368,2.264 -5.499,-1.097l-1.988,-3.135h2.492c1.371,0 3.28,0.585 4.243,1.3zM213.36355,362.58973c1.581,1.156 1.559,1.278 -0.479,2.706c-2.775,1.943 -3.225,1.889 -3.84,-0.466c-0.909,-3.474 1.163,-4.548 4.319,-2.24z" data-paper-data="{&quot;wickUUID&quot;:&quot;52e81c07-a82a-45e2-9ef4-df3781cce928&quot;,&quot;wickType&quot;:&quot;path&quot;}"/><path d="M250.83855,312.13874c-15.731,5.944 -18.952,8.29 -18.926,13.786c0.009,1.888 1.18,7.122 2.603,11.63c1.424,4.509 3.531,13.021 4.684,18.915c1.67,8.537 2.583,11.262 4.49,13.396l2.394,2.679l5.174,-1.158c4.15,-0.929 5.469,-1.676 6.662,-3.773c1.406,-2.471 1.818,-2.616 7.445,-2.621c5.068,-0.005 6.313,-0.336 8.343,-2.218c4.222,-3.913 2.931,-12.063 -2.976,-18.791l-2.883,-3.284l3.276,-3.275c8.177,-8.178 6.349,-14.973 -6.219,-23.11c-5.74,-3.716 -8.757,-4.182 -14.067,-2.176zM261.23555,325.33874c1.655,2.676 -5.958,4.924 -9.366,2.765c-1.932,-1.224 0.61,-2.347 8.161,-3.603c0.343,-0.057 0.885,0.32 1.205,0.838z" data-paper-data="{&quot;wickUUID&quot;:&quot;bbcaccbc-abe3-48bc-a763-35e1f24a4a19&quot;,&quot;wickType&quot;:&quot;path&quot;}"/><path d="M290.67054,299.60674c-4.266,1.179 -8.464,2.963 -9.697,4.121c-3.199,3.005 -2.917,8.644 0.939,18.748c3.057,8.01 5.211,16.735 6.417,25.989c1.139,8.743 5.351,12.556 9.247,8.374c2.028,-2.177 10.353,-5.382 13.978,-5.382c1.63,0 3.523,-0.96 5.199,-2.637c3.326,-3.325 3.524,-7.382 0.508,-10.398c-2.051,-2.051 -2.323,-2.088 -7.523,-1.002c-2.968,0.619 -5.87,1.418 -6.449,1.776c-0.638,0.395 -1.363,-0.171 -1.841,-1.437c-1.049,-2.778 -0.52,-3.44 2.748,-3.44c7.125,0 12.554,-8.036 8.132,-12.037c-1.182,-1.07 -3.326,-1.493 -7.57,-1.493c-4.567,0 -6.046,-0.326 -6.469,-1.427c-1.237,-3.225 -0.575,-3.805 5.09,-4.453c6.924,-0.792 10.152,-2.365 11.937,-5.816c1.933,-3.738 1.711,-5.798 -0.967,-8.981c-2.251,-2.674 -2.586,-2.772 -9.246,-2.679c-4.156,0.057 -9.909,0.924 -14.433,2.174z" data-paper-data="{&quot;wickUUID&quot;:&quot;371d28dc-74bf-4efb-b5d0-9d370ccef9fb&quot;,&quot;wickType&quot;:&quot;path&quot;}"/></g><g fill="none" fill-rule="nonzero" stroke="none" stroke-width="1" stroke-linecap="butt" stroke-linejoin="miter" stroke-miterlimit="10" stroke-dasharray="" stroke-dashoffset="0" font-family="sans-serif" font-weight="normal" font-size="12" text-anchor="start" style="mix-blend-mode: normal"/><g id="wick_project_gui" fill="none" fill-rule="nonzero" stroke="none" stroke-width="1" stroke-linecap="butt" stroke-linejoin="miter" stroke-miterlimit="10" stroke-dasharray="" stroke-dashoffset="0" font-family="sans-serif" font-weight="normal" font-size="12" text-anchor="start" style="mix-blend-mode: normal"/></g></svg>