<svg version="1.1" xmlns="http://www.w3.org/2000/svg" xmlns:xlink="http://www.w3.org/1999/xlink" width="1260" height="594" viewBox="0,0,1260,594"><g transform="translate(202.32,11.88) scale(1.188,1.188)"><g id="wick_project_bg" fill-opacity="0" fill="#ffffff" fill-rule="nonzero" stroke="none" stroke-width="1" stroke-linecap="butt" stroke-linejoin="miter" stroke-miterlimit="10" stroke-dasharray="" stroke-dashoffset="0" font-family="none" font-weight="none" font-size="none" text-anchor="none" style="mix-blend-mode: normal"><rect x="0" y="0" width="720" height="480"/></g><g data-paper-data="{&quot;wickUUID&quot;:&quot;1e1c555b-4e24-4602-8275-c849b02b5e37&quot;,&quot;wickType&quot;:&quot;clipsandpaths&quot;}" fill="none" fill-rule="evenodd" stroke="none" stroke-width="1" stroke-linecap="butt" stroke-linejoin="miter" stroke-miterlimit="10" stroke-dasharray="" stroke-dashoffset="0" font-family="none" font-weight="none" font-size="none" text-anchor="none" style="mix-blend-mode: normal"><path d="M307.99447,277.60088c-1.75942,1.13162 -2.59316,2.41179 -2.62308,3.08518c-0.05151,1.15731 1.68365,4.91988 3.47845,7.68432c5.05297,7.78144 3.66963,12.77003 -4.96874,18.04937c-1.71899,1.05041 -3.16553,2.48987 -3.15196,2.6727c0.05564,0.74994 2.50417,2.54452 4.37143,2.9518c1.42457,0.31077 3.56985,0.35579 6.66625,0.13841c4.86641,-0.34135 6.03089,-0.69101 11.87589,-3.61051c2.26516,-1.13138 4.86812,-2.11956 7.0688,-2.68294c3.62564,-0.92749 8.15369,-3.23387 8.47436,-4.29985c0.09042,-0.29951 0.00588,-2.16808 -0.47348,-2.88056c-2.22297,-3.3049 -3.48704,-5.7706 -4.73168,-9.22898c-1.97556,-5.48887 -2.48153,-6.29323 -4.13066,-7.08972c-0.78731,-0.38046 -3.20991,-1.10743 -4.9766,-1.38012c-6.2654,-0.96705 -6.45965,-1.03023 -9.39856,-3.10044c-1.77434,-1.2498 -3.34317,-1.99699 -3.87217,-1.95941c-0.4572,0.03225 -2.38001,0.8607 -3.60825,1.65075z" data-paper-data="{&quot;wickUUID&quot;:&quot;272ff0c3-a1cc-4353-8f72-0d707c04f7a2&quot;,&quot;wickType&quot;:&quot;path&quot;}" fill="#000000"/><path d="M351.62762,352.35691c0,0.705 1.19904,5.448 1.85971,6.44667c1.614,2.43867 4.9497,3.36005 12.31737,3.37205c4.656,0.00767 7.09298,-0.48895 10.34665,-2.19862c1.95867,-1.02933 1.88528,-2.82743 0.86895,-2.68443c-3.21767,0.453 -11.983,0.94213 -13.09133,0.73046c-0.75,-0.143 -1.18775,-0.50036 -1.68608,-1.05969c-0.46133,-0.518 -1.92545,-1.44476 -3.15278,-2.00576c-2.304,-1.05333 -7.46249,-2.76168 -7.46249,-2.60068z" data-paper-data="{&quot;wickUUID&quot;:&quot;0e7fe844-c9ee-4fc3-97c6-7b10d443a859&quot;,&quot;wickType&quot;:&quot;path&quot;}" id="0e7fe844-c9ee-4fc3-97c6-7b10d443a859" fill="#8000ff"/><path d="M383.96564,316.17443c-2.37433,1.79067 -6.31073,4.8447 -8.73973,6.7817l-4.58838,3.70266l-0.11719,3.01315c0,3.485 -0.55792,4.79662 -2.55725,5.81662c-1.19967,0.612 -0.62288,0.35267 -1.54255,-0.022c-0.576,-0.23433 -1.11552,-0.68103 -1.60219,-1.1947l-1.56547,-1.11228l-2.00751,1.47281c-1.63233,1.29033 -1.68527,1.30158 -2.63094,0.94458c-0.911,-0.34367 -0.97372,-0.32824 -1.58139,0.38909c-1.45567,1.71867 -3.0514,2.19383 -4.36107,0.88416c-0.99567,-0.99567 -1.19466,-2.38954 -1.20233,-4.95554c-0.00567,-1.94 -0.28076,-2.38482 -1.48909,-3.17515c-2.28467,-1.494 -6.64262,-3.23386 -6.86095,-3.23386c-0.491,0 0.21694,4.55916 1.71527,9.10416c1.65567,5.021 3.50128,9.13876 4.09928,9.13876c0.65733,0 2.0612,1.76778 2.0612,2.58378c0,0.568 0.7435,1.31386 1.4925,1.77386c2.31667,1.42267 17.29267,5.42487 20.28834,5.42487c1.90533,0 6.17334,-1.24023 8.51001,-2.42223c4.05167,-2.04967 8.45615,-8.6974 11.49348,-17.3824c0.95467,-2.73067 1.19414,-3.91686 1.17847,-6.66853c-0.01,-1.74167 -0.29344,-4.45062 -0.58977,-5.68462c-0.60133,-2.50067 -2.15717,-6.13295 -3.1485,-7.33428l-1.79717,-1.18722zM387.65924,335.20245c0.87633,0.469 0.58175,1.01887 0.33842,2.31654c-0.149,0.79433 -0.11477,0.48819 -0.9281,0.79219c-4.13667,1.54667 -6.65193,3.28741 -10.59193,7.33174c-1.38567,1.42233 -2.51541,2.54275 -2.91441,2.66942c-0.958,0.304 -1.60958,-0.15355 -2.21925,-1.24122c-0.42067,-0.75033 -0.39806,0.05746 0.00061,-0.91554c0.544,-1.32633 5.46138,-6.38854 8.20005,-8.42721c3.305,-2.46067 6.40928,-3.43859 8.11461,-2.52592z" data-paper-data="{&quot;wickUUID&quot;:&quot;d9c4a196-96ac-46f7-8e94-247f4127e0ab&quot;,&quot;wickType&quot;:&quot;path&quot;}" id="d9c4a196-96ac-46f7-8e94-247f4127e0ab" fill="#ffffff"/><path d="M364.66496,304.53184c-14.24733,0.957 -17.19059,2.54783 -19.97226,11.03083c-0.498,1.51867 -1.16076,3.89932 -1.06576,4.14665c0.095,0.247 1.38905,1.41613 2.45738,2.02446c3.16367,1.80133 7.43666,4.612 10.17733,6.69433c1.41,1.07133 3.15391,2.08807 3.33758,2.08807c0.18367,0 1.76295,-0.982 2.82762,-1.957c4.09267,-3.74867 17.22134,-14.21282 21.67967,-17.28015l1.85379,-1.63416l-1.98098,-2.02262c-3.94733,-3.324 -7.65637,-3.87341 -19.31437,-3.09041z" data-paper-data="{&quot;wickUUID&quot;:&quot;b9cd6110-d913-4db4-ab3d-76fa33172b52&quot;,&quot;wickType&quot;:&quot;path&quot;}" id="b9cd6110-d913-4db4-ab3d-76fa33172b52" fill="#ffffff"/><path d="M394.57971,256.0835c-1.25033,1.34567 -4.18048,5.43034 -7.55848,10.53534c-2.636,3.98333 -3.04352,4.78223 -2.89319,5.72923c0.246,1.548 -1.2324,4.29093 -5.66173,10.47593c-4.09,5.711 -6.23266,8.17735 -7.12899,8.17735c-0.32967,0 0.21435,-0.12496 -0.42265,-0.76196c-1.29233,-1.29233 -1.24467,-1.40303 0.132,-3.43503c0.42733,-0.63133 -0.50145,-2.10053 -0.58478,-2.18386c-0.19533,-0.19567 -6.28896,3.47964 -8.24929,4.97697c-0.82633,0.631 -3.67649,2.57478 -6.24316,4.25511c-4.598,3.00967 -6.99583,5.14319 -8.03316,7.14952c-0.29067,0.562 -0.32997,2.44523 -0.32997,2.51923c0,0.074 1.23486,-0.11115 2.10586,-0.51782c4.02333,-1.87833 9.70518,-2.66069 19.40385,-2.63269c10.973,0.03167 13.91592,0.81485 18.73392,4.90185l2.0723,1.77366l1.50173,-0.56175c1.57233,-0.83733 1.70936,-1.07331 2.90969,-0.06298c1.42533,1.19933 1.19956,1.64144 -0.32211,2.97744l-1.19789,1.20996l1.11085,2.07494c1.386,2.25233 3.17802,6.51432 3.76135,8.98732c0.621,2.633 0.60524,5.25269 -0.04709,8.41669c-0.61033,2.962 -3.05854,9.88634 -4.49754,12.73934c-0.54133,1.07267 -0.82446,2.78754 -0.76513,2.84687c0.05933,0.05933 1.70067,0.24749 2.799,-0.01151c6.04467,-1.42367 14.9623,-1.35016 22.85397,0.19217c3.995,0.78067 4.62875,0.43408 5.61875,-2.20292c0.341,-0.908 2.26042,-5.82324 4.13409,-10.68157c1.874,-4.85833 3.53824,-9.40425 3.63024,-9.70925c0.127,-0.42133 -1.25156,-1.8603 -4.28556,-3.6553c-5.711,-3.37967 -10.94826,-5.81376 -16.11726,-7.48876c-4.992,-1.61767 -5.95649,-1.99754 -6.90349,-3.04387c-0.60867,-0.67267 -0.36974,-0.11589 0.03459,-3.01689c0.845,-6.06 3.02442,-15.79098 4.67909,-20.89598c0.68833,-2.12367 1.02821,-4.03166 1.02821,-5.46033c0,-1.89067 -0.27243,-2.77104 -1.8931,-5.87537c-3.106,-5.94967 -10.26634,-18.23628 -10.73067,-18.41461c-0.24433,-0.09367 -2.18892,0.1832 -2.64425,0.67353z" data-paper-data="{&quot;wickUUID&quot;:&quot;0ff96467-ada8-4c2e-935b-ef124c5952d5&quot;,&quot;wickType&quot;:&quot;path&quot;}" id="0ff96467-ada8-4c2e-935b-ef124c5952d5" fill="#ff8000"/><path d="M349.0549,302.73283c-4.04682,2.08931 -6.03706,4.67993 -8.28664,10.78284c-3.05741,8.29573 -3.11921,11.186 -0.43384,20.43181c4.03975,13.91053 6.5843,17.20365 15.63967,20.2372c3.03016,1.01566 5.77687,2.49541 6.10285,3.28792c0.49146,1.19599 1.87061,1.36597 8.06974,0.99511c8.17405,-0.4892 11.0003,-1.44701 16.13366,-5.46607c3.93593,-3.0824 6.65648,-7.43862 9.58982,-15.36039c3.25017,-8.77383 3.6121,-13.14053 1.5522,-18.73318c-2.96881,-8.06426 -7.87128,-14.09044 -14.00956,-17.22222c-6.23914,-3.18375 -27.41522,-2.53829 -34.3579,1.04698zM374.58541,304.76477c4.08028,0.10898 5.71584,0.64595 8.74207,2.87303c5.78357,4.25636 9.02106,9.45287 9.91626,15.91823c0.64277,4.64072 0.42576,6.30674 -1.50383,11.58845c-2.4229,6.62782 -6.26684,12.611 -9.56253,14.88244c-1.12435,0.77543 -3.72156,1.89 -5.77164,2.47559c-3.2119,0.91906 -4.9327,0.74476 -12.47619,-1.26287c-4.81277,-1.28151 -9.85522,-2.91142 -11.20659,-3.62299c-2.65486,-1.39731 -5.0721,-5.74293 -7.61236,-13.68241c-2.24772,-7.02843 -2.45488,-9.92275 -1.07456,-15.0425c2.89804,-10.74645 5.22153,-12.58791 17.12846,-13.56804c4.62061,-0.38073 10.65929,-0.63204 13.42091,-0.55893z" data-paper-data="{&quot;wickUUID&quot;:&quot;864041bd-9795-4c52-8219-93a8b2fb6830&quot;,&quot;wickType&quot;:&quot;path&quot;}" id="864041bd-9795-4c52-8219-93a8b2fb6830" fill="#000000"/><path d="M387.93784,257.83922c-4.12652,5.57936 -8.53179,12.09847 -9.78846,14.48711c-1.25766,2.38878 -2.88993,4.42451 -3.62823,4.5242c-0.73731,0.09956 -2.01319,0.79152 -2.83394,1.53604c-0.82062,0.74552 -2.92887,2.03623 -4.68526,2.86875c-1.75639,0.83252 -5.09871,2.96797 -7.42877,4.74575c-2.32907,1.77765 -6.17638,4.42529 -8.54867,5.88284c-2.37229,1.45755 -5.02558,3.46465 -5.89508,4.46096c-1.89024,2.16541 -4.75124,11.38518 -4.53664,14.61854c0.12809,1.92013 0.48912,2.25482 2.1887,2.02533c1.71345,-0.23136 2.23207,-1.09856 3.28387,-5.48273c1.52653,-6.36855 3.65032,-9.38992 8.57687,-12.20548c2.07491,-1.18632 5.32967,-3.35737 7.23422,-4.82644c3.66654,-2.82807 13.89736,-8.69587 15.55036,-8.91907c0.53911,-0.07279 3.46886,-4.19491 6.51074,-9.16061c5.61486,-9.16679 11.87745,-17.72881 12.53892,-17.14205c1.26549,1.12175 11.87931,19.81459 12.6035,22.1961c0.67123,2.20602 0.47972,4.0684 -0.7883,7.6957c-1.91322,5.47021 -5.17783,21.37106 -4.8643,23.69299c0.15148,1.12182 2.05469,2.10903 6.87079,3.56466c5.88901,1.77897 10.69771,4.06909 18.58899,8.85416l2.31342,1.40205l-1.49889,3.83809c-0.82403,2.11025 -2.75124,7.1555 -4.28347,11.21c-1.53111,4.05536 -3.08062,7.61572 -3.44113,7.91263c-0.3615,0.29705 -2.16341,0.18718 -4.00458,-0.24332c-14.02343,-3.283 -33.1861,0.15212 -31.62782,5.66922c0.59547,2.10828 1.92781,2.02122 8.84767,-0.58217c3.48787,-1.31152 5.46154,-1.50637 11.73475,-1.15667c4.14822,0.23099 9.20005,0.78698 11.22621,1.23488c5.09481,1.12839 7.41786,-0.02886 9.23595,-4.6043c9.65576,-24.29558 9.51862,-23.74932 6.74922,-26.74972c-2.24357,-2.43165 -14.73612,-9.18874 -19.48232,-10.53777c-6.65086,-1.89103 -6.52059,-1.63616 -4.92599,-9.63044c0.78458,-3.93437 2.27482,-9.92164 3.31242,-13.30491c2.37708,-7.7518 2.07296,-8.83081 -6.62309,-23.51421c-6.84405,-11.55711 -9.10265,-14.75766 -10.29582,-14.59655c-0.37559,0.05072 -4.05932,4.65708 -8.18584,10.23644z" data-paper-data="{&quot;wickUUID&quot;:&quot;8148dc6e-e71d-420c-b2ce-aff08f5b0e08&quot;,&quot;wickType&quot;:&quot;path&quot;}" id="8148dc6e-e71d-420c-b2ce-aff08f5b0e08" fill="#000000"/><path d="M375.60415,279.23988c-3.3193,4.64494 -6.07624,8.97076 -6.12698,9.61131c-0.04962,0.64141 0.60235,1.59878 1.44882,2.12827c1.36654,0.85382 2.12896,0.15551 6.74963,-6.18078c6.78092,-9.29699 7.88794,-11.59075 6.30119,-13.05156c-0.66243,-0.60883 -1.45862,-1.07246 -1.77079,-1.03031c-0.31217,0.04215 -3.2837,3.87727 -6.60187,8.52307z" data-paper-data="{&quot;wickUUID&quot;:&quot;b110a000-7eef-49f9-bb6a-343b7734e1d1&quot;,&quot;wickType&quot;:&quot;path&quot;}" id="b110a000-7eef-49f9-bb6a-343b7734e1d1" fill="#000000"/><path d="M389.2599,307.12164c-4.555,2.667 -20.598,15.087 -27.126,21.001l-2.471,2.239l-4.138,-3.105c-2.276,-1.707 -6.154,-4.253 -8.619,-5.657c-2.464,-1.404 -5.136,-3.144 -5.937,-3.868c-1.667,-1.506 -2.804,-1.657 -3.939,-0.522c-0.942,0.942 -0.991,1.64 -0.221,3.129c0.634,1.226 2.856,2.809 8.653,6.164c3.544,2.051 11.023,7.387 12.694,9.056c0.382,0.382 1.049,0.694 1.482,0.694c0.441,0 2.991,-1.962 5.8,-4.463c7.205,-6.414 21.896,-17.843 26.171,-20.359c4.365,-2.569 5.037,-3.639 3.346,-5.33c-1.18,-1.18 -2.269,-0.985 -5.695,1.021z" data-paper-data="{&quot;wickUUID&quot;:&quot;a8e52d45-d421-4c7f-babf-739c302c8c07&quot;,&quot;wickType&quot;:&quot;path&quot;}" id="a8e52d45-d421-4c7f-babf-739c302c8c07" fill="#000000"/><path d="M367.05576,327.04964c-0.456,0.503 -1.052,0.668 -2.011,0.556c-1.129,-0.132 -1.481,0.021 -2.05,0.89c-0.6,0.915 -0.624,1.261 -0.19,2.717c0.811,2.719 1.556,3.842 3.007,4.534c1.259,0.6 1.479,0.602 2.697,0.021c0.781,-0.372 1.597,-1.202 1.984,-2.018c0.867,-1.827 0.887,-5.938 0.034,-6.792c-0.838,-0.837 -2.674,-0.789 -3.471,0.092z" data-paper-data="{&quot;wickUUID&quot;:&quot;3d9f53ce-8f09-46ce-ace1-ed88df3ecd77&quot;,&quot;wickType&quot;:&quot;path&quot;}" id="3d9f53ce-8f09-46ce-ace1-ed88df3ecd77" fill="#000000"/><path d="M351.70929,327.52514c-0.663,0.663 -0.788,1.297 -0.763,3.868c0.036,3.658 0.665,5.646 2.032,6.418c1.996,1.128 4.86,-1.087 5.355,-4.142c0.256,-1.573 -0.649,-2.97 -1.924,-2.97c-0.566,0 -0.732,-0.302 -0.732,-1.327c0,-2.379 -2.344,-3.471 -3.968,-1.847z" data-paper-data="{&quot;wickUUID&quot;:&quot;0e353bcd-1207-48f5-9e34-bdfe18854e0c&quot;,&quot;wickType&quot;:&quot;path&quot;}" id="0e353bcd-1207-48f5-9e34-bdfe18854e0c" fill="#000000"/><path d="M381.66347,335.74828c-3.91,2.049 -10.91,8.947 -10.91,10.751c0,1.498 1.471,2.664 2.907,2.304c0.511,-0.128 2.033,-1.476 3.382,-2.994c2.73,-3.071 6.931,-6.073 9.44,-6.744c0.905,-0.242 1.753,-0.721 1.885,-1.064c0.443,-1.154 0.244,-2.414 -0.486,-3.075c-1.146,-1.037 -3.186,-0.768 -6.218,0.822z" data-paper-data="{&quot;wickUUID&quot;:&quot;a63418cd-f38c-4347-ae42-ff31dc89c7e6&quot;,&quot;wickType&quot;:&quot;path&quot;}" id="a63418cd-f38c-4347-ae42-ff31dc89c7e6" fill="#000000"/><path d="M347.60841,344.28545c-1.293,1.293 -1.796,6.443 -0.885,9.059c0.336,0.965 0.615,2.111 0.62,2.547c0.016,1.321 1.816,4.769 3.41,6.534c2.646,2.928 4.581,3.614 11.443,4.051c6.577,0.42 8.524,0.281 12.269,-0.876c2.912,-0.899 9.708,-4.869 13.498,-7.885l2.621,-2.086l4.07,1.955c4.983,2.393 5.634,3.042 5.362,5.34c-0.255,2.148 -3.351,8.586 -5.446,11.325c-0.88,1.15 -1.597,2.489 -1.594,2.975c0.009,1.394 3.87,4.879 6.956,6.278c2.764,1.253 8.54,2.716 10.782,2.731c1.767,0.012 4.63,-1.46 5.411,-2.783c1.879,-3.181 -0.75,-8.36 -4.818,-9.49c-0.811,-0.225 -3.394,-0.41 -5.74,-0.412c-2.346,-0.001 -4.265,-0.098 -4.265,-0.215c0,-0.118 0.821,-2.006 1.826,-4.197c2.249,-4.907 2.649,-7.725 1.432,-10.092c-1.249,-2.428 -2.61,-3.429 -8.918,-6.551c-6.708,-3.32 -7.199,-3.345 -9.132,-0.467c-0.743,1.107 -2.436,2.54 -4.971,4.207c-7.94,5.222 -10.179,5.872 -18.621,5.402c-5.876,-0.327 -7.808,-1.04 -9.4,-3.47c-1.445,-2.208 -2.304,-6.094 -2.219,-10.036c0.078,-3.568 -0.088,-3.968 -1.864,-4.513c-0.645,-0.197 -1.143,-0.015 -1.827,0.669z" data-paper-data="{&quot;wickUUID&quot;:&quot;8dfbfd3e-a6a8-4dff-b785-f24a027f0a41&quot;,&quot;wickType&quot;:&quot;path&quot;}" id="8dfbfd3e-a6a8-4dff-b785-f24a027f0a41" fill="#000000"/><path d="M345.16372,347.02445c-6.46,3.512 -7.351,7.331 -3.024,12.954c5.68,7.382 6.793,8.886 6.793,9.18c0,0.292 -1.827,-0.013 -7.141,-1.192c-3.607,-0.799 -6.316,0.446 -7.714,3.546c-0.921,2.042 -0.61,3.763 1.041,5.766c1.726,2.094 3.87,2.993 7.159,3.004c2.894,0.01 4.961,-0.644 11.065,-3.496c4.497,-2.101 4.829,-2.921 2.518,-6.215c-0.766,-1.091 -2.039,-2.966 -2.83,-4.166c-0.79,-1.2 -2.906,-4.072 -4.702,-6.381c-4.278,-5.503 -4.415,-5.768 -3.494,-6.787c0.399,-0.442 1.571,-1.232 2.603,-1.756c2.185,-1.108 2.743,-2.375 1.728,-3.924c-0.71,-1.083 -2.543,-1.327 -4.002,-0.533z" data-paper-data="{&quot;wickUUID&quot;:&quot;e1b7c5c3-4bad-48c6-9278-d86721ad8b63&quot;,&quot;wickType&quot;:&quot;path&quot;}" id="e1b7c5c3-4bad-48c6-9278-d86721ad8b63" fill="#000000"/><path d="M366.24511,380.41391c-2.79133,0.59833 -4.4916,1.42745 -6.87193,3.36612c-0.99367,0.80967 -2.83361,2.06248 -4.03494,2.75181l-2.54152,1.73812l2.08577,1.10907c3.49333,0.389 4.95502,1.61694 4.95735,4.58194c0.00167,2.034 -0.9518,4.32771 -2.35747,6.28504c-1.03567,1.442 -0.83055,2.48462 -0.37088,3.29162c0.85033,1.49233 2.83577,2.28701 6.01177,2.29134c1.89767,0.00267 4.23783,0.29932 6.4655,0.85365c5.73833,1.428 7.44845,0.69265 9.62178,-2.88535c3.53633,-5.82133 4.69332,-16.12633 2.07699,-18.88933c-0.51567,-0.54433 -1.99363,-2.14888 -2.77063,-2.68821c-1.148,-0.796 -1.72761,-0.99572 -2.26628,-0.70739c-0.901,0.48233 -2.21581,0.10052 -2.97414,-0.86315c-0.527,-0.67 -1.1225,-0.82758 -2.6255,-0.80458c-0.982,0.01467 -3.1382,0.2973 -4.40587,0.5693z" data-paper-data="{&quot;wickUUID&quot;:&quot;172c1ce9-04a6-4579-b49d-5f5fef01d234&quot;,&quot;wickType&quot;:&quot;path&quot;}" id="172c1ce9-04a6-4579-b49d-5f5fef01d234" fill="#000000"/><path d="M365.7943,375.92365c-0.873,0.188 -2.253,0.244 -3.067,0.124c-1.406,-0.208 -1.615,-0.083 -4.234,2.536c-1.515,1.515 -3.795,3.314 -5.067,3.998c-2.99,1.607 -4.289,2.859 -5.324,5.129c-0.983,2.159 -0.822,4.197 0.431,5.451c0.668,0.668 1.376,0.83 3.881,0.889c1.894,0.045 3.049,0.234 3.025,0.496c-0.022,0.233 -0.067,0.686 -0.099,1.005c-0.033,0.32 -0.571,1.168 -1.195,1.885c-2.362,2.711 -2.952,4.906 -1.879,6.982c0.781,1.509 4.722,5.152 5.847,5.404c0.515,0.116 2.543,0.273 4.507,0.349c1.964,0.077 4.552,0.436 5.753,0.799c1.2,0.362 3.61,0.765 5.356,0.895c3.043,0.226 3.249,0.187 5.022,-0.958c5.495,-3.55 9.63,-15.347 8.259,-23.563c-0.265,-1.588 -0.711,-3.336 -0.992,-3.885c-0.925,-1.812 -4.886,-5.164 -7.624,-6.452c-2.422,-1.139 -3.086,-1.27 -6.848,-1.344c-2.291,-0.046 -4.879,0.071 -5.752,0.26zM376.6183,381.63165c1.154,0.587 2.79,1.761 3.638,2.608c1.301,1.302 1.584,1.891 1.822,3.797c0.655,5.24 -0.802,11.743 -3.563,15.901c-2.063,3.107 -2.748,3.451 -5.878,2.951c-1.416,-0.226 -3.334,-0.679 -4.263,-1.007c-1.013,-0.358 -3.09,-0.596 -5.195,-0.596c-3.357,0 -3.567,-0.052 -4.91,-1.231c-1.706,-1.498 -1.74,-2.048 -0.229,-3.769c1.22,-1.39 2.398,-4.63 2.398,-6.597c0,-2.87 -2.141,-4.669 -5.558,-4.669c-1.115,0 -1.927,-0.162 -1.805,-0.359c0.122,-0.197 1.248,-0.934 2.503,-1.636c1.254,-0.703 3.198,-2.056 4.32,-3.007c2.253,-1.91 3.184,-2.35 6.689,-3.16c3.565,-0.823 7.488,-0.521 10.031,0.774z" data-paper-data="{&quot;wickUUID&quot;:&quot;c1ab12cb-d0a5-4eed-9f3e-bcb17c1bae3b&quot;,&quot;wickType&quot;:&quot;path&quot;}" id="c1ab12cb-d0a5-4eed-9f3e-bcb17c1bae3b" fill="#000000"/><path d="M383.27884,350.50482c-0.412,0.455 -0.829,1.869 -1.035,3.508c-0.331,2.638 -1.003,4.737 -2.712,8.475c-0.96,2.1 -2.906,6.982 -4.449,11.158c-0.624,1.691 -1.408,3.602 -1.741,4.245c-0.899,1.74 -0.765,3.071 0.384,3.824c2.244,1.47 3.604,0.041 5.892,-6.184c1.656,-4.51 3.022,-7.892 4.804,-11.903c2.821,-6.348 3.694,-11.123 2.377,-13.004c-0.773,-1.104 -2.574,-1.165 -3.52,-0.119z" data-paper-data="{&quot;wickUUID&quot;:&quot;9e779a3e-81c1-42a6-bdda-6ad07bb47413&quot;,&quot;wickType&quot;:&quot;path&quot;}" id="9e779a3e-81c1-42a6-bdda-6ad07bb47413" fill="#000000"/><path d="M352.33286,388.05571c-0.992,0.992 -0.789,2.821 0.4,3.599c2.196,1.44 4.639,-1.003 3.199,-3.199c-0.778,-1.189 -2.607,-1.392 -3.599,-0.4z" data-paper-data="{&quot;wickUUID&quot;:&quot;96bcac98-639f-4fcc-b019-ce223423e63b&quot;,&quot;wickType&quot;:&quot;path&quot;}" id="96bcac98-639f-4fcc-b019-ce223423e63b" fill="#000000"/><path d="M305.8019,273.73017c-2.92177,1.84124 -3.45147,2.41902 -4.47868,4.88679c-0.66059,1.58422 -0.99828,3.11441 -0.7792,3.52633c0.21221,0.4004 1.07957,2.23825 1.92537,4.08272c0.84687,1.8454 2.23002,4.33688 3.07511,5.53664c3.16758,4.49895 2.24692,7.13229 -3.6325,10.38525c-4.13786,2.29046 -5.3554,3.92303 -5.13519,6.89087c0.45248,6.09824 5.38422,8.45277 15.92634,7.60438c6.03866,-0.48516 5.16335,-0.18656 15.04504,-5.13833c1.28588,-0.64391 1.99876,-0.75297 2.74841,-0.42053c0.55784,0.2474 1.76582,0.27008 2.68502,0.04946c1.25128,-0.29941 2.51226,-0.0761 5.01541,0.88732c3.88318,1.49376 4.5529,1.51928 5.56914,0.21451c1.37874,-1.77087 0.60497,-3.0772 -2.62742,-4.43575l-1.42732,-0.60003l1.85685,-1.73315c1.99656,-1.86384 3.00832,-4.79675 2.34138,-6.78485c-0.20862,-0.62227 -1.22253,-2.2457 -2.25409,-3.6071c-1.03057,-1.36148 -2.22032,-3.50331 -2.64442,-4.75937c-3.83996,-11.38507 -5.25432,-12.77022 -14.24857,-13.95394c-4.14974,-0.54544 -5.23307,-0.88821 -6.78316,-2.14295c-4.52339,-3.66233 -6.98449,-3.7615 -12.17752,-0.48827zM315.46893,278.48088c2.6244,2.04341 3.0901,2.21142 7.51615,2.71028c2.81315,0.31671 5.46961,0.94086 6.57824,1.54348c1.7409,0.94778 1.98954,1.37957 3.87636,6.72661c1.41462,4.01032 2.59506,6.44564 3.95606,8.16565c1.06665,1.34777 1.84396,2.76915 1.72648,3.15891c-0.42806,1.42057 -5.14308,4.02761 -8.26066,4.56777c-1.65934,0.28657 -3.73241,0.88962 -4.60858,1.33868c-8.05616,4.13445 -9.64056,4.70124 -14.13642,5.05889c-5.08011,0.40301 -8.91885,-0.22166 -10.07796,-1.63978c-0.4368,-0.53515 -0.80667,-1.14144 -0.82206,-1.34887c-0.01539,-0.20743 1.5442,-1.27075 3.46558,-2.36392c3.99869,-2.27412 6.99048,-5.64473 7.55861,-8.51564c0.50678,-2.56252 -0.48246,-5.98872 -2.52206,-8.73232c-1.84359,-2.48038 -4.23301,-7.93854 -3.92291,-8.96229c0.28425,-0.93961 4.45124,-3.67544 5.77434,-3.79066c0.64065,-0.05556 2.27468,0.81692 3.89883,2.08321z" data-paper-data="{&quot;wickUUID&quot;:&quot;243a3f6d-bfc4-4a5a-a7c1-b37b65172475&quot;,&quot;wickType&quot;:&quot;path&quot;}" fill="#000000"/><path d="M320.26475,280.60909c-1.04364,1.3409 -0.88163,2.09198 0.99864,4.62078c1.35466,1.82376 1.89401,2.18684 3.11067,2.09657c2.94889,-0.2188 2.95132,-3.29441 0.00633,-6.18542c-1.84303,-1.81059 -3.00427,-1.96008 -4.11564,-0.53193z" data-paper-data="{&quot;wickUUID&quot;:&quot;b660ddfa-92da-4822-a115-48f00d79a898&quot;,&quot;wickType&quot;:&quot;path&quot;}" fill="#ffffff"/><path d="M322.79928,277.04654c-0.65239,0.34321 -1.26176,1.22572 -1.34208,1.94062c-0.10069,0.89992 0.29482,1.52738 2.66592,4.23836c2.67571,3.0594 4.55143,5.45919 6.7672,8.658c1.05352,1.52222 1.90972,2.58778 2.23729,2.78609c0.72444,0.4386 2.07222,0.35864 2.68352,-0.16001c0.65466,-0.55597 1.1124,-1.75211 0.93565,-2.44493c-0.15535,-0.60717 -3.05005,-4.8476 -5.13013,-7.515c-2.49899,-3.20487 -6.26886,-7.40143 -6.85107,-7.62597c-0.66794,-0.25828 -1.31974,-0.21794 -1.9663,0.12284z" data-paper-data="{&quot;wickUUID&quot;:&quot;ab04a6a4-b1f6-40f8-b113-06e3643c977f&quot;,&quot;wickType&quot;:&quot;path&quot;}" fill="#000000"/><path d="M313.0715,277.19748c-0.70648,0.5197 -1.09059,1.34338 -1.02666,2.20501c0.13882,1.89793 3.52855,5.05276 8.89288,8.27767c1.85886,1.11852 3.71153,2.62657 4.99146,4.0648c1.21118,1.36312 2.35293,1.62836 3.56001,0.82785c0.67369,-0.44808 1.18786,-1.49199 1.12505,-2.28451c-0.09407,-1.17326 -3.00828,-4.18989 -5.7078,-5.90785c-0.70723,-0.4499 -2.06173,-1.31204 -3.00899,-1.9156c-2.19955,-1.39908 -3.92375,-2.79733 -4.90901,-3.98067c-1.19014,-1.43086 -1.54423,-1.66229 -2.5439,-1.66132c-0.66581,0.00027 -0.98233,0.08592 -1.37304,0.37462z" data-paper-data="{&quot;wickUUID&quot;:&quot;a99241be-9c50-4388-a3ca-c968dcedbffc&quot;,&quot;wickType&quot;:&quot;path&quot;}" fill="#000000"/><path d="M370.15141,394.24637c-0.359,0.077 -0.811,0.302 -1.004,0.499c-0.193,0.198 -1.301,1.94 -2.462,3.873c-2.918,4.855 -3.49,6.862 -2.363,8.294c0.457,0.58 1.673,1.003 2.377,0.826c0.956,-0.24 1.624,-1.027 2.043,-2.409c0.249,-0.819 1.138,-2.547 2.366,-4.6c1.081,-1.808 2.01,-3.56 2.064,-3.893c0.25,-1.536 -1.388,-2.94 -3.021,-2.59z" data-paper-data="{&quot;wickUUID&quot;:&quot;870023db-ee09-4441-b10a-634aee7cc46f&quot;,&quot;wickType&quot;:&quot;path&quot;}" fill="#ffffff"/><path d="M370.57927,392.98482c-1.414,1.547 -1.985,2.828 -3.202,7.182c-2.176,7.79 -2.186,7.845 -1.707,8.855c0.712,1.5 2.891,1.907 3.917,0.732c0.216,-0.247 0.956,-2.484 1.644,-4.97c0.688,-2.486 1.426,-5.138 1.641,-5.894c0.215,-0.756 0.802,-1.893 1.306,-2.526c1.713,-2.155 0.94,-4.475 -1.491,-4.475c-0.957,0 -1.242,0.148 -2.108,1.096z" data-paper-data="{&quot;wickUUID&quot;:&quot;d2b9aafe-d804-4590-beb0-d892fa70885b&quot;,&quot;wickType&quot;:&quot;path&quot;}" fill="#000000"/></g><g fill="none" fill-rule="nonzero" stroke="none" stroke-width="1" stroke-linecap="butt" stroke-linejoin="miter" stroke-miterlimit="10" stroke-dasharray="" stroke-dashoffset="0" font-family="sans-serif" font-weight="normal" font-size="12" text-anchor="start" style="mix-blend-mode: normal"/><g id="wick_project_gui" fill="none" fill-rule="nonzero" stroke="none" stroke-width="1" stroke-linecap="butt" stroke-linejoin="miter" stroke-miterlimit="10" stroke-dasharray="" stroke-dashoffset="0" font-family="sans-serif" font-weight="normal" font-size="12" text-anchor="start" style="mix-blend-mode: normal"/></g></svg>