<svg version="1.1" xmlns="http://www.w3.org/2000/svg" xmlns:xlink="http://www.w3.org/1999/xlink" width="1260" height="594" viewBox="0,0,1260,594"><g transform="translate(202.32,11.88) scale(1.188,1.188)"><g id="wick_project_bg" fill-opacity="0" fill="#ffffff" fill-rule="nonzero" stroke="none" stroke-width="1" stroke-linecap="butt" stroke-linejoin="miter" stroke-miterlimit="10" stroke-dasharray="" stroke-dashoffset="0" font-family="none" font-weight="none" font-size="none" text-anchor="none" style="mix-blend-mode: normal"><rect x="0" y="0" width="720" height="480"/></g><g data-paper-data="{&quot;wickUUID&quot;:&quot;c7058956-e5d3-4c05-aae1-f9828bdf85c8&quot;,&quot;wickType&quot;:&quot;clipsandpaths&quot;}" fill="none" fill-rule="evenodd" stroke="none" stroke-width="1" stroke-linecap="butt" stroke-linejoin="miter" stroke-miterlimit="10" stroke-dasharray="" stroke-dashoffset="0" font-family="none" font-weight="none" font-size="none" text-anchor="none" style="mix-blend-mode: normal"><path d="M381.90597,214.34192c-1.00833,0.723 -2.91624,1.87832 -4.13191,2.49565c-2.71433,1.37767 -3.43432,2.07046 -3.43432,3.29913c0,0.53233 -0.43594,1.48717 -0.88394,2.00717l-0.21813,0.51965l-4.28818,-0.01114c-4.105,0 -5.00341,0.38196 -5.14074,1.00729c-0.88533,4.039 -1.39525,5.75258 -2.30692,8.60425c-0.58333,1.82533 -1.33546,3.87986 -1.85379,4.90919c-0.98367,1.95433 -1.39956,2.12943 -3.81856,2.12943c-1.15333,0 -1.96098,0.76715 -1.96098,1.85482c0,2.24067 -1.6622,3.15059 -4.9432,2.68592c-1.191,-0.16867 -2.94433,0.42115 -3.212,0.52382c-1.91433,0.73467 -1.74709,8.89785 0.25424,13.20885c0.91167,1.96367 4.9757,6.11051 7.02937,7.09751c1.11333,0.53467 2.94601,0.95472 4.17268,0.96572c1.66133,0.015 2.69623,-0.37459 8.61323,-3.27726c7.61267,-3.73433 8.90498,-4.56327 14.01265,-8.9396c3.80933,-3.26433 5.77028,-5.4999 8.00728,-9.18257l1.37732,-2.39782l-0.32602,-5.46252c-0.181,-2.908 -0.63149,-7.29768 -0.99216,-9.68101c-0.76067,-5.02567 -2.35404,-12.75431 -2.68104,-13.04898c-0.12367,-0.111 -2.26655,-0.0305 -3.27488,0.6925z" data-paper-data="{&quot;wickUUID&quot;:&quot;1dd17ccf-bd92-4963-b111-3e994ad253e8&quot;,&quot;wickType&quot;:&quot;path&quot;}" id="1dd17ccf-bd92-4963-b111-3e994ad253e8" fill="#8000ff"/><path d="M360.95687,176.3943c-6.77333,1.43067 -9.13669,2.50701 -12.09769,5.52134c-1.536,1.56367 -2.95287,3.45292 -3.8092,5.18559c-1.13,2.287 -1.35025,3.23482 -1.48892,6.15882c-0.17133,3.61233 0.58506,8.54309 1.66773,11.00176c0.548,1.24367 4.84713,5.95069 5.16013,5.63769c0.06133,-0.061 1.00382,-1.9314 0.45215,-3.14807c-1.165,-2.56933 -1.36352,-2.59087 -0.51585,-4.45687c1.182,-2.60367 1.99558,-2.99472 3.94558,-1.28272c1.67367,1.46933 2.27483,3.32719 2.47316,6.78952c0.19133,3.34633 -0.1132,3.89489 -1.80187,4.26589l-1.07857,0.95061l1.88182,1.70156c0.87267,0.72167 2.3656,1.70779 3.0816,2.06212c1.28767,0.638 1.6235,0.69578 2.4415,0.05211c1.037,-0.81567 1.80349,-0.82269 2.78716,-0.02602c0.75667,0.61233 1.2057,0.50865 4.16403,-0.26735c6.522,-1.711 12.98409,-5.87908 17.83642,-11.47541c3.621,-4.17633 4.77268,-6.56073 5.00268,-10.73673c0.108,-1.95733 -0.0324,-4.84516 -0.27073,-6.21383c-0.749,-4.30167 -3.66376,-8.40254 -7.54043,-10.57821l-2.49367,-1.38258l-9.5084,0.0352c-5.182,0.02133 -9.92196,0.12825 -10.28863,0.20558zM382.69183,197.48137c0.62333,0.62333 0.85106,0.39439 0.85106,0.70606c0,0.78133 -1.97008,2.58827 -2.77708,2.58827c-0.91333,0 -1.40328,0.70401 -1.81795,2.63768c-0.46,2.14533 -1.03887,3.39611 -2.0572,3.65178c-1.11433,0.27933 -1.64906,0.15425 -1.91106,-0.88908c-0.61333,-2.44367 1.05559,-6.73035 3.41659,-8.86335c1.122,-1.014 0.8568,-0.79613 2.1488,-0.79613c1.29833,0 1.18651,0.00444 2.14684,0.96477zM368.50152,201.0541c1.08,1.179 1.72168,2.75473 2.30835,6.01573c0.49667,2.758 -0.04495,3.26987 -2.74395,2.4612c-1.57233,-0.471 -1.29815,-0.39472 -2.34048,-2.88972c-1.613,-3.86 -1.5408,-5.16743 0.5672,-6.31143c1.47633,-0.801 1.02755,-0.56578 2.20888,0.72422z" data-paper-data="{&quot;wickUUID&quot;:&quot;2172af30-652b-4311-b709-f08696e6cdca&quot;,&quot;wickType&quot;:&quot;path&quot;}" id="2172af30-652b-4311-b709-f08696e6cdca" fill="#ffffff"/><path d="M380.22548,114.7192c-4.279,0.449 -11.66367,1.59436 -13.76834,2.13269c-4.09167,1.04667 -13.43688,4.28673 -14.92855,5.17473c-1.86833,1.113 -3.64331,2.94977 -3.82564,3.84677c-0.41767,2.05533 -0.64552,5.25778 -0.83852,12.44011c-0.19467,7.24533 -0.22413,7.73932 -0.83646,8.41565c-0.55333,0.611 0.12568,0.16827 -1.16232,0.0446c-1.568,-0.15067 -1.84992,-0.33345 -4.63192,-2.66812c-1.52767,-1.282 -2.53649,-1.10993 -3.23349,-0.4876c-1.20333,1.07467 -8.99806,11.72677 -10.02906,13.6851c-0.34367,0.653 0.1525,2.01855 3.9425,7.08088c2.31867,3.097 5.93308,8.12705 8.01908,11.15938l4.10177,5.78002l3.20597,-2.41442c2.96933,-2.97667 5.18893,-4.18311 10.18826,-5.44578c5.09967,-1.288 10.41469,-1.74666 17.22402,-1.50099c6.68133,0.24133 8.5443,0.54399 11.14263,1.91732c2.54367,1.34467 5.66588,4.31035 7.13355,6.74702c1.526,2.53267 2.91893,6.6338 3.15926,9.2048l0.9607,2.69591l2.6013,-2.13027c2.19033,-2.10333 4.36477,-3.61002 7.56777,-5.22235c2.35833,-1.18733 6.07466,-2.37174 7.40699,-2.37174c0.607,0 1.56016,-0.84208 1.67549,-1.21775c0.49767,-1.62267 0.93261,-5.94998 0.98661,-9.87398l-0.20249,-5.06756l-7.84165,-2.85683c-7.03567,-2.49433 -7.62014,-2.63534 -10.97281,-2.84301c-4.54133,-0.281 -4.37216,0.02064 -5.00883,-3.90136c-1.13867,-7.01533 -1.80094,-13.67764 -2.40694,-23.89131c-0.81267,-13.689 -1.03793,-16.69936 -1.24493,-17.44003c-0.14133,-0.50667 -1.35006,-1.21978 -4.00806,-1.17345c-1.68367,0.02933 -3.73422,0.11424 -4.37589,0.18157z" data-paper-data="{&quot;wickUUID&quot;:&quot;124f747e-c2d0-48d9-96db-6cbe3f2a1c98&quot;,&quot;wickType&quot;:&quot;path&quot;}" id="124f747e-c2d0-48d9-96db-6cbe3f2a1c98" fill="#ff8000"/><path d="M359.25573,172.24816c-8.556,1.798 -11.013,3.171 -15.57,8.696c-4.155,5.036 -5.463,10.446 -4.318,17.851c1.156,7.474 1.727,8.507 7.846,14.212c8.516,7.938 11.087,9.32 18.912,10.163c6.501,0.701 8.493,0.073 8.506,-2.682c0.005,-1.192 0.284,-1.453 3.27,-3.058c1.795,-0.966 4.284,-2.567 5.53,-3.559c3.694,-2.941 8.797,-9.057 10.501,-12.584c1.41,-2.916 1.539,-3.505 1.684,-7.694c0.138,-3.964 0.022,-4.972 -0.925,-8.001c-1.721,-5.512 -4.391,-9.019 -8.988,-11.809c-2.157,-1.31 -3.211,-1.653 -6.106,-1.985c-5.903,-0.679 -16.037,-0.455 -20.342,0.45zM382.96473,177.90016c2.779,1.527 4.902,3.841 6.343,6.914c0.959,2.045 1.128,3.024 1.243,7.209c0.161,5.853 -0.345,7.293 -4.191,11.909c-6.514,7.821 -13.433,11.73 -23.442,13.244c-2.207,0.334 -4.905,-0.986 -8.249,-4.035c-1.688,-1.54 -4.24,-3.809 -5.671,-5.042c-2.92,-2.517 -3.67,-3.932 -4.505,-8.496c-1.301,-7.108 -0.37,-11.61 3.278,-15.84c3.338,-3.872 5.294,-5.042 10.438,-6.242c4.053,-0.946 5.16,-1.024 13.469,-0.94l9.054,0.092l2.233,1.227z" data-paper-data="{&quot;wickUUID&quot;:&quot;97917629-821e-4a97-8cb1-312565b95f3c&quot;,&quot;wickType&quot;:&quot;path&quot;}" id="97917629-821e-4a97-8cb1-312565b95f3c" fill="#000000"/><path d="M351.35936,200.0582c-0.939,0.547 -2,2.585 -2,3.84c0.001,1.329 2.198,5.768 3.554,7.18c1.173,1.222 2.286,1.443 3.632,0.722c0.691,-0.369 0.814,-0.899 0.811,-3.474c-0.008,-5.706 -3.093,-9.96 -5.997,-8.268z" data-paper-data="{&quot;wickUUID&quot;:&quot;e81a02cf-91d8-4376-ae8f-e50d6286c4d9&quot;,&quot;wickType&quot;:&quot;path&quot;}" id="e81a02cf-91d8-4376-ae8f-e50d6286c4d9" fill="#000000"/><path d="M365.2072,200.4762c-1.498,1.178 -1.462,3.222 0.115,6.556c1.02,2.157 1.471,2.668 2.716,3.079c1.64,0.541 2.921,0.14 3.38,-1.058c0.346,-0.899 -0.854,-5.998 -1.726,-7.339c-1.474,-2.266 -2.735,-2.614 -4.485,-1.238z" data-paper-data="{&quot;wickUUID&quot;:&quot;887fa9c4-127f-4baf-b932-72faa59cd41f&quot;,&quot;wickType&quot;:&quot;path&quot;}" id="887fa9c4-127f-4baf-b932-72faa59cd41f" fill="#000000"/><path d="M379.02377,196.21725c-2.241,0.908 -4.819,5.703 -4.819,8.965c0,1.214 1.192,2.422 2.389,2.422c1.224,0 2.106,-1.172 2.693,-3.579c0.629,-2.578 1.055,-3.159 2.315,-3.159c0.981,0 2.288,-1.387 2.288,-2.429c0,-0.306 -0.465,-1.022 -1.033,-1.59c-1.054,-1.054 -2.286,-1.257 -3.833,-0.63z" data-paper-data="{&quot;wickUUID&quot;:&quot;098b460c-bbec-4db1-ab44-af37a13a2158&quot;,&quot;wickType&quot;:&quot;path&quot;}" id="098b460c-bbec-4db1-ab44-af37a13a2158" fill="#000000"/><path d="M385.36432,109.77773c-8.889,0.465 -18.336,2.149 -26.455,4.716c-7.434,2.351 -10.169,3.646 -12.779,6.052c-2.566,2.365 -2.931,3.255 -3.237,7.891c-0.492,7.444 -0.812,10.948 -1.002,10.948c-0.104,0 -0.671,-0.379 -1.26,-0.842c-1.33,-1.046 -1.852,-1.05 -3.817,-0.033c-2.341,1.213 -5.905,5.142 -9.581,10.561c-1.806,2.663 -3.915,5.632 -4.686,6.598c-0.771,0.965 -1.402,2.227 -1.402,2.804c0,0.693 1.009,2.218 2.975,4.496c3.651,4.232 6.132,7.587 11.779,15.927c2.404,3.55 4.728,6.645 5.164,6.879c1.959,1.048 3.975,-0.852 3.17,-2.987c-0.566,-1.503 -10.448,-15.75 -14.073,-20.29c-1.716,-2.149 -3.12,-4.045 -3.12,-4.213c0,-0.618 7.431,-11.11 9.336,-13.181l1.967,-2.139l1.613,1.516c2.362,2.221 3.538,2.905 4.991,2.905c2.111,0 2.307,-0.519 2.307,-6.129c0,-2.815 0.194,-7.562 0.431,-10.548c0.427,-5.379 0.444,-5.442 1.79,-6.601c0.747,-0.644 2.079,-1.554 2.96,-2.021c1.76,-0.933 11.898,-4.278 15.242,-5.028c3.731,-0.838 14.107,-2.098 17.272,-2.098h3.073l0.257,2.001c0.141,1.1 0.536,7.116 0.876,13.37c0.341,6.253 0.733,12.412 0.87,13.686c0.916,8.462 2.01,15.506 2.535,16.317c0.548,0.848 0.958,0.948 3.867,0.952c2.675,0.003 4.004,0.274 7.465,1.525c2.316,0.837 5.958,2.115 8.094,2.839l3.883,1.317l0.009,4c0.008,3.535 -0.394,7.533 -1.049,10.423c-0.158,0.698 -0.518,0.948 -1.365,0.95c-3.023,0.006 -9.064,2.685 -13.083,5.803c-3.224,2.501 -8.288,8.5 -10.208,12.093c-1.367,2.559 -1.384,2.649 -0.674,3.732c0.515,0.786 1.091,1.109 1.978,1.109c1.107,0 1.529,-0.423 3.674,-3.685c5.308,-8.072 12.546,-13.527 18.427,-13.888c3.746,-0.23 4.347,-0.434 5.001,-1.699c1.05,-2.033 2.458,-12.431 2.3,-16.989c-0.176,-5.12 -0.319,-5.292 -6.038,-7.253c-2.316,-0.794 -6.39,-2.223 -9.054,-3.176c-3.318,-1.187 -5.536,-1.733 -7.045,-1.735c-2.51,-0.003 -2.263,0.446 -3.007,-5.477c-0.983,-7.818 -1.59,-16.367 -2.449,-34.493c-0.364,-7.668 0.035,-7.321 -7.922,-6.905z" data-paper-data="{&quot;wickUUID&quot;:&quot;2b04d0ee-27ab-40ee-ad70-954109e42018&quot;,&quot;wickType&quot;:&quot;path&quot;}" id="2b04d0ee-27ab-40ee-ad70-954109e42018" fill="#000000"/><path d="M384.97294,207.84509c-0.833,0.832 -0.852,3.323 -0.049,6.436c1.602,6.211 3.23,16.575 3.45,21.958l0.232,5.685l-2.042,3.36c-1.675,2.757 -2.988,4.183 -7.306,7.937c-4.971,4.322 -5.691,4.786 -12.926,8.326c-4.214,2.062 -8.042,3.748 -8.507,3.748c-2.889,0 -5.19,-0.973 -7.619,-3.221c-1.368,-1.267 -2.969,-3.164 -3.557,-4.218c-1.899,-3.397 -2.465,-10.184 -1.068,-12.795c0.47,-0.879 0.693,-0.92 3.619,-0.673c2.756,0.233 3.214,0.167 3.954,-0.574c0.461,-0.46 0.838,-1.229 0.838,-1.707c0,-1.772 0.767,-2.499 2.646,-2.505c0.976,-0.004 1.994,-0.146 2.261,-0.316c1.277,-0.814 4.017,-8.634 5.2,-14.841c1.159,-6.082 1.118,-7.376 -0.26,-8.279c-0.978,-0.64 -1.222,-0.653 -2.176,-0.115c-0.962,0.543 -1.198,1.219 -2.241,6.417c-1.182,5.897 -2.125,9.258 -3.182,11.35c-0.463,0.915 -0.88,1.158 -1.992,1.158c-1.731,0 -3.526,1.343 -4.314,3.229c-0.583,1.395 -0.602,1.403 -3.455,1.403c-2.437,0 -2.998,0.143 -3.735,0.948c-2.463,2.693 -3.423,7.075 -2.708,12.363c0.694,5.138 2.327,8.361 6.192,12.217c3.337,3.331 5.754,4.522 10.186,5.024c2.41,0.273 2.754,0.188 6.834,-1.682c2.363,-1.083 4.8,-2.161 5.415,-2.394c2.988,-1.135 8.825,-4.963 12.956,-8.497c5.936,-5.078 8.065,-7.492 10.036,-11.374c2.577,-5.077 2.544,-8.479 -0.232,-23.87c-0.689,-3.822 -1.529,-8.018 -1.866,-9.325c-0.338,-1.308 -0.614,-2.776 -0.614,-3.264c0,-1.109 -1.419,-2.571 -2.496,-2.571c-0.447,0 -1.11,0.298 -1.474,0.662z" data-paper-data="{&quot;wickUUID&quot;:&quot;3df29c85-580c-4c15-bbaa-04669029903a&quot;,&quot;wickType&quot;:&quot;path&quot;}" id="3df29c85-580c-4c15-bbaa-04669029903a" fill="#000000"/><path d="M338.7959,243.57398c-0.096,0.097 -2.07,0.385 -4.386,0.64c-5.489,0.606 -13.332,2.085 -14.002,2.64c-0.996,0.827 -0.519,2.551 2.211,7.977c1.506,2.992 2.735,5.576 2.732,5.742c-0.003,0.165 -0.621,0.7 -1.374,1.187c-3.082,1.995 -3.724,6.203 -1.149,7.535c1.553,0.803 2.154,0.794 4.911,-0.075c5.127,-1.617 5.351,-3.936 1.214,-12.6c-1.515,-3.173 -2.754,-5.91 -2.754,-6.081c0,-0.172 2.226,-0.628 4.948,-1.014c9.446,-1.342 10.655,-1.577 11.274,-2.196c0.905,-0.906 0.792,-2.968 -0.193,-3.495c-0.802,-0.429 -3.089,-0.603 -3.432,-0.26z" data-paper-data="{&quot;wickUUID&quot;:&quot;90f91f76-ea82-4b42-9303-ed59e1821154&quot;,&quot;wickType&quot;:&quot;path&quot;}" id="90f91f76-ea82-4b42-9303-ed59e1821154" fill="#000000"/><path d="M349.95069,265.76032c-0.681,0.752 -0.823,1.691 -0.944,6.211c-0.125,4.675 -0.029,5.628 0.785,7.794c1.371,3.653 2.649,4.882 5.463,5.254c1.274,0.169 6.675,0.178 12.002,0.021c8.642,-0.255 17.612,0.043 18.173,0.604c0.113,0.113 -1.122,1.064 -2.743,2.113c-1.622,1.049 -3.173,2.326 -3.447,2.838c-0.843,1.576 -0.219,4.223 1.32,5.598c1.267,1.132 1.533,1.197 4.132,1.011c5.081,-0.365 7.592,-2.439 10.392,-8.583c2.354,-5.166 1.719,-6.021 -5.298,-7.142c-8.123,-1.298 -10.25,-1.408 -22.342,-1.151l-12.025,0.256l-0.714,-1.868c-0.533,-1.397 -0.713,-3.203 -0.713,-7.158c0,-4.59 -0.102,-5.382 -0.77,-5.987c-1.048,-0.948 -2.307,-0.875 -3.271,0.189z" data-paper-data="{&quot;wickUUID&quot;:&quot;366509ec-83e3-4f32-a72b-331e7626106a&quot;,&quot;wickType&quot;:&quot;path&quot;}" id="366509ec-83e3-4f32-a72b-331e7626106a" fill="#000000"/><path d="M426.9172,162.88252c-0.115,0.18633 -0.85153,2.30683 -0.87986,3.62883c-0.04233,1.989 0.22386,3.07629 0.92953,4.44862c0.884,1.71933 2.79199,3.38129 3.94466,3.38129c0.365,0 1.51325,0.70388 2.28625,1.41621c1.56967,1.44667 4.06728,2.0681 7.28528,2.0591c3.62833,-0.01067 6.09655,-2.33304 5.67155,-5.52371c-0.19533,-1.46833 0.44096,-3.23097 1.84063,-5.1353c0.98833,-1.34467 0.69546,-2.43989 -0.96821,-3.28856l-2.23685,-1.01729l-5.17118,2.54436c-2.778,1.375 -4.94829,2.42169 -5.31262,2.42169c-1.30233,0 -2.52808,-0.96257 -4.07841,-2.8669c-1.67267,-2.05467 -2.97277,-2.61534 -3.31077,-2.06834z" data-paper-data="{&quot;wickUUID&quot;:&quot;4a56faa7-6b9d-4f71-a1ee-73f7800e833e&quot;,&quot;wickType&quot;:&quot;path&quot;}" id="4a56faa7-6b9d-4f71-a1ee-73f7800e833e" fill="#000000"/><path d="M424.69433,158.8768c-2.237,1.506 -2.694,2.845 -2.694,7.88c0,4.115 0.087,4.583 1.261,6.738c0.693,1.274 1.315,2.43 1.382,2.569c0.067,0.139 -1.588,0.865 -3.679,1.613c-2.091,0.748 -7.735,3.323 -12.542,5.723c-6.629,3.309 -9.86,5.209 -13.373,7.862c-3.925,2.965 -4.651,3.695 -4.758,4.784c-0.159,1.625 1.128,2.929 2.53,2.563c0.531,-0.139 2.8,-1.63 5.043,-3.314c6.333,-4.753 17.55,-10.513 27.275,-14.005l4.403,-1.581l3.294,1.111c6.164,2.081 10.173,1.902 14.242,-0.637c2.257,-1.407 3.326,-3.358 3.663,-6.682c0.156,-1.536 0.583,-2.78 1.261,-3.675c2.191,-2.892 1.444,-6.609 -1.881,-9.355c-3.296,-2.722 -5.597,-2.602 -11.569,0.604c-1.924,1.033 -3.709,1.881 -3.967,1.885c-0.258,0.004 -0.986,-0.738 -1.617,-1.648c-1.195,-1.725 -4.075,-3.398 -5.848,-3.398c-0.548,0 -1.639,0.433 -2.426,0.963zM428.02833,163.3488c0.39,0.209 1.357,1.247 2.149,2.307c0.905,1.21 1.981,2.104 2.896,2.406c1.37,0.452 1.767,0.325 6.761,-2.154l5.306,-2.635l1.479,0.795c1.936,1.04 2.051,1.967 0.47,3.769c-1.164,1.325 -1.297,1.756 -1.297,4.219c0,2.387 -0.137,2.869 -1.056,3.721c-1.828,1.694 -4.178,2.089 -7.684,1.292c-2.464,-0.56 -3.206,-0.924 -3.916,-1.922c-0.482,-0.677 -1.252,-1.231 -1.711,-1.231c-1.707,0 -3.188,-1.199 -4.101,-3.321c-0.942,-2.19 -1.069,-3.406 -0.632,-6.049c0.286,-1.73 0.308,-1.75 1.336,-1.197z" data-paper-data="{&quot;wickUUID&quot;:&quot;52af8763-7823-4283-9791-a8550cfaa23b&quot;,&quot;wickType&quot;:&quot;path&quot;}" id="52af8763-7823-4283-9791-a8550cfaa23b" fill="#000000"/><path d="M303.24755,147.9774c-2.16833,1.448 -2.49217,1.83293 -2.83717,4.61026c-0.33567,2.704 -0.95229,3.8879 -2.64462,5.08057c-1.69767,1.19667 -2.07409,2.45284 -1.77209,4.06384c0.23833,1.27033 2.93399,3.93116 4.37899,4.33516c1.732,0.48367 5.36434,0.20766 9.03801,-0.72601c5.333,-1.355 6.92172,-2.3311 7.70072,-4.3801c0.802,-2.10867 0.65761,-4.05902 -0.87539,-6.67435c-1.19633,-2.04133 -2.07144,-2.88307 -5.42011,-4.9344c-0.87467,-0.536 -2.14069,-1.5567 -2.31569,-2.0167c-0.50033,-1.31567 -2.78798,-1.00394 -5.25265,0.64173z" data-paper-data="{&quot;wickUUID&quot;:&quot;6c25130c-8afe-4f1a-9f0c-f594b82d3e0e&quot;,&quot;wickType&quot;:&quot;path&quot;}" id="6c25130c-8afe-4f1a-9f0c-f594b82d3e0e" fill="#000000"/><path d="M301.27386,143.95881c-4.078,2.662 -4.819,3.648 -5.195,6.906c-0.273,2.369 -0.465,2.766 -1.947,4.038c-2.095,1.798 -2.887,3.347 -2.876,5.622c0.019,3.648 2.518,7.294 6.189,9.031c3.035,1.436 7.307,1.512 12.19,0.218c5.76,-1.526 5.753,-1.528 11.13,3.299c2.579,2.315 7.178,5.858 10.22,7.873c3.042,2.015 6.363,4.384 7.38,5.265c2.033,1.761 3.338,2.007 4.402,0.831c1.969,-2.175 0.424,-3.943 -8.648,-9.896c-3.403,-2.233 -7.762,-5.512 -9.686,-7.287c-1.924,-1.775 -3.735,-3.442 -4.024,-3.705c-0.415,-0.378 -0.263,-1.093 0.726,-3.411c0.688,-1.614 1.256,-3.692 1.263,-4.618c0.022,-3.289 -4.293,-9.931 -7.634,-11.751c-0.775,-0.422 -1.788,-1.357 -2.252,-2.076c-1.156,-1.794 -2.498,-2.373 -5.525,-2.38c-2.377,-0.006 -2.821,0.153 -5.713,2.041zM308.68486,148.01581c0.186,0.743 0.975,1.41 2.701,2.281c2.473,1.248 3.878,2.823 5.384,6.036c0.704,1.502 0.705,1.691 0.008,3.9c-0.627,1.99 -0.953,2.417 -2.288,2.997c-2.704,1.174 -9.049,2.668 -11.369,2.677c-3.8,0.014 -6.821,-2.38 -6.821,-5.406c0,-1.044 0.348,-1.523 1.867,-2.568c2.036,-1.4 2.347,-2.026 2.724,-5.477c0.236,-2.158 0.382,-2.398 2.357,-3.893c2.642,-1.999 5.012,-2.238 5.437,-0.547z" data-paper-data="{&quot;wickUUID&quot;:&quot;440f0685-8aec-430d-ade2-51e10916f86c&quot;,&quot;wickType&quot;:&quot;path&quot;}" id="440f0685-8aec-430d-ade2-51e10916f86c" fill="#000000"/><path d="M444.66643,170.90705c-2.028,1.055 -2.667,2.251 -1.975,3.695c0.949,1.98 3.397,1.847 5.706,-0.31c1.3,-1.215 1.356,-2.259 0.182,-3.433c-1.1,-1.099 -1.724,-1.091 -3.913,0.048z" data-paper-data="{&quot;wickUUID&quot;:&quot;fbc74ba3-1dba-47b8-b3e0-17edbba29888&quot;,&quot;wickType&quot;:&quot;path&quot;}" fill="#ffffff"/><path d="M296.51492,153.88646c-1.307,1.308 -1.116,2.237 0.868,4.221c1.952,1.952 3.177,2.24 4.385,1.032c1.208,-1.208 0.92,-2.433 -1.032,-4.385c-1.984,-1.984 -2.913,-2.175 -4.221,-0.868z" data-paper-data="{&quot;wickUUID&quot;:&quot;1a7e9817-6b14-4f05-94f4-bf8eff4b739a&quot;,&quot;wickType&quot;:&quot;path&quot;}" fill="#ffffff"/><path d="M310.15463,148.5478c-1.005,0.404 -1.975,3.137 -2.158,6.083c-0.223,3.566 0.654,6.125 2.234,6.521c1.958,0.492 3.525,-1.551 2.752,-3.585c-0.532,-1.398 -0.475,-3.125 0.161,-4.927c0.726,-2.058 0.69,-2.412 -0.345,-3.447c-0.849,-0.849 -1.65,-1.044 -2.644,-0.645z" data-paper-data="{&quot;wickUUID&quot;:&quot;28f316f5-818e-4b02-b2ab-d42285dae589&quot;,&quot;wickType&quot;:&quot;path&quot;}" fill="#ffffff"/><path d="M445.86195,167.05354c-0.852,0.784 -2.593,1.993 -3.867,2.688c-3.27,1.783 -3.884,2.349 -3.884,3.582c0,1.394 0.962,2.408 2.285,2.408c1.481,0 6.9,-3.152 8.765,-5.098c1.212,-1.264 1.446,-1.667 1.446,-2.48c0,-0.718 -0.202,-1.173 -0.777,-1.748c-1.211,-1.211 -2.104,-1.065 -3.968,0.648z" data-paper-data="{&quot;wickUUID&quot;:&quot;30581e53-0e10-47c6-9013-a1188a74f4a5&quot;,&quot;wickType&quot;:&quot;path&quot;}" fill="#000000"/><path d="M310.88072,146.98433c-1.252,0.569 -1.778,1.58 -2.264,4.357c-0.371,2.119 -0.1,3.563 1.057,5.646c0.406,0.731 1.01,2.021 1.343,2.866c0.948,2.407 2.127,3.039 4.118,2.207c1.367,-0.572 1.841,-1.694 1.471,-3.481c-0.164,-0.788 -0.6,-1.877 -0.968,-2.42c-0.635,-0.935 -0.655,-1.075 -0.383,-2.606c0.348,-1.962 0.247,-4.586 -0.209,-5.421c-0.403,-0.736 -1.824,-1.647 -2.561,-1.64c-0.292,0.002 -1.014,0.224 -1.604,0.492z" data-paper-data="{&quot;wickUUID&quot;:&quot;40acdf91-44ad-4094-8dfd-bb9eddf55e28&quot;,&quot;wickType&quot;:&quot;path&quot;}" fill="#000000"/><path d="M297.4423,152.04809c-1.174,1.174 -1.068,2.227 0.36,3.589c3.254,3.104 5.202,4.408 6.585,4.408c0.911,0 2.115,-1.405 2.115,-2.467c0,-0.888 -0.963,-2.319 -1.561,-2.319c-0.141,0 -0.895,-0.582 -1.674,-1.293c-3.139,-2.866 -4.447,-3.296 -5.825,-1.918z" data-paper-data="{&quot;wickUUID&quot;:&quot;22bc6c88-9bf1-4dbf-8fa0-e00136761ea2&quot;,&quot;wickType&quot;:&quot;path&quot;}" fill="#000000"/></g><g fill="none" fill-rule="nonzero" stroke="none" stroke-width="1" stroke-linecap="butt" stroke-linejoin="miter" stroke-miterlimit="10" stroke-dasharray="" stroke-dashoffset="0" font-family="sans-serif" font-weight="normal" font-size="12" text-anchor="start" style="mix-blend-mode: normal"/><g id="wick_project_gui" fill="none" fill-rule="nonzero" stroke="none" stroke-width="1" stroke-linecap="butt" stroke-linejoin="miter" stroke-miterlimit="10" stroke-dasharray="" stroke-dashoffset="0" font-family="sans-serif" font-weight="normal" font-size="12" text-anchor="start" style="mix-blend-mode: normal"/></g></svg>