<svg version="1.1" xmlns="http://www.w3.org/2000/svg" xmlns:xlink="http://www.w3.org/1999/xlink" width="1260" height="594" viewBox="0,0,1260,594"><g transform="translate(202.32,11.88) scale(1.188,1.188)"><g id="wick_project_bg" fill-opacity="0" fill="#ffffff" fill-rule="nonzero" stroke="none" stroke-width="1" stroke-linecap="butt" stroke-linejoin="miter" stroke-miterlimit="10" stroke-dasharray="" stroke-dashoffset="0" font-family="none" font-weight="none" font-size="none" text-anchor="none" style="mix-blend-mode: normal"><rect x="0" y="0" width="720" height="480"/></g><g data-paper-data="{&quot;wickUUID&quot;:&quot;9aa2f761-808c-41c1-9ace-99171db71b15&quot;,&quot;wickType&quot;:&quot;clipsandpaths&quot;}" fill="none" fill-rule="evenodd" stroke="none" stroke-width="1" stroke-linecap="butt" stroke-linejoin="miter" stroke-miterlimit="10" stroke-dasharray="" stroke-dashoffset="0" font-family="none" font-weight="none" font-size="none" text-anchor="none" style="mix-blend-mode: normal"><path d="M376.98547,187.86077c-4.16833,1.11133 -8.75574,3.40947 -8.75574,4.3848c0,0.31667 -0.14339,0.82886 -0.59572,1.25386c-1.06367,0.999 -2.96394,1.15465 -6.54794,0.55832l-3.11069,-0.3624l-1.11295,2.78331c-1.24367,4.09467 -1.69373,6.64477 -2.07306,11.58644c-0.52033,6.77933 -0.21914,23.23154 0.49586,27.29887c0.97967,5.57467 2.99864,9.15196 5.60131,10.25229c6.21233,2.62633 11.16459,3.37936 16.75626,2.41736c1.53667,-0.26433 4.20126,-0.66626 5.39293,-0.79359c3.486,-0.37167 5.09673,-1.40229 10.53273,-6.77162l3.85419,-3.88813l-1.20442,-3.04276c-0.641,-1.273 -2.0891,-3.86568 -3.2501,-5.82601c-4.00867,-6.768 -5.91827,-11.26094 -7.9956,-18.84061c-1.17767,-4.29733 -3.11499,-13.54308 -3.83799,-18.29708c-0.23,-1.51233 -0.84365,-3.25299 -0.94932,-3.23699c-0.10567,0.016 -2.00808,0.20627 -3.19975,0.52394z" data-paper-data="{&quot;wickUUID&quot;:&quot;4c6c8517-0937-47fe-800f-a8fba660e017&quot;,&quot;wickType&quot;:&quot;path&quot;}" id="4c6c8517-0937-47fe-800f-a8fba660e017" fill="#8000ff"/><path d="M371.19907,145.78146c-2.05533,3.329 -3.19591,4.70336 -4.60558,4.70336c-2.20067,0 -2.51458,-1.06267 -2.51458,-4.043c0,-1.01767 -0.43679,-2.20242 -0.52312,-2.20242c-0.08667,0 -1.88987,0.46527 -2.87954,0.90294c-1.696,0.75 -2.03582,1.12923 -3.17082,3.52056c-0.662,1.395 -1.25005,2.87676 -1.37138,3.38176c-0.73767,3.069 -1.97487,4.26743 -3.79154,3.3281c-1.02367,-0.52933 -1.93092,-1.72291 -1.95192,-2.94658c-0.02,-1.15533 -3.78381,3.08813 -4.96214,5.60446c-2.31,4.93433 -3.10947,15.6015 -1.59147,20.2855c2.18233,6.73367 6.0666,9.9102 14.26093,11.29453c2.982,0.50367 3.82627,0.57941 4.72694,-0.04526c1.48367,-1.02933 10.39973,-4.66931 13.32773,-5.44231c1.46667,-0.38733 3.73209,-1.34179 4.72642,-1.92779c3.48633,-2.05467 8.95235,-8.28511 10.32035,-11.72944c0.94733,-2.38467 1.22265,-8.35951 0.46298,-10.69884c-0.85167,-2.62367 -4.81548,-10.59249 -5.96115,-11.98149c-1.16433,-1.411 -4.84928,-3.54558 -6.20961,-3.54558c-0.52967,0 -1.4149,-0.27272 -1.7929,-0.53739c-0.378,-0.265 -1.47925,-0.5831 -2.37925,-0.6901l-2.33295,-0.04148zM372.22135,168.84337c0.67333,0.187 1.0736,0.27365 1.63793,0.80065c1.40267,1.31033 1.45215,1.87065 0.02615,3.07065c-0.959,0.807 -0.7999,0.52506 -2.38657,0.32673c-2.203,-0.275 -3.86444,0.43336 -4.88644,2.08669c-0.909,1.471 -1.88411,2.08545 -3.19311,1.62912c-1.13567,-0.39567 -1.02036,0.0998 -1.01869,-1.38753c0.00267,-2.47967 2.99635,-5.29876 6.89402,-6.52509c1.67633,-0.52733 1.41671,-0.42055 2.92671,-0.00122z" data-paper-data="{&quot;wickUUID&quot;:&quot;0ded6141-440d-49a6-aaca-020203e05e0b&quot;,&quot;wickType&quot;:&quot;path&quot;}" id="0ded6141-440d-49a6-aaca-020203e05e0b" fill="#ffffff"/><path d="M390.5156,147.57735c0,0.07867 0.92836,2.45475 2.03269,4.62208c2.284,4.483 3.10351,6.79573 3.43351,9.8964c0.288,2.705 -0.22103,6.67072 -1.25903,9.67505c-0.97667,2.82633 -4.38486,7.38598 -7.93219,10.65465l-2.65161,2.64188l0.88599,5.46436c0.48967,2.82 1.38773,5.79234 1.50206,5.90434c0.11467,0.11233 3.26065,-0.50699 6.10232,-1.45432c4.42033,-1.47367 5.60176,-2.19745 5.53976,-2.75178c-0.04,-0.356 -0.1955,-3.12656 -0.42017,-5.99256c-0.54633,-6.977 -0.62232,-6.86298 5.33168,-8.23765c1.65,-0.381 3.27136,-0.56372 4.13269,-0.67072l2.21994,-0.7505l0.14888,-4.82742l0.08609,-4.74411l-1.67458,-3.12765c-3.627,-6.65433 -9.02653,-12.94452 -13.2342,-15.41885c-2.22967,-1.31133 -4.24383,-1.2112 -4.24383,-0.8832z" data-paper-data="{&quot;wickUUID&quot;:&quot;373158a7-85b4-4a1d-881a-7c4ee28f92df&quot;,&quot;wickType&quot;:&quot;path&quot;}" id="373158a7-85b4-4a1d-881a-7c4ee28f92df" fill="#ff8000"/><path d="M365.56463,138.93887c-4.26,0.985 -7.781,2.413 -12.143,4.925c-4.444,2.559 -6.035,3.86 -8.594,7.029c-2.887,3.574 -4.117,6.203 -5.357,11.451c-2.292,9.702 -1.066,17.848 3.689,24.505c1.562,2.188 3.528,3.578 7.299,5.162c2.913,1.224 11.58,2.96 14.779,2.96c1.783,0 3.071,-0.949 3.071,-2.263c0,-0.925 6.068,-3.88 9.152,-4.458c4.37,-0.819 8.685,-3.785 13.106,-9.01c1.596,-1.886 3.385,-4.389 3.975,-5.561c1.989,-3.95 2.621,-10.824 1.386,-15.07c-0.94,-3.235 -5.922,-12.84 -7.534,-14.525c-1.356,-1.419 -6.409,-4.201 -9.136,-5.03c-2.95,-0.898 -10.048,-0.957 -13.693,-0.115zM380.44263,144.87387c4.531,2.096 4.913,2.517 8.064,8.886c3.289,6.649 3.733,8.645 2.988,13.443c-0.543,3.503 -1.243,4.828 -4.817,9.122c-3.575,4.296 -7.395,6.864 -11.039,7.422c-0.948,0.146 -3.506,1.037 -5.685,1.98c-2.178,0.944 -4.672,2.018 -5.542,2.387c-0.87,0.369 -1.771,0.899 -2.003,1.179c-0.566,0.681 -6.384,-0.238 -9.636,-1.522c-4.477,-1.768 -6.449,-3.91 -8.304,-9.019c-1.865,-5.14 -1.052,-15.757 1.612,-21.033c1.671,-3.308 5.25,-6.858 9.328,-9.251c7.209,-4.23 11.352,-5.396 17.954,-5.054c3.7,0.192 4.855,0.43 7.08,1.46z" data-paper-data="{&quot;wickUUID&quot;:&quot;d45b6ef4-3a3f-4621-87c4-2a9ec2c95056&quot;,&quot;wickType&quot;:&quot;path&quot;}" id="d45b6ef4-3a3f-4621-87c4-2a9ec2c95056" fill="#000000"/><path d="M357.03078,140.51139c-0.297,0.119 -1.123,1.383 -1.836,2.809c-0.712,1.425 -1.677,3.008 -2.144,3.517c-0.787,0.858 -1.31,2.512 -1.873,5.921c-0.471,2.852 2.183,4.565 4.02,2.594c0.449,-0.483 1.03,-1.723 1.29,-2.756c0.26,-1.033 1.321,-3.512 2.357,-5.51c1.036,-1.997 1.884,-3.946 1.884,-4.33c0,-1.495 -2.216,-2.841 -3.698,-2.245z" data-paper-data="{&quot;wickUUID&quot;:&quot;8ca2eb76-4135-4547-b541-0a47053f72aa&quot;,&quot;wickType&quot;:&quot;path&quot;}" id="8ca2eb76-4135-4547-b541-0a47053f72aa" fill="#000000"/><path d="M371.38393,138.15766c-0.509,0.188 -1.224,0.92 -1.59,1.627c-0.744,1.439 -1.141,1.575 -1.906,0.653c-0.811,-0.978 -2.369,-0.755 -3.338,0.478c-0.731,0.929 -0.873,1.705 -0.873,4.769c0,3.327 0.093,3.747 1.018,4.617c0.788,0.74 1.303,0.894 2.273,0.681c1.507,-0.331 2.258,-1.112 4.607,-4.791c2.408,-3.772 3.157,-5.483 2.881,-6.584c-0.293,-1.165 -1.852,-1.902 -3.072,-1.45z" data-paper-data="{&quot;wickUUID&quot;:&quot;c9e93acb-2686-4f4b-9938-fed33bc6d87d&quot;,&quot;wickType&quot;:&quot;path&quot;}" id="c9e93acb-2686-4f4b-9938-fed33bc6d87d" fill="#000000"/><path d="M380.37546,182.68695c-0.915,1.011 -0.889,1.625 0.377,8.863c3.202,18.315 6.009,27.079 11.542,36.035c1.923,3.113 4.65,8.145 4.65,8.582c0,0.176 -1.798,2.112 -3.996,4.302c-4.487,4.472 -7.244,6.289 -9.548,6.295c-0.848,0.001 -3.027,0.287 -4.843,0.635c-5.872,1.123 -9.677,0.742 -15.666,-1.569c-3.229,-1.247 -3.635,-1.536 -4.883,-3.487c-2.721,-4.254 -3.782,-16.717 -2.808,-32.988c0.353,-5.881 0.629,-7.686 1.711,-11.172c1.516,-4.881 1.618,-6.376 0.477,-6.987c-2.329,-1.246 -3.407,-0.196 -5.072,4.941c-1.685,5.197 -2.093,8.957 -2.391,21.995c-0.219,9.579 -0.152,11.696 0.475,14.949c0.402,2.085 0.879,4.927 1.061,6.317c0.459,3.516 3.424,8.073 6.234,9.585c5.825,3.132 15.039,4.889 19.607,3.739c1.056,-0.266 3.638,-0.662 5.737,-0.879c3.273,-0.338 4.192,-0.619 6.44,-1.964c2.477,-1.482 10.186,-8.736 11.778,-11.084c1.211,-1.784 0.955,-4.254 -0.687,-6.642c-0.785,-1.141 -1.929,-3.064 -2.541,-4.272c-0.613,-1.209 -1.744,-3.186 -2.515,-4.394c-4.268,-6.689 -6.999,-15.729 -9.943,-32.902c-1.02,-5.951 -1.389,-7.322 -2.136,-7.931c-1.159,-0.947 -2.183,-0.935 -3.06,0.033z" data-paper-data="{&quot;wickUUID&quot;:&quot;8522d01b-913c-47d9-87aa-f412607d5456&quot;,&quot;wickType&quot;:&quot;path&quot;}" id="8522d01b-913c-47d9-87aa-f412607d5456" fill="#000000"/><path d="M353.535,238.93278c-0.096,0.091 -2.639,0.387 -5.65,0.657c-9.618,0.862 -18.47,2.096 -19.026,2.652c-0.295,0.295 -0.659,1.149 -0.809,1.899c-0.236,1.183 -0.08,1.544 1.189,2.732c0.804,0.752 2.667,3.358 4.14,5.79c1.473,2.432 3.738,5.653 5.034,7.158c1.296,1.506 2.872,3.546 3.503,4.534l1.147,1.796l-0.957,0.349c-0.527,0.192 -2.474,0.888 -4.327,1.547c-3.829,1.363 -5.912,3.156 -6.345,5.462c-0.384,2.05 1.769,6.627 3.551,7.549c3.522,1.821 8.207,-0.483 12.446,-6.122c1.516,-2.016 1.928,-2.913 1.928,-4.193c0,-3.445 -2.842,-9.166 -6.708,-13.504c-2.886,-3.238 -7.698,-11.019 -7.042,-11.387c0.278,-0.156 4.642,-0.689 9.7,-1.185c5.057,-0.497 9.65,-1.076 10.207,-1.288c0.557,-0.212 1.227,-0.855 1.488,-1.429c0.67,-1.47 -0.466,-3.184 -2.11,-3.184c-0.651,0 -1.262,0.075 -1.359,0.167z" data-paper-data="{&quot;wickUUID&quot;:&quot;ab2b54f2-9778-439f-b334-aeedb46de69d&quot;,&quot;wickType&quot;:&quot;path&quot;}" id="ab2b54f2-9778-439f-b334-aeedb46de69d" fill="#000000"/><path d="M387.77368,245.73854c-2.469,1.729 0.463,8.049 8.292,17.873c9.821,12.323 13.295,17.341 16.476,23.796c2.22,4.507 3.099,6.811 3.549,9.309c0.775,4.301 2.579,12.369 3.425,15.322c1.59,5.541 5.89,11.37 8.389,11.37c1.491,0 3.043,-1.689 3.345,-3.638c0.138,-0.894 0.467,-2.63 0.731,-3.858c0.793,-3.68 -1.063,-10.267 -4.047,-14.365c-0.773,-1.063 -1.792,-2.695 -2.262,-3.628c-0.471,-0.933 -2.082,-3.02 -3.58,-4.638c-2.138,-2.309 -3.372,-4.237 -5.739,-8.961c-3.218,-6.424 -5.598,-9.944 -13.716,-20.288c-7.828,-9.974 -8.497,-10.941 -9.912,-14.327c-1.264,-3.026 -2.482,-4.623 -3.524,-4.623c-0.27,0 -0.912,0.295 -1.427,0.656z" data-paper-data="{&quot;wickUUID&quot;:&quot;2fc7e033-a246-4d70-85ae-2bf99258c962&quot;,&quot;wickType&quot;:&quot;path&quot;}" id="2fc7e033-a246-4d70-85ae-2bf99258c962" fill="#000000"/><path d="M368.18289,168.70032c-1.313,0.403 -2.751,1.325 -4.106,2.63c-1.753,1.69 -2.084,2.255 -2.084,3.551c0,2.948 3.011,3.582 4.558,0.96c1.115,-1.889 3.503,-2.976 5.223,-2.376c1.03,0.359 1.509,0.323 2.258,-0.167c2.032,-1.332 1.659,-3.413 -0.824,-4.591c-1.728,-0.821 -2.375,-0.821 -5.025,-0.007z" data-paper-data="{&quot;wickUUID&quot;:&quot;6a73d5db-8326-4a60-b884-9ae9a21e9ad8&quot;,&quot;wickType&quot;:&quot;path&quot;}" id="6a73d5db-8326-4a60-b884-9ae9a21e9ad8" fill="#000000"/><path d="M377.18882,140.97111c-0.252,0.471 -0.458,1.234 -0.458,1.696c0,1.574 1.031,2.07 4.308,2.07c5.814,0 13.335,3.107 17.619,7.281c2.748,2.676 6.83,8.194 8.897,12.026l1.63,3.022l-0.12,4.778l-0.119,4.777l-2.527,0.307c-3.772,0.459 -7.639,1.598 -8.664,2.552c-0.837,0.781 -0.888,1.127 -0.656,4.469c0.138,1.993 0.372,4.805 0.52,6.249c0.208,2.035 0.138,2.663 -0.309,2.792c-6.021,1.734 -13.241,4.299 -13.87,4.928c-1.144,1.144 -1.039,2.752 0.234,3.586c1.001,0.656 1.348,0.59 7.896,-1.515c10.722,-3.447 10.282,-3.258 10.865,-4.666c0.411,-0.992 0.422,-2.247 0.05,-5.772c-0.262,-2.478 -0.595,-4.932 -0.741,-5.454c-0.221,-0.789 -0.028,-1.044 1.152,-1.521c0.78,-0.316 3.218,-0.806 5.418,-1.091c6.148,-0.795 5.896,-0.432 5.896,-8.484v-6.762l-1.946,-3.651c-4.264,-8.003 -10.405,-15.221 -15.53,-18.255c-5.226,-3.093 -7.866,-3.871 -13.754,-4.053c-5.018,-0.155 -5.36,-0.114 -5.791,0.691z" data-paper-data="{&quot;wickUUID&quot;:&quot;d558559b-dd99-4a61-91a4-c604307178ef&quot;,&quot;wickType&quot;:&quot;path&quot;}" id="d558559b-dd99-4a61-91a4-c604307178ef" fill="#000000"/><path d="M410.82946,210.35194c-2.91767,0.67933 -4.10981,3.15453 -2.31014,4.99553c1.78067,1.822 0.97384,4.39777 -1.52549,4.86677c-1.14567,0.21467 -1.22923,0.42946 -1.04523,1.56446c0.105,0.64733 0.7416,2.20052 0.89693,2.35585c0.155,0.155 1.48418,0.2374 2.46085,0.05207c2.539,-0.48167 5.89708,-0.44917 7.79375,0.12616c4.57467,1.38767 8.05238,-1.10773 7.64138,-5.08973c-0.36167,-3.50267 -2.28821,-5.77138 -6.08821,-6.12605c-2.264,-0.21167 -3.18378,-0.72138 -4.16478,-2.28871c-0.44167,-0.706 -2.28139,-0.77735 -3.65906,-0.45635z" data-paper-data="{&quot;wickUUID&quot;:&quot;2bff4461-0306-4a16-b7e9-2a83cdbaa3e2&quot;,&quot;wickType&quot;:&quot;path&quot;}" id="2bff4461-0306-4a16-b7e9-2a83cdbaa3e2" fill="#000000"/><path d="M382.68644,181.43547c-1.129,1.129 -1.15,2.339 -0.06,3.429c0.706,0.706 1.404,0.842 4.317,0.843c5.564,0.001 14.811,2.61 22.147,6.25c2.958,1.467 8.373,5.071 9.485,6.313c0.969,1.081 0.697,3.037 -0.846,6.082c-0.8,1.579 -1.209,1.995 -1.755,1.783c-1.51,-0.585 -4.579,-0.707 -6.274,-0.25c-2.302,0.621 -5.192,2.829 -6.123,4.678c-0.405,0.804 -0.737,2.325 -0.737,3.378c0,1.054 -0.158,2.096 -0.351,2.316c-0.192,0.22 -0.586,1.229 -0.875,2.242c-0.443,1.558 -0.414,2.294 0.193,4.768c0.403,1.644 1.172,3.467 1.754,4.159c0.927,1.102 1.292,1.231 3.421,1.215c1.312,-0.01 3.237,-0.185 4.279,-0.388c1.457,-0.283 2.726,-0.167 5.488,0.504c2.34,0.568 4.121,0.773 5.109,0.588c2.026,-0.38 4.707,-2.38 6.136,-4.579c0.996,-1.533 1.162,-2.218 1.149,-4.74c-0.025,-4.78 -2.907,-9.834 -6.166,-10.81c-0.885,-0.265 -1.609,-0.618 -1.609,-0.784c0,-0.166 0.449,-1.321 0.998,-2.566c2.42,-5.489 2.28,-8.937 -0.463,-11.345c-8.014,-7.036 -23.067,-13.147 -33.848,-13.742c-4.179,-0.23 -4.525,-0.188 -5.369,0.656zM414.62044,211.57947c0.53,1.392 1.667,1.92 4.137,1.92c3.39,0 5.559,2.5 5.559,6.406c0,1.511 -0.245,2.107 -1.314,3.2c-1.528,1.563 -2.814,1.698 -6.295,0.662c-2.198,-0.655 -5.203,-0.62 -8.467,0.098c-1.02,0.225 -1.169,0.095 -1.577,-1.374c-0.608,-2.191 -0.594,-2.254 0.504,-2.254c2.643,0 3.874,-3.087 1.778,-4.46c-1.044,-0.685 -1.412,-2.373 -0.73,-3.355c0.751,-1.081 2.524,-1.871 4.203,-1.871c1.533,0 1.872,0.158 2.202,1.028z" data-paper-data="{&quot;wickUUID&quot;:&quot;677e0378-3f09-46d4-ad03-d0b0af028f17&quot;,&quot;wickType&quot;:&quot;path&quot;}" id="677e0378-3f09-46d4-ad03-d0b0af028f17" fill="#000000"/><path d="M406.70298,211.23113c-0.371,0.409 -0.769,1.436 -0.886,2.281c-0.116,0.845 -0.469,2.632 -0.783,3.972c-0.826,3.514 -0.145,4.905 2.402,4.905c0.501,0 1.112,-0.243 1.358,-0.539c0.634,-0.765 2.03,-6.438 2.03,-8.253c0,-2.646 -2.545,-4.107 -4.121,-2.366z" data-paper-data="{&quot;wickUUID&quot;:&quot;16372205-16c6-4eea-b20e-431d408b1c60&quot;,&quot;wickType&quot;:&quot;path&quot;}" id="16372205-16c6-4eea-b20e-431d408b1c60" fill="#000000"/><path d="M332.55454,206.54579c-0.575,0.16667 -2.33269,1.29795 -3.22436,1.89395c-2.33133,1.558 -2.03239,3.26334 0.69928,5.09434c2.196,1.472 4.7044,2.09978 5.55507,1.24911c0.61667,-0.61667 1.02552,-2.44635 0.13952,-2.44635c-0.44433,0 -1.19072,-0.31508 -1.76439,-0.79775c-0.86967,-0.732 -0.80355,-0.37216 -0.71922,-1.37749c0.088,-1.05567 0.02022,-0.79296 1.26089,-1.36929c0.779,-0.362 1.32864,-2.08114 1.32864,-2.22347c0,-0.33233 -1.93976,-0.41005 -3.27543,-0.02305z" data-paper-data="{&quot;wickUUID&quot;:&quot;a509bc0f-4b19-4f33-b126-2ccbabdc16e5&quot;,&quot;wickType&quot;:&quot;path&quot;}" id="a509bc0f-4b19-4f33-b126-2ccbabdc16e5" fill="#000000"/><path d="M342.39306,209.72752l-2.0198,0.94261l0.06732,1.74518c0.184,1.91467 -0.84639,4.52198 -2.25206,5.70498c-0.52567,0.442 -0.35065,2.08911 -0.35065,2.19244c0,0.372 2.66278,0.1851 4.55378,-0.34057l2.4467,-0.81695l1.15727,-3.21601c1.02333,-2.95133 0.90832,-4.3506 -0.23768,-5.5806c-0.80133,-0.86 -1.58088,-1.31808 -3.36488,-0.63108z" data-paper-data="{&quot;wickUUID&quot;:&quot;9e0b783c-8aca-4784-9677-5d3fa388eba2&quot;,&quot;wickType&quot;:&quot;path&quot;}" id="9e0b783c-8aca-4784-9677-5d3fa388eba2" fill="#000000"/><path d="M353.35964,189.77057c-1.389,0.341 -4.793,1.603 -7.564,2.805c-4.324,1.876 -5.234,2.444 -6.425,4.012c-0.763,1.004 -1.598,2.662 -1.855,3.684l-0.468,1.858h-2.328c-3.534,0 -6.964,1.435 -9.613,4.021c-3.461,3.379 -3.529,5.204 -0.323,8.631c3.903,4.173 7.842,5.72 11.826,4.646c2.436,-0.657 4.328,-3.339 4.328,-6.137c0,-3.574 -1.549,-5.241 -4.883,-5.256c-2.255,-0.01 -3.539,0.801 -3.539,2.235c0,1.047 1.537,2.388 2.737,2.388c1.178,0 1.239,0.128 0.617,1.291c-0.665,1.242 -2.862,1.045 -5.136,-0.461c-1.059,-0.702 -2.162,-1.56 -2.45,-1.908c-0.887,-1.069 0.156,-2.51 2.728,-3.769c2.153,-1.053 2.603,-1.123 5.471,-0.855c2.802,0.263 3.214,0.205 3.978,-0.56c0.47,-0.469 1.062,-1.668 1.316,-2.664c0.681,-2.666 1.257,-3.99 2.042,-4.697c0.951,-0.857 9.562,-4.314 11.647,-4.676c0.926,-0.16 2.111,-0.567 2.632,-0.902c1.81,-1.166 0.753,-4.443 -1.402,-4.344c-0.445,0.021 -1.946,0.316 -3.336,0.658z" data-paper-data="{&quot;wickUUID&quot;:&quot;144cbbd9-7639-4829-bc88-dcca20914794&quot;,&quot;wickType&quot;:&quot;path&quot;}" id="144cbbd9-7639-4829-bc88-dcca20914794" fill="#000000"/><path d="M341.78753,205.05125c-1.276,0.679 -1.574,0.704 -2.304,0.193c-2.165,-1.516 -4.282,-0.012 -3.821,2.716c0.155,0.919 0.526,2.005 0.824,2.412c0.744,1.018 3.984,0.985 5.924,-0.06c1.689,-0.91 2.528,-0.629 3.563,1.194c0.558,0.983 0.516,1.365 -0.459,4.17l-1.073,3.087l-2.377,0.785c-2.746,0.906 -3.633,0.767 -6.204,-0.975c-1.322,-0.896 -2.381,-1.271 -3.608,-1.276c-1.512,-0.007 -1.96,-0.251 -3.474,-1.893c-0.956,-1.037 -1.738,-2.079 -1.738,-2.316c0,-0.791 -1.672,-2.115 -2.672,-2.115c-1.125,0 -2.381,1.192 -2.381,2.261c0,1.33 1.6,3.828 3.889,6.069c1.731,1.695 2.666,2.282 3.929,2.465c0.911,0.132 3.158,1.006 4.993,1.941l3.337,1.7l2.77,-0.509c3.255,-0.598 5.835,-1.673 6.901,-2.875c0.886,-0.998 3.131,-6.771 3.496,-8.988c0.325,-1.974 -0.574,-3.746 -3.342,-6.591c-2.419,-2.486 -3.617,-2.756 -6.173,-1.395z" data-paper-data="{&quot;wickUUID&quot;:&quot;6f974ff5-47d3-4da1-a75e-4926779047df&quot;,&quot;wickType&quot;:&quot;path&quot;}" id="6f974ff5-47d3-4da1-a75e-4926779047df" fill="#000000"/><path d="M333.62598,204.72713c-0.533,0.813 -0.566,1.211 -0.188,2.281c0.251,0.713 0.649,3.885 0.884,7.049c0.263,3.537 0.641,6.097 0.982,6.645c0.709,1.142 2.529,1.185 3.525,0.085c0.688,-0.761 0.704,-1.195 0.277,-7.524c-0.562,-8.31 -1.056,-9.521 -3.884,-9.521c-0.574,0 -1.206,0.39 -1.596,0.985z" data-paper-data="{&quot;wickUUID&quot;:&quot;c0a923b6-7d79-49bd-ab7b-163103231095&quot;,&quot;wickType&quot;:&quot;path&quot;}" id="c0a923b6-7d79-49bd-ab7b-163103231095" fill="#000000"/><path d="M412.26995,221.97369c-0.946,0.947 -0.917,2.318 0.068,3.236c1.079,1.005 2.26,0.925 3.156,-0.215c0.937,-1.19 0.937,-1.601 0,-2.791c-0.899,-1.144 -2.216,-1.237 -3.224,-0.23z" data-paper-data="{&quot;wickUUID&quot;:&quot;50a15ed1-f0b3-4c72-9c1d-18ec47d0f339&quot;,&quot;wickType&quot;:&quot;path&quot;}" fill="#ffffff"/><path d="M404.16546,213.38795c-0.652,0.931 -0.72,2.766 -0.175,4.728c0.719,2.592 2.601,3.507 4.33,2.107c0.799,-0.647 0.813,-0.758 0.434,-3.457c-0.236,-1.68 -0.641,-3.065 -1.021,-3.484c-0.891,-0.984 -2.845,-0.926 -3.568,0.106z" data-paper-data="{&quot;wickUUID&quot;:&quot;210c4f27-7bce-4444-93e0-ac445f123c9b&quot;,&quot;wickType&quot;:&quot;path&quot;}" fill="#ffffff"/><path d="M333.05292,208.27741c-1.568,1.234 -1.116,3.206 0.897,3.907l1.142,0.398l-0.953,0.954c-1.2,1.199 -1.206,2.079 -0.023,3.262c0.791,0.791 1.164,0.904 2.494,0.754c3.233,-0.365 5.155,-3.11 4.042,-5.772c-0.654,-1.566 -2.77,-3.394 -4.478,-3.868c-1.851,-0.514 -2.028,-0.494 -3.121,0.365z" data-paper-data="{&quot;wickUUID&quot;:&quot;4cf5df79-36dc-4423-afc8-6156e21d226d&quot;,&quot;wickType&quot;:&quot;path&quot;}" fill="#ffffff"/><path d="M337.58716,213.32107c-0.981,0.914 -1.016,2.289 -0.083,3.221c0.86,0.861 3.384,2.182 4.168,2.182c0.314,0 1.033,0.342 1.598,0.76c1.646,1.217 3.638,0.174 3.638,-1.905c0,-1.572 -2.041,-3.549 -3.666,-3.552c-0.665,-0.001 -1.697,-0.325 -2.293,-0.72c-1.383,-0.916 -2.369,-0.912 -3.362,0.014z" data-paper-data="{&quot;wickUUID&quot;:&quot;d8e0723f-e381-4d80-9055-16137d307146&quot;,&quot;wickType&quot;:&quot;path&quot;}" fill="#ffffff"/><path d="M331.09642,205.22819c-0.439,0.304 -1.282,0.789 -1.873,1.079c-0.591,0.289 -1.489,0.953 -1.994,1.475l-0.919,0.95l0.065,2.502c0.076,2.892 0.565,4.395 1.693,5.198c0.422,0.301 0.768,0.772 0.768,1.048c0,1.455 1.598,2.798 2.94,2.472c0.886,-0.216 1.765,-1.057 1.973,-1.887c0.095,-0.379 0.461,-1.031 0.813,-1.449c0.848,-1.008 1.273,-2.603 0.931,-3.501c-0.144,-0.379 -0.767,-1.236 -1.384,-1.906c-0.828,-0.899 -1.032,-1.273 -0.778,-1.43c0.333,-0.206 1.5,-0.024 2.51,0.391c0.507,0.209 1.301,1.793 1.615,3.223c0.224,1.017 1.255,2.02 2.812,2.735c0.658,0.302 1.952,1.087 2.876,1.745c1.449,1.033 1.859,1.196 3.003,1.196c1.732,0 2.629,-0.804 2.629,-2.357c0,-0.848 -0.158,-1.185 -0.818,-1.74c-0.449,-0.379 -0.968,-0.688 -1.152,-0.688c-0.184,0 -1.016,-0.478 -1.849,-1.061c-0.832,-0.584 -1.839,-1.229 -2.237,-1.435c-0.476,-0.247 -0.885,-0.812 -1.197,-1.657c-0.974,-2.631 -1.649,-3.454 -3.581,-4.369c-2.406,-1.138 -5.611,-1.388 -6.846,-0.534z" data-paper-data="{&quot;wickUUID&quot;:&quot;c64dd068-a783-488d-b2ff-6b4d38315643&quot;,&quot;wickType&quot;:&quot;path&quot;}" fill="#000000"/><path d="M406.73018,209.41921c-1.535,1.058 -2.431,3.013 -2.472,5.396c-0.036,2.068 0.271,2.717 2.327,4.917c1.375,1.471 1.469,1.651 1.226,2.349c-0.322,0.922 0.204,2.383 1.014,2.816c0.909,0.487 2.191,0.332 3.121,-0.377c0.479,-0.366 0.939,-0.665 1.022,-0.665c0.083,0 0.151,0.423 0.151,0.939c0,1.441 0.606,2.597 1.661,3.165c1.517,0.817 2.434,0.392 3.977,-1.842c1.551,-2.246 1.655,-3.187 0.477,-4.299c-0.564,-0.532 -0.798,-1.003 -0.798,-1.605c0,-1.983 -1.585,-3.449 -3.458,-3.198l-1.03,0.138l-0.179,-1.501c-0.219,-1.836 -1.404,-4.039 -2.585,-4.804c-0.471,-0.306 -1.264,-0.855 -1.76,-1.219c-1.06,-0.778 -1.787,-0.834 -2.694,-0.21z" data-paper-data="{&quot;wickUUID&quot;:&quot;4365f6b5-92d8-45d3-8c33-7d2b9061464d&quot;,&quot;wickType&quot;:&quot;path&quot;}" fill="#000000"/></g><g fill="none" fill-rule="nonzero" stroke="none" stroke-width="1" stroke-linecap="butt" stroke-linejoin="miter" stroke-miterlimit="10" stroke-dasharray="" stroke-dashoffset="0" font-family="sans-serif" font-weight="normal" font-size="12" text-anchor="start" style="mix-blend-mode: normal"/><g id="wick_project_gui" fill="none" fill-rule="nonzero" stroke="none" stroke-width="1" stroke-linecap="butt" stroke-linejoin="miter" stroke-miterlimit="10" stroke-dasharray="" stroke-dashoffset="0" font-family="sans-serif" font-weight="normal" font-size="12" text-anchor="start" style="mix-blend-mode: normal"/></g></svg>