<svg version="1.1" xmlns="http://www.w3.org/2000/svg" xmlns:xlink="http://www.w3.org/1999/xlink" width="1260" height="594" viewBox="0,0,1260,594"><g transform="translate(202.32,11.88) scale(1.188,1.188)"><g id="wick_project_bg" fill-opacity="0" fill="#ffffff" fill-rule="nonzero" stroke="none" stroke-width="1" stroke-linecap="butt" stroke-linejoin="miter" stroke-miterlimit="10" stroke-dasharray="" stroke-dashoffset="0" font-family="none" font-weight="none" font-size="none" text-anchor="none" style="mix-blend-mode: normal"><rect x="0" y="0" width="720" height="480"/></g><g data-paper-data="{&quot;wickUUID&quot;:&quot;beaeabd7-8efe-41e1-8a90-359a07354254&quot;,&quot;wickType&quot;:&quot;clipsandpaths&quot;}" fill="none" fill-rule="evenodd" stroke="none" stroke-width="1" stroke-linecap="butt" stroke-linejoin="miter" stroke-miterlimit="10" stroke-dasharray="" stroke-dashoffset="0" font-family="none" font-weight="none" font-size="none" text-anchor="none" style="mix-blend-mode: normal"><path d="M349.15404,301.39736c-1.566,0.71133 -2.39228,1.98788 -2.67228,4.17721c-0.171,1.336 -0.60133,2.30851 -3.21333,7.25518c-0.78267,1.482 -0.85899,2.11601 -0.42166,2.89134c0.26333,0.46733 1.64836,1.62427 1.87369,1.6986c0.22533,0.07467 1.48332,-0.70813 2.44965,-1.61346c2.21167,-2.07233 2.27419,-2.46077 3.50986,-2.1891c1.906,0.41833 2.18261,1.47184 0.97228,3.45651c-1.11367,1.82633 -6.10142,5.60149 -7.93842,6.04982c-0.575,0.14 -1.21635,0.7249 -1.42102,1.2639c-0.182,0.47867 -0.1612,2.04979 -0.1102,2.09479c0.051,0.045 1.99442,0.99357 3.71842,1.85557c5.30567,2.65333 5.82307,2.58465 9.10774,-0.76702c1.741,-1.77667 3.19573,-3.59975 3.47273,-4.50575c0.23867,-0.781 0.51043,-4.55534 0.61076,-8.80101c0.149,-6.28967 0.00667,-7.75496 -0.45833,-8.46496c-0.64567,-0.985 -6.02307,-5.2231 -6.6394,-5.21277c-0.24,0.004 -2.07349,0.46315 -2.84049,0.81115z" data-paper-data="{&quot;wickUUID&quot;:&quot;e446ab90-1707-4a3f-b8cd-43c8f182256a&quot;,&quot;wickType&quot;:&quot;path&quot;}" id="e446ab90-1707-4a3f-b8cd-43c8f182256a" fill="#000000"/><path d="M350.83849,296.19913c-0.91686,0.0337 -2.1651,0.26386 -2.77398,0.51066c-0.60888,0.2468 -1.3245,0.34436 -1.59015,0.21609c-0.76274,-0.36828 -2.97022,0.90561 -3.51199,2.02766c-0.27089,0.56102 -0.57542,2.31177 -0.6766,3.88975c-0.16907,2.65233 -0.33638,3.13455 -2.21166,6.40667c-1.83513,3.20045 -2.02501,3.73172 -1.98547,5.55643c0.02517,1.10929 0.40772,2.54327 0.8509,3.18701c0.77816,1.12751 0.75819,1.26777 -0.55266,3.98956c-2.36217,4.90149 -1.67427,8.26743 1.80766,8.85261c0.87418,0.14669 2.83943,1.02119 4.6528,2.06998c1.99685,1.15405 3.69137,1.88782 4.65607,2.01492c2.0347,0.2684 5.12813,-0.81648 6.90928,-2.42171c0.80178,-0.72222 1.95566,-1.69531 2.56642,-2.16219c2.02565,-1.55047 3.91085,-5.30307 4.37367,-8.70638c0.22608,-1.66647 0.36704,-3.47176 0.31261,-4.01218c-0.05534,-0.54086 -0.04017,-3.16424 0.03211,-5.82999c0.1566,-5.75433 -0.43605,-7.92382 -2.71043,-9.93589c-4.63796,-4.10162 -7.59113,-5.74739 -10.14858,-5.653zM354.85286,303.07565c4.32353,3.32461 4.02407,2.4338 3.85259,11.4457c-0.14584,7.66396 -0.68805,9.82186 -2.95918,11.76573c-0.63076,0.54051 -1.45681,1.38429 -1.83554,1.87658c-0.37873,0.49229 -1.21284,1.14117 -1.85495,1.443c-1.10603,0.5198 -1.39205,0.43832 -5.55788,-1.57309l-4.39187,-2.12055l0.5874,-1.21884c0.40739,-0.84603 0.89044,-1.23243 1.5748,-1.26068c0.5431,-0.02316 2.51079,-1.23738 4.3722,-2.69836c2.6304,-2.06468 3.47942,-2.96064 3.80157,-4.01883c0.54898,-1.79707 0.26788,-2.7512 -0.98835,-3.35775c-1.35168,-0.65264 -2.61423,-0.09848 -4.50602,1.97968c-1.7693,1.94409 -2.57068,2.0491 -3.52469,0.46245c-0.67206,-1.11959 -0.66605,-1.1389 1.31404,-4.5614c1.5979,-2.75975 2.05707,-3.90392 2.33705,-5.8131c0.34071,-2.33626 0.37258,-2.39305 1.83032,-3.32158c1.29769,-0.82702 2.69046,-1.24613 3.30356,-0.99341c0.1075,0.04413 1.29735,0.92845 2.64495,1.96445z" data-paper-data="{&quot;wickUUID&quot;:&quot;1f27d036-662f-49af-a4e9-f12f5b60ba08&quot;,&quot;wickType&quot;:&quot;path&quot;}" id="1f27d036-662f-49af-a4e9-f12f5b60ba08" fill="#000000"/><path d="M360.36612,254.85593c-0.38312,0.38427 -0.9831,3.69199 -1.82911,10.08619c-0.8788,6.65027 -1.62106,10.69099 -2.46272,13.42094c-0.66316,2.14794 -1.604,6.15318 -2.0916,8.89889c-0.48661,2.7458 -1.10824,6.11379 -1.37997,7.48456c-0.42861,2.16367 -0.38776,2.65454 0.31295,3.72983c0.92055,1.41203 1.79384,1.62256 3.25832,0.78621c0.76237,-0.43446 1.02237,-0.92053 1.02407,-1.91362c0.00215,-2.39503 2.23186,-13.72556 3.44399,-17.50478c1.64014,-5.1134 3.97021,-22.83296 3.19984,-24.33752c-0.59507,-1.16392 -2.58918,-1.53662 -3.47577,-0.6507z" data-paper-data="{&quot;wickUUID&quot;:&quot;21e56a40-2ee2-4975-bd82-3a0ad4c39606&quot;,&quot;wickType&quot;:&quot;path&quot;}" id="21e56a40-2ee2-4975-bd82-3a0ad4c39606" fill="#000000"/><path d="M379.92575,257.56792c-2.57667,0.391 -5.31543,0.55185 -8.4511,0.49718l-5.23944,0.16727l-1.81257,6.74517c-2.46433,9.848 -5.47394,23.34089 -6.06761,27.20022c-1.30267,8.46967 -2.20404,15.6185 -2.20404,17.35017c0,2.245 0.75189,3.89966 3.59789,7.74466c3.17967,4.296 4.82362,5.23799 8.73862,5.23799c3.33767,0 13.0243,-1.17069 16.70797,-2.03369c6.03033,-1.41267 13.54148,-4.27413 13.09948,-4.98913c-0.083,-0.13467 0.18084,-1.95858 0.06917,-2.95991c-0.11133,-1.00167 -0.35711,-2.30878 -0.53778,-2.86545c-1.15967,-3.57233 -4.91201,-20.30702 -6.19668,-27.63669c-1.395,-7.96033 -3.65637,-16.32025 -5.88604,-21.75925l-1.57894,-3.21589z" data-paper-data="{&quot;wickUUID&quot;:&quot;9285f382-4cee-45ae-be06-9d7cec5b303b&quot;,&quot;wickType&quot;:&quot;path&quot;}" id="9285f382-4cee-45ae-be06-9d7cec5b303b" fill="#8000ff"/><path d="M371.15945,205.73964c-4.32333,0.488 -14.57445,3.49344 -18.19445,5.32777c-1.72967,0.87667 -4.5944,3.97243 -5.76507,6.22776c-1.03733,1.99867 -1.23535,5.35852 -0.55635,10.22652c0.56567,4.05333 0.9087,5.2809 4.18203,14.76723c1.604,4.648 2.14017,5.36171 3.9085,7.01771c3.83733,3.593 7.99469,4.68979 17.85836,4.67446c5.71533,-0.00867 12.26154,-0.88023 14.06087,-1.87923c2.522,-1.4 4.72254,-3.27213 5.73254,-4.83613c3.95633,-6.12433 7.13467,-16.31781 6.69234,-21.43448c-0.33767,-3.905 -1.13041,-6.24148 -3.31074,-9.98181c-4.06667,-6.97633 -4.60143,-7.30423 -17.2751,-9.98956c-1.33833,-0.28367 -5.15426,-0.36624 -7.33293,-0.12024zM378.90514,228.65307c1.96467,1.725 2.01973,3.6365 0.56306,6.53483c-0.78033,1.55267 -0.39867,1.85603 -1.82267,1.85603c-2.82533,0 -4.42973,-3.91649 -2.97473,-7.43116c1.079,-2.60667 2.14601,-2.79337 4.23434,-0.9597zM364.33749,231.31933c0.76933,0.45067 1.02844,0.70885 1.29944,1.12885c0.57333,0.88933 1.28486,2.71502 1.28486,3.98235c0,1.99367 -2.90436,3.57147 -4.84469,2.6508c-0.72467,-0.34367 -0.25974,-0.28105 -0.98174,-2.40505c-1.202,-3.534 -1.31291,-3.88727 -0.02091,-5.3586c1.247,-1.42033 1.31237,-1.14168 3.26304,0.00165zM374.55406,245.69448c2.12867,0.885 2.92164,2.65771 1.40097,3.88904c-0.85167,0.68967 -1.25861,0.47121 -3.85028,-0.27679c-2.92533,-0.84433 -3.48219,-2.15213 -1.74286,-4.0288c0.80067,-0.86367 0.11992,-0.15327 1.90692,0.0684c1.04433,0.12933 1.70358,0.10648 2.28525,0.34815z" data-paper-data="{&quot;wickUUID&quot;:&quot;1c49af99-1300-41a4-9623-c607e388ad00&quot;,&quot;wickType&quot;:&quot;path&quot;}" id="1c49af99-1300-41a4-9623-c607e388ad00" fill="#ffffff"/><path d="M382.45974,171.71513c-0.46367,0.09033 -1.65926,1.0308 -1.99159,1.86147c-0.28433,0.71067 -1.67219,3.48289 -3.03486,6.06256c-2.159,4.087 -2.52465,5.03146 -2.72865,7.06513c-0.19567,1.94633 -0.11673,2.08556 -0.82073,2.63956c-1.01567,0.799 -0.66811,0.67768 -1.97144,0.00368c-0.64933,-0.33567 -0.6148,-0.50044 -0.74347,-1.14377c-0.10833,-0.542 -1.12772,-1.3757 -1.21305,-1.3757c-0.08567,0 -1.86263,0.84172 -3.53863,1.70739c-3.50267,1.809 -7.17241,4.49122 -10.79141,7.87122c-2.512,2.34567 -2.7115,2.62356 -3.85417,6.15689c-0.63267,1.956 -1.18806,3.98704 -1.12739,4.04771c0.06067,0.06067 1.58352,0.71034 2.10685,0.44001c3.97133,-2.05367 15.97905,-4.81969 22.24172,-5.12069c3.38833,-0.16267 3.80209,-0.09494 7.87409,0.89139c5.46667,1.32433 7.17995,1.82466 8.81495,2.64599c1.50333,0.755 6.01898,4.99098 6.01898,5.63665c0,0.24833 0.47532,1.25343 1.19632,2.4311c0.72067,1.17767 1.56112,2.60094 1.95179,3.36661c1.05433,2.066 2.01683,6.822 2.0155,10.067c-0.00133,3.71133 -1.60806,11.3727 -2.91206,13.93303c-0.25667,0.504 0.4388,1.94747 0.5098,1.94747c0.071,0 1.38925,-0.49158 2.56058,-1.01691c1.171,-0.52533 3.2749,-1.49849 4.2229,-1.80816c1.994,-0.651 2.01455,-0.6144 2.59022,-7.5174c0.577,-6.91967 1.29614,-11.62762 2.54181,-16.66229c0.65167,-2.63367 0.85084,-5.60098 0.69784,-5.73398c-0.41933,-0.36467 -5.04002,-1.86083 -7.79135,-2.43483c-2.831,-0.59 -3.06722,-0.53529 -3.57255,-1.47962c-0.41267,-0.77133 -0.14227,-1.12448 0.77806,-3.14481c0.81367,-1.786 2.63024,-7.79875 4.72857,-15.64742c1.62867,-6.09233 1.46021,-7.12008 0.85721,-7.58441c-1.28067,-0.986 -10.43973,-5.30144 -13.66306,-6.40844c-4.60567,-1.582 -9.18878,-2.23576 -11.95278,-1.69643z" data-paper-data="{&quot;wickUUID&quot;:&quot;223ae8d3-1716-4486-a0cf-59870f8b628b&quot;,&quot;wickType&quot;:&quot;path&quot;}" id="223ae8d3-1716-4486-a0cf-59870f8b628b" fill="#ff8000"/><path d="M379.30937,168.13393c-0.63948,0.42131 -1.5729,1.48928 -2.07447,2.37285c-1.49788,2.63733 -3.87522,7.19899 -4.70126,9.02171c-0.42527,0.93733 -1.07863,1.75889 -1.45191,1.82456c-0.3731,0.06665 -3.00751,1.30442 -5.8543,2.7515c-4.272,2.17195 -6.03369,3.36817 -10.08135,6.84701c-5.20515,4.47195 -7.24473,6.74743 -7.0512,7.8648c0.06536,0.37738 -0.16984,1.28687 -0.52259,2.02185c-0.7814,1.62926 -1.40135,5.30398 -1.33877,7.93287c0.03654,1.55863 -0.26681,2.37943 -1.52286,4.11019c-1.82385,2.51315 -2.41819,4.19119 -2.94695,8.32204c-0.46739,3.64728 0.84413,12.19181 2.40779,15.68824c0.53219,1.19166 1.32433,3.45062 1.7606,5.02018c0.98953,3.56847 3.20408,8.43797 4.50429,9.90356c0.96091,1.0829 4.38229,3.28122 7.69455,4.94331c1.57854,0.79324 9.64956,1.88074 14.87769,2.00631c2.42743,0.05756 10.32922,-1.06243 15.92133,-2.25735c3.00941,-0.64304 3.26136,-0.78209 5.26571,-2.90937c4.57145,-4.84934 10.37099,-8.37993 15.1183,-9.2022c2.21995,-0.38451 2.98267,-0.6861 3.36623,-1.33102c0.27377,-0.45846 0.75109,-3.47416 1.06185,-6.70155c1.17777,-12.23145 1.42318,-13.86733 3.00981,-20.07621c2.08889,-8.1724 2.08762,-8.13871 0.45046,-9.51651c-0.7309,-0.6163 -1.54635,-1.08196 -1.81157,-1.03704c-0.42681,0.07291 -7.38788,-1.95988 -7.91999,-2.31325c-0.11475,-0.07654 0.58562,-2.91776 1.55637,-6.31325c3.43285,-12.00297 4.64315,-17.23224 4.28575,-18.52217c-0.37102,-1.33933 -1.45013,-2.00899 -9.96165,-6.18462c-6.45633,-3.16759 -8.79023,-4.00354 -13.33496,-4.77726c-4.78535,-0.81526 -8.99983,-0.61403 -10.7069,0.51082zM388.16143,172.29522c4.48454,0.5903 11.54072,3.35967 18.64768,7.31884l1.69952,0.94685l-1.03558,3.85326c-2.84512,10.57978 -4.63899,16.59418 -5.55001,18.60009c-0.5532,1.21828 -0.94527,2.56394 -0.87138,2.99059c0.16196,0.93508 1.41191,1.75883 2.89544,1.90986c2.38422,0.24163 8.94167,2.27636 9.03281,2.80253c0.05342,0.30841 -0.44935,2.52675 -1.11782,4.93111c-1.1765,4.23492 -2.00228,9.63916 -2.4961,16.34481c-0.13217,1.78576 -0.3506,4.1223 -0.48716,5.19129l-0.24773,1.94481l-2.88801,1.01579c-1.58785,0.5592 -3.4396,1.32345 -4.11456,1.69814c-1.60909,0.89372 -1.88071,0.62617 -1.04836,-1.0312c0.9127,-1.82047 2.65251,-9.48284 2.88483,-12.71186c0.12697,-1.75136 -0.10032,-3.93662 -0.69653,-6.71666c-0.74937,-3.49437 -1.16713,-4.5587 -2.74626,-6.99595c-1.02473,-1.5803 -1.9127,-3.16195 -1.97363,-3.51371c-0.19661,-1.1351 -3.97769,-4.77722 -6.16967,-5.94221c-1.17253,-0.62303 -3.48134,-1.39025 -5.13033,-1.70545c-1.64881,-0.31422 -3.94947,-0.85856 -5.11238,-1.20923c-3.85605,-1.16296 -6.32726,-1.09827 -14.33153,0.37339c-6.74329,1.24006 -9.89509,2.13915 -15.01246,4.28195c-1.05692,0.44288 -1.13018,0.40076 -1.01335,-0.56535c0.07017,-0.57338 0.27242,-1.47413 0.44891,-2.00199c1.89754,-5.6619 1.55589,-5.17344 6.56395,-9.3829c3.53385,-2.9707 5.85013,-4.54511 9.06984,-6.16538c2.37852,-1.19751 4.77816,-2.25557 5.3329,-2.35165c1.69969,-0.2944 3.01714,-1.62376 4.08416,-4.12353c0.5608,-1.315 1.60099,-3.35445 2.3103,-4.53279c0.70931,-1.17834 1.47154,-2.71903 1.69361,-3.42326c0.22306,-0.70441 0.62491,-1.41948 0.89395,-1.58888c0.71754,-0.45107 3.97357,-0.57256 6.48495,-0.24131zM374.33167,206.02841c1.63009,-0.04588 4.08089,0.2228 5.44567,0.59636c1.36478,0.37356 3.7565,0.91633 5.31392,1.20679c4.43212,0.82671 7.64151,2.96129 8.85829,5.89061c0.22692,0.54832 1.14851,2.11908 2.046,3.49205c1.41462,2.16128 1.72308,3.02227 2.30673,6.43879c0.63587,3.71803 0.61236,4.20924 -0.40324,8.61724c-0.59293,2.57092 -1.61087,6.01617 -2.26347,7.65662c-1.4759,3.71337 -4.89716,9.39664 -5.74651,9.54375c-0.3488,0.06041 -1.2368,0.64658 -1.97359,1.30296c-1.23179,1.09732 -1.79495,1.26794 -6.98635,2.11029c-6.04525,0.98112 -8.16806,1.02403 -15.26456,0.31274c-5.12094,-0.51458 -5.79614,-0.74472 -9.36329,-3.19284c-2.82079,-1.93599 -3.45765,-2.96438 -5.05626,-8.15673c-0.54878,-1.78554 -1.50011,-4.43607 -2.11204,-5.88895c-0.80088,-1.89918 -1.34166,-4.21283 -1.92328,-8.21529c-1.05792,-7.29143 -0.66797,-9.46383 2.3393,-13.05476c1.8821,-2.24718 2.49784,-2.67658 5.90492,-4.12328c5.76088,-2.4471 13.87326,-4.3962 18.87776,-4.53635z" data-paper-data="{&quot;wickUUID&quot;:&quot;08a3e5de-573f-495b-9622-b1d696182fd0&quot;,&quot;wickType&quot;:&quot;path&quot;}" id="08a3e5de-573f-495b-9622-b1d696182fd0" fill="#000000"/><path d="M371.47821,181.39393c-0.76471,0.84085 -1.27459,4.42444 -0.92046,6.469c0.22408,1.29373 0.52894,1.74128 1.45724,2.14375c1.5447,0.66818 3.01196,-0.26495 3.08076,-1.95955c0.02706,-0.65827 0.16375,-2.11902 0.30455,-3.24558c0.32916,-2.63484 0.28981,-2.7975 -0.8708,-3.61543c-1.11322,-0.78452 -2.21654,-0.70911 -3.05129,0.20781z" data-paper-data="{&quot;wickUUID&quot;:&quot;6c98e05b-a481-4565-b084-0e961ee06177&quot;,&quot;wickType&quot;:&quot;path&quot;}" id="6c98e05b-a481-4565-b084-0e961ee06177" fill="#000000"/><path d="M369.47089,245.74183c-1.34338,1.90625 -0.46566,3.19435 2.79015,4.09693c3.60892,1.00177 5.24412,0.341 4.84596,-1.95778c-0.30003,-1.73221 -1.58561,-2.67971 -4.02633,-2.96636c-2.8221,-0.33223 -2.78697,-0.34034 -3.60978,0.82721z" data-paper-data="{&quot;wickUUID&quot;:&quot;cbfb1031-8129-4dd3-a4d5-4158ccb71db0&quot;,&quot;wickType&quot;:&quot;path&quot;}" id="cbfb1031-8129-4dd3-a4d5-4158ccb71db0" fill="#000000"/><path d="M360.27792,231.34291c-0.84969,1.20571 -0.85213,1.39084 -0.05248,4.39037c1.07237,4.02909 1.84989,4.68604 4.50645,3.80472c2.55189,-0.84695 3.07728,-2.09695 2.1977,-5.2298c-0.55999,-1.99672 -0.89669,-2.48746 -2.35498,-3.42432c-2.05373,-1.32189 -3.12195,-1.20791 -4.29669,0.45903z" data-paper-data="{&quot;wickUUID&quot;:&quot;158ee7d5-58ec-465e-a36b-c6296f8f4965&quot;,&quot;wickType&quot;:&quot;path&quot;}" id="158ee7d5-58ec-465e-a36b-c6296f8f4965" fill="#000000"/><path d="M375.24741,227.89443c-1.98854,1.56229 -2.13082,6.20164 -0.25778,8.40226c1.92044,2.25737 4.48968,1.14152 5.59346,-2.42925c0.73858,-2.39215 0.19057,-4.49549 -1.51761,-5.8204c-1.4022,-1.08766 -2.56926,-1.13414 -3.81807,-0.15261z" data-paper-data="{&quot;wickUUID&quot;:&quot;62655e14-0a9b-4dc6-b36d-757d46b3468b&quot;,&quot;wickType&quot;:&quot;path&quot;}" id="62655e14-0a9b-4dc6-b36d-757d46b3468b" fill="#000000"/><path d="M358.67338,324.32896c-0.448,0.494 -0.819,1.851 -1.035,3.777c-0.186,1.653 -0.434,3.162 -0.552,3.354c-0.395,0.638 -0.686,7.302 -0.808,18.5c-0.164,15.041 -0.157,14.858 -0.561,14.858c-0.197,0 -1.312,-0.727 -2.48,-1.616l-2.123,-1.617l-3.372,0.212c-5.577,0.352 -7.889,1.043 -9.292,2.777c-1.643,2.029 -1.642,4.008 0.003,6.071c1.935,2.427 3.582,3.013 9.484,3.374c2.838,0.174 6.005,0.493 7.036,0.71c1.949,0.408 3.359,0.122 4.155,-0.843c0.244,-0.296 0.745,-1.609 1.114,-2.918c0.557,-1.973 0.729,-5.371 1.005,-19.837c0.262,-13.697 0.467,-17.966 0.952,-19.821c0.88,-3.361 0.814,-5.97 -0.174,-6.959c-1.007,-1.007 -2.453,-1.016 -3.352,-0.022z" data-paper-data="{&quot;wickUUID&quot;:&quot;628a3a80-164d-4fcc-a727-2fe09db852f2&quot;,&quot;wickType&quot;:&quot;path&quot;}" id="628a3a80-164d-4fcc-a727-2fe09db852f2" fill="#000000"/><path d="M391.33961,320.42856c-0.643,0.642 -0.781,1.128 -0.594,2.083c1.848,9.383 2.325,12.093 2.665,15.13c0.219,1.964 0.668,4.463 0.996,5.555c1.931,6.41 2.615,8.927 3.352,12.331c0.452,2.088 1.073,4.506 1.379,5.374c0.307,0.868 0.857,4.421 1.223,7.896l0.665,6.318l-1.25,2.346c-2.065,3.873 -1.645,6.316 1.31,7.623c0.934,0.414 1.913,1.01 2.175,1.326c0.949,1.143 2.737,1.152 5.813,0.03c2.988,-1.089 4.695,-2.517 5.142,-4.3c0.292,-1.161 -2.987,-8.058 -4.535,-9.541c-0.941,-0.902 -1.457,-1.098 -2.552,-0.97l-1.372,0.16l-0.254,-1.998c-0.14,-1.098 -0.422,-3.395 -0.627,-5.103c-0.204,-1.709 -0.814,-4.744 -1.355,-6.745c-0.541,-2.001 -1.544,-5.87 -2.228,-8.598c-0.684,-2.728 -1.575,-5.981 -1.981,-7.23c-0.405,-1.248 -0.85,-3.569 -0.99,-5.157c-0.139,-1.588 -0.497,-4.048 -0.795,-5.466c-0.298,-1.419 -0.742,-3.74 -0.986,-5.158c-0.667,-3.874 -1.248,-5.551 -2.144,-6.178c-1.13,-0.791 -2.079,-0.707 -3.057,0.272z" data-paper-data="{&quot;wickUUID&quot;:&quot;de5b407f-100a-42a3-9e79-a038406b0621&quot;,&quot;wickType&quot;:&quot;path&quot;}" id="de5b407f-100a-42a3-9e79-a038406b0621" fill="#000000"/><path d="M392.07097,294.68526c-1.10233,0.95867 -1.49573,0.99133 -2.7594,0.245c-0.78933,-0.46633 -1.65299,-0.25957 -2.49432,0.08876c-1.75767,0.728 -2.55356,1.97347 -3.06623,4.91114c-0.56733,3.24933 -1.75194,6.94635 -2.44261,7.63702c-0.27233,0.27233 -0.38436,0.43684 -0.27569,0.43684c0.10833,0 -0.14819,0.99165 -0.49619,1.67898c-1.53233,3.02733 -1.07466,4.93772 1.30701,5.65139c2.67433,0.801 5.22439,4.32819 5.82939,8.04519c0.42733,2.62633 1.79518,3.79277 3.93751,3.79277c1.92233,0 3.08194,-0.37941 5.18127,-2.25741c1.008,-0.90133 2.23257,-1.6059 3.23957,-1.85923c2.13567,-0.538 3.61028,-1.95614 4.48361,-3.76047c1.144,-2.36267 0.81007,-7.702 -0.93293,-14.47567c-1.8,-6.99367 -2.20477,-7.83 -4.16444,-8.812c-1.57167,-0.78767 -3.60797,-1.60863 -5.28364,-1.96363c-0.58267,-0.12367 -1.40891,0.07265 -2.06291,0.64132z" data-paper-data="{&quot;wickUUID&quot;:&quot;6767cffc-75e0-4315-a506-701eb221839b&quot;,&quot;wickType&quot;:&quot;path&quot;}" id="6767cffc-75e0-4315-a506-701eb221839b" fill="#000000"/><path d="M385.04587,289.8606c-1.541,1.028 -4.056,3.864 -4.94,5.569c-0.263,0.506 -0.484,1.548 -0.492,2.316c-0.026,2.416 -1.083,5.943 -2.495,8.327c-3.544,5.983 -2.255,11.981 2.947,13.709c2.437,0.81 2.812,1.356 3.201,4.666c0.243,2.07 0.547,2.725 1.987,4.287c2.267,2.46 3.529,3.043 6.579,3.043c3.054,0 4.823,-0.669 7.025,-2.659c0.961,-0.868 2.304,-1.603 3.254,-1.781c2.405,-0.452 4.277,-2.374 6.222,-6.392c1.618,-3.344 1.709,-3.729 1.504,-6.365c-0.245,-3.141 -3.445,-16.931 -4.313,-18.583c-2.09,-3.976 -7.759,-6.388 -16.421,-6.985c-2.148,-0.148 -2.757,-0.021 -4.058,0.848zM396.92987,295.3656c1.535,0.587 3.187,1.488 3.671,2.003c1.06,1.13 3.853,12.111 4.177,16.429c0.364,4.861 -1.429,8.142 -4.793,8.77c-1.443,0.27 -2.472,0.855 -3.975,2.261c-1.841,1.721 -2.221,1.896 -4.121,1.896c-1.759,0 -2.232,-0.177 -2.965,-1.11c-0.48,-0.61 -0.874,-1.605 -0.875,-2.21c-0.008,-3.462 -2.957,-7.615 -5.861,-8.253c-2.63,-0.578 -2.778,-2.729 -0.486,-7.055c1.488,-2.807 2.082,-4.872 2.779,-9.65c0.241,-1.657 1.205,-2.521 3.926,-3.522c2.444,-0.899 5.419,-0.745 8.523,0.441z" data-paper-data="{&quot;wickUUID&quot;:&quot;a8f431e3-454b-4cd6-a362-91cf702ee681&quot;,&quot;wickType&quot;:&quot;path&quot;}" id="a8f431e3-454b-4cd6-a362-91cf702ee681" fill="#000000"/><path d="M363.82988,254.11864c-1.317,0.922 -2.415,3.931 -4.157,11.387c-0.866,3.706 -2.393,10.173 -3.393,14.372c-1.001,4.199 -2.212,10.547 -2.691,14.107c-0.48,3.56 -1.179,8.497 -1.554,10.972c-1.059,6.98 -0.872,7.803 3.038,13.386c3.746,5.346 5.314,6.823 8.515,8.022c2.694,1.009 3.609,1.023 11.669,0.184c10.332,-1.076 19.914,-3.724 25.312,-6.996c2.531,-1.533 3.642,-3.634 2.777,-5.25c-0.238,-0.444 -1.129,-3.927 -1.98,-7.739c-0.852,-3.813 -2.177,-9.4 -2.946,-12.415c-0.769,-3.015 -1.801,-8.135 -2.293,-11.377c-1.293,-8.516 -4.404,-20.068 -6.838,-25.386c-1.441,-3.15 -2.669,-3.966 -4.329,-2.878c-1.355,0.887 -1.374,2.171 -0.076,5.024c2.357,5.179 5.041,15.053 6.433,23.661c0.561,3.474 1.952,10.106 3.089,14.739c2.241,9.119 3.802,16.067 3.802,16.919c0,0.654 -1.599,1.505 -5.358,2.853c-5.38,1.928 -9.178,2.79 -15.908,3.607c-8.084,0.981 -10.185,1.023 -12.055,0.239c-1.755,-0.735 -2.585,-1.611 -5.816,-6.141c-2.912,-4.082 -2.966,-4.384 -1.943,-10.95c0.342,-2.201 0.93,-6.464 1.305,-9.475c0.623,-4.987 2.05,-11.596 6.368,-29.478c0.839,-3.474 1.782,-6.828 2.095,-7.453c0.789,-1.572 0.714,-3.025 -0.199,-3.851c-0.949,-0.859 -1.727,-0.881 -2.867,-0.083z" data-paper-data="{&quot;wickUUID&quot;:&quot;401b5e69-c46c-4060-96cc-5b1ee237e76b&quot;,&quot;wickType&quot;:&quot;path&quot;}" id="401b5e69-c46c-4060-96cc-5b1ee237e76b" fill="#000000"/><path d="M382.53517,255.17838c-0.608,0.607 -0.821,1.233 -0.683,2c0.111,0.614 0.705,4.243 1.319,8.065c0.613,3.821 1.673,8.79 2.355,11.042c0.681,2.251 1.443,5.852 1.692,8.001c0.25,2.149 0.62,5.309 0.823,7.023c0.43,3.631 1.347,4.959 3.117,4.514c1.683,-0.422 1.989,-1.448 1.54,-5.173c-0.219,-1.814 -0.615,-5.194 -0.88,-7.51c-0.266,-2.316 -0.93,-5.632 -1.478,-7.369c-0.547,-1.737 -1.286,-5.148 -1.641,-7.58c-1.285,-8.791 -2.021,-11.939 -3.027,-12.944c-1.185,-1.186 -2.003,-1.204 -3.137,-0.069z" data-paper-data="{&quot;wickUUID&quot;:&quot;afa7ca89-61cd-4e00-bf75-56958e9f6b57&quot;,&quot;wickType&quot;:&quot;path&quot;}" id="afa7ca89-61cd-4e00-bf75-56958e9f6b57" fill="#000000"/><path d="M395.6086,310.1368c-0.732,0.732 -0.759,0.991 -0.523,4.933c0.137,2.288 0.413,4.468 0.613,4.843c0.934,1.744 3.712,1.416 4.209,-0.496c0.146,-0.563 0.171,-2.727 0.056,-4.809c-0.163,-2.954 -0.354,-3.946 -0.869,-4.514c-0.861,-0.952 -2.511,-0.932 -3.486,0.043z" data-paper-data="{&quot;wickUUID&quot;:&quot;65d85a2e-b4bf-4024-90a7-13f05e8d520e&quot;,&quot;wickType&quot;:&quot;path&quot;}" fill="#ffffff"/><path d="M386.73668,302.12807c-0.611,0.708 -3.203,7.766 -3.6,9.803c-0.141,0.72 0.046,1.121 0.801,1.715c2.351,1.849 3.789,0.4 5.699,-5.739c1.38,-4.436 1.38,-4.438 0.686,-5.372c-0.919,-1.237 -2.698,-1.439 -3.586,-0.407z" data-paper-data="{&quot;wickUUID&quot;:&quot;532b31a0-297d-45da-ac6b-9559407c4592&quot;,&quot;wickType&quot;:&quot;path&quot;}" fill="#ffffff"/><path d="M348.01797,306.38607c-0.63,0.513 -0.968,1.686 -1.792,6.229c-1.9,10.478 -1.972,11.129 -1.327,12.114c1.454,2.219 3.895,1.287 4.507,-1.722c0.509,-2.503 2.258,-12.734 2.465,-14.42c0.288,-2.347 -2.041,-3.678 -3.853,-2.201z" data-paper-data="{&quot;wickUUID&quot;:&quot;b8a66cb1-9f78-4221-bab5-da7877e436db&quot;,&quot;wickType&quot;:&quot;path&quot;}" fill="#ffffff"/><path d="M353.1558,318.10274c-1.133,0.548 -1.553,2.106 -1.553,5.761c0,2.715 0.108,3.305 0.722,3.918c0.966,0.966 2.011,0.911 3.086,-0.164c0.77,-0.77 0.886,-1.214 0.886,-3.385c0,-1.375 0.1,-2.997 0.221,-3.604c0.176,-0.88 0.033,-1.293 -0.706,-2.031c-1.003,-1.004 -1.436,-1.084 -2.656,-0.495z" data-paper-data="{&quot;wickUUID&quot;:&quot;4d805971-bc9b-4409-aa5c-a9891a56c4f1&quot;,&quot;wickType&quot;:&quot;path&quot;}" fill="#ffffff"/><path d="M395.69091,301.52633c-1.098,0.533 -1.22,1.003 -1.983,7.675c-0.352,3.075 -1.88,10.975 -2.941,15.206c-0.975,3.889 -0.975,4.314 -0.002,5.287c1.106,1.106 2.904,0.958 3.691,-0.302c0.308,-0.493 1.807,-6.597 2.465,-10.037c0.176,-0.922 0.412,-1.58 0.523,-1.462c0.111,0.118 0.41,1.165 0.665,2.325c0.551,2.517 1.206,3.34 2.655,3.34c0.71,0 1.167,-0.204 1.74,-0.777c0.888,-0.887 0.962,-1.583 0.404,-3.753c-0.475,-1.847 -1.637,-8.325 -2.144,-11.954c-0.688,-4.923 -1.221,-5.862 -3.312,-5.831c-0.669,0.01 -1.461,0.137 -1.761,0.283z" data-paper-data="{&quot;wickUUID&quot;:&quot;5025c72a-6d08-4237-bada-4f0d6490adbb&quot;,&quot;wickType&quot;:&quot;path&quot;}" fill="#000000"/><path d="M390.09288,288.34177c-0.489,0.518 -1.014,1.408 -1.167,1.977c-0.154,0.57 -1.091,2.27 -2.083,3.778c-2.63,3.999 -3.868,6.379 -4.949,9.521c-0.529,1.536 -1.187,3.102 -1.463,3.482c-0.595,0.819 -1.344,3.213 -1.344,4.297c0,1.104 1.288,2.327 2.439,2.316c1.02,-0.01 1.379,-0.255 2.515,-1.72c0.963,-1.242 1.848,-2.92 2.522,-4.785c0.475,-1.313 0.481,-1.318 0.485,-0.399c0.002,0.512 -0.169,2.366 -0.381,4.121c-0.212,1.755 -0.389,4.047 -0.393,5.094c-0.008,1.805 0.034,1.94 0.81,2.593c1.089,0.916 2.201,0.9 3.146,-0.045c0.664,-0.664 0.751,-0.976 0.912,-3.267c0.25,-3.559 1.3,-11.559 2.441,-18.599c0.543,-3.355 0.905,-6.391 0.823,-6.913c-0.19,-1.212 -1.471,-2.393 -2.596,-2.393c-0.605,0 -1.069,0.255 -1.717,0.942z" data-paper-data="{&quot;wickUUID&quot;:&quot;30960c4e-8071-4c75-8a2b-b2303495e7b3&quot;,&quot;wickType&quot;:&quot;path&quot;}" fill="#000000"/><path d="M348.39598,304.43569c-0.634,0.557 -0.982,1.131 -1.088,1.795c-0.086,0.537 -0.312,1.336 -0.502,1.774c-0.499,1.148 -2.644,9.02 -3.477,12.762c-0.391,1.755 -0.841,3.567 -0.999,4.028c-0.527,1.536 0.763,3.284 2.425,3.284c0.764,0 2.083,-1.213 2.395,-2.202c0.148,-0.471 0.589,-2.351 0.98,-4.179c0.764,-3.579 2.609,-10.148 3.695,-13.161c0.881,-2.441 0.863,-3.176 -0.103,-4.141c-1.044,-1.044 -2.106,-1.031 -3.326,0.04z" data-paper-data="{&quot;wickUUID&quot;:&quot;f4dbc23d-c6e1-4217-ae11-4231ad7e77e4&quot;,&quot;wickType&quot;:&quot;path&quot;}" fill="#000000"/><path d="M351.29638,306.06684c-0.686,0.815 -0.71,0.941 -0.54,2.887c0.098,1.119 0.408,3.098 0.69,4.398c0.282,1.3 0.703,3.74 0.934,5.421c0.232,1.682 0.592,3.813 0.802,4.736c0.209,0.923 0.38,2.753 0.38,4.067c0,2.211 0.051,2.439 0.685,3.073c0.589,0.588 0.859,0.667 1.93,0.565c1.6,-0.154 2.729,-0.702 3.172,-1.54c0.672,-1.271 -0.036,-12.468 -0.895,-14.139c-0.201,-0.392 -0.602,-0.787 -0.891,-0.879c-0.353,-0.112 -0.578,-0.49 -0.683,-1.149c-0.087,-0.54 -0.322,-1.819 -0.522,-2.843c-0.2,-1.024 -0.437,-2.306 -0.527,-2.85c-0.09,-0.544 -0.468,-1.352 -0.841,-1.795c-0.562,-0.668 -0.874,-0.805 -1.827,-0.805c-0.967,0 -1.262,0.135 -1.867,0.853z" data-paper-data="{&quot;wickUUID&quot;:&quot;d52ee5ef-62ff-497c-a511-cceed7729de9&quot;,&quot;wickType&quot;:&quot;path&quot;}" fill="#000000"/></g><g fill="none" fill-rule="nonzero" stroke="none" stroke-width="1" stroke-linecap="butt" stroke-linejoin="miter" stroke-miterlimit="10" stroke-dasharray="" stroke-dashoffset="0" font-family="sans-serif" font-weight="normal" font-size="12" text-anchor="start" style="mix-blend-mode: normal"/><g id="wick_project_gui" fill="none" fill-rule="nonzero" stroke="none" stroke-width="1" stroke-linecap="butt" stroke-linejoin="miter" stroke-miterlimit="10" stroke-dasharray="" stroke-dashoffset="0" font-family="sans-serif" font-weight="normal" font-size="12" text-anchor="start" style="mix-blend-mode: normal"/></g></svg>