<svg version="1.1" xmlns="http://www.w3.org/2000/svg" xmlns:xlink="http://www.w3.org/1999/xlink" width="1260" height="594" viewBox="0,0,1260,594"><g transform="translate(202.32,11.88) scale(1.188,1.188)"><g id="wick_project_bg" fill-opacity="0" fill="#ffffff" fill-rule="nonzero" stroke="none" stroke-width="1" stroke-linecap="butt" stroke-linejoin="miter" stroke-miterlimit="10" stroke-dasharray="" stroke-dashoffset="0" font-family="none" font-weight="none" font-size="none" text-anchor="none" style="mix-blend-mode: normal"><rect x="0" y="0" width="720" height="480"/></g><g data-paper-data="{&quot;wickUUID&quot;:&quot;fd626f81-39d6-44b4-8e95-c7fd912e6e75&quot;,&quot;wickType&quot;:&quot;clipsandpaths&quot;}" fill="none" fill-rule="evenodd" stroke="none" stroke-width="1" stroke-linecap="butt" stroke-linejoin="miter" stroke-miterlimit="10" stroke-dasharray="" stroke-dashoffset="0" font-family="none" font-weight="none" font-size="none" text-anchor="none" style="mix-blend-mode: normal"><path d="M350.42174,297.18397c-4.74867,2.445 -8.93209,5.29827 -8.93209,5.65527c0,0.24533 2.4857,3.89471 6.93703,9.47338c5.28133,6.619 6.6276,8.74307 9.37493,14.79307c2.55333,5.623 3.71354,7.07063 6.48654,8.3823c2.07967,0.984 3.85552,1.47958 8.68752,2.19725l3.72489,0.5355l4.44989,-1.13623c4.65867,-1.17267 5.22507,-1.58619 8.9414,-6.32919c2.10633,-2.688 6.99688,-9.79029 7.67888,-11.10162c0.33467,-0.64367 -0.28183,-1.89019 -4.13616,-5.39586c-5.02633,-4.57233 -6.39212,-5.62271 -10.14079,-7.78804c-1.55833,-0.90033 -3.945,-2.34014 -5.13667,-3.10281c-5.93267,-3.797 -11.17692,-6.00218 -16.69625,-7.01985c-1.56633,-0.289 -3.38356,-0.82767 -3.98989,-1.17934c-0.60633,-0.35167 -1.72225,-0.64478 -1.84925,-0.63911c-0.127,0.00533 -2.64998,1.23928 -5.39998,2.65528z" data-paper-data="{&quot;wickUUID&quot;:&quot;3dd69a08-e941-4d11-84ca-79f477f992de&quot;,&quot;wickType&quot;:&quot;path&quot;}" id="3dd69a08-e941-4d11-84ca-79f477f992de" fill="#8000ff"/><path d="M330.3021,249.98925c-0.98933,0.27933 -3.04595,1.1152 -3.98162,1.61653c-2.04233,1.09333 -11.30775,10.06938 -12.90242,12.48005c-2.00667,3.034 -3.03864,8.45808 -3.06464,16.30208c-0.02333,7.07267 0.52738,8.18366 4.95705,10.79066c6.84267,4.027 13.81459,6.84023 17.80826,7.1859c3.90233,0.33767 6.97622,-0.47258 13.95755,-3.87191c6.21767,-3.02733 14.51723,-7.69547 16.53023,-9.21214c3.128,-2.356 3.37479,-7.9732 0.65179,-15.02387c-4.43733,-11.48967 -11.98034,-18.73184 -20.84567,-19.98917c-4.462,-0.633 -11.1582,-0.82946 -13.11053,-0.27813zM319.44686,269.7936c1.26633,0.65467 1.92217,2.12352 2.3655,5.18985c0.60333,4.17333 0.5838,4.26784 -0.9292,5.70717c-1.03,0.97967 -0.2748,1.01643 -1.1558,1.01643c-2.03967,0 -2.65277,-1.129 -3.57944,-6.60967c-0.478,-2.82767 -0.04545,-4.14446 1.62422,-5.21379c1.286,-0.82367 0.36905,-0.76532 1.67472,-0.08999zM352.5764,285.3776c0.62333,0.62333 0.95327,0.58225 0.95327,0.95325c0,1.01567 -1.25296,2.24429 -2.46729,2.51029c-1.261,0.276 -4.02688,1.98835 -5.80321,3.58302c-1.464,1.31433 -2.18248,1.4207 -3.47781,0.4017c-0.64933,-0.51067 -0.46458,0.36973 -0.46458,-0.49094c0,-2.071 3.75822,-5.25561 8.46989,-7.19361c1.03733,-0.42667 1.50851,-0.61552 1.75618,-0.61985c0.24767,-0.00433 0.41022,0.23281 1.03355,0.85614z" data-paper-data="{&quot;wickUUID&quot;:&quot;9852c9fb-d4c7-4ed2-a409-5663b67d1e2b&quot;,&quot;wickType&quot;:&quot;path&quot;}" id="9852c9fb-d4c7-4ed2-a409-5663b67d1e2b" fill="#ffffff"/><path d="M381.25774,200.34459c-7.78233,1.44333 -19.69857,5.35765 -26.81224,8.80732c-3.20167,1.55267 -3.41693,1.67874 -4.99593,0.70274c-1.18567,-0.73267 -0.90943,-0.69418 -1.0511,-3.10685l-0.30004,-1.84344l-3.69812,-2.20719c-1.925,-1.13333 -4.74951,-2.00837 -5.17318,-2.02304c-1.64,-0.056 -9.38492,8.88605 -12.50325,14.44938c-1.577,2.81367 -4.51473,9.61452 -5.6594,13.12152c-0.90767,2.78 -1.71754,6.33426 -3.91787,17.23859c-0.72133,3.575 -1.39916,7.22276 -1.50349,7.67309c-0.14667,0.63367 1.77703,0.7259 3.95336,-1.36343c2.05133,-1.96933 3.24796,-2.8959 5.05096,-3.7519c4.79633,-2.276 5.06509,-2.31531 12.35976,-2.08731c3.696,0.11533 7.23908,0.38991 8.48775,0.66424c3.168,0.696 6.70158,2.23569 9.09858,3.98136c2.79367,2.035 6.95808,6.32547 8.81908,9.12447c4.38467,6.59567 7.76294,17.31975 6.87827,21.79442c-0.30533,1.54433 0.52753,2.3281 1.0032,2.1811c4.44733,-1.37333 12.03069,-1.97463 19.29402,-1.5263c8.995,0.555 13.53713,1.23791 16.4778,2.48991c0.463,0.19733 1.44692,-0.70988 2.18759,-3.16155c0.99367,-3.288 2.31047,-5.82567 5.3218,-10.25534c3.094,-4.55067 4.63269,-7.8234 4.42102,-8.16573c-0.45367,-0.73367 -6.04696,-3.31645 -9.51596,-4.20945c-4.45167,-1.146 -13.01746,-2.63374 -16.84146,-2.92374c-1.492,-0.11333 -5.11339,-0.03629 -8.00206,0.17471c-5.708,0.41733 -5.68863,1.47149 -6.0513,0.02582c-0.80033,-3.18867 3.2657,-8.62369 16.3877,-22.03269c6.76567,-6.914 7.18073,-7.71322 6.9074,-8.66622c-0.31767,-1.108 -2.12484,-4.59232 -6.63884,-12.18899c-4.08333,-6.87167 -5.67623,-9.85359 -6.17523,-11.56159l-0.75286,-1.77118l-2.515,-0.07814c-1.117,0.01667 -3.25763,0.25774 -4.54096,0.49541z" data-paper-data="{&quot;wickUUID&quot;:&quot;12974d88-3fef-4bb8-8f7e-c746a8b9edfd&quot;,&quot;wickType&quot;:&quot;path&quot;}" id="12974d88-3fef-4bb8-8f7e-c746a8b9edfd" fill="#ff8000"/><path d="M329.2884,245.6138c-0.83,0.209 -2.884,1.015 -4.562,1.79c-2.72,1.257 -3.682,2.043 -8.849,7.242c-3.188,3.208 -6.16,6.549 -6.605,7.424c-3.986,7.848 -4.549,25.086 -0.963,29.516c2.1,2.595 16.51,9.904 21.215,10.761c1.138,0.207 3.05,0.467 4.251,0.577c1.2,0.111 2.754,0.31 3.453,0.443c1.651,0.315 5.013,-0.752 7.06,-2.24c0.873,-0.634 4.117,-2.388 7.209,-3.896c7.518,-3.669 14.838,-8.059 16.396,-9.834c2.938,-3.345 3.758,-7.578 2.462,-12.702c-1.232,-4.872 -3.811,-11.084 -6.068,-14.613c-2.748,-4.299 -8.103,-9.501 -11.756,-11.42c-4.526,-2.379 -8.01,-3.123 -15.384,-3.287c-3.491,-0.078 -7.028,0.03 -7.859,0.239zM345.2914,251.0968c8.545,2.215 15.266,9.648 19.244,21.284c1.944,5.685 1.706,9.749 -0.702,12.005c-1.726,1.616 -11.156,7.01 -15.776,9.022c-0.982,0.428 -2.946,1.42 -4.364,2.206c-3.227,1.786 -7.199,2.576 -11.125,2.211c-3.291,-0.306 -8.872,-2.526 -15.258,-6.068c-4.995,-2.77 -5.611,-3.349 -6.127,-5.756c-0.996,-4.643 -0.143,-15.41 1.568,-19.805c0.685,-1.76 1.846,-3.162 6.439,-7.779c5.84,-5.869 7.772,-7.177 11.901,-8.06c2.647,-0.566 10.801,-0.141 14.2,0.74z" data-paper-data="{&quot;wickUUID&quot;:&quot;c31bc735-1216-43b7-afc5-db2d7177d595&quot;,&quot;wickType&quot;:&quot;path&quot;}" id="c31bc735-1216-43b7-afc5-db2d7177d595" fill="#000000"/><path d="M349.53918,284.65235c-3.994,1.425 -8.623,5.241 -8.623,7.108c0,2.061 2.792,2.984 4.204,1.388c1.06,-1.198 5.303,-3.906 6.119,-3.906c1.099,0 2.77,-1.556 2.77,-2.579c0,-0.925 -1.654,-2.596 -2.534,-2.562c-0.243,0.01 -1.114,0.258 -1.936,0.551z" data-paper-data="{&quot;wickUUID&quot;:&quot;d023798c-42e3-4e9a-b2d8-7cb59cb0c48e&quot;,&quot;wickType&quot;:&quot;path&quot;}" id="d023798c-42e3-4e9a-b2d8-7cb59cb0c48e" fill="#000000"/><path d="M316.98117,269.82022c-1.528,1.201 -1.875,2.98 -1.208,6.196c0.816,3.934 1.309,5.247 2.138,5.691c1.231,0.659 2.136,0.449 3.52,-0.814c1.302,-1.19 1.319,-1.249 1.11,-3.869c-0.338,-4.221 -0.881,-6.113 -2.042,-7.112c-1.299,-1.117 -2.186,-1.141 -3.518,-0.092z" data-paper-data="{&quot;wickUUID&quot;:&quot;2452421f-b396-467e-8728-d35efd257811&quot;,&quot;wickType&quot;:&quot;path&quot;}" id="2452421f-b396-467e-8728-d35efd257811" fill="#000000"/><path d="M338.33754,195.88552c-7.052,3.784 -14.415,13.564 -19.581,26.008c-1.943,4.682 -2.686,7.442 -5.043,18.748c-2.391,11.463 -3.211,16.015 -3.549,19.695c-0.254,2.761 -0.204,3.107 0.557,3.868c0.46,0.46 1.255,0.836 1.766,0.836c1.586,0 2.151,-1.119 2.603,-5.157c0.43,-3.846 1.29,-8.461 3.807,-20.432c1.961,-9.326 2.4,-10.903 4.378,-15.742c2.713,-6.636 4.24,-9.387 8.031,-14.469c3.017,-4.046 6.639,-7.697 8.279,-8.345c0.479,-0.19 7.92,4.063 8.363,4.779c0.142,0.23 0.213,1.162 0.157,2.07c-0.085,1.388 0.07,1.788 0.971,2.496c1.414,1.113 2.133,1.067 4.869,-0.315c4.581,-2.312 10.252,-4.452 17.088,-6.448c7.894,-2.304 11.538,-3.067 14.76,-3.09l2.229,-0.015l0.859,2.358c0.473,1.297 2.339,4.823 4.147,7.836c4.631,7.717 7.694,13.2 8.225,14.723l0.455,1.305l-8.101,8.214c-8.445,8.563 -12.026,12.736 -14.391,16.772c-1.591,2.715 -1.744,3.904 -0.63,4.912c0.607,0.549 1.143,0.643 2.48,0.433c0.938,-0.147 3.965,-0.359 6.725,-0.471c4.223,-0.171 6.018,-0.037 11.307,0.842c8.55,1.423 13.388,2.652 16.428,4.176c1.406,0.704 2.767,1.451 3.026,1.658c0.343,0.276 -0.75,2.229 -4.026,7.195c-3.826,5.8 -4.656,7.348 -5.568,10.387c-0.59,1.963 -1.116,3.617 -1.17,3.674c-0.053,0.057 -0.973,-0.283 -2.043,-0.757c-1.999,-0.884 -7.296,-1.514 -17.816,-2.119c-7.998,-0.46 -18.117,1.272 -22.022,3.77c-0.984,0.629 -2.638,1.52 -3.674,1.978c-1.037,0.459 -2.171,1.27 -2.52,1.803c-0.835,1.274 -0.426,2.849 0.896,3.451c0.919,0.419 1.517,0.218 5.841,-1.964c2.998,-1.513 5.94,-2.68 7.792,-3.091c4.44,-0.986 13.666,-1.177 21.714,-0.449c7.324,0.663 8.618,1.05 10.004,2.997c1.006,1.413 1.952,1.768 3.32,1.248c1.505,-0.572 2.197,-1.888 3.833,-7.288c1.395,-4.6 1.717,-5.224 6.11,-11.815c2.82,-4.232 4.723,-7.494 4.856,-8.324c0.479,-2.991 -3.715,-6.295 -10.957,-8.631c-4.89,-1.577 -16.48,-3.55 -23.301,-3.967l-4.455,-0.272l2.018,-2.38c1.11,-1.31 5.793,-6.285 10.407,-11.058c5.756,-5.953 8.499,-9.076 8.74,-9.95c0.609,-2.211 -1.787,-7.363 -8.365,-17.987c-3.347,-5.405 -4.689,-8.121 -5.431,-10.991c-0.338,-1.307 -0.922,-2.601 -1.298,-2.876c-1.278,-0.935 -9.562,-0.336 -14.808,1.069c-7.194,1.927 -14.173,4.133 -17.699,5.595c-5.174,2.144 -5.577,2.229 -5.89,1.243c-0.139,-0.437 -1.361,-1.511 -2.717,-2.385c-4.037,-2.605 -9.95,-6.023 -10.388,-6.006c-0.224,0.009 -0.943,0.303 -1.598,0.655z" data-paper-data="{&quot;wickUUID&quot;:&quot;b0f25387-798d-4941-a31d-1d1def2a361a&quot;,&quot;wickType&quot;:&quot;path&quot;}" id="b0f25387-798d-4941-a31d-1d1def2a361a" fill="#000000"/><path d="M356.46592,291.44175c-0.684,0.489 -0.884,0.966 -0.793,1.892c0.155,1.584 2.057,2.921 4.614,3.244c2.86,0.36 8.742,2.151 11.298,3.438c1.265,0.638 4.39,2.467 6.943,4.064c2.552,1.597 5.266,3.223 6.03,3.613c2.012,1.026 5.228,3.607 9.481,7.608l3.728,3.507l-1.843,2.874c-4.09,6.381 -8.867,12.405 -10.769,13.581c-0.682,0.421 -2.931,1.138 -4.997,1.593l-3.757,0.826l-4.947,-0.766c-3.942,-0.61 -5.457,-1.038 -7.454,-2.106c-2.793,-1.493 -3.15,-2.026 -6.564,-9.786c-2.036,-4.626 -2.761,-5.705 -9.789,-14.556c-5.408,-6.811 -7.524,-9.884 -7.524,-10.927c0,-0.892 -1.263,-1.967 -2.313,-1.967c-0.473,0 -1.239,0.378 -1.701,0.839c-1.801,1.802 -0.112,5.332 6.448,13.477c7.909,9.819 8.742,11.029 10.62,15.439c0.697,1.637 1.884,4.242 2.637,5.789c0.753,1.548 1.369,3.007 1.369,3.243c0,0.236 1.74,1.35 3.868,2.475c3.489,1.845 4.35,2.12 8.783,2.807c6.297,0.977 7.471,0.96 12.273,-0.175c4.666,-1.103 6.011,-1.857 8.925,-5.004c4.606,-4.975 12.166,-16.287 12.18,-18.226c0.014,-1.874 -11.947,-12.715 -16.671,-15.11c-0.981,-0.498 -3.708,-2.129 -6.058,-3.625c-2.351,-1.496 -5.361,-3.269 -6.691,-3.94c-2.758,-1.393 -9.11,-3.462 -12.047,-3.924c-1.091,-0.172 -2.519,-0.434 -3.174,-0.582c-0.822,-0.186 -1.473,-0.067 -2.105,0.385z" data-paper-data="{&quot;wickUUID&quot;:&quot;a417b575-3a64-4239-a1c0-69ebc95d3f2c&quot;,&quot;wickType&quot;:&quot;path&quot;}" id="a417b575-3a64-4239-a1c0-69ebc95d3f2c" fill="#000000"/><path d="M381.57587,339.91505c-1.925,2.068 -9.389,12.558 -10.699,15.037c-0.936,1.77 -1.017,2.182 -0.607,3.083c0.731,1.603 2.098,1.922 5.388,1.258c1.557,-0.314 5.331,-0.955 8.386,-1.424c3.055,-0.469 7.027,-1.269 8.828,-1.778l3.273,-0.925v1.514c0,1.216 0.25,1.724 1.27,2.582c1.044,0.879 1.542,1.032 2.801,0.863c2.994,-0.401 5.915,-3.451 7.593,-7.927c0.844,-2.252 0.596,-3.706 -0.736,-4.313c-1.083,-0.494 -6.627,0.708 -14.234,3.085c-2.363,0.739 -4.784,1.343 -5.378,1.343c-0.595,0 -3.021,0.356 -5.392,0.792c-2.37,0.435 -4.383,0.718 -4.473,0.629c-0.182,-0.183 5.733,-8.44 7.495,-10.461c1.331,-1.527 1.45,-2.944 0.342,-4.053c-1.175,-1.175 -2.306,-0.971 -3.857,0.695z" data-paper-data="{&quot;wickUUID&quot;:&quot;454aed68-bd0a-4db5-a2be-9ba16eb0afe0&quot;,&quot;wickType&quot;:&quot;path&quot;}" id="454aed68-bd0a-4db5-a2be-9ba16eb0afe0" fill="#000000"/><path d="M386.87544,337.83383c-1.599,1.6 -1.129,2.823 4.119,10.71c2.898,4.356 7.235,11.488 11.096,18.25c1.37,2.4 3.267,5.388 4.216,6.64c1.73,2.281 3.117,5.01 2.74,5.387c-0.111,0.111 -1.854,-0.041 -3.874,-0.338c-2.019,-0.296 -5.011,-0.549 -6.647,-0.56c-2.532,-0.017 -3.198,0.128 -4.467,0.972c-0.825,0.549 -1.859,1.743 -2.315,2.673c-0.786,1.608 -0.795,1.767 -0.186,3.601c2.145,6.457 10.877,8.018 17.568,3.141c1.043,-0.761 2.808,-1.841 3.922,-2.401c2.254,-1.133 3.2,-2.682 2.765,-4.527c-0.229,-0.971 -2.27,-5.532 -3.538,-7.908c-0.252,-0.471 -1.289,-1.989 -2.303,-3.372c-1.015,-1.383 -3.494,-5.371 -5.51,-8.862c-2.016,-3.492 -5.114,-8.631 -6.884,-11.421c-1.77,-2.79 -4.062,-6.45 -5.093,-8.133c-2.635,-4.3 -4.132,-5.328 -5.609,-3.852z" data-paper-data="{&quot;wickUUID&quot;:&quot;fac2a3d3-c8c0-4408-a536-54daafa6e98e&quot;,&quot;wickType&quot;:&quot;path&quot;}" id="fac2a3d3-c8c0-4408-a536-54daafa6e98e" fill="#000000"/><path d="M433.29062,274.99186c-6.38667,1.66667 -9.69248,3.43709 -10.75015,5.75409c-0.36667,0.80333 -1.33976,3.64806 -1.86209,5.82939l-0.9789,4.15252l1.4332,1.47784c1.11567,0.90367 2.93177,1.11787 5.64177,0.66254c2.859,-0.48033 3.07728,-0.6051 3.74428,0.68457c0.71967,1.39167 0.45362,1.30126 -0.67405,2.72026c-0.55233,0.695 -0.88132,1.95072 -0.81299,2.01905c0.06833,0.06833 1.57684,0.86319 2.63117,1.23386c1.66,0.58367 2.59812,0.59165 4.13245,0.27298c2.05333,-0.42633 4.58072,-2.09078 5.37739,-3.56745c0.305,-0.56567 1.76404,-2.40367 3.00671,-3.78567c2.76667,-3.07633 3.08668,-4.09454 1.79901,-5.43821c-0.93333,-0.97433 -0.96647,-1.27425 -1.13447,-5.77792c-0.11833,-3.16933 -0.75418,-5.38425 -1.06618,-5.75925c-1.16633,-1.40133 -6.00682,-1.64793 -10.48715,-0.4786z" data-paper-data="{&quot;wickUUID&quot;:&quot;9a7a6a7d-4c6c-4ca3-846d-44605e1d823f&quot;,&quot;wickType&quot;:&quot;path&quot;}" id="9a7a6a7d-4c6c-4ca3-846d-44605e1d823f" fill="#000000"/><path d="M435.73742,269.79696c-2.311,0.437 -9.091,2.554 -11.274,3.52c-0.934,0.413 -2.776,1.805 -4.092,3.093c-2.155,2.109 -2.451,2.599 -2.964,4.909l-0.571,2.567l-2.456,-0.136c-2.438,-0.135 -3.136,-0.285 -10.378,-2.227c-4.529,-1.214 -5.223,-1.228 -11.312,-0.216c-3.01,0.501 -6.626,0.792 -9.836,0.793c-2.791,0 -6.362,0.252 -7.934,0.56c-1.573,0.308 -3.663,0.669 -4.645,0.804c-2.648,0.363 -8.657,2.175 -10.826,3.265c-1.782,0.895 -3.452,2.838 -3.456,4.019c0,0.283 0.448,0.963 0.997,1.512c1.13,1.13 2.076,1.025 3.809,-0.423c0.571,-0.478 1.553,-1.055 2.182,-1.284c2.823,-1.027 6.88,-2.084 8.881,-2.313c1.2,-0.137 2.807,-0.427 3.57,-0.645c0.764,-0.217 4.96,-0.555 9.324,-0.751c4.364,-0.196 9.273,-0.618 10.91,-0.939c3.303,-0.648 4.919,-0.422 11.228,1.567c1.703,0.537 3.964,0.977 5.026,0.977c2.497,0 3.186,0.287 3.189,1.331c0.008,3.166 1.909,5.873 4.843,6.895c1.346,0.47 2.407,1.194 3.219,2.2c1.452,1.796 4.407,3.792 7.453,5.033c2.063,0.841 2.423,0.873 4.915,0.439c4.486,-0.781 8.553,-3.333 10.106,-6.339c0.405,-0.785 1.481,-2.14 2.391,-3.013c2.315,-2.221 3.317,-4.3 3.347,-6.943c0.019,-1.607 -0.195,-2.496 -0.81,-3.372c-0.662,-0.942 -0.89,-2.046 -1.095,-5.284c-0.144,-2.264 -0.513,-4.585 -0.828,-5.192c-1.696,-3.28 -7.822,-5.371 -12.913,-4.407zM441.77542,274.97696c2.345,0.651 2.69,1.495 2.69,6.588c0,4.269 0.039,4.476 0.992,5.226c1.565,1.231 1.252,2.259 -1.587,5.199c-1.418,1.47 -2.579,2.874 -2.579,3.122c0,0.248 -0.541,1.066 -1.202,1.819c-1.295,1.476 -4.022,2.626 -6.224,2.626c-1.25,0 -4.476,-1.323 -4.476,-1.835c0,-0.128 0.446,-0.763 0.992,-1.411c1.185,-1.409 1.247,-2.301 0.245,-3.54c-0.732,-0.903 -0.807,-0.912 -3.679,-0.429c-2.248,0.377 -3.254,0.385 -4.312,0.033c-2.35,-0.783 -2.62,-1.247 -2.002,-3.428c0.295,-1.038 0.858,-3.312 1.253,-5.054c1.017,-4.491 2.414,-5.62 9.82,-7.929c4.443,-1.386 7.541,-1.689 10.069,-0.987z" data-paper-data="{&quot;wickUUID&quot;:&quot;5939bde0-070c-4412-923c-abf2cb1d6bf6&quot;,&quot;wickType&quot;:&quot;path&quot;}" id="5939bde0-070c-4412-923c-abf2cb1d6bf6" fill="#000000"/></g><g fill="none" fill-rule="nonzero" stroke="none" stroke-width="1" stroke-linecap="butt" stroke-linejoin="miter" stroke-miterlimit="10" stroke-dasharray="" stroke-dashoffset="0" font-family="sans-serif" font-weight="normal" font-size="12" text-anchor="start" style="mix-blend-mode: normal"/><g id="wick_project_gui" fill="none" fill-rule="nonzero" stroke="none" stroke-width="1" stroke-linecap="butt" stroke-linejoin="miter" stroke-miterlimit="10" stroke-dasharray="" stroke-dashoffset="0" font-family="sans-serif" font-weight="normal" font-size="12" text-anchor="start" style="mix-blend-mode: normal"/></g></svg>