<svg version="1.1" xmlns="http://www.w3.org/2000/svg" xmlns:xlink="http://www.w3.org/1999/xlink" width="1260" height="594" viewBox="0,0,1260,594"><g transform="translate(175.45524,113.67446) scale(0.94752,0.94752)"><g id="wick_project_bg" fill="#333333" fill-rule="nonzero" stroke="none" stroke-width="1" stroke-linecap="butt" stroke-linejoin="miter" stroke-miterlimit="10" stroke-dasharray="" stroke-dashoffset="0" font-family="none" font-weight="none" font-size="none" text-anchor="none" style="mix-blend-mode: normal"><rect x="0" y="0" width="720" height="480"/></g><g data-paper-data="{&quot;wickUUID&quot;:&quot;d2fcfe24-3962-44e3-b2e3-d18671805d84&quot;,&quot;wickType&quot;:&quot;clipsandpaths&quot;}" fill="#ffffff" fill-rule="evenodd" stroke="none" stroke-width="1" stroke-linecap="butt" stroke-linejoin="miter" stroke-miterlimit="10" stroke-dasharray="" stroke-dashoffset="0" font-family="none" font-weight="none" font-size="none" text-anchor="none" style="mix-blend-mode: normal"><path d="M282.00775,62.15175c-4.741,1.276 -8.686,3.262 -15.861,7.982c-9.601,6.317 -12.213,10.123 -14.089,20.528c-0.618,3.425 -1.536,7.595 -2.041,9.266c-1.258,4.166 -1.718,13.814 -0.925,19.391c0.802,5.644 2.364,9.327 5.224,12.324c3.239,3.392 13.502,9.976 18.4,11.802c2.736,1.021 4.852,2.245 5.807,3.359c1.453,1.697 1.738,1.773 8.906,2.364l7.406,0.611l6.347,-2.186c8.995,-3.099 11.406,-4.673 18.081,-11.8c6.552,-6.997 10.436,-13.042 11.474,-17.854c1.909,-8.86 -0.98,-24.116 -6.852,-36.19c-2.594,-5.334 -3.817,-7.134 -6.578,-9.681c-5.108,-4.713 -11.48,-7.922 -19.107,-9.623c-7.418,-1.654 -10.904,-1.717 -16.192,-0.293zM296.11575,68.08875c6.782,1.472 13.129,4.508 16.977,8.121c3.575,3.356 7.817,12.069 10.314,21.184c1.415,5.163 1.691,7.299 1.705,13.2l0.018,7.04l-2.364,4.199c-1.44,2.556 -4.59,6.525 -8.055,10.147c-6.011,6.284 -7.675,7.328 -16.525,10.367c-5.229,1.795 -6.119,1.799 -5.779,0.021c0.379,-1.98 -1.359,-3.545 -3.304,-2.976c-0.837,0.245 -3.369,0.45 -5.628,0.455c-5.128,0.013 -11.014,-2.321 -18.528,-7.347c-9.249,-6.187 -10.23,-8.18 -10.2,-20.732c0.014,-6.093 0.28,-9.038 1.028,-11.404c0.554,-1.755 1.418,-5.555 1.919,-8.444c1.542,-8.885 3.492,-11.545 12.874,-17.557c5.936,-3.805 10.113,-5.815 13.787,-6.636c4.561,-1.019 5.533,-0.989 11.761,0.362z" data-paper-data="{&quot;wickUUID&quot;:&quot;14f3e203-d6af-4108-bd75-9a6be0c0abf2&quot;,&quot;wickType&quot;:&quot;path&quot;,&quot;originalStyle&quot;:{&quot;strokeColor&quot;:null,&quot;fillColor&quot;:[&quot;Color&quot;,1,1,1],&quot;strokeWidth&quot;:1}}" id="14f3e203-d6af-4108-bd75-9a6be0c0abf2"/><path d="M338.32981,10.58589c-4.899,0.585 -16.377,3.578 -21.142,5.514c-2.244,0.912 -4.874,1.511 -6.68,1.522c-1.638,0.01 -4.959,0.279 -7.379,0.598c-2.42,0.318 -6.822,0.834 -9.783,1.146c-5.814,0.612 -10.815,2.264 -13.008,4.296c-0.758,0.701 -1.908,2.332 -2.557,3.622c-0.649,1.291 -2.161,3.535 -3.36,4.987c-8.092,9.797 -15.28,20.293 -16.777,24.497c-2.152,6.04 -3.489,9.416 -5.362,13.534c-1.075,2.363 -1.955,4.512 -1.955,4.776c0,0.264 0.522,1.631 1.16,3.037c0.639,1.407 1.167,3.674 1.174,5.038c0.01,1.99 0.303,2.67 1.479,3.441c1.359,0.89 1.575,0.89 2.934,0c1.188,-0.779 1.467,-1.441 1.467,-3.483c0,-1.387 -0.417,-3.746 -0.927,-5.242l-0.927,-2.719l2.906,-7.212c1.598,-3.967 3.065,-7.896 3.261,-8.731c0.614,-2.628 6.36,-10.937 15.522,-22.449c2.017,-2.534 4.043,-5.509 4.504,-6.61c1.145,-2.742 4.737,-4.197 12.265,-4.968c3.262,-0.334 7.779,-0.847 10.037,-1.14c2.259,-0.293 5.46,-0.541 7.114,-0.551c1.926,-0.012 4.241,-0.564 6.438,-1.536c4.7,-2.078 18.412,-5.522 21.987,-5.522c2.266,0 3.003,0.231 3.268,1.026c0.187,0.565 1.065,3.007 1.951,5.427c0.885,2.42 2.223,7.23 2.973,10.69c1.58,7.283 1.781,6.743 -4.234,11.385c-2.954,2.278 -3.529,3.086 -5.072,7.115c-0.957,2.5 -2.148,6.543 -2.647,8.985c-0.499,2.443 -1.582,6.236 -2.408,8.43c-0.826,2.195 -1.502,4.744 -1.502,5.665c0,2.472 1.778,3.211 12.907,5.367c3.486,0.675 3.899,0.915 4.812,2.792c0.549,1.129 1.384,3.769 1.856,5.867c0.472,2.097 1.453,5.401 2.18,7.342c0.822,2.194 1.179,4.081 0.945,4.987c-0.208,0.802 -1.902,3.497 -3.765,5.99c-1.863,2.492 -4.972,7.09 -6.908,10.219c-1.936,3.128 -4.605,7.425 -5.932,9.549l-2.411,3.861l-7.856,1.801c-4.32,0.99 -10.435,2.681 -13.587,3.758c-4.755,1.625 -5.792,2.197 -6.083,3.357c-0.431,1.715 1.179,3.698 3.003,3.698c0.7,0 3.893,-0.901 7.096,-2.003c3.202,-1.101 9.069,-2.663 13.037,-3.471c3.968,-0.808 7.613,-1.799 8.101,-2.204c0.487,-0.405 1.587,-1.945 2.444,-3.422c0.857,-1.478 3.02,-4.967 4.806,-7.753c1.787,-2.785 4.233,-6.614 5.435,-8.506c1.202,-1.893 3.561,-5.348 5.241,-7.677c2.699,-3.741 3.085,-4.643 3.308,-7.722c0.206,-2.851 -0.024,-4.089 -1.26,-6.789c-0.831,-1.817 -1.803,-4.908 -2.159,-6.87c-0.757,-4.175 -2.864,-9.178 -4.445,-10.551c-0.994,-0.863 -5.93,-2.141 -12.111,-3.134c-1.21,-0.195 -2.2,-0.442 -2.2,-0.549c0,-0.107 0.404,-1.162 0.898,-2.344c0.494,-1.183 1.565,-4.973 2.38,-8.425c2.109,-8.922 2.94,-10.494 7.515,-14.205c2.165,-1.757 4.452,-4.028 5.082,-5.048c1.082,-1.752 1.099,-2.095 0.303,-6.18c-1.439,-7.388 -2.685,-12.227 -4.112,-15.973c-0.755,-1.983 -1.821,-4.86 -2.369,-6.393c-1.616,-4.527 -2.683,-4.914 -10.871,-3.937z" data-paper-data="{&quot;wickUUID&quot;:&quot;33490bfb-246b-48f0-b461-3b3cba754963&quot;,&quot;wickType&quot;:&quot;path&quot;,&quot;originalStyle&quot;:{&quot;strokeColor&quot;:null,&quot;fillColor&quot;:[&quot;Color&quot;,1,1,1],&quot;strokeWidth&quot;:1}}" id="33490bfb-246b-48f0-b461-3b3cba754963"/><path d="M311.75557,18.42615c-0.711,0.774 -2.613,3.156 -4.227,5.293c-1.613,2.136 -4.715,6.122 -6.893,8.857c-2.178,2.734 -3.96,5.459 -3.96,6.056c0,1.259 1.755,3.026 3.007,3.026c1.153,0 4.228,-3.281 9.072,-9.68c2.198,-2.905 4.999,-6.601 6.223,-8.214c2.498,-3.291 2.714,-4.369 1.159,-5.776c-1.492,-1.35 -2.865,-1.213 -4.381,0.438z" data-paper-data="{&quot;wickUUID&quot;:&quot;e8e5947b-d529-4980-901e-69cec0a2739e&quot;,&quot;wickType&quot;:&quot;path&quot;,&quot;originalStyle&quot;:{&quot;strokeColor&quot;:null,&quot;fillColor&quot;:[&quot;Color&quot;,1,1,1],&quot;strokeWidth&quot;:1}}" id="e8e5947b-d529-4980-901e-69cec0a2739e"/><path d="M314.55957,88.85633c-1.05,1.113 -5.437,4.041 -9.75,6.506c-4.312,2.466 -10.172,6.047 -13.021,7.958l-5.179,3.475l-1.567,-1.085c-0.863,-0.597 -4.208,-2.49 -7.435,-4.207c-3.227,-1.716 -7.378,-3.938 -9.226,-4.936c-2.619,-1.414 -3.58,-1.676 -4.361,-1.188c-1.692,1.057 -2.324,2.475 -1.618,3.627c0.747,1.218 7.923,5.646 14.944,9.222c2.76,1.405 5.389,3.002 5.843,3.548c2.155,2.597 4.171,2.316 8.509,-1.187c2.489,-2.01 14.481,-9.314 20.681,-12.597c6.283,-3.327 9.275,-7.804 6.841,-10.237c-1.398,-1.399 -2.563,-1.123 -4.661,1.101z" data-paper-data="{&quot;wickUUID&quot;:&quot;980a999b-9dd1-4452-b845-a58385484e89&quot;,&quot;wickType&quot;:&quot;path&quot;,&quot;originalStyle&quot;:{&quot;strokeColor&quot;:null,&quot;fillColor&quot;:[&quot;Color&quot;,1,1,1],&quot;strokeWidth&quot;:1}}" id="980a999b-9dd1-4452-b845-a58385484e89"/><path d="M297.77497,102.89333c-0.566,1.244 -0.812,1.325 -2.304,0.762c-2.55,-0.962 -4.076,0.691 -4.076,4.416c0,3.363 1.844,5.749 4.443,5.749c3.64,0 8.341,-7.494 6.81,-10.855c-0.923,-2.026 -3.962,-2.071 -4.873,-0.072z" data-paper-data="{&quot;wickUUID&quot;:&quot;0d11ee37-1e7f-462c-890f-4e56aaa38caf&quot;,&quot;wickType&quot;:&quot;path&quot;,&quot;originalStyle&quot;:{&quot;strokeColor&quot;:null,&quot;fillColor&quot;:[&quot;Color&quot;,1,1,1],&quot;strokeWidth&quot;:1}}" id="0d11ee37-1e7f-462c-890f-4e56aaa38caf"/><path d="M277.11209,104.91984c-0.583,0.644 -0.971,2.069 -0.971,3.565c0,1.973 0.358,2.85 1.715,4.208c2.091,2.091 4.091,2.186 5.881,0.28c1.59,-1.692 1.302,-4.136 -0.557,-4.726c-0.645,-0.205 -1.172,-0.863 -1.172,-1.464c0,-1.382 -1.526,-2.936 -2.885,-2.936c-0.572,0 -1.477,0.483 -2.011,1.073z" data-paper-data="{&quot;wickUUID&quot;:&quot;699dddf4-64f4-4a6d-8185-eb6bc23478ee&quot;,&quot;wickType&quot;:&quot;path&quot;,&quot;originalStyle&quot;:{&quot;strokeColor&quot;:null,&quot;fillColor&quot;:[&quot;Color&quot;,1,1,1],&quot;strokeWidth&quot;:1}}" id="699dddf4-64f4-4a6d-8185-eb6bc23478ee"/><path d="M267.19039,121.8761c-2.072,2.29 -0.831,4.117 3.671,5.404c1.452,0.415 3.744,1.273 5.093,1.907c3.214,1.51 4.988,1.229 5.736,-0.907c0.514,-1.466 0.391,-1.843 -0.986,-3.027c-1.781,-1.532 -7.353,-3.785 -10.433,-4.219c-1.54,-0.216 -2.315,-0.005 -3.081,0.842z" data-paper-data="{&quot;wickUUID&quot;:&quot;3d242893-8672-4eb7-88fb-1f46c29ba6c1&quot;,&quot;wickType&quot;:&quot;path&quot;,&quot;originalStyle&quot;:{&quot;strokeColor&quot;:null,&quot;fillColor&quot;:[&quot;Color&quot;,1,1,1],&quot;strokeWidth&quot;:1}}" id="3d242893-8672-4eb7-88fb-1f46c29ba6c1"/><path d="M457.18475,90.23566c-3.544,1.282 -6.351,2.772 -11.156,5.922c-8.175,5.359 -10.557,8.286 -13.36,16.415c-1.928,5.593 -2.098,8.005 -0.948,13.469c0.955,4.54 2.874,7.656 7.052,11.453c3.25,2.953 5.468,4.267 10.984,6.508c7.17,2.914 18.008,3.732 21.209,1.601c0.829,-0.551 3.341,-1.602 5.583,-2.335c2.242,-0.732 4.994,-1.811 6.115,-2.397c3.368,-1.76 9.501,-8.687 12.292,-13.884c0.796,-1.483 0.953,-2.857 0.93,-8.154c-0.033,-7.717 -0.575,-9.756 -3.685,-13.861c-2.628,-3.468 -10.794,-10.143 -15.436,-12.617c-5.678,-3.026 -14.448,-3.976 -19.58,-2.12zM473.23675,97.25166c6.116,2.912 13.766,9.488 15.71,13.504c1.492,3.082 1.716,11.536 0.374,14.131c-2.815,5.443 -7.62,10.189 -11.977,11.829c-3.676,1.385 -8.855,2.482 -11.765,2.493c-1.269,0.005 -2.821,0.369 -3.449,0.808c-1.032,0.723 -1.504,0.725 -4.894,0.024c-6.007,-1.242 -12.083,-4.329 -15.603,-7.926c-3.302,-3.375 -3.953,-4.926 -4.398,-10.478c-0.25,-3.122 -0.094,-4.088 1.248,-7.737c2.3,-6.251 3.937,-8.282 9.787,-12.139c2.788,-1.838 6.508,-4.036 8.266,-4.884c3.012,-1.453 3.49,-1.532 8.293,-1.372c4.443,0.148 5.52,0.372 8.408,1.747z" data-paper-data="{&quot;wickUUID&quot;:&quot;28fd8333-f0fd-46ae-912a-13cb660a2ccb&quot;,&quot;wickType&quot;:&quot;path&quot;,&quot;originalStyle&quot;:{&quot;strokeColor&quot;:null,&quot;fillColor&quot;:[&quot;Color&quot;,1,1,1],&quot;strokeWidth&quot;:1}}" id="28fd8333-f0fd-46ae-912a-13cb660a2ccb"/><path d="M452.91034,58.73579c-1.51,0.268 -3.342,0.774 -4.07,1.123c-1.687,0.808 -6.166,7.355 -6.181,9.035c-0.007,0.701 -0.148,1.781 -0.314,2.4c-0.301,1.124 -0.308,1.123 -3.696,-0.583c-1.866,-0.94 -5.417,-2.34 -7.891,-3.112l-4.497,-1.402l-6.196,1.419c-8.13,1.861 -16.868,4.622 -19.57,6.183c-3.372,1.949 -3.777,3.191 -3.428,10.513c0.362,7.614 1.513,16.994 2.796,22.8c0.708,3.205 1.262,4.565 2.131,5.234c0.646,0.497 2.206,1.922 3.467,3.166c1.261,1.243 3.898,3.151 5.86,4.24c7.246,4.018 24.066,15.084 29.591,19.466c4.808,3.813 6.417,4.473 8.146,3.341c1.02,-0.668 1.272,-1.204 1.149,-2.443c-0.125,-1.265 -0.742,-2.008 -3.038,-3.663c-1.584,-1.142 -4.358,-3.197 -6.162,-4.565c-4.259,-3.23 -21.047,-14.055 -25.498,-16.441c-1.901,-1.019 -4.789,-3.139 -6.418,-4.711c-2.413,-2.328 -3.072,-3.331 -3.551,-5.406c-1.149,-4.974 -2.031,-12.833 -2.2,-19.6l-0.172,-6.861l2.548,-0.962c3.914,-1.479 11.774,-3.734 16.374,-4.698c3.914,-0.821 4.297,-0.82 6.88,0.009c1.504,0.483 5.183,2.001 8.176,3.373c2.993,1.372 6.031,2.495 6.752,2.495c1.983,0 3.106,-1.516 3.803,-5.135c0.699,-3.632 1.544,-5.625 3.342,-7.879l1.205,-1.509l6.545,0.003c6.659,0.004 13.369,1.16 14.318,2.467c0.234,0.323 0.968,1.963 1.63,3.645c0.663,1.682 2.059,4.777 3.104,6.879c1.044,2.102 2.649,6.459 3.566,9.683c0.918,3.223 2.005,6.662 2.417,7.643c0.411,0.981 1.166,3.526 1.676,5.655c2.683,11.186 5.916,16.452 9.064,14.767c1.724,-0.923 1.88,-2.782 0.439,-5.253c-1.197,-2.055 -2.475,-5.725 -4.837,-13.895c-3.2,-11.067 -5.787,-18.757 -7.372,-21.912c-0.986,-1.962 -2.519,-5.318 -3.407,-7.459c-0.889,-2.14 -2.045,-4.28 -2.571,-4.756c-2.625,-2.376 -17.529,-4.429 -23.91,-3.294z" data-paper-data="{&quot;wickUUID&quot;:&quot;f584723d-5d74-4277-9c97-95d7b0429a16&quot;,&quot;wickType&quot;:&quot;path&quot;,&quot;originalStyle&quot;:{&quot;strokeColor&quot;:null,&quot;fillColor&quot;:[&quot;Color&quot;,1,1,1],&quot;strokeWidth&quot;:1}}" id="f584723d-5d74-4277-9c97-95d7b0429a16"/><path d="M444.46344,122.88977c-1.246,1.377 -0.661,3.361 1.29,4.37c0.851,0.44 4.23,1.119 7.509,1.509c3.278,0.389 8.15,0.97 10.826,1.291c3.563,0.427 6.821,0.438 12.175,0.04c8.207,-0.61 9.713,-1.167 9.713,-3.598c0,-2.182 -1.297,-3.239 -3.522,-2.872c-5.282,0.871 -15.207,0.906 -23.11,0.082c-4.551,-0.474 -9.104,-1.078 -10.118,-1.342c-2.717,-0.706 -3.756,-0.592 -4.763,0.52z" data-paper-data="{&quot;wickUUID&quot;:&quot;9766b066-dceb-4127-a357-99fd26ac8cbd&quot;,&quot;wickType&quot;:&quot;path&quot;,&quot;originalStyle&quot;:{&quot;strokeColor&quot;:null,&quot;fillColor&quot;:[&quot;Color&quot;,1,1,1],&quot;strokeWidth&quot;:1}}" id="9766b066-dceb-4127-a357-99fd26ac8cbd"/><path d="M460.14791,110.17418c-1.566,0.631 -2.359,2.38 -2.021,4.461c0.874,5.385 6.549,4.743 6.549,-0.741c0,-1.43 -0.338,-2.195 -1.354,-3.069c-1.489,-1.281 -1.569,-1.297 -3.174,-0.651z" data-paper-data="{&quot;wickUUID&quot;:&quot;a5818765-1449-4e28-b5f3-a4b22daccd17&quot;,&quot;wickType&quot;:&quot;path&quot;,&quot;originalStyle&quot;:{&quot;strokeColor&quot;:null,&quot;fillColor&quot;:[&quot;Color&quot;,1,1,1],&quot;strokeWidth&quot;:1}}" id="a5818765-1449-4e28-b5f3-a4b22daccd17"/><path d="M470.4105,109.38342c-1.662,1.662 -1.763,5.604 -0.194,7.598c1.212,1.541 1.969,1.649 4.042,0.577c1.69,-0.874 2.366,-3.174 1.807,-6.152c-0.271,-1.448 -0.699,-1.972 -2.079,-2.548c-2.22,-0.928 -2.106,-0.945 -3.576,0.525z" data-paper-data="{&quot;wickUUID&quot;:&quot;d142ef54-bb48-4f88-9ea5-aa62f6eef585&quot;,&quot;wickType&quot;:&quot;path&quot;,&quot;originalStyle&quot;:{&quot;strokeColor&quot;:null,&quot;fillColor&quot;:[&quot;Color&quot;,1,1,1],&quot;strokeWidth&quot;:1}}" id="d142ef54-bb48-4f88-9ea5-aa62f6eef585"/><path d="M546.97338,86.90173c-6.818,1.657 -17.268,9.504 -18.724,14.06c-1.918,6.002 -2.134,14.237 -0.503,19.098c2.413,7.188 4.979,10.682 9.84,13.4c3.655,2.044 12.356,4.016 19.481,4.415c4.822,0.27 5.256,0.226 6.37,-0.65c0.657,-0.517 1.195,-1.281 1.195,-1.699c0,-0.465 1.039,-1.329 2.69,-2.237c3.988,-2.192 9.437,-6.371 11.346,-8.701c1.147,-1.4 2.382,-3.935 3.893,-7.991c4.277,-11.484 4.093,-17.459 -0.721,-23.399c-2.859,-3.528 -8.877,-5.733 -17.655,-6.47c-6.833,-0.574 -14.453,-0.497 -17.212,0.174zM563.06738,92.54773c12.759,1.049 17.357,4.54 16.564,12.579c-0.313,3.177 -0.853,5.002 -3.431,11.59c-1.482,3.787 -3.602,6.173 -8.215,9.244c-4.914,3.271 -6.924,4.13 -9.659,4.13c-1.865,0 -2.818,0.239 -3.689,0.925l-1.176,0.924l-5.194,-1.142c-8.856,-1.947 -11.636,-3.973 -14.039,-10.229c-0.775,-2.016 -1.521,-4.723 -1.658,-6.016c-0.256,-2.399 0.552,-9.756 1.282,-11.677c1.092,-2.876 9.518,-8.898 14.24,-10.177c2.488,-0.674 7.936,-0.729 14.975,-0.151z" data-paper-data="{&quot;wickUUID&quot;:&quot;9a7f6246-b10a-4cbd-b471-d2751520b8a3&quot;,&quot;wickType&quot;:&quot;path&quot;,&quot;originalStyle&quot;:{&quot;strokeColor&quot;:null,&quot;fillColor&quot;:[&quot;Color&quot;,1,1,1],&quot;strokeWidth&quot;:1}}" id="9a7f6246-b10a-4cbd-b471-d2751520b8a3"/><path d="M504.48361,51.17197c-1.373,1.373 -1.401,1.11 0.9,8.511c1.502,4.83 1.704,6.077 2.026,12.517c0.197,3.934 0.663,8.561 1.036,10.282c0.373,1.721 0.819,4.336 0.99,5.811c0.205,1.768 0.897,3.826 2.029,6.035c0.945,1.844 3.054,6.119 4.687,9.499c1.634,3.381 4.617,8.514 6.631,11.411c2.013,2.896 4.961,7.415 6.55,10.042c3.144,5.197 4.4,6.237 6.314,5.229c1.301,-0.686 1.701,-1.269 1.71,-2.49c0.008,-1.095 -4.166,-8.056 -9.728,-16.224c-2.391,-3.51 -5.332,-8.725 -7.835,-13.89c-3.561,-7.352 -4.099,-8.792 -4.837,-12.964c-1.468,-8.296 -1.715,-10.422 -1.724,-14.815c-0.007,-3.129 -0.315,-5.488 -1.127,-8.611c-0.614,-2.366 -1.117,-4.42 -1.117,-4.564c0,-0.336 8.594,0.149 17.289,0.977c12.294,1.17 18.368,3.397 25.313,9.279c2.081,1.763 4.758,3.909 5.95,4.77c1.399,1.011 3.277,3.178 5.306,6.123c1.728,2.507 3.756,5.223 4.507,6.035c3.247,3.508 4.107,5.247 4.454,8.998c0.206,2.221 0.885,2.984 2.657,2.984c2.809,0 3.809,-2.488 2.721,-6.773c-0.753,-2.967 -2.703,-6.208 -5.942,-9.875c-1.041,-1.179 -3.08,-3.9 -4.529,-6.047c-2.843,-4.211 -3.465,-4.855 -7.212,-7.477c-1.352,-0.946 -3.617,-2.742 -5.034,-3.991c-3.75,-3.306 -7.558,-5.462 -12.387,-7.013c-5.299,-1.701 -9.228,-2.396 -17.224,-3.046c-3.442,-0.279 -8.773,-0.71 -11.846,-0.957c-3.073,-0.246 -6.432,-0.562 -7.464,-0.702c-1.617,-0.218 -2.039,-0.09 -3.064,0.936z" data-paper-data="{&quot;wickUUID&quot;:&quot;9915bf28-5dfa-4e09-b4c0-c9a607c36693&quot;,&quot;wickType&quot;:&quot;path&quot;,&quot;originalStyle&quot;:{&quot;strokeColor&quot;:null,&quot;fillColor&quot;:[&quot;Color&quot;,1,1,1],&quot;strokeWidth&quot;:1}}" id="9915bf28-5dfa-4e09-b4c0-c9a607c36693"/><path d="M539.1513,117.12707c-1.299,1.299 -1.126,2.855 0.467,4.195c1.66,1.397 3.004,1.744 10.64,2.744c8.98,1.176 14.6,0.38 15.792,-2.235c0.446,-0.978 0.387,-1.338 -0.389,-2.37c-0.749,-0.996 -1.229,-1.201 -2.648,-1.13c-6.749,0.337 -9.447,0.289 -13.58,-0.242c-2.582,-0.331 -5.278,-0.884 -5.992,-1.229c-1.805,-0.872 -3.24,-0.783 -4.29,0.267z" data-paper-data="{&quot;wickUUID&quot;:&quot;f7d8740d-bc7e-4542-874b-ea80c3db2055&quot;,&quot;wickType&quot;:&quot;path&quot;,&quot;originalStyle&quot;:{&quot;strokeColor&quot;:null,&quot;fillColor&quot;:[&quot;Color&quot;,1,1,1],&quot;strokeWidth&quot;:1}}" id="f7d8740d-bc7e-4542-874b-ea80c3db2055"/><path d="M546.14081,97.93755c-1.232,0.969 -1.479,2.145 -0.74,3.526c0.241,0.451 2.114,1.76 4.163,2.91c2.049,1.15 4.916,2.981 6.371,4.069c1.455,1.089 3.055,1.979 3.556,1.979c0.501,0 1.913,-0.829 3.138,-1.843c1.225,-1.014 3.278,-2.517 4.562,-3.34c2.674,-1.713 3.311,-3.143 2.174,-4.879c-1.027,-1.568 -3.093,-1.472 -5.874,0.274c-1.216,0.763 -2.619,1.762 -3.118,2.22c-0.885,0.812 -0.938,0.81 -2.235,-0.07c-3.099,-2.103 -9.561,-5.773 -10.165,-5.773c-0.36,0 -1.184,0.417 -1.832,0.927z" data-paper-data="{&quot;wickUUID&quot;:&quot;23c9fb76-0cec-4bb3-8767-553df21b5035&quot;,&quot;wickType&quot;:&quot;path&quot;,&quot;originalStyle&quot;:{&quot;strokeColor&quot;:null,&quot;fillColor&quot;:[&quot;Color&quot;,1,1,1],&quot;strokeWidth&quot;:1}}" id="23c9fb76-0cec-4bb3-8767-553df21b5035"/><path d="M551.98618,102.93392c-0.618,0.579 -1.311,2.006 -1.634,3.364c-0.483,2.032 -0.463,2.506 0.142,3.43c2.032,3.1 5.38,1.043 5.936,-3.646c0.241,-2.036 0.162,-2.296 -0.969,-3.185c-1.553,-1.222 -2.138,-1.216 -3.475,0.037z" data-paper-data="{&quot;wickUUID&quot;:&quot;9326889e-2f7e-40a9-b7d7-c966bedcbee6&quot;,&quot;wickType&quot;:&quot;path&quot;,&quot;originalStyle&quot;:{&quot;strokeColor&quot;:null,&quot;fillColor&quot;:[&quot;Color&quot;,1,1,1],&quot;strokeWidth&quot;:1}}" id="9326889e-2f7e-40a9-b7d7-c966bedcbee6"/><path d="M562.68097,102.40789c-1.006,0.791 -1.178,1.269 -1.178,3.283c0,2.65 0.854,3.837 2.76,3.837c1.621,0 2.703,-1.452 2.943,-3.947c0.188,-1.954 0.087,-2.264 -1.019,-3.134c-1.526,-1.2 -2.023,-1.206 -3.506,-0.039z" data-paper-data="{&quot;wickUUID&quot;:&quot;f003d6d7-ef02-47a9-b5de-f7c69719bbae&quot;,&quot;wickType&quot;:&quot;path&quot;,&quot;originalStyle&quot;:{&quot;strokeColor&quot;:null,&quot;fillColor&quot;:[&quot;Color&quot;,1,1,1],&quot;strokeWidth&quot;:1}}" id="f003d6d7-ef02-47a9-b5de-f7c69719bbae"/><path d="M644.76584,85.19456c-4.298,0.942 -9.953,3.853 -13.043,6.714c-6.531,6.046 -8.611,14.466 -6.319,25.574c1.231,5.962 2.852,8.446 8.012,12.275c4.849,3.598 12.303,5.672 20.439,5.688c8.337,0.017 14.872,-2.431 18.672,-6.993c2.765,-3.319 6.954,-10.23 7.407,-12.22c0.751,-3.295 0.595,-12.016 -0.26,-14.56c-1.301,-3.875 -4.512,-7.715 -8.527,-10.198c-2.719,-1.682 -10.228,-4.587 -15.181,-5.874c-4.725,-1.228 -7.061,-1.312 -11.2,-0.406zM654.30284,91.20656c1.945,0.495 4.944,1.43 6.665,2.077c7.287,2.741 10.671,5.108 12.475,8.727c1.039,2.085 1.16,2.845 1.16,7.286c0,5.464 -0.046,5.602 -3.908,11.771c-2.607,4.165 -4.356,5.721 -7.971,7.087c-2.83,1.07 -3.613,1.164 -9.097,1.098c-3.426,-0.041 -7.215,-0.353 -8.833,-0.729c-5.114,-1.186 -10.074,-4.289 -11.938,-7.469c-1.225,-2.091 -2.513,-8.337 -2.504,-12.144c0.011,-4.801 2.373,-10.357 5.568,-13.095c3.186,-2.731 9.632,-5.304 13.689,-5.465c0.637,-0.025 2.749,0.36 4.694,0.856z" data-paper-data="{&quot;wickUUID&quot;:&quot;98108136-1de7-4435-ace6-76a0faa903d1&quot;,&quot;wickType&quot;:&quot;path&quot;,&quot;originalStyle&quot;:{&quot;strokeColor&quot;:null,&quot;fillColor&quot;:[&quot;Color&quot;,1,1,1],&quot;strokeWidth&quot;:1}}" id="98108136-1de7-4435-ace6-76a0faa903d1"/><path d="M614.59741,58.14955c-0.96,0.559 -2.771,3.604 -3.684,6.192c-0.378,1.07 -1.298,4.881 -2.043,8.468c-1.16,5.575 -1.87,9.848 -3.398,20.457c-0.331,2.291 0.413,4.642 1.957,6.186c1.56,1.56 12.182,8.141 15.393,9.536c2.922,1.27 4.608,1.094 5.361,-0.558c0.908,-1.993 0.136,-3.328 -2.659,-4.602c-3.696,-1.686 -13.81,-8.033 -14.13,-8.869c-0.151,-0.392 -0.195,-0.845 -0.1,-1.007c0.096,-0.162 0.51,-2.709 0.92,-5.659c0.41,-2.951 1.372,-8.557 2.137,-12.459l1.392,-7.093l1.94,6.87c1.888,6.689 2.791,8.435 4.361,8.435c0.63,0 11.574,3.468 16.125,5.111c3.59,1.295 6.294,1.453 7.724,0.452c1.995,-1.398 0.666,-5.116 -1.828,-5.116c-0.568,0 -4.742,-1.189 -9.276,-2.641c-4.533,-1.453 -8.658,-2.762 -9.165,-2.909c-0.749,-0.218 -1.196,-1.294 -2.388,-5.741c-2.747,-10.257 -3.709,-13.008 -5,-14.299c-1.291,-1.291 -2.344,-1.509 -3.639,-0.754z" data-paper-data="{&quot;wickUUID&quot;:&quot;d8537d2d-a0d5-47b1-b7e0-8dd280a587e8&quot;,&quot;wickType&quot;:&quot;path&quot;,&quot;originalStyle&quot;:{&quot;strokeColor&quot;:null,&quot;fillColor&quot;:[&quot;Color&quot;,1,1,1],&quot;strokeWidth&quot;:1}}" id="d8537d2d-a0d5-47b1-b7e0-8dd280a587e8"/><path d="M679.56949,58.51652c-0.874,0.874 -1.37,3.311 -2.283,11.225c-0.494,4.286 -1.872,12.031 -2.764,15.534l-0.483,1.9h-6.647c-6.052,0 -6.728,0.08 -7.542,0.894c-1.143,1.143 -1.143,2.881 0,4.024c0.822,0.821 1.49,0.894 8.255,0.894c9.185,0 10.068,-0.308 11.452,-3.994c0.514,-1.369 1.11,-3.494 1.326,-4.723c0.215,-1.23 0.894,-5.128 1.508,-8.662c0.613,-3.535 1.201,-6.513 1.306,-6.618c0.234,-0.233 2.472,5.895 4.033,11.04c2.319,7.647 3.455,13.19 3.72,18.147l0.266,4.967l-2.857,0.979c-1.592,0.546 -4.598,1.098 -6.79,1.248c-3.489,0.238 -4.03,0.393 -4.805,1.378c-1.157,1.471 -1.103,2.143 0.287,3.533c1.129,1.128 1.275,1.153 5.165,0.877c5.327,-0.378 12.206,-2.644 13.537,-4.458c1.162,-1.586 1.492,-7.562 0.715,-12.97c-1.606,-11.186 -7.457,-28.491 -11.281,-33.368c-2.031,-2.59 -4.6,-3.366 -6.118,-1.847z" data-paper-data="{&quot;wickUUID&quot;:&quot;194d453a-b37c-40a9-929a-2ef0e9b4bc33&quot;,&quot;wickType&quot;:&quot;path&quot;,&quot;originalStyle&quot;:{&quot;strokeColor&quot;:null,&quot;fillColor&quot;:[&quot;Color&quot;,1,1,1],&quot;strokeWidth&quot;:1}}" id="194d453a-b37c-40a9-929a-2ef0e9b4bc33"/><path d="M637.95972,108.31119c-0.608,0.307 -1.398,1.081 -1.756,1.72c-0.551,0.981 -0.56,1.384 -0.063,2.585c1.244,3.002 2.752,3.218 19.492,2.795c12.269,-0.311 13.574,-0.418 14.976,-1.234c1.24,-0.722 1.562,-1.207 1.672,-2.521c0.113,-1.332 -0.069,-1.763 -0.998,-2.372c-0.96,-0.629 -1.464,-0.667 -3.266,-0.248c-1.172,0.273 -7.361,0.563 -13.754,0.646l-11.623,0.15l-0.984,-1.046c-1.104,-1.173 -2.071,-1.297 -3.696,-0.475z" data-paper-data="{&quot;wickUUID&quot;:&quot;783b16d4-639d-46ed-99af-db57d0f1bd46&quot;,&quot;wickType&quot;:&quot;path&quot;,&quot;originalStyle&quot;:{&quot;strokeColor&quot;:null,&quot;fillColor&quot;:[&quot;Color&quot;,1,1,1],&quot;strokeWidth&quot;:1}}" id="783b16d4-639d-46ed-99af-db57d0f1bd46"/><path d="M640.01796,111.79543c-1.965,1.546 -1.564,2.671 2.6,7.281c2.077,2.3 4.398,4.439 5.156,4.753c3.387,1.404 10.694,-1.278 15.425,-5.66c3.353,-3.107 3.685,-4.459 1.496,-6.086c-1.627,-1.209 -2.829,-0.808 -5.538,1.844c-2.092,2.049 -6.918,4.555 -8.729,4.533c-0.35,-0.004 -1.742,-1.329 -3.094,-2.945c-4.092,-4.887 -5.149,-5.425 -7.316,-3.72z" data-paper-data="{&quot;wickUUID&quot;:&quot;d7d303a9-933d-4c3c-8e33-210fba8d3353&quot;,&quot;wickType&quot;:&quot;path&quot;,&quot;originalStyle&quot;:{&quot;strokeColor&quot;:null,&quot;fillColor&quot;:[&quot;Color&quot;,1,1,1],&quot;strokeWidth&quot;:1}}" id="d7d303a9-933d-4c3c-8e33-210fba8d3353"/><path d="M646.47537,93.32217c-0.672,0.55 -1.179,1.862 -1.704,4.412c-0.703,3.418 -0.702,3.698 0.024,4.806c0.959,1.463 3.333,1.627 4.523,0.311c2.042,-2.256 2.721,-7.841 1.144,-9.417c-1.102,-1.102 -2.719,-1.148 -3.987,-0.112z" data-paper-data="{&quot;wickUUID&quot;:&quot;ff03929c-f170-4035-92c4-849d2a020ae6&quot;,&quot;wickType&quot;:&quot;path&quot;,&quot;originalStyle&quot;:{&quot;strokeColor&quot;:null,&quot;fillColor&quot;:[&quot;Color&quot;,1,1,1],&quot;strokeWidth&quot;:1}}" id="ff03929c-f170-4035-92c4-849d2a020ae6"/><path d="M659.26737,95.71941c-1.426,0.829 -1.749,2.517 -0.985,5.144c0.988,3.398 2.895,4.248 4.941,2.202c2.999,-2.998 -0.444,-9.39 -3.956,-7.346z" data-paper-data="{&quot;wickUUID&quot;:&quot;4660c464-7f15-41c4-8e9d-c5bdac04e274&quot;,&quot;wickType&quot;:&quot;path&quot;,&quot;originalStyle&quot;:{&quot;strokeColor&quot;:null,&quot;fillColor&quot;:[&quot;Color&quot;,1,1,1],&quot;strokeWidth&quot;:1}}" id="4660c464-7f15-41c4-8e9d-c5bdac04e274"/><path d="M456.05015,161.16204c-3.07,0.384 -6.667,0.857 -7.995,1.051c-3.706,0.543 -9.167,2.722 -13.9,5.548c-2.164,1.292 -7.048,5.472 -8.777,7.511c-2.567,3.03 -4.442,7.667 -5.559,13.754c-0.598,3.256 -0.619,3.827 -0.293,7.885c0.657,8.161 1.359,11.778 3.066,15.804c1.892,4.459 4.55,7.572 8.852,10.364c2.913,1.89 4.565,2.604 8.616,3.719c4.955,1.364 5.361,1.45 10.71,2.255c2.655,0.4 6.06,0.946 7.566,1.214c2.201,0.391 2.992,0.418 4.032,0.138c1.873,-0.504 2.734,-1.482 2.734,-3.105v-1.317l2.941,-1.405c4.281,-2.045 6.43,-3.551 7.638,-5.353c0.623,-0.93 1.59,-1.868 2.423,-2.352c2.346,-1.36 4.246,-3.752 6.152,-7.747c2.02,-4.233 2.286,-5.395 3.213,-14.026c0.779,-7.255 0.79,-7.735 0.318,-13.878c-0.481,-6.258 -0.796,-7.143 -4.307,-12.101c-3.514,-4.963 -5.475,-6.304 -10.694,-7.314c-2.287,-0.443 -10.213,-1.449 -10.852,-1.377c-0.166,0.019 -2.814,0.348 -5.884,0.732zM467.79015,167.04704c7.368,0.933 7.89,1.197 10.965,5.533c2.52,3.555 2.886,4.476 2.965,7.465c0.032,1.228 0.19,3.183 0.35,4.345c0.301,2.176 0.074,5.933 -0.866,14.331c-0.416,3.719 -0.578,4.343 -1.868,7.184c-1.586,3.494 -2.894,5.231 -4.592,6.097c-0.634,0.324 -1.74,1.295 -2.456,2.157c-2.223,2.676 -2.855,3.156 -6.492,4.924c-4.218,2.052 -7.292,2.979 -11.556,3.487c-3.524,0.42 -6.173,0.114 -12.2,-1.408c-3.637,-0.919 -4.536,-1.283 -7.088,-2.872c-6.445,-4.014 -8.895,-9.79 -9.569,-22.557c-0.154,-2.914 -0.074,-4.053 0.478,-6.811c1.162,-5.815 2.867,-9.11 6.277,-12.13c3.122,-2.765 4.564,-3.782 7.492,-5.282c5.108,-2.617 7.163,-3.207 14.459,-4.148c8.223,-1.06 7.878,-1.052 13.701,-0.315z" data-paper-data="{&quot;wickUUID&quot;:&quot;5b767c16-ed04-4d50-baa9-8cddcc332b79&quot;,&quot;wickType&quot;:&quot;path&quot;,&quot;originalStyle&quot;:{&quot;strokeColor&quot;:null,&quot;fillColor&quot;:[&quot;Color&quot;,1,1,1],&quot;strokeWidth&quot;:1}}" id="5b767c16-ed04-4d50-baa9-8cddcc332b79"/><path d="M469.27342,174.93872c-0.547,0.175 -1.565,0.942 -2.262,1.704c-0.697,0.763 -1.775,1.654 -2.396,1.981c-1.773,0.933 -2.118,1.998 -1.866,5.756c0.231,3.456 0.166,3.644 -1.736,5c-0.804,0.573 -0.814,0.572 -1.898,-0.164c-1.479,-1.003 -3.49,-1.595 -6.176,-1.816c-1.235,-0.102 -2.309,-0.249 -2.387,-0.327c-0.285,-0.285 0.724,-2.726 1.491,-3.611c1.753,-2.019 1.913,-3.283 0.601,-4.751c-0.751,-0.841 -1.083,-0.985 -2.262,-0.985c-1.289,0 -1.492,0.116 -3.035,1.736c-2.284,2.395 -3.462,4.754 -3.682,7.373c-0.147,1.757 -0.073,2.277 0.48,3.36c0.638,1.251 1.981,2.347 3.194,2.607c0.332,0.072 1.649,0.216 2.927,0.32c2.311,0.19 2.324,0.196 2.658,1.207c0.358,1.085 2.14,2.857 2.874,2.857c0.734,0 0.507,0.547 -0.834,2.001c-1.684,1.827 -3.614,3.128 -4.64,3.128c-0.456,0 -2.332,-0.463 -4.17,-1.028c-4.472,-1.377 -6.106,-1.688 -8.861,-1.684c-3.762,0.004 -6.784,1.779 -8.337,4.897c-1.031,2.068 -0.986,2.794 0.251,4.03c1.676,1.677 2.59,1.443 6.525,-1.668c1.882,-1.487 2.851,-1.563 4.786,-0.372c2.614,1.608 6.024,3.066 7.171,3.066c0.617,0 2.537,-0.499 4.267,-1.109c2.481,-0.875 3.471,-1.403 4.695,-2.501c0.852,-0.766 2.161,-1.851 2.908,-2.412c0.746,-0.56 2.045,-1.679 2.885,-2.486l1.527,-1.466l0.97,1.497c0.533,0.823 1.648,2.106 2.476,2.851l1.506,1.353l-0.19,1.614c-0.596,5.067 4.542,6.506 6.545,1.834c0.691,-1.613 0.719,-2.607 0.12,-4.304c-0.249,-0.705 -0.452,-1.316 -0.452,-1.358c0,-0.041 0.42,-0.159 0.933,-0.262c0.513,-0.102 1.396,-0.649 1.961,-1.214c2.516,-2.516 0.214,-6.16 -3.085,-4.884c-1.092,0.421 -4.397,1.114 -4.559,0.955c-0.04,-0.039 0.197,-0.632 0.528,-1.316c0.722,-1.496 0.759,-2.789 0.135,-4.771c-0.695,-2.206 -0.752,-4.9 -0.149,-7.109c0.442,-1.622 0.633,-1.928 1.249,-2.003c0.567,-0.069 0.969,0.237 1.834,1.395c2.064,2.764 5.221,3.533 6.842,1.666c0.604,-0.695 0.692,-1.062 0.581,-2.405c-0.171,-2.061 -1.112,-3.415 -3.242,-4.669c-0.919,-0.541 -2.214,-1.495 -2.877,-2.119c-1.861,-1.752 -3.49,-2.142 -5.824,-1.394z" data-paper-data="{&quot;wickUUID&quot;:&quot;5517caca-e32b-42e1-a436-c2e00b969dbe&quot;,&quot;wickType&quot;:&quot;path&quot;,&quot;originalStyle&quot;:{&quot;strokeColor&quot;:null,&quot;fillColor&quot;:[&quot;Color&quot;,1,1,1],&quot;strokeWidth&quot;:1}}" id="5517caca-e32b-42e1-a436-c2e00b969dbe"/><path d="M554.07483,151.64723c-4.902,0.638 -7.421,1.759 -11.856,5.278c-1.572,1.248 -4.256,3.225 -5.965,4.394c-4.188,2.865 -6.449,4.788 -7.92,6.736c-1.339,1.773 -3.762,7.199 -5.787,12.957c-1.232,3.504 -1.284,3.793 -1.269,7.122c0.016,3.453 0.705,9.041 1.469,11.918c2.327,8.752 4.46,13.773 6.851,16.126c3.341,3.288 12.059,8.096 15.913,8.774c1.283,0.226 4.635,0.314 9.388,0.246c6.846,-0.097 7.497,-0.153 8.823,-0.766c0.839,-0.387 1.576,-0.977 1.779,-1.423c0.243,-0.533 0.812,-0.914 1.887,-1.266c4.489,-1.469 9.916,-5.266 15.112,-10.575c4.493,-4.588 6.757,-8.328 8.743,-14.435c1.225,-3.768 1.409,-4.705 1.703,-8.687c0.181,-2.455 0.272,-6.189 0.203,-8.297c-0.11,-3.321 -0.26,-4.237 -1.122,-6.851c-2.694,-8.165 -8.023,-14.931 -14.288,-18.14c-2.258,-1.157 -9.165,-2.802 -13.147,-3.132c-4.052,-0.336 -7.834,-0.328 -10.517,0.021zM568.47583,158.10823c2.832,0.603 5.713,1.486 7.004,2.147c4.301,2.2 8.768,7.922 10.823,13.866c1.16,3.355 1.38,6.418 0.912,12.656c-0.485,6.453 -2.064,11.254 -5.261,15.99c-1.765,2.616 -7.478,8.168 -10.461,10.167c-4.154,2.783 -6.578,3.701 -12.193,4.617c-1.886,0.308 -2.891,0.629 -3.366,1.075c-0.643,0.604 -0.932,0.632 -5.608,0.533l-4.931,-0.103l-3.348,-1.695c-1.841,-0.931 -4.557,-2.563 -6.034,-3.625c-2.465,-1.772 -2.78,-2.118 -3.819,-4.187c-1.355,-2.7 -3.583,-9.927 -4.281,-13.888c-0.276,-1.568 -0.581,-4.345 -0.678,-6.173c-0.172,-3.239 -0.149,-3.401 0.906,-6.486c0.594,-1.741 1.786,-4.837 2.647,-6.882c1.946,-4.62 3.072,-5.919 8.269,-9.538c2.093,-1.458 4.986,-3.582 6.429,-4.72c5.141,-4.055 6.875,-4.549 15.296,-4.359c3.367,0.076 6.291,0.306 7.694,0.605z" data-paper-data="{&quot;wickUUID&quot;:&quot;4d41e50f-d769-4d31-baeb-c5f06156cf99&quot;,&quot;wickType&quot;:&quot;path&quot;,&quot;originalStyle&quot;:{&quot;strokeColor&quot;:null,&quot;fillColor&quot;:[&quot;Color&quot;,1,1,1],&quot;strokeWidth&quot;:1}}" id="4d41e50f-d769-4d31-baeb-c5f06156cf99"/><path d="M537.34702,208.23855c-1.629,1.058 -1.913,3.019 -0.624,4.307c0.747,0.747 1.113,0.852 3.605,1.029c1.592,0.113 3.456,0.456 4.373,0.804c2.117,0.805 3.024,0.767 4.14,-0.173c1.279,-1.076 1.31,-2.806 0.075,-4.042c-1.826,-1.825 -9.705,-3.136 -11.569,-1.925z" data-paper-data="{&quot;wickUUID&quot;:&quot;d77d785b-2eb1-41ff-a2dc-7facf7a8bce5&quot;,&quot;wickType&quot;:&quot;path&quot;,&quot;originalStyle&quot;:{&quot;strokeColor&quot;:null,&quot;fillColor&quot;:[&quot;Color&quot;,1,1,1],&quot;strokeWidth&quot;:1}}" id="d77d785b-2eb1-41ff-a2dc-7facf7a8bce5"/><path d="M578.22204,164.22424c-3.975,2.176 -13.541,9.245 -21.957,16.227c-3.149,2.611 -6.456,5.301 -7.351,5.976l-1.626,1.228l-3.776,-1.911c-3.286,-1.664 -6.115,-3.424 -10.004,-6.224c-0.564,-0.406 -1.351,-0.739 -1.75,-0.739c-1.903,0 -3.363,1.771 -2.963,3.593c0.376,1.712 5.609,5.359 12.696,8.847c3.98,1.958 4.633,2.189 6.092,2.153c2.059,-0.05 3.435,-0.96 11.238,-7.425c8.039,-6.661 11.861,-9.587 17.578,-13.457c2.781,-1.883 5.258,-3.712 5.506,-4.065c1.034,-1.477 0.279,-3.812 -1.426,-4.407c-1.184,-0.412 -1.119,-0.418 -2.257,0.204z" data-paper-data="{&quot;wickUUID&quot;:&quot;e979ac60-ee52-4ae9-9ff1-b2a8472a3132&quot;,&quot;wickType&quot;:&quot;path&quot;,&quot;originalStyle&quot;:{&quot;strokeColor&quot;:null,&quot;fillColor&quot;:[&quot;Color&quot;,1,1,1],&quot;strokeWidth&quot;:1}}" id="e979ac60-ee52-4ae9-9ff1-b2a8472a3132"/><path d="M556.7423,181.01287c-0.828,0.459 -1.516,1.562 -1.531,2.457c-0.006,0.338 0.466,1.763 1.05,3.168c0.583,1.404 1.409,3.694 1.834,5.089c0.959,3.144 1.921,4.252 3.693,4.252c0.965,0 1.353,-0.178 1.962,-0.902c0.931,-1.107 1.19,-2.876 1.228,-8.398l0.027,-4.019l-0.985,-0.883c-1.042,-0.935 -1.834,-1.091 -2.829,-0.558c-0.46,0.246 -0.851,0.209 -1.61,-0.151c-1.206,-0.573 -1.882,-0.586 -2.839,-0.055z" data-paper-data="{&quot;wickUUID&quot;:&quot;7e575026-01f9-4a46-be05-e0936c2db723&quot;,&quot;wickType&quot;:&quot;path&quot;,&quot;originalStyle&quot;:{&quot;strokeColor&quot;:null,&quot;fillColor&quot;:[&quot;Color&quot;,1,1,1],&quot;strokeWidth&quot;:1}}" id="7e575026-01f9-4a46-be05-e0936c2db723"/><path d="M540.7011,189.05872c-1.688,1.828 -1.959,2.684 -1.501,4.733c0.677,3.023 2.973,4.322 4.925,2.786c1.022,-0.804 1.419,-2.111 1.503,-4.946c0.065,-2.226 0.028,-2.373 -0.778,-3.068c-1.358,-1.172 -2.765,-1.004 -4.149,0.495z" data-paper-data="{&quot;wickUUID&quot;:&quot;3c02eda1-6220-47a9-ab50-3366543a1419&quot;,&quot;wickType&quot;:&quot;path&quot;,&quot;originalStyle&quot;:{&quot;strokeColor&quot;:null,&quot;fillColor&quot;:[&quot;Color&quot;,1,1,1],&quot;strokeWidth&quot;:1}}" id="3c02eda1-6220-47a9-ab50-3366543a1419"/><path d="M570.14285,153.52106c-1.343,1.343 -1.416,2.538 -0.234,3.836c0.704,0.774 1.216,0.978 3.394,1.353c3.374,0.58 4.909,1.105 13.301,4.548c12.394,5.086 25.587,12.532 33.464,18.888c3.419,2.759 4.792,4.152 7.19,7.294c2.067,2.709 1.998,2.347 2.321,12.12c0.261,7.878 0.98,16.161 2.108,24.276c0.565,4.059 0.98,7.425 0.924,7.482c-0.056,0.056 -2.596,-1.123 -5.644,-2.62c-3.048,-1.497 -7.694,-3.601 -10.325,-4.675c-2.998,-1.224 -6.377,-2.905 -9.052,-4.503c-6.548,-3.913 -8.996,-4.991 -14.895,-6.563c-1.954,-0.521 -4.337,-1.342 -5.295,-1.824c-3.929,-1.98 -7.837,-2.256 -10.505,-0.744c-1.791,1.016 -2.373,1.682 -2.579,2.954c-0.134,0.826 -0.008,1.224 0.625,1.976c1.149,1.366 2.271,1.513 4.232,0.553c1.44,-0.704 1.762,-0.756 2.989,-0.481c0.757,0.169 2.164,0.709 3.128,1.198c0.963,0.49 3.039,1.246 4.612,1.681c6.191,1.709 10.604,3.614 15.083,6.508c2.563,1.657 5.394,3.047 10.741,5.274c5.636,2.346 12.752,5.879 14.679,7.286c0.791,0.577 1.775,1.626 2.188,2.33c1.733,2.957 5.314,2.477 6.207,-0.832c0.398,-1.474 -0.17,-8.001 -1.409,-16.195c-0.967,-6.399 -1.83,-16.554 -2.088,-24.574c-0.112,-3.476 -0.311,-7.391 -0.443,-8.7c-0.216,-2.145 -0.343,-2.49 -1.284,-3.485c-0.574,-0.608 -1.658,-1.92 -2.409,-2.915c-4.073,-5.4 -11.461,-11.123 -22.361,-17.323c-8.811,-5.011 -11.843,-6.504 -20.267,-9.979c-8.134,-3.356 -12.002,-4.605 -15.486,-4.999c-1.822,-0.206 -1.86,-0.195 -2.91,0.855z" data-paper-data="{&quot;wickUUID&quot;:&quot;73282860-0d31-4855-9a16-27a5e007629d&quot;,&quot;wickType&quot;:&quot;path&quot;,&quot;originalStyle&quot;:{&quot;strokeColor&quot;:null,&quot;fillColor&quot;:[&quot;Color&quot;,1,1,1],&quot;strokeWidth&quot;:1}}" id="73282860-0d31-4855-9a16-27a5e007629d"/><path d="M468.39815,257.24435c-5.541,0.574 -8.776,1.538 -14.195,4.231c-4.261,2.117 -5.867,3.386 -11.407,9.014c-7.175,7.29 -9.288,10.612 -12.88,20.253c-1.43,3.837 -3.382,12.216 -3.382,14.513c0,3.56 3.113,13.73 5.899,19.272c2.934,5.838 4.993,8.456 7.776,9.891c1.341,0.692 4.58,1.57 7.578,2.055c1.977,0.32 2.578,0.542 3.377,1.243c0.535,0.47 1.25,0.855 1.589,0.856c0.338,0.001 2.117,0.33 3.953,0.731c3.004,0.655 3.864,0.724 8.62,0.687c2.906,-0.023 7.07,0.081 9.254,0.23c4.461,0.305 9.938,-0.032 11.211,-0.69c1.593,-0.824 2.061,-2.402 1.205,-4.058c-0.241,-0.466 -0.397,-0.876 -0.348,-0.911c4.713,-3.346 8.951,-6.493 15.675,-11.639c1.849,-1.415 3.698,-3.859 5.62,-7.433c1.801,-3.346 2.291,-6.205 2.6,-15.155c0.259,-7.526 0.214,-9.171 -0.348,-12.791c-0.318,-2.043 -1.342,-5.085 -2.104,-6.247c-0.246,-0.377 -1.22,-2.129 -2.163,-3.893c-5.105,-9.554 -9.292,-14.434 -14.772,-17.219c-1.71,-0.868 -5.774,-1.8 -11.63,-2.667c-4.483,-0.663 -6.809,-0.72 -11.128,-0.273zM481.23915,263.77635c6.511,1.111 6.691,1.168 9.189,2.866c3.43,2.333 6.619,6.496 10.089,13.169c0.775,1.489 1.519,2.841 1.655,3.005c0.136,0.163 0.645,1.1 1.132,2.081c1.346,2.714 1.663,5.682 1.467,13.769c-0.213,8.795 -0.716,11.927 -2.36,14.701c-2.414,4.071 -2.402,4.06 -11.641,10.917c-9.508,7.056 -9.604,7.11 -15.155,8.483c-3.251,0.804 -4.049,0.896 -7.925,0.915c-4.066,0.02 -4.557,-0.038 -8.651,-1.024c-2.387,-0.575 -6.204,-1.354 -8.481,-1.731c-6.385,-1.057 -7.532,-1.427 -9.02,-2.913c-3.151,-3.146 -7.683,-14.145 -8.885,-21.562c-0.396,-2.444 1.238,-9.623 3.486,-15.32c3.226,-8.177 4.87,-10.625 11.577,-17.241c5.115,-5.045 6.217,-5.849 10.936,-7.987c4.991,-2.261 7.944,-2.863 14.383,-2.935c2.488,-0.028 4.431,0.163 8.204,0.807z" data-paper-data="{&quot;wickUUID&quot;:&quot;d7490294-d4ab-4cf1-8e52-9d891029099e&quot;,&quot;wickType&quot;:&quot;path&quot;,&quot;originalStyle&quot;:{&quot;strokeColor&quot;:null,&quot;fillColor&quot;:[&quot;Color&quot;,1,1,1],&quot;strokeWidth&quot;:1}}" id="d7490294-d4ab-4cf1-8e52-9d891029099e"/><path d="M440.71579,294.13356c-1.316,0.89 -1.709,2.367 -0.987,3.709c0.392,0.728 1.098,1.249 3.043,2.248c4.379,2.249 9.826,5.336 16.248,9.209c6.55,3.951 7.3,4.233 8.734,3.294c1.263,-0.827 1.642,-2.362 0.925,-3.748c-0.777,-1.502 -23.658,-14.838 -26.137,-15.233c-0.601,-0.096 -1.139,0.058 -1.826,0.521z" data-paper-data="{&quot;wickUUID&quot;:&quot;71719ffb-e182-43d9-8ad2-cfd2e9754c45&quot;,&quot;wickType&quot;:&quot;path&quot;,&quot;originalStyle&quot;:{&quot;strokeColor&quot;:null,&quot;fillColor&quot;:[&quot;Color&quot;,1,1,1],&quot;strokeWidth&quot;:1}}" id="71719ffb-e182-43d9-8ad2-cfd2e9754c45"/><path d="M456.86408,291.83253c-0.472,0.505 -1,1.639 -1.392,2.989c-0.611,2.104 -3.429,7.545 -6.659,12.858c-0.783,1.287 -1.423,2.625 -1.423,2.972c0,2.532 2.993,4.042 4.792,2.417c0.679,-0.613 4.339,-6.726 6.572,-10.978c1.563,-2.974 3.096,-7.218 3.096,-8.567c0,-0.338 -0.425,-1.039 -0.945,-1.559c-0.775,-0.775 -1.156,-0.946 -2.113,-0.946c-0.933,0 -1.321,0.164 -1.928,0.814z" data-paper-data="{&quot;wickUUID&quot;:&quot;08d8fea1-2e5f-46c0-9dcc-e9bbbb796a08&quot;,&quot;wickType&quot;:&quot;path&quot;,&quot;originalStyle&quot;:{&quot;strokeColor&quot;:null,&quot;fillColor&quot;:[&quot;Color&quot;,1,1,1],&quot;strokeWidth&quot;:1}}" id="08d8fea1-2e5f-46c0-9dcc-e9bbbb796a08"/><path d="M482.98462,274.24802c-3.842,0.643 -8.347,3.704 -10.036,6.818c-0.935,1.725 -0.949,1.797 -0.949,5.225c0,1.912 0.105,4.227 0.233,5.145c0.215,1.544 0.351,1.785 1.826,3.228c1.42,1.389 2.003,1.719 5.329,3.021c7.676,3.002 12.394,3.179 13.771,0.516c0.29,-0.56 0.395,-1.218 0.295,-1.837c-0.121,-0.746 -0.007,-1.161 0.506,-1.834c1.544,-2.025 3.376,-6.683 3.608,-9.174c0.306,-3.297 -2.389,-8.379 -5.283,-9.962c-2.051,-1.122 -6.31,-1.647 -9.3,-1.146zM488.25262,280.15802c1.481,0.286 2.539,1.428 3.189,3.442c0.408,1.263 0.4,1.441 -0.139,3.039c-1.238,3.678 -2.713,5.773 -4.56,6.478c-0.757,0.29 -1.52,0.398 -1.981,0.283c-1.51,-0.379 -5.823,-2.177 -6.287,-2.62c-0.353,-0.338 -0.525,-1.144 -0.663,-3.116c-0.229,-3.275 0.137,-4.232 2.193,-5.741c2.467,-1.811 5.094,-2.373 8.248,-1.765z" data-paper-data="{&quot;wickUUID&quot;:&quot;b1cb0cf1-9f55-4572-be8f-77873b400cb4&quot;,&quot;wickType&quot;:&quot;path&quot;,&quot;originalStyle&quot;:{&quot;strokeColor&quot;:null,&quot;fillColor&quot;:[&quot;Color&quot;,1,1,1],&quot;strokeWidth&quot;:1}}" id="b1cb0cf1-9f55-4572-be8f-77873b400cb4"/><path d="M497.30537,294.1224c-1.223,0.673 -1.517,1.384 -1.529,3.709c-0.015,2.566 -0.418,3.66 -2.334,6.328c-2.576,3.589 -6.518,6.854 -10.358,8.58c-1.049,0.471 -2.658,1.209 -3.576,1.64c-2.53,1.186 -5.952,2.141 -10.567,2.951c-6.271,1.099 -7.068,1.176 -12.843,1.24l-5.334,0.059l-0.874,-0.736c-1.325,-1.114 -2.823,-1.024 -4.093,0.246c-0.875,0.875 -0.965,1.1 -0.834,2.081c0.087,0.645 0.512,1.559 1.028,2.21c0.722,0.912 1.213,1.208 2.738,1.653c1.735,0.506 2.33,0.526 8.95,0.301c3.9,-0.132 7.642,-0.378 8.315,-0.546c0.673,-0.169 3.028,-0.612 5.233,-0.985c2.204,-0.374 5.282,-1.108 6.84,-1.633c3.709,-1.248 9.485,-3.998 12.127,-5.774c4.154,-2.79 8.398,-7.634 10.41,-11.88c0.818,-1.727 0.872,-2.037 0.872,-4.992v-3.151l-0.908,-0.812c-0.968,-0.866 -2.233,-1.055 -3.263,-0.489z" data-paper-data="{&quot;wickUUID&quot;:&quot;246b00d5-d1cf-4c72-b426-214bf23c8ca8&quot;,&quot;wickType&quot;:&quot;path&quot;,&quot;originalStyle&quot;:{&quot;strokeColor&quot;:null,&quot;fillColor&quot;:[&quot;Color&quot;,1,1,1],&quot;strokeWidth&quot;:1}}" id="246b00d5-d1cf-4c72-b426-214bf23c8ca8"/><path d="M497.54388,299.3584c-1.496,0.604 -1.935,2.79 -0.934,4.658c1.041,1.941 0.482,4.298 -1.803,7.606c-0.572,0.827 -1.319,2.129 -1.661,2.894c-0.45,1.005 -1.347,2.059 -3.237,3.801c-3.583,3.302 -4.536,4.028 -6.771,5.157c-1.062,0.537 -2.392,1.266 -2.954,1.622c-2.115,1.335 -4.794,1.916 -8.879,1.925l-3.754,0.009l-3.754,-1.855c-2.065,-1.02 -5.092,-2.74 -6.728,-3.823c-3.604,-2.386 -4.45,-2.526 -5.988,-0.988c-0.879,0.879 -0.966,1.097 -0.832,2.096c0.185,1.375 0.44,1.689 2.55,3.139c2.175,1.495 8.542,5.185 8.947,5.185c0.172,0 0.86,0.303 1.529,0.673c2.824,1.561 6.448,2.031 11.089,1.435c3.626,-0.465 6.528,-1.37 8.842,-2.756c0.872,-0.522 2.399,-1.333 3.393,-1.801c3.319,-1.563 10.25,-8.005 11.618,-10.798c0.439,-0.897 1.317,-2.426 1.95,-3.398c0.634,-0.972 1.547,-2.786 2.029,-4.032c0.812,-2.096 0.865,-2.439 0.715,-4.605c-0.327,-4.71 -2.566,-7.274 -5.367,-6.144z" data-paper-data="{&quot;wickUUID&quot;:&quot;1c19af7c-2ef7-4465-b487-8fbbe0217d17&quot;,&quot;wickType&quot;:&quot;path&quot;,&quot;originalStyle&quot;:{&quot;strokeColor&quot;:null,&quot;fillColor&quot;:[&quot;Color&quot;,1,1,1],&quot;strokeWidth&quot;:1}}" id="1c19af7c-2ef7-4465-b487-8fbbe0217d17"/><path d="M468.09569,240.02506c-10.271,1.011 -12.635,1.299 -17.962,2.186c-6.075,1.011 -11.32,2.159 -16.102,3.525c-3.268,0.933 -4.537,1.841 -5.005,3.58c-0.276,1.024 0.107,15.819 0.448,17.322c0.157,0.693 -0.07,1.017 -2.155,3.074c-1.355,1.336 -3.692,3.198 -5.58,4.445c-4.636,3.061 -4.393,2.585 -4.391,8.637c0.001,2.771 0.203,7.54 0.448,10.599c0.305,3.791 0.439,8.655 0.423,15.274c-0.023,9.762 0.178,12.878 0.923,14.32c0.394,0.762 5.044,3.991 7.622,5.293c0.667,0.337 5.673,2.386 11.123,4.553l9.909,3.94l5.909,0.08c5.651,0.077 5.909,0.058 5.909,-0.448c0,-0.711 -0.981,-1.918 -1.745,-2.148c-0.34,-0.102 -5.061,-1.934 -10.49,-4.071c-20.02,-7.879 -17.942,-6.98 -21.336,-9.228l-1.732,-1.147l-0.04,-1.53c-0.023,-0.841 -0.072,-6.034 -0.11,-11.54c-0.037,-5.506 -0.209,-11.387 -0.381,-13.07c-0.172,-1.682 -0.395,-5.373 -0.494,-8.203l-0.181,-5.144l2.196,-1.432c4.635,-3.022 9.631,-8.005 10,-9.974c0.103,-0.548 0.049,-2.961 -0.12,-5.362c-0.482,-6.842 -0.487,-11.758 -0.013,-12.013c0.988,-0.532 10.481,-2.588 16.521,-3.578c6.303,-1.034 8.171,-1.254 16.976,-1.993l3.628,-0.305l5.548,2.736c4.815,2.374 5.843,2.778 7.776,3.056c2.122,0.306 11.53,3.44 16.96,5.651c1.224,0.498 4.665,1.747 7.647,2.776l5.423,1.869v9.859v9.858l0.695,1.038c0.383,0.57 2.26,2.206 4.171,3.635c3.104,2.319 14.351,11.917 15.219,12.987c0.848,1.046 -2.074,13.671 -3.353,14.485c-0.179,0.113 -3.391,0.209 -7.138,0.211c-10.123,0.007 -15.399,0.72 -22.903,3.096c-4.025,1.275 -5.018,1.701 -5.944,2.547c-1.402,1.282 -0.928,3.695 0.898,4.566c0.931,0.444 1.019,0.427 5.757,-1.121c8.151,-2.663 12.375,-3.244 23.588,-3.244h7.669l1.185,-0.765c1.354,-0.874 2.512,-2.707 3.503,-5.546c1.264,-3.622 2.438,-9.07 2.81,-13.043c0.235,-2.508 -0.315,-3.839 -2.418,-5.849c-3.018,-2.884 -11.314,-9.969 -14.312,-12.224c-1.698,-1.276 -3.247,-2.513 -3.442,-2.748c-0.276,-0.332 -0.307,-1.379 -0.14,-4.667c0.363,-7.142 0.347,-14.996 -0.033,-15.785c-0.765,-1.587 -1.688,-2.114 -6.578,-3.753c-2.638,-0.883 -6.985,-2.454 -9.662,-3.489c-10.365,-4.008 -17.614,-6.357 -19.666,-6.374c-0.34,-0.002 -3.093,-1.263 -6.118,-2.802c-3.025,-1.538 -5.938,-2.84 -6.473,-2.891c-0.535,-0.052 -2.725,0.078 -4.867,0.289z" data-paper-data="{&quot;wickUUID&quot;:&quot;72023c3b-157b-4ff9-a4b1-c15732d73ff6&quot;,&quot;wickType&quot;:&quot;path&quot;,&quot;originalStyle&quot;:{&quot;strokeColor&quot;:null,&quot;fillColor&quot;:[&quot;Color&quot;,1,1,1],&quot;strokeWidth&quot;:1}}" id="72023c3b-157b-4ff9-a4b1-c15732d73ff6"/><path d="M285.79281,207.94771c-5.363,0.711 -10.889,3.328 -15.613,7.394c-6.261,5.388 -7.986,9.318 -6.45,14.695c1.326,4.645 4.073,8.758 7.03,10.525c3.243,1.938 6.442,2.734 9.645,2.401c15.664,-1.633 23.613,-2.993 26.152,-4.474c3.362,-1.962 5.245,-3.902 6.793,-7c2.832,-5.667 1.409,-10.97 -4.62,-17.215c-4.863,-5.038 -9.305,-6.727 -17.325,-6.589c-2.295,0.039 -4.82,0.158 -5.612,0.263zM297.18681,214.03271c3.582,0.843 6.074,2.532 8.756,5.935c2.309,2.93 3.323,5.586 2.852,7.466c-0.392,1.559 -2.88,4.504 -4.524,5.354c-2.936,1.519 -19.12,4.184 -25.46,4.194c-4.302,0.006 -7.526,-2.718 -9.296,-7.853c-0.386,-1.121 -0.565,-2.668 -0.405,-3.49c0.398,-2.045 6.281,-7.605 9.972,-9.427c5.166,-2.549 12.686,-3.454 18.105,-2.179z" data-paper-data="{&quot;wickUUID&quot;:&quot;ac25b924-4e54-40f5-a397-ab2d7da3ac62&quot;,&quot;wickType&quot;:&quot;path&quot;,&quot;originalStyle&quot;:{&quot;strokeColor&quot;:null,&quot;fillColor&quot;:[&quot;Color&quot;,1,1,1],&quot;strokeWidth&quot;:1}}" id="ac25b924-4e54-40f5-a397-ab2d7da3ac62"/><path d="M289.15098,188.66122c-4.426,0.953 -12.284,3.029 -13.721,3.624c-4.183,1.733 -9.255,13.579 -8.308,19.404c0.702,4.319 2.802,7.435 5.01,7.435c2.602,0 3.664,-2.791 1.98,-5.202c-0.49,-0.7 -1.027,-1.841 -1.194,-2.534c-0.712,-2.949 1.935,-10.831 4.379,-13.038c0.926,-0.837 6.769,-2.539 13.772,-4.013c3.879,-0.817 10.315,-0.545 13.991,0.589c4.299,1.327 12.769,7.131 18.166,12.447c4.433,4.366 4.79,5.178 6.432,14.629c0.527,3.034 1.847,8.21 2.934,11.504c1.761,5.335 1.984,6.532 2.051,10.979c0.059,4.004 -0.068,5.066 -0.646,5.367c-0.395,0.207 -3.309,0.954 -6.475,1.661c-3.165,0.707 -8.669,2.257 -12.231,3.444c-10.223,3.408 -16.802,4.249 -21.824,2.789c-5.1,-1.483 -9.584,-3.256 -11.039,-4.365c-1.634,-1.247 -2.039,-2.535 -3.153,-10.035c-0.314,-2.11 -0.898,-4.215 -1.297,-4.676c-0.985,-1.137 -2.759,-1.058 -3.995,0.179c-0.89,0.889 -0.979,1.36 -0.702,3.717c0.53,4.524 2.162,11.683 2.929,12.854c1.038,1.584 5.371,4.904 6.871,5.264c0.7,0.168 3.459,1.03 6.13,1.916c4.214,1.397 5.494,1.611 9.662,1.611c5.466,0 10.45,-0.903 15.841,-2.871c4.67,-1.704 11.589,-3.597 18.497,-5.058c7.702,-1.63 7.658,-1.564 7.394,-11.22c-0.199,-7.241 -0.266,-7.649 -2.173,-13.227c-1.082,-3.166 -2.224,-7.159 -2.537,-8.874c-1.63,-8.927 -2.03,-10.542 -3.28,-13.217c-1.787,-3.824 -6.506,-8.573 -13.247,-13.334c-6.62,-4.675 -11.988,-7.339 -16.068,-7.972c-4.149,-0.644 -10.598,-0.542 -14.149,0.223z" data-paper-data="{&quot;wickUUID&quot;:&quot;e3a9325d-914f-4920-85f7-7590cdb3cf03&quot;,&quot;wickType&quot;:&quot;path&quot;,&quot;originalStyle&quot;:{&quot;strokeColor&quot;:null,&quot;fillColor&quot;:[&quot;Color&quot;,1,1,1],&quot;strokeWidth&quot;:1}}" id="e3a9325d-914f-4920-85f7-7590cdb3cf03"/><path d="M334.54838,215.7014c-3.411,1.209 -5.073,2.508 -5.263,4.112c-0.193,1.62 1.093,3.148 2.647,3.148c0.629,0 1.955,-0.414 2.946,-0.919c3.742,-1.909 8.126,-1.861 9.41,0.102c0.392,0.599 0.823,2.925 0.997,5.374c0.168,2.374 0.791,6.799 1.385,9.832c1.147,5.865 1.033,7.613 -0.605,9.25c-1.079,1.079 -3.783,1.755 -7.077,1.771c-2.772,0.013 -4.032,0.956 -4.032,3.02c0,1.833 1.623,2.747 4.88,2.747c6.662,0 10.704,-2.081 12.668,-6.521c1.234,-2.79 1.463,-5.624 0.674,-8.351c-0.763,-2.637 -1.429,-7.012 -1.879,-12.342c-0.507,-5.991 -2.057,-9.291 -5.114,-10.89c-2.655,-1.387 -8.216,-1.546 -11.637,-0.333z" data-paper-data="{&quot;wickUUID&quot;:&quot;7a858d28-ec2b-4bb7-adfa-20cf148263b5&quot;,&quot;wickType&quot;:&quot;path&quot;,&quot;originalStyle&quot;:{&quot;strokeColor&quot;:null,&quot;fillColor&quot;:[&quot;Color&quot;,1,1,1],&quot;strokeWidth&quot;:1}}" id="7a858d28-ec2b-4bb7-adfa-20cf148263b5"/><path d="M286.27302,175.08112c-1.319,0.248 -4.341,1.463 -6.715,2.701c-5.46,2.847 -5.762,3.384 -5.739,10.213c0.021,5.911 0.707,7.626 3.053,7.626c2.247,0 2.686,-1.05 2.686,-6.438v-4.833l3.357,-1.606c4.474,-2.139 7.072,-2.514 13.43,-1.94c8.73,0.788 12.954,1.968 17.827,4.981c10.622,6.567 18.386,14.508 18.386,18.805c0,0.545 -1.074,2.366 -2.388,4.045c-2.572,3.289 -2.99,5.018 -1.531,6.338c1.92,1.737 3.867,0.73 7.056,-3.653c3.065,-4.212 3.398,-5.527 2.365,-9.344c-1.555,-5.743 -10.058,-15.018 -17.912,-19.539c-1.484,-0.854 -3.928,-2.306 -5.431,-3.227c-5.426,-3.325 -20.821,-5.56 -28.444,-4.129z" data-paper-data="{&quot;wickUUID&quot;:&quot;e0eabbf5-633b-4783-95ce-40688a173ae2&quot;,&quot;wickType&quot;:&quot;path&quot;,&quot;originalStyle&quot;:{&quot;strokeColor&quot;:null,&quot;fillColor&quot;:[&quot;Color&quot;,1,1,1],&quot;strokeWidth&quot;:1}}" id="e0eabbf5-633b-4783-95ce-40688a173ae2"/><path d="M324.71307,147.11614c-3.994,0.736 -9.781,2.853 -13.105,4.792c-1.631,0.952 -2.66,1.17 -5.529,1.17c-3.011,0 -4.013,0.234 -6.87,1.604c-3.4,1.631 -10.833,7.514 -14.395,11.394c-2.438,2.657 -4.008,5.869 -4.373,8.951c-0.24,2.028 -0.128,2.549 0.736,3.413c2.135,2.135 4.537,0.871 4.976,-2.619c0.136,-1.077 0.801,-2.837 1.479,-3.911c1.597,-2.529 10.098,-9.843 13.556,-11.662c2.389,-1.256 3.162,-1.414 6.929,-1.414c2.635,0 4.367,-0.205 4.575,-0.542c0.563,-0.911 8.019,-4.187 11.278,-4.955c3.954,-0.932 6.846,-0.924 11.132,0.03c3.909,0.87 7.347,2.831 9.18,5.233c1.514,1.986 4.584,8.29 4.584,9.414c0,2.586 -4.902,10.308 -8.204,12.924c-1.775,1.405 -1.968,1.457 -2.765,0.735c-1.165,-1.054 -3.09,-0.976 -4.124,0.166c-0.754,0.834 -0.815,1.562 -0.531,6.356c0.177,2.977 0.117,7.346 -0.132,9.709c-0.454,4.313 -0.161,6.317 1.037,7.079c0.962,0.611 3.058,0.416 3.689,-0.344c0.937,-1.129 1.882,-6.346 1.9,-10.491l0.017,-3.778l4.557,-4.497c2.506,-2.474 4.556,-4.693 4.556,-4.931c0,-0.238 0.741,-1.32 1.647,-2.404c2.3,-2.753 4.761,-9.263 4.353,-11.513c-0.171,-0.944 -1.425,-3.952 -2.787,-6.686c-3.684,-7.396 -8.206,-11.11 -15.444,-12.683c-5.364,-1.166 -7.903,-1.281 -11.922,-0.54z" data-paper-data="{&quot;wickUUID&quot;:&quot;c067ead5-7681-49a6-a47e-7bb372890f31&quot;,&quot;wickType&quot;:&quot;path&quot;,&quot;originalStyle&quot;:{&quot;strokeColor&quot;:null,&quot;fillColor&quot;:[&quot;Color&quot;,1,1,1],&quot;strokeWidth&quot;:1}}" id="c067ead5-7681-49a6-a47e-7bb372890f31"/><path d="M279.69261,309.0163c-8.506,4.065 -13.169,6.576 -14.693,7.912c-2.524,2.215 -5.57,7.922 -8.064,15.111l-1.484,4.276l1.002,3.878c0.55,2.133 1.505,6.267 2.121,9.185c1.594,7.552 4.252,14.01 7.274,17.676c3.382,4.103 9.529,7.619 15.699,8.98c6.888,1.519 9.081,1.674 19.287,1.366c11.321,-0.342 12.024,-0.565 17.347,-5.481c5.067,-4.68 6.33,-7.536 8.82,-19.933c2.154,-10.73 2.223,-12.781 0.684,-20.385c-1.699,-8.395 -7.03,-15.044 -17.662,-22.034c-3.477,-2.286 -13.928,-6.48 -16.182,-6.494c-1.187,-0.008 -5.392,1.758 -14.149,5.943zM299.94761,311.1833c2.166,0.839 5.558,2.584 7.539,3.878c4.652,3.036 10.794,8.916 12.373,11.844c1.469,2.724 2.766,8.736 2.824,13.09c0.054,4.076 -3.138,19.65 -4.62,22.534c-1.344,2.618 -6.716,7.992 -8.383,8.387c-0.98,0.232 -1.348,0.019 -2.016,-1.169c-1.064,-1.893 -2.309,-1.874 -6.121,0.092c-2.893,1.492 -3.185,1.543 -8.581,1.497c-7.667,-0.065 -12.708,-1.246 -17.623,-4.129c-2.281,-1.337 -4.404,-3.021 -5.331,-4.228c-1.894,-2.466 -4.265,-8.058 -5.233,-12.342c-0.399,-1.764 -1.273,-5.541 -1.942,-8.392c-1.388,-5.913 -1.308,-6.654 1.425,-13.109c1.931,-4.562 3.79,-7.575 5.272,-8.546c0.607,-0.397 6.225,-3.192 12.485,-6.21c12.698,-6.122 11.115,-5.84 17.932,-3.197z" data-paper-data="{&quot;wickUUID&quot;:&quot;2b3cd023-d545-4191-bb33-753a9f092a4b&quot;,&quot;wickType&quot;:&quot;path&quot;,&quot;originalStyle&quot;:{&quot;strokeColor&quot;:null,&quot;fillColor&quot;:[&quot;Color&quot;,1,1,1],&quot;strokeWidth&quot;:1}}" id="2b3cd023-d545-4191-bb33-753a9f092a4b"/><path d="M303.55552,355.1738c-0.336,0.141 -0.916,0.849 -1.291,1.572c-0.618,1.196 -1.234,1.438 -6.74,2.648c-6.637,1.459 -10.297,1.446 -16.474,-0.057c-3.545,-0.862 -5.134,-0.436 -5.623,1.51c-0.788,3.139 2.949,4.796 12.055,5.343c4.724,0.284 5.974,0.173 11.511,-1.019c3.417,-0.735 6.859,-1.723 7.651,-2.194c0.791,-0.471 1.977,-1.846 2.634,-3.057c1.115,-2.052 1.146,-2.288 0.465,-3.508c-0.719,-1.287 -2.689,-1.869 -4.188,-1.238z" data-paper-data="{&quot;wickUUID&quot;:&quot;8093fb96-fa67-4dc5-bd6f-8a34301afcaf&quot;,&quot;wickType&quot;:&quot;path&quot;,&quot;originalStyle&quot;:{&quot;strokeColor&quot;:null,&quot;fillColor&quot;:[&quot;Color&quot;,1,1,1],&quot;strokeWidth&quot;:1}}" id="8093fb96-fa67-4dc5-bd6f-8a34301afcaf"/><path d="M274.40316,340.68277c-0.882,1.347 -0.577,5.048 0.566,6.867c0.832,1.323 3.546,1.479 4.752,0.273c1.022,-1.023 0.769,-5.242 -0.425,-7.064c-1.12,-1.71 -3.795,-1.752 -4.893,-0.076z" data-paper-data="{&quot;wickUUID&quot;:&quot;5ff5bf2b-0bb6-435e-a284-4e90631fd886&quot;,&quot;wickType&quot;:&quot;path&quot;,&quot;originalStyle&quot;:{&quot;strokeColor&quot;:null,&quot;fillColor&quot;:[&quot;Color&quot;,1,1,1],&quot;strokeWidth&quot;:1}}" id="5ff5bf2b-0bb6-435e-a284-4e90631fd886"/><path d="M289.25046,341.00441c-1.235,1.365 -1.235,4.77 0,6.135c2.105,2.326 5.081,0.529 5.081,-3.067c0,-3.597 -2.976,-5.394 -5.081,-3.068z" data-paper-data="{&quot;wickUUID&quot;:&quot;b9b8cb39-d01f-48a2-baab-136e094ee993&quot;,&quot;wickType&quot;:&quot;path&quot;,&quot;originalStyle&quot;:{&quot;strokeColor&quot;:null,&quot;fillColor&quot;:[&quot;Color&quot;,1,1,1],&quot;strokeWidth&quot;:1}}" id="b9b8cb39-d01f-48a2-baab-136e094ee993"/><path d="M338.11178,269.56468c-1.82052,0.0606 -3.96779,0.53398 -11.0284,2.43065c-2.44043,0.65554 -6.24301,1.66736 -8.45057,2.24944c-2.20641,0.58125 -6.6447,1.98683 -9.86275,3.12341l-5.85006,2.06584l-0.20239,-1.55388c-0.11075,-0.855 -0.15347,-2.87828 -0.09419,-4.49585c0.0896,-2.41813 -0.04878,-3.1287 -0.77755,-3.99639c-0.48695,-0.57999 -1.12065,-1.09274 -1.40686,-1.13944c-1.26132,-0.20582 -3.53636,0.74014 -5.70795,2.37475c-2.70863,2.03839 -11.84137,11.81523 -14.51992,15.54454c-2.54078,3.53699 -2.93822,4.43267 -4.68258,10.55263c-1.7499,6.13527 -2.98279,15.06934 -2.41223,17.4655c0.59139,2.47961 3.37653,3.36267 5.00365,1.58754c0.65091,-0.71045 0.78407,-1.34023 0.88932,-4.18339c0.16883,-4.54919 0.84203,-8.37674 2.47342,-14.07134c1.69866,-5.9268 2.86016,-7.71103 9.99333,-15.34896l5.05696,-5.41428l0.31833,2.048c0.57869,3.72482 1.54569,5.7591 3.14361,6.61562c1.67994,0.9003 0.84675,1.08858 9.88916,-2.22341c3.42135,-1.25235 8.88236,-2.95207 12.13534,-3.77493c3.25413,-0.82369 7.51248,-1.96479 9.46493,-2.53581c7.06612,-2.06701 7.89652,-2.0146 17.9225,1.14529c3.55978,1.12193 8.22434,2.44035 10.36764,2.9289c4.48074,1.02296 7.92599,2.20726 7.84595,2.69777c-0.03028,0.18555 -2.7127,1.85839 -5.9615,3.71745c-8.06326,4.61367 -9.01535,5.22633 -12.83756,8.25228c-3.64858,2.8871 -7.90249,7.99976 -8.20638,9.86213c-0.29729,1.8219 1.09274,3.03966 4.02631,3.52848c4.51073,0.75225 13.31071,4.80638 18.57356,8.55588c3.89403,2.77433 7.17908,6.16362 8.826,9.10423c1.9698,3.52018 6.72121,13.02443 6.55249,13.10835c-0.07402,0.03757 -1.23491,0.11665 -2.57802,0.17612c-4.29397,0.19198 -10.97766,1.10755 -13.41389,1.83672c-6.07431,1.81951 -15.51584,5.96916 -20.87293,9.17426c-9.45302,5.65444 -25.32792,16.21469 -25.44387,16.92529c-0.03012,0.18456 1.67371,0.61558 3.78527,0.9571l3.83921,0.62038l3.86707,-2.64271c3.98582,-2.72466 12.19633,-7.93643 16.91298,-10.73739c7.32059,-4.34679 18.0308,-8.68965 23.368,-9.47537c4.93627,-0.7255 8.03723,-0.95206 9.59709,-0.70057c2.02767,0.32783 4.30857,-0.00823 5.66025,-0.83433c0.90495,-0.55349 1.29216,-1.16917 1.66084,-2.63999c0.52714,-2.1066 0.34944,-2.73138 -2.24755,-7.89704c-0.76785,-1.52861 -2.18294,-4.3625 -3.14484,-6.29767c-2.2279,-4.48433 -5.2274,-8.79768 -7.8475,-11.28207c-4.46519,-4.23539 -13.40644,-9.51627 -20.60055,-12.16644c-1.2808,-0.47142 -2.15905,-1.01293 -2.11186,-1.30211c0.27539,-1.68768 11.20001,-8.87209 24.58466,-16.16778c3.41861,-1.86276 4.21915,-2.80717 3.74661,-4.41931c-0.18695,-0.63641 -0.94686,-1.57403 -1.69037,-2.08443c-2.45628,-1.6876 -8.39769,-4.05434 -12.49241,-4.97783c-2.21748,-0.49964 -7.69493,-2.03986 -12.1718,-3.42188c-8.45212,-2.60924 -10.02842,-2.95866 -12.888,-2.86395z" data-paper-data="{&quot;wickUUID&quot;:&quot;d8150cd5-5134-4759-93b3-6074ef6adb7a&quot;,&quot;wickType&quot;:&quot;path&quot;,&quot;originalStyle&quot;:{&quot;strokeColor&quot;:null,&quot;fillColor&quot;:[&quot;Color&quot;,1,1,1],&quot;strokeWidth&quot;:1}}" id="d8150cd5-5134-4759-93b3-6074ef6adb7a"/></g><g fill="none" fill-rule="nonzero" stroke="none" stroke-width="1" stroke-linecap="butt" stroke-linejoin="miter" stroke-miterlimit="10" stroke-dasharray="" stroke-dashoffset="0" font-family="sans-serif" font-weight="normal" font-size="12" text-anchor="start" style="mix-blend-mode: normal"/><g id="wick_project_gui" fill="none" fill-rule="nonzero" stroke="none" stroke-width="1" stroke-linecap="butt" stroke-linejoin="miter" stroke-miterlimit="10" stroke-dasharray="" stroke-dashoffset="0" font-family="sans-serif" font-weight="normal" font-size="12" text-anchor="start" style="mix-blend-mode: normal"/></g></svg>