<svg version="1.1" xmlns="http://www.w3.org/2000/svg" xmlns:xlink="http://www.w3.org/1999/xlink" width="1260" height="594" viewBox="0,0,1260,594"><g transform="translate(175.45524,113.67446) scale(0.94752,0.94752)"><g id="wick_project_bg" fill="#333333" fill-rule="nonzero" stroke="none" stroke-width="1" stroke-linecap="butt" stroke-linejoin="miter" stroke-miterlimit="10" stroke-dasharray="" stroke-dashoffset="0" font-family="none" font-weight="none" font-size="none" text-anchor="none" style="mix-blend-mode: normal"><rect x="0" y="0" width="720" height="480"/></g><g data-paper-data="{&quot;wickUUID&quot;:&quot;8e24186d-42df-4c1d-88eb-757691b17032&quot;,&quot;wickType&quot;:&quot;clipsandpaths&quot;}" fill="none" fill-rule="nonzero" stroke="none" stroke-width="1" stroke-linecap="butt" stroke-linejoin="miter" stroke-miterlimit="10" stroke-dasharray="" stroke-dashoffset="0" font-family="sans-serif" font-weight="normal" font-size="12" text-anchor="start" style="mix-blend-mode: normal"/><g data-paper-data="{&quot;wickUUID&quot;:&quot;3ee04cd2-123c-4061-800d-19b1a52fe302&quot;,&quot;wickType&quot;:&quot;clipsandpaths&quot;}" fill="none" fill-rule="nonzero" stroke="none" stroke-width="1" stroke-linecap="butt" stroke-linejoin="miter" stroke-miterlimit="10" stroke-dasharray="" stroke-dashoffset="0" font-family="sans-serif" font-weight="normal" font-size="12" text-anchor="start" style="mix-blend-mode: normal"/><g data-paper-data="{&quot;wickUUID&quot;:&quot;98cbe437-1647-4ba5-9165-ccbfb40771bd&quot;,&quot;wickType&quot;:&quot;clipsandpaths&quot;}" fill="#ffffff" fill-rule="none" stroke="none" stroke-width="1" stroke-linecap="butt" stroke-linejoin="miter" stroke-miterlimit="10" stroke-dasharray="" stroke-dashoffset="0" font-family="none" font-weight="none" font-size="none" text-anchor="none" style="mix-blend-mode: normal"><path d="M393.16734,262.07353c-4.31067,5.906 -4.73456,6.76454 -6.50723,12.58254c-3.89633,12.78833 -4.82717,19.47498 -3.6855,26.48898c0.658,4.04433 2.29254,10.82718 2.90787,12.35051c1.131,2.799 6.72695,5.74641 15.10462,7.86441c5.335,1.349 6.57091,1.55185 11.24958,1.71818l5.35862,0.18382l3.07533,-1.16629c1.89567,-0.735 3.5177,-1.7682 4.38703,-2.63753c1.67333,-1.67333 4.04691,-6.61082 5.57058,-11.62015l1.28138,-4.24248l-0.1769,-5.32435c-0.11133,-3.19367 -0.46875,-6.2353 -0.80542,-7.47163c-1.408,-5.17467 -4.72322,-9.64503 -8.29755,-11.33603c-2.35567,-1.11433 -7.23744,-1.73043 -13.61477,-1.58643l-5.1204,0.14166l-3.36732,2.36874c-1.72567,1.24367 -3.07812,2.20934 -3.51445,2.31867c-0.888,0.223 -1.54824,-0.37297 -2.63291,-1.82597l-0.32949,-0.19592l0.66922,-2.22791c0.89,-3.04067 2.49566,-6.06474 6.83799,-12.88341c1.75167,-2.75 3.28685,-5.59204 3.28818,-5.88771c0.00167,-0.40767 -1.29587,-1.54852 -3.38054,-1.96219c-1.51233,-0.30033 -3.66909,-0.46432 -4.03576,-0.45565c-0.46333,0.011 -1.98649,1.68847 -4.26216,4.80614zM409.66896,291.31389c4.889,1.528 7.36504,3.63357 8.42004,7.18724c0.64267,2.163 0.61017,5.49954 -0.0175,7.00221c-0.46733,1.11867 -0.6849,1.17476 -4.75923,3.83376c-1.1,0.718 -1.97907,1.39535 -2.4044,1.70635c-0.73367,0.53667 -0.64242,0.5331 -5.12909,-0.3479c-6.18033,-1.21333 -7.68554,-1.71761 -9.41121,-3.49594c-1.48,-1.52533 -1.87471,-2.98145 -2.37371,-7.49478c-0.32233,-2.91633 -0.18489,-3.53287 1.38444,-5.31554c1.513,-1.719 2.25079,-2.12973 5.46912,-3.1614c3.77467,-1.21 4.58387,-1.23867 8.82154,0.086z" data-paper-data="{&quot;wickUUID&quot;:&quot;bc06969d-243f-4a41-b3d9-677a0af68f68&quot;,&quot;wickType&quot;:&quot;path&quot;}" fill-rule="evenodd"/><path d="M403.72278,127.71289c-3.66467,0.30333 -22.21426,3.81027 -22.64559,4.2366c-0.30767,0.304 2.27199,13.48287 3.78666,18.6322l1.22179,2.8439l6.82369,0.14929l6.47851,0.10102l1.92296,0.95035c1.239,0.587 2.91086,1.71516 3.90853,2.65849c1.50867,1.427 1.65421,1.61032 1.98221,3.07565c0.34967,1.562 0.34839,1.52191 -0.30694,3.69958c-1.16967,3.88667 -2.4357,6.2625 -4.7987,8.7745c-2.98133,3.16967 -3.45379,3.31463 -8.49512,3.32363c-2.23933,0.004 -5.37676,-0.17871 -7.22076,-0.38838c-1.844,-0.20967 -4.22787,0.14189 -4.34187,0.25589c-0.30067,0.30033 -2.47867,9.36308 -2.73434,11.40841c-0.21333,1.70933 0.24701,2.60685 1.32901,3.16652c2.25667,1.16667 6.25314,2.28496 8.07814,2.28463c2.39,-0.00033 7.07598,-1.01833 13.33031,-2.922c2.75,-0.83667 6.55469,-1.99777 8.29636,-2.52577c3.33333,-1.011 5.91472,-2.4097 9.94272,-5.37703c2.242,-1.652 2.84114,-2.46085 3.65547,-4.55418c1.04367,-2.68267 1.08587,-3.5248 0.2642,-9.8248l-0.66807,-5.03947l-2.03579,-3.046c-2.224,-3.274 -5.62158,-6.98776 -8.08791,-8.89043c-2.076,-1.60133 -6.35999,-3.17616 -11.11732,-4.04249c-2.61933,-0.47733 -3.02692,-0.5497 -3.82125,-1.34403c-0.918,-0.91833 -0.71839,-0.27905 -0.55806,-2.52172c0.19133,-2.67067 0.3446,-3.30078 1.89227,-3.73045c0.53733,-0.14933 5.50225,-0.35461 11.33125,-0.51361c5.829,-0.159 10.97397,-0.42852 11.02764,-0.49685c0.05367,-0.068 0.34128,-2.96535 0.05695,-5.39468l-0.96904,-5.08201l-8.24979,-0.04024c-4.315,0.031 -8.54479,0.11281 -9.27812,0.17348z" data-paper-data="{&quot;wickUUID&quot;:&quot;916a3c5b-aeaa-4551-b0ef-6cce8d22286f&quot;,&quot;wickType&quot;:&quot;path&quot;}" fill-rule="evenodd"/><path d="M386.59532,22.73367c0.12067,2.63433 0.21941,7.66436 0.22008,11.19369l0.08985,6.78379l3.87248,0.46916c3.40967,0 10.35386,0.61432 14.38319,1.37865c4.32467,0.82033 4.41332,1.25519 5.69199,11.96319c0.37433,3.13467 0.8517,6.67795 1.11337,8.11462c0.27,1.48267 0.56499,6.10595 0.68599,10.74295c0.11733,4.49167 0.31442,8.59906 0.40542,8.92006c0.13267,0.46867 1.33791,1.2165 2.87524,1.2165c1.068,0 3.02927,-0.82657 3.36827,-1.07424c0.97267,-0.71133 1.01375,-3.46715 0.07508,-9.41415c-0.80633,-5.10667 -0.85795,-6.12923 -0.83528,-16.8069c0.024,-11.277 0.07442,-14.12756 0.72375,-14.77689c0.57067,-0.57067 4.4635,-0.90471 9.44683,-1.21704c2.61933,-0.16433 5.2635,-0.5609 5.3545,-0.6519c0.20733,-0.207 -0.3534,-4.11635 -0.6724,-4.63268c-0.17733,-0.28667 -2.06671,-0.34426 -6.37804,0.01907c-3.675,0.31 -5.89972,0.38375 -6.41472,0.18808c-0.44333,-0.16867 -0.40154,-0.13141 -0.76754,-0.73174c-0.61467,-1.00833 -0.6496,-1.56689 -0.6506,-8.72456c-0.001,-6.202 -0.23871,-8.17735 -0.59138,-8.17735c-0.58833,0 -5.07531,1.06059 -5.42264,1.37292c-0.15133,0.136 -0.83105,3.629 -1.38238,7.45233c-1.11667,7.741 -1.59956,9.68168 -2.82789,10.57035c-0.56867,0.41133 -1.48955,0.38524 -4.32622,0.73191c-6.201,0.75733 -6.80948,0.87237 -7.86815,-0.2373c-1.35467,-1.41967 -1.2541,-1.88853 -1.25743,-6.61986c-0.003,-4.80267 -0.57471,-12.07497 -0.95938,-12.43297c-0.133,-0.12367 -2.36759,-0.9061 -4.09292,-1.03777l-3.94388,0.14619z" data-paper-data="{&quot;wickUUID&quot;:&quot;e1d27cff-83ea-4743-9ba0-2ca1fe921b52&quot;,&quot;wickType&quot;:&quot;path&quot;}" fill-rule="evenodd"/><path d="M147.47081,240.40627l-2.06544,1.00313l0.29164,7.54831c0.16416,4.07345 0.29192,7.73536 0.23493,7.85417c-0.05733,0.11884 1.60019,0.77661 2.93031,0.76726c6.88493,-0.048 12.73942,1.4245 16.24919,4.11575c2.35503,1.80552 2.55569,2.07825 2.79424,4.34411c0.26947,2.56025 -0.41528,3.9134 -3.75552,8.06567l-2.81929,3.51665l0.82693,1.43133c1.08719,0.80495 1.98218,2.00694 2.40213,3.71541c0.74732,3.04019 -1.22718,10.45604 -3.59636,13.42543c-1.6916,2.12011 -2.70365,2.3609 -6.75653,2.50261c-1.8756,0.06526 -3.87911,0.06925 -4.61932,0.03509c-0.88123,-0.04109 -2.1743,0.47941 -2.53788,0.81186c-0.30515,0.27949 -1.07613,2.53061 -1.56857,4.69241c-0.49244,2.1618 -1.24254,5.2321 -1.66081,6.79847l-0.78443,3.10492l1.85514,1.10643c1.48475,0.48423 12.21606,-0.50397 18.11959,-1.66439c5.89725,-1.15947 8.6483,-2.21598 12.85627,-4.92279c3.60876,-2.32141 6.05199,-4.82317 7.09577,-7.28829c0.72325,-1.70785 0.84798,-2.68329 0.42934,-5.01286c-0.64751,-3.59962 -2.36667,-7.79675 -4.22788,-10.2935c-1.24637,-1.67221 -1.58785,-1.93485 -1.70228,-3.10025c-0.16016,-1.63116 0.09759,-1.90094 3.99448,-5.60646c1.34297,-1.27701 2.03104,-2.77127 2.8693,-4.98947c2.14389,-5.67331 1.42965,-7.84502 -6.56148,-19.67746l-3.06652,-4.49275l-7.61193,-3.60613c-9.96821,-4.70245 -10.87514,-4.98619 -14.82678,-4.68662c-1.73711,0.1317 -4.05277,0.35137 -4.78824,0.50196z" data-paper-data="{&quot;wickUUID&quot;:&quot;8f87b4cb-64a0-45bf-8753-b93fbe4d4efc&quot;,&quot;wickType&quot;:&quot;path&quot;}" id="8f87b4cb-64a0-45bf-8753-b93fbe4d4efc" fill-rule="evenodd"/><path d="M166.2907,19.94596c-2.93267,0.90233 -10.12857,6.55094 -14.32724,11.26394c-1.45833,1.63733 -3.10345,3.46685 -3.55612,3.96818l-1.01436,1.68346l1.78433,2.68298c0.90067,1.30633 2.55672,2.91959 2.92039,3.17392c1.626,1.139 6.03406,0.11812 9.03106,-2.13255c2.142,-1.60833 2.67894,-1.84196 4.30161,-1.68229c0.73,0.072 0.39292,-0.29561 0.84792,0.31672c0.91667,1.23333 0.87475,5.02422 -0.09225,9.35389c-1.043,4.66933 -1.87558,9.8395 -3.00291,18.66517c-0.553,4.33 -0.99774,7.89299 -1.18174,8.37666c-0.46233,1.21633 -1.36608,1.43231 -6.92675,2.57098c-3.187,0.65233 -5.45544,1.55738 -5.83344,1.95238c-0.539,0.563 -3.25447,12.64313 -2.9208,12.97713c0.077,0.077 3.42139,0.92092 6.50439,1.07159c6.94833,0.33933 20.57766,1.49516 25.91599,2.19749c2.2,0.28933 5.66115,0.95653 7.73615,1.4882c4.372,1.12 5.47557,0.68613 5.74157,-0.00687c0.29167,-0.76033 1.54589,-10.35991 1.81189,-13.90091c0.27967,-3.71867 -0.03283,-4.2155 -5.3885,-4.90717c-4.84067,-0.62533 -5.44146,-0.47314 -5.71246,-1.55381c-0.40267,-1.60367 0.2104,-9.24236 1.05607,-13.75103c0.464,-2.475 1.1511,-7.23851 1.5321,-10.63018c0.381,-3.39167 1.04632,-7.80572 1.48065,-9.82239c0.43433,-2.01667 0.88351,-4.54474 1.00318,-5.64474c0.11967,-1.1 0.5982,-3.51813 1.05953,-5.35146c0.58833,-2.338 0.80533,-4.13398 0.70833,-5.51131c-0.12567,-1.77967 -0.5132,-2.60922 -1.71087,-3.72655c-0.89167,-0.83167 -2.57924,-1.74898 -4.37024,-2.36465c-2.459,-0.84567 -3.29029,-0.94571 -9.31296,-1.07071c-4.036,-0.084 -7.37052,0.09426 -8.08452,0.31393z" data-paper-data="{&quot;wickUUID&quot;:&quot;b4759991-a148-45ef-9623-445071aa6b35&quot;,&quot;wickType&quot;:&quot;path&quot;}" id="b4759991-a148-45ef-9623-445071aa6b35" fill-rule="evenodd"/><path d="M165.32398,14.58732c-5.847,0.97 -23.858,17.965 -23.858,22.513c0,1.182 5.338,8.547 7.524,10.38c1.777,1.491 4.534,1.702 8.666,0.661c1.446,-0.364 2.739,-0.552 2.874,-0.417c0.134,0.135 -0.145,2.479 -0.622,5.209c-0.477,2.73 -1.279,8.132 -1.783,12.004c-0.504,3.872 -1,7.124 -1.102,7.226c-0.317,0.318 -8.154,1.868 -9.441,1.868c-1.891,0 -3.585,2.332 -4.049,5.573c-0.231,1.614 -0.919,4.914 -1.528,7.334c-1.468,5.83 -1.443,8.826 0.09,10.775c1.163,1.478 1.461,1.545 6.863,1.545c3.106,0 7.773,0.256 10.371,0.569c2.599,0.313 8.434,0.826 12.969,1.139c6.488,0.448 9.437,0.952 13.847,2.364c3.082,0.987 6.125,1.795 6.761,1.795c1.508,0 3.399,-2.111 4.205,-4.693c0.745,-2.388 2.437,-16.5 2.437,-20.323c0,-3.69 -1.697,-5.264 -6.228,-5.781c-5.642,-0.643 -5.49,-0.524 -5.104,-3.994c0.187,-1.677 0.697,-4.106 1.134,-5.397c0.437,-1.291 0.806,-3.667 0.821,-5.28c0.051,-5.625 1.099,-12.094 4.202,-25.93c0.794,-3.54 1.072,-6.162 0.808,-7.627c-1.514,-8.396 -6.831,-11.455 -20.274,-11.665c-4.356,-0.068 -8.668,0 -9.583,0.152zM182.52898,20.98832c6.55,1.946 7.807,4.329 5.864,11.124c-0.641,2.241 -1.169,4.867 -1.172,5.836c-0.004,0.969 -0.401,3.214 -0.882,4.988c-0.48,1.775 -1.16,6.395 -1.511,10.267c-0.35,3.872 -1.008,8.507 -1.463,10.3c-1.214,4.783 -1.758,13.811 -0.895,14.851c0.43,0.517 2.45,0.994 5.271,1.244c2.516,0.223 4.915,0.615 5.332,0.873c0.738,0.456 0.353,5.831 -1.096,15.267c-0.461,3.007 -0.312,2.978 -6.216,1.208c-2.365,-0.709 -7.342,-1.479 -11.734,-1.815c-4.195,-0.321 -10.135,-0.846 -13.2,-1.167c-3.066,-0.321 -7.488,-0.581 -9.827,-0.578c-2.34,0.003 -4.254,-0.061 -4.254,-0.141c0,-0.081 0.409,-1.995 0.908,-4.254c0.499,-2.259 1.065,-5.117 1.257,-6.353c0.41,-2.638 0.95,-2.919 7.902,-4.12c2.98,-0.515 5.074,-1.192 5.504,-1.781c0.382,-0.522 0.875,-2.995 1.096,-5.495c0.558,-6.335 2.569,-19.365 3.596,-23.309c2.236,-8.586 -0.664,-12.597 -5.828,-8.062c-1.247,1.095 -3.192,2.026 -5.076,2.43c-3.506,0.752 -3.834,0.588 -6.454,-3.22l-1.69,-2.456l4.744,-5.205c4.695,-5.151 11.531,-10.452 14.117,-10.948c3.476,-0.667 12.75,-0.362 15.707,0.516z" data-paper-data="{&quot;wickUUID&quot;:&quot;6a6b3355-dea7-48f8-b59a-1556ac0c4247&quot;,&quot;wickType&quot;:&quot;path&quot;}" id="6a6b3355-dea7-48f8-b59a-1556ac0c4247" fill-rule="evenodd"/><path d="M160.33128,128.45684c-3.472,0.994 -10.94983,5.32923 -11.72483,6.77723c-0.46767,0.874 -0.4091,6.43871 0.2349,9.87971l1.05205,2.98679l8.80826,0.14111c9.67867,0.13433 9.84766,0.09915 11.70699,2.21682c1.58733,1.80767 2.09686,3.56425 2.09686,6.65925c0,5.33867 -1.73314,8.65654 -7.44881,14.31154c-4.09767,4.05433 -7.95032,6.8641 -11.62099,8.53677l-2.81902,1.44844l-0.12071,3.84198c-0.00767,2.312 0.31037,3.97155 0.5957,4.20055c0.22933,0.18367 2.16929,0.74204 3.63596,0.86704c15.054,1.28333 35.51574,3.75578 39.07207,4.72111c0.586,0.159 1.6686,-0.65458 1.82593,-1.42891c0.28167,-1.38767 1.2187,-8.8663 1.2187,-9.73363l-0.75953,-1.68673l-8.50302,-0.10799c-6.35233,-0.078 -8.42048,-0.19126 -8.81581,-0.51993c-0.289,-0.24 -0.28873,-0.65564 -0.66006,-1.40597l-0.67014,-0.50601l3.60249,-3.73583c4.87267,-5.098 8.71053,-9.76223 9.7342,-11.76623c0.82133,-1.60833 0.91008,-2.03145 0.91008,-10.78412l-0.00581,-8.97548l-1.6059,-3.34638c-1.089,-2.20367 -2.2465,-3.7924 -3.8525,-5.41073c-2.46567,-2.485 -4.3499,-3.53858 -9.3419,-5.28725c-7.06,-2.47333 -12.42816,-3.07215 -16.54516,-1.89315z" data-paper-data="{&quot;wickUUID&quot;:&quot;e81474ff-a437-425e-8e82-47c4308a1736&quot;,&quot;wickType&quot;:&quot;path&quot;}" id="e81474ff-a437-425e-8e82-47c4308a1736" fill-rule="evenodd"/><path d="M160.7152,122.7698c-1.967,0.443 -4.915,1.484 -6.549,2.312c-4.803,2.434 -10.533,6.704 -10.916,8.135c-0.195,0.727 -0.359,4.838 -0.363,9.135c-0.008,7.513 0.395,9.709 1.987,10.83c0.355,0.25 5.032,0.281 10.394,0.069c9.431,-0.374 9.79,-0.346 11.001,0.865c2.783,2.784 0.906,8.114 -4.861,13.796c-4.235,4.173 -8.905,7.128 -12.418,7.858c-3.24,0.673 -3.745,2.039 -3.756,10.149c-0.011,8.712 0.25,9.028 7.912,9.573c11.557,0.822 34.756,3.662 39.484,4.834c4.254,1.054 6.245,0.749 7.24,-1.11c0.386,-0.722 1.03,-4.085 1.431,-7.474c0.401,-3.388 0.916,-7.266 1.144,-8.618c0.367,-2.177 0.239,-2.62 -1.13,-3.888c-1.833,-1.699 -3.806,-2.161 -9.228,-2.161c-2.218,0 -4.024,-0.198 -4.013,-0.44c0.011,-0.242 1.338,-1.892 2.949,-3.667c1.611,-1.775 3.648,-4.679 4.527,-6.454c1.532,-3.093 1.598,-3.603 1.598,-12.32c0,-10.397 -0.686,-13.499 -4.148,-18.774c-2.001,-3.048 -5.817,-6.519 -9.03,-8.213c-2.376,-1.253 -13.932,-4.637 -16.907,-4.951c-1.524,-0.161 -4.38,0.07 -6.348,0.514zM174.6192,130.2298c8.895,2.697 12.286,5.348 15.312,11.969c1.18,2.582 1.327,3.837 1.338,11.408c0.011,8.236 -0.04,8.595 -1.603,11.254c-0.888,1.511 -4.122,5.312 -7.187,8.447c-3.065,3.136 -5.572,5.811 -5.572,5.946c0,0.568 1.4,2.842 1.994,3.239c0.356,0.237 4.431,0.435 9.058,0.44l8.412,0.009l-0.321,2.2c-0.176,1.21 -0.491,3.867 -0.7,5.906c-0.295,2.877 -0.568,3.633 -1.219,3.383c-1.189,-0.456 -15.767,-2.525 -23.091,-3.276c-8.435,-0.866 -17.68,-1.716 -18.921,-1.74c-0.87,-0.017 -1.026,-0.6 -1.026,-3.825v-3.806l2.163,-0.904c6.902,-2.884 16.87,-12.149 18.896,-17.563c1.566,-4.185 1.577,-8.046 0.033,-11.236c-2.074,-4.283 -3.079,-4.634 -13.284,-4.634h-8.913l-0.621,-3.568c-0.342,-1.963 -0.621,-4.656 -0.621,-5.986c0,-2.184 0.24,-2.581 2.493,-4.125c8.609,-5.897 13.274,-6.603 23.38,-3.538z" data-paper-data="{&quot;wickUUID&quot;:&quot;40bdbad0-5b18-4a35-a928-83bad5211692&quot;,&quot;wickType&quot;:&quot;path&quot;}" id="40bdbad0-5b18-4a35-a928-83bad5211692" fill-rule="evenodd"/><path d="M32.62571,143.77544c-0.27733,0.176 -3.03001,0.72852 -5.96101,1.20919c-2.93067,0.48033 -6.04395,1.11362 -6.61295,1.29529c-1.67667,0.53533 -2.82713,2.26759 -3.06613,4.50659c-0.256,2.40033 0.59266,12.07311 1.49366,16.94678c0.721,3.89933 1.10434,9.22093 1.84834,25.6576c0.27767,6.14167 0.65212,12.36433 0.83145,13.82633c0.17967,1.46167 0.4196,3.03125 0.4196,3.08192c0,0.05067 1.53123,0.50994 2.1619,0.50994c1.551,0 5.3239,-1.39507 9.71157,-3.5914l4.0696,-2.21826l-0.13696,-5.27698c-0.23767,-5.02933 -0.84679,-11.94626 -1.69046,-19.61093c-0.82867,-7.52633 -0.56296,-8.00855 5.16037,-8.71988c4.97333,-0.618 13.30982,-3.27008 16.99615,-5.43041c2.08667,-1.223 3.10877,-3.05856 2.9201,-5.01989c-0.21667,-2.25133 -2.95028,-7.60325 -4.87961,-9.58392c-3.01,-3.09 -8.02725,-5.70911 -13.47092,-7.00211c-2.754,-0.65433 -9.0747,-1.03719 -9.7947,-0.57986zM44.41293,151.95743c1.64467,0.91667 1.95707,3.14562 0.9644,5.52095c-0.69433,1.66167 -2.82671,4.407 -4.92371,6.37433c-2.973,2.78933 -6.11343,4.00881 -10.18876,4.00881l-0.86663,0.22787l-1.66593,-3.56696c-2.882,-6.06567 -3.62777,-8.30639 -2.56377,-10.85306c0.92733,-2.219 1.68498,-2.12974 11.57731,-2.03807c5.256,0.04867 7.14376,0.0348 7.66709,0.32613z" data-paper-data="{&quot;wickUUID&quot;:&quot;32c05c15-53d8-40d4-be4b-6cea183f63ef&quot;,&quot;wickType&quot;:&quot;path&quot;}" id="32c05c15-53d8-40d4-be4b-6cea183f63ef" fill-rule="evenodd"/><path d="M30.54201,139.04209c-0.926,0.426 -2.936,0.801 -4.467,0.833c-4.729,0.101 -10.117,1.835 -12.467,4.014l-2.246,2.081l0.496,9.819c0.273,5.4 1.078,12.47 1.789,15.711c0.842,3.836 1.316,10.593 1.359,19.36c0.035,7.408 0.382,15.362 0.769,17.677c0.549,3.277 0.43,4.52 -0.538,5.612c-1.696,1.914 -0.101,4.91 2.614,4.91c3.022,0 20.001,-7.833 23.528,-10.854c1.445,-1.238 1.53,-2.23 1.017,-11.873c-0.308,-5.787 -0.781,-12.469 -1.051,-14.849l-0.491,-4.327l4.391,-0.941c7.08,-1.519 16.621,-5.868 18.954,-8.64c2.722,-3.236 2.746,-7.316 0.077,-13.048c-2.857,-6.138 -7.462,-10.372 -14.387,-13.231c-6.234,-2.574 -16.143,-3.728 -19.347,-2.254zM44.06801,145.37609c6.802,2.021 11.795,5.702 14.217,10.483c2.733,5.393 2.693,7.136 -0.209,9.202c-3.182,2.266 -12.237,5.237 -17.678,5.8c-5.814,0.602 -6.439,1.745 -5.323,9.729c0.467,3.334 1.093,10.108 1.392,15.054l0.543,8.992l-3.655,1.919c-5.865,3.08 -10.046,4.345 -11.047,3.343c-0.516,-0.515 -1.131,-8.758 -1.498,-20.057c-0.341,-10.551 -1.04,-20.508 -1.553,-22.129c-0.512,-1.62 -1.169,-6.55 -1.46,-10.956c-0.635,-9.613 -0.573,-9.697 8.13,-10.931c3.409,-0.484 6.378,-1.06 6.599,-1.281c0.837,-0.836 7.556,-0.352 11.542,0.832z" data-paper-data="{&quot;wickUUID&quot;:&quot;790e00e6-e27c-4c2f-8437-858379e88a05&quot;,&quot;wickType&quot;:&quot;path&quot;}" id="790e00e6-e27c-4c2f-8437-858379e88a05" fill-rule="evenodd"/><path d="M26.62545,151.3476c-3.422,1.398 -3.397,5.613 0.073,12.66l2.218,4.505l3.429,-0.122c4.03,-0.144 7.887,-2.567 11.47,-7.205c2.882,-3.731 3.491,-6.073 2.185,-8.402c-0.989,-1.764 -1.184,-1.804 -9.398,-1.943c-4.614,-0.078 -9.104,0.15 -9.977,0.507zM39.14045,157.5346c-0.767,1.433 -5.208,5.017 -6.216,5.017c-0.781,0 -2.971,-5.362 -2.417,-5.916c0.216,-0.217 2.403,-0.394 4.859,-0.394c4.123,0 4.413,0.099 3.774,1.293z" data-paper-data="{&quot;wickUUID&quot;:&quot;fe46201a-e1c2-4d26-adc1-edeffa788eff&quot;,&quot;wickType&quot;:&quot;path&quot;}" id="fe46201a-e1c2-4d26-adc1-edeffa788eff" fill-rule="evenodd"/><path d="M50.66568,177.54756c-2.002,0.723 -2.229,1.394 -2.353,6.953c-0.06,2.723 0.041,6.42 0.226,8.215c0.436,4.235 0.543,10.153 0.231,12.695l-0.247,2.009l1.034,1.034c1.625,1.625 3.018,1.363 5.081,-0.955l1.168,-1.313l0.234,-3.708c0.128,-2.039 0.312,-3.834 0.407,-3.989c0.096,-0.155 0.402,-0.281 0.68,-0.281c0.279,0 1.237,-0.267 2.13,-0.594c0.894,-0.326 1.643,-0.594 1.665,-0.594c0.022,0 0.137,1.502 0.256,3.338c0.292,4.502 0.903,5.571 3.18,5.564c1.465,-0.004 3.985,-1.282 4.486,-2.275c0.587,-1.163 0.894,-7.766 0.489,-10.53c-0.176,-1.2 -0.42,-4.265 -0.542,-6.811c-0.204,-4.263 -0.284,-4.736 -1.011,-5.975c-0.792,-1.353 -2.362,-2.308 -3.794,-2.308c-0.955,0 -2.248,0.799 -2.998,1.851c-0.605,0.848 -0.704,1.387 -0.798,4.311c-0.118,3.718 0.122,3.357 -2.52,3.784l-1.143,0.185l0.164,-1.133c0.09,-0.622 0.249,-2.3 0.353,-3.729c0.167,-2.298 0.114,-2.751 -0.462,-3.941c-0.372,-0.768 -1.012,-1.531 -1.496,-1.781c-1.01,-0.522 -3.008,-0.533 -4.42,-0.022z" data-paper-data="{&quot;wickUUID&quot;:&quot;4dd54a64-4b9c-4f54-81cd-00ef7f65e260&quot;,&quot;wickType&quot;:&quot;path&quot;}" id="4dd54a64-4b9c-4f54-81cd-00ef7f65e260" fill-rule="evenodd"/><path d="M76.93325,160.81092c-1.25765,0.85922 -1.91839,2.01866 -2.27386,3.99172c-0.15119,0.83554 -0.56817,3.09845 -0.92642,5.02956c-0.35836,1.93011 -0.7933,5.34047 -0.96752,7.57868c-0.34756,4.47532 -0.6777,6.93464 -1.61179,11.98521c-0.62495,3.38575 -0.98337,9.34386 -0.72017,11.98405c0.13611,1.36839 0.21739,1.4809 1.92932,2.68749c2.19455,1.54603 3.69839,1.86449 5.51067,1.16438c2.60083,-1.00453 3.28399,-2.19672 4.58935,-8.01536l0.44685,-1.99255l3.83262,-0.52114l3.83174,-0.52004l0.32332,1.15679c0.48386,1.73431 1.06616,2.5324 2.25743,3.09288c1.60499,0.7548 3.12832,0.51243 4.51636,-0.72099c2.49832,-2.21974 2.66625,-4.5307 0.688,-9.48024c-0.72262,-1.80669 -2.05725,-5.21831 -2.9652,-7.58157c-2.1397,-5.57023 -6.89584,-14.48624 -9.30771,-17.45077c-2.70217,-3.3209 -6.3839,-4.28145 -9.15299,-2.3881zM85.11738,182.33143c0.01736,0.15201 0.59556,1.20522 1.28555,2.33826c0.68899,1.13315 1.3885,2.45534 1.55451,2.93963l0.30072,0.87956l-2.0934,0.23902c-2.01789,0.2304 -2.09115,0.21461 -2.02213,-0.44145c0.06172,-0.5878 0.0593,-6.12729 -0.00287,-6.67175c-0.01225,-0.1073 0.1953,-0.0525 0.46175,0.1214c0.26645,0.1739 0.4984,0.44232 0.51587,0.59533z" data-paper-data="{&quot;wickUUID&quot;:&quot;4c3ccd47-2b97-4d4d-a32a-9026085f587f&quot;,&quot;wickType&quot;:&quot;path&quot;}" id="4c3ccd47-2b97-4d4d-a32a-9026085f587f" fill-rule="evenodd"/><path d="M110.16311,146.68048c-2.516,0.8 -5.649,2.652 -7.513,4.441c-2.176,2.087 -3.209,3.685 -3.481,5.383c-0.385,2.408 1.024,7.371 2.905,10.239c0.883,1.344 2.977,3.016 8.224,6.563c1.543,1.043 3.61,2.648 4.592,3.566c1.76,1.644 1.787,1.695 1.814,3.329c0.018,1.123 -0.1,1.708 -0.366,1.81c-0.557,0.214 -2.74,-0.248 -6.137,-1.3c-3.712,-1.149 -4.346,-1.146 -5.683,0.027c-1.387,1.219 -1.72,1.919 -2.5,5.268c-0.65,2.79 -0.635,4.446 0.051,5.819c0.525,1.051 2.971,4.122 4.214,5.293c2.804,2.638 7.955,4.217 13.675,4.191c2.971,-0.014 3.566,-0.117 6.599,-1.138c3.73,-1.255 5.189,-2.316 7.609,-5.535c1.628,-2.166 2.43,-4.684 2.833,-8.896c0.285,-2.985 0.268,-3.182 -0.413,-4.671c-1.308,-2.86 -3.695,-5.655 -5.794,-6.785c-0.734,-0.396 -1.536,-0.84 -1.78,-0.988c-0.245,-0.148 -1.18,-0.608 -2.078,-1.023c-0.898,-0.415 -2.427,-1.427 -3.397,-2.248c-0.991,-0.84 -3.389,-2.308 -5.475,-3.352c-3.185,-1.595 -4.091,-2.22 -6.372,-4.398c-2.414,-2.305 -2.641,-2.615 -2.454,-3.359c0.295,-1.175 2.156,-1.953 4.692,-1.962c2.41,-0.008 3.31,-0.32 4.011,-1.39c0.818,-1.248 0.603,-3.247 -0.607,-5.649c-1.141,-2.263 -1.67,-2.823 -3.132,-3.314c-1.273,-0.428 -2.523,-0.403 -4.037,0.079z" data-paper-data="{&quot;wickUUID&quot;:&quot;6b693522-5ca6-4f9a-85ed-8c0d5890cecd&quot;,&quot;wickType&quot;:&quot;path&quot;}" id="6b693522-5ca6-4f9a-85ed-8c0d5890cecd" fill-rule="evenodd"/><path d="M132.42498,132.80941c-0.49,0.075 -2.086,0.395 -3.548,0.71c-1.462,0.315 -3.301,0.573 -4.088,0.573c-1.267,0 -1.584,0.142 -2.782,1.246c-0.744,0.686 -1.542,1.614 -1.775,2.063c-0.543,1.051 -0.518,2.757 0.063,4.26c0.252,0.653 0.445,1.517 0.43,1.921c-0.039,1.008 1.361,8.79 1.902,10.575c0.247,0.812 0.445,2.636 0.45,4.127c0.01,3.438 0.581,5.879 1.632,6.976c1.429,1.492 2.095,1.609 6.003,1.054c1.922,-0.273 5.093,-0.69 7.048,-0.928c4.219,-0.513 5.553,-1.176 6.111,-3.038c0.297,-0.992 0.254,-1.346 -0.336,-2.75c-1.467,-3.488 -2.793,-4.416 -6.643,-4.649c-1.921,-0.116 -2.75,-0.022 -4.235,0.482c-2.77,0.94 -2.873,0.906 -3.5,-1.164c-0.656,-2.166 -0.53,-2.348 1.828,-2.633c0.955,-0.116 2.031,-0.371 2.39,-0.568c1.685,-0.92 2.11,-3.257 0.857,-4.713c-0.663,-0.771 -0.905,-0.841 -3.231,-0.936l-2.515,-0.104l-0.179,-1.084c-0.307,-1.853 -0.331,-1.826 1.669,-1.827c3.966,-0.004 5.829,-1.251 6.653,-4.454c0.556,-2.158 0.424,-3.154 -0.57,-4.297c-0.694,-0.799 -1.98,-1.097 -3.634,-0.842z" data-paper-data="{&quot;wickUUID&quot;:&quot;aa0032b3-cab7-4312-9767-b842b0af7bf4&quot;,&quot;wickType&quot;:&quot;path&quot;}" id="aa0032b3-cab7-4312-9767-b842b0af7bf4" fill-rule="evenodd"/><path d="M32.62571,33.77544c-0.27733,0.176 -3.03001,0.72852 -5.96101,1.20919c-2.93067,0.48033 -6.04395,1.11362 -6.61295,1.29529c-1.67667,0.53533 -2.82713,2.26759 -3.06613,4.50659c-0.256,2.40033 0.59266,12.07311 1.49366,16.94678c0.721,3.89933 1.10434,9.22093 1.84834,25.6576c0.27767,6.14167 0.65212,12.36433 0.83145,13.82633c0.17967,1.46167 0.4196,3.03125 0.4196,3.08192c0,0.05067 1.53123,0.50994 2.1619,0.50994c1.551,0 5.3239,-1.39507 9.71157,-3.5914l4.0696,-2.21826l-0.13696,-5.27698c-0.23767,-5.02933 -0.84679,-11.94626 -1.69046,-19.61093c-0.82867,-7.52633 -0.56296,-8.00855 5.16037,-8.71988c4.97333,-0.618 13.30982,-3.27008 16.99615,-5.43041c2.08667,-1.223 3.10877,-3.05856 2.9201,-5.01989c-0.21667,-2.25133 -2.95028,-7.60325 -4.87961,-9.58392c-3.01,-3.09 -8.02725,-5.70911 -13.47092,-7.00211c-2.754,-0.65433 -9.0747,-1.03719 -9.7947,-0.57986zM44.41293,41.95743c1.64467,0.91667 1.95707,3.14562 0.9644,5.52095c-0.69433,1.66167 -2.82671,4.407 -4.92371,6.37433c-2.973,2.78933 -6.11343,4.00881 -10.18876,4.00881l-0.86663,0.22787l-1.66593,-3.56696c-2.882,-6.06567 -3.62777,-8.30639 -2.56377,-10.85306c0.92733,-2.219 1.68498,-2.12974 11.57731,-2.03807c5.256,0.04867 7.14376,0.0348 7.66709,0.32613z" data-paper-data="{&quot;wickUUID&quot;:&quot;a8f4562d-4698-4fd5-af33-377c4ffe1bf4&quot;,&quot;wickType&quot;:&quot;path&quot;}" id="a8f4562d-4698-4fd5-af33-377c4ffe1bf4" fill-rule="evenodd"/><path d="M30.54201,29.04209c-0.926,0.426 -2.936,0.801 -4.467,0.833c-4.729,0.101 -10.117,1.835 -12.467,4.014l-2.246,2.081l0.496,9.819c0.273,5.4 1.078,12.47 1.789,15.711c0.842,3.836 1.316,10.593 1.359,19.36c0.035,7.408 0.382,15.362 0.769,17.677c0.549,3.277 0.43,4.52 -0.538,5.612c-1.696,1.914 -0.101,4.91 2.614,4.91c3.022,0 20.001,-7.833 23.528,-10.854c1.445,-1.238 1.53,-2.23 1.017,-11.873c-0.308,-5.787 -0.781,-12.469 -1.051,-14.849l-0.491,-4.327l4.391,-0.941c7.08,-1.519 16.621,-5.868 18.954,-8.64c2.722,-3.236 2.746,-7.316 0.077,-13.048c-2.857,-6.138 -7.462,-10.372 -14.387,-13.231c-6.234,-2.574 -16.143,-3.728 -19.347,-2.254zM44.06801,35.37609c6.802,2.021 11.795,5.702 14.217,10.483c2.733,5.393 2.693,7.136 -0.209,9.202c-3.182,2.266 -12.237,5.237 -17.678,5.8c-5.814,0.602 -6.439,1.745 -5.323,9.729c0.467,3.334 1.093,10.108 1.392,15.054l0.543,8.992l-3.655,1.919c-5.865,3.08 -10.046,4.345 -11.047,3.343c-0.516,-0.515 -1.131,-8.758 -1.498,-20.057c-0.341,-10.551 -1.04,-20.508 -1.553,-22.129c-0.512,-1.62 -1.169,-6.55 -1.46,-10.956c-0.635,-9.613 -0.573,-9.697 8.13,-10.931c3.409,-0.484 6.378,-1.06 6.599,-1.281c0.837,-0.836 7.556,-0.352 11.542,0.832z" data-paper-data="{&quot;wickUUID&quot;:&quot;2ee36728-48b0-473b-86bc-43f753a0f5d2&quot;,&quot;wickType&quot;:&quot;path&quot;}" id="2ee36728-48b0-473b-86bc-43f753a0f5d2" fill-rule="evenodd"/><path d="M26.62545,41.3476c-3.422,1.398 -3.397,5.613 0.073,12.66l2.218,4.505l3.429,-0.122c4.03,-0.144 7.887,-2.567 11.47,-7.205c2.882,-3.731 3.491,-6.073 2.185,-8.402c-0.989,-1.764 -1.184,-1.804 -9.398,-1.943c-4.614,-0.078 -9.104,0.15 -9.977,0.507zM39.14045,47.5346c-0.767,1.433 -5.208,5.017 -6.216,5.017c-0.781,0 -2.971,-5.362 -2.417,-5.916c0.216,-0.217 2.403,-0.394 4.859,-0.394c4.123,0 4.413,0.099 3.774,1.293z" data-paper-data="{&quot;wickUUID&quot;:&quot;5e39e649-0a61-4903-b55e-e8120805a4de&quot;,&quot;wickType&quot;:&quot;path&quot;}" id="5e39e649-0a61-4903-b55e-e8120805a4de" fill-rule="evenodd"/><path d="M50.66568,67.54756c-2.002,0.723 -2.229,1.394 -2.353,6.953c-0.06,2.723 0.041,6.42 0.226,8.215c0.436,4.235 0.543,10.153 0.231,12.695l-0.247,2.009l1.034,1.034c1.625,1.625 3.018,1.363 5.081,-0.955l1.168,-1.313l0.234,-3.708c0.128,-2.039 0.312,-3.834 0.407,-3.989c0.096,-0.155 0.402,-0.281 0.68,-0.281c0.279,0 1.237,-0.267 2.13,-0.594c0.894,-0.326 1.643,-0.594 1.665,-0.594c0.022,0 0.137,1.502 0.256,3.338c0.292,4.502 0.903,5.571 3.18,5.564c1.465,-0.004 3.985,-1.282 4.486,-2.275c0.587,-1.163 0.894,-7.766 0.489,-10.53c-0.176,-1.2 -0.42,-4.265 -0.542,-6.811c-0.204,-4.263 -0.284,-4.736 -1.011,-5.975c-0.792,-1.353 -2.362,-2.308 -3.794,-2.308c-0.955,0 -2.248,0.799 -2.998,1.851c-0.605,0.848 -0.704,1.387 -0.798,4.311c-0.118,3.718 0.122,3.357 -2.52,3.784l-1.143,0.185l0.164,-1.133c0.09,-0.622 0.249,-2.3 0.353,-3.729c0.167,-2.298 0.114,-2.751 -0.462,-3.941c-0.372,-0.768 -1.012,-1.531 -1.496,-1.781c-1.01,-0.522 -3.008,-0.533 -4.42,-0.022z" data-paper-data="{&quot;wickUUID&quot;:&quot;0f6f65e6-798d-4252-99fe-50c8632382be&quot;,&quot;wickType&quot;:&quot;path&quot;}" id="0f6f65e6-798d-4252-99fe-50c8632382be" fill-rule="evenodd"/><path d="M76.93325,50.81092c-1.25765,0.85922 -1.91839,2.01866 -2.27386,3.99172c-0.15119,0.83554 -0.56817,3.09845 -0.92642,5.02956c-0.35836,1.93011 -0.7933,5.34047 -0.96752,7.57868c-0.34756,4.47532 -0.6777,6.93464 -1.61179,11.98521c-0.62495,3.38575 -0.98337,9.34386 -0.72017,11.98405c0.13611,1.36839 0.21739,1.4809 1.92932,2.68749c2.19455,1.54603 3.69839,1.86449 5.51067,1.16438c2.60083,-1.00453 3.28399,-2.19672 4.58935,-8.01536l0.44685,-1.99255l3.83262,-0.52114l3.83174,-0.52004l0.32332,1.15679c0.48386,1.73431 1.06616,2.5324 2.25743,3.09288c1.60499,0.7548 3.12832,0.51243 4.51636,-0.72099c2.49832,-2.21974 2.66625,-4.5307 0.688,-9.48024c-0.72262,-1.80669 -2.05725,-5.21831 -2.9652,-7.58157c-2.1397,-5.57023 -6.89584,-14.48624 -9.30771,-17.45077c-2.70217,-3.3209 -6.3839,-4.28145 -9.15299,-2.3881zM85.11738,72.33143c0.01736,0.15201 0.59556,1.20522 1.28555,2.33826c0.68899,1.13315 1.3885,2.45534 1.55451,2.93963l0.30072,0.87956l-2.0934,0.23902c-2.01789,0.2304 -2.09115,0.21461 -2.02213,-0.44145c0.06172,-0.5878 0.0593,-6.12729 -0.00287,-6.67175c-0.01225,-0.1073 0.1953,-0.0525 0.46175,0.1214c0.26645,0.1739 0.4984,0.44232 0.51587,0.59533z" data-paper-data="{&quot;wickUUID&quot;:&quot;7467c50f-c553-45cf-85be-7d71c677b3d5&quot;,&quot;wickType&quot;:&quot;path&quot;}" id="7467c50f-c553-45cf-85be-7d71c677b3d5" fill-rule="evenodd"/><path d="M110.16311,36.68048c-2.516,0.8 -5.649,2.652 -7.513,4.441c-2.176,2.087 -3.209,3.685 -3.481,5.383c-0.385,2.408 1.024,7.371 2.905,10.239c0.883,1.344 2.977,3.016 8.224,6.563c1.543,1.043 3.61,2.648 4.592,3.566c1.76,1.644 1.787,1.695 1.814,3.329c0.018,1.123 -0.1,1.708 -0.366,1.81c-0.557,0.214 -2.74,-0.248 -6.137,-1.3c-3.712,-1.149 -4.346,-1.146 -5.683,0.027c-1.387,1.219 -1.72,1.919 -2.5,5.268c-0.65,2.79 -0.635,4.446 0.051,5.819c0.525,1.051 2.971,4.122 4.214,5.293c2.804,2.638 7.955,4.217 13.675,4.191c2.971,-0.014 3.566,-0.117 6.599,-1.138c3.73,-1.255 5.189,-2.316 7.609,-5.535c1.628,-2.166 2.43,-4.684 2.833,-8.896c0.285,-2.985 0.268,-3.182 -0.413,-4.671c-1.308,-2.86 -3.695,-5.655 -5.794,-6.785c-0.734,-0.396 -1.536,-0.84 -1.78,-0.988c-0.245,-0.148 -1.18,-0.608 -2.078,-1.023c-0.898,-0.415 -2.427,-1.427 -3.397,-2.248c-0.991,-0.84 -3.389,-2.308 -5.475,-3.352c-3.185,-1.595 -4.091,-2.22 -6.372,-4.398c-2.414,-2.305 -2.641,-2.615 -2.454,-3.359c0.295,-1.175 2.156,-1.953 4.692,-1.962c2.41,-0.008 3.31,-0.32 4.011,-1.39c0.818,-1.248 0.603,-3.247 -0.607,-5.649c-1.141,-2.263 -1.67,-2.823 -3.132,-3.314c-1.273,-0.428 -2.523,-0.403 -4.037,0.079z" data-paper-data="{&quot;wickUUID&quot;:&quot;9ff56efb-4418-44d7-b7e9-63abfac7d04c&quot;,&quot;wickType&quot;:&quot;path&quot;}" id="9ff56efb-4418-44d7-b7e9-63abfac7d04c" fill-rule="evenodd"/><path d="M132.42498,22.80941c-0.49,0.075 -2.086,0.395 -3.548,0.71c-1.462,0.315 -3.301,0.573 -4.088,0.573c-1.267,0 -1.584,0.142 -2.782,1.246c-0.744,0.686 -1.542,1.614 -1.775,2.063c-0.543,1.051 -0.518,2.757 0.063,4.26c0.252,0.653 0.445,1.517 0.43,1.921c-0.039,1.008 1.361,8.79 1.902,10.575c0.247,0.812 0.445,2.636 0.45,4.127c0.01,3.438 0.581,5.879 1.632,6.976c1.429,1.492 2.095,1.609 6.003,1.054c1.922,-0.273 5.093,-0.69 7.048,-0.928c4.219,-0.513 5.553,-1.176 6.111,-3.038c0.297,-0.992 0.254,-1.346 -0.336,-2.75c-1.467,-3.488 -2.793,-4.416 -6.643,-4.649c-1.921,-0.116 -2.75,-0.022 -4.235,0.482c-2.77,0.94 -2.873,0.906 -3.5,-1.164c-0.656,-2.166 -0.53,-2.348 1.828,-2.633c0.955,-0.116 2.031,-0.371 2.39,-0.568c1.685,-0.92 2.11,-3.257 0.857,-4.713c-0.663,-0.771 -0.905,-0.841 -3.231,-0.936l-2.515,-0.104l-0.179,-1.084c-0.307,-1.853 -0.331,-1.826 1.669,-1.827c3.966,-0.004 5.829,-1.251 6.653,-4.454c0.556,-2.158 0.424,-3.154 -0.57,-4.297c-0.694,-0.799 -1.98,-1.097 -3.634,-0.842z" data-paper-data="{&quot;wickUUID&quot;:&quot;5dbd539d-e758-42a0-9208-345a3b2f7ac3&quot;,&quot;wickType&quot;:&quot;path&quot;}" id="5dbd539d-e758-42a0-9208-345a3b2f7ac3" fill-rule="evenodd"/><path d="M32.62571,263.77544c-0.27733,0.176 -3.03001,0.72852 -5.96101,1.20919c-2.93067,0.48033 -6.04395,1.11362 -6.61295,1.29529c-1.67667,0.53533 -2.82713,2.26759 -3.06613,4.50659c-0.256,2.40033 0.59266,12.07311 1.49366,16.94678c0.721,3.89933 1.10434,9.22093 1.84834,25.6576c0.27767,6.14167 0.65212,12.36433 0.83145,13.82633c0.17967,1.46167 0.4196,3.03125 0.4196,3.08192c0,0.05067 1.53123,0.50994 2.1619,0.50994c1.551,0 5.3239,-1.39507 9.71157,-3.5914l4.0696,-2.21826l-0.13696,-5.27698c-0.23767,-5.02933 -0.84679,-11.94626 -1.69046,-19.61093c-0.82867,-7.52633 -0.56296,-8.00855 5.16037,-8.71988c4.97333,-0.618 13.30982,-3.27008 16.99615,-5.43041c2.08667,-1.223 3.10877,-3.05856 2.9201,-5.01989c-0.21667,-2.25133 -2.95028,-7.60325 -4.87961,-9.58392c-3.01,-3.09 -8.02725,-5.70911 -13.47092,-7.00211c-2.754,-0.65433 -9.0747,-1.03719 -9.7947,-0.57986zM44.41293,271.95743c1.64467,0.91667 1.95707,3.14562 0.9644,5.52095c-0.69433,1.66167 -2.82671,4.407 -4.92371,6.37433c-2.973,2.78933 -6.11343,4.00881 -10.18876,4.00881l-0.86663,0.22787l-1.66593,-3.56696c-2.882,-6.06567 -3.62777,-8.30639 -2.56377,-10.85306c0.92733,-2.219 1.68498,-2.12974 11.57731,-2.03807c5.256,0.04867 7.14376,0.0348 7.66709,0.32613z" data-paper-data="{&quot;wickUUID&quot;:&quot;3a11ad28-2f46-44f2-a4ca-7524ad1e85f1&quot;,&quot;wickType&quot;:&quot;path&quot;}" id="3a11ad28-2f46-44f2-a4ca-7524ad1e85f1" fill-rule="evenodd"/><path d="M30.54201,259.04209c-0.926,0.426 -2.936,0.801 -4.467,0.833c-4.729,0.101 -10.117,1.835 -12.467,4.014l-2.246,2.081l0.496,9.819c0.273,5.4 1.078,12.47 1.789,15.711c0.842,3.836 1.316,10.593 1.359,19.36c0.035,7.408 0.382,15.362 0.769,17.677c0.549,3.277 0.43,4.52 -0.538,5.612c-1.696,1.914 -0.101,4.91 2.614,4.91c3.022,0 20.001,-7.833 23.528,-10.854c1.445,-1.238 1.53,-2.23 1.017,-11.873c-0.308,-5.787 -0.781,-12.469 -1.051,-14.849l-0.491,-4.327l4.391,-0.941c7.08,-1.519 16.621,-5.868 18.954,-8.64c2.722,-3.236 2.746,-7.316 0.077,-13.048c-2.857,-6.138 -7.462,-10.372 -14.387,-13.231c-6.234,-2.574 -16.143,-3.728 -19.347,-2.254zM44.06801,265.37609c6.802,2.021 11.795,5.702 14.217,10.483c2.733,5.393 2.693,7.136 -0.209,9.202c-3.182,2.266 -12.237,5.237 -17.678,5.8c-5.814,0.602 -6.439,1.745 -5.323,9.729c0.467,3.334 1.093,10.108 1.392,15.054l0.543,8.992l-3.655,1.919c-5.865,3.08 -10.046,4.345 -11.047,3.343c-0.516,-0.515 -1.131,-8.758 -1.498,-20.057c-0.341,-10.551 -1.04,-20.508 -1.553,-22.129c-0.512,-1.62 -1.169,-6.55 -1.46,-10.956c-0.635,-9.613 -0.573,-9.697 8.13,-10.931c3.409,-0.484 6.378,-1.06 6.599,-1.281c0.837,-0.836 7.556,-0.352 11.542,0.832z" data-paper-data="{&quot;wickUUID&quot;:&quot;3e800190-4a6e-4417-8aeb-56d14618bc7d&quot;,&quot;wickType&quot;:&quot;path&quot;}" id="3e800190-4a6e-4417-8aeb-56d14618bc7d" fill-rule="evenodd"/><path d="M26.62545,271.3476c-3.422,1.398 -3.397,5.613 0.073,12.66l2.218,4.505l3.429,-0.122c4.03,-0.144 7.887,-2.567 11.47,-7.205c2.882,-3.731 3.491,-6.073 2.185,-8.402c-0.989,-1.764 -1.184,-1.804 -9.398,-1.943c-4.614,-0.078 -9.104,0.15 -9.977,0.507zM39.14045,277.5346c-0.767,1.433 -5.208,5.017 -6.216,5.017c-0.781,0 -2.971,-5.362 -2.417,-5.916c0.216,-0.217 2.403,-0.394 4.859,-0.394c4.123,0 4.413,0.099 3.774,1.293z" data-paper-data="{&quot;wickUUID&quot;:&quot;347a087c-f3f3-477b-8cad-227e32c3c001&quot;,&quot;wickType&quot;:&quot;path&quot;}" id="347a087c-f3f3-477b-8cad-227e32c3c001" fill-rule="evenodd"/><path d="M50.66568,297.54756c-2.002,0.723 -2.229,1.394 -2.353,6.953c-0.06,2.723 0.041,6.42 0.226,8.215c0.436,4.235 0.543,10.153 0.231,12.695l-0.247,2.009l1.034,1.034c1.625,1.625 3.018,1.363 5.081,-0.955l1.168,-1.313l0.234,-3.708c0.128,-2.039 0.312,-3.834 0.407,-3.989c0.096,-0.155 0.402,-0.281 0.68,-0.281c0.279,0 1.237,-0.267 2.13,-0.594c0.894,-0.326 1.643,-0.594 1.665,-0.594c0.022,0 0.137,1.502 0.256,3.338c0.292,4.502 0.903,5.571 3.18,5.564c1.465,-0.004 3.985,-1.282 4.486,-2.275c0.587,-1.163 0.894,-7.766 0.489,-10.53c-0.176,-1.2 -0.42,-4.265 -0.542,-6.811c-0.204,-4.263 -0.284,-4.736 -1.011,-5.975c-0.792,-1.353 -2.362,-2.308 -3.794,-2.308c-0.955,0 -2.248,0.799 -2.998,1.851c-0.605,0.848 -0.704,1.387 -0.798,4.311c-0.118,3.718 0.122,3.357 -2.52,3.784l-1.143,0.185l0.164,-1.133c0.09,-0.622 0.249,-2.3 0.353,-3.729c0.167,-2.298 0.114,-2.751 -0.462,-3.941c-0.372,-0.768 -1.012,-1.531 -1.496,-1.781c-1.01,-0.522 -3.008,-0.533 -4.42,-0.022z" data-paper-data="{&quot;wickUUID&quot;:&quot;75e2cea1-cf8b-48f8-870e-a8c036705b01&quot;,&quot;wickType&quot;:&quot;path&quot;}" id="75e2cea1-cf8b-48f8-870e-a8c036705b01" fill-rule="evenodd"/><path d="M76.93325,280.81092c-1.25765,0.85922 -1.91839,2.01866 -2.27386,3.99172c-0.15119,0.83554 -0.56817,3.09845 -0.92642,5.02956c-0.35836,1.93011 -0.7933,5.34047 -0.96752,7.57868c-0.34756,4.47532 -0.6777,6.93464 -1.61179,11.98521c-0.62495,3.38575 -0.98337,9.34386 -0.72017,11.98405c0.13611,1.36839 0.21739,1.4809 1.92932,2.68749c2.19455,1.54603 3.69839,1.86449 5.51067,1.16438c2.60083,-1.00453 3.28399,-2.19672 4.58935,-8.01536l0.44685,-1.99255l3.83262,-0.52114l3.83174,-0.52004l0.32332,1.15679c0.48386,1.73431 1.06616,2.5324 2.25743,3.09288c1.60499,0.7548 3.12832,0.51243 4.51636,-0.72099c2.49832,-2.21974 2.66625,-4.5307 0.688,-9.48024c-0.72262,-1.80669 -2.05725,-5.21831 -2.9652,-7.58157c-2.1397,-5.57023 -6.89584,-14.48624 -9.30771,-17.45077c-2.70217,-3.3209 -6.3839,-4.28145 -9.15299,-2.3881zM85.11738,302.33143c0.01736,0.15201 0.59556,1.20522 1.28555,2.33826c0.68899,1.13315 1.3885,2.45534 1.55451,2.93963l0.30072,0.87956l-2.0934,0.23902c-2.01789,0.2304 -2.09115,0.21461 -2.02213,-0.44145c0.06172,-0.5878 0.0593,-6.12729 -0.00287,-6.67175c-0.01225,-0.1073 0.1953,-0.0525 0.46175,0.1214c0.26645,0.1739 0.4984,0.44232 0.51587,0.59533z" data-paper-data="{&quot;wickUUID&quot;:&quot;5c4eeaef-918b-403c-9183-0ccbbcee15e4&quot;,&quot;wickType&quot;:&quot;path&quot;}" id="5c4eeaef-918b-403c-9183-0ccbbcee15e4" fill-rule="evenodd"/><path d="M110.16311,266.68048c-2.516,0.8 -5.649,2.652 -7.513,4.441c-2.176,2.087 -3.209,3.685 -3.481,5.383c-0.385,2.408 1.024,7.371 2.905,10.239c0.883,1.344 2.977,3.016 8.224,6.563c1.543,1.043 3.61,2.648 4.592,3.566c1.76,1.644 1.787,1.695 1.814,3.329c0.018,1.123 -0.1,1.708 -0.366,1.81c-0.557,0.214 -2.74,-0.248 -6.137,-1.3c-3.712,-1.149 -4.346,-1.146 -5.683,0.027c-1.387,1.219 -1.72,1.919 -2.5,5.268c-0.65,2.79 -0.635,4.446 0.051,5.819c0.525,1.051 2.971,4.122 4.214,5.293c2.804,2.638 7.955,4.217 13.675,4.191c2.971,-0.014 3.566,-0.117 6.599,-1.138c3.73,-1.255 5.189,-2.316 7.609,-5.535c1.628,-2.166 2.43,-4.684 2.833,-8.896c0.285,-2.985 0.268,-3.182 -0.413,-4.671c-1.308,-2.86 -3.695,-5.655 -5.794,-6.785c-0.734,-0.396 -1.536,-0.84 -1.78,-0.988c-0.245,-0.148 -1.18,-0.608 -2.078,-1.023c-0.898,-0.415 -2.427,-1.427 -3.397,-2.248c-0.991,-0.84 -3.389,-2.308 -5.475,-3.352c-3.185,-1.595 -4.091,-2.22 -6.372,-4.398c-2.414,-2.305 -2.641,-2.615 -2.454,-3.359c0.295,-1.175 2.156,-1.953 4.692,-1.962c2.41,-0.008 3.31,-0.32 4.011,-1.39c0.818,-1.248 0.603,-3.247 -0.607,-5.649c-1.141,-2.263 -1.67,-2.823 -3.132,-3.314c-1.273,-0.428 -2.523,-0.403 -4.037,0.079z" data-paper-data="{&quot;wickUUID&quot;:&quot;03f64464-9159-4a72-b37b-addc1ec4858c&quot;,&quot;wickType&quot;:&quot;path&quot;}" id="03f64464-9159-4a72-b37b-addc1ec4858c" fill-rule="evenodd"/><path d="M132.42498,252.80941c-0.49,0.075 -2.086,0.395 -3.548,0.71c-1.462,0.315 -3.301,0.573 -4.088,0.573c-1.267,0 -1.584,0.142 -2.782,1.246c-0.744,0.686 -1.542,1.614 -1.775,2.063c-0.543,1.051 -0.518,2.757 0.063,4.26c0.252,0.653 0.445,1.517 0.43,1.921c-0.039,1.008 1.361,8.79 1.902,10.575c0.247,0.812 0.445,2.636 0.45,4.127c0.01,3.438 0.581,5.879 1.632,6.976c1.429,1.492 2.095,1.609 6.003,1.054c1.922,-0.273 5.093,-0.69 7.048,-0.928c4.219,-0.513 5.553,-1.176 6.111,-3.038c0.297,-0.992 0.254,-1.346 -0.336,-2.75c-1.467,-3.488 -2.793,-4.416 -6.643,-4.649c-1.921,-0.116 -2.75,-0.022 -4.235,0.482c-2.77,0.94 -2.873,0.906 -3.5,-1.164c-0.656,-2.166 -0.53,-2.348 1.828,-2.633c0.955,-0.116 2.031,-0.371 2.39,-0.568c1.685,-0.92 2.11,-3.257 0.857,-4.713c-0.663,-0.771 -0.905,-0.841 -3.231,-0.936l-2.515,-0.104l-0.179,-1.084c-0.307,-1.853 -0.331,-1.826 1.669,-1.827c3.966,-0.004 5.829,-1.251 6.653,-4.454c0.556,-2.158 0.424,-3.154 -0.57,-4.297c-0.694,-0.799 -1.98,-1.097 -3.634,-0.842z" data-paper-data="{&quot;wickUUID&quot;:&quot;9852f6f5-7b7c-4e10-944a-25c354b40758&quot;,&quot;wickType&quot;:&quot;path&quot;}" id="9852f6f5-7b7c-4e10-944a-25c354b40758" fill-rule="evenodd"/><path d="M145.65504,235.57478c-4.04227,1.06509 -5.43355,1.79553 -5.768,3.0251c-0.14253,0.52343 -0.055,3.03188 0.19457,5.57366c0.24957,2.54178 0.5266,7.18493 0.6153,10.31926c0.17736,6.28876 0.46231,7.29775 2.24137,7.94802c0.50545,0.18449 3.43534,0.34697 6.51148,0.36145c5.19824,0.02417 5.80587,0.10317 8.63561,1.12857c3.02663,1.0965 4.69468,2.05911 4.76249,2.74979c0.06889,0.70163 -1.73846,3.55991 -3.11985,4.93347c-1.95815,1.94666 -3.28692,2.43382 -7.41356,2.72144c-3.22562,0.22326 -3.61187,0.32148 -4.22695,1.06715c-0.83058,1.00698 -0.70894,3.14633 0.22765,3.99688c0.63877,0.58036 3.65471,1.4247 4.71461,1.32063c0.98427,-0.09664 4.39149,1.22273 5.46811,2.11781c1.38402,1.15026 1.43087,2.04698 0.30154,5.79326c-1.24244,4.11912 -1.80737,4.81264 -4.10831,5.03856c-2.38553,0.23422 -5.53615,-0.02716 -8.23123,-0.68395c-1.96106,-0.47766 -2.29202,-0.47129 -3.18394,0.06443c-0.79221,0.47669 -1.08476,1.03797 -1.43942,2.7679c-1.82478,8.90292 -2.70715,12.54457 -3.92277,16.1898c-0.76603,2.29885 -1.36702,4.44685 -1.33487,4.77428c0.13455,1.37041 1.78514,2.24733 6.16992,3.2788c5.12935,1.20555 6.8674,1.1414 17.86443,-0.66583c8.45674,-1.38901 12.36975,-2.67552 17.10238,-5.62308c4.04797,-2.52162 5.81807,-3.97857 7.87155,-6.47919c1.7582,-2.14105 3.27052,-5.93699 3.42765,-8.60411c0.19108,-3.23214 -2.44553,-11.51112 -4.65035,-14.60448l-0.7844,-1.10162l2.78715,-3.34837c2.72791,-3.27624 2.8041,-3.42139 3.57452,-6.83199c0.43181,-1.91637 0.82625,-4.14155 0.87496,-4.94516c0.15586,-2.56752 -1.74127,-7.83836 -4.25386,-11.81487c-2.44859,-3.87729 -8.08137,-11.31547 -9.14827,-12.08088c-1.21835,-0.87514 -13.42206,-6.76282 -16.49886,-7.9609c-4.70861,-1.83266 -9.42507,-1.96442 -15.26065,-0.42583zM156.86157,240.83389c2.23109,0.65914 5.3885,2.06434 13.29473,5.91621l3.96057,1.93022l2.40084,3.31929c4.35759,6.02503 7.11156,10.6792 7.83205,13.23804c0.64436,2.28497 0.64343,2.52118 -0.02393,5.39515c-0.38318,1.65436 -0.98811,3.45509 -1.34422,4.00351c-0.7263,1.11732 -3.85927,4.26955 -5.00683,5.03635c-1.86505,1.24721 -1.68989,4.21832 0.38146,6.44356c0.55952,0.60221 1.39515,1.76512 1.85667,2.58696c1.10881,1.97008 3.08027,8.68357 2.91001,9.90706c-0.27681,1.99058 -1.49196,4.433 -2.98056,5.99393c-2.09362,2.19408 -7.45545,5.60032 -10.68479,6.78856c-2.8007,1.0306 -11.66861,2.6529 -18.19588,3.32795c-3.71617,0.38497 -7.00918,0.06522 -7.4026,-0.71808c-0.10609,-0.21064 0.13889,-1.43042 0.54359,-2.7121c0.40479,-1.28068 1.19219,-4.44677 1.74988,-7.03566c1.16907,-5.42922 0.48638,-4.93213 6.53043,-4.75689c3.82921,0.11136 6.02061,-0.29874 7.48709,-1.3993c1.69465,-1.27369 3.17652,-3.96739 4.3432,-7.89619c1.68595,-5.68093 1.19275,-8.91321 -1.75606,-11.50949l-0.91508,-0.80543l2.08629,-2.26873c3.79284,-4.12737 5.37344,-7.60647 4.67167,-10.2817c-0.8594,-3.27771 -3.03958,-5.01498 -8.88978,-7.08423c-2.81994,-0.99722 -4.41116,-1.18764 -11.40587,-1.36399l-1.71338,-0.04278l0.01896,-2.19134c0.01023,-1.20577 -0.11682,-4.64883 -0.28317,-7.65295l-0.30104,-5.46072l1.03085,-0.3283c0.5671,-0.18028 2.49405,-0.49006 4.2812,-0.68864c2.72546,-0.30277 3.61662,-0.25261 5.5237,0.30973z" data-paper-data="{&quot;wickUUID&quot;:&quot;02b1afd4-0c79-491d-9c37-159b23672289&quot;,&quot;wickType&quot;:&quot;path&quot;}" id="02b1afd4-0c79-491d-9c37-159b23672289" fill-rule="evenodd"/><path d="M262.62571,143.77544c-0.27733,0.176 -3.03001,0.72852 -5.96101,1.20919c-2.93067,0.48033 -6.04395,1.11362 -6.61295,1.29529c-1.67667,0.53533 -2.82713,2.26759 -3.06613,4.50659c-0.256,2.40033 0.59266,12.07311 1.49366,16.94678c0.721,3.89933 1.10434,9.22093 1.84834,25.6576c0.27767,6.14167 0.65212,12.36433 0.83145,13.82633c0.17967,1.46167 0.4196,3.03125 0.4196,3.08192c0,0.05067 1.53123,0.50994 2.1619,0.50994c1.551,0 5.3239,-1.39507 9.71157,-3.5914l4.0696,-2.21826l-0.13696,-5.27698c-0.23767,-5.02933 -0.84679,-11.94626 -1.69046,-19.61093c-0.82867,-7.52633 -0.56296,-8.00855 5.16037,-8.71988c4.97333,-0.618 13.30982,-3.27008 16.99615,-5.43041c2.08667,-1.223 3.10877,-3.05856 2.9201,-5.01989c-0.21667,-2.25133 -2.95028,-7.60325 -4.87961,-9.58392c-3.01,-3.09 -8.02725,-5.70911 -13.47092,-7.00211c-2.754,-0.65433 -9.0747,-1.03719 -9.7947,-0.57986zM274.41293,151.95743c1.64467,0.91667 1.95707,3.14562 0.9644,5.52095c-0.69433,1.66167 -2.82671,4.407 -4.92371,6.37433c-2.973,2.78933 -6.11343,4.00881 -10.18876,4.00881l-0.86663,0.22787l-1.66593,-3.56696c-2.882,-6.06567 -3.62777,-8.30639 -2.56377,-10.85306c0.92733,-2.219 1.68498,-2.12974 11.57731,-2.03807c5.256,0.04867 7.14376,0.0348 7.66709,0.32613z" data-paper-data="{&quot;wickUUID&quot;:&quot;e0164f52-e867-41e1-bea2-08eff199e97e&quot;,&quot;wickType&quot;:&quot;path&quot;}" id="e0164f52-e867-41e1-bea2-08eff199e97e" fill-rule="evenodd"/><path d="M260.54201,139.04209c-0.926,0.426 -2.936,0.801 -4.467,0.833c-4.729,0.101 -10.117,1.835 -12.467,4.014l-2.246,2.081l0.496,9.819c0.273,5.4 1.078,12.47 1.789,15.711c0.842,3.836 1.316,10.593 1.359,19.36c0.035,7.408 0.382,15.362 0.769,17.677c0.549,3.277 0.43,4.52 -0.538,5.612c-1.696,1.914 -0.101,4.91 2.614,4.91c3.022,0 20.001,-7.833 23.528,-10.854c1.445,-1.238 1.53,-2.23 1.017,-11.873c-0.308,-5.787 -0.781,-12.469 -1.051,-14.849l-0.491,-4.327l4.391,-0.941c7.08,-1.519 16.621,-5.868 18.954,-8.64c2.722,-3.236 2.746,-7.316 0.077,-13.048c-2.857,-6.138 -7.462,-10.372 -14.387,-13.231c-6.234,-2.574 -16.143,-3.728 -19.347,-2.254zM274.06801,145.37609c6.802,2.021 11.795,5.702 14.217,10.483c2.733,5.393 2.693,7.136 -0.209,9.202c-3.182,2.266 -12.237,5.237 -17.678,5.8c-5.814,0.602 -6.439,1.745 -5.323,9.729c0.467,3.334 1.093,10.108 1.392,15.054l0.543,8.992l-3.655,1.919c-5.865,3.08 -10.046,4.345 -11.047,3.343c-0.516,-0.515 -1.131,-8.758 -1.498,-20.057c-0.341,-10.551 -1.04,-20.508 -1.553,-22.129c-0.512,-1.62 -1.169,-6.55 -1.46,-10.956c-0.635,-9.613 -0.573,-9.697 8.13,-10.931c3.409,-0.484 6.378,-1.06 6.599,-1.281c0.837,-0.836 7.556,-0.352 11.542,0.832z" data-paper-data="{&quot;wickUUID&quot;:&quot;c284f58c-ce18-407e-afa4-8c1c217090df&quot;,&quot;wickType&quot;:&quot;path&quot;}" id="c284f58c-ce18-407e-afa4-8c1c217090df" fill-rule="evenodd"/><path d="M256.62545,151.3476c-3.422,1.398 -3.397,5.613 0.073,12.66l2.218,4.505l3.429,-0.122c4.03,-0.144 7.887,-2.567 11.47,-7.205c2.882,-3.731 3.491,-6.073 2.185,-8.402c-0.989,-1.764 -1.184,-1.804 -9.398,-1.943c-4.614,-0.078 -9.104,0.15 -9.977,0.507zM269.14045,157.5346c-0.767,1.433 -5.208,5.017 -6.216,5.017c-0.781,0 -2.971,-5.362 -2.417,-5.916c0.216,-0.217 2.403,-0.394 4.859,-0.394c4.123,0 4.413,0.099 3.774,1.293z" data-paper-data="{&quot;wickUUID&quot;:&quot;0faa9631-2a5d-4331-af63-78697224a866&quot;,&quot;wickType&quot;:&quot;path&quot;}" id="0faa9631-2a5d-4331-af63-78697224a866" fill-rule="evenodd"/><path d="M280.66568,177.54756c-2.002,0.723 -2.229,1.394 -2.353,6.953c-0.06,2.723 0.041,6.42 0.226,8.215c0.436,4.235 0.543,10.153 0.231,12.695l-0.247,2.009l1.034,1.034c1.625,1.625 3.018,1.363 5.081,-0.955l1.168,-1.313l0.234,-3.708c0.128,-2.039 0.312,-3.834 0.407,-3.989c0.096,-0.155 0.402,-0.281 0.68,-0.281c0.279,0 1.237,-0.267 2.13,-0.594c0.894,-0.326 1.643,-0.594 1.665,-0.594c0.022,0 0.137,1.502 0.256,3.338c0.292,4.502 0.903,5.571 3.18,5.564c1.465,-0.004 3.985,-1.282 4.486,-2.275c0.587,-1.163 0.894,-7.766 0.489,-10.53c-0.176,-1.2 -0.42,-4.265 -0.542,-6.811c-0.204,-4.263 -0.284,-4.736 -1.011,-5.975c-0.792,-1.353 -2.362,-2.308 -3.794,-2.308c-0.955,0 -2.248,0.799 -2.998,1.851c-0.605,0.848 -0.704,1.387 -0.798,4.311c-0.118,3.718 0.122,3.357 -2.52,3.784l-1.143,0.185l0.164,-1.133c0.09,-0.622 0.249,-2.3 0.353,-3.729c0.167,-2.298 0.114,-2.751 -0.462,-3.941c-0.372,-0.768 -1.012,-1.531 -1.496,-1.781c-1.01,-0.522 -3.008,-0.533 -4.42,-0.022z" data-paper-data="{&quot;wickUUID&quot;:&quot;82a042c7-1389-463a-bc7a-9c8acd77f2c9&quot;,&quot;wickType&quot;:&quot;path&quot;}" id="82a042c7-1389-463a-bc7a-9c8acd77f2c9" fill-rule="evenodd"/><path d="M306.93325,160.81092c-1.25765,0.85922 -1.91839,2.01866 -2.27386,3.99172c-0.15119,0.83554 -0.56817,3.09845 -0.92642,5.02956c-0.35836,1.93011 -0.7933,5.34047 -0.96752,7.57868c-0.34756,4.47532 -0.6777,6.93464 -1.61179,11.98521c-0.62495,3.38575 -0.98337,9.34386 -0.72017,11.98405c0.13611,1.36839 0.21739,1.4809 1.92932,2.68749c2.19455,1.54603 3.69839,1.86449 5.51067,1.16438c2.60083,-1.00453 3.28399,-2.19672 4.58935,-8.01536l0.44685,-1.99255l3.83262,-0.52114l3.83174,-0.52004l0.32332,1.15679c0.48386,1.73431 1.06616,2.5324 2.25743,3.09288c1.60499,0.7548 3.12832,0.51243 4.51636,-0.72099c2.49832,-2.21974 2.66625,-4.5307 0.688,-9.48024c-0.72262,-1.80669 -2.05725,-5.21831 -2.9652,-7.58157c-2.1397,-5.57023 -6.89584,-14.48624 -9.30771,-17.45077c-2.70217,-3.3209 -6.3839,-4.28145 -9.15299,-2.3881zM315.11738,182.33143c0.01736,0.15201 0.59556,1.20522 1.28555,2.33826c0.68899,1.13315 1.3885,2.45534 1.55451,2.93963l0.30072,0.87956l-2.0934,0.23902c-2.01789,0.2304 -2.09115,0.21461 -2.02213,-0.44145c0.06172,-0.5878 0.0593,-6.12729 -0.00287,-6.67175c-0.01225,-0.1073 0.1953,-0.0525 0.46175,0.1214c0.26645,0.1739 0.4984,0.44232 0.51587,0.59533z" data-paper-data="{&quot;wickUUID&quot;:&quot;7b129b77-7597-4773-8804-1f4a3eddeec4&quot;,&quot;wickType&quot;:&quot;path&quot;}" id="7b129b77-7597-4773-8804-1f4a3eddeec4" fill-rule="evenodd"/><path d="M340.16311,146.68048c-2.516,0.8 -5.649,2.652 -7.513,4.441c-2.176,2.087 -3.209,3.685 -3.481,5.383c-0.385,2.408 1.024,7.371 2.905,10.239c0.883,1.344 2.977,3.016 8.224,6.563c1.543,1.043 3.61,2.648 4.592,3.566c1.76,1.644 1.787,1.695 1.814,3.329c0.018,1.123 -0.1,1.708 -0.366,1.81c-0.557,0.214 -2.74,-0.248 -6.137,-1.3c-3.712,-1.149 -4.346,-1.146 -5.683,0.027c-1.387,1.219 -1.72,1.919 -2.5,5.268c-0.65,2.79 -0.635,4.446 0.051,5.819c0.525,1.051 2.971,4.122 4.214,5.293c2.804,2.638 7.955,4.217 13.675,4.191c2.971,-0.014 3.566,-0.117 6.599,-1.138c3.73,-1.255 5.189,-2.316 7.609,-5.535c1.628,-2.166 2.43,-4.684 2.833,-8.896c0.285,-2.985 0.268,-3.182 -0.413,-4.671c-1.308,-2.86 -3.695,-5.655 -5.794,-6.785c-0.734,-0.396 -1.536,-0.84 -1.78,-0.988c-0.245,-0.148 -1.18,-0.608 -2.078,-1.023c-0.898,-0.415 -2.427,-1.427 -3.397,-2.248c-0.991,-0.84 -3.389,-2.308 -5.475,-3.352c-3.185,-1.595 -4.091,-2.22 -6.372,-4.398c-2.414,-2.305 -2.641,-2.615 -2.454,-3.359c0.295,-1.175 2.156,-1.953 4.692,-1.962c2.41,-0.008 3.31,-0.32 4.011,-1.39c0.818,-1.248 0.603,-3.247 -0.607,-5.649c-1.141,-2.263 -1.67,-2.823 -3.132,-3.314c-1.273,-0.428 -2.523,-0.403 -4.037,0.079z" data-paper-data="{&quot;wickUUID&quot;:&quot;870063f2-5e86-4039-b9bb-c62b9ff51e2c&quot;,&quot;wickType&quot;:&quot;path&quot;}" id="870063f2-5e86-4039-b9bb-c62b9ff51e2c" fill-rule="evenodd"/><path d="M362.42498,132.80941c-0.49,0.075 -2.086,0.395 -3.548,0.71c-1.462,0.315 -3.301,0.573 -4.088,0.573c-1.267,0 -1.584,0.142 -2.782,1.246c-0.744,0.686 -1.542,1.614 -1.775,2.063c-0.543,1.051 -0.518,2.757 0.063,4.26c0.252,0.653 0.445,1.517 0.43,1.921c-0.039,1.008 1.361,8.79 1.902,10.575c0.247,0.812 0.445,2.636 0.45,4.127c0.01,3.438 0.581,5.879 1.632,6.976c1.429,1.492 2.095,1.609 6.003,1.054c1.922,-0.273 5.093,-0.69 7.048,-0.928c4.219,-0.513 5.553,-1.176 6.111,-3.038c0.297,-0.992 0.254,-1.346 -0.336,-2.75c-1.467,-3.488 -2.793,-4.416 -6.643,-4.649c-1.921,-0.116 -2.75,-0.022 -4.235,0.482c-2.77,0.94 -2.873,0.906 -3.5,-1.164c-0.656,-2.166 -0.53,-2.348 1.828,-2.633c0.955,-0.116 2.031,-0.371 2.39,-0.568c1.685,-0.92 2.11,-3.257 0.857,-4.713c-0.663,-0.771 -0.905,-0.841 -3.231,-0.936l-2.515,-0.104l-0.179,-1.084c-0.307,-1.853 -0.331,-1.826 1.669,-1.827c3.966,-0.004 5.829,-1.251 6.653,-4.454c0.556,-2.158 0.424,-3.154 -0.57,-4.297c-0.694,-0.799 -1.98,-1.097 -3.634,-0.842z" data-paper-data="{&quot;wickUUID&quot;:&quot;889a6e73-53ba-47a5-89ab-d16bebc205f4&quot;,&quot;wickType&quot;:&quot;path&quot;}" id="889a6e73-53ba-47a5-89ab-d16bebc205f4" fill-rule="evenodd"/><path d="M262.62571,33.77544c-0.27733,0.176 -3.03001,0.72852 -5.96101,1.20919c-2.93067,0.48033 -6.04395,1.11362 -6.61295,1.29529c-1.67667,0.53533 -2.82713,2.26759 -3.06613,4.50659c-0.256,2.40033 0.59266,12.07311 1.49366,16.94678c0.721,3.89933 1.10434,9.22093 1.84834,25.6576c0.27767,6.14167 0.65212,12.36433 0.83145,13.82633c0.17967,1.46167 0.4196,3.03125 0.4196,3.08192c0,0.05067 1.53123,0.50994 2.1619,0.50994c1.551,0 5.3239,-1.39507 9.71157,-3.5914l4.0696,-2.21826l-0.13696,-5.27698c-0.23767,-5.02933 -0.84679,-11.94626 -1.69046,-19.61093c-0.82867,-7.52633 -0.56296,-8.00855 5.16037,-8.71988c4.97333,-0.618 13.30982,-3.27008 16.99615,-5.43041c2.08667,-1.223 3.10877,-3.05856 2.9201,-5.01989c-0.21667,-2.25133 -2.95028,-7.60325 -4.87961,-9.58392c-3.01,-3.09 -8.02725,-5.70911 -13.47092,-7.00211c-2.754,-0.65433 -9.0747,-1.03719 -9.7947,-0.57986zM274.41293,41.95743c1.64467,0.91667 1.95707,3.14562 0.9644,5.52095c-0.69433,1.66167 -2.82671,4.407 -4.92371,6.37433c-2.973,2.78933 -6.11343,4.00881 -10.18876,4.00881l-0.86663,0.22787l-1.66593,-3.56696c-2.882,-6.06567 -3.62777,-8.30639 -2.56377,-10.85306c0.92733,-2.219 1.68498,-2.12974 11.57731,-2.03807c5.256,0.04867 7.14376,0.0348 7.66709,0.32613z" data-paper-data="{&quot;wickUUID&quot;:&quot;b118338c-674c-4d74-860c-7c4c5aac37eb&quot;,&quot;wickType&quot;:&quot;path&quot;}" id="b118338c-674c-4d74-860c-7c4c5aac37eb" fill-rule="evenodd"/><path d="M260.54201,29.04209c-0.926,0.426 -2.936,0.801 -4.467,0.833c-4.729,0.101 -10.117,1.835 -12.467,4.014l-2.246,2.081l0.496,9.819c0.273,5.4 1.078,12.47 1.789,15.711c0.842,3.836 1.316,10.593 1.359,19.36c0.035,7.408 0.382,15.362 0.769,17.677c0.549,3.277 0.43,4.52 -0.538,5.612c-1.696,1.914 -0.101,4.91 2.614,4.91c3.022,0 20.001,-7.833 23.528,-10.854c1.445,-1.238 1.53,-2.23 1.017,-11.873c-0.308,-5.787 -0.781,-12.469 -1.051,-14.849l-0.491,-4.327l4.391,-0.941c7.08,-1.519 16.621,-5.868 18.954,-8.64c2.722,-3.236 2.746,-7.316 0.077,-13.048c-2.857,-6.138 -7.462,-10.372 -14.387,-13.231c-6.234,-2.574 -16.143,-3.728 -19.347,-2.254zM274.06801,35.37609c6.802,2.021 11.795,5.702 14.217,10.483c2.733,5.393 2.693,7.136 -0.209,9.202c-3.182,2.266 -12.237,5.237 -17.678,5.8c-5.814,0.602 -6.439,1.745 -5.323,9.729c0.467,3.334 1.093,10.108 1.392,15.054l0.543,8.992l-3.655,1.919c-5.865,3.08 -10.046,4.345 -11.047,3.343c-0.516,-0.515 -1.131,-8.758 -1.498,-20.057c-0.341,-10.551 -1.04,-20.508 -1.553,-22.129c-0.512,-1.62 -1.169,-6.55 -1.46,-10.956c-0.635,-9.613 -0.573,-9.697 8.13,-10.931c3.409,-0.484 6.378,-1.06 6.599,-1.281c0.837,-0.836 7.556,-0.352 11.542,0.832z" data-paper-data="{&quot;wickUUID&quot;:&quot;8e512049-6105-46a8-bc6c-425b9684ac1a&quot;,&quot;wickType&quot;:&quot;path&quot;}" id="8e512049-6105-46a8-bc6c-425b9684ac1a" fill-rule="evenodd"/><path d="M256.62545,41.3476c-3.422,1.398 -3.397,5.613 0.073,12.66l2.218,4.505l3.429,-0.122c4.03,-0.144 7.887,-2.567 11.47,-7.205c2.882,-3.731 3.491,-6.073 2.185,-8.402c-0.989,-1.764 -1.184,-1.804 -9.398,-1.943c-4.614,-0.078 -9.104,0.15 -9.977,0.507zM269.14045,47.5346c-0.767,1.433 -5.208,5.017 -6.216,5.017c-0.781,0 -2.971,-5.362 -2.417,-5.916c0.216,-0.217 2.403,-0.394 4.859,-0.394c4.123,0 4.413,0.099 3.774,1.293z" data-paper-data="{&quot;wickUUID&quot;:&quot;789dcc06-3316-40f3-b96e-cd88f85df12a&quot;,&quot;wickType&quot;:&quot;path&quot;}" id="789dcc06-3316-40f3-b96e-cd88f85df12a" fill-rule="evenodd"/><path d="M280.66568,67.54756c-2.002,0.723 -2.229,1.394 -2.353,6.953c-0.06,2.723 0.041,6.42 0.226,8.215c0.436,4.235 0.543,10.153 0.231,12.695l-0.247,2.009l1.034,1.034c1.625,1.625 3.018,1.363 5.081,-0.955l1.168,-1.313l0.234,-3.708c0.128,-2.039 0.312,-3.834 0.407,-3.989c0.096,-0.155 0.402,-0.281 0.68,-0.281c0.279,0 1.237,-0.267 2.13,-0.594c0.894,-0.326 1.643,-0.594 1.665,-0.594c0.022,0 0.137,1.502 0.256,3.338c0.292,4.502 0.903,5.571 3.18,5.564c1.465,-0.004 3.985,-1.282 4.486,-2.275c0.587,-1.163 0.894,-7.766 0.489,-10.53c-0.176,-1.2 -0.42,-4.265 -0.542,-6.811c-0.204,-4.263 -0.284,-4.736 -1.011,-5.975c-0.792,-1.353 -2.362,-2.308 -3.794,-2.308c-0.955,0 -2.248,0.799 -2.998,1.851c-0.605,0.848 -0.704,1.387 -0.798,4.311c-0.118,3.718 0.122,3.357 -2.52,3.784l-1.143,0.185l0.164,-1.133c0.09,-0.622 0.249,-2.3 0.353,-3.729c0.167,-2.298 0.114,-2.751 -0.462,-3.941c-0.372,-0.768 -1.012,-1.531 -1.496,-1.781c-1.01,-0.522 -3.008,-0.533 -4.42,-0.022z" data-paper-data="{&quot;wickUUID&quot;:&quot;9deaf3d8-2550-40db-b3e8-b76587cd42ec&quot;,&quot;wickType&quot;:&quot;path&quot;}" id="9deaf3d8-2550-40db-b3e8-b76587cd42ec" fill-rule="evenodd"/><path d="M306.93325,50.81092c-1.25765,0.85922 -1.91839,2.01866 -2.27386,3.99172c-0.15119,0.83554 -0.56817,3.09845 -0.92642,5.02956c-0.35836,1.93011 -0.7933,5.34047 -0.96752,7.57868c-0.34756,4.47532 -0.6777,6.93464 -1.61179,11.98521c-0.62495,3.38575 -0.98337,9.34386 -0.72017,11.98405c0.13611,1.36839 0.21739,1.4809 1.92932,2.68749c2.19455,1.54603 3.69839,1.86449 5.51067,1.16438c2.60083,-1.00453 3.28399,-2.19672 4.58935,-8.01536l0.44685,-1.99255l3.83262,-0.52114l3.83174,-0.52004l0.32332,1.15679c0.48386,1.73431 1.06616,2.5324 2.25743,3.09288c1.60499,0.7548 3.12832,0.51243 4.51636,-0.72099c2.49832,-2.21974 2.66625,-4.5307 0.688,-9.48024c-0.72262,-1.80669 -2.05725,-5.21831 -2.9652,-7.58157c-2.1397,-5.57023 -6.89584,-14.48624 -9.30771,-17.45077c-2.70217,-3.3209 -6.3839,-4.28145 -9.15299,-2.3881zM315.11738,72.33143c0.01736,0.15201 0.59556,1.20522 1.28555,2.33826c0.68899,1.13315 1.3885,2.45534 1.55451,2.93963l0.30072,0.87956l-2.0934,0.23902c-2.01789,0.2304 -2.09115,0.21461 -2.02213,-0.44145c0.06172,-0.5878 0.0593,-6.12729 -0.00287,-6.67175c-0.01225,-0.1073 0.1953,-0.0525 0.46175,0.1214c0.26645,0.1739 0.4984,0.44232 0.51587,0.59533z" data-paper-data="{&quot;wickUUID&quot;:&quot;e2b7aaf5-94b3-4ff9-bff1-45cec295706e&quot;,&quot;wickType&quot;:&quot;path&quot;}" id="e2b7aaf5-94b3-4ff9-bff1-45cec295706e" fill-rule="evenodd"/><path d="M340.16311,36.68048c-2.516,0.8 -5.649,2.652 -7.513,4.441c-2.176,2.087 -3.209,3.685 -3.481,5.383c-0.385,2.408 1.024,7.371 2.905,10.239c0.883,1.344 2.977,3.016 8.224,6.563c1.543,1.043 3.61,2.648 4.592,3.566c1.76,1.644 1.787,1.695 1.814,3.329c0.018,1.123 -0.1,1.708 -0.366,1.81c-0.557,0.214 -2.74,-0.248 -6.137,-1.3c-3.712,-1.149 -4.346,-1.146 -5.683,0.027c-1.387,1.219 -1.72,1.919 -2.5,5.268c-0.65,2.79 -0.635,4.446 0.051,5.819c0.525,1.051 2.971,4.122 4.214,5.293c2.804,2.638 7.955,4.217 13.675,4.191c2.971,-0.014 3.566,-0.117 6.599,-1.138c3.73,-1.255 5.189,-2.316 7.609,-5.535c1.628,-2.166 2.43,-4.684 2.833,-8.896c0.285,-2.985 0.268,-3.182 -0.413,-4.671c-1.308,-2.86 -3.695,-5.655 -5.794,-6.785c-0.734,-0.396 -1.536,-0.84 -1.78,-0.988c-0.245,-0.148 -1.18,-0.608 -2.078,-1.023c-0.898,-0.415 -2.427,-1.427 -3.397,-2.248c-0.991,-0.84 -3.389,-2.308 -5.475,-3.352c-3.185,-1.595 -4.091,-2.22 -6.372,-4.398c-2.414,-2.305 -2.641,-2.615 -2.454,-3.359c0.295,-1.175 2.156,-1.953 4.692,-1.962c2.41,-0.008 3.31,-0.32 4.011,-1.39c0.818,-1.248 0.603,-3.247 -0.607,-5.649c-1.141,-2.263 -1.67,-2.823 -3.132,-3.314c-1.273,-0.428 -2.523,-0.403 -4.037,0.079z" data-paper-data="{&quot;wickUUID&quot;:&quot;1ac7a41f-d94c-42be-b5af-80bf8bef5d80&quot;,&quot;wickType&quot;:&quot;path&quot;}" id="1ac7a41f-d94c-42be-b5af-80bf8bef5d80" fill-rule="evenodd"/><path d="M362.42498,22.80941c-0.49,0.075 -2.086,0.395 -3.548,0.71c-1.462,0.315 -3.301,0.573 -4.088,0.573c-1.267,0 -1.584,0.142 -2.782,1.246c-0.744,0.686 -1.542,1.614 -1.775,2.063c-0.543,1.051 -0.518,2.757 0.063,4.26c0.252,0.653 0.445,1.517 0.43,1.921c-0.039,1.008 1.361,8.79 1.902,10.575c0.247,0.812 0.445,2.636 0.45,4.127c0.01,3.438 0.581,5.879 1.632,6.976c1.429,1.492 2.095,1.609 6.003,1.054c1.922,-0.273 5.093,-0.69 7.048,-0.928c4.219,-0.513 5.553,-1.176 6.111,-3.038c0.297,-0.992 0.254,-1.346 -0.336,-2.75c-1.467,-3.488 -2.793,-4.416 -6.643,-4.649c-1.921,-0.116 -2.75,-0.022 -4.235,0.482c-2.77,0.94 -2.873,0.906 -3.5,-1.164c-0.656,-2.166 -0.53,-2.348 1.828,-2.633c0.955,-0.116 2.031,-0.371 2.39,-0.568c1.685,-0.92 2.11,-3.257 0.857,-4.713c-0.663,-0.771 -0.905,-0.841 -3.231,-0.936l-2.515,-0.104l-0.179,-1.084c-0.307,-1.853 -0.331,-1.826 1.669,-1.827c3.966,-0.004 5.829,-1.251 6.653,-4.454c0.556,-2.158 0.424,-3.154 -0.57,-4.297c-0.694,-0.799 -1.98,-1.097 -3.634,-0.842z" data-paper-data="{&quot;wickUUID&quot;:&quot;32244abb-fac7-4b77-9a7f-7b2346c1b951&quot;,&quot;wickType&quot;:&quot;path&quot;}" id="32244abb-fac7-4b77-9a7f-7b2346c1b951" fill-rule="evenodd"/><path d="M262.62571,263.77544c-0.27733,0.176 -3.03001,0.72852 -5.96101,1.20919c-2.93067,0.48033 -6.04395,1.11362 -6.61295,1.29529c-1.67667,0.53533 -2.82713,2.26759 -3.06613,4.50659c-0.256,2.40033 0.59266,12.07311 1.49366,16.94678c0.721,3.89933 1.10434,9.22093 1.84834,25.6576c0.27767,6.14167 0.65212,12.36433 0.83145,13.82633c0.17967,1.46167 0.4196,3.03125 0.4196,3.08192c0,0.05067 1.53123,0.50994 2.1619,0.50994c1.551,0 5.3239,-1.39507 9.71157,-3.5914l4.0696,-2.21826l-0.13696,-5.27698c-0.23767,-5.02933 -0.84679,-11.94626 -1.69046,-19.61093c-0.82867,-7.52633 -0.56296,-8.00855 5.16037,-8.71988c4.97333,-0.618 13.30982,-3.27008 16.99615,-5.43041c2.08667,-1.223 3.10877,-3.05856 2.9201,-5.01989c-0.21667,-2.25133 -2.95028,-7.60325 -4.87961,-9.58392c-3.01,-3.09 -8.02725,-5.70911 -13.47092,-7.00211c-2.754,-0.65433 -9.0747,-1.03719 -9.7947,-0.57986zM274.41293,271.95743c1.64467,0.91667 1.95707,3.14562 0.9644,5.52095c-0.69433,1.66167 -2.82671,4.407 -4.92371,6.37433c-2.973,2.78933 -6.11343,4.00881 -10.18876,4.00881l-0.86663,0.22787l-1.66593,-3.56696c-2.882,-6.06567 -3.62777,-8.30639 -2.56377,-10.85306c0.92733,-2.219 1.68498,-2.12974 11.57731,-2.03807c5.256,0.04867 7.14376,0.0348 7.66709,0.32613z" data-paper-data="{&quot;wickUUID&quot;:&quot;34bbac5e-7df1-4680-a43b-1677f60709db&quot;,&quot;wickType&quot;:&quot;path&quot;}" id="34bbac5e-7df1-4680-a43b-1677f60709db" fill-rule="evenodd"/><path d="M260.54201,259.04209c-0.926,0.426 -2.936,0.801 -4.467,0.833c-4.729,0.101 -10.117,1.835 -12.467,4.014l-2.246,2.081l0.496,9.819c0.273,5.4 1.078,12.47 1.789,15.711c0.842,3.836 1.316,10.593 1.359,19.36c0.035,7.408 0.382,15.362 0.769,17.677c0.549,3.277 0.43,4.52 -0.538,5.612c-1.696,1.914 -0.101,4.91 2.614,4.91c3.022,0 20.001,-7.833 23.528,-10.854c1.445,-1.238 1.53,-2.23 1.017,-11.873c-0.308,-5.787 -0.781,-12.469 -1.051,-14.849l-0.491,-4.327l4.391,-0.941c7.08,-1.519 16.621,-5.868 18.954,-8.64c2.722,-3.236 2.746,-7.316 0.077,-13.048c-2.857,-6.138 -7.462,-10.372 -14.387,-13.231c-6.234,-2.574 -16.143,-3.728 -19.347,-2.254zM274.06801,265.37609c6.802,2.021 11.795,5.702 14.217,10.483c2.733,5.393 2.693,7.136 -0.209,9.202c-3.182,2.266 -12.237,5.237 -17.678,5.8c-5.814,0.602 -6.439,1.745 -5.323,9.729c0.467,3.334 1.093,10.108 1.392,15.054l0.543,8.992l-3.655,1.919c-5.865,3.08 -10.046,4.345 -11.047,3.343c-0.516,-0.515 -1.131,-8.758 -1.498,-20.057c-0.341,-10.551 -1.04,-20.508 -1.553,-22.129c-0.512,-1.62 -1.169,-6.55 -1.46,-10.956c-0.635,-9.613 -0.573,-9.697 8.13,-10.931c3.409,-0.484 6.378,-1.06 6.599,-1.281c0.837,-0.836 7.556,-0.352 11.542,0.832z" data-paper-data="{&quot;wickUUID&quot;:&quot;380c2ae8-8be7-4751-a488-72afeeba5aa9&quot;,&quot;wickType&quot;:&quot;path&quot;}" id="380c2ae8-8be7-4751-a488-72afeeba5aa9" fill-rule="evenodd"/><path d="M256.62545,271.3476c-3.422,1.398 -3.397,5.613 0.073,12.66l2.218,4.505l3.429,-0.122c4.03,-0.144 7.887,-2.567 11.47,-7.205c2.882,-3.731 3.491,-6.073 2.185,-8.402c-0.989,-1.764 -1.184,-1.804 -9.398,-1.943c-4.614,-0.078 -9.104,0.15 -9.977,0.507zM269.14045,277.5346c-0.767,1.433 -5.208,5.017 -6.216,5.017c-0.781,0 -2.971,-5.362 -2.417,-5.916c0.216,-0.217 2.403,-0.394 4.859,-0.394c4.123,0 4.413,0.099 3.774,1.293z" data-paper-data="{&quot;wickUUID&quot;:&quot;6f95fab5-ce69-44ce-87ca-0a2f806e1c66&quot;,&quot;wickType&quot;:&quot;path&quot;}" id="6f95fab5-ce69-44ce-87ca-0a2f806e1c66" fill-rule="evenodd"/><path d="M280.66568,297.54756c-2.002,0.723 -2.229,1.394 -2.353,6.953c-0.06,2.723 0.041,6.42 0.226,8.215c0.436,4.235 0.543,10.153 0.231,12.695l-0.247,2.009l1.034,1.034c1.625,1.625 3.018,1.363 5.081,-0.955l1.168,-1.313l0.234,-3.708c0.128,-2.039 0.312,-3.834 0.407,-3.989c0.096,-0.155 0.402,-0.281 0.68,-0.281c0.279,0 1.237,-0.267 2.13,-0.594c0.894,-0.326 1.643,-0.594 1.665,-0.594c0.022,0 0.137,1.502 0.256,3.338c0.292,4.502 0.903,5.571 3.18,5.564c1.465,-0.004 3.985,-1.282 4.486,-2.275c0.587,-1.163 0.894,-7.766 0.489,-10.53c-0.176,-1.2 -0.42,-4.265 -0.542,-6.811c-0.204,-4.263 -0.284,-4.736 -1.011,-5.975c-0.792,-1.353 -2.362,-2.308 -3.794,-2.308c-0.955,0 -2.248,0.799 -2.998,1.851c-0.605,0.848 -0.704,1.387 -0.798,4.311c-0.118,3.718 0.122,3.357 -2.52,3.784l-1.143,0.185l0.164,-1.133c0.09,-0.622 0.249,-2.3 0.353,-3.729c0.167,-2.298 0.114,-2.751 -0.462,-3.941c-0.372,-0.768 -1.012,-1.531 -1.496,-1.781c-1.01,-0.522 -3.008,-0.533 -4.42,-0.022z" data-paper-data="{&quot;wickUUID&quot;:&quot;598953ea-a943-4c05-a067-a7e676f5249e&quot;,&quot;wickType&quot;:&quot;path&quot;}" id="598953ea-a943-4c05-a067-a7e676f5249e" fill-rule="evenodd"/><path d="M306.93325,280.81092c-1.25765,0.85922 -1.91839,2.01866 -2.27386,3.99172c-0.15119,0.83554 -0.56817,3.09845 -0.92642,5.02956c-0.35836,1.93011 -0.7933,5.34047 -0.96752,7.57868c-0.34756,4.47532 -0.6777,6.93464 -1.61179,11.98521c-0.62495,3.38575 -0.98337,9.34386 -0.72017,11.98405c0.13611,1.36839 0.21739,1.4809 1.92932,2.68749c2.19455,1.54603 3.69839,1.86449 5.51067,1.16438c2.60083,-1.00453 3.28399,-2.19672 4.58935,-8.01536l0.44685,-1.99255l3.83262,-0.52114l3.83174,-0.52004l0.32332,1.15679c0.48386,1.73431 1.06616,2.5324 2.25743,3.09288c1.60499,0.7548 3.12832,0.51243 4.51636,-0.72099c2.49832,-2.21974 2.66625,-4.5307 0.688,-9.48024c-0.72262,-1.80669 -2.05725,-5.21831 -2.9652,-7.58157c-2.1397,-5.57023 -6.89584,-14.48624 -9.30771,-17.45077c-2.70217,-3.3209 -6.3839,-4.28145 -9.15299,-2.3881zM315.11738,302.33143c0.01736,0.15201 0.59556,1.20522 1.28555,2.33826c0.68899,1.13315 1.3885,2.45534 1.55451,2.93963l0.30072,0.87956l-2.0934,0.23902c-2.01789,0.2304 -2.09115,0.21461 -2.02213,-0.44145c0.06172,-0.5878 0.0593,-6.12729 -0.00287,-6.67175c-0.01225,-0.1073 0.1953,-0.0525 0.46175,0.1214c0.26645,0.1739 0.4984,0.44232 0.51587,0.59533z" data-paper-data="{&quot;wickUUID&quot;:&quot;a0efdfd4-1c6d-4126-af67-e0471429a0f6&quot;,&quot;wickType&quot;:&quot;path&quot;}" id="a0efdfd4-1c6d-4126-af67-e0471429a0f6" fill-rule="evenodd"/><path d="M340.16311,266.68048c-2.516,0.8 -5.649,2.652 -7.513,4.441c-2.176,2.087 -3.209,3.685 -3.481,5.383c-0.385,2.408 1.024,7.371 2.905,10.239c0.883,1.344 2.977,3.016 8.224,6.563c1.543,1.043 3.61,2.648 4.592,3.566c1.76,1.644 1.787,1.695 1.814,3.329c0.018,1.123 -0.1,1.708 -0.366,1.81c-0.557,0.214 -2.74,-0.248 -6.137,-1.3c-3.712,-1.149 -4.346,-1.146 -5.683,0.027c-1.387,1.219 -1.72,1.919 -2.5,5.268c-0.65,2.79 -0.635,4.446 0.051,5.819c0.525,1.051 2.971,4.122 4.214,5.293c2.804,2.638 7.955,4.217 13.675,4.191c2.971,-0.014 3.566,-0.117 6.599,-1.138c3.73,-1.255 5.189,-2.316 7.609,-5.535c1.628,-2.166 2.43,-4.684 2.833,-8.896c0.285,-2.985 0.268,-3.182 -0.413,-4.671c-1.308,-2.86 -3.695,-5.655 -5.794,-6.785c-0.734,-0.396 -1.536,-0.84 -1.78,-0.988c-0.245,-0.148 -1.18,-0.608 -2.078,-1.023c-0.898,-0.415 -2.427,-1.427 -3.397,-2.248c-0.991,-0.84 -3.389,-2.308 -5.475,-3.352c-3.185,-1.595 -4.091,-2.22 -6.372,-4.398c-2.414,-2.305 -2.641,-2.615 -2.454,-3.359c0.295,-1.175 2.156,-1.953 4.692,-1.962c2.41,-0.008 3.31,-0.32 4.011,-1.39c0.818,-1.248 0.603,-3.247 -0.607,-5.649c-1.141,-2.263 -1.67,-2.823 -3.132,-3.314c-1.273,-0.428 -2.523,-0.403 -4.037,0.079z" data-paper-data="{&quot;wickUUID&quot;:&quot;af1b6307-e208-4c3b-a181-ed599a4685e6&quot;,&quot;wickType&quot;:&quot;path&quot;}" id="af1b6307-e208-4c3b-a181-ed599a4685e6" fill-rule="evenodd"/><path d="M362.42498,252.80941c-0.49,0.075 -2.086,0.395 -3.548,0.71c-1.462,0.315 -3.301,0.573 -4.088,0.573c-1.267,0 -1.584,0.142 -2.782,1.246c-0.744,0.686 -1.542,1.614 -1.775,2.063c-0.543,1.051 -0.518,2.757 0.063,4.26c0.252,0.653 0.445,1.517 0.43,1.921c-0.039,1.008 1.361,8.79 1.902,10.575c0.247,0.812 0.445,2.636 0.45,4.127c0.01,3.438 0.581,5.879 1.632,6.976c1.429,1.492 2.095,1.609 6.003,1.054c1.922,-0.273 5.093,-0.69 7.048,-0.928c4.219,-0.513 5.553,-1.176 6.111,-3.038c0.297,-0.992 0.254,-1.346 -0.336,-2.75c-1.467,-3.488 -2.793,-4.416 -6.643,-4.649c-1.921,-0.116 -2.75,-0.022 -4.235,0.482c-2.77,0.94 -2.873,0.906 -3.5,-1.164c-0.656,-2.166 -0.53,-2.348 1.828,-2.633c0.955,-0.116 2.031,-0.371 2.39,-0.568c1.685,-0.92 2.11,-3.257 0.857,-4.713c-0.663,-0.771 -0.905,-0.841 -3.231,-0.936l-2.515,-0.104l-0.179,-1.084c-0.307,-1.853 -0.331,-1.826 1.669,-1.827c3.966,-0.004 5.829,-1.251 6.653,-4.454c0.556,-2.158 0.424,-3.154 -0.57,-4.297c-0.694,-0.799 -1.98,-1.097 -3.634,-0.842z" data-paper-data="{&quot;wickUUID&quot;:&quot;1ee2c2bb-151a-47f8-a52a-73768b60e6b5&quot;,&quot;wickType&quot;:&quot;path&quot;}" id="1ee2c2bb-151a-47f8-a52a-73768b60e6b5" fill-rule="evenodd"/><path d="M383.08089,12.01414c0.481,-0.206 1.412,-0.288 2.454,-0.216c11.863,0.815 12.248,0.856 12.906,1.346c1.147,0.855 1.558,1.883 1.682,4.21c0.063,1.19 0.232,3.675 0.376,5.522c0.143,1.846 0.263,4.828 0.267,6.626l0.008,3.269l1.614,-0.118c2.84,-0.207 3.229,-0.315 3.377,-0.938c0.075,-0.316 0.328,-2.143 0.562,-4.061c1.191,-9.738 1.473,-11.112 2.52,-12.305c1.524,-1.735 6.409,-3.405 10.659,-3.643c2.235,-0.125 2.365,-0.102 3.144,0.554c1.265,1.064 1.455,2.379 1.507,10.427c0.025,3.874 0.101,7.099 0.168,7.167c0.068,0.067 1.973,-0.019 4.235,-0.193c6.848,-0.524 7.752,-0.348 9.224,1.802c0.966,1.409 1.125,1.894 1.879,5.74c0.723,3.682 0.726,5.238 0.013,6.326c-0.857,1.308 -1.691,1.503 -7.334,1.712c-2.88,0.107 -5.976,0.274 -6.88,0.371l-1.642,0.176l-0.191,8.403c-0.211,9.273 -0.133,10.909 0.805,16.817c1,6.304 1.11,7.657 0.848,10.482c-0.421,4.553 -0.79,5.309 -3.074,6.311c-1.483,0.651 -6.494,1.074 -9.75,0.824c-2.167,-0.166 -2.468,-0.255 -3.187,-0.939c-0.437,-0.416 -0.943,-1.046 -1.123,-1.401c-0.479,-0.942 -0.786,-6.181 -0.802,-13.689c-0.011,-5.729 -0.084,-6.906 -0.56,-9.04c-0.545,-2.446 -0.846,-4.812 -1.37,-10.754c-0.152,-1.723 -0.39,-3.546 -0.53,-4.051c-0.234,-0.847 -0.356,-0.937 -1.601,-1.181c-2.65184,-0.51846 -7.49465,-1.0216 -11.39682,-1.22261c-0.94862,-0.13515 -2.09678,-0.26051 -3.47823,-0.3869c-1.84471,-0.1687 -3.35933,-0.28154 -4.60303,-0.33889c-0.361,-0.09693 -0.74085,-0.19611 -1.14121,-0.29822c-0.45659,-0.11648 -0.85562,-0.21953 -1.2052,-0.30971c-0.01939,-1.13979 -0.02654,-1.9166 -0.01751,-2.12067c0.103,-2.364 0.074,-19.324 -0.041,-24.054c-0.122,-5.061 -0.103,-5.358 0.388,-5.912c0.284,-0.32 0.865,-0.731 1.291,-0.913zM390.34589,17.96714l-3.324,-0.184l0.153,0.997c0.084,0.548 0.232,5.616 0.329,11.263l0.175,10.267l1.575,0.007c1.998,0.01 10.121,0.679 12.166,1.002c0.852,0.135 2.479,0.379 3.616,0.542c1.136,0.163 2.393,0.421 2.792,0.573c1.98,0.754 3.064,4.239 3.677,11.823c0.212,2.628 0.699,6.29 1.081,8.136c0.653,3.153 0.698,3.815 0.739,10.848c0.024,4.12 0.148,7.956 0.277,8.524l0.233,1.033l2.445,-0.064c2.867,-0.074 2.948,-0.137 3.183,-2.455c0.164,-1.626 -0.01,-3.105 -1.18,-10.008c-0.567,-3.345 -0.588,-3.979 -0.517,-15.593c0.083,-13.49 0.057,-13.291 1.815,-14.038c1.052,-0.447 5.872,-0.997 10.987,-1.252l3.319,-0.166l-0.18,-1.441c-0.284,-2.27 -0.527,-2.724 -1.362,-2.541c-0.389,0.085 -2.043,0.218 -3.676,0.295c-1.634,0.077 -3.962,0.26 -5.174,0.406c-3.05,0.369 -3.855,-0.005 -4.797,-2.227c-0.377,-0.887 -0.43,-2.016 -0.396,-8.482l0.038,-7.459l-1.035,0.165c-1.156,0.185 -3.386,0.89 -3.678,1.162c-0.198,0.186 -0.517,2.265 -1.62,10.584c-0.728,5.484 -1.302,7.194 -2.647,7.873c-0.389,0.197 -2.219,0.498 -4.066,0.669c-1.847,0.171 -4.2,0.427 -5.23,0.569c-2.149,0.297 -2.748,0.174 -3.769,-0.774c-1.371,-1.274 -1.462,-1.693 -1.462,-6.733c0,-5.711 -0.451,-12.436 -0.862,-12.841c-0.172,-0.171 -1.715,-0.375 -3.625,-0.48z" data-paper-data="{&quot;wickUUID&quot;:&quot;3ae4644f-0a7d-4850-9ea2-306eb7ccfcbf&quot;,&quot;wickType&quot;:&quot;path&quot;}" fill-rule="nonzero"/><path d="M383.61613,36.97763c-1.144,0.623 -1.422,1.43 -2.02,5.865c-0.586,4.354 -0.449,5.253 0.938,6.162c0.739,0.484 1.406,0.51 6.717,0.265c8.587,-0.398 12.194,-0.314 14.394,0.335c1.03,0.303 2.623,0.569 3.54,0.591c1.421,0.033 1.793,-0.088 2.526,-0.82c0.614,-0.613 0.86,-1.18 0.86,-1.98c0,-1.686 -1.108,-2.62 -3.579,-3.018c-1.103,-0.178 -2.257,-0.458 -2.565,-0.622c-0.59,-0.317 -5.89,-0.869 -7.23,-0.754c-0.433,0.037 -2.789,0.175 -5.235,0.306l-4.447,0.238l0.287,-2.142c0.34,-2.541 -0.029,-3.744 -1.358,-4.432c-1.091,-0.564 -1.783,-0.562 -2.828,0.006z" data-paper-data="{&quot;wickUUID&quot;:&quot;aa0a39c5-4558-4637-b5f2-85c2430dce87&quot;,&quot;wickType&quot;:&quot;path&quot;}" fill-rule="evenodd"/><path d="M405.08295,122.36713c-4.969,0.404 -8.648,0.936 -14.036,2.033c-2.949,0.599 -6.853,1.374 -8.674,1.72c-1.822,0.346 -3.795,0.73 -4.386,0.853c-2.852,0.594 -3.103,4.034 -1.008,13.786c1.131,5.265 3.109,12.698 4.23,15.895c0.493,1.405 1.654,2.234 3.214,2.295c0.694,0.027 3.344,-0.125 5.888,-0.338c3.341,-0.28 5.125,-0.295 6.42,-0.056c2.058,0.381 5.076,1.985 5.349,2.843c0.465,1.467 -2.85,7.721 -4.847,9.143c-1.176,0.837 -4.13,0.875 -9.762,0.124c-7.191,-0.959 -8.549,-0.717 -9.805,1.746c-0.98,1.921 -3.102,10.865 -3.665,15.449c-0.692,5.633 -0.311,6.508 3.098,7.125c0.655,0.119 1.649,0.48 2.207,0.803c1.397,0.806 5.691,2.098 7.833,2.356c2.626,0.317 9.768,-0.959 14.314,-2.557c1.213,-0.426 4.454,-1.408 7.202,-2.182c6.685,-1.882 8.119,-2.506 12.279,-5.344c5.761,-3.93 7.165,-5.567 8.409,-9.801c0.783,-2.668 0.814,-4.456 0.179,-10.532c-0.621,-5.944 -0.995,-7.139 -3.358,-10.728c-2.516,-3.823 -9.067,-10.513 -11.776,-12.028l-1.893,-1.058l6.797,-0.158c7.796,-0.181 8.212,-0.303 8.847,-2.601c0.287,-1.039 0.282,-1.948 -0.023,-4.023c-0.93,-6.347 -1.256,-9.09 -1.262,-10.63c-0.009,-1.966 -0.452,-3.048 -1.554,-3.793c-0.729,-0.493 -1.733,-0.554 -9.177,-0.556c-4.598,-0.002 -9.566,0.095 -11.04,0.214zM421.09595,129.43213c0.046,0.679 0.295,2.726 0.552,4.551c0.257,1.824 0.467,3.408 0.467,3.519c0,0.112 -4.79,0.266 -10.645,0.343c-10.916,0.142 -12.405,0.303 -13.445,1.451c-0.29,0.321 -0.684,1.473 -0.876,2.56c-0.624,3.543 0.703,5.051 4.755,5.409c1.438,0.127 3.817,0.69 5.969,1.414c3.25,1.092 3.8,1.395 5.993,3.299c2.739,2.379 5.012,4.912 7.068,7.878c2.023,2.919 2.096,3.108 2.441,6.353c0.171,1.616 0.448,4.1 0.614,5.519c0.258,2.205 0.214,2.888 -0.299,4.684c-0.331,1.157 -0.954,2.566 -1.385,3.131c-0.431,0.564 -2.484,2.172 -4.561,3.572c-3.923,2.643 -5.932,3.478 -12.245,5.089c-1.419,0.363 -3.817,1.096 -5.33,1.63c-3.147,1.11 -9.602,2.496 -11.628,2.496c-1.597,0 -5.043,-1.003 -7.208,-2.098l-1.512,-0.765l0.192,-1.959c0.195,-1.978 2.278,-10.921 2.638,-11.324c0.107,-0.12 1.685,-0.001 3.507,0.264c4.513,0.657 10.859,0.724 12.301,0.13c3.82,-1.573 7.371,-6.325 9.155,-12.252c1.396,-4.641 -0.235,-7.507 -5.843,-10.27c-2.572,-1.267 -5.003,-1.585 -10.551,-1.379l-4.967,0.185l-1.129,-3.843c-1.194,-4.064 -3.261,-13.393 -3.436,-15.508l-0.104,-1.256l1.893,-0.36c1.041,-0.198 4.758,-0.95 8.26,-1.672c8.44,-1.739 12.569,-2.133 21.704,-2.074l7.571,0.05l0.084,1.233z" data-paper-data="{&quot;wickUUID&quot;:&quot;d2ff1ea7-28e8-43b4-8095-399869029cc6&quot;,&quot;wickType&quot;:&quot;path&quot;}" fill-rule="evenodd"/><path d="M393.4041,252.28858c-0.338,0.384 -0.991,1.417 -1.451,2.295c-0.798,1.521 -1.86,3.007 -6.142,8.593c-1.317,1.717 -2.153,3.348 -2.729,5.321c-0.456,1.564 -1.529,4.999 -2.385,7.633c-2.58,7.945 -3.251,11.861 -3.282,19.153c-0.023,5.636 0.098,6.875 1.029,10.574c0.581,2.304 1.239,5.351 1.462,6.77c0.512,3.263 1.765,5.06 5.654,8.111c3.424,2.687 4.113,3.014 8.932,4.241c1.975,0.503 4.669,1.244 5.986,1.648c4.125,1.265 10.786,2.092 14.958,1.858c3.102,-0.173 4.433,-0.469 7.288,-1.618c4.691,-1.888 5.63,-2.634 8.074,-6.409c2.211,-3.417 3.412,-6.161 5.257,-12.008c1.06,-3.361 1.126,-3.966 1.026,-9.437c-0.125,-6.909 -0.891,-10.494 -3.279,-15.355c-1.199,-2.439 -2.214,-3.819 -4.085,-5.551c-4.662,-4.317 -8.552,-5.448 -18.968,-5.519c-5.472,-0.037 -7.24,-0.168 -7.103,-0.527c0.322,-0.845 8.157,-12.415 8.587,-12.68c0.623,-0.385 0.499,-2.705 -0.198,-3.701c-0.686,-0.979 -1.638,-1.277 -9.348,-2.932c-6.288,-1.351 -8.408,-1.456 -9.283,-0.46zM401.4751,258.39958c1.427,0.264 2.753,0.625 2.947,0.8c0.195,0.177 -1.214,2.685 -3.153,5.614c-4.319,6.522 -6.482,10.488 -7.208,13.217c-0.755,2.833 -0.734,2.981 0.6,4.315c1.641,1.641 2.771,1.499 5.285,-0.662c3.949,-3.395 4.337,-3.499 12.095,-3.256c8.091,0.253 10.349,0.896 13.495,3.838c3.515,3.289 5.265,8.171 5.667,15.811c0.246,4.693 0.223,4.881 -1.184,9.512c-1.518,4.996 -2.964,8.192 -4.922,10.876c-0.966,1.323 -1.812,1.883 -4.461,2.951c-3.256,1.313 -3.289,1.317 -8.371,1.091c-2.806,-0.125 -5.798,-0.41 -6.649,-0.634c-0.851,-0.225 -3.073,-0.801 -4.939,-1.282c-5.664,-1.459 -7.234,-2.021 -9.753,-3.489c-3.62,-2.112 -4.836,-3.486 -5.179,-5.858c-0.159,-1.097 -0.745,-3.79 -1.302,-5.985c-2.14,-8.424 -1.519,-16.686 2.091,-27.807c0.976,-3.004 1.775,-5.697 1.777,-5.985c0.009,-1.096 1.973,-4.612 3.916,-7.007c1.112,-1.371 2.686,-3.494 3.498,-4.717c1.181,-1.778 1.645,-2.184 2.317,-2.025c0.462,0.11 2.007,0.417 3.433,0.682z" data-paper-data="{&quot;wickUUID&quot;:&quot;b9f1ac1a-d73a-49ca-a952-c6704d81a164&quot;,&quot;wickType&quot;:&quot;path&quot;}" fill-rule="evenodd"/><path d="M400.46846,290.64139c-3.845,1.295 -4.784,1.912 -6.298,4.138c-1.093,1.606 -1.145,1.867 -0.931,4.693c0.267,3.531 1.14,6.678 2.241,8.077c1.204,1.531 3.811,2.558 9.33,3.675c2.762,0.56 5.214,1.017 5.45,1.017c0.236,0 0.914,-0.494 1.508,-1.097c0.593,-0.604 2.149,-1.636 3.458,-2.295c3.446,-1.734 4.014,-2.704 3.968,-6.784c-0.071,-6.329 -2.594,-9.342 -9.66,-11.539c-4.06,-1.261 -5.012,-1.249 -9.066,0.115zM408.35646,296.24539c3.148,1.084 4.217,1.898 4.681,3.568c0.784,2.823 0.581,3.493 -1.287,4.251c-2.351,0.953 -6.217,1.203 -9.111,0.589c-1.951,-0.414 -2.5,-0.704 -2.793,-1.476c-0.552,-1.452 -0.848,-5.035 -0.463,-5.598c0.424,-0.618 4.325,-2.028 5.72,-2.068c0.569,-0.016 2.033,0.315 3.253,0.734z" data-paper-data="{&quot;wickUUID&quot;:&quot;eb7463d6-2fe7-4cd8-891a-303b8dbb8246&quot;,&quot;wickType&quot;:&quot;path&quot;}" fill-rule="evenodd"/></g><g fill="none" fill-rule="nonzero" stroke="none" stroke-width="1" stroke-linecap="butt" stroke-linejoin="miter" stroke-miterlimit="10" stroke-dasharray="" stroke-dashoffset="0" font-family="sans-serif" font-weight="normal" font-size="12" text-anchor="start" style="mix-blend-mode: normal"/><g id="wick_project_gui" fill="none" fill-rule="nonzero" stroke="none" stroke-width="1" stroke-linecap="butt" stroke-linejoin="miter" stroke-miterlimit="10" stroke-dasharray="" stroke-dashoffset="0" font-family="sans-serif" font-weight="normal" font-size="12" text-anchor="start" style="mix-blend-mode: normal"/></g></svg>