<svg version="1.1" xmlns="http://www.w3.org/2000/svg" xmlns:xlink="http://www.w3.org/1999/xlink" width="1260" height="594" viewBox="0,0,1260,594"><g transform="translate(-91.70217,-330.66282) scale(1.72369,1.72369)"><g id="wick_project_bg" fill-opacity="0" fill="#ffffff" fill-rule="nonzero" stroke="none" stroke-width="1" stroke-linecap="butt" stroke-linejoin="miter" stroke-miterlimit="10" stroke-dasharray="" stroke-dashoffset="0" font-family="none" font-weight="none" font-size="none" text-anchor="none" style="mix-blend-mode: normal"><rect x="0" y="0" width="720" height="480"/></g><g data-paper-data="{&quot;wickUUID&quot;:&quot;1a8f04b8-ecfb-4d32-bdb6-8bfccab7db8d&quot;,&quot;wickType&quot;:&quot;clipsandpaths&quot;}" fill="none" fill-rule="evenodd" stroke="none" stroke-width="1" stroke-linecap="butt" stroke-linejoin="miter" stroke-miterlimit="10" stroke-dasharray="" stroke-dashoffset="0" font-family="none" font-weight="none" font-size="none" text-anchor="none" style="mix-blend-mode: normal"><path d="M421.60308,286.86311c-3.82567,1.48467 -9.10327,6.88377 -10.20927,10.56077c-0.71933,2.39133 -1.08905,8.48769 -0.56838,9.74469c0.407,0.98233 2.32607,2.39861 4.13574,2.84961c0.916,0.22833 1.73283,-0.1234 1.73283,-1.93973c0,-2.06367 -0.00171,-2.21504 2.25796,-3.09104c1.911,-0.74067 2.65206,-0.84914 3.44673,-0.05447c0.68133,0.68133 1.21706,3.93862 0.78573,4.63662c-0.44433,0.719 1.20556,1.26738 4.66423,1.27271c2.36567,0.00333 4.16092,-0.44596 4.16092,-0.71263c0,-0.212 -0.58866,-1.73447 -1.50533,-2.57747c-2.376,-2.184 -2.27751,-3.38066 0.40949,-4.53233c0.78133,-0.335 1.04417,-0.48973 1.55984,-0.96773c1.695,-1.57067 3.16323,-0.95048 3.65423,1.48719c0.19,0.94433 1.26517,1.56991 1.91284,1.92891c1.15567,0.64067 1.86883,-0.14276 2.65616,-3.47343c0.47467,-2.00867 0.508,-3.27601 0.20033,-4.74334c-0.71667,-3.417 -2.04189,-5.48638 -4.17356,-6.98171c-5.19133,-3.64167 -11.16482,-4.94162 -15.12049,-3.40662z" data-paper-data="{&quot;wickUUID&quot;:&quot;d194a802-112a-4cd6-9617-9057f056d222&quot;,&quot;wickType&quot;:&quot;path&quot;,&quot;originalStyle&quot;:{&quot;strokeColor&quot;:null,&quot;fillColor&quot;:[&quot;Color&quot;,1,1,1],&quot;strokeWidth&quot;:1}}" fill="#ffffff"/><path d="M411.15703,251.34684c-1.25733,2.159 -3.90295,7.53966 -4.66628,9.47666c-0.849,2.15433 -2.16944,8.55343 -2.62511,12.7371c-0.18967,1.74167 -0.44976,7.44222 -0.57076,12.57555l-0.21571,9.4512l1.57104,1.78803l1.98466,1.49573l1.02512,-1.77126c1.162,-3.935 5.13077,-8.99853 9.3251,-11.84986c3.11933,-2.12067 4.54058,-2.55774 8.42525,-2.55707c5.10533,0.001 9.3928,1.53075 13.97047,5.03975c2.88033,2.208 4.62689,5.91768 5.14122,10.58701l0.74581,2.28733l1.82416,-1.71174c1.12967,-1.713 11.733,-12.57465 13.373,-13.69832c0.609,-0.41733 1.37887,-1.88714 1.4672,-2.22447c0.45733,-1.74867 -2.82962,-7.92429 -4.57429,-8.61396c-0.67233,-0.26567 -2.29222,-0.50817 -4.36422,-0.2135c-5.719,0.81367 -6.16132,0.89479 -6.93732,0.11879c-0.61167,-0.61167 -0.20688,-0.29264 -0.20688,-2.88364c0,-2.5 0.14477,-3.27816 1.01244,-5.67549l1.05799,-3.06889l-1.26848,-2.31108c-2.013,-3.32133 -6.47857,-8.70116 -7.3359,-9.09183c-1.965,-0.89533 -9.42932,2.01999 -14.61132,5.80466c-3.975,2.90267 -4.66967,2.5563 -5.41067,-2.10103c-0.559,-3.513 -0.87259,-3.99547 -3.29459,-4.6748c-1.08033,-0.30333 -2.90913,-0.75374 -3.10913,-0.75374c-0.19967,0 -1.27913,1.05987 -1.7328,1.83887z" data-paper-data="{&quot;wickUUID&quot;:&quot;d39e29b7-e624-4476-adc5-4d06b5d45dcf&quot;,&quot;wickType&quot;:&quot;path&quot;,&quot;originalStyle&quot;:{&quot;strokeColor&quot;:null,&quot;fillColor&quot;:[&quot;Color&quot;,1,0.50196,0],&quot;strokeWidth&quot;:1}}" fill="#ff8000"/><path d="M438.11697,313.41594c-2.46467,0.80867 -9.83998,1.15789 -16.96731,0.80356l-6.70742,-0.32987l-1.37392,1.23618c-0.38967,0.459 -0.8872,1.40941 -1.08953,2.08441c-0.20233,0.67533 -0.75453,1.56611 -1.2972,2.08611l-1.10538,1.74842l1.7092,0.97195c3.351,1.66967 4.32792,3.55284 3.35492,6.89951c-0.475,1.634 -0.63281,1.6106 -3.18348,4.11327c-3.436,3.371 -4.78781,4.13908 -6.24614,3.58841c-0.758,-0.286 -0.91543,-0.3331 -1.82143,0.04557c-1.38667,0.57933 -3.68278,0.64521 -4.70011,0.12121c-0.40033,-0.20633 -0.67884,-0.52009 -1.10351,-0.90742l-1.37132,-0.88199l-1.29678,1.22308c-1.899,2.416 -4.10029,6.2364 -4.10029,6.93773c0,0.91333 3.30427,8.46677 3.8326,8.79344c0.192,0.11867 5.27384,0.37767 10.77517,0.42567l10.35159,0.0197l7.83591,-7.74374c4.15867,-4.156 7.85263,-8.0357 8.0563,-8.42237c0.366,-0.696 -0.25931,-1.97232 -3.34164,-1.81132c-2.813,0.14733 -2.99744,0.1831 -4.61644,-0.56957c-2.19067,-1.019 -5.34093,-3.80282 -6.11993,-5.44482c-0.72933,-1.537 -0.40487,-2.43319 0.8268,-3.88219c0.50333,-0.592 0.96859,-1.16728 1.29692,-1.68861c0.35,-0.556 1.24326,-1.19833 2.35059,-1.70233c1.03867,-0.473 1.96751,-1.03467 2.46151,-1.39634c1.29733,-0.95067 4.74158,-0.91219 6.56058,0.06581c0.73067,0.39267 1.15336,0.50045 1.54136,0.50045c1.78533,0 4.21373,2.78638 4.24806,4.90105c0.01467,0.88867 1.43441,0.29321 2.46108,-1.70679c1.13967,-2.22067 1.19443,-2.4967 1.10176,-6.00437l-0.16504,-4.01074z" data-paper-data="{&quot;wickUUID&quot;:&quot;97dd0652-4d42-4df5-a8af-5731538f659e&quot;,&quot;wickType&quot;:&quot;path&quot;,&quot;originalStyle&quot;:{&quot;strokeColor&quot;:null,&quot;fillColor&quot;:[&quot;Color&quot;,0.50196,0,1],&quot;strokeWidth&quot;:1}}" fill="#8000ff"/><path d="M410.18727,312.06122c-1.185,1.106 -3.493,3.822 -5.131,6.034c-1.637,2.212 -5.008,6.118 -7.491,8.68c-4.302,4.44 -5.952,6.459 -9.462,11.586c-1.357,1.982 -1.555,2.587 -1.555,4.761c0,2.1 0.308,3.123 1.961,6.52c1.122,2.305 2.551,4.548 3.339,5.24l1.378,1.21l9.364,0.312c6.576,0.218 9.362,0.456 9.358,0.796c-0.019,1.61 -0.739,2.523 -3.113,3.951c-1.429,0.859 -3.437,2.195 -4.462,2.968c-2.755,2.077 -10.77,5.84 -14.649,6.878c-4.427,1.184 -7.336,2.513 -7.646,3.492c-0.47,1.478 0.306,3.326 2.313,5.508c1.926,2.095 2.109,2.189 4.593,2.369c2.342,0.169 2.689,0.084 3.675,-0.901c1.248,-1.248 1.421,-3.065 0.468,-4.907l-0.619,-1.198l1.995,-0.744c3.592,-1.339 10.867,-5.115 13.017,-6.756c1.158,-0.884 3.071,-2.152 4.252,-2.819c1.18,-0.666 2.538,-1.641 3.017,-2.166c0.981,-1.078 2.064,-4.213 2.48,-7.176c0.249,-1.778 0.16,-2.105 -0.85,-3.114c-1.107,-1.108 -1.2,-1.123 -5.231,-0.876c-2.257,0.139 -6.851,0.111 -10.208,-0.061l-6.105,-0.314l-1.698,-3.388c-0.933,-1.863 -1.702,-3.967 -1.707,-4.675c-0.014,-1.795 3.145,-6.128 8.631,-11.838c2.461,-2.562 6.205,-6.944 8.319,-9.739c2.115,-2.795 4.633,-5.782 5.595,-6.638c1.283,-1.142 1.75,-1.881 1.75,-2.773c0,-2.947 -2.551,-3.049 -5.578,-0.222z" data-paper-data="{&quot;wickUUID&quot;:&quot;a333b079-c864-451c-b913-018eb8357d1c&quot;,&quot;wickType&quot;:&quot;path&quot;,&quot;originalStyle&quot;:{&quot;strokeColor&quot;:null,&quot;fillColor&quot;:[&quot;Color&quot;,0,0,0],&quot;strokeWidth&quot;:1}}" fill="#000000"/><path d="M384.07735,344.33322c-1.708,1.139 -4.725,2.978 -6.703,4.089c-5.774,3.24 -6.503,4.938 -3.422,7.971c0.989,0.974 2.275,2.112 2.858,2.528c0.804,0.576 0.912,0.812 0.447,0.988c-1.157,0.436 -2.564,2.185 -2.564,3.187c0,2.3 4.001,3.995 6.746,2.858c4.027,-1.669 3.413,-6.726 -1.307,-10.767c-1.974,-1.69 -1.986,-1.639 0.699,-3.087c2.192,-1.182 8.013,-5.025 8.787,-5.801c0.852,-0.853 0.98,-2.814 0.233,-3.561c-0.951,-0.951 -2.662,-0.478 -5.774,1.595z" data-paper-data="{&quot;wickUUID&quot;:&quot;65773dfc-bf61-4759-b220-2a700243faab&quot;,&quot;wickType&quot;:&quot;path&quot;,&quot;originalStyle&quot;:{&quot;strokeColor&quot;:null,&quot;fillColor&quot;:[&quot;Color&quot;,0,0,0],&quot;strokeWidth&quot;:1}}" fill="#000000"/><path d="M440.03386,310.1558c-0.186,0.291 -0.34,2.911 -0.342,5.822l-0.003,5.293l-2.036,4.097c-1.12,2.254 -2.865,5.397 -3.877,6.987c-2.192,3.438 -10.805,12.629 -16,17.072c-2.898,2.479 -3.705,3.409 -3.705,4.272c0,1.298 1.178,2.504 2.445,2.504c2.381,0 18.011,-15.7 21.635,-21.732c3.094,-5.152 5.796,-10.79 6.404,-13.365c0.671,-2.84 0.348,-8.314 -0.599,-10.144c-0.57,-1.103 -0.942,-1.335 -2.136,-1.335c-0.796,0 -1.599,0.238 -1.786,0.529z" data-paper-data="{&quot;wickUUID&quot;:&quot;4f3c207d-be34-4ce1-ab67-765afd11b814&quot;,&quot;wickType&quot;:&quot;path&quot;,&quot;originalStyle&quot;:{&quot;strokeColor&quot;:null,&quot;fillColor&quot;:[&quot;Color&quot;,0,0,0],&quot;strokeWidth&quot;:1}}" fill="#000000"/><path d="M422.96321,281.97371c-3.582,0.601 -6.285,2.206 -10.525,6.246c-4.205,4.008 -6.395,9.301 -6.403,15.479c-0.008,5.402 1.607,7.968 6.329,10.056c2.135,0.944 3.013,1.045 11.011,1.257c9.445,0.251 13.759,-0.163 16.553,-1.589c1.537,-0.784 2.608,-2.571 1.941,-3.239c-0.138,-0.137 0.133,-0.788 0.601,-1.446c1.18,-1.656 2.494,-5.639 2.791,-8.456c0.429,-4.079 -1.88,-10.217 -4.727,-12.564c-5.218,-4.301 -12.326,-6.624 -17.571,-5.744zM429.06821,287.25071c3.006,0.604 8.592,3.89 9.629,5.664c0.405,0.694 1.029,2.385 1.387,3.76c0.577,2.217 0.581,2.8 0.029,5.178c-0.823,3.548 -1.214,4.11 -4.428,6.369l-2.733,1.921l-8.7,-0.18c-12.473,-0.26 -13.363,-0.75 -13.066,-7.201c0.295,-6.413 2.227,-9.715 8.18,-13.98c2.874,-2.06 5.224,-2.43 9.702,-1.531z" data-paper-data="{&quot;wickUUID&quot;:&quot;93c4d985-1111-4c15-bc04-b13f08ca6fbd&quot;,&quot;wickType&quot;:&quot;path&quot;,&quot;originalStyle&quot;:{&quot;strokeColor&quot;:null,&quot;fillColor&quot;:[&quot;Color&quot;,0,0,0],&quot;strokeWidth&quot;:1}}" fill="#000000"/><path d="M419.57595,304.1223c-0.35,0.205 -1.154,0.482 -1.788,0.615c-1.561,0.328 -2.071,1.458 -1.741,3.863c0.388,2.832 1.3,3.616 3.839,3.305c2.992,-0.366 4.076,-1.712 3.824,-4.748c-0.133,-1.603 -0.432,-2.491 -0.974,-2.887c-0.88,-0.643 -2.212,-0.706 -3.16,-0.148z" data-paper-data="{&quot;wickUUID&quot;:&quot;9bad4850-9367-49ba-a554-3fcc21230863&quot;,&quot;wickType&quot;:&quot;path&quot;,&quot;originalStyle&quot;:{&quot;strokeColor&quot;:null,&quot;fillColor&quot;:[&quot;Color&quot;,0,0,0],&quot;strokeWidth&quot;:1}}" fill="#000000"/><path d="M432.30837,301.54934c-0.669,0.716 -1.587,1.303 -2.04,1.303c-1.05,0 -2.224,1.286 -2.224,2.437c0,1.007 0.889,2.042 2.077,2.419c0.442,0.14 0.92,0.722 1.063,1.292c0.307,1.225 2.107,1.837 3.269,1.112c0.428,-0.267 1.506,-0.486 2.396,-0.486c2.468,0 3.723,-1.359 3.015,-3.264c-0.21,-0.566 -0.898,-1.078 -1.741,-1.296c-1.188,-0.308 -1.431,-0.594 -1.65,-1.945c-0.288,-1.77 -0.589,-2.161 -1.984,-2.583c-0.746,-0.226 -1.239,0.003 -2.181,1.011z" data-paper-data="{&quot;wickUUID&quot;:&quot;c5c57202-eea9-440a-b2a5-c63530c2bfaf&quot;,&quot;wickType&quot;:&quot;path&quot;,&quot;originalStyle&quot;:{&quot;strokeColor&quot;:null,&quot;fillColor&quot;:[&quot;Color&quot;,0,0,0],&quot;strokeWidth&quot;:1}}" fill="#000000"/><path d="M409.74702,245.16062c-1.299,1.381 -6.955,12.562 -7.808,15.435c-0.328,1.104 -1.094,4.633 -1.702,7.841c-0.968,5.108 -1.129,7.239 -1.297,17.127l-0.192,11.292l1.817,2.045c4.083,4.595 6.962,7.339 7.7,7.339c1.501,0 2.419,-0.824 2.419,-2.17c0,-1.032 -0.691,-2.037 -3.407,-4.961l-3.407,-3.667l0.162,-10.797c0.162,-10.817 0.345,-12.515 2.259,-20.959c0.413,-1.819 1.753,-5.06 3.471,-8.388c2.446,-4.741 2.907,-5.391 3.66,-5.158c0.473,0.147 1.718,0.503 2.766,0.791c1.763,0.485 1.943,0.665 2.401,2.405c0.272,1.035 0.51,2.566 0.529,3.403c0.039,1.712 1.08,2.924 2.512,2.924c0.511,0 1.741,-0.749 2.735,-1.665c2.03,-1.871 8.588,-5.294 11.374,-5.937c3.694,-0.852 3.613,-0.901 7.741,4.745c2.086,2.852 3.774,5.472 3.752,5.821c-0.022,0.349 -0.533,1.778 -1.135,3.176c-0.838,1.941 -1.098,3.262 -1.106,5.6c-0.009,2.835 0.071,3.114 1.093,3.783c0.987,0.647 1.356,0.664 3.494,0.16c3.426,-0.808 6.619,-1.009 7.609,-0.479c1.225,0.656 3.803,5.087 4.103,7.052c0.236,1.545 0.149,1.738 -1.187,2.63c-2.033,1.357 -10.362,9.698 -12.407,12.425c-6.115,8.151 -6.949,9.411 -6.949,10.491c0,0.63 1.049,4.375 2.331,8.323c2.232,6.874 4.328,15.267 3.915,15.68c-0.253,0.253 -5.897,-0.639 -8.363,-1.322c-1.271,-0.352 -1.843,-0.719 -1.716,-1.102c0.56,-1.701 0.469,-5.441 -0.162,-6.66c-0.732,-1.416 -2.595,-2.595 -4.102,-2.595c-0.517,0 -1.308,-0.333 -1.759,-0.741c-1.28,-1.158 -5.437,-1.028 -6.757,0.212c-0.557,0.524 -1.287,0.953 -1.622,0.954c-1.067,0.003 -3.273,1.6 -3.591,2.6c-0.168,0.531 -0.757,1.32 -1.308,1.753c-0.752,0.592 -1.001,1.206 -1.001,2.469c0,1.42 0.31,2.013 1.996,3.816c3.892,4.16 7.645,5.379 12.177,3.954c2.354,-0.741 2.497,-0.737 6.502,0.149c9.52,2.107 11.453,2.147 13.216,0.27c2.096,-2.231 1.562,-6.796 -2.228,-19.035c-1.153,-3.726 -2.19,-7.16 -2.303,-7.63c-0.132,-0.548 0.279,-1.462 1.143,-2.541c0.742,-0.927 2.127,-2.828 3.078,-4.225c2.35,-3.452 9.563,-10.836 13.308,-13.624c1.768,-1.315 3.17,-2.698 3.312,-3.266c0.341,-1.356 -1.362,-6.742 -3.025,-9.567c-3.028,-5.147 -6.678,-6.814 -12.14,-5.546c-0.875,0.203 -1.672,0.238 -1.771,0.077c-0.283,-0.458 1.408,-3.958 2.324,-4.811c1.71,-1.593 1.154,-3.07 -3.599,-9.558c-2.433,-3.322 -4.543,-6.414 -4.688,-6.871c-1.022,-3.222 -8.714,-2.522 -16.452,1.498c-2.066,1.073 -3.791,1.896 -3.833,1.828c-0.042,-0.068 -0.441,-0.962 -0.887,-1.986c-0.787,-1.808 -2.68,-3.426 -4.013,-3.43c-0.349,-0.001 -1.843,-0.573 -3.32,-1.272c-3.317,-1.569 -4.268,-1.587 -5.662,-0.105z" data-paper-data="{&quot;wickUUID&quot;:&quot;c94107c5-803a-44b3-a165-e7cd459b7108&quot;,&quot;wickType&quot;:&quot;path&quot;,&quot;originalStyle&quot;:{&quot;strokeColor&quot;:null,&quot;fillColor&quot;:[&quot;Color&quot;,0,0,0],&quot;strokeWidth&quot;:1}}" fill="#000000"/><path d="M406.19871,313.28019c-0.902,0.612 -2.691,2.186 -3.976,3.499c-1.297,1.325 -3.452,2.941 -4.843,3.632c-7.002,3.479 -9.749,8.146 -6.629,11.266c0.68,0.681 1.527,1.238 1.88,1.238c0.354,0 1.655,0.973 2.891,2.163c3.15,3.031 5.127,3.619 7.684,2.285c0.903,-0.47 1.414,-0.514 2.051,-0.173c1.383,0.741 2.731,0.097 5.966,-2.847c3.383,-3.077 4.514,-4.986 4.531,-7.641c0.014,-2.163 -1.28,-3.872 -3.787,-5.003l-1.735,-0.782l1.285,-1.325c2.032,-2.097 1.427,-5.403 -1.242,-6.783c-1.691,-0.874 -2.177,-0.818 -4.076,0.471zM405.38171,321.89019c0.434,0.704 -2.819,5.229 -3.327,4.628c-0.078,-0.092 -0.255,-0.766 -0.394,-1.498c-0.225,-1.183 -0.078,-1.452 1.315,-2.409c1.768,-1.215 2.049,-1.299 2.406,-0.721z" data-paper-data="{&quot;wickUUID&quot;:&quot;e9165949-5e83-47aa-b36a-4e17095854da&quot;,&quot;wickType&quot;:&quot;path&quot;,&quot;originalStyle&quot;:{&quot;strokeColor&quot;:null,&quot;fillColor&quot;:[&quot;Color&quot;,0,0,0],&quot;strokeWidth&quot;:1}}" fill="#000000"/><path d="M410.26025,309.88641c-0.815,0.358 -2.842,1.086 -4.505,1.617c-4.083,1.307 -10.171,4.661 -12.114,6.675c-1.334,1.383 -1.588,1.938 -1.588,3.468c0,2.085 0.928,3.223 2.628,3.223c1.266,0 1.743,-0.51 2.408,-2.577c0.425,-1.32 1.001,-1.799 4.395,-3.654c2.149,-1.174 5.579,-2.657 7.622,-3.297c5.527,-1.73 6.979,-3.278 4.965,-5.291c-1.004,-1.004 -1.816,-1.039 -3.811,-0.164z" data-paper-data="{&quot;wickUUID&quot;:&quot;d11dc90c-a5a3-4cc2-ba8b-0d518de15960&quot;,&quot;wickType&quot;:&quot;path&quot;,&quot;originalStyle&quot;:{&quot;strokeColor&quot;:null,&quot;fillColor&quot;:[&quot;Color&quot;,0,0,0],&quot;strokeWidth&quot;:1}}" fill="#000000"/></g><g fill="none" fill-rule="nonzero" stroke="none" stroke-width="1" stroke-linecap="butt" stroke-linejoin="miter" stroke-miterlimit="10" stroke-dasharray="" stroke-dashoffset="0" font-family="sans-serif" font-weight="normal" font-size="12" text-anchor="start" style="mix-blend-mode: normal"/><g id="wick_project_gui" fill="none" fill-rule="nonzero" stroke="none" stroke-width="1" stroke-linecap="butt" stroke-linejoin="miter" stroke-miterlimit="10" stroke-dasharray="" stroke-dashoffset="0" font-family="sans-serif" font-weight="normal" font-size="12" text-anchor="start" style="mix-blend-mode: normal"/></g></svg>