<svg version="1.1" xmlns="http://www.w3.org/2000/svg" xmlns:xlink="http://www.w3.org/1999/xlink" width="1260" height="594" viewBox="0,0,1260,594"><g transform="translate(-91.70217,-330.66282) scale(1.72369,1.72369)"><g id="wick_project_bg" fill-opacity="0" fill="#ffffff" fill-rule="nonzero" stroke="none" stroke-width="1" stroke-linecap="butt" stroke-linejoin="miter" stroke-miterlimit="10" stroke-dasharray="" stroke-dashoffset="0" font-family="none" font-weight="none" font-size="none" text-anchor="none" style="mix-blend-mode: normal"><rect x="0" y="0" width="720" height="480"/></g><g data-paper-data="{&quot;wickUUID&quot;:&quot;04ced940-ff76-43e1-91bf-93bf926100ac&quot;,&quot;wickType&quot;:&quot;clipsandpaths&quot;}" fill="none" fill-rule="evenodd" stroke="none" stroke-width="1" stroke-linecap="butt" stroke-linejoin="miter" stroke-miterlimit="10" stroke-dasharray="" stroke-dashoffset="0" font-family="none" font-weight="none" font-size="none" text-anchor="none" style="mix-blend-mode: normal"><path d="M358.69702,293.72111c-3.684,1.369 -9.34325,5.23407 -9.34325,6.3604c0,0.15333 0.79952,2.41255 1.73819,3.62822c1.47867,1.91567 1.9496,2.29975 2.88127,2.29975c1.03733,0 2.33412,0.9155 2.33412,1.66217c0,0.35767 2.39088,0.66174 3.71055,0.66174c0.709,0 1.05966,-0.68026 1.26033,-4.26993c0.19833,-3.54567 0.90434,-8.65156 1.40634,-9.93289c0.30133,-0.77 -1.43022,-1.35979 -3.98755,-0.40946z" data-paper-data="{&quot;wickUUID&quot;:&quot;e0515f68-f257-4126-b097-5eca979557b7&quot;,&quot;wickType&quot;:&quot;path&quot;,&quot;originalStyle&quot;:{&quot;strokeColor&quot;:null,&quot;fillColor&quot;:[&quot;Color&quot;,1,1,1],&quot;strokeWidth&quot;:1}}" fill="#ffffff"/><path d="M365.70668,296.10543c-0.29033,1.611 -0.68336,4.29739 -0.87036,5.94739c-0.187,1.65 -0.42988,3.66842 -0.53821,4.47375l0.28643,2.33904l3.47921,-0.11777c3.429,-0.209 3.97074,-0.37568 4.40941,-1.37535c0.255,-0.581 0.90065,-0.88399 2.98398,-1.39766l3.09535,-1.00271l0.19387,-4.0966c0.035,-2.02167 0.1465,-4.29911 0.2555,-4.88611c0.18767,-1.009 -0.47892,-1.79249 -1.67225,-2.11082c-1.38967,-0.37067 -4.92542,-0.9049 -8.09275,-1.2129l-2.78164,0.05987z" data-paper-data="{&quot;wickUUID&quot;:&quot;991283ec-ba4c-44f3-98f2-b88bdd0a66e8&quot;,&quot;wickType&quot;:&quot;path&quot;,&quot;originalStyle&quot;:{&quot;strokeColor&quot;:null,&quot;fillColor&quot;:[&quot;Color&quot;,1,1,1],&quot;strokeWidth&quot;:1}}" fill="#ffffff"/><path d="M382.08236,299.73515c-0.07367,1.69033 0.23388,3.82575 0.28021,3.89308c0.04633,0.067 2.07089,-0.57357 3.27189,-1.45524l2.46226,-1.92647l-1.13368,-1.99294c-0.50433,-0.53133 -1.54154,-1.30537 -2.21121,-1.6497l-2.43035,-0.32793z" data-paper-data="{&quot;wickUUID&quot;:&quot;62844e5a-aa9d-49c0-9731-1b21068171f1&quot;,&quot;wickType&quot;:&quot;path&quot;,&quot;originalStyle&quot;:{&quot;strokeColor&quot;:null,&quot;fillColor&quot;:[&quot;Color&quot;,1,1,1],&quot;strokeWidth&quot;:1}}" fill="#ffffff"/><path d="M380.39223,272.23459c-5.08167,2.55933 -4.96062,4.21619 0.55938,7.22219c1.589,0.86533 3.69937,2.45746 4.18404,3.03379c0.897,1.06567 2.73392,1.22821 4.36492,0.71054c0.66433,-0.211 1.08203,-1.1638 0.9577,-4.2008c-0.11567,-2.823 -0.39398,-3.81565 -1.18165,-4.97032c-1.02333,-1.49967 -3.81366,-3.51668 -4.85166,-3.51535c-0.385,0.00067 -2.76906,1.08328 -4.03273,1.71995z" data-paper-data="{&quot;wickUUID&quot;:&quot;19d87f35-d81f-43de-855e-3678473b8815&quot;,&quot;wickType&quot;:&quot;path&quot;,&quot;originalStyle&quot;:{&quot;strokeColor&quot;:null,&quot;fillColor&quot;:[&quot;Color&quot;,1,1,1],&quot;strokeWidth&quot;:1}}" fill="#ffffff"/><path d="M356.39021,273.28698c-0.923,0.22433 -2.62446,1.45013 -2.86546,1.59913c-1.064,0.65767 1.17776,4.71568 3.10843,5.71401c1.799,0.93033 5.90004,0.09803 7.05137,-1.28964c0.51733,-0.623 -1.86228,-5.14601 -3.19161,-5.83334c-1.10467,-0.57133 -1.86306,-0.73449 -4.10273,-0.19016z" data-paper-data="{&quot;wickUUID&quot;:&quot;88f42efe-6a3d-4ff3-8b5e-059194a58ba1&quot;,&quot;wickType&quot;:&quot;path&quot;,&quot;originalStyle&quot;:{&quot;strokeColor&quot;:null,&quot;fillColor&quot;:[&quot;Color&quot;,1,1,1],&quot;strokeWidth&quot;:1}}" fill="#ffffff"/><path d="M363.0345,256.51966c-5.37367,0.85433 -10.62238,3.06787 -13.49205,5.6482c-2.04933,1.84233 -3.76972,4.97918 -4.48505,8.43485c-0.27767,1.34133 -0.08069,3.75786 -0.08069,4.01719c0,0.25933 1.76777,-0.6271 3.11244,-1.99377c3.74167,-3.80267 4.96524,-4.20136 11.27257,-3.43169c4.31367,0.52633 5.19681,0.92938 6.94381,2.87238c1.46667,1.63133 1.17843,1.03491 1.17843,3.15924c0,3.93133 -0.30845,5.72288 -1.66778,7.23188c-2.17933,2.42 -5.6429,3.3717 -9.81857,2.75203c-3.02767,-0.44933 -6.84196,-2.34551 -9.07596,-4.42584l-2.80167,-1.08068l0.13017,5.33599c0.19167,4.971 1.031,9.76308 1.825,10.60841c0.36867,0.39233 1.90876,0.59809 3.53643,-0.85258c2.08967,-1.86233 6.83967,-4.41396 9.24734,-4.93663c2.683,-0.583 9.34307,-0.77292 13.4914,-0.38459c7.397,0.693 12.90755,2.61643 16.91755,5.8831c1.8,1.466 2.33678,1.54507 2.77645,0.94474c0.254,-0.347 1.03325,-1.49895 0.93325,-1.89895c-0.251,-1.00167 0.27866,-2.24792 1.82266,-4.29325c0.87867,-1.16433 1.51405,-2.53849 1.84572,-3.94382c0.64767,-2.74733 -0.3738,-4.34013 -1.05747,-3.3178c-2.11333,3.16 -4.05131,4.1409 -8.09498,4.1689l-2.51246,-0.00257l-3.74326,-1.87294c-3.30567,-1.642 -3.98956,-1.91155 -5.95256,-3.88688c-4.82867,-4.85933 -4.73891,-6.52001 0.69676,-11.00501c2.958,-2.44067 4.3905,-2.97261 7.28583,-3.23861c2.934,-0.26967 6.47511,0.46696 8.29078,1.66829c0.71833,0.47533 2.36896,-0.33378 2.45563,-0.42078c0.33833,-0.33833 -2.3035,-4.77425 -3.71217,-6.28058c-1.913,-2.045 -3.71033,-2.80541 -10.411,-4.30174c-4.496,-1.004 -6.48572,-1.2777 -10.16439,-1.3727c-2.475,-0.064 -5.64983,0.05054 -6.69216,0.21621z" data-paper-data="{&quot;wickUUID&quot;:&quot;db8aa479-c801-44ab-bf4d-688cda74fa36&quot;,&quot;wickType&quot;:&quot;path&quot;,&quot;originalStyle&quot;:{&quot;strokeColor&quot;:null,&quot;fillColor&quot;:[&quot;Color&quot;,1,1,1],&quot;strokeWidth&quot;:1}}" fill="#ffffff"/><path d="M391.99031,301.6201c-1.74233,1.717 -3.27109,3.80733 -3.11109,3.80733c0.66233,0 3.34763,3.07524 3.73863,4.20891c0.25567,0.74167 0.34698,2.44655 0.30631,4.53122c-0.081,4.126 0.41314,5.31623 3.32347,8.29023c1.67867,1.71533 2.69273,2.39329 4.81673,3.03829c2.12067,0.64433 3.29956,0.74549 6.36523,0.57316c5.31167,-0.299 15.06488,-2.93633 14.73488,-3.92666c-0.21867,-0.65533 -2.76828,-2.2467 -10.36261,-2.1267c-7.78067,0.12333 -10.04404,-0.01368 -11.10271,-0.97168c-0.986,-0.89233 -0.3492,-0.87265 1.62013,-3.74865c1.02233,-1.49267 1.96259,-3.74068 2.06026,-4.34168c0.315,-1.941 -1.76332,-5.50288 -6.06332,-10.28621l-2.72719,-2.40906z" data-paper-data="{&quot;wickUUID&quot;:&quot;18e6528e-b1ff-4440-8b8d-cbc4036bfb90&quot;,&quot;wickType&quot;:&quot;path&quot;,&quot;originalStyle&quot;:{&quot;strokeColor&quot;:null,&quot;fillColor&quot;:[&quot;Color&quot;,1,0.50196,0],&quot;strokeWidth&quot;:1}}" fill="#ff8000"/><path d="M413.95163,213.40123c-0.00167,0.13767 -0.54819,2.1773 -0.23652,3.3933c0.53633,2.09267 1.09048,1.3764 0.54048,2.21607c-1.00033,1.52667 -1.45782,1.55313 -12.01182,1.30613c-16.003,-0.37467 -26.05186,0.67378 -31.17386,3.24678c-1.02367,0.51433 -2.0412,1.45041 -2.88353,3.23774l-1.18557,2.59139l-0.21131,7.68666c-0.22133,8.12567 -0.26764,9.62166 -1.44631,10.44733c-1.42933,1.00133 -3.44371,0.34279 -7.47671,-1.70088c-2.366,-1.199 -2.45592,-1.73826 -2.16825,-5.48326l0.07103,-3.08126l-3.12229,-0.73779c-4.13967,-0.661 -9.5257,-1.93866 -12.1227,-2.87533c-1.309,-0.47233 -3.19355,-0.6939 -3.41822,-0.60757c-0.22467,0.086 -1.08602,2.26994 -1.41469,3.79861c-0.678,3.15567 -0.73794,3.08438 2.31406,4.95938c0.84667,0.52 1.93583,1.4557 2.46416,2.1487c0.86667,1.13767 0.85078,0.99016 0.83878,3.26916c-0.01167,2.233 -0.26487,3.21201 -2.38654,9.49668c-4.29267,12.715 -6.42516,20.21394 -6.42849,22.52227c-0.00133,1.00567 0.61741,2.28475 3.41774,5.41975l4.59676,3.6355l0.37134,-8.54903c0.22633,-9.10833 0.55928,-11.09235 2.68395,-15.30268c1.50133,-2.97533 2.85398,-4.49395 5.94898,-6.63328c5.587,-3.86233 8.35576,-4.61714 17.61043,-4.84881c5.88467,-0.14767 6.69084,-0.08713 11.06651,0.67154c5.66133,0.98167 9.98548,2.15048 11.89681,3.26615c2.40767,1.40567 4.99688,4.513 6.60421,7.89067c2.128,4.47133 4.16122,12.21061 4.16122,15.78894c0,1.09767 0.15827,1.39767 0.9566,1.596c2.326,0.57733 3.18951,2.62103 3.77784,8.96636c0.699,7.53833 1.114,8.1452 6.639,10.83553c4.73067,2.30333 8.08817,3.51423 10.24784,3.62723c1.53833,0.08067 2.19542,-0.14499 4.30042,-2.54099c1.16667,-1.32767 2.33335,-2.8507 2.33335,-3.03537c0,-0.18467 -0.76922,-1.47571 -1.15955,-1.47571c-0.39033,0 -2.0221,-0.64239 -3.7511,-1.48906c-2.401,-1.176 -3.52074,-1.93965 -5.39574,-3.76065c-2.55167,-2.47833 -2.95964,-3.02939 -2.35597,-4.35406c0.19267,-0.423 1.57127,-1.45213 3.31127,-2.8518c3.56567,-2.868 5.58132,-5.75299 5.25065,-7.07566c-0.30867,-1.234 -2.96631,-6.86517 -4.90298,-10.21717c-2.866,-4.96067 -4.5422,-7.34733 -7.3592,-10.46633c-1.49033,-1.65 -2.82875,-3.27371 -3.09842,-3.83204c-0.26967,-0.55833 -0.75687,-3.43891 -1.15287,-6.68591c-0.677,-5.55033 -0.9057,-5.29625 -0.38103,-6.09692c0.78833,-1.20333 2.39581,-1.7173 9.37914,-3.46463l6.24997,-1.58978l0.41882,-2.75174c0,-7.32833 -1.9514,-14.56464 -4.7744,-17.78031c-1.45133,-1.65267 -5.42296,-3.67285 -5.43329,-2.72985z" data-paper-data="{&quot;wickUUID&quot;:&quot;eff0e46c-3250-478b-a7ba-5f98eddceb1d&quot;,&quot;wickType&quot;:&quot;path&quot;,&quot;originalStyle&quot;:{&quot;strokeColor&quot;:null,&quot;fillColor&quot;:[&quot;Color&quot;,1,0.50196,0],&quot;strokeWidth&quot;:1}}" fill="#ff8000"/><path d="M368.05455,325.0939l-1.9206,1.48477l1.53207,1.07291c0.735,0.266 1.42608,0.83865 1.70408,1.46732c0.51033,1.15267 1.20512,1.04536 3.35379,0.40736c2.704,-0.803 2.73869,-2.59437 0.24169,-3.82604c-2.46567,-1.21567 -3.40036,-1.41165 -4.91103,-0.60632z" data-paper-data="{&quot;wickUUID&quot;:&quot;6f21348b-8e8e-45f8-bba1-044542ef0dc9&quot;,&quot;wickType&quot;:&quot;path&quot;,&quot;originalStyle&quot;:{&quot;strokeColor&quot;:null,&quot;fillColor&quot;:[&quot;Color&quot;,0.50196,0,1],&quot;strokeWidth&quot;:1}}" fill="#8000ff"/><path d="M382.09756,309.71734c-2.13633,1.434 -9.94746,2.56443 -17.63379,2.55743c-5.68967,-0.00533 -8.62419,-0.39125 -10.48986,-1.34925c-0.85067,-0.43667 -1.92854,0.23137 -2.50021,0.7487c-0.923,0.83533 -0.75432,1.79027 0.91135,3.6656c0.82233,0.926 1.60415,2.13807 1.71115,2.6394c0.392,1.83367 1.4032,4.02294 1.87587,4.20427c0.27767,0.10667 1.87157,-0.09567 2.48824,-0.69334c0.92633,-0.898 1.22801,-1.01026 2.71968,-1.01026c0.95367,0 1.81442,-0.18128 1.81442,-0.36728c0,-0.53033 1.59125,-1.60716 2.56792,-1.60849c0.92067,-0.00133 3.92902,1.3145 8.81302,3.81017c1.58033,0.80767 4.14633,1.26894 4.54066,1.26894c1.52567,0 3.75883,-4.95066 4.5765,-10.25566c0.44433,-2.88333 -0.43395,-4.25556 -1.39495,-3.61023z" data-paper-data="{&quot;wickUUID&quot;:&quot;b0ad1de1-de41-4dd2-b2da-ee852799a97f&quot;,&quot;wickType&quot;:&quot;path&quot;,&quot;originalStyle&quot;:{&quot;strokeColor&quot;:null,&quot;fillColor&quot;:[&quot;Color&quot;,0.50196,0,1],&quot;strokeWidth&quot;:1}}" fill="#8000ff"/><path d="M358.92477,252.81634c-4.131,0.821 -6.258,1.854 -11.347,5.512c-3.441,2.472 -6.139,7.587 -7.043,13.351c-1.341,8.544 -0.271,22.387 2.085,26.98c3.557,6.933 8.563,12.33 12.531,13.508c6.358,1.889 23.449,0.693 27.115,-1.896c11.676,-8.247 15.134,-12 17.646,-19.155c2.063,-5.875 2.171,-11.54 0.35,-18.371c-1.792,-6.724 -3.668,-10.652 -6.566,-13.748c-2.824,-3.016 -4.465,-3.744 -12.484,-5.542c-7.89,-1.769 -15.509,-1.987 -22.287,-0.639zM377.77077,257.87034c3.086,0.648 6.675,1.485 7.975,1.858c4.573,1.313 8.024,6.737 10.024,15.755c1.061,4.785 1.127,5.989 0.518,9.386c-0.906,5.061 -3.683,10.825 -6.253,12.98c-6.37,5.343 -7.115,5.787 -11.062,6.59c-6.42,1.306 -6.682,1.396 -6.682,2.298c0,1.244 -3.429,1.719 -9.946,1.378c-4.564,-0.239 -6,-0.552 -7.622,-1.664c-1.853,-1.269 -5.604,-6 -7.539,-9.508c-3.292,-5.967 -3.294,-24.35 -0.004,-30.799c2.055,-4.029 7.776,-7.541 14.019,-8.608c6.222,-1.063 10.32,-0.981 16.572,0.334z" data-paper-data="{&quot;wickUUID&quot;:&quot;51f39a42-bb08-469d-a402-d9163c2a6e2e&quot;,&quot;wickType&quot;:&quot;path&quot;,&quot;originalStyle&quot;:{&quot;strokeColor&quot;:null,&quot;fillColor&quot;:[&quot;Color&quot;,0,0,0],&quot;strokeWidth&quot;:1}}" fill="#000000"/><path d="M358.1203,289.32283c-6.23,1.949 -12.287,6.786 -13.093,10.456c-0.479,2.182 0.515,4.277 2.029,4.277c1.344,0 2.156,-0.958 2.683,-3.166c0.469,-1.958 5.682,-5.56 9.874,-6.822c7.694,-2.315 23.339,0.476 27.135,4.841c1.491,1.715 3.593,2.018 4.704,0.679c2.699,-3.252 -6.354,-9.303 -15.744,-10.523c-6.056,-0.787 -14.652,-0.661 -17.588,0.258z" data-paper-data="{&quot;wickUUID&quot;:&quot;831315be-0b78-49b1-b645-9ff59d200dad&quot;,&quot;wickType&quot;:&quot;path&quot;,&quot;originalStyle&quot;:{&quot;strokeColor&quot;:null,&quot;fillColor&quot;:[&quot;Color&quot;,0,0,0],&quot;strokeWidth&quot;:1}}" fill="#000000"/><path d="M378.98839,291.91409c-0.296,0.577 -0.702,3.669 -0.902,6.87c-0.3,4.788 -0.201,5.985 0.56,6.745c1.174,1.175 2.282,1.175 3.256,0.003c1.097,-1.323 1.577,-12.567 0.587,-13.76c-1.014,-1.221 -2.839,-1.147 -3.501,0.142z" data-paper-data="{&quot;wickUUID&quot;:&quot;371b5832-f14b-4563-bb30-3d39468dab1c&quot;,&quot;wickType&quot;:&quot;path&quot;,&quot;originalStyle&quot;:{&quot;strokeColor&quot;:null,&quot;fillColor&quot;:[&quot;Color&quot;,0,0,0],&quot;strokeWidth&quot;:1}}" fill="#000000"/><path d="M362.37,293.31665c-1.106,2.139 -2.407,12.318 -1.855,14.517c0.44,1.753 1.842,2.442 3.34,1.64c0.848,-0.454 1.16,-1.676 1.492,-5.844c0.232,-2.898 0.707,-6.418 1.056,-7.82c0.481,-1.932 0.454,-2.768 -0.11,-3.448c-1.21,-1.457 -2.887,-1.049 -3.923,0.955z" data-paper-data="{&quot;wickUUID&quot;:&quot;13a63d14-088a-4a38-a10f-fd0cdf9c14b9&quot;,&quot;wickType&quot;:&quot;path&quot;,&quot;originalStyle&quot;:{&quot;strokeColor&quot;:null,&quot;fillColor&quot;:[&quot;Color&quot;,0,0,0],&quot;strokeWidth&quot;:1}}" fill="#000000"/><path d="M351.0053,269.14261c-0.989,0.63 -2.81,2.269 -4.047,3.642c-3.996,4.436 -2.755,8.203 3.791,11.507c4.271,2.156 9.055,2.384 12.949,0.616c3.027,-1.375 3.894,-2.835 4.461,-7.511c0.369,-3.048 0.257,-3.823 -0.763,-5.255c-1.784,-2.505 -4.07,-3.409 -9.603,-3.796c-4.267,-0.298 -5.249,-0.183 -6.788,0.797zM360.3323,274.09461c0.976,0.523 2.965,3.478 2.965,4.407c0,0.957 -2.184,2.171 -3.907,2.171c-2.4,0 -4.87,-1.966 -5.421,-4.315c-0.339,-1.443 -0.163,-1.679 1.626,-2.194c2.71,-0.781 3.388,-0.79 4.737,-0.069z" data-paper-data="{&quot;wickUUID&quot;:&quot;44c8d0de-c6f4-45bf-a41c-0f545dfabb9e&quot;,&quot;wickType&quot;:&quot;path&quot;,&quot;originalStyle&quot;:{&quot;strokeColor&quot;:null,&quot;fillColor&quot;:[&quot;Color&quot;,0,0,0],&quot;strokeWidth&quot;:1}}" fill="#000000"/><path d="M378.88539,267.34191c-1.154,0.567 -3.38,2.265 -4.946,3.773c-3.64,3.504 -3.755,5.264 -0.6,9.198c1.617,2.015 3.596,3.485 7.045,5.231c4.291,2.171 5.159,2.402 8.236,2.188c3.904,-0.272 5.559,-1.447 8.083,-5.739c1.242,-2.112 1.463,-3.118 1.226,-5.584c-0.238,-2.481 -0.697,-3.43 -2.621,-5.419c-1.283,-1.325 -3.334,-2.927 -4.558,-3.559c-2.878,-1.486 -8.93,-1.532 -11.865,-0.089zM387.63939,273.11791c1.745,1.745 2.051,2.479 2.128,5.096c0.05,1.682 0.117,3.395 0.15,3.808c0.034,0.421 -0.777,0.83 -1.849,0.934c-1.393,0.135 -2.075,-0.126 -2.525,-0.968c-0.34,-0.634 -2.083,-1.87 -3.875,-2.747c-4.06,-1.986 -4.879,-2.889 -4.041,-4.455c0.697,-1.301 5.149,-3.705 6.864,-3.706c0.61,0 2.027,0.917 3.148,2.038z" data-paper-data="{&quot;wickUUID&quot;:&quot;c14fbff1-d0b8-4101-bb81-7f964a6a9396&quot;,&quot;wickType&quot;:&quot;path&quot;,&quot;originalStyle&quot;:{&quot;strokeColor&quot;:null,&quot;fillColor&quot;:[&quot;Color&quot;,0,0,0],&quot;strokeWidth&quot;:1}}" fill="#000000"/><path d="M407.4079,209.06707c-1.248,1.248 -1.188,2.181 0.257,4.018c2.524,3.209 2.139,3.342 -8.684,2.984c-14.688,-0.485 -26.367,1.196 -31.872,4.589c-2.955,1.821 -4.747,8.104 -4.592,16.096c0.087,4.449 -0.079,6.143 -0.599,6.137c-1.546,-0.02 -1.992,-1.026 -1.956,-4.413c0.049,-4.634 -1.013,-5.447 -8.656,-6.625c-3.133,-0.483 -7.855,-1.702 -10.493,-2.708c-2.638,-1.006 -5.249,-1.831 -5.803,-1.832c-1.828,-0.004 -2.89,1.736 -2.89,4.731c0,1.566 -0.433,4.117 -0.961,5.667c-1.355,3.977 -0.855,5.22 2.796,6.95c1.697,0.803 3.225,1.826 3.397,2.274c0.171,0.447 -1.06,4.916 -2.736,9.93c-1.676,5.015 -4.006,12.331 -5.177,16.259c-2.044,6.859 -2.088,7.202 -1.118,8.694c3.2,4.919 16.759,19.24 18.217,19.24c1.255,0 2.369,-1.195 2.369,-2.541c0,-0.605 -3.407,-4.666 -7.573,-9.023c-4.165,-4.357 -7.83,-8.485 -8.145,-9.172c-0.607,-1.326 2.608,-12.901 6.985,-25.147c1.176,-3.289 2.138,-6.866 2.138,-7.949c0,-2.632 -1.476,-4.737 -4.347,-6.202c-1.957,-0.998 -2.3,-1.432 -1.984,-2.513c0.21,-0.719 0.542,-2.184 0.737,-3.256c0.195,-1.071 0.522,-1.948 0.726,-1.948c0.204,0 1.855,0.568 3.669,1.262c2.616,1 11.738,2.921 13.928,2.932c0.241,0.002 0.275,1.198 0.075,2.658c-0.635,4.627 -0.122,5.44 4.564,7.23c6.942,2.653 7.895,1.467 7.708,-9.586c-0.104,-6.089 0.068,-7.655 1.117,-10.192c1.087,-2.629 1.583,-3.127 4.029,-4.043c5.448,-2.041 16.399,-3.008 28.881,-2.55c10.247,0.377 11.541,0.316 12.441,-0.583c1.181,-1.182 1.233,-1.878 0.335,-4.457c-0.882,-2.529 -0.324,-2.941 2.165,-1.601c4.172,2.247 6.629,8.252 7.006,17.126l0.191,4.492l-7.26,1.81c-9.049,2.256 -9.504,2.591 -8.927,6.574c0.241,1.66 0.615,4.702 0.831,6.761c0.376,3.576 0.557,3.911 4.049,7.494c2.61,2.679 4.878,5.992 7.931,11.586c2.351,4.309 4.276,8.388 4.276,9.063c0,1.701 -1.96,4.025 -5.765,6.836c-2.001,1.479 -3.229,2.834 -3.229,3.564c0,1.925 4.232,6.04 8.094,7.87c1.979,0.938 3.935,1.705 4.347,1.705c1.199,0.001 0.855,0.73 -1.653,3.502l-2.353,2.603l-3.1,-0.665c-1.704,-0.366 -5.342,-1.761 -8.084,-3.1c-5.685,-2.777 -5.907,-3.146 -6.47,-10.736c-0.444,-5.988 -1.292,-8.298 -3.225,-8.783c-1.865,-0.468 -3.189,0.283 -4.227,2.396c-0.43,0.876 -1.028,1.593 -1.33,1.593c-0.301,0 -1.659,1.505 -3.018,3.345c-1.778,2.406 -2.371,3.709 -2.116,4.646c0.195,0.717 2.405,3.596 4.912,6.399c7.335,8.204 8.03,10.501 4.424,14.608c-0.984,1.121 -1.79,2.6 -1.79,3.287c0,2.271 1.957,2.658 12.233,2.416c8.398,-0.197 9.652,-0.105 9.814,0.718c0.144,0.735 -1.212,1.299 -6.126,2.548c-11.033,2.806 -16.653,1.845 -20.45,-3.495c-1.974,-2.776 -2.074,-3.147 -1.715,-6.321c0.409,-3.62 -0.338,-5.884 -2.629,-7.956c-1.522,-1.378 -5.406,-1.17 -6.352,0.341c-0.848,1.353 0.155,3.072 1.948,3.339c1.995,0.297 2.655,2.099 1.808,4.929c-0.847,2.824 -0.271,4.356 3.483,9.269c5.04,6.596 13.254,8.006 26.217,4.499c9.588,-2.593 10.854,-4.267 7.796,-10.302l-1.552,-3.064l-8.416,0.416c-7.956,0.394 -8.392,0.358 -7.974,-0.662c0.967,-2.364 1.013,-5.966 0.103,-8.143c-0.512,-1.226 -0.848,-2.23 -0.746,-2.23c0.102,0 2.576,1.105 5.498,2.455c4.121,1.904 6.258,2.519 9.527,2.745l4.214,0.291l4.347,-4.868c6.135,-6.871 5.875,-8.212 -2.108,-10.869c-2.098,-0.698 -4.514,-1.871 -5.369,-2.607l-1.556,-1.338l2.843,-2.62c2.979,-2.746 5.141,-6.263 5.141,-8.363c0,-2.998 -9.463,-19.821 -13.494,-23.99c-3.155,-3.264 -3.19,-3.341 -3.391,-7.469l-0.203,-4.172l1.799,-0.456c0.989,-0.251 4.069,-1.003 6.843,-1.67c2.775,-0.668 5.54,-1.663 6.146,-2.211c1.934,-1.75 1.344,-11.779 -1.173,-19.934c-1.207,-3.91 -5.337,-8.757 -8.806,-10.332c-3.077,-1.398 -8.842,-1.5 -10.162,-0.18zM401.6689,294.31007v3.375l-1.799,-1.724c-2.128,-2.039 -2.204,-2.635 -0.563,-4.397c1.74,-1.868 2.362,-1.145 2.362,2.746z" data-paper-data="{&quot;wickUUID&quot;:&quot;96fdd050-e6e6-4405-8199-57fe05db4060&quot;,&quot;wickType&quot;:&quot;path&quot;,&quot;originalStyle&quot;:{&quot;strokeColor&quot;:null,&quot;fillColor&quot;:[&quot;Color&quot;,0,0,0],&quot;strokeWidth&quot;:1}}" fill="#000000"/><path d="M351.60543,306.14766c-2.404,1.062 -4.196,3.125 -5.059,5.823c-0.813,2.538 -0.331,3.886 2.057,5.765c0.902,0.709 1.503,1.793 1.503,2.71c0,1.023 1.1,2.717 3.325,5.12c2.742,2.962 3.989,3.813 7.104,4.85c2.078,0.691 4.696,1.945 5.818,2.787c1.732,1.299 2.472,1.481 4.909,1.206c3.321,-0.374 7.716,-2.603 11.014,-5.586c1.268,-1.147 3.175,-2.872 4.239,-3.834c2.519,-2.279 3.745,-4.727 4.171,-8.324c0.444,-3.746 -0.097,-5.834 -1.638,-6.323c-1.704,-0.541 -2.967,0.705 -2.971,2.931c-0.01,5.185 -3.456,9.987 -9.989,13.917c-3.898,2.345 -5.906,2.744 -7.525,1.495c-0.753,-0.581 -3.325,-1.797 -5.716,-2.702c-4.802,-1.819 -7.945,-4.81 -7.945,-7.562c0,-0.939 -0.708,-2.229 -1.798,-3.273c-0.989,-0.948 -1.799,-2.057 -1.799,-2.466c0,-0.408 1.144,-1.373 2.542,-2.144c2.679,-1.478 3.431,-2.966 2.231,-4.412c-0.869,-1.047 -2.069,-1.041 -4.473,0.022z" data-paper-data="{&quot;wickUUID&quot;:&quot;9ea1517f-fefa-448c-be49-5dc593e2dc32&quot;,&quot;wickType&quot;:&quot;path&quot;,&quot;originalStyle&quot;:{&quot;strokeColor&quot;:null,&quot;fillColor&quot;:[&quot;Color&quot;,0,0,0],&quot;strokeWidth&quot;:1}}" fill="#000000"/><path d="M360.04704,330.60318c-3.601,2.052 -7.622,4.739 -8.934,5.972l-2.387,2.242l0.37,6.152c0.203,3.384 0.896,8.985 1.54,12.448c0.644,3.462 1.34,7.307 1.547,8.543l0.376,2.249h-2.155c-2.637,0 -5.174,1.249 -6.84,3.366c-1.657,2.107 -1.579,3.348 0.355,5.647c1.521,1.807 1.786,1.895 4.918,1.635c3.046,-0.253 3.515,-0.502 5.887,-3.121c2.403,-2.655 2.576,-3.075 2.563,-6.236c-0.008,-1.864 -0.694,-6.762 -1.525,-10.884c-0.832,-4.122 -1.671,-9.923 -1.864,-12.891l-0.352,-5.396l6.715,-3.897c8.276,-4.802 9.631,-5.804 9.631,-7.119c0,-1.293 -1.143,-2.479 -2.368,-2.457c-0.511,0.009 -3.876,1.695 -7.477,3.747zM349.80704,373.60518c-0.204,0.33 -0.692,0.595 -1.085,0.59c-0.429,-0.005 -0.355,-0.241 0.185,-0.59c1.152,-0.744 1.36,-0.744 0.9,0z" data-paper-data="{&quot;wickUUID&quot;:&quot;9c3bf7f6-96c6-48df-a80e-ca566a085a71&quot;,&quot;wickType&quot;:&quot;path&quot;,&quot;originalStyle&quot;:{&quot;strokeColor&quot;:null,&quot;fillColor&quot;:[&quot;Color&quot;,0,0,0],&quot;strokeWidth&quot;:1}}" fill="#000000"/><path d="M383.06852,324.15762c-0.57,0.687 -0.648,2.369 -0.312,6.745c0.247,3.206 0.623,8.951 0.837,12.766c0.374,6.679 0.469,7.058 2.553,10.193c1.19,1.79 3.256,5.144 4.59,7.452c1.334,2.309 3.125,4.851 3.981,5.651c2.026,1.893 1.962,2.444 -0.283,2.444c-2.808,0 -4.157,0.979 -4.157,3.018c0,3.53 3.52,5.177 7.103,3.324c1.545,-0.799 4.888,-5.941 4.888,-7.517c0,-0.392 -1.451,-2.245 -3.224,-4.116c-1.773,-1.872 -3.829,-4.603 -4.569,-6.07c-0.741,-1.467 -2.325,-4.141 -3.522,-5.941c-2.113,-3.179 -2.187,-3.482 -2.576,-10.523c-0.622,-11.238 -1.205,-16.774 -1.851,-17.593c-0.811,-1.025 -2.538,-0.942 -3.458,0.167z" data-paper-data="{&quot;wickUUID&quot;:&quot;aa1c1870-160f-4041-8757-9f9e18c4365c&quot;,&quot;wickType&quot;:&quot;path&quot;,&quot;originalStyle&quot;:{&quot;strokeColor&quot;:null,&quot;fillColor&quot;:[&quot;Color&quot;,0,0,0],&quot;strokeWidth&quot;:1}}" fill="#000000"/><path d="M383.83369,307.80235c-0.327,0.413 -0.733,2.504 -0.902,4.647c-0.395,5.011 -2.861,10.792 -4.604,10.792c-0.672,0 -2.538,-0.809 -4.146,-1.798c-1.608,-0.99 -3.298,-1.808 -3.756,-1.818c-0.459,-0.011 -1.357,-0.415 -1.997,-0.9c-1.742,-1.317 -4.309,-1.102 -5.398,0.453c-1.169,1.669 -1.179,3.047 -0.04,5.25c1.173,2.268 2.853,2.745 5.066,1.438c1.736,-1.026 1.841,-1.014 4.687,0.536c3.582,1.949 7.298,2.621 9.115,1.649c1.355,-0.725 3.681,-5.306 5.181,-10.206c1.02,-3.331 1.089,-9.104 0.12,-10.073c-0.935,-0.934 -2.572,-0.919 -3.326,0.03z" data-paper-data="{&quot;wickUUID&quot;:&quot;9936fb22-341f-4afa-a892-63a38d048d28&quot;,&quot;wickType&quot;:&quot;path&quot;,&quot;originalStyle&quot;:{&quot;strokeColor&quot;:null,&quot;fillColor&quot;:[&quot;Color&quot;,0,0,0],&quot;strokeWidth&quot;:1}}" fill="#000000"/><path d="M358.24317,320.58622c-1.078,1.078 -1.192,2.52 -0.369,4.685c0.795,2.09 4.704,3.169 7.063,1.949c2.746,-1.42 4.027,-3.181 3.376,-4.641c-1.089,-2.44 -8.212,-3.85 -10.07,-1.993z" data-paper-data="{&quot;wickUUID&quot;:&quot;5a02c7bb-4510-4e2c-a6fa-9b5727dd0b5f&quot;,&quot;wickType&quot;:&quot;path&quot;,&quot;originalStyle&quot;:{&quot;strokeColor&quot;:null,&quot;fillColor&quot;:[&quot;Color&quot;,0,0,0],&quot;strokeWidth&quot;:1}}" fill="#000000"/><path d="M348.4956,304.2054c-0.307,0.412 -1.613,2.897 -2.901,5.521c-3.009,6.129 -3.448,10.615 -1.485,15.178c0.728,1.692 2.019,3.532 2.87,4.09c1.361,0.892 1.911,0.921 4.585,0.248c7.386,-1.86 10.794,-5.298 7.372,-7.435c-0.833,-0.521 -1.552,-0.384 -3.331,0.636c-1.248,0.715 -3.261,1.486 -4.474,1.713c-2.008,0.377 -2.259,0.271 -2.814,-1.189c-1.197,-3.149 -0.681,-6.417 1.804,-11.411c1.311,-2.634 2.383,-5.211 2.383,-5.726c0,-2.042 -2.84,-3.194 -4.009,-1.625z" data-paper-data="{&quot;wickUUID&quot;:&quot;af35e3b9-9cf4-43be-bb38-7c7f260ee3c4&quot;,&quot;wickType&quot;:&quot;path&quot;,&quot;originalStyle&quot;:{&quot;strokeColor&quot;:null,&quot;fillColor&quot;:[&quot;Color&quot;,0,0,0],&quot;strokeWidth&quot;:1}}" fill="#000000"/></g><g fill="none" fill-rule="nonzero" stroke="none" stroke-width="1" stroke-linecap="butt" stroke-linejoin="miter" stroke-miterlimit="10" stroke-dasharray="" stroke-dashoffset="0" font-family="sans-serif" font-weight="normal" font-size="12" text-anchor="start" style="mix-blend-mode: normal"/><g id="wick_project_gui" fill="none" fill-rule="nonzero" stroke="none" stroke-width="1" stroke-linecap="butt" stroke-linejoin="miter" stroke-miterlimit="10" stroke-dasharray="" stroke-dashoffset="0" font-family="sans-serif" font-weight="normal" font-size="12" text-anchor="start" style="mix-blend-mode: normal"/></g></svg>