<svg version="1.1" xmlns="http://www.w3.org/2000/svg" xmlns:xlink="http://www.w3.org/1999/xlink" width="1260" height="594" viewBox="0,0,1260,594"><g transform="translate(-91.70217,-330.66282) scale(1.72369,1.72369)"><g id="wick_project_bg" fill-opacity="0" fill="#ffffff" fill-rule="nonzero" stroke="none" stroke-width="1" stroke-linecap="butt" stroke-linejoin="miter" stroke-miterlimit="10" stroke-dasharray="" stroke-dashoffset="0" font-family="none" font-weight="none" font-size="none" text-anchor="none" style="mix-blend-mode: normal"><rect x="0" y="0" width="720" height="480"/></g><g data-paper-data="{&quot;wickUUID&quot;:&quot;a68b0d3d-71d5-4832-ba15-be04a6c7ef6d&quot;,&quot;wickType&quot;:&quot;clipsandpaths&quot;}" fill="none" fill-rule="evenodd" stroke="none" stroke-width="1" stroke-linecap="butt" stroke-linejoin="miter" stroke-miterlimit="10" stroke-dasharray="" stroke-dashoffset="0" font-family="none" font-weight="none" font-size="none" text-anchor="none" style="mix-blend-mode: normal"><path d="M411.04727,272.05465c-0.79067,0.452 -3.11351,2.30488 -4.86084,3.91188c-2.923,2.68833 -3.18532,4.07325 -2.46699,4.27492c1.51033,0.42467 4.37693,0.50711 5.6466,-0.14056c1.672,-0.853 6.09297,-4.35318 7.31297,-5.80285l1.25266,-1.68589l-1.68547,-1.17182c-1.69467,-0.475 -3.7636,-0.20635 -5.19893,0.61432z" data-paper-data="{&quot;wickUUID&quot;:&quot;ceb1575e-1d7b-4e6f-9bd4-b2c67618ebb1&quot;,&quot;wickType&quot;:&quot;path&quot;,&quot;originalStyle&quot;:{&quot;strokeColor&quot;:null,&quot;fillColor&quot;:[&quot;Color&quot;,0.50196,0,0.25098],&quot;strokeWidth&quot;:1}}" fill="#800040"/><path d="M391.57209,243.87572c-2.73033,0.49967 -10.71086,5.29496 -13.11453,7.87496c-1.264,1.35667 -2.91654,4.94251 -2.91654,6.47518c0,0.78467 -0.20001,1.94147 -0.38334,2.0548c-0.88433,0.54667 0.3571,6.35944 2.0321,9.88611c2.55167,5.373 4.17141,6.39895 13.65941,8.33595l6.89244,1.42597l1.23459,-1.09022c0.28167,-0.43167 1.68136,-2.05126 3.12136,-3.61293c1.44033,-1.562 2.74499,-3.19097 3.19566,-3.85897c1.66733,-2.472 6.80474,-4.20642 10.80074,-3.65875l1.97797,-0.04291l-0.04576,-2.50944c-0.38767,-2.92267 -2.1109,-9.21195 -3.2809,-12.02228c-1.22067,-2.932 -3.59388,-5.64941 -5.91188,-6.83208c-2.641,-1.34733 -7.56916,-2.49599 -11.49283,-2.64032c-2.04533,-0.07533 -4.89382,0.05493 -5.76849,0.21493zM404.83548,258.55166c0.36667,-0.00967 1.18219,-0.11603 1.93486,-0.22903c1.21533,-0.18267 1.05216,-0.25728 1.68716,0.55005c0.393,0.49967 0.50218,0.86454 0.50218,1.07887c0,0.21433 0.5435,0.92494 1.18517,1.54694c0.64167,0.622 1.11218,0.47661 1.11218,0.79094c0,1.00867 -1.55805,1.96005 -3.04572,1.96005c-0.83367,0 -1.13392,0.16111 -1.66192,0.57644c-1.66,1.306 -2.59201,0.87297 -2.95068,-1.33636c-0.14233,-0.878 -0.26913,-1.16686 -0.93913,-1.51319c-1.122,-0.58 -2.19567,-1.81684 -2.19567,-2.60451c0,-0.31733 0.02933,-0.00835 0.42566,-0.51202c0.66033,-0.83967 0.43461,-0.73693 1.83728,-0.5256c0.84133,0.12667 1.74196,0.22709 2.10863,0.21742zM392.85845,260.93993c1.07167,0.75067 0.41664,1.25269 -1.32469,4.03002l-1.38399,2.28313l0.8519,1.33481c1.01967,1.212 1.22686,1.17141 0.32119,2.32274c-0.78967,1.004 -1.0455,0.80175 -2.4715,0.06408c-0.95267,-0.49267 -1.01884,-0.48032 -1.98184,0.33001c-1.21267,1.02033 -1.42317,1.27635 -2.3075,0.39202c-0.936,-0.936 -0.87885,-1.69356 -0.30418,-2.79023c0.479,-0.914 0.43136,-1.05159 -0.99631,-2.63959c-1.711,-1.903 -2.22782,-2.18257 -1.56849,-3.34324c1.04033,-1.83067 1.51595,-1.49369 3.83228,0.44131l1.59515,1.22575l1.29571,-1.2331c2.24067,-2.98733 2.73694,-3.61204 4.44227,-2.41771z" data-paper-data="{&quot;wickUUID&quot;:&quot;792995cd-7dbc-465c-99c0-c566cd4b8965&quot;,&quot;wickType&quot;:&quot;path&quot;,&quot;originalStyle&quot;:{&quot;strokeColor&quot;:null,&quot;fillColor&quot;:[&quot;Color&quot;,1,1,1],&quot;strokeWidth&quot;:1}}" fill="#ffffff"/><path d="M428.55951,214.76252c-7.99367,2.11433 -13.03246,4.30676 -19.38446,8.43609c-1.99933,1.29967 -3.19405,2.32335 -3.39972,2.32335c-1.36533,0 -2.39277,-1.99822 -2.39277,-4.15322c0,-1.03233 -0.44863,-1.53962 -1.38496,-1.93062c-0.59567,-0.249 -2.66003,-0.79512 -4.0517,-1.08245c-2.99567,-0.61867 -4.45532,-0.25243 -6.71932,1.42157c-2.15967,1.59667 -11.92729,11.56901 -13.23629,13.50934c-1.93967,2.87567 -4.73715,11.10342 -5.01215,14.80375l-0.18608,2.98347l1.99019,-0.50768c1.37233,-1.97867 6.31976,-5.73323 10.90309,-8.24256c3.59233,-1.967 5.30744,-2.24713 11.85144,-2.05313c5.07167,0.15033 5.48061,0.12017 8.34361,1.0065c7.91,2.449 10.62989,5.3001 13.64122,14.4261c2.64867,8.028 3.29515,14.2068 1.97748,18.02413c-0.34733,1.00633 0.47282,2.63735 0.53115,2.69535c0.05833,0.05833 3.93491,-1.74419 8.49258,-3.96586c8.919,-4.34767 11.58306,-5.2902 17.55606,-6.21153c2.72867,-0.421 4.27819,-0.99299 4.41852,-1.35199c0.10867,-0.27867 0.46393,-2.86539 0.56893,-4.82739c0.23067,-4.30467 -0.43948,-5.3553 -3.34015,-6.81963c-3.697,-1.86633 -10.37281,-3.40187 -17.27448,-3.93154c-1.89067,-0.14533 -2.4253,-0.18078 -3.07463,-0.69145c-0.83567,-0.65733 -0.70394,0.21533 -0.55227,-1.90567c0.28133,-3.93067 2.61102,-7.17456 9.79869,-13.67656l1.95057,-2.08224l-1.60986,-3.6959c-0.85033,-1.83233 -2.2817,-5.49222 -3.1917,-8.16289c-0.91033,-2.67033 -2.03211,-5.30351 -2.07478,-5.33851c-0.04267,-0.035 -2.77788,0.37684 -5.13821,1.00117z" data-paper-data="{&quot;wickUUID&quot;:&quot;01d1608d-c033-4a4b-a027-3867fdc85b45&quot;,&quot;wickType&quot;:&quot;path&quot;,&quot;originalStyle&quot;:{&quot;strokeColor&quot;:null,&quot;fillColor&quot;:[&quot;Color&quot;,1,0.50196,0],&quot;strokeWidth&quot;:1}}" fill="#ff8000"/><path d="M391.47773,283.81401c-0.31433,0.417 -0.62238,1.1357 -0.73005,1.67403c-0.147,0.734 -0.32797,0.89939 -1.02464,1.03872c-0.69833,0.13967 -1.97981,1.49295 -4.86348,5.07628c-6.83467,8.49267 -11.00823,15.6596 -13.14156,22.51727c-2.21967,7.13567 -2.1936,9.09916 0.15607,12.97616c1.41433,2.33333 3.87852,3.99228 7.18852,4.58228c3.64133,0.64933 10.41062,0.57536 12.37829,-0.09531c2.14067,-0.72933 4.38081,-3.21085 7.29348,-8.36785c1.30833,-2.316 3.18697,-5.48339 4.07664,-6.87539c2.65333,-4.152 6.68934,-13.20264 8.28834,-18.57864c0.77767,-2.613 1.41187,-7.13143 1.41187,-10.19176l-0.49192,-2.91287l-5.19938,-0.27205c-2.73133,-0.11033 -6.88738,-0.54442 -9.39671,-0.98209l-4.61986,-0.79444z" data-paper-data="{&quot;wickUUID&quot;:&quot;bbb754a8-d8fb-475c-a5df-d7d7ef3da5c6&quot;,&quot;wickType&quot;:&quot;path&quot;,&quot;originalStyle&quot;:{&quot;strokeColor&quot;:null,&quot;fillColor&quot;:[&quot;Color&quot;,0.50196,0,1],&quot;strokeWidth&quot;:1}}" fill="#8000ff"/><path d="M349.22066,277.80077c-0.10833,0.175 -0.68683,2.84951 -0.2075,4.73718c0.53567,2.10933 0.84416,3.43672 0.73116,4.13872c-0.21667,1.34633 -2.50693,3.91519 -4.14093,4.61886c-2.203,0.94833 -0.07702,3.38897 2.85198,3.14597c1.37533,-0.114 2.63277,-0.51988 4.24577,-1.60255c1.19033,-0.79933 2.66571,-1.513 3.19671,-1.513c1.181,0 2.30859,-1.37478 2.60126,-3.20711c0.29433,-1.83967 0.68861,-2.52191 1.89561,-3.25591l1.17309,-1.18261l-1.61475,-1.55935c-3.19933,-2.429 -10.17673,-5.21987 -10.7324,-4.3202z" data-paper-data="{&quot;wickUUID&quot;:&quot;0bd39b22-1e71-4272-a491-3bc590c4d6f7&quot;,&quot;wickType&quot;:&quot;path&quot;,&quot;originalStyle&quot;:{&quot;strokeColor&quot;:null,&quot;fillColor&quot;:[&quot;Color&quot;,0,0,0],&quot;strokeWidth&quot;:1}}" fill="#000000"/><path d="M436.94493,303.1596l-5.29905,2.80466l-1.36313,-1.21729c-2.003,-1.37833 -3.65228,-1.51708 -4.87861,-0.55041c-1.03467,0.81533 -0.77888,2.71305 1.53145,2.98672c3.00167,0.35533 6.67157,2.17766 9.0799,4.51366c2.99,2.90067 5.10372,3.1423 5.77905,0.88097c0.68233,-2.28433 1.74626,-3.67339 3.50093,-4.96939c2.086,-1.541 2.11134,-1.69086 -0.02666,-5.03353c-0.61967,-0.96833 -2.20018,-2.40532 -2.33218,-2.39465c-0.13167,0.01033 -2.9667,1.39693 -5.9917,2.97926z" data-paper-data="{&quot;wickUUID&quot;:&quot;061a06ee-1408-490b-892c-ee3ecefaa1f6&quot;,&quot;wickType&quot;:&quot;path&quot;,&quot;originalStyle&quot;:{&quot;strokeColor&quot;:null,&quot;fillColor&quot;:[&quot;Color&quot;,0,0,0],&quot;strokeWidth&quot;:1}}" fill="#000000"/><path d="M388.74961,240.14247c-3.525,1.105 -11.889,6.651 -13.793,9.147c-0.9,1.18 -2.111,3.396 -2.692,4.924c-2.515,6.619 -2.07,11.601 1.68,18.829c2.243,4.325 5.077,7.024 8.538,8.133c3.635,1.164 18.682,3.752 23.683,4.072c4.138,0.265 5.064,0.138 6.745,-0.926c1.072,-0.678 1.959,-1.574 1.972,-1.991c0.013,-0.417 1.225,-1.643 2.694,-2.723c5.193,-3.82 6.502,-8.842 4.49,-17.222c-3.671,-15.28 -6.509,-19.026 -16.6,-21.912c-4.737,-1.355 -12.93,-1.517 -16.717,-0.331zM405.12161,245.58847c6.842,2.161 8.777,4.741 11.258,15.013c1.837,7.603 1.949,9.625 0.674,12.091c-0.943,1.824 -6.556,6.437 -8.876,7.295c-1.254,0.464 -9.686,-0.461 -14.966,-1.642c-1.449,-0.324 -4.364,-0.923 -6.477,-1.332c-4.825,-0.932 -7.077,-2.815 -9.407,-7.866c-2.809,-6.088 -2.154,-12.635 1.702,-17.027c2.088,-2.378 9.172,-6.764 12.016,-7.44c3.989,-0.948 9.282,-0.607 14.076,0.908z" data-paper-data="{&quot;wickUUID&quot;:&quot;474f4904-a80d-4056-a479-1fe68ffe7aa2&quot;,&quot;wickType&quot;:&quot;path&quot;,&quot;originalStyle&quot;:{&quot;strokeColor&quot;:null,&quot;fillColor&quot;:[&quot;Color&quot;,0,0,0],&quot;strokeWidth&quot;:1}}" fill="#000000"/><path d="M427.15035,210.4982c-5.055,1.335 -9.378,3.015 -14.935,5.803l-4.152,2.084l-1.249,-1.451c-1.292,-1.502 -4.689,-2.463 -11.141,-3.152c-3.242,-0.346 -3.364,-0.301 -7.252,2.656c-2.176,1.654 -4.399,3.685 -4.942,4.514c-0.543,0.828 -2.975,3.474 -5.405,5.881c-4.349,4.306 -4.457,4.489 -6.861,11.57c-1.343,3.957 -2.617,8.164 -2.83,9.348c-0.779,4.326 2.988,12.836 5.682,12.836c2.602,0 2.914,-1.744 0.973,-5.453c-2.344,-4.479 -2.252,-7.029 0.534,-14.85c2.247,-6.307 2.374,-6.501 8.044,-12.348c3.169,-3.268 6.786,-6.749 8.039,-7.737c2.405,-1.897 3.478,-1.969 8.964,-0.598c2.046,0.511 2.249,0.745 2.249,2.594c0,2.11 1.262,3.917 2.735,3.917c0.469,0 2.112,-0.962 3.652,-2.138c4.696,-3.584 12.836,-7.097 20.694,-8.931l3.399,-0.793l1.211,3.383c0.667,1.86 1.401,4.057 1.631,4.881c0.231,0.825 1.182,3.079 2.114,5.011l1.696,3.511l-1.557,1.285c-7.097,5.861 -10.393,10.528 -10.393,14.717c0,2.26 1.335,3.049 5.206,3.077c4.805,0.035 11.786,1.545 15.535,3.361c3.973,1.924 4.275,2.64 3.554,8.411l-0.391,3.135l-2.809,0.352c-4.958,0.623 -10.119,1.995 -12.86,3.419c-9.229,4.796 -19.338,9.459 -23.098,10.655c-4.367,1.389 -5.851,2.669 -5.165,4.456c0.603,1.572 2.435,1.676 6.661,0.378c4.244,-1.304 18.996,-8.001 20.561,-9.335c1.822,-1.553 8.837,-3.838 13.788,-4.492c7.172,-0.947 7.513,-1.339 8.369,-9.614c0.469,-4.525 0.411,-5.826 -0.317,-7.236c-2.063,-3.988 -13.17,-8.307 -21.366,-8.307h-2.303l0.882,-1.706c0.485,-0.938 3.042,-3.653 5.683,-6.033c2.64,-2.381 4.961,-4.833 5.157,-5.451c0.209,-0.659 -0.374,-2.57 -1.412,-4.626c-0.973,-1.927 -2.643,-6.138 -3.71,-9.359c-1.068,-3.22 -2.463,-6.517 -3.1,-7.327c-1.423,-1.809 -3.77,-1.881 -9.765,-0.298z" data-paper-data="{&quot;wickUUID&quot;:&quot;6ab20e75-8b94-41fb-8037-a2a9ac85bbad&quot;,&quot;wickType&quot;:&quot;path&quot;,&quot;originalStyle&quot;:{&quot;strokeColor&quot;:null,&quot;fillColor&quot;:[&quot;Color&quot;,0,0,0],&quot;strokeWidth&quot;:1}}" fill="#000000"/><path d="M408.41461,268.06548c-1.402,0.636 -2.549,1.373 -2.549,1.638c0,0.265 -1.753,2.297 -3.897,4.515c-3.973,4.113 -4.449,5.062 -3.178,6.334c1.566,1.565 3.307,0.706 7.543,-3.721c4.801,-5.018 6.371,-5.662 10.952,-4.488c2.643,0.677 3.111,0.651 3.988,-0.226c0.787,-0.788 0.86,-1.286 0.352,-2.4c-1.271,-2.792 -8.665,-3.716 -13.211,-1.652z" data-paper-data="{&quot;wickUUID&quot;:&quot;6e39ddd4-fbea-415c-b900-90ce73b0f222&quot;,&quot;wickType&quot;:&quot;path&quot;,&quot;originalStyle&quot;:{&quot;strokeColor&quot;:null,&quot;fillColor&quot;:[&quot;Color&quot;,0,0,0],&quot;strokeWidth&quot;:1}}" fill="#000000"/><path d="M381.27122,262.10882c-1.022,1.91 -0.21,3.311 3.983,6.868c4.125,3.499 5.793,4.026 6.798,2.146c0.902,-1.684 0.419,-2.443 -4.157,-6.54c-4.422,-3.959 -5.594,-4.397 -6.624,-2.474z" data-paper-data="{&quot;wickUUID&quot;:&quot;20827cc2-1286-4b1e-8011-6bdebdd2495d&quot;,&quot;wickType&quot;:&quot;path&quot;,&quot;originalStyle&quot;:{&quot;strokeColor&quot;:null,&quot;fillColor&quot;:[&quot;Color&quot;,0,0,0],&quot;strokeWidth&quot;:1}}" fill="#000000"/><path d="M388.72348,261.90213c-0.917,1.255 -2.561,3.473 -3.654,4.929c-2.188,2.914 -2.268,3.202 -1.366,4.887c1.371,2.564 3.317,1.11 8.299,-6.2c2.329,-3.418 2.322,-5.444 -0.02,-5.715c-1.257,-0.145 -1.942,0.295 -3.259,2.099z" data-paper-data="{&quot;wickUUID&quot;:&quot;ab05db27-ab7a-43ea-9b59-6f0ab6785f05&quot;,&quot;wickType&quot;:&quot;path&quot;,&quot;originalStyle&quot;:{&quot;strokeColor&quot;:null,&quot;fillColor&quot;:[&quot;Color&quot;,0,0,0],&quot;strokeWidth&quot;:1}}" fill="#000000"/><path d="M400.5897,258.00843c-1.861,1.861 -0.148,4.159 3.902,5.237c1.387,0.37 2.685,0.934 2.883,1.255c0.858,1.388 4.487,-0.138 4.487,-1.886c0,-1.228 -2.995,-3.279 -6.251,-4.281c-4.029,-1.241 -4.1,-1.245 -5.021,-0.325z" data-paper-data="{&quot;wickUUID&quot;:&quot;3a171d8f-9237-4a7d-b8fe-0f8857086a30&quot;,&quot;wickType&quot;:&quot;path&quot;,&quot;originalStyle&quot;:{&quot;strokeColor&quot;:null,&quot;fillColor&quot;:[&quot;Color&quot;,0,0,0],&quot;strokeWidth&quot;:1}}" fill="#000000"/><path d="M405.45413,258.03886c-0.308,0.412 -1.042,1.864 -1.632,3.227c-2.148,4.962 1.616,7.008 4.266,2.319c1.515,-2.681 1.729,-4.502 0.656,-5.576c-0.935,-0.935 -2.582,-0.92 -3.29,0.03z" data-paper-data="{&quot;wickUUID&quot;:&quot;e11750d2-91f0-4fc1-b289-4c94fc9a45e0&quot;,&quot;wickType&quot;:&quot;path&quot;,&quot;originalStyle&quot;:{&quot;strokeColor&quot;:null,&quot;fillColor&quot;:[&quot;Color&quot;,0,0,0],&quot;strokeWidth&quot;:1}}" fill="#000000"/><path d="M388.55808,280.57086c-4.571,4.819 -13.087,15.947 -15.814,20.664c-3.133,5.419 -6.286,14.474 -6.839,19.639c-0.291,2.722 -0.112,3.815 0.985,5.996c3.792,7.546 6.559,9.069 17.154,9.444c10.078,0.357 12.469,-0.882 17.197,-8.915c1.249,-2.122 3.344,-5.611 4.655,-7.755c6.273,-10.251 10.042,-20.231 10.586,-28.029c0.19,-2.721 0.509,-4.947 0.71,-4.946c1.183,0.001 6.121,2.357 8.051,3.84c2.37,1.823 5.205,6.045 5.205,7.754c0,0.79 -0.594,0.996 -2.864,0.996c-3.32,0 -4.891,0.928 -7.371,4.351c-3.174,4.381 -1.858,7.638 3.087,7.644c4.047,0.005 7.245,1.131 9.25,3.256c3.303,3.503 4.716,4.12 8.38,3.663c3.629,-0.454 5.706,-2.25 5.706,-4.936c0,-1.109 0.527,-1.666 2.249,-2.377c2.843,-1.174 4.347,-2.502 4.347,-3.839c0,-0.576 -1.08,-2.483 -2.399,-4.238c-1.319,-1.756 -2.398,-3.485 -2.398,-3.844c0,-0.359 -0.55,-1.243 -1.222,-1.965c-1.641,-1.761 -4.48,-1.692 -8.027,0.194c-1.558,0.828 -3.052,1.371 -3.319,1.206c-0.268,-0.166 -0.656,-1.207 -0.864,-2.314c-0.48,-2.556 -3.519,-6.834 -6.792,-9.562c-2.574,-2.145 -11.155,-5.825 -13.583,-5.825c-2.295,0 -2.766,1.124 -2.766,6.602c0,3.287 -0.449,6.876 -1.235,9.876c-1.201,4.584 -6.37,16.392 -7.996,18.265c-0.445,0.512 -1.692,2.539 -2.773,4.505c-6.237,11.351 -7.145,12.013 -15.851,11.562c-7.668,-0.397 -9.854,-1.377 -12.04,-5.393c-1.894,-3.479 -1.83,-4.816 0.603,-12.622c2.49,-7.99 8.694,-17.346 19.356,-29.19c2.652,-2.946 3.042,-4.071 1.829,-5.284c-1.282,-1.282 -2.973,-0.769 -5.197,1.577zM445.74408,306.73786c-2.88,1.711 -3.904,2.888 -3.904,4.486c0,2.85 -3.259,3.046 -5.056,0.304c-1.393,-2.126 -5.69,-4.391 -9.321,-4.914c-3.066,-0.441 -3.17,-0.514 -2.174,-1.511c1.42,-1.42 3.296,-1.317 4.989,0.273l1.405,1.321l5.828,-2.996l5.828,-2.996l1.72,2.709c1.581,2.488 1.637,2.758 0.685,3.324z" data-paper-data="{&quot;wickUUID&quot;:&quot;4c92dc3a-9e27-4169-856b-69bc8f23d642&quot;,&quot;wickType&quot;:&quot;path&quot;,&quot;originalStyle&quot;:{&quot;strokeColor&quot;:null,&quot;fillColor&quot;:[&quot;Color&quot;,0,0,0],&quot;strokeWidth&quot;:1}}" fill="#000000"/><path d="M345.09777,274.94769c-1.887,1.749 -1.944,2.671 -0.457,7.448l1.129,3.628l-2.179,1.126c-4.537,2.346 -4.871,7.349 -0.679,10.198c1.898,1.29 2.528,1.393 6.595,1.076c12.748,-0.995 16.659,-1.452 17.841,-2.084c1.652,-0.884 4.343,-4.39 4.343,-5.658c0,-1.253 2.626,-1.903 11.392,-2.819c3.792,-0.396 7.232,-0.818 7.644,-0.938c0.971,-0.284 0.971,-2.937 0,-3.684c-0.412,-0.317 -3.758,-0.922 -7.435,-1.345c-5.134,-0.589 -7.593,-0.609 -10.594,-0.087c-4.447,0.775 -6.118,0.331 -9.101,-2.417c-0.989,-0.911 -3.605,-2.615 -5.813,-3.785c-3.291,-1.746 -4.651,-2.129 -7.557,-2.129c-2.929,0 -3.817,0.254 -5.129,1.47zM356.00177,280.40369c3.674,1.867 5.909,3.866 4.321,3.866c-1.092,0 -2.422,1.933 -2.422,3.52c0,1.969 -0.982,3.075 -2.73,3.075c-0.711,0 -2.02,0.675 -2.909,1.499c-1.843,1.709 -5.731,2.071 -6.914,0.645c-0.579,-0.697 -0.311,-1.043 1.451,-1.879c1.189,-0.564 2.58,-1.835 3.091,-2.823c0.841,-1.628 0.839,-2.121 -0.027,-5.205c-0.525,-1.874 -0.956,-3.727 -0.956,-4.117c0,-1.304 2.861,-0.732 7.095,1.419z" data-paper-data="{&quot;wickUUID&quot;:&quot;6088c0e0-8ae5-4ede-af3a-a3a7b418ca84&quot;,&quot;wickType&quot;:&quot;path&quot;,&quot;originalStyle&quot;:{&quot;strokeColor&quot;:null,&quot;fillColor&quot;:[&quot;Color&quot;,0,0,0],&quot;strokeWidth&quot;:1}}" fill="#000000"/><path d="M369.28652,330.74339c-0.414,0.499 -1.765,3.804 -3.002,7.345c-1.238,3.541 -3.51,9.406 -5.048,13.033c-2.533,5.968 -5.734,16.426 -5.734,18.729c0,0.501 -0.944,1.957 -2.099,3.234c-2.286,2.531 -2.615,4.115 -1.156,5.574c2.945,2.945 6.776,-0.976 7.998,-8.186c0.923,-5.447 2.472,-10.292 5.805,-18.152c2.878,-6.787 6.735,-17.022 7.251,-19.241c0.31,-1.332 -1.151,-3.243 -2.48,-3.243c-0.43,0 -1.121,0.408 -1.535,0.907z" data-paper-data="{&quot;wickUUID&quot;:&quot;fcd9bf56-b5a8-42d6-afe3-6479d2384507&quot;,&quot;wickType&quot;:&quot;path&quot;,&quot;originalStyle&quot;:{&quot;strokeColor&quot;:null,&quot;fillColor&quot;:[&quot;Color&quot;,0,0,0],&quot;strokeWidth&quot;:1}}" fill="#000000"/><path d="M385.29191,333.31184c-2.035,2.248 -3.308,10.571 -3.961,25.904c-0.344,8.079 -0.79,15.942 -0.991,17.473c-0.513,3.903 0.365,5.31 3.313,5.31c1.312,0 2.45,-0.327 2.609,-0.749c0.155,-0.412 0.15,-4.392 -0.011,-8.844c-0.339,-9.388 0.639,-28.715 1.609,-31.777c0.365,-1.154 0.938,-2.966 1.273,-4.027c1.115,-3.537 -1.551,-5.821 -3.841,-3.29z" data-paper-data="{&quot;wickUUID&quot;:&quot;e3c3306a-9d0e-4709-8bad-c0ad2d24925d&quot;,&quot;wickType&quot;:&quot;path&quot;,&quot;originalStyle&quot;:{&quot;strokeColor&quot;:null,&quot;fillColor&quot;:[&quot;Color&quot;,0,0,0],&quot;strokeWidth&quot;:1}}" fill="#000000"/></g><g fill="none" fill-rule="nonzero" stroke="none" stroke-width="1" stroke-linecap="butt" stroke-linejoin="miter" stroke-miterlimit="10" stroke-dasharray="" stroke-dashoffset="0" font-family="sans-serif" font-weight="normal" font-size="12" text-anchor="start" style="mix-blend-mode: normal"/><g id="wick_project_gui" fill="none" fill-rule="nonzero" stroke="none" stroke-width="1" stroke-linecap="butt" stroke-linejoin="miter" stroke-miterlimit="10" stroke-dasharray="" stroke-dashoffset="0" font-family="sans-serif" font-weight="normal" font-size="12" text-anchor="start" style="mix-blend-mode: normal"/></g></svg>