<svg version="1.1" xmlns="http://www.w3.org/2000/svg" xmlns:xlink="http://www.w3.org/1999/xlink" width="1260" height="594" viewBox="0,0,1260,594"><g transform="translate(-91.70217,-330.66282) scale(1.72369,1.72369)"><g id="wick_project_bg" fill-opacity="0" fill="#ffffff" fill-rule="nonzero" stroke="none" stroke-width="1" stroke-linecap="butt" stroke-linejoin="miter" stroke-miterlimit="10" stroke-dasharray="" stroke-dashoffset="0" font-family="none" font-weight="none" font-size="none" text-anchor="none" style="mix-blend-mode: normal"><rect x="0" y="0" width="720" height="480"/></g><g data-paper-data="{&quot;wickUUID&quot;:&quot;381efc21-6a84-4072-acb0-5ddd00cd3783&quot;,&quot;wickType&quot;:&quot;clipsandpaths&quot;}" fill="none" fill-rule="evenodd" stroke="none" stroke-width="1" stroke-linecap="butt" stroke-linejoin="miter" stroke-miterlimit="10" stroke-dasharray="" stroke-dashoffset="0" font-family="none" font-weight="none" font-size="none" text-anchor="none" style="mix-blend-mode: normal"><path d="M458.58741,347.0068c-0.03467,2.26833 -0.2175,5.46514 -0.4055,7.08547c-0.28367,2.445 -0.25778,3.13722 0.14755,3.75589c0.39367,0.601 0.47641,2.03641 0.42541,7.38874c-0.047,4.94367 0.08403,7.54641 0.50803,10.12074c0.31333,1.90233 0.66678,4.82309 0.78311,6.46309l0.26464,3.19997l2.04282,0.24204c1.781,-0.428 5.14784,-2.27517 7.72917,-4.19884c4.54633,-3.38733 8.16023,-7.82702 10.7239,-13.16969c1.337,-2.78667 1.48982,-3.33082 1.64149,-7.53315c0.151,-4.181 0.01092,-4.82868 -0.90041,-6.69168c-1.196,-2.44433 -4.99557,-6.2432 -7.61524,-7.61553c-3.83433,-2.00867 -8.66504,-3.60583 -11.53937,-3.78716l-3.59262,0.16856z" data-paper-data="{&quot;wickUUID&quot;:&quot;0017e412-7b4c-4382-b4fa-029fc1d11249&quot;,&quot;wickType&quot;:&quot;path&quot;,&quot;originalStyle&quot;:{&quot;strokeColor&quot;:null,&quot;fillColor&quot;:[&quot;Color&quot;,1,1,1],&quot;strokeWidth&quot;:1}}" fill="#ffffff"/><path d="M438.81236,342.32464c-4.64767,0.67933 -6.39961,1.37496 -12.06561,4.84863c-2.96233,1.816 -6.45972,3.9014 -7.67039,4.5784c-1.21067,0.67733 -3.49068,2.203 -4.91835,3.27867c-3.18933,2.40333 -9.56122,9.13082 -9.85722,10.31049c-0.56667,2.25767 2.30344,7.36181 5.61744,9.59114c2.16933,1.45933 2.66634,1.71743 5.19767,1.71743c2.411,0 2.20756,-0.27169 3.13323,0.61498c1.03033,0.98667 1.2788,2.08208 1.86047,7.07441l0.54394,2.45752l4.28074,1.36697c2.2,0.67467 4.57167,1.17089 4.69067,1.10556c0.119,-0.065 0.9621,-1.62755 1.26443,-2.98555c0.62633,-2.81533 0.49117,-3.8674 1.91284,-3.8674c1.474,0 3.53609,2.60457 8.33376,10.22257l1.42449,2.12651l2.05952,-0.10414c1.75933,-0.27833 4.9953,-1.12241 8.08997,-2.01974c2.76467,-0.80133 2.953,-1.04726 3.49667,-6.32859c0.335,-3.25667 0.31203,-4.45084 -0.3153,-9.15784c-1.048,-7.86433 -0.86967,-17.07356 0.37133,-19.10689c0.22967,-0.376 0.50798,-0.17629 1.00231,-0.27762c0.631,-0.12933 1.25961,-0.973 1.38894,-1.59c0.30967,-1.47633 0.85504,-8.48147 0.85804,-11.0428l-0.61392,-3.28859l-8.66907,0.00483c-4.75067,0.02033 -9.81727,0.23738 -11.4166,0.47105z" data-paper-data="{&quot;wickUUID&quot;:&quot;2c81d670-8356-4a3b-a0ef-1d8d732e0ac7&quot;,&quot;wickType&quot;:&quot;path&quot;,&quot;originalStyle&quot;:{&quot;strokeColor&quot;:null,&quot;fillColor&quot;:[&quot;Color&quot;,1,0.50196,0],&quot;strokeWidth&quot;:1}}" fill="#ff8000"/><path d="M417.5239,343.53795c-5.643,1.14767 -7.99019,2.05846 -11.79352,4.53746c-3.23267,2.10733 -6.04619,4.86145 -6.74586,6.53578c-0.58167,1.391 -1.05326,8.46213 -0.60293,9.2668c0.278,0.497 1.90187,0.89827 2.71354,-0.34306c0.51733,-0.79067 3.15401,-3.65224 5.92301,-6.41791c5.13933,-5.13333 6.04129,-5.81529 13.73229,-10.40962c2.246,-1.34167 4.0563,-3.88804 4.0563,-3.95637c0,-0.29567 -2.8685,-0.11108 -7.28283,0.78692z" data-paper-data="{&quot;wickUUID&quot;:&quot;fc62d52f-4303-4429-94e7-7372fc4fb85b&quot;,&quot;wickType&quot;:&quot;path&quot;,&quot;originalStyle&quot;:{&quot;strokeColor&quot;:null,&quot;fillColor&quot;:[&quot;Color&quot;,0.50196,0,1],&quot;strokeWidth&quot;:1}}" fill="#8000ff"/><path d="M415.11847,399.54832c-0.43033,0.17233 -1.28543,0.66055 -1.73476,1.01388c-0.449,0.35333 -1.40171,0.84324 -1.92871,0.95891c-1.53533,0.33733 -2.97118,2.28603 -2.97118,3.66503c0,1.65433 1.65503,4.3263 3.1937,4.97863c0.68133,0.28867 2.38549,1.10216 3.50149,1.61583l2.53776,0.99444l1.84303,-1.74744c1.355,-1.44033 1.5297,-1.53634 3.2067,-1.74567l2.14534,-0.40841l-0.53856,-2.18382c-0.31867,-0.54667 -1.09499,-1.22791 -1.77966,-1.57958c-1.607,-0.825 -2.13319,-1.65323 -2.38319,-3.7669l-0.37818,-1.95325l-2.20665,-0.21538c-0.84533,0.01167 -2.0768,0.2014 -2.50713,0.37373z" data-paper-data="{&quot;wickUUID&quot;:&quot;a9017b21-4be6-4c67-9168-f8448bec2546&quot;,&quot;wickType&quot;:&quot;path&quot;,&quot;originalStyle&quot;:{&quot;strokeColor&quot;:null,&quot;fillColor&quot;:[&quot;Color&quot;,0,0,0],&quot;strokeWidth&quot;:1}}" fill="#000000"/><path d="M498.94416,367.37671c-0.78467,0.41967 -3.55992,2.27168 -6.13992,4.09801c-2.57967,1.826 -5.26674,3.66102 -5.84107,3.97402c-1.731,0.944 0.46533,2.10484 2.825,1.03484c1.213,-0.55 2.24296,-0.96734 2.60829,-0.96734c0.36567,0 0.64249,0.3263 1.23682,0.95663l1.4743,1.32384l6.41971,0.11584l6.178,0.09442l1.58735,1.07515c2.07467,1.31767 5.46565,2.43021 7.33465,2.43021c1.35333,0 4.10039,-1.1837 4.10039,-1.72803c0,-0.16733 -0.64616,-1.94283 -1.39316,-2.80583c-0.747,-0.863 -1.82397,-2.39144 -2.3843,-3.38444c-0.56033,-0.993 -1.62201,-2.26376 -2.05234,-2.54576c-0.43033,-0.282 -2.42346,-0.87672 -4.20246,-1.22139c-3.852,-0.746 -5.98872,-1.42398 -7.86339,-2.49598c-0.76167,-0.43567 -1.73282,-0.84118 -1.82715,-0.84351c-0.09467,-0.00233 -1.27572,0.46932 -2.06072,0.88932z" data-paper-data="{&quot;wickUUID&quot;:&quot;190d516d-63e2-48b2-994a-39a8fdbc4fb3&quot;,&quot;wickType&quot;:&quot;path&quot;,&quot;originalStyle&quot;:{&quot;strokeColor&quot;:null,&quot;fillColor&quot;:[&quot;Color&quot;,0,0,0],&quot;strokeWidth&quot;:1}}" fill="#000000"/><path d="M443.28725,337.58565c-10.594,1.273 -13.095,1.959 -16.597,4.552c-1.235,0.914 -3.388,2.328 -4.786,3.142c-10.139,5.908 -10.554,6.208 -15.507,11.228c-5.393,5.465 -7.146,7.785 -7.146,9.457c0,1.768 3.531,8.488 5.35,10.182c0.9,0.838 3.13,2.541 4.956,3.783c3.015,2.053 3.428,2.219 4.515,1.808c1.059,-0.4 1.225,-0.348 1.439,0.451c0.133,0.496 0.245,2.007 0.248,3.357c0.005,2.13 0.16,2.598 1.17,3.536c0.641,0.594 1.667,1.341 2.28,1.659c2.079,1.077 11.835,3.616 12.785,3.327c1.459,-0.444 2.401,-1.49 2.411,-2.68l0.009,-1.099l0.821,1.059c0.452,0.582 1.162,1.725 1.579,2.54c0.811,1.587 3.024,4.669 3.721,5.181c0.848,0.622 4.321,0.299 8.045,-0.749c2.096,-0.589 4.916,-1.385 6.266,-1.767c2.649,-0.749 4.955,-2.797 4.955,-4.401c0,-1.551 0.802,-2.498 2.116,-2.498c4.401,0 11.759,-4.903 17.54,-11.69c5.05,-5.928 7.443,-12.204 7.442,-19.52c0,-2.752 -0.2,-3.721 -1.208,-5.84c-1.583,-3.329 -4.18,-6.555 -6.94,-8.621c-3.839,-2.874 -13.742,-6.479 -17.562,-6.393c-1.113,0.025 -4.882,-0.051 -8.375,-0.17c-3.493,-0.119 -7.78,-0.044 -9.527,0.166zM465.22625,343.25865c1.238,0.331 3.991,1.331 6.118,2.222c4.291,1.797 7.238,4.293 9.376,7.94c1.143,1.95 1.182,2.205 1.036,6.778c-0.146,4.599 -0.207,4.866 -1.93,8.317c-2.102,4.212 -4.391,7.087 -8.65,10.864c-2.89,2.564 -6.726,4.778 -9.258,5.343c-1.021,0.228 -1.06,0.158 -1.091,-1.968c-0.017,-1.213 -0.428,-4.777 -0.912,-7.921c-0.752,-4.878 -0.826,-6.489 -0.51,-10.989c0.325,-4.614 0.285,-5.368 -0.317,-6.034c-0.843,-0.932 -2.39,-0.985 -3.263,-0.112c-1.005,1.005 -1.303,3.278 -1.302,9.937c0.001,3.905 0.257,7.526 0.705,9.95c0.566,3.07 0.631,4.75 0.334,8.64c-0.214,2.811 -0.572,4.955 -0.857,5.131c-0.938,0.579 -10.985,3.049 -11.539,2.836c-0.307,-0.118 -1.431,-1.711 -2.498,-3.541c-2.456,-4.214 -5.637,-8.311 -6.781,-8.734c-1.871,-0.692 -3.222,1.139 -3.925,5.322c-0.21,1.246 -0.433,1.564 -0.988,1.408c-0.395,-0.111 -2.366,-0.692 -4.38,-1.292l-3.662,-1.09l-0.289,-3.07c-0.482,-5.138 -0.895,-6.216 -2.665,-6.955c-1.212,-0.507 -1.865,-0.549 -3.019,-0.195c-1.255,0.385 -1.694,0.318 -2.979,-0.456c-3.349,-2.017 -4.747,-3.444 -6.197,-6.322c-1.802,-3.579 -1.887,-3.365 3.586,-8.98c4.319,-4.432 6.669,-6.206 12.112,-9.148c1.863,-1.007 5.021,-2.945 7.017,-4.306c3.952,-2.696 6.199,-3.41 13.096,-4.162c5.105,-0.558 20.821,-0.167 23.632,0.587z" data-paper-data="{&quot;wickUUID&quot;:&quot;20eeba88-0b06-467f-b3da-0f6faa8e0ff1&quot;,&quot;wickType&quot;:&quot;path&quot;,&quot;originalStyle&quot;:{&quot;strokeColor&quot;:null,&quot;fillColor&quot;:[&quot;Color&quot;,0,0,0],&quot;strokeWidth&quot;:1}}" fill="#000000"/><path d="M413.17729,378.32937c-0.789,0.525 -3.15,1.99 -5.246,3.255c-6.19,3.738 -7.833,5.295 -7.833,7.423c0,0.367 1.715,2.488 3.811,4.715c2.096,2.226 3.811,4.205 3.811,4.398c0,0.192 -0.62,0.867 -1.377,1.498c-1.915,1.599 -2.403,2.622 -2.415,5.067c-0.022,4.27 4.036,9.937 7.13,9.957c0.609,0.004 2.06,0.573 3.225,1.264c3.16,1.874 4.738,1.732 7.032,-0.636c1.542,-1.591 2.109,-1.905 3.434,-1.905c5.185,0 6.098,-7.658 1.346,-11.283c-1.281,-0.977 -1.438,-1.317 -1.438,-3.117c0,-3.177 -0.896,-3.962 -4.738,-4.156c-1.978,-0.1 -3.913,0.072 -5.241,0.467l-2.105,0.625l-3.326,-3.566c-1.829,-1.961 -3.254,-3.629 -3.167,-3.706c0.513,-0.457 6.353,-4.057 6.581,-4.057c0.151,0 1.292,-0.768 2.536,-1.707c1.824,-1.377 2.261,-1.946 2.261,-2.94c0,-0.794 -0.335,-1.467 -0.941,-1.892c-1.243,-0.871 -1.639,-0.836 -3.34,0.296zM419.57529,401.72137c0,1.967 1.04,3.599 2.292,3.599c0.759,0 2.875,2.483 2.556,3c-0.132,0.213 -1.02,0.387 -1.974,0.387c-1.476,0 -1.977,0.256 -3.363,1.712l-1.628,1.711l-1.836,-1.076c-1.011,-0.592 -2.343,-1.076 -2.962,-1.076c-1.469,0 -3.67,-2.919 -3.67,-4.868c0,-1.574 0.842,-2.442 3.064,-3.155c0.87,-0.279 1.699,-0.698 1.843,-0.93c0.424,-0.687 1.956,-1.154 3.879,-1.183l1.799,-0.027v1.906z" data-paper-data="{&quot;wickUUID&quot;:&quot;69f65fd0-f943-4a8b-aa50-6184281c3773&quot;,&quot;wickType&quot;:&quot;path&quot;,&quot;originalStyle&quot;:{&quot;strokeColor&quot;:null,&quot;fillColor&quot;:[&quot;Color&quot;,0,0,0],&quot;strokeWidth&quot;:1}}" fill="#000000"/><path d="M497.1626,363.44013c-1.459,0.758 -4.317,2.678 -6.351,4.265c-3.663,2.858 -4.502,3.361 -8.082,4.84c-2.087,0.863 -3.738,2.77 -4.141,4.784c-0.624,3.122 2.098,4.924 6.878,4.555c1.604,-0.124 3.201,-0.202 3.551,-0.174c0.349,0.027 4.127,0.007 8.396,-0.046l7.762,-0.096l1.977,1.183c2.822,1.688 3.741,2.043 6.928,2.675c4.102,0.814 6.809,0.147 9.11,-2.243c3.493,-3.63 3.559,-5.093 0.365,-8.094c-1.265,-1.189 -2.719,-3.076 -3.233,-4.194c-1.505,-3.28 -4.953,-5.377 -8.842,-5.377c-2.223,0 -5.004,-0.897 -6.797,-2.192c-0.582,-0.421 -1.916,-0.877 -2.964,-1.014c-1.61,-0.211 -2.316,-0.037 -4.557,1.128zM502.4146,367.83013c1.715,1.202 5.461,2.413 8.528,2.757c3.496,0.392 4.374,0.959 5.554,3.585c0.425,0.946 1.485,2.446 2.357,3.332c1.492,1.518 1.544,1.657 0.884,2.386c-0.385,0.426 -1.234,0.881 -1.885,1.011c-1.809,0.362 -5.667,-0.705 -7.9,-2.185c-2.596,-1.719 -3.893,-1.93 -10.201,-1.657c-3.56,0.154 -5.23,0.082 -5.23,-0.225c0,-0.803 -1.377,-2 -2.3,-2c-0.494,0 -1.318,0.293 -1.831,0.652c-0.84,0.589 -4.462,1.872 -5.315,1.884c-0.83,0.011 0.232,-0.757 1.357,-0.982c0.685,-0.137 2.907,-1.517 4.938,-3.067c4.529,-3.456 8.649,-6.1 9.514,-6.105c0.356,-0.002 1.044,0.274 1.53,0.614z" data-paper-data="{&quot;wickUUID&quot;:&quot;54a9d63a-504d-4f60-aa9f-435119e39b31&quot;,&quot;wickType&quot;:&quot;path&quot;,&quot;originalStyle&quot;:{&quot;strokeColor&quot;:null,&quot;fillColor&quot;:[&quot;Color&quot;,0,0,0],&quot;strokeWidth&quot;:1}}" fill="#000000"/><path d="M427.19694,337.43723c-1.979,0.328 -6.826,1.252 -10.77,2.054c-6.851,1.393 -7.347,1.564 -11.129,3.821c-5.101,3.043 -9.017,6.688 -10.325,9.609c-0.884,1.975 -0.997,2.863 -1.005,7.94c-0.009,5.698 -0.005,5.726 1.516,8.91c1.882,3.94 7.485,10.031 11.467,12.465c2.362,1.444 3.058,1.656 5.961,1.819c3.941,0.221 5.394,-0.434 5.394,-2.432c0,-1.765 -1.342,-2.555 -4.335,-2.555c-3.382,0 -6.074,-1.59 -9.981,-5.897c-4.249,-4.683 -5.153,-6.767 -5.155,-11.887c-0.001,-2.212 0.204,-4.785 0.457,-5.716c0.591,-2.181 3.793,-5.253 8.262,-7.928c2.762,-1.653 4.197,-2.184 8.269,-3.061c8.449,-1.82 15.392,-2.772 20.202,-2.772c4.02,0 4.75,-0.112 5.723,-0.878c1.332,-1.047 1.424,-2.201 0.269,-3.357c-0.762,-0.762 -1.366,-0.841 -6.034,-0.788c-2.852,0.032 -6.806,0.326 -8.786,0.653z" data-paper-data="{&quot;wickUUID&quot;:&quot;55b138eb-71ba-4912-8143-bd4aed0c9d51&quot;,&quot;wickType&quot;:&quot;path&quot;,&quot;originalStyle&quot;:{&quot;strokeColor&quot;:null,&quot;fillColor&quot;:[&quot;Color&quot;,0,0,0],&quot;strokeWidth&quot;:1}}" fill="#000000"/><path d="M368.12958,339.42985c-2.736,1.192 -3.175,3.382 -1.227,6.121c1.871,2.631 4.75,4.014 8.576,4.121l3.138,0.088l1.246,2.003c1.944,3.123 5.618,7.324 9.383,10.731c5.016,4.538 7.728,5.687 9.305,3.944c0.737,-0.814 0.901,-2.071 0.377,-2.883c-0.171,-0.265 -1.041,-0.786 -1.933,-1.157c-2.542,-1.058 -11.153,-10.003 -13.109,-13.618c-2.533,-4.677 -5.699,-7.658 -9.681,-9.114c-2.602,-0.951 -4.285,-1.016 -6.075,-0.236z" data-paper-data="{&quot;wickUUID&quot;:&quot;4ce8f897-8238-4a63-9da1-a4ed29671758&quot;,&quot;wickType&quot;:&quot;path&quot;,&quot;originalStyle&quot;:{&quot;strokeColor&quot;:null,&quot;fillColor&quot;:[&quot;Color&quot;,0,0,0],&quot;strokeWidth&quot;:1}}" fill="#000000"/><path d="M390.11174,332.67008c-2.763,1.203 -3.962,4.257 -2.399,6.111c0.904,1.071 5.388,3.449 6.506,3.449c0.517,0 1.341,0.832 2.281,2.302c2.247,3.511 4.006,4.434 5.438,2.852c1.063,-1.175 0.853,-2.406 -0.816,-4.78c-0.834,-1.187 -1.797,-3.234 -2.139,-4.548c-0.762,-2.929 -1.492,-4.09 -3.248,-5.16c-1.563,-0.953 -3.751,-1.041 -5.623,-0.226z" data-paper-data="{&quot;wickUUID&quot;:&quot;871b3516-d600-44db-b029-bd99df4d1607&quot;,&quot;wickType&quot;:&quot;path&quot;,&quot;originalStyle&quot;:{&quot;strokeColor&quot;:null,&quot;fillColor&quot;:[&quot;Color&quot;,0,0,0],&quot;strokeWidth&quot;:1}}" fill="#000000"/></g><g fill="none" fill-rule="nonzero" stroke="none" stroke-width="1" stroke-linecap="butt" stroke-linejoin="miter" stroke-miterlimit="10" stroke-dasharray="" stroke-dashoffset="0" font-family="sans-serif" font-weight="normal" font-size="12" text-anchor="start" style="mix-blend-mode: normal"/><g id="wick_project_gui" fill="none" fill-rule="nonzero" stroke="none" stroke-width="1" stroke-linecap="butt" stroke-linejoin="miter" stroke-miterlimit="10" stroke-dasharray="" stroke-dashoffset="0" font-family="sans-serif" font-weight="normal" font-size="12" text-anchor="start" style="mix-blend-mode: normal"/></g></svg>