<svg version="1.1" xmlns="http://www.w3.org/2000/svg" xmlns:xlink="http://www.w3.org/1999/xlink" width="1260" height="594" viewBox="0,0,1260,594"><g transform="translate(-91.70217,-330.66282) scale(1.72369,1.72369)"><g id="wick_project_bg" fill-opacity="0" fill="#ffffff" fill-rule="nonzero" stroke="none" stroke-width="1" stroke-linecap="butt" stroke-linejoin="miter" stroke-miterlimit="10" stroke-dasharray="" stroke-dashoffset="0" font-family="none" font-weight="none" font-size="none" text-anchor="none" style="mix-blend-mode: normal"><rect x="0" y="0" width="720" height="480"/></g><g data-paper-data="{&quot;wickUUID&quot;:&quot;3117c2c7-bc6d-40df-bb7b-38be99b7b854&quot;,&quot;wickType&quot;:&quot;clipsandpaths&quot;}" fill="none" fill-rule="evenodd" stroke="none" stroke-width="1" stroke-linecap="butt" stroke-linejoin="miter" stroke-miterlimit="10" stroke-dasharray="" stroke-dashoffset="0" font-family="none" font-weight="none" font-size="none" text-anchor="none" style="mix-blend-mode: normal"><path d="M419.16194,343.21313c-2.84167,0.544 -6.43078,1.43437 -7.68011,1.86904c-4.61433,1.60467 -11.20047,6.55666 -12.33247,9.26599c-0.27067,0.64767 -0.80247,3.34505 -0.90614,5.31305c-0.17233,3.264 -0.10957,3.84895 0.4981,4.50095l1.88432,1.28094l1.56861,-1.91063c2.26733,-2.93233 9.6943,-10.01011 12.35463,-11.77278c1.375,-0.911 4.13496,-2.65717 6.24329,-3.96184c2.10833,-1.30467 4.36233,-2.76472 4.99366,-3.23539l1.51042,-1.39453l-1.93826,-0.98093c-0.53967,0.01567 -3.35438,0.48213 -6.19605,1.02613z" data-paper-data="{&quot;wickUUID&quot;:&quot;d37db6e9-9234-44ac-9c8a-f39ba2df58b4&quot;,&quot;wickType&quot;:&quot;path&quot;,&quot;originalStyle&quot;:{&quot;strokeColor&quot;:null,&quot;fillColor&quot;:[&quot;Color&quot;,0.50196,0,1],&quot;strokeWidth&quot;:1}}" id="d37db6e9-9234-44ac-9c8a-f39ba2df58b4" fill="#8000ff"/><path d="M458.27678,348.85074c-0.02233,2.90867 -0.1871,6.17254 -0.36577,7.22387c-0.29133,1.713 -0.25398,2.05156 0.33002,2.57889c0.614,0.555 0.63652,0.8708 0.42252,5.8978c-0.20033,4.699 -0.12631,6.04988 0.61069,11.18955c0.46,3.20833 1.00903,6.98312 1.1257,8.03712c0.24867,2.247 1.77285,2.60505 4.42085,1.37238c6.56333,-3.05567 13.58031,-10.6207 16.45631,-17.7407c0.66,-1.633 0.94388,-3.07831 0.99621,-6.83498c0.06033,-4.32167 -0.01411,-4.74748 -0.98578,-6.52915c-0.546,-1.001 -2.19344,-3.09602 -3.20177,-4.11969c-3.22433,-3.27333 -10.59144,-6.48074 -15.88011,-6.90874l-3.78447,0.16423z" data-paper-data="{&quot;wickUUID&quot;:&quot;0d98d508-dc62-42b4-a8c3-c2dfada54ea1&quot;,&quot;wickType&quot;:&quot;path&quot;,&quot;originalStyle&quot;:{&quot;strokeColor&quot;:null,&quot;fillColor&quot;:[&quot;Color&quot;,1,1,1],&quot;strokeWidth&quot;:1}}" id="0d98d508-dc62-42b4-a8c3-c2dfada54ea1" fill="#ffffff"/><path d="M438.47335,343.38239c-4.63842,0.73982 -6.38116,1.45822 -12.00142,5.00541c-2.93842,1.85444 -6.40834,3.98523 -7.61009,4.67795c-1.20174,0.69305 -3.46169,2.24829 -4.87522,3.34247c-3.15775,2.44468 -9.44144,9.2546 -9.72205,10.43803c-0.53721,2.26486 2.39916,7.33118 5.74192,9.51714c2.18816,1.43094 2.68848,1.68255 5.2196,1.64957c2.4108,-0.03141 2.20384,-0.30042 3.14098,0.57411c1.0431,0.97316 1.30582,2.06524 1.95248,7.04957l0.57591,2.45022l4.29819,1.31109c2.2086,0.64595 4.58653,1.11122 4.70467,1.04435c0.11814,-0.06654 0.94082,-1.63995 1.22543,-3.00177c0.5896,-2.82325 0.44074,-3.87347 1.86229,-3.89199c1.47387,-0.0192 3.56973,2.55828 8.46624,10.11313l1.45207,2.10777l2.05799,-0.13097c1.75555,-0.30123 4.98025,-1.18739 8.06297,-2.12496c2.754,-0.83728 2.9391,-1.08565 3.41392,-6.37361c0.29254,-3.26076 0.25402,-4.45453 -0.43458,-9.15296c-1.15037,-7.85001 -1.09204,-17.06077 0.12236,-19.1101c0.22475,-0.37896 0.50564,-0.1829 0.99861,-0.29066c0.62926,-0.13754 1.24683,-0.98933 1.36811,-1.60796c0.29041,-1.48024 0.74447,-8.49189 0.7141,-11.05304l-0.65672,-3.28031l-8.66827,0.11777c-4.75,0.08222 -9.81334,0.36526 -11.40949,0.61975z" data-paper-data="{&quot;wickUUID&quot;:&quot;2abe79fb-1c25-4dd5-8ba1-5673e9db255c&quot;,&quot;wickType&quot;:&quot;path&quot;,&quot;originalStyle&quot;:{&quot;strokeColor&quot;:null,&quot;fillColor&quot;:[&quot;Color&quot;,1,0.50196,0],&quot;strokeWidth&quot;:1}}" id="2abe79fb-1c25-4dd5-8ba1-5673e9db255c" fill="#ff8000"/><path d="M415.00682,401.56893c-0.43835,0.15077 -1.31661,0.59598 -1.78291,0.92659c-0.46597,0.33063 -1.44181,0.77268 -1.9739,0.86207c-1.55017,0.26077 -3.0809,2.13586 -3.14929,3.51316c-0.08205,1.65229 1.43842,4.40306 2.94284,5.1309c0.66617,0.32211 2.32789,1.21911 3.41704,1.7875l2.48532,1.11909l1.92743,-1.65389c1.42477,-1.37135 1.60401,-1.45858 3.28933,-1.58448l2.16296,-0.3015l-0.42959,-2.20784c-0.29116,-0.5618 -1.03274,-1.28072 -1.69913,-1.66591c-1.5641,-0.90369 -2.04857,-1.75699 -2.19343,-3.88046l-0.28084,-1.9696l-2.19325,-0.32456c-0.84487,-0.03027 -2.08423,0.09816 -2.52258,0.24893z" data-paper-data="{&quot;wickUUID&quot;:&quot;b6282f35-65ab-41e2-9055-226f4d45eec2&quot;,&quot;wickType&quot;:&quot;path&quot;,&quot;originalStyle&quot;:{&quot;strokeColor&quot;:null,&quot;fillColor&quot;:[&quot;Color&quot;,0,0,0],&quot;strokeWidth&quot;:1}}" id="b6282f35-65ab-41e2-9055-226f4d45eec2" fill="#000000"/><path d="M500.60266,368.09248c-0.82173,0.34144 -3.7638,1.91505 -6.50904,3.48206c-2.74488,1.56672 -5.59754,3.13197 -6.19956,3.38769c-1.81453,0.77135 0.25862,2.1401 2.71109,1.30443c1.2607,-0.42954 2.32634,-0.74484 2.68994,-0.70934c0.36394,0.03553 0.60775,0.38718 1.13802,1.07227l1.3387,1.46083l6.37808,0.73904l6.13959,0.69423l1.47538,1.22429c1.93683,1.51301 5.20367,2.94977 7.06383,3.13136c1.34693,0.13149 4.19599,-0.7797 4.24888,-1.32145c0.01626,-0.16654 -0.45433,-1.99642 -1.11395,-2.92792c-0.65962,-0.9315 -1.58298,-2.55735 -2.04418,-3.60009c-0.4612,-1.04274 -1.39439,-2.41064 -1.79528,-2.73312c-0.40089,-0.32248 -2.32681,-1.10804 -4.0639,-1.62393c-3.76129,-1.11674 -5.82204,-1.99912 -7.58368,-3.24819c-0.71574,-0.50761 -1.64289,-1.00557 -1.73655,-1.01705c-0.094,-0.01152 -1.31528,0.34315 -2.13737,0.68489z" data-paper-data="{&quot;wickUUID&quot;:&quot;2bc45731-d1b5-4543-b903-cc6c40db275d&quot;,&quot;wickType&quot;:&quot;path&quot;,&quot;originalStyle&quot;:{&quot;strokeColor&quot;:null,&quot;fillColor&quot;:[&quot;Color&quot;,0,0,0],&quot;strokeWidth&quot;:1}}" id="2bc45731-d1b5-4543-b903-cc6c40db275d" fill="#000000"/><path d="M442.88612,338.5855c-10.57652,1.41091 -13.06837,2.12944 -16.53629,4.76785c-1.22299,0.93001 -3.35738,2.37194 -4.74466,3.20408c-10.06117,6.03959 -10.47222,6.34498 -15.3594,11.42908c-5.32134,5.5348 -7.04396,7.87744 -7.02218,9.5493c0.02303,1.76785 3.64128,8.44127 5.4822,10.11143c0.91084,0.8262 3.16283,2.50001 5.00486,3.71811c3.04149,2.01355 3.45662,2.17416 4.53817,1.74903c1.0537,-0.41376 1.22037,-0.36393 1.44476,0.43221c0.13945,0.49423 0.27112,2.00363 0.29171,3.35348c0.03275,2.12975 0.19384,2.5957 1.21597,3.52046c0.64868,0.5856 1.68433,1.31917 2.30142,1.62916c2.09286,1.04982 11.88111,3.4615 12.82726,3.16015c1.45309,-0.46297 2.38138,-1.52116 2.37588,-2.71119l-0.00532,-1.09902l0.83473,1.04821c0.45954,0.57606 1.18438,1.70972 1.61196,2.51922c0.83161,1.5763 3.08457,4.6292 3.78818,5.13208c0.85603,0.6109 4.32453,0.24268 8.03456,-0.85375c2.08815,-0.61626 4.89754,-1.44893 6.24245,-1.84849c2.63902,-0.78345 4.91814,-2.86132 4.89724,-4.46518c-0.02021,-1.55087 0.76939,-2.50824 2.08328,-2.52536c4.40063,-0.05734 11.69412,-5.05578 17.38621,-11.91752c4.97234,-5.99329 7.28337,-12.29993 7.18705,-19.6153c-0.03585,-2.75177 -0.24846,-3.71808 -1.28398,-5.82377c-1.62624,-3.30809 -4.26505,-6.49998 -7.05173,-8.52985c-3.87612,-2.82374 -13.82524,-6.29941 -17.6438,-6.16365c-1.11258,0.0395 -4.88225,0.0126 -8.3765,-0.06088c-3.49425,-0.07348 -7.77991,0.05737 -9.52403,0.29011zM464.89716,343.97219c1.24221,0.31484 4.008,1.27889 6.14643,2.1421c4.31405,1.74094 7.29332,4.19834 9.47865,7.81718c1.16831,1.93494 1.21063,2.18941 1.12422,6.76392c-0.08607,4.60051 -0.14359,4.86829 -1.82148,8.34144c-2.04695,4.23903 -4.29829,7.14361 -8.50772,10.97578c-2.85635,2.60143 -6.66319,4.86522 -9.18761,5.46316c-1.01794,0.24128 -1.05784,0.1718 -1.11654,-1.95362c-0.0328,-1.21268 -0.4902,-4.77102 -1.01512,-7.90845c-0.81549,-4.86779 -0.91048,-6.47768 -0.65313,-10.98142c0.26486,-4.61784 0.21504,-5.37126 -0.39559,-6.02936c-0.85507,-0.92094 -2.40263,-0.95378 -3.26418,-0.06948c-0.99182,1.01801 -1.26019,3.2947 -1.17243,9.95312c0.05188,3.90466 0.35504,7.52201 0.83458,9.93997c0.60595,3.06237 0.69282,4.74138 0.44653,8.63492c-0.17736,2.81355 -0.5074,4.96203 -0.79008,5.14173c-0.93038,0.59117 -10.94434,3.19185 -11.50107,2.98609c-0.30851,-0.11399 -1.45317,-1.69221 -2.54392,-3.50815c-2.51069,-4.18164 -5.7448,-8.23686 -6.89421,-8.64492c-1.87986,-0.66757 -3.20689,1.18089 -3.85533,5.37269c-0.19375,1.24863 -0.41259,1.56951 -0.96958,1.42075c-0.39641,-0.10584 -2.37481,-0.66111 -4.39646,-1.23482l-3.67589,-1.0422l-0.32897,-3.06598c-0.5489,-5.13128 -0.9759,-6.20381 -2.75538,-6.91969c-1.2185,-0.49117 -1.872,-0.52465 -3.02129,-0.15565c-1.24988,0.40132 -1.68972,0.34004 -2.98469,-0.41715c-3.37499,-1.9732 -4.79147,-3.38186 -6.27884,-6.24072c-1.84848,-3.55522 -1.93068,-3.34013 3.4687,-9.02596c4.26089,-4.48789 6.58758,-6.29236 11.99179,-9.30502c1.84972,-1.03119 4.98221,-3.01017 6.96031,-4.39706c3.91654,-2.74726 6.15404,-3.49047 13.04066,-4.33226c5.0973,-0.62446 20.81706,-0.43825 23.63764,0.27906z" data-paper-data="{&quot;wickUUID&quot;:&quot;0ee6a379-1103-4e6e-b618-764a2d54987e&quot;,&quot;wickType&quot;:&quot;path&quot;,&quot;originalStyle&quot;:{&quot;strokeColor&quot;:null,&quot;fillColor&quot;:[&quot;Color&quot;,0,0,0],&quot;strokeWidth&quot;:1}}" id="0ee6a379-1103-4e6e-b618-764a2d54987e" fill="#000000"/><path d="M414.12042,380.27981c-0.81407,0.48522 -3.24482,1.83132 -5.40098,2.99081c-6.36777,3.4264 -8.08598,4.9 -8.19152,7.02538c-0.0182,0.36655 1.58949,2.57 3.57246,4.89821c1.98302,2.32722 3.59775,4.38884 3.58818,4.5816c-0.00952,0.19176 -0.66224,0.83518 -1.4496,1.42786c-1.99195,1.50205 -2.53008,2.49959 -2.66333,4.94099c-0.23375,4.26365 3.53819,10.12494 6.62739,10.29837c0.60805,0.0342 2.02905,0.67446 3.15834,1.42239c3.06317,2.02842 4.64627,1.96486 7.05489,-0.28645c1.61901,-1.51256 2.20088,-1.79806 3.52425,-1.73234c5.17862,0.25716 6.47031,-7.34614 1.90395,-11.20236c-1.23097,-1.03933 -1.37091,-1.3867 -1.28164,-3.18448c0.15757,-3.17309 -0.69839,-4.00157 -4.52604,-4.38588c-1.97061,-0.19798 -3.91176,-0.12216 -5.25772,0.20649l-2.1334,0.51983l-3.14505,-3.72657c-1.72949,-2.0493 -3.07,-3.78592 -2.97929,-3.85851c0.53503,-0.43099 6.54639,-3.73692 6.77411,-3.72561c0.15081,0.00749 1.3285,-0.70297 2.61754,-1.57912c1.89005,-1.28484 2.35473,-1.83147 2.40403,-2.82425c0.03938,-0.79302 -0.26182,-1.48181 -0.846,-1.93634c-1.19827,-0.93158 -1.59552,-0.91626 -3.35057,0.12998zM419.35038,403.96035c-0.09756,1.96458 0.86022,3.64614 2.11068,3.70824c0.75807,0.03764 2.74831,2.62254 2.40406,3.12308c-0.1424,0.20619 -1.03793,0.33594 -1.99076,0.28862c-1.47418,-0.0732 -1.98726,0.15763 -3.44377,1.5431l-1.71086,1.62815l-1.78038,-1.16574c-0.98039,-0.64141 -2.28674,-1.19088 -2.90498,-1.22158c-1.46719,-0.07286 -3.52071,-3.09743 -3.42405,-5.04403c0.07807,-1.57206 0.96208,-2.39723 3.21671,-2.99915c0.88277,-0.23551 1.73152,-0.61288 1.88685,-0.83745c0.45755,-0.66513 2.01083,-1.05557 3.9329,-0.98916l1.79813,0.06226l-0.09453,1.90366z" data-paper-data="{&quot;wickUUID&quot;:&quot;bc70b0dd-de94-4f51-b756-01d9627f0569&quot;,&quot;wickType&quot;:&quot;path&quot;,&quot;originalStyle&quot;:{&quot;strokeColor&quot;:null,&quot;fillColor&quot;:[&quot;Color&quot;,0,0,0],&quot;strokeWidth&quot;:1}}" id="bc70b0dd-de94-4f51-b756-01d9627f0569" fill="#000000"/><path d="M499.21201,364.00143c-1.52575,0.61266 -4.55678,2.24588 -6.73535,3.62775c-3.92336,2.48858 -4.80726,2.90768 -8.51402,4.03184c-2.16098,0.65614 -3.98944,2.3937 -4.58622,4.35902c-0.92439,3.0466 1.60964,5.10455 6.40288,5.20173c1.60846,0.03243 3.20549,0.10997 3.55111,0.17184c0.34473,0.06078 4.10679,0.40795 8.36074,0.76998l7.73461,0.65862l1.8527,1.3695c2.64464,1.9542 3.52479,2.39681 6.63531,3.33547c4.0035,1.2087 6.7625,0.80788 9.28483,-1.34724c3.82917,-3.27344 4.03701,-4.72312 1.1497,-8.02025c-1.14349,-1.30628 -2.40727,-3.32562 -2.81021,-4.48827c-1.17919,-3.41071 -4.40713,-5.83281 -8.27773,-6.21067c-2.21248,-0.21599 -4.89317,-1.37895 -6.55186,-2.84203c-0.53834,-0.47556 -1.82172,-1.05901 -2.85145,-1.29719c-1.58188,-0.36643 -2.30145,-0.26185 -4.64504,0.6799zM504.01262,368.88095c1.5901,1.36294 5.20071,2.93218 8.21978,3.57255c3.44137,0.72982 4.26013,1.37944 5.1794,4.10767c0.33107,0.98282 1.24031,2.57872 2.0221,3.54525c1.33745,1.65578 1.3757,1.79918 0.64799,2.4606c-0.42457,0.38658 -1.31376,0.75693 -1.97431,0.82306c-1.83561,0.18452 -5.57168,-1.25227 -7.65032,-2.94223c-2.4167,-1.9631 -3.68706,-2.29912 -9.99174,-2.64031c-3.55812,-0.19262 -5.21322,-0.42653 -5.18339,-0.73208c0.07802,-0.7992 -1.17617,-2.12433 -2.0948,-2.21401c-0.49166,-0.048 -1.34024,0.16355 -1.88569,0.47101c-0.89325,0.5046 -4.62277,1.42961 -5.4729,1.35867c-0.82714,-0.0697 0.30445,-0.73087 1.44599,-0.8455c0.69507,-0.0698 3.04064,-1.22738 5.21263,-2.57271c4.84336,-2.9996 9.20077,-5.23079 10.06216,-5.15172c0.35451,0.0326 1.01243,0.37414 1.4631,0.75975z" data-paper-data="{&quot;wickUUID&quot;:&quot;fe9326b1-45dd-470d-bf9b-ccdb7ea424ae&quot;,&quot;wickType&quot;:&quot;path&quot;,&quot;originalStyle&quot;:{&quot;strokeColor&quot;:null,&quot;fillColor&quot;:[&quot;Color&quot;,0,0,0],&quot;strokeWidth&quot;:1}}" id="fe9326b1-45dd-470d-bf9b-ccdb7ea424ae" fill="#000000"/><path d="M427.19694,337.43723c-1.979,0.328 -6.826,1.252 -10.77,2.054c-6.851,1.393 -7.347,1.564 -11.129,3.821c-5.101,3.043 -9.017,6.688 -10.325,9.609c-0.884,1.975 -0.997,2.863 -1.005,7.94c-0.009,5.698 -0.005,5.726 1.516,8.91c1.882,3.94 7.485,10.031 11.467,12.465c2.362,1.444 3.058,1.656 5.961,1.819c3.941,0.221 5.394,-0.434 5.394,-2.432c0,-1.765 -1.342,-2.555 -4.335,-2.555c-3.382,0 -6.074,-1.59 -9.981,-5.897c-4.249,-4.683 -5.153,-6.767 -5.155,-11.887c-0.001,-2.212 0.204,-4.785 0.457,-5.716c0.591,-2.181 3.793,-5.253 8.262,-7.928c2.762,-1.653 4.197,-2.184 8.269,-3.061c8.449,-1.82 15.392,-2.772 20.202,-2.772c4.02,0 4.75,-0.112 5.723,-0.878c1.332,-1.047 1.424,-2.201 0.269,-3.357c-0.762,-0.762 -1.366,-0.841 -6.034,-0.788c-2.852,0.032 -6.806,0.326 -8.786,0.653z" data-paper-data="{&quot;wickUUID&quot;:&quot;df8e7b88-5fb8-4c42-b83c-43c3f3c02c94&quot;,&quot;wickType&quot;:&quot;path&quot;,&quot;originalStyle&quot;:{&quot;strokeColor&quot;:null,&quot;fillColor&quot;:[&quot;Color&quot;,0,0,0],&quot;strokeWidth&quot;:1}}" id="df8e7b88-5fb8-4c42-b83c-43c3f3c02c94" fill="#000000"/><path d="M369.60822,338.94316c-2.7755,1.09688 -3.2898,3.27042 -1.43748,6.07501c1.7791,2.694 4.60865,4.17552 8.42868,4.41448l3.1331,0.19623l1.17614,2.0448c1.83508,3.18822 5.36192,7.5135 9.00711,11.04839c4.85642,4.70839 7.52716,5.95028 9.16337,4.26274c0.76465,-0.78808 0.97193,-2.03867 0.47626,-2.86827c-0.16175,-0.27074 -1.01326,-0.82145 -1.89193,-1.22301c-2.50398,-1.14509 -10.80118,-10.38191 -12.63127,-14.06225c-2.3701,-4.76162 -5.43135,-7.85009 -9.36074,-9.44263c-2.56763,-1.04022 -4.24739,-1.16326 -6.06324,-0.44549z" data-paper-data="{&quot;wickUUID&quot;:&quot;488ab755-c3d4-4726-87a7-3c849e6e1e0b&quot;,&quot;wickType&quot;:&quot;path&quot;,&quot;originalStyle&quot;:{&quot;strokeColor&quot;:null,&quot;fillColor&quot;:[&quot;Color&quot;,0,0,0],&quot;strokeWidth&quot;:1}}" id="488ab755-c3d4-4726-87a7-3c849e6e1e0b" fill="#000000"/><path d="M392.55885,332.40659c-2.82906,1.03817 -4.20586,4.01625 -2.75477,5.95909c0.83935,1.12239 5.1755,3.76036 6.29156,3.82621c0.5161,0.03045 1.28966,0.90955 2.14145,2.43236c2.0363,3.63725 3.73789,4.66225 5.26058,3.16734c1.13036,-1.11035 0.99323,-2.35158 -0.53304,-4.81976c-0.76264,-1.23406 -1.6034,-3.33423 -1.86741,-4.66609c-0.58816,-2.9688 -1.24851,-4.17078 -2.93844,-5.34235c-1.50416,-1.04341 -3.68318,-1.26013 -5.59993,-0.5568z" data-paper-data="{&quot;wickUUID&quot;:&quot;965004fc-bc2b-4aa1-a558-120c5b3fe0b5&quot;,&quot;wickType&quot;:&quot;path&quot;,&quot;originalStyle&quot;:{&quot;strokeColor&quot;:null,&quot;fillColor&quot;:[&quot;Color&quot;,0,0,0],&quot;strokeWidth&quot;:1}}" id="965004fc-bc2b-4aa1-a558-120c5b3fe0b5" fill="#000000"/></g><g fill="none" fill-rule="nonzero" stroke="none" stroke-width="1" stroke-linecap="butt" stroke-linejoin="miter" stroke-miterlimit="10" stroke-dasharray="" stroke-dashoffset="0" font-family="sans-serif" font-weight="normal" font-size="12" text-anchor="start" style="mix-blend-mode: normal"/><g id="wick_project_gui" fill="none" fill-rule="nonzero" stroke="none" stroke-width="1" stroke-linecap="butt" stroke-linejoin="miter" stroke-miterlimit="10" stroke-dasharray="" stroke-dashoffset="0" font-family="sans-serif" font-weight="normal" font-size="12" text-anchor="start" style="mix-blend-mode: normal"/></g></svg>