<svg version="1.1" xmlns="http://www.w3.org/2000/svg" xmlns:xlink="http://www.w3.org/1999/xlink" width="1260" height="497" viewBox="0,0,1260,497"><g transform="translate(234.32,-108.62) scale(1.188,1.188)"><g id="wick_project_bg" fill-opacity="0" fill="#ffffff" fill-rule="nonzero" stroke="none" stroke-width="1" stroke-linecap="butt" stroke-linejoin="miter" stroke-miterlimit="10" stroke-dasharray="" stroke-dashoffset="0" font-family="none" font-weight="none" font-size="none" text-anchor="none" style="mix-blend-mode: normal"><rect x="0" y="0" width="720" height="480"/></g><g data-paper-data="{&quot;wickUUID&quot;:&quot;a4407687-5cff-43b6-81cf-d4a96328918e&quot;,&quot;wickType&quot;:&quot;clipsandpaths&quot;}" fill="none" fill-rule="nonzero" stroke="none" stroke-width="1" stroke-linecap="butt" stroke-linejoin="miter" stroke-miterlimit="10" stroke-dasharray="" stroke-dashoffset="0" font-family="sans-serif" font-weight="normal" font-size="12" text-anchor="start" style="mix-blend-mode: normal"/><g data-paper-data="{&quot;wickUUID&quot;:&quot;2a7b228a-feef-4d0d-a305-493110d220ed&quot;,&quot;wickType&quot;:&quot;clipsandpaths&quot;}" fill="#000000" fill-rule="evenodd" stroke="none" stroke-width="1" stroke-linecap="butt" stroke-linejoin="miter" stroke-miterlimit="10" stroke-dasharray="" stroke-dashoffset="0" font-family="none" font-weight="none" font-size="none" text-anchor="none" style="mix-blend-mode: normal"><path d="M436.49806,291.73144c-0.00033,2.23433 -1.24643,9.02728 -3.2931,17.94695c-1.092,4.759 -2.82467,12.53403 -3.855,17.3007c-3.57733,16.54467 -5.55279,25.20264 -6.38246,27.95331c-0.96467,3.19833 -0.91063,4.52231 0.4667,8.94064l1.59782,3.61391l3.79084,-2.34576c3.81133,-2.657 7.86717,-5.76316 9.39084,-7.18383c1.05367,-0.983 1.35452,-1.97035 1.17752,-3.46468c-0.18133,-1.533 -1.41305,-4.934 -4.72305,-12.999c-1.027,-2.50233 -1.51412,-3.71848 -1.51412,-4.70881c0,-1.78 1.34653,-5.18815 9.28853,-23.59382c5.485,-12.71133 5.74955,-13.76515 5.19988,-14.37248c-0.917,-1.013 -9.14322,-8.65473 -9.48789,-8.77706c-0.17167,-0.06133 -1.65651,0.98693 -1.65651,1.68993z" data-paper-data="{&quot;wickUUID&quot;:&quot;ee3245dd-eaca-497c-9f5c-176efdd96753&quot;,&quot;wickType&quot;:&quot;path&quot;,&quot;originalStyle&quot;:{&quot;strokeColor&quot;:null,&quot;fillColor&quot;:[&quot;Color&quot;,0,0,0],&quot;strokeWidth&quot;:1}}"/><path d="M305.38838,170.83803c-10.56267,0.706 -18.58862,3.86168 -28.27595,11.13568c-5.934,4.45533 -16.61679,15.21722 -21.56946,21.75489c-1.00333,1.32433 -2.04562,3.2841 -2.04562,3.44977c0,0.16567 1.50134,1.41754 2.94234,2.14221c3.35,1.68433 6.81426,4.39422 11.23093,8.85155c6.675,6.73733 8.40338,9.63228 13.83938,23.08928c4.403,10.9 7.08293,15.52604 9.24726,16.37871c0.75533,0.29733 6.76797,1.28348 17.79364,2.73681c0.82433,0.10867 2.80638,0.25312 4.64671,0.38445c4.33433,0.30933 5.24238,0.75977 13.06971,6.61977c8.03133,6.01267 12.7484,10.22677 22.15507,19.77777c4.30833,4.37433 9.05537,9.10856 10.5727,10.54256l3.1696,2.832l3.17995,-1.5041c1.416,-0.77767 4.0227,-2.27875 5.84737,-3.36408c6.95333,-4.13633 17.01673,-8.83783 18.95406,-8.83783c1.239,0 2.7824,1.2289 3.8744,2.80457c1.17167,1.691 1.06101,2.2565 -0.37966,5.73417c-1.22233,2.95067 -4.11595,11.4633 -6.91495,20.3393c-2.51767,7.984 -4.20415,11.00861 -6.90615,12.08961c-1.53633,0.61467 -2.45005,0.61053 -8.87772,1.07353c-5.797,0.418 -8.01065,0.44404 -11.10265,0.13537l-2.80997,-0.0905l-6.41148,6.0555c-5.72133,5.418 -6.16836,5.82571 -7.08069,5.71138c-0.55467,-0.06967 -3.16156,-0.34071 -6.27823,-0.54004c-6.08367,-0.38867 -11.09354,-0.99973 -14.82987,-1.84473c-4.38033,-0.99033 -6.64128,-0.27575 -13.02628,4.20725c-2.335,1.63967 -5.8711,3.87425 -7.7361,4.90225l-3.00429,1.74669l-6.76354,-1.18484c-3.81833,-0.65567 -8.22949,-1.2227 -9.76016,-1.25437l-3.2026,0.00443l-1.96466,2.1202c-3.79033,4.326 -4.73508,5.22345 -6.45108,5.72145c-1.877,0.54433 -4.65658,0.55499 -8.95425,0.14266l-3.32529,-0.19211l0.36267,2.59306c1.03067,2.02033 9.82949,16.52422 14.27082,23.52455c4.33067,6.82567 6.72488,10.03714 8.64321,11.89914c1.753,1.70133 2.95472,1.88701 13.17805,1.16601c8.436,-0.595 10.27845,-0.57481 20.21078,0.25786c18.93967,1.58833 19.09345,1.56906 51.56378,-6.44494c21.92367,-5.411 31.07675,-7.37573 38.02975,-8.1654c9.14433,-1.03833 10.83553,-1.31837 11.3992,-1.7307c0.542,-0.396 1.0134,-1.58199 0.2554,-4.04532c-0.44333,-1.441 -1.75429,-5.26149 -2.89096,-8.41949l-2.02525,-5.56207l0.97148,-2.95685c1.50533,-4.95933 3.50107,-13.40123 8.27174,-34.98256c5.25267,-23.76033 6.0237,-28.43656 7.74237,-46.88589c0.61867,-6.63867 0.53579,-20.1122 -0.15421,-24.45653c-0.30567,-1.925 -0.78701,-5.0032 -1.06101,-6.74487c-0.274,-1.74167 -0.58098,-4.65017 -0.68465,-6.4835c-0.10367,-1.83333 -0.47378,-4.67899 -0.75478,-6.05399c-1.23933,-6.063 -9.24676,-23.66721 -13.93943,-30.68654c-5.36133,-8.01933 -11.62539,-12.72623 -24.07206,-18.02223c-8.241,-3.50633 -18.53503,-6.66984 -25.9507,-7.95651c-1.69033,-0.293 -8.87394,-1.00114 -15.79794,-1.54914c-26.54433,-2.101 -33.50106,-2.42763 -40.42073,-1.9653z" data-paper-data="{&quot;wickUUID&quot;:&quot;12df08fd-d29a-4d38-adf4-d1719685729f&quot;,&quot;wickType&quot;:&quot;path&quot;,&quot;originalStyle&quot;:{&quot;strokeColor&quot;:null,&quot;fillColor&quot;:[&quot;Color&quot;,0,0,0],&quot;strokeWidth&quot;:1}}"/><path d="M304.97799,160.5476c-19.102,2.158 -29.955,7.918 -46.788,24.835c-11.641,11.699 -18.447,21.311 -18.447,26.052c0,3.915 2.279,5.815 6.976,5.815c4.079,0 5.694,0.855 12.024,6.37c5.714,4.977 8.44,9.523 13.812,23.034c3.463,8.708 6.717,15.106 9.131,17.948c1.679,1.977 5.75,2.996 20.902,5.23c9.099,1.341 13.348,2.339 14.808,3.479c1.127,0.879 4.854,3.739 8.283,6.355c3.43,2.617 11.295,10.111 17.478,16.654c11.732,12.414 16.283,15.748 20.21,14.81c1.22,-0.292 5.19,-2.242 8.823,-4.335c3.633,-2.092 6.79,-3.619 7.016,-3.393c0.226,0.226 -0.58,3.662 -1.792,7.635l-2.203,7.223h-9.388c-11.139,0 -14.568,1.268 -21.215,7.846l-4.194,4.15l-5.513,-0.511c-3.031,-0.281 -8.197,-0.96 -11.479,-1.51c-7.675,-1.284 -12.605,0.191 -20.27,6.065c-2.986,2.289 -6.069,4.155 -6.852,4.147c-0.782,-0.008 -4.074,-0.587 -7.315,-1.288c-7.63,-1.649 -12.821,-0.971 -17.274,2.255c-1.885,1.365 -3.64,3.036 -3.899,3.711c-0.626,1.632 -5.485,1.593 -14.823,-0.121c-6.803,-1.249 -7.539,-1.247 -9.47,0.017c-4.046,2.652 -2.675,7.034 6.399,20.453c2.124,3.142 7.196,11.204 11.271,17.917c8.735,14.39 14.046,21.538 16.65,22.406c1.038,0.346 6.054,0.505 11.146,0.353c14.825,-0.442 20.292,-0.386 33.249,0.344c14.348,0.807 16.989,0.382 51.347,-8.266c22.208,-5.59 28.345,-6.748 42.334,-7.988c6.748,-0.599 8.606,-1.072 10.241,-2.607c3.29,-3.091 3.235,-5.067 -0.46,-16.37c-3.423,-10.476 -3.438,-10.573 -2.145,-14.571c0.715,-2.213 2.651,-10.464 4.302,-18.334c1.651,-7.871 4.103,-19.045 5.45,-24.832c3.289,-14.134 3.22,-13.707 4.662,-29.041c1.607,-17.08 1.61,-27.973 0.01,-36.331c-0.694,-3.629 -1.262,-8.52 -1.262,-10.87c-0.001,-4.52 -2.024,-11.178 -7.102,-23.366c-10.394,-24.95 -22.523,-35.003 -53.925,-44.698c-8.985,-2.773 -11.916,-3.251 -26.516,-4.325c-22.808,-1.678 -40.746,-2.87 -41.245,-2.741c-0.232,0.06 -1.558,0.237 -2.947,0.394zM331.91399,172.2216c8.334,0.692 18.561,1.487 22.728,1.767c15.379,1.031 39.631,9.986 49.434,18.251c6.674,5.628 13.311,17.301 19.964,35.111c0.951,2.546 1.729,6.523 1.729,8.838c0.001,2.315 0.569,7.178 1.263,10.807c0.695,3.628 1.262,10.068 1.26,14.309c-0.004,11.814 -2.336,33.6 -4.699,43.908c-1.167,5.092 -3.767,16.858 -5.778,26.146c-2.01,9.287 -4.424,19.451 -5.365,22.585l-1.709,5.699l2.92,8.069c1.607,4.438 2.749,8.519 2.538,9.069c-0.23,0.599 -3.361,1.241 -7.811,1.602c-9.34,0.758 -17.363,2.413 -43.224,8.918c-28.149,7.08 -30.612,7.453 -43.834,6.651c-6.045,-0.367 -12.055,-0.901 -13.355,-1.186c-1.301,-0.286 -6.937,-0.123 -12.525,0.363c-6.202,0.538 -10.944,0.584 -12.171,0.118c-1.105,-0.421 -3.745,-3.355 -5.865,-6.521c-5.058,-7.55 -19.153,-30.649 -19.153,-31.387c0,-0.316 2.36,-0.297 5.243,0.043c6.536,0.771 9.796,-0.446 12.375,-4.62c1.035,-1.674 2.793,-3.272 3.907,-3.552c1.114,-0.28 5.79,0.153 10.39,0.961l8.364,1.469l3.64,-1.893c2.002,-1.041 5.856,-3.556 8.564,-5.589c5.219,-3.918 8.152,-4.536 13.822,-2.91c1.508,0.433 6.681,1.05 11.496,1.373l8.755,0.586l6.341,-6.002l6.342,-6.002h10.799c12.137,0 13.459,-0.471 16.156,-5.757c0.875,-1.716 2.788,-7.226 4.249,-12.243c1.462,-5.018 3.581,-11.212 4.71,-13.764c1.129,-2.553 2.053,-5.324 2.053,-6.159c0,-1.558 -3.698,-5.005 -5.375,-5.009c-1.997,-0.005 -12.217,4.779 -19.276,9.024c-4.067,2.446 -7.913,4.446 -8.545,4.446c-0.632,0 -6.189,-5.331 -12.348,-11.847c-7.204,-7.622 -14.515,-14.338 -20.496,-18.828c-11.197,-8.407 -12.074,-8.887 -16.248,-8.887c-3.293,0 -19.589,-2.211 -22.258,-3.02c-2.048,-0.621 -4.293,-4.607 -8.531,-15.152c-2.042,-5.082 -4.756,-11.311 -6.03,-13.842c-2.712,-5.386 -13.191,-15.997 -18.382,-18.614c-1.928,-0.972 -3.627,-1.875 -3.777,-2.007c-1.497,-1.313 15.108,-19.29 23.466,-25.404c14.94,-10.93 23.408,-12.478 54.247,-9.918z" data-paper-data="{&quot;wickUUID&quot;:&quot;7ae5b3ea-a8e5-489d-8667-137dd80efc45&quot;,&quot;wickType&quot;:&quot;path&quot;,&quot;originalStyle&quot;:{&quot;strokeColor&quot;:null,&quot;fillColor&quot;:[&quot;Color&quot;,0,0,0],&quot;strokeWidth&quot;:1}}"/><path d="M434.66828,280.02047c-0.728,0.727 -1.323,2.396 -1.323,3.708c0,1.921 1.411,3.68 7.233,9.017l7.232,6.632l-3.37,7.968c-1.854,4.382 -5.294,12.324 -7.646,17.648c-2.351,5.324 -4.279,10.48 -4.283,11.458c-0.004,0.977 1.087,4.197 2.425,7.155c1.339,2.957 2.918,7 3.51,8.985c1.07,3.587 1.059,3.622 -1.802,6.082c-1.583,1.361 -4.961,3.892 -7.508,5.623c-9.237,6.283 -10.443,8.645 -6.139,12.03c2.95,2.321 5.034,1.811 12.096,-2.96c8.444,-5.704 15.929,-13.047 15.929,-15.626c0,-2.266 -2.886,-11.2 -5.693,-17.625l-1.668,-3.818l3.737,-8.388c7.108,-15.949 11.2,-26.392 11.2,-28.58c0,-3.673 -2.041,-6.485 -9.948,-13.712c-7.997,-7.309 -11.049,-8.531 -13.982,-5.597z" data-paper-data="{&quot;wickUUID&quot;:&quot;5c60c6fe-36ca-413c-a2e3-c30be3cf9ba0&quot;,&quot;wickType&quot;:&quot;path&quot;,&quot;originalStyle&quot;:{&quot;strokeColor&quot;:null,&quot;fillColor&quot;:[&quot;Color&quot;,0,0,0],&quot;strokeWidth&quot;:1}}"/><path d="M188.99918,269.85436c-5.278,1.451 -6.495,2.572 -6.495,5.98c0,3.512 3.005,5.839 6.61,5.118c2.086,-0.417 2.556,-0.112 3.778,2.451c0.768,1.61 1.4,3.577 1.404,4.371c0.022,4.104 10.662,17.755 16.914,21.701c5.185,3.274 12.814,4.891 23.061,4.89c8.788,-0.001 9.531,-0.14 14.603,-2.737c6.843,-3.503 16.2,-5.153 29.168,-5.143c20.536,0.015 40.692,5 66.626,16.477c17.77,7.863 19.745,8.303 24.438,5.441c2.404,-1.465 8.684,-9.945 8.684,-11.725c0,-0.389 1.322,-2.37 2.938,-4.403c1.616,-2.033 2.941,-4.482 2.946,-5.443c0.01,-2.284 -3.362,-5.408 -5.839,-5.408c-2.511,0 -6.54,4.287 -9.542,10.154c-1.288,2.517 -2.878,5.284 -3.532,6.148c-1.408,1.861 -0.951,1.998 -17.274,-5.179c-15.731,-6.916 -35.432,-13.201 -47.138,-15.036c-6.607,-1.036 -14.224,-1.51 -23.99,-1.492c-15.971,0.029 -22.353,1.136 -31.302,5.431c-4.131,1.982 -6.342,2.499 -10.691,2.499c-6.127,0 -13.251,-1.299 -16.658,-3.038c-3.42,-1.746 -11.457,-11.69 -12.461,-15.419c-1.562,-5.802 -5.087,-12.555 -7.701,-14.755c-2.859,-2.405 -2.971,-2.417 -8.547,-0.883z" data-paper-data="{&quot;wickUUID&quot;:&quot;f452c8b9-ed50-46c1-bd36-bea61788e231&quot;,&quot;wickType&quot;:&quot;path&quot;,&quot;originalStyle&quot;:{&quot;strokeColor&quot;:null,&quot;fillColor&quot;:[&quot;Color&quot;,0,0,0],&quot;strokeWidth&quot;:1}}"/></g><g data-paper-data="{&quot;wickUUID&quot;:&quot;8343252e-1a54-4df4-8263-18ab2014658a&quot;,&quot;wickType&quot;:&quot;clipsandpaths&quot;}" fill="none" fill-rule="nonzero" stroke="none" stroke-width="1" stroke-linecap="butt" stroke-linejoin="miter" stroke-miterlimit="10" stroke-dasharray="" stroke-dashoffset="0" font-family="sans-serif" font-weight="normal" font-size="12" text-anchor="start" style="mix-blend-mode: normal"/><g fill="none" fill-rule="nonzero" stroke="none" stroke-width="1" stroke-linecap="butt" stroke-linejoin="miter" stroke-miterlimit="10" stroke-dasharray="" stroke-dashoffset="0" font-family="sans-serif" font-weight="normal" font-size="12" text-anchor="start" style="mix-blend-mode: normal"/><g id="wick_project_gui" fill="none" fill-rule="nonzero" stroke="none" stroke-width="1" stroke-linecap="butt" stroke-linejoin="miter" stroke-miterlimit="10" stroke-dasharray="" stroke-dashoffset="0" font-family="sans-serif" font-weight="normal" font-size="12" text-anchor="start" style="mix-blend-mode: normal"/></g></svg>