<svg version="1.1" xmlns="http://www.w3.org/2000/svg" xmlns:xlink="http://www.w3.org/1999/xlink" width="1260" height="497" viewBox="0,0,1260,497"><g transform="translate(234.32,-108.62) scale(1.188,1.188)"><g id="wick_project_bg" fill-opacity="0" fill="#ffffff" fill-rule="nonzero" stroke="none" stroke-width="1" stroke-linecap="butt" stroke-linejoin="miter" stroke-miterlimit="10" stroke-dasharray="" stroke-dashoffset="0" font-family="none" font-weight="none" font-size="none" text-anchor="none" style="mix-blend-mode: normal"><rect x="0" y="0" width="720" height="480"/></g><g data-paper-data="{&quot;wickUUID&quot;:&quot;a4407687-5cff-43b6-81cf-d4a96328918e&quot;,&quot;wickType&quot;:&quot;clipsandpaths&quot;}" fill="none" fill-rule="nonzero" stroke="none" stroke-width="1" stroke-linecap="butt" stroke-linejoin="miter" stroke-miterlimit="10" stroke-dasharray="" stroke-dashoffset="0" font-family="sans-serif" font-weight="normal" font-size="12" text-anchor="start" style="mix-blend-mode: normal"/><g data-paper-data="{&quot;wickUUID&quot;:&quot;49b874e1-8ddf-4bc9-9925-0dd7ca5aad14&quot;,&quot;wickType&quot;:&quot;clipsandpaths&quot;}" fill="none" fill-rule="evenodd" stroke="none" stroke-width="1" stroke-linecap="butt" stroke-linejoin="miter" stroke-miterlimit="10" stroke-dasharray="" stroke-dashoffset="0" font-family="none" font-weight="none" font-size="none" text-anchor="none" style="mix-blend-mode: normal"><path d="M327.28526,186.69662c-5.939,2.158 -43.552,29.972 -54.575,40.358c-6.11,5.756 -7.064,7.043 -7.398,9.976c-0.422,3.712 0.054,4.737 5.336,11.47c1.952,2.488 4.324,5.536 5.271,6.773c2.195,2.867 5.875,3.719 9.024,2.09c2.046,-1.058 2.698,-1.07 4.481,-0.083c2.804,1.552 21.609,1.601 27.339,0.07c4.872,-1.301 17.684,-7.375 20.309,-9.627c0.984,-0.845 3.589,-4.164 5.788,-7.375l3.998,-5.84l-0.39,-12.628c-0.427,-13.852 -0.386,-13.713 -7.018,-23.964c-2.061,-3.187 -3.748,-6.218 -3.748,-6.737c0,-0.518 -0.93,-1.873 -2.066,-3.009c-2.009,-2.009 -3.761,-2.416 -6.351,-1.474zM330.86226,204.48762c3.031,4.705 3.976,7.711 2.423,7.711c-2.265,0 -14.522,9.408 -22.086,16.952c-8.139,8.116 -9.32,8.97 -17.017,12.299c-4.548,1.968 -9.157,3.578 -10.24,3.578c-1.302,0 -2.901,-1.175 -4.713,-3.463l-2.743,-3.463l5.408,-4.951c8.658,-7.928 42.946,-33.505 44.97,-33.546c0.463,-0.01 2.262,2.188 3.998,4.883zM333.46526,235.11762c-1.282,1.85 -3.484,4.243 -4.892,5.317c-4.743,3.618 -19.807,8.759 -19.807,6.761c0,-0.888 19.814,-19.601 22.976,-21.699l3.539,-2.348l0.258,4.302c0.214,3.579 -0.134,4.868 -2.074,7.667z" data-paper-data="{&quot;wickUUID&quot;:&quot;d5b93517-face-4a08-9463-13b74ca4aa09&quot;,&quot;wickType&quot;:&quot;path&quot;,&quot;originalStyle&quot;:{&quot;strokeColor&quot;:null,&quot;fillColor&quot;:[&quot;Color&quot;,0,0,0],&quot;strokeWidth&quot;:1}}" fill="#000000"/><path d="M309.18727,186.12787c-10.082,2.036 -26.341,9.844 -30.598,14.693c-5.137,5.851 -8.269,18.837 -5.729,23.751c1.656,3.202 4.987,4.217 7.797,2.377c2.326,-1.525 2.203,-1.16 2.41,-7.174c0.087,-2.547 0.946,-6.397 1.907,-8.556c1.51,-3.392 2.588,-4.392 7.93,-7.354c3.4,-1.885 9.115,-4.41 12.7,-5.611c7.074,-2.369 9.463,-2.144 15.347,1.444c3.274,1.996 4.755,1.959 7.483,-0.186c3.067,-2.413 2.878,-5.253 -0.518,-7.788c-3.536,-2.639 -13.017,-6.704 -14.856,-6.369c-0.279,0.051 -2.021,0.399 -3.873,0.773z" data-paper-data="{&quot;wickUUID&quot;:&quot;38fbdb01-932b-4231-bda9-4cd83de6080a&quot;,&quot;wickType&quot;:&quot;path&quot;,&quot;originalStyle&quot;:{&quot;strokeColor&quot;:null,&quot;fillColor&quot;:[&quot;Color&quot;,0,0,0],&quot;strokeWidth&quot;:1}}" fill="#000000"/><path d="M336.54402,238.5284c-1.182,0.591 -2.454,2.234 -2.902,3.749c-0.664,2.243 -1.119,2.618 -2.694,2.222c-1.345,-0.337 -2.545,0.175 -4.136,1.766c-3.029,3.029 -2.645,4.543 5.46,21.489c3.654,7.639 10.61,22.601 15.458,33.249c12.794,28.099 36.838,76.485 41.409,83.334c4.747,7.11 6.635,8.838 9.657,8.838c3.176,0 5.088,-2.41 5.088,-6.411c0,-2.904 0.554,-3.87 4.307,-7.51c6.254,-6.066 9.164,-10.315 9.143,-13.352c-0.024,-3.568 -3.63,-13.512 -6.249,-17.233c-14.119,-20.059 -27.636,-41.731 -33.144,-53.137c-12.469,-25.826 -18.545,-35.691 -24.71,-40.118c-2.388,-1.715 -4.058,-3.752 -4.819,-5.875c-1.475,-4.119 -5.553,-10.119 -7.636,-11.234c-1.945,-1.041 -1.676,-1.055 -4.232,0.223zM339.01002,255.5494c0,0.463 -0.542,-0.106 -1.203,-1.263c-0.662,-1.157 -1.203,-2.483 -1.203,-2.946c0,-0.463 0.541,0.105 1.203,1.263c0.661,1.157 1.203,2.483 1.203,2.946zM353.17902,271.7384c2.018,3.133 7.827,14.16 12.91,24.506c5.453,11.097 12.045,23.004 16.08,29.04c3.761,5.627 9.117,13.64 11.903,17.807c2.786,4.166 5.881,8.571 6.877,9.787c0.996,1.216 2.688,4.558 3.761,7.425l1.949,5.214l-4.96,5.012c-4.581,4.63 -5.048,4.899 -6.112,3.518c-1.842,-2.392 -29.812,-59.543 -38.838,-79.357c-4.534,-9.954 -9.942,-21.739 -12.017,-26.189l-3.774,-8.091l4.276,2.816c2.885,1.901 5.469,4.669 7.945,8.512z" data-paper-data="{&quot;wickUUID&quot;:&quot;1bf718d7-09ab-4b71-ab98-f9e620cfa97e&quot;,&quot;wickType&quot;:&quot;path&quot;,&quot;originalStyle&quot;:{&quot;strokeColor&quot;:null,&quot;fillColor&quot;:[&quot;Color&quot;,0,0,0],&quot;strokeWidth&quot;:1}}" fill="#000000"/><path d="M341.16675,261.62375c0,0.06867 0.90052,2.4298 1.92619,4.6068c1.02567,2.177 5.13626,11.08821 9.13226,19.79654c8.37467,18.25133 11.50058,24.88201 20.19691,42.84434c7.774,16.05633 21.96414,44.46843 22.63081,45.31243c0.33567,0.425 1.95049,0.88296 2.47282,0.74963c0.422,-0.10767 2.80069,-2.20971 5.13536,-4.55338l4.44677,-4.553l-1.18935,-3.80648c-1.953,-5.18867 -3.0765,-7.37876 -5.3845,-10.52343c-3.30433,-4.50233 -18.0592,-26.54647 -20.7072,-30.93847c-4.11733,-6.82833 -7.55745,-13.23087 -14.68445,-27.32854c-11.903,-23.545 -13.77772,-26.41644 -20.01605,-30.65277c-1.93667,-1.315 -3.95957,-1.25334 -3.95957,-0.95367z" data-paper-data="{&quot;wickUUID&quot;:&quot;02e61c2a-489f-4087-a1c4-1a30827de154&quot;,&quot;wickType&quot;:&quot;path&quot;}" fill="#ffffff"/><path d="M326.43319,200.1827c-0.275,0.17767 -1.1637,0.43231 -1.6897,0.43531c-1.163,0.006 -6.84028,3.91837 -19.92561,13.7277c-16.14433,12.102 -28.72902,22.59636 -28.18902,23.50169c0.126,0.21167 1.07196,2.62653 2.06296,3.85953c1.97867,2.46233 4.22591,3.79704 5.58824,3.79704c2.05033,0 14.34894,-5.2099 18.01861,-7.64157c1.06767,-0.70733 4.42725,-3.6525 7.27092,-6.40417c2.84333,-2.75167 6.24849,-5.95119 7.62349,-7.15852c6.61233,-5.80467 14.78098,-11.67622 16.25431,-11.67622c1.06067,0 1.2366,-1.93107 0.13893,-4.3204c-1.04867,-2.28233 -4.95201,-8.17003 -5.41434,-8.16336c-0.18833,0.003 -1.46379,-0.1347 -1.73879,0.04297z" data-paper-data="{&quot;wickUUID&quot;:&quot;01efe9af-bb75-48f3-9a81-f6412368fe99&quot;,&quot;wickType&quot;:&quot;path&quot;}" fill="#0000ff"/><path d="M305.21346,197.89118c-4.13033,1.39 -10.86651,4.468 -14.41384,6.58c-2.84267,1.69233 -4.7322,3.55916 -5.8822,5.81883c-0.79467,1.56167 -1.8342,6.31017 -1.85553,7.3825c-0.00267,0.136 3.25032,-1.33584 5.86299,-3.37951c4.642,-3.631 15.60396,-11.84774 19.25629,-14.43407c2.28633,-1.61867 2.23984,-3.35354 1.83351,-3.34721c-0.174,0.00267 -2.62589,0.64746 -4.80122,1.37946z" data-paper-data="{&quot;wickUUID&quot;:&quot;2c9f7c54-4e49-4544-99ef-3639a593cd4e&quot;,&quot;wickType&quot;:&quot;path&quot;}" fill="#0000ff"/><path d="M331.76292,224.9218c-1.22033,0.864 -3.75465,2.94809 -5.55932,4.57042c-4.98633,4.48167 -17.60048,16.77838 -17.84048,17.30371c-0.62967,1.37933 9.97103,-0.48007 16.24803,-3.5424c3.16933,-1.546 4.44897,-2.42478 6.2973,-4.32478c2.46133,-2.53 4.45931,-5.62741 4.97498,-7.65941c0.34867,-1.37367 0.00871,-7.66925 -0.40762,-7.64592c-0.121,0.00667 -2.49222,0.43438 -3.71289,1.29838z" data-paper-data="{&quot;wickUUID&quot;:&quot;85b8be41-2ded-4473-bd53-359cb4a7b74f&quot;,&quot;wickType&quot;:&quot;path&quot;}" fill="#0000ff"/></g><g fill="none" fill-rule="nonzero" stroke="none" stroke-width="1" stroke-linecap="butt" stroke-linejoin="miter" stroke-miterlimit="10" stroke-dasharray="" stroke-dashoffset="0" font-family="sans-serif" font-weight="normal" font-size="12" text-anchor="start" style="mix-blend-mode: normal"/><g id="wick_project_gui" fill="none" fill-rule="nonzero" stroke="none" stroke-width="1" stroke-linecap="butt" stroke-linejoin="miter" stroke-miterlimit="10" stroke-dasharray="" stroke-dashoffset="0" font-family="sans-serif" font-weight="normal" font-size="12" text-anchor="start" style="mix-blend-mode: normal"/></g></svg>