<svg version="1.1" xmlns="http://www.w3.org/2000/svg" xmlns:xlink="http://www.w3.org/1999/xlink" width="1260" height="497" viewBox="0,0,1260,497"><g transform="translate(234.32,-108.62) scale(1.188,1.188)"><g id="wick_project_bg" fill-opacity="0" fill="#ffffff" fill-rule="nonzero" stroke="none" stroke-width="1" stroke-linecap="butt" stroke-linejoin="miter" stroke-miterlimit="10" stroke-dasharray="" stroke-dashoffset="0" font-family="none" font-weight="none" font-size="none" text-anchor="none" style="mix-blend-mode: normal"><rect x="0" y="0" width="720" height="480"/></g><g data-paper-data="{&quot;wickUUID&quot;:&quot;4108b361-8fc2-4eee-be49-1e38e6e54fe3&quot;,&quot;wickType&quot;:&quot;clipsandpaths&quot;}" fill="none" fill-rule="evenodd" stroke="none" stroke-width="1" stroke-linecap="butt" stroke-linejoin="miter" stroke-miterlimit="10" stroke-dasharray="" stroke-dashoffset="0" font-family="none" font-weight="none" font-size="none" text-anchor="none" style="mix-blend-mode: normal"><path d="M411.81325,190.1519c-0.73333,0.142 -10.87045,0.35838 -22.51212,0.48071c-23.542,0.24733 -28.81206,0.51532 -34.64773,1.69932c-12.88033,2.61367 -37.90087,11.38492 -43.7902,15.33592c-8.80733,5.90833 -22.7605,21.13507 -32.0635,35.02374c-4.15933,6.20967 -6.38699,11.92555 -9.60799,24.77122c-5.081,20.26433 -7.16581,37.47092 -6.03614,49.72392c0.84867,9.206 3.93257,20.22471 7.9179,28.18538c3.09867,6.19 6.2792,10.55918 11.48053,15.73751c5.94167,5.91567 10.24148,9.01345 18.15181,13.08478c9.77033,5.02867 19.01864,8.39258 29.60397,10.75558l5.29409,1.13665l2.42501,-2.09343c1.95533,-1.86033 1.76125,-1.81567 3.38025,-1.81567c0.93567,0 3.28015,0.3865 5.43115,0.8565c9.15533,2.00067 10.90828,2.13336 16.75328,1.30803c3.68833,-0.521 6.19485,-1.05147 9.37152,-1.96514c2.57533,-0.74067 3.48751,-0.39987 6.15718,2.09746l2.44113,2.09646l16.69356,-0.151c10.10733,-0.09433 17.68396,-0.3106 19.29096,-0.5486c1.451,-0.21467 6.84355,-1.23716 11.90088,-2.26116c6.89267,-1.39567 10.05711,-1.88934 12.93078,-2.00401c3.68067,-0.14733 3.64868,-0.14909 6.52935,0.89424c1.65,0.59767 5.50963,2.37767 8.69763,4.00234c3.188,1.62467 7.03654,1.83236 7.13187,1.73703c0.25533,-0.25533 -6.65302,-10.40347 -10.16635,-14.92247c-6.323,-8.13333 -12.36523,-12.72658 -24.69423,-18.75058c-8.31533,-4.06267 -9.99515,-5.08208 -10.71682,-7.76141c-0.74433,-2.76433 0.01053,-3.27476 6.33053,-7.77976c8.06733,-5.75033 13.76046,-8.74361 21.40813,-11.25161c8.621,-2.82733 9.64969,-2.99252 18.88602,-2.95452c20.51067,0.084 40.58805,2.66942 56.19205,7.23175c0.32067,0.094 1.34183,-1.34899 1.34183,-1.50999c0,-0.67767 -6.26181,-7.73594 -11.54848,-13.02161c-7.49533,-7.49433 -15.39058,-14.09957 -24.61758,-20.6009c-5.92267,-4.173 -15.09807,-9.30917 -24.47207,-13.69484c-11.4,-5.334 -17.8711,-7.82761 -27.76043,-10.69128c-3.87867,-1.12333 -7.25683,-2.20145 -7.71583,-2.50245c-1.43233,-0.93833 -2.36397,-2.21179 -2.36397,-3.58346c0,-1.553 0.6589,-2.97646 4.92157,-11.06746c9.62633,-18.27133 20.58054,-36.54506 26.86254,-44.79706c3.85567,-5.06467 9.37213,-9.25786 17.96013,-13.73453c2.33767,-1.21833 3.83636,-3.86754 3.83636,-4.01521c0,-1.18633 -35.36631,-3.0506 -56.38764,-2.9716c-4.85833,0.01833 -9.4876,0.14921 -10.22093,0.29121z" data-paper-data="{&quot;wickUUID&quot;:&quot;e5d93c10-9588-4662-a654-73d69241f97e&quot;,&quot;wickType&quot;:&quot;path&quot;}" fill="#0000ff"/><path d="M419.80725,179.69862c-0.193,0.18 -13.987,0.53 -30.654,0.777c-33.566,0.498 -36.245,0.837 -55.415,7.005c-23.772,7.649 -31.868,12.198 -43.502,24.445c-8.749,9.21 -20.04,24.06 -23.887,31.418c-4.405,8.425 -9.37,27.39 -12.781,48.822c-1.869,11.744 -1.256,29.614 1.329,38.696c5.402,18.98 8.443,24.91 18.064,35.225c6.054,6.49 12.594,11.625 19.871,15.603c9.08,4.963 23.897,10.592 33.847,12.857c8.23,1.874 10.959,2.113 21.228,1.863c6.482,-0.159 22.202,0.021 34.933,0.399c23.912,0.711 35.325,-0.042 47.98,-3.163c10.872,-2.681 13.011,-2.559 20.507,1.171c3.768,1.875 9.059,5.302 11.758,7.617c5.485,4.704 7.317,5.108 10.182,2.243c1.855,-1.855 3.85,-8.385 3.849,-12.595c-0.002,-3.481 -5.15,-12.788 -12.297,-22.228c-7.962,-10.516 -12.318,-14.72 -18.97,-18.309c-2.479,-1.337 -5.99,-3.357 -7.801,-4.488l-3.295,-2.056l4.557,-2.876c2.506,-1.582 7.587,-3.865 11.291,-5.073c6.125,-1.998 7.913,-2.191 19.781,-2.14c22.027,0.094 46.232,4.784 60.044,11.634c5.203,2.58 7.686,2.546 10.375,-0.143c2.822,-2.822 2.32,-5.393 -2.505,-12.825c-4.738,-7.301 -14.897,-19.9 -19.371,-24.025c-10.794,-9.953 -24.1,-20.252 -33.161,-25.669c-11.878,-7.1 -29.471,-15.381 -39.767,-18.718c-3.922,-1.27 -7.257,-2.69 -7.412,-3.155c-0.155,-0.465 2.442,-5.897 5.77,-12.071c8.86,-16.434 19.389,-32.642 24.062,-37.039c2.566,-2.414 17.057,-10.719 27.037,-15.495c7.128,-3.411 8.828,-5.753 6.621,-9.12c-0.756,-1.154 -2.798,-2.51 -4.538,-3.013c-6.161,-1.783 -31.234,-4.145 -53.249,-5.016c-25.76,-1.02 -24.029,-0.981 -24.481,-0.558zM452.89425,191.13862c17.732,0.866 25.906,1.649 25.906,2.483c0,0.311 -1.642,1.363 -3.649,2.338c-5.305,2.577 -12.363,7.24 -15.447,10.206c-5.766,5.543 -20.388,29.383 -32.48,52.955c-3.378,6.585 -3.495,7.053 -2.296,9.192c0.694,1.239 2.209,2.524 3.367,2.854c1.157,0.331 5.703,1.635 10.101,2.899c10.833,3.114 30.113,11.861 41.888,19.005c11.103,6.736 25.113,18.092 33.808,27.402c5.989,6.413 9.846,11.255 8.966,11.255c-0.257,0 -3.219,-0.746 -6.581,-1.657c-10.911,-2.959 -28.244,-5.216 -43.672,-5.687c-14.199,-0.434 -15.161,-0.359 -22.532,1.756c-4.235,1.214 -9.572,3.157 -11.86,4.317c-7.441,3.77 -18.634,11.508 -19.547,13.513c-1.523,3.341 1.329,6.877 7.745,9.606c10.914,4.642 19.914,10.677 24.909,16.704c5.073,6.121 12.97,17.529 12.97,18.736c0,0.412 -1.799,-0.299 -3.998,-1.579c-2.199,-1.28 -6.447,-3.378 -9.44,-4.662c-6.267,-2.688 -7.201,-2.651 -24.862,0.99c-9.748,2.01 -12.792,2.256 -27.892,2.256h-16.949l-2.315,-2.315c-2.507,-2.506 -4.071,-2.799 -7.666,-1.432c-1.278,0.486 -5.07,1.232 -8.426,1.657c-5.008,0.635 -7.433,0.48 -13.515,-0.865c-9.37,-2.071 -9.189,-2.078 -11.696,0.429l-2.104,2.103l-7.328,-1.603c-12.648,-2.767 -29.955,-10.453 -38.684,-17.178c-13.851,-10.672 -21.294,-23.524 -25.114,-43.37c-2.659,-13.812 -0.598,-34.167 5.961,-58.877c3.803,-14.325 5.109,-17.006 14.235,-29.223c9.188,-12.298 21.008,-24.228 28.006,-28.266c6.305,-3.638 30.511,-11.905 41.518,-14.179c6.828,-1.411 11.618,-1.663 32.782,-1.724c13.632,-0.039 24.964,-0.249 25.182,-0.467c0.645,-0.645 23.716,-0.402 40.709,0.428z" data-paper-data="{&quot;wickUUID&quot;:&quot;d683b5f9-7128-4cb1-8d98-06b881f78b2d&quot;,&quot;wickType&quot;:&quot;path&quot;,&quot;originalStyle&quot;:{&quot;strokeColor&quot;:null,&quot;fillColor&quot;:[&quot;Color&quot;,0,0,0],&quot;strokeWidth&quot;:1}}" fill="#000000"/></g><g data-paper-data="{&quot;wickUUID&quot;:&quot;cbbe36b6-3f52-4ede-adf2-82358400a4bc&quot;,&quot;wickType&quot;:&quot;clipsandpaths&quot;}" fill="none" fill-rule="nonzero" stroke="none" stroke-width="1" stroke-linecap="butt" stroke-linejoin="miter" stroke-miterlimit="10" stroke-dasharray="" stroke-dashoffset="0" font-family="sans-serif" font-weight="normal" font-size="12" text-anchor="start" style="mix-blend-mode: normal"/><g fill="none" fill-rule="nonzero" stroke="none" stroke-width="1" stroke-linecap="butt" stroke-linejoin="miter" stroke-miterlimit="10" stroke-dasharray="" stroke-dashoffset="0" font-family="sans-serif" font-weight="normal" font-size="12" text-anchor="start" style="mix-blend-mode: normal"/><g id="wick_project_gui" fill="none" fill-rule="nonzero" stroke="none" stroke-width="1" stroke-linecap="butt" stroke-linejoin="miter" stroke-miterlimit="10" stroke-dasharray="" stroke-dashoffset="0" font-family="sans-serif" font-weight="normal" font-size="12" text-anchor="start" style="mix-blend-mode: normal"/></g></svg>