<svg version="1.1" xmlns="http://www.w3.org/2000/svg" xmlns:xlink="http://www.w3.org/1999/xlink" width="1260" height="522" viewBox="0,0,1260,522"><g transform="translate(270,21)"><g id="wick_project_bg" fill="#000000" fill-rule="nonzero" stroke="none" stroke-width="1" stroke-linecap="butt" stroke-linejoin="miter" stroke-miterlimit="10" stroke-dasharray="" stroke-dashoffset="0" font-family="none" font-weight="none" font-size="none" text-anchor="none" style="mix-blend-mode: normal"><rect x="0" y="0" width="720" height="480"/></g><g data-paper-data="{&quot;wickUUID&quot;:&quot;81b2de91-bca6-4c0d-8388-a6f45e7b1c42&quot;,&quot;wickType&quot;:&quot;clipsandpaths&quot;}" fill="#ffffff" fill-rule="evenodd" stroke="none" stroke-width="1" stroke-linecap="butt" stroke-linejoin="miter" stroke-miterlimit="10" stroke-dasharray="" stroke-dashoffset="0" font-family="none" font-weight="none" font-size="none" text-anchor="none" style="mix-blend-mode: normal"><path d="M62.09205,137.34795c-0.36667,0.057 -1.81811,0.19818 -3.22244,0.31385l-3.1663,0.55892l-0.26956,3.90111c-0.08467,2.61433 -0.06477,3.1297 -0.43177,3.35603c-0.269,0.166 -0.95081,0.06646 -2.14848,0.16913c-4.27267,0.36633 -10.42643,1.53058 -12.52343,2.36958c-2.71133,1.08467 -3.72187,1.37328 -4.6562,0.87328c-0.86133,-0.461 -1.2455,-1.82275 -1.2455,-3.21575c0,-1.635 -1.51601,-3.80707 -2.50734,-4.05607c-1.07233,-0.269 -7.04994,0.76783 -10.15494,1.73883c-2.64567,0.82767 -2.93571,1.32684 -1.97371,6.88551c0.92833,5.365 1.55643,7.90718 3.37576,13.47951c0.89767,2.75 2.25766,7.34485 2.99999,10.13985c1.38033,5.19633 2.52423,7.95873 3.71123,9.03106c0.58433,0.528 1.81613,0.91692 3.08113,0.58592c2.99933,-0.785 5.44505,-1.83682 6.59372,-2.84449l1.64986,-1.69785l-0.50736,-4.6777c-0.28067,-2.475 -0.50904,-5.56578 -0.51071,-7.00078c-0.003,-2.418 -0.1169,-2.18446 0.7521,-3.05346c0.65567,-0.65567 1.11116,-0.76882 2.49449,-1.04315c1.08867,-0.21567 4.03764,-0.90239 6.63397,-1.54639c2.59667,-0.64433 4.2251,-1.40723 4.63543,-1.34656c1.74267,0.25767 2.2889,2.34416 3.31323,11.42416c0.28867,2.56033 1.15114,5.29991 1.18881,5.33724c0.11,0.11 11.05895,-2.12336 11.21328,-2.27769c0.22933,-0.22967 -1.87355,-18.29338 -2.74088,-23.36205c-0.44,-2.57233 -0.90248,-6.63937 -1.03048,-9.0627l-0.28094,-4.61999l-2.21359,-0.51058c-0.75167,0.025 -1.6927,0.0939 -2.05937,0.15123z" data-paper-data="{&quot;wickUUID&quot;:&quot;c2275aeb-c528-4274-8d4f-9179e92b853e&quot;,&quot;wickType&quot;:&quot;path&quot;}" id="c2275aeb-c528-4274-8d4f-9179e92b853e"/><path d="M87.19649,143.80749c-4.06967,0.33567 -6.87821,1.37728 -7.35488,2.26795c-0.49767,0.93 -0.21938,5.51693 0.80395,10.67593c0.467,2.35433 0.83586,5.41204 0.84053,6.96737c0.00667,2.457 0.65849,6.04912 2.01916,11.12679l0.95828,1.85551l6.57194,0.42149c3.53133,0.22 7.66501,0.39844 9.08101,0.39677c2.51533,-0.00367 3.26056,-0.41709 3.75956,-1.38209c0.281,-0.54333 0.86252,-3.29823 1.14252,-5.73423c0.68767,-5.98133 1.26002,-9.51381 2.86769,-17.69814c0.74933,-3.81367 0.78008,-7.92065 0.70841,-7.99232c-0.79667,-0.797 -15.1585,-1.41936 -21.39817,-0.90503zM102.9395,152.35219c1.41033,0.66933 1.68654,1.60172 1.36821,3.15305c-0.11833,0.57667 -0.69892,2.58177 -1.32159,4.78177c-0.62267,2.2 -1.27955,4.81967 -1.48522,5.90534c-0.30433,1.607 -0.55275,2.07585 -1.72775,3.31885l-0.92664,1.16198l-4.59171,-0.01454c-5.59033,-0.005 -6.60056,-0.05965 -7.51223,-1.92532c-0.67667,-1.385 -0.89273,-9.62575 -0.29373,-11.07175c0.78867,-1.90367 4.70193,-4.32453 8.4816,-5.37653c2.294,-0.63833 6.59039,-0.60585 8.00906,0.06715z" data-paper-data="{&quot;wickUUID&quot;:&quot;4020c909-1fb4-4c2d-b50b-6fb0fd372611&quot;,&quot;wickType&quot;:&quot;path&quot;}" id="4020c909-1fb4-4c2d-b50b-6fb0fd372611"/><path d="M126.40187,154.30621c-0.31367,2.429 -0.93234,7.11936 -1.37434,10.41936c-0.44233,3.3 -0.9015,7.04356 -1.01917,8.30723l0.24434,3.15369l4.72909,-0.14754c5.10133,-0.283 8.82273,-0.86472 9.1524,-1.19472c0.133,-0.133 0.02565,-3.65138 -0.56702,-6.89838c-0.59267,-3.247 -1.37428,-8.30222 -1.73695,-11.23122c-0.36267,-2.929 -0.88512,-5.9396 -0.98212,-6.24493c-0.23133,-0.72933 -1.72178,-1.30011 -4.56345,-1.30544l-3.17935,0.36744z" data-paper-data="{&quot;wickUUID&quot;:&quot;03a659ff-225e-4b4c-b44e-4c74f37c8cda&quot;,&quot;wickType&quot;:&quot;path&quot;}" id="03a659ff-225e-4b4c-b44e-4c74f37c8cda"/><path d="M118.86984,131.03445c-5.81433,0.458 -9.915,0.90905 -10.33633,1.15138c-0.338,0.19467 -0.1804,1.93076 0.83393,1.94743c2.01,0.03333 3.24488,0.48656 5.79055,2.21556c3.259,2.213 4.58816,3.5668 5.43149,5.4688c0.52267,1.17833 1.4261,2.12326 2.12743,2.48593c1.44433,0.74667 5.86944,1.54556 8.59511,1.54556c2.04633,0 2.62614,-0.12045 3.60347,-0.97278c1.62433,-1.41667 1.99934,-1.50216 3.32567,-0.52349c0.63,0.46467 1.81736,1.05303 2.71369,1.31903c1.956,0.581 9.60527,1.07679 9.92527,0.75679c0.23267,-0.233 -1.15931,-8.20875 -1.90364,-10.35875c-0.39133,-1.13 -1.21591,-1.75236 -3.37591,-2.30269c-7.82167,-1.99333 -20.1354,-3.2521 -26.73073,-2.73277z" data-paper-data="{&quot;wickUUID&quot;:&quot;40648a7c-5bad-4371-ba6b-e28a2ba72bc5&quot;,&quot;wickType&quot;:&quot;path&quot;}" id="40648a7c-5bad-4371-ba6b-e28a2ba72bc5"/><path d="M174.18219,132.71988c-2.98733,0.33133 -10.10433,1.94309 -11.46,2.59142c-1.389,0.66433 -2.07789,1.56857 -2.16989,2.82457c-0.055,0.75067 0.3622,4.21167 0.9212,7.483c0.55933,3.27133 1.0101,6.67353 1.0101,7.71753c0,1.78067 0.29365,1.28733 -0.91635,2.38066c-1.56833,1.41667 -2.42772,1.67698 -6.23172,2.07998c-1.61433,0.171 -3.62503,1.07717 -3.72136,1.17317c-0.28033,0.28067 0.59186,11.8081 1.02219,13.51577c0.52867,2.09833 1.90688,3.21995 4.92088,3.49395l3.52318,-0.14551l0.09657,-4.97441c0,-6.003 -0.22467,-6.11223 1.098,-6.65623c1.13633,-0.46733 9.31946,-1.91158 12.57013,-2.25025c2.309,-0.24067 2.90015,-0.82111 2.90815,-3.65211l-0.47516,-2.7713l-4.51975,0.02292c-7.738,-0.003 -7.82334,0.06283 -7.82267,-5.2165c0.00067,-4.137 0.0133,-3.76761 2.3763,-5.15228c2.09667,-1.229 3.99015,-1.6127 9.12448,-2.0817l4.78986,-0.55612l0.10714,-3.45014c-0.12967,-1.47433 -0.33282,-3.36945 -0.44982,-4.19445l-0.59467,-2.11556l-2.63403,-0.17291c-1.19,-0.02 -2.83109,0.03517 -3.47276,0.1065z" data-paper-data="{&quot;wickUUID&quot;:&quot;bfc2d985-eb45-4ba6-b97b-67cd85685311&quot;,&quot;wickType&quot;:&quot;path&quot;}" id="bfc2d985-eb45-4ba6-b97b-67cd85685311"/><path d="M198.0638,137.73322c-5.77733,0.09367 -6.36127,0.18486 -6.36127,0.80286c0,0.38267 0.02659,2.17288 0.60292,2.47121c1.18867,0.61433 1.76989,1.24901 2.18456,2.80368c0.358,1.34167 1.84876,17.13488 2.17976,23.07721c0.20267,3.64267 0.45982,3.352 -0.10518,3.86033c-0.80833,0.727 -5.30484,2.46487 -8.79084,3.44554c-1.51267,0.42567 -3.05239,1.08437 -3.05239,1.21737c0,0.133 0.22378,1.7106 0.60378,2.1936l1.25906,1.23486l5.15297,0.00699c9.42267,0 26.66587,-1.75205 28.38487,-2.87805c0.898,-0.58867 1.56779,-2.37206 0.78179,-5.19139l-1.15938,-2.75758l-6.86799,-0.2237c-3.666,-0.104 -6.55543,-0.16204 -7.02143,-0.36004c-1.72533,-0.73367 -1.8792,-1.56183 -2.3512,-7.21483c-0.19467,-2.333 -0.57724,-5.81372 -0.87091,-7.86605c-0.294,-2.05267 -0.7559,-3.49619 -0.6389,-4.11852c0.531,-2.83067 4.02876,-4.12744 12.07409,-4.57344c2.01667,-0.11167 4.27498,-0.25184 5.22498,-0.34884l2.22291,-0.38603l0.62849,-2.13604c0.196,-0.914 -0.40324,-2.81442 -0.40324,-2.98875c0,-0.29933 -8.00778,-0.32506 -23.67745,-0.07039z" data-paper-data="{&quot;wickUUID&quot;:&quot;d31bc001-898d-4d4b-b30e-2a8a950606e8&quot;,&quot;wickType&quot;:&quot;path&quot;}" id="d31bc001-898d-4d4b-b30e-2a8a950606e8"/><path d="M250.45089,143.28803l-1.55648,2.22645l1.96828,1.69229c0.89767,0.604 2.58394,1.91645 3.68327,2.87278c1.92367,1.67333 3.0582,1.6232 3.6752,1.06487c1.57733,-1.42733 5.26601,-7.99505 4.79068,-8.47005c-0.09833,-0.09833 -3.13112,-1.04806 -5.75212,-1.12706l-5.00086,-0.12161z" data-paper-data="{&quot;wickUUID&quot;:&quot;63fc94f5-5343-4209-9380-5d7a6417985c&quot;,&quot;wickType&quot;:&quot;path&quot;}" id="63fc94f5-5343-4209-9380-5d7a6417985c"/><path d="M233.82191,144.75793c0,0.93 0.33949,2.57741 0.62316,3.25908c0.47167,1.13333 3.49028,4.46319 3.99328,4.46319c0.117,0 1.85442,-1.46773 2.69042,-2.83606l1.57287,-3.3244l-4.01256,-2.24449l-3.9831,-1.95167z" data-paper-data="{&quot;wickUUID&quot;:&quot;e5fc14b5-536d-40d2-a8cf-6db966f3caee&quot;,&quot;wickType&quot;:&quot;path&quot;}" id="e5fc14b5-536d-40d2-a8cf-6db966f3caee"/><path d="M238.66412,161.41582c-0.402,0.82767 -1.78384,3.23788 -3.06817,5.35155c-1.28433,2.114 -2.33328,4.83553 -2.33328,5.0192c0,0.41367 2.96637,0.43041 5.41937,-0.40926c1.94,-0.664 4.47891,-2.45465 6.75991,-4.78765l1.6862,-2.47619l-3.2812,-2.42194c-1.63933,-1.134 -3.39681,-2.19995 -3.46748,-2.19995c-0.07067,0 -1.31335,1.09657 -1.71535,1.92424z" data-paper-data="{&quot;wickUUID&quot;:&quot;9b611284-53a8-4f4f-bf8c-091928d789b0&quot;,&quot;wickType&quot;:&quot;path&quot;}" id="9b611284-53a8-4f4f-bf8c-091928d789b0"/><path d="M243.96455,151.94948c-0.926,1.505 -1.68285,3.75866 -1.68285,3.89899c0,0.19967 4.96185,3.64117 7.25418,5.0845c0.40667,0.256 4.66996,-4.86073 4.74429,-5.68173c0.03633,-0.39733 -6.88483,-6.38667 -7.3895,-6.38667c-0.133,0 -1.99979,1.58024 -2.92612,3.08491z" data-paper-data="{&quot;wickUUID&quot;:&quot;2ed7e44e-68a7-497a-b4c0-fdc08f86b42e&quot;,&quot;wickType&quot;:&quot;path&quot;}" id="2ed7e44e-68a7-497a-b4c0-fdc08f86b42e"/><path d="M255.53267,160.56868c-0.877,1.099 -1.83967,2.70019 -1.92767,2.92886c-0.08767,0.229 0.94041,1.77301 1.99574,2.71368l2.32893,1.94744l5.22061,0.02301l5.19038,-0.01967l-0.6888,-2.36825c-1.72867,-1.44933 -3.59373,-2.69587 -5.38673,-3.60154c-1.02633,-0.51833 -2.09577,-1.39433 -2.75677,-2.26033l-1.86887,-1.68101z" data-paper-data="{&quot;wickUUID&quot;:&quot;582fa793-a000-4f40-a070-637d2dd0a69b&quot;,&quot;wickType&quot;:&quot;path&quot;}" id="582fa793-a000-4f40-a070-637d2dd0a69b"/><path d="M58.25979,133.42517c-4.803,0.251 -6.719,1.776 -6.995,5.572l-0.177,2.419l-4.358,0.637c-2.396,0.351 -5.28,0.828 -6.407,1.06c-2.041,0.42 -2.054,0.41 -3.097,-2.491c-1.504,-4.181 -1.88,-4.376 -6.892,-3.578c-11.398,1.817 -15.565,3.664 -15.559,6.898c0.008,3.727 2.505,15.886 4.13,20.103c0.977,2.537 2.648,8.107 3.715,12.379c1.753,7.019 2.153,7.986 4.164,10.059c1.223,1.261 2.747,2.291 3.386,2.288c1.547,-0.006 8.106,-2.316 11.166,-3.933c3.528,-1.864 3.875,-2.845 3.452,-9.756c-0.199,-3.253 -0.51,-6.3 -0.691,-6.773c-0.258,-0.672 0.658,-1.056 4.202,-1.764c2.493,-0.497 4.663,-0.775 4.823,-0.618c0.16,0.157 0.306,3.84 0.326,8.184c0.033,7.49 0.098,7.926 1.277,8.452c0.879,0.392 1.917,0.284 3.551,-0.37c1.269,-0.508 4.839,-1.331 7.932,-1.829c6.606,-1.063 7.437,-1.432 8.389,-3.73c0.579,-1.397 0.546,-2.876 -0.172,-7.721c-0.489,-3.296 -1.057,-7.954 -1.263,-10.351c-0.207,-2.397 -0.766,-6.05 -1.244,-8.119c-0.566,-2.451 -0.808,-5.952 -0.696,-10.054c0.137,-5.045 0.002,-6.402 -0.684,-6.835c-0.825,-0.522 -4.101,-0.556 -12.278,-0.129zM65.91579,141.85617c0.005,2.317 0.398,6.043 0.872,8.28c0.475,2.237 1.125,6.683 1.447,9.878c0.321,3.196 0.842,7.752 1.157,10.124c0.316,2.372 0.482,4.405 0.369,4.518c-0.238,0.238 -10.454,1.93 -10.561,1.749c-0.039,-0.066 -0.362,-3.005 -0.717,-6.531c-0.704,-7 -1.375,-9.414 -2.762,-9.946c-0.498,-0.191 -2.267,0.067 -3.931,0.573c-1.664,0.506 -4.725,1.238 -6.803,1.626c-6.007,1.122 -6.142,1.376 -5.223,9.855l0.769,7.104l-1.603,1.278c-0.882,0.704 -3.011,1.67 -4.73,2.149c-2.833,0.789 -3.203,0.782 -3.939,-0.064c-1.419,-1.632 -2.011,-3.184 -3.583,-9.383c-0.844,-3.328 -2.287,-8.018 -3.207,-10.423c-1.691,-4.415 -4.154,-16.946 -3.521,-17.91c0.39,-0.593 7.465,-2.328 10.483,-2.571c1.638,-0.131 2.142,0.105 2.751,1.292c0.41,0.799 0.75,2.25 0.755,3.225c0.015,3.198 2.404,4.072 5.993,2.193c2.179,-1.141 8.829,-2.438 12.72,-2.482c1.511,-0.017 2.935,-0.354 3.196,-0.757c0.258,-0.399 0.47,-2.164 0.47,-3.922v-3.196l4.358,-0.331c2.397,-0.182 4.554,-0.378 4.794,-0.436c0.239,-0.057 0.44,1.791 0.446,4.108z" data-paper-data="{&quot;wickUUID&quot;:&quot;42471ff3-5340-47c2-881b-b52dfa4d8ab3&quot;,&quot;wickType&quot;:&quot;path&quot;}" id="42471ff3-5340-47c2-881b-b52dfa4d8ab3"/><path d="M50.4308,165.27945c-0.843,1.286 -0.879,1.857 -0.271,4.213c0.387,1.498 1.04,4.479 1.452,6.623c0.807,4.209 1.653,5.689 3.253,5.689c2.26,0 2.583,-1.46 1.518,-6.857c-0.549,-2.78 -1.144,-6.101 -1.323,-7.379c-0.179,-1.278 -0.589,-2.651 -0.912,-3.051c-0.957,-1.183 -2.673,-0.832 -3.717,0.762z" data-paper-data="{&quot;wickUUID&quot;:&quot;c9a806ff-73e2-42a7-89d4-cbb695a229d2&quot;,&quot;wickType&quot;:&quot;path&quot;}" id="c9a806ff-73e2-42a7-89d4-cbb695a229d2"/><path d="M81.14864,140.41287c-3.145,0.697 -4.736,1.347 -5.16,2.109c-0.385,0.69 -0.507,3.723 -0.325,8.122c0.176,4.277 0.058,7.39 -0.302,7.967c-0.429,0.687 -0.168,2.445 0.953,6.405c0.849,3.002 1.542,6.016 1.54,6.699c-0.006,1.984 1.818,7.075 2.879,8.036c0.72,0.651 3.632,1.057 11.234,1.562c11.094,0.739 14.345,0.358 15.508,-1.815c0.987,-1.845 2.334,-9.188 2.334,-12.728c0,-3.246 1.041,-8.397 3.572,-17.673l1.235,-4.527l-1.387,-1.504c-2.607,-2.829 -4.581,-3.242 -16.494,-3.459c-8.895,-0.162 -11.924,-0.005 -15.587,0.806zM103.88664,144.57787c2.335,0.271 4.387,0.634 4.56,0.807c0.173,0.173 -0.512,4.01 -1.522,8.526c-1.01,4.517 -2.069,10.876 -2.353,14.131c-0.621,7.127 -0.957,8.392 -2.345,8.833c-0.586,0.186 -4.677,0.065 -9.089,-0.269c-4.413,-0.334 -8.208,-0.608 -8.433,-0.61c-0.225,-0.001 -0.572,-0.983 -0.772,-2.181c-0.199,-1.198 -0.711,-3.271 -1.138,-4.606c-0.428,-1.335 -0.648,-3.427 -0.491,-4.649c0.159,-1.226 -0.254,-4.626 -0.921,-7.59c-0.664,-2.952 -1.208,-6.661 -1.208,-8.241c0,-2.463 0.187,-2.934 1.308,-3.304c3.494,-1.156 15.743,-1.618 22.404,-0.847z" data-paper-data="{&quot;wickUUID&quot;:&quot;490c939b-cc65-45b3-b3db-e70921c15589&quot;,&quot;wickType&quot;:&quot;path&quot;}" id="490c939b-cc65-45b3-b3db-e70921c15589"/><path d="M93.22353,152.09013c-3.637,1.242 -7.142,3.855 -7.596,5.664c-0.189,0.751 -0.251,3.586 -0.138,6.3c0.282,6.774 0.75,7.203 8.012,7.343c5.47,0.105 5.486,0.101 7.118,-1.726c0.994,-1.112 1.636,-2.489 1.636,-3.509c0,-0.923 0.652,-3.599 1.449,-5.947c1.755,-5.173 1.805,-6.534 0.294,-8.045c-1.483,-1.483 -6.555,-1.521 -10.775,-0.08zM98.50653,158.41713c-0.214,0.878 -0.936,3.115 -1.605,4.969c-1.155,3.203 -1.305,3.362 -3.015,3.196l-1.8,-0.176v-4.049v-4.048l2.325,-0.701c3.878,-1.168 4.544,-1.037 4.095,0.809z" data-paper-data="{&quot;wickUUID&quot;:&quot;1f28d607-f0db-4dc0-8086-e2c55d12d03b&quot;,&quot;wickType&quot;:&quot;path&quot;}" id="1f28d607-f0db-4dc0-8086-e2c55d12d03b"/><path d="M111.72075,127.23548c-7.091,0.749 -9.114,2.306 -9.132,7.028c-0.011,2.684 1.929,4.207 6.054,4.752c1.578,0.208 3.486,0.783 4.241,1.278c1.795,1.176 3.634,4.235 3.648,6.066c0.018,2.269 0.854,3.077 3.576,3.454c2.067,0.286 2.496,0.555 2.392,1.498c-0.07,0.632 -0.395,3.633 -0.723,6.669c-0.328,3.036 -0.985,8.266 -1.459,11.622c-1.153,8.162 -1.117,9.489 0.29,10.763c1.058,0.958 1.542,0.998 4.794,0.401c1.989,-0.366 6.28,-0.831 9.537,-1.036c4.891,-0.306 6.103,-0.573 6.972,-1.534c1.334,-1.475 1.314,-5.14 -0.056,-10.544c-0.908,-3.582 -2.666,-17.034 -2.276,-17.423c0.086,-0.087 1.668,0.036 3.514,0.273c10.278,1.319 9.618,1.335 11.347,-0.275c1.939,-1.806 2.029,-3.551 0.443,-8.61c-0.635,-2.026 -1.158,-4.69 -1.162,-5.92c-0.01,-3.018 -2.237,-5.07 -6.593,-6.072c-11.502,-2.646 -24.613,-3.531 -35.407,-2.39zM135.11975,132.50448c2.716,0.35 6.746,1.065 8.956,1.59l4.017,0.953l1.371,5.45c0.754,2.997 1.267,5.552 1.141,5.678c-0.127,0.127 -2.682,-0.082 -5.679,-0.464c-4.096,-0.523 -5.637,-0.961 -6.208,-1.767c-0.998,-1.409 -2.825,-1.364 -3.733,0.091c-0.609,0.975 -1.335,1.157 -4.508,1.13c-2.087,-0.017 -4.939,-0.474 -6.362,-1.02c-2.079,-0.797 -2.672,-1.352 -3.065,-2.866c-0.336,-1.299 -1.422,-2.567 -3.522,-4.115c-4.215,-3.107 -5.256,-3.588 -7.763,-3.588c-1.463,0 -1.995,-0.193 -1.605,-0.583c0.758,-0.758 13.379,-1.715 18.244,-1.383c2.077,0.142 5.999,0.544 8.716,0.894zM134.25575,150.44048c0.202,0.327 0.616,3.268 0.92,6.537c0.304,3.268 1.111,8.494 1.794,11.612c0.682,3.118 1.108,5.802 0.945,5.964c-0.162,0.163 -3.211,0.462 -6.775,0.666l-6.48,0.371v-1.898c0,-1.044 0.393,-4.549 0.872,-7.788c0.48,-3.239 1.161,-8.178 1.513,-10.974l0.641,-5.084h3.101c1.706,0 3.267,0.267 3.469,0.594z" data-paper-data="{&quot;wickUUID&quot;:&quot;6e20b1d6-2701-4675-8010-e241a005ffdb&quot;,&quot;wickType&quot;:&quot;path&quot;}" id="6e20b1d6-2701-4675-8010-e241a005ffdb"/><path d="M168.56421,129.18467c-5.378,1.21 -9.831,2.808 -11.091,3.982c-1.047,0.976 -1.168,1.642 -0.958,5.267c0.132,2.282 0.567,6.458 0.965,9.28c0.399,2.822 0.572,5.284 0.385,5.471c-0.187,0.187 -2.441,0.461 -5.009,0.61c-3.757,0.218 -4.781,0.478 -5.239,1.335c-0.544,1.016 0.153,14.879 0.937,18.63c0.177,0.848 0.045,1.714 -0.293,1.923c-0.832,0.513 -0.78,2.819 0.082,3.681c0.467,0.467 3.06,0.698 7.844,0.698c6.515,0 7.257,-0.11 8.383,-1.236c1.135,-1.135 1.204,-1.63 0.846,-6.054c-0.459,-5.656 -1.065,-5.163 7.737,-6.303c3.204,-0.415 6.245,-1.103 6.757,-1.528c1.869,-1.551 2.737,-4.133 2.47,-7.35c-0.386,-4.659 -1.692,-5.757 -7.448,-6.259c-2.532,-0.221 -4.737,-0.616 -4.899,-0.878c-0.575,-0.93 1.518,-1.948 4.506,-2.191c1.667,-0.136 3.424,-0.392 3.903,-0.569c0.479,-0.177 1.928,-0.272 3.218,-0.211c3.984,0.189 4.363,-0.719 4.078,-9.767c-0.149,-4.764 -0.506,-8.017 -0.935,-8.534c-0.88,-1.06 -11.52,-1.059 -16.239,0.003zM180.18521,134.07167c0,0.593 0.164,2.646 0.365,4.564l0.364,3.487l-5.168,0.295c-5.294,0.301 -8.927,1.554 -10.697,3.686c-0.519,0.626 -0.827,2.374 -0.833,4.737c-0.013,4.998 0.556,5.397 7.688,5.397h5.443l-0.179,2.47c-0.176,2.432 -0.214,2.472 -2.503,2.634c-4.229,0.299 -12.696,1.895 -13.473,2.54c-0.531,0.441 -0.763,2.296 -0.763,6.113v5.479l-3.046,-0.176c-3.942,-0.227 -4.373,-1.1 -4.875,-9.886l-0.381,-6.677l3.817,-0.307c2.625,-0.21 4.376,-0.703 5.604,-1.578c1.971,-1.404 2.176,-2.621 1.244,-7.411c-0.299,-1.534 -0.872,-4.965 -1.274,-7.624c-0.626,-4.139 -0.61,-4.913 0.107,-5.366c2.262,-1.432 10.787,-3.191 16.381,-3.38c1.761,-0.059 2.179,0.133 2.179,1.003z" data-paper-data="{&quot;wickUUID&quot;:&quot;7347eb05-8321-4bf0-8df0-2a3fd1c36da0&quot;,&quot;wickType&quot;:&quot;path&quot;}" id="7347eb05-8321-4bf0-8df0-2a3fd1c36da0"/><path d="M220.56972,133.03411c-0.959,0.287 -7.888,0.461 -15.399,0.388c-12.858,-0.126 -13.773,-0.064 -15.688,1.06l-2.034,1.193v4.318c0,4.064 0.087,4.359 1.495,5.034c1.31,0.628 1.576,1.272 2.161,5.237c0.367,2.486 0.821,6.874 1.009,9.75c0.188,2.877 0.464,5.824 0.613,6.55c0.187,0.912 -0.048,1.419 -0.761,1.641c-0.567,0.176 -1.458,0.546 -1.981,0.822c-0.523,0.276 -2.615,0.829 -4.649,1.228c-2.034,0.399 -4.155,1.109 -4.715,1.579c-1.404,1.178 -1.325,4.773 0.146,6.643c0.639,0.812 1.162,1.841 1.162,2.286c0,1.938 1.308,2.204 10.72,2.178c5.13,-0.014 11.288,-0.279 13.684,-0.588c2.397,-0.309 6.941,-0.812 10.098,-1.118c5.896,-0.572 7.938,-1.369 9.109,-3.557c1.142,-2.135 -0.343,-10.676 -2.238,-12.87c-0.749,-0.866 -1.942,-1.017 -8.052,-1.017h-7.173l-0.012,-2.76c-0.006,-1.518 -0.262,-4.329 -0.569,-6.246c-0.306,-1.918 -0.628,-3.986 -0.714,-4.597c-0.224,-1.575 4.222,-2.641 11.072,-2.655c5.209,-0.011 5.486,-0.077 7.118,-1.71c0.946,-0.945 1.699,-2.324 1.699,-3.11c0,-0.777 0.162,-2.969 0.361,-4.872c0.294,-2.806 0.176,-3.644 -0.622,-4.443c-1.064,-1.063 -3.078,-1.189 -5.84,-0.364zM221.57072,140.31611l-0.469,2.267l-6.658,0.344c-11.213,0.58 -13.978,2.367 -12.671,8.184c0.306,1.361 0.759,5.29 1.008,8.731c0.625,8.65 0.566,8.598 9.668,8.598h7.098l0.713,2.545c1.132,4.045 0.787,4.657 -2.89,5.12c-1.756,0.221 -5.415,0.701 -8.131,1.067c-2.717,0.365 -8.888,0.806 -13.715,0.98c-8.745,0.315 -8.779,0.312 -9.75,-1.066c-0.959,-1.361 -0.944,-1.391 0.931,-1.88c4.659,-1.216 10.471,-3.549 10.768,-4.323c0.272,-0.708 -0.942,-16.254 -2.005,-25.686c-0.304,-2.698 -1.512,-4.648 -2.88,-4.648c-0.644,0 -1.139,-1.448 -0.636,-1.863c0.145,-0.12 29.64,-0.804 29.934,-0.694c0.085,0.031 -0.057,1.077 -0.315,2.324z" data-paper-data="{&quot;wickUUID&quot;:&quot;e2709a6a-0096-4faa-869d-5ec50c1bf5d7&quot;,&quot;wickType&quot;:&quot;path&quot;}" id="e2709a6a-0096-4faa-869d-5ec50c1bf5d7"/><path d="M252.16344,137.62661c-4.291,0.693 -9.59,7.184 -16.568,20.294c-1.974,3.708 -4.811,8.692 -6.304,11.074c-4.297,6.852 -3.735,8.293 3.05,7.827c2.422,-0.166 5.922,-0.728 7.779,-1.249c3.105,-0.87 3.866,-1.457 9.498,-7.335c3.367,-3.514 6.791,-7.455 7.608,-8.759c0.818,-1.303 2.605,-3.62 3.973,-5.149c2.419,-2.704 6.732,-9.606 7.484,-11.978c0.546,-1.72 -0.575,-3.371 -2.736,-4.029c-2.618,-0.797 -10.652,-1.203 -13.784,-0.696zM262.26544,143.59961c-0.618,1.949 -2.968,5.49 -5.441,8.201c-1.207,1.322 -2.848,3.449 -3.648,4.728c-0.8,1.278 -3.824,4.826 -6.722,7.884c-4.776,5.042 -5.597,5.661 -8.8,6.63c-1.943,0.589 -3.705,0.897 -3.917,0.685c-0.211,-0.211 0.41,-1.495 1.382,-2.853c0.971,-1.357 2.744,-4.429 3.94,-6.826c3.331,-6.678 7.506,-13.333 10.482,-16.706l2.691,-3.05h5.224c5.152,0 5.218,0.017 4.809,1.307z" data-paper-data="{&quot;wickUUID&quot;:&quot;ccab6cfa-65ec-432d-9760-a4ede4055269&quot;,&quot;wickType&quot;:&quot;path&quot;}" id="ccab6cfa-65ec-432d-9760-a4ede4055269"/><path d="M231.46236,138.47368c-0.96981,0.733 -1.08762,1.497 -1.00778,6.537l0.08958,5.707l4.4362,4.265c2.4401,2.345 5.32713,4.884 6.41671,5.641c6.59782,4.587 9.14114,6.523 12.25115,9.326c2.75072,2.48 3.88508,3.139 5.40309,3.139c1.05647,0 2.19667,-0.283 2.5326,-0.628c0.43719,-0.448 1.23564,-0.449 2.80038,-0.003c3.54039,1.009 7.80424,0.802 8.89187,-0.432c1.15579,-1.311 1.18597,-2.443 0.10516,-3.91c-0.45667,-0.621 -0.83836,-1.601 -0.8481,-2.178c-0.02045,-1.189 -2.60563,-3.842 -5.95907,-6.116c-1.24439,-0.844 -4.9581,-4.055 -8.25312,-7.136c-3.29404,-3.082 -6.60366,-5.929 -7.35439,-6.327c-0.7517,-0.399 -1.87535,-1.185 -2.49755,-1.746c-0.6222,-0.562 -3.62608,-2.36 -6.67572,-3.995c-5.77894,-3.1 -8.35731,-3.635 -10.33101,-2.144zM239.76709,145.12868c2.29697,1.24 5.52772,3.193 7.17912,4.341c3.99414,2.775 11.87043,10.116 12.28231,11.447c0.18014,0.583 1.18987,1.352 2.24342,1.709c1.05355,0.357 2.98537,1.625 4.29306,2.816l2.37779,2.167l-5.1694,-0.112l-5.1694,-0.111l-2.9698,-2.757c-1.63388,-1.517 -4.34077,-3.698 -6.01652,-4.848c-5.72051,-3.926 -6.57542,-4.604 -10.07102,-7.994c-3.08762,-2.994 -3.54136,-3.718 -3.85392,-6.153c-0.20253,-1.577 -0.12853,-2.76 0.17234,-2.76c0.28919,0 2.40602,1.014 4.70202,2.255z" data-paper-data="{&quot;wickUUID&quot;:&quot;3593c818-f22a-4fba-b5d2-580a48d00afa&quot;,&quot;wickType&quot;:&quot;path&quot;}" id="3593c818-f22a-4fba-b5d2-580a48d00afa"/></g><g data-paper-data="{&quot;wickUUID&quot;:&quot;f8daba23-d260-4bb0-9b0a-ddde83f721f6&quot;,&quot;wickType&quot;:&quot;clipsandpaths&quot;}" fill="#ffffff" fill-rule="none" stroke="none" stroke-width="1" stroke-linecap="butt" stroke-linejoin="miter" stroke-miterlimit="10" stroke-dasharray="" stroke-dashoffset="0" font-family="none" font-weight="none" font-size="none" text-anchor="none" style="mix-blend-mode: normal"><path d="M377.91789,22.23115c-5.53167,0.35833 -8.58378,1.13147 -13.51345,3.43647l-3.16473,1.84175l1.82615,2.84651c2.43733,3.25933 2.63981,4.184 2.13848,9.92867c-0.217,2.488 -0.5919,5.4298 -0.84957,6.4188c-0.65033,2.49733 -0.11525,3.43933 3.30042,5.40066c3.55467,2.04133 7.80559,6.01266 9.12392,8.61066c1.65667,3.264 1.52101,6.97244 -0.34399,9.18844c-1.087,1.292 -4.57451,2.81298 -7.14651,3.27931c-1.08767,0.19733 -2.69074,0.31392 -3.83941,0.31392l-2.53177,0.15605l0.14758,2.04694c0.26333,0.63033 0.97506,2.7295 1.09506,4.0215c0.25833,2.777 0.41956,2.8119 6.80023,0.52157c7.09133,-2.545 9.76054,-4.11977 10.46621,-5.97544c0.51867,-1.36433 2.44943,-10.7631 2.44943,-11.93543c0,-2.778 -2.18692,-6.61295 -7.16559,-12.36362c-2.162,-2.49767 -4.02012,-4.99353 -4.63745,-6.24786c-0.927,-1.883 -0.9474,-1.67692 -0.74907,-3.36525c0.33833,-2.87933 1.01079,-4.05155 3.79346,-6.68655c2.12367,-2.011 2.58068,-2.28243 4.39001,-2.8411c1.18633,-0.36667 2.87512,-0.70952 3.99145,-0.83585l2.56864,-0.57084l0.15648,-3.16331c0,-1.71867 -0.64419,-3.40404 -0.91852,-3.57337c-0.76167,-0.47067 -3.85246,-0.68196 -7.38746,-0.45263z" data-paper-data="{&quot;wickUUID&quot;:&quot;5dc72446-36bf-42b1-ae93-f6f9a6111857&quot;,&quot;wickType&quot;:&quot;path&quot;}" fill-rule="evenodd"/><path d="M355.18952,41.2016l-0.08953,3.78967l-3.85968,0.20649c-1.83467,0.002 -5.09467,0.15884 -7.27467,0.35017l-4.10006,0.3451l-1.29356,-0.99402c-0.47833,-0.45633 -1.02563,-0.85997 -1.57563,-1.0693c-1.918,-0.72933 -6.9599,-1.67164 -10.02457,-1.87497c-1.69767,-0.11267 -3.70395,-0.5617 -3.96628,-0.76403c-0.324,-0.24933 -0.80031,-1.74923 -0.87031,-3.52423l0.00177,-0.84932c2.69665,-0.01206 5.30646,-0.25757 7.78029,-0.73264c3.883,-0.745 5.159,-0.788 8.781,-0.29c6.765,0.928 11.514,1.893 15.152,3.077c0.47686,0.15524 0.88663,0.28961 1.23875,0.4109c0.04284,0.5404 0.07008,1.17135 0.10048,1.91918z" data-paper-data="{&quot;wickUUID&quot;:&quot;71f2627b-3e7f-47f4-a407-e398a6d5fe09&quot;,&quot;wickType&quot;:&quot;path&quot;}" fill-rule="nonzero"/><path d="M280.00043,21.8003c-3.074,0.312 -5.832,1.32853 -6.39567,2.00753c-0.75033,0.90433 0.81909,2.58009 4.48842,2.98142l3.38586,0.35486l3.40354,2.23852c1.95067,1.27033 4.16082,2.56414 4.71082,2.77914c0.55,0.215 2.96566,0.51767 5.00433,0.614c3.87033,0.18267 14.18568,-0.44624 15.47635,-0.93691c0.966,-0.36733 1.76285,-2.21017 1.31485,-4.06284c-0.34067,-1.40933 -0.9779,-2.09837 -2.71557,-2.78637c-3.08367,-1.221 -7.72065,-2.44961 -10.62298,-2.81994c-3.60833,-0.46033 -14.87762,-0.69141 -18.04995,-0.36941z" data-paper-data="{&quot;wickUUID&quot;:&quot;018f3292-3f65-4885-af48-8e4536f9c19e&quot;,&quot;wickType&quot;:&quot;path&quot;}" fill-rule="evenodd"/><path d="M295.61272,43.1278c-0.20667,1.41933 -0.59664,3.93644 -0.86564,5.58644c-0.269,1.65 -0.66456,4.1812 -0.87823,5.6232l-0.38485,2.90456l1.07038,1.07972c1.59767,1.64833 1.65383,3.24012 0.2995,8.13079c-0.96533,3.485 -1.0569,4.21248 -0.8479,6.49815c0.129,1.409 0.52091,5.92272 0.86591,9.93239c0.345,4.00933 0.79136,7.66468 0.88969,7.76301c0.09833,0.09867 2.19068,0.39652 3.57268,0.09252c1.382,-0.30367 3.09616,-0.54836 3.84516,-0.54836l1.93113,-0.30793l-0.0208,-2.05945c-0.11333,-0.77933 -0.72782,-5.80108 -1.36482,-11.15175c-0.637,-5.35067 -1.60557,-12.2596 -2.1509,-15.34227c-0.545,-3.08267 -1.22625,-7.66361 -1.50658,-10.13861c-0.398,-3.51267 -1.87405,-10.1985 -2.35938,-10.70217c-0.04267,-0.044 -1.88902,1.22076 -2.09535,2.63976z" data-paper-data="{&quot;wickUUID&quot;:&quot;056513f7-b09e-4a99-8cb4-e7d8c2196d9f&quot;,&quot;wickType&quot;:&quot;path&quot;}" fill-rule="evenodd"/><path d="M269.79727,39.30725c-0.22957,1.715 -0.09612,4.65007 0.18619,5.01964c0.09586,0.12549 1.42633,0.7039 2.69863,0.97477c3.02977,0.64511 3.15156,0.59631 3.20596,3.19275c0.04706,2.25561 -0.94207,8.34732 -1.63487,10.04414c-0.75474,1.84824 -0.681,1.64364 -4.16583,1.39522c-1.66424,-0.11872 -3.33048,-0.09578 -3.50549,-0.01758c-0.20734,0.0927 -0.49796,1.88575 -0.56259,3.05553c-0.18187,3.28294 -0.8275,2.93562 7.27944,3.9869c3.89043,0.50436 7.97815,1.13968 8.79244,1.3694c1.6477,0.46521 1.96181,0.37454 2.65413,-1.93132l0.33678,-1.79983l-1.71934,-0.77682c-0.83112,-0.32096 -2.16309,-0.56645 -3.55091,-0.65327c-1.91009,-0.1199 -1.85221,0.08858 -2.31889,-0.4081c-0.51472,-0.54747 -0.41942,-0.30196 0.03343,-3.3978c0.26137,-1.78791 0.75582,-4.95779 1.17722,-7.32061c0.98246,-5.50791 0.56938,-5.07501 4.4396,-4.43973l2.82384,0.42791l0.49782,-3.03279c0.13017,-1.6092 -0.24693,-3.2234 -0.45282,-3.49106c-0.65356,-0.84998 -7.14924,-3.01625 -11.25857,-3.74322l-4.21069,-0.69661z" data-paper-data="{&quot;wickUUID&quot;:&quot;b28216f9-3802-4384-b8af-0dcd22c5ccfb&quot;,&quot;wickType&quot;:&quot;path&quot;}" id="b28216f9-3802-4384-b8af-0dcd22c5ccfb" fill-rule="evenodd"/><path d="M255.54246,76.7783c-0.1272,0.1879 -0.4313,3.05997 -0.24907,5.50259c0.18254,2.44296 0.31222,4.91384 0.28865,5.49169l0.48343,1.80487l3.65729,0.39104c10.15064,0.98493 16.47604,1.39432 16.63137,1.25229c0.2632,-0.24133 1.21684,-9.04683 1.02629,-9.96516c-0.14049,-0.67671 -1.31811,-1.59189 -4.43942,-2.7702c-3.65282,-1.37878 -3.89965,-1.42548 -10.20331,-1.81394c-4.23749,-0.26131 -7.04137,-0.12069 -7.19523,0.10682z" data-paper-data="{&quot;wickUUID&quot;:&quot;45f82f48-3cfc-4b9d-9eb5-8b7f195dcfe6&quot;,&quot;wickType&quot;:&quot;path&quot;}" id="45f82f48-3cfc-4b9d-9eb5-8b7f195dcfe6" fill-rule="evenodd"/><path d="M244.56268,25.96868c-0.67975,0.62545 -0.10481,6.04379 1.13214,8.66814c1.18109,2.50694 2.90739,11.26023 3.2483,16.47277c0.16529,2.52966 0.50493,5.63828 0.75087,6.88718c0.4836,2.45608 2.00624,8.5415 2.48099,9.91262l1.03138,1.4796l1.26826,-1.54298c0.18595,-0.43068 0.49916,-4.68797 0.69084,-9.37939c0.28729,-7.03581 0.25705,-9.38634 -0.17339,-13.25676c-0.39489,-3.55235 -0.45883,-6.2313 -0.26358,-11.0737l0.2544,-6.47312l-1.59142,-0.97669c-3.77615,-0.92949 -8.36856,-1.14135 -8.82879,-0.71767z" data-paper-data="{&quot;wickUUID&quot;:&quot;c57a6cd0-2cb3-4bd4-9bbb-9e5407c29ae8&quot;,&quot;wickType&quot;:&quot;path&quot;}" id="c57a6cd0-2cb3-4bd4-9bbb-9e5407c29ae8" fill-rule="evenodd"/><path d="M140.74081,32.66882c-0.93,0.251 -3.16713,1.11438 -4.58546,1.78771c-2.19267,1.04067 -3.00518,1.71273 -3.95618,3.17006c-0.61533,0.943 -1.73425,3.49842 -2.31892,5.33175c-0.89933,2.81833 -1.11813,4.28855 -1.26813,8.01022c-0.20433,5.06667 -0.06766,5.64604 2.35067,8.99271c3.05567,4.22733 4.1135,7.79485 3.8385,13.02885c-0.134,2.55533 -0.05023,2.2679 -1.1679,3.89057c-1.84033,2.672 -2.68091,3.16264 -5.42358,3.36064l-2.4429,0.24596l-0.99596,2.5286c-0.64333,1.93467 -0.46618,2.60148 0.18015,3.47615c0.85433,1.15633 4.22265,3.84786 6.56898,5.26286c2.359,1.42267 4.01447,1.73987 10.0728,1.84954c4.497,0.08133 5.45819,-0.06735 6.71986,-0.74235c2.356,-1.26033 3.70498,-2.70512 5.10331,-5.54545c2.364,-4.80233 3.46848,-8.51463 3.46848,-11.14696c0,-3.93667 -1.3333,-5.64472 -6.1263,-7.13872c-2.195,-0.68433 -4.82217,-2.09579 -6.0825,-3.40346c-1.83267,-1.901 -2.18636,-3.578 -2.34669,-10.20433c-0.13167,-5.43967 -0.24687,-5.15655 0.49146,-6.43655c0.993,-1.721 3.812,-3.54013 7.20267,-4.76346c1.44567,-0.52167 3.03376,-1.41686 3.15276,-1.59153c0.22367,-0.32767 0.97035,-5.5498 0.97035,-6.59413c0,-0.63667 -2.49911,-2.1719 -5.54811,-3.22923c-2.10733,-0.731 -5.42569,-0.79512 -7.85736,-0.13945z" data-paper-data="{&quot;wickUUID&quot;:&quot;b4c8eebd-5e7d-4ecc-8908-943ee230a3f4&quot;,&quot;wickType&quot;:&quot;path&quot;}" id="b4c8eebd-5e7d-4ecc-8908-943ee230a3f4" fill-rule="evenodd"/><path d="M94.17569,47.47794c-0.756,0.481 -1.94031,5.02059 -2.46698,12.08592c-0.29367,3.94167 -0.90838,9.76562 -1.37138,12.97395c-0.964,6.68267 -3.852,21.04501 -4.80233,23.88501c-0.35267,1.053 -0.51399,2.6817 -0.51832,2.81903c-0.00467,0.13767 2.2064,0.47566 3.4774,0.47566c2.66467,0 2.74242,-0.03657 3.25142,-4.0499c0.355,-2.80133 0.18446,-3.56794 1.82013,-4.19894c1.68367,-0.64967 5.67664,2.11734 9.10464,6.18267l1.29166,1.26183l4.65919,-0.29494c6.34233,-0.366 6.54449,-1.28554 4.54816,-4.32587c-2.21833,-3.379 -5.91099,-6.85971 -9.12066,-8.44804c-3.141,-1.55467 -3.67954,-1.47253 -2.86787,-3.17486c0.667,-1.39833 0.74726,-1.15175 5.67726,-1.15175l3.75369,-0.04001l2.09551,-2.19984c0.94,-1.054 2.23725,-2.98315 2.71392,-3.95682c0.85433,-1.74467 0.89611,-2.1796 0.69444,-7.33293c-0.32567,-8.33033 -1.78046,-15.24981 -3.29746,-16.76681c-1.88333,-1.88333 -16.84609,-4.88636 -18.64242,-3.74336zM106.31468,56.80177c3.888,1.36667 6.25513,3.93856 6.25513,6.68956c0,1.86067 -0.81258,3.72859 -2.12058,5.31459c-1.58733,1.92433 -3.78475,2.86549 -8.47708,3.69682c-2.454,0.43467 -3.65059,0.18342 -5.05926,-1.03125c-0.84133,-0.72533 -0.51687,-0.19985 -0.46554,-2.12518c0.06233,-2.31967 0.98255,-8.38161 1.58322,-9.96161c1.21267,-3.19033 4.04878,-4.0716 8.28411,-2.58293z" data-paper-data="{&quot;wickUUID&quot;:&quot;e3dcf675-c03a-4a18-bd85-8e80b8c3f8de&quot;,&quot;wickType&quot;:&quot;path&quot;}" id="e3dcf675-c03a-4a18-bd85-8e80b8c3f8de" fill-rule="evenodd"/><path d="M60.03747,57.04891l-3.00125,0.29186l-0.74936,2.42832c-0.22267,1.04733 -0.55692,2.69633 -0.75225,3.70466c-0.61,3.15267 -5.58041,22.70929 -6.71541,26.42329c-0.37967,1.24333 -0.19206,3.28242 -0.12139,3.35009c0.07067,0.06733 2.69017,0.08743 5.3485,-0.06757c7.034,-0.41 14.18303,-0.382 17.15503,0.07033c2.94367,0.448 3.80429,0.11191 4.17996,-1.76676l-0.14463,-2.60424l-8.46749,-0.10641c-9.68733,-0.11967 -9.78319,0.10092 -9.95019,-1.90275c-0.11633,-1.39667 2.19013,-5.58464 3.5328,-6.82331c1.12633,-1.03833 2.52359,-1.17546 7.42859,-1.19279c4.25067,-0.01533 5.22628,-1.81618 4.97495,-3.13785c-0.15233,-0.80067 -2.85668,-1.04786 -8.54001,-0.56953l-4.24984,0.36967l-0.0939,-0.38778c-0.66333,-0.76133 -0.71246,-0.64086 -0.55579,-1.91886c0.23467,-1.91833 2.41913,-9.14138 3.11313,-10.12305c0.84933,-1.202 2.11698,-1.26711 10.41931,-1.46578l7.94341,-0.19599l0.92139,-1.89011c0.11933,-0.635 -0.62537,-2.16583 -0.69937,-2.23983c-0.198,-0.198 -18.04186,-0.40694 -20.97619,-0.24561z" data-paper-data="{&quot;wickUUID&quot;:&quot;58840a56-8df0-4055-bce4-2bc4c668eab4&quot;,&quot;wickType&quot;:&quot;path&quot;}" id="58840a56-8df0-4055-bce4-2bc4c668eab4" fill-rule="evenodd"/><path d="M67.4928,15.03672c-2.76633,0.27033 -14.87116,1.15587 -19.61816,1.43554c-2.716,0.15967 -5.63333,0.72012 -5.695,0.78445c-0.062,0.06467 -1.01686,4.85008 -1.96786,10.25841c-0.95067,5.40833 -2.29821,12.07917 -3.01788,14.92084c-1.73567,6.851 -5.81379,18.90583 -11.75912,34.7625c-2.67367,7.13167 -4.89959,13.15794 -4.89959,13.20061c0,0.04267 2.04634,1.14734 3.65034,1.27434c1.60433,0.127 3.84789,0.4414 4.98856,0.69873c1.141,0.25767 3.10987,0.01265 3.37654,-0.08968c0.515,-0.19767 2.15621,-3.75769 6.15254,-13.40802c2.83267,-6.84067 4.12212,-10.44931 7.46245,-20.89098c3.20533,-10.019 3.83831,-11.66925 5.60831,-13.30092c1.76433,-1.626 2.30841,-1.63055 10.45041,-2.32955c12.882,-1.10533 20.46778,-2.47468 22.71845,-4.05868c1.02067,-0.71833 1.75984,-3.45778 1.31184,-6.82278c-0.70333,-5.28067 -3.23583,-11.4217 -5.96616,-14.43737l-1.93949,-1.99494l-4.84659,-0.08132c-2.54533,-0.029 -5.27626,0.00715 -6.00959,0.07882zM71.85734,22.38768c2.80733,1.49633 3.00354,1.61349 3.00354,4.35182c0,3.35867 -1.34567,6.17822 -3.67967,7.45455c-0.957,0.52333 -1.45048,0.47689 -10.12915,0.39822c-13.86467,-0.12567 -13.79932,-0.08418 -14.09132,-5.66318c-0.15933,-3.047 -0.05895,-1.84525 0.86605,-2.94458c1.11467,-1.32467 3.06863,-2.2121 6.85763,-3.19577c5.08967,-1.321 7.08468,-1.57828 11.38535,-1.47495c4.00833,0.09633 3.78624,0.00722 5.78757,1.07389z" data-paper-data="{&quot;wickUUID&quot;:&quot;ad8b5e77-44ba-4f3b-abbc-f4b2122d4228&quot;,&quot;wickType&quot;:&quot;path&quot;}" id="ad8b5e77-44ba-4f3b-abbc-f4b2122d4228" fill-rule="evenodd"/><path d="M181.31409,72.08839c-1.48967,1.80633 -7.50976,5.24141 -9.24843,5.26808c-0.754,0.01133 -1.36159,1.36129 -1.66426,4.22896l0.22897,3.28943l5.18222,-0.16982c2.62967,-0.13433 5.50367,-0.69773 5.55734,-0.74873c0.221,-0.20933 1.87649,-10.35537 1.78482,-10.9697c-0.09533,-0.64067 -1.36066,-1.47989 -1.84066,-0.89822z" data-paper-data="{&quot;wickUUID&quot;:&quot;5c8ae6d4-9d12-4321-bb86-27ac9b0ef1ac&quot;,&quot;wickType&quot;:&quot;path&quot;}" id="5c8ae6d4-9d12-4321-bb86-27ac9b0ef1ac" fill-rule="evenodd"/><path d="M174.15249,37.0596c-0.44,0.19433 0.41669,1.58124 2.89536,3.26857c1.75067,1.19167 3.50105,2.4871 4.14405,3.19743c2.40867,2.66167 4.02698,7.81453 4.02698,12.77086l0.0442,3.38646l1.75888,0.40263c1.782,0.015 2.5262,0.5523 4.13053,3.21563c2.127,3.531 5.87703,11.12044 7.61803,15.40511l1.75773,4.27791l1.94766,0.60056c0.728,0.12933 2.69292,0.24517 4.20192,0.2555c2.578,0.01833 3.48115,-0.54723 3.64715,-1.2519c0.59367,-2.52033 1.89914,-9.41459 2.20147,-11.67792c1.23267,-9.23033 1.71706,-23.91662 0.93706,-28.40329c-0.357,-2.052 -1.08335,-3.18845 -2.05535,-3.84178c-1.80733,-1.21433 -7.89391,-1.43829 -8.18391,-0.31629c-0.05433,0.21067 -0.82623,2.51817 -1.13056,4.4565c-0.822,5.23667 -1.87234,8.52558 -2.93401,9.00925c-1.278,0.58267 -0.85432,0.29621 -1.67032,-0.56012c-0.40433,-0.42433 -3.33294,-3.78069 -6.62561,-7.57302l-6.05826,-6.96869l-2.22516,-0.21977c-0.924,-0.001 -2.89497,-0.07595 -4.36164,-0.16628c-1.46667,-0.09 -3.75553,0.59565 -4.0662,0.73265z" data-paper-data="{&quot;wickUUID&quot;:&quot;ce975a42-aa84-4947-96b1-0468c025b35c&quot;,&quot;wickType&quot;:&quot;path&quot;}" id="ce975a42-aa84-4947-96b1-0468c025b35c" fill-rule="evenodd"/><path d="M39.30266,11.42852c-0.647,1.208 -1.578,5.758 -4.156,20.307c-2.122,11.977 -4.413,19.452 -12.384,40.396c-3.571,9.383 -6.66,18.111 -6.866,19.395c-0.56,3.505 0.706,4.3 7.503,4.71c3.074,0.186 6.571,0.515 7.77,0.731c1.662,0.3 2.56,0.096 3.772,-0.858c2.435,-1.915 10.797,-21.717 14.595,-34.562c2.051,-6.937 4.277,-13.231 4.899,-13.853c0.188,-0.188 3.623,-0.579 7.633,-0.869c10.306,-0.744 19.08,-2.245 23.55,-4.029c4.418,-1.762 5.168,-3.046 5.168,-8.849c0,-6.99 -3.914,-16.82 -8.445,-21.214c-2.165,-2.099 -2.223,-2.114 -7.892,-2.09c-3.142,0.014 -11.141,0.362 -17.777,0.773c-10.549,0.655 -12.195,0.632 -13.092,-0.18c-1.398,-1.264 -3.551,-1.168 -4.278,0.192zM80.17066,17.73252c2.873,3.726 5.2,9.911 5.508,14.643c0.219,3.354 0.072,4.543 -0.631,5.127c-1.853,1.537 -10.882,3.305 -20.036,3.922c-5.124,0.345 -10.191,0.902 -11.26,1.238c-3.647,1.145 -4.589,2.977 -8.919,17.333c-2.411,7.991 -4.26,12.933 -9.065,24.222c-3.724,8.75 -3.44,8.385 -5.873,7.537c-1.113,-0.388 -3.518,-0.705 -5.346,-0.705c-1.828,0 -3.323,-0.226 -3.323,-0.502c0,-0.275 2.766,-7.76 6.148,-16.631c8.117,-21.299 10.828,-30.428 13.262,-44.665l2.017,-11.8l8.074,-0.476c4.441,-0.262 10.729,-0.72 13.974,-1.019c3.246,-0.298 7.694,-0.487 9.886,-0.419c3.722,0.114 4.091,0.259 5.584,2.195z" data-paper-data="{&quot;wickUUID&quot;:&quot;ff3546a8-e863-478e-85f5-cf9d3502b589&quot;,&quot;wickType&quot;:&quot;path&quot;}" id="ff3546a8-e863-478e-85f5-cf9d3502b589" fill-rule="evenodd"/><path d="M58.38885,21.17037c-5.665,1.168 -9.422,2.496 -10.712,3.786c-1.118,1.118 -1.244,1.667 -1.106,4.786c0.241,5.415 0.368,5.468 13.409,5.625c9.335,0.112 10.762,0.017 11.957,-0.796c2.145,-1.458 3.678,-4.674 3.678,-7.715c0,-2.315 -0.21,-2.841 -1.607,-4.015c-0.883,-0.744 -2.493,-1.599 -3.577,-1.9c-2.546,-0.707 -8.007,-0.603 -12.042,0.229zM69.78385,26.21837c1.271,1.271 1.295,1.55 0.265,3.021c-1.018,1.453 -5.235,1.89 -12.98,1.346c-4.596,-0.324 -5.589,-0.546 -5.729,-1.283c-0.23,-1.203 1.265,-1.916 6.419,-3.059c6.183,-1.372 10.669,-1.381 12.025,-0.025z" data-paper-data="{&quot;wickUUID&quot;:&quot;e38e2f7d-abf7-4fc1-a102-45485cc087b9&quot;,&quot;wickType&quot;:&quot;path&quot;}" id="e38e2f7d-abf7-4fc1-a102-45485cc087b9" fill-rule="evenodd"/><path d="M55.3105,52.64964c-0.99,0.712 -2.668,3.955 -3.088,5.968c-1.993,9.558 -6.833,28.759 -7.933,31.475c-0.503,1.241 -1.045,3.026 -1.204,3.967c-0.249,1.476 -0.155,1.844 0.69,2.689c0.951,0.952 1.211,0.985 9.324,1.211c5.446,0.152 9.197,0.45 10.796,0.859c2.611,0.669 11.048,0.889 11.956,0.313c1.112,-0.706 3.283,-4.695 4.364,-8.017c1.062,-3.266 1.091,-3.542 0.475,-4.482c-0.99,-1.511 -3.027,-1.855 -11.02,-1.857c-6.481,-0.002 -7.264,-0.074 -7.044,-0.648c0.136,-0.356 0.248,-0.723 0.248,-0.817c0,-0.094 2.558,-0.171 5.686,-0.171c5.49,0 5.728,-0.036 6.916,-1.035c1.81,-1.523 2.449,-4.864 1.504,-7.863c-1.138,-3.608 -1.439,-3.762 -7.368,-3.762c-2.808,0 -5.102,-0.138 -5.099,-0.306c0.004,-0.169 0.253,-1.133 0.554,-2.144l0.548,-1.838l3.836,-0.26c2.11,-0.144 5.977,-0.282 8.593,-0.307l4.756,-0.045l1.245,-1.419c0.685,-0.78 1.438,-2.112 1.674,-2.96c0.554,-1.996 0.552,-5.123 -0.005,-6.344c-0.888,-1.949 -1.443,-2.038 -14.043,-2.244c-6.523,-0.107 -12.687,-0.276 -13.698,-0.375c-1.208,-0.119 -2.12,0.022 -2.663,0.412zM81.1135,57.95464c0.119,0.118 0.092,0.78 -0.06,1.47l-0.275,1.254l-2.929,0.002c-1.61,0 -5.584,0.122 -8.829,0.271c-7.102,0.325 -7.057,0.294 -8.752,5.919c-2.057,6.827 -2.1,7.102 -1.296,8.329c0.667,1.019 0.861,1.076 2.82,0.842c1.156,-0.139 3.957,-0.369 6.224,-0.512c4.436,-0.28 4.887,-0.089 4.379,1.853c-0.213,0.815 -0.484,0.856 -5.634,0.856c-6.537,0 -6.805,0.145 -9.244,4.997c-2.961,5.889 -2.158,6.438 9.42,6.438h8.188v0.943c0,0.519 -0.246,1.28 -0.548,1.692c-0.5,0.684 -0.775,0.707 -3.164,0.269c-3.474,-0.638 -7.743,-0.674 -15.881,-0.133c-3.7,0.246 -6.785,0.39 -6.855,0.321c-0.07,-0.07 0.248,-1.076 0.705,-2.237c0.458,-1.161 0.832,-2.45 0.832,-2.866c0,-0.416 0.434,-2.293 0.965,-4.171c0.531,-1.878 1.561,-5.896 2.289,-8.928c0.729,-3.032 1.581,-6.133 1.894,-6.89c0.313,-0.758 0.569,-1.986 0.569,-2.73c0,-0.744 0.199,-1.87 0.443,-2.503c0.243,-0.632 0.569,-1.884 0.724,-2.783l0.281,-1.633l2.645,-0.266c2.993,-0.3 20.758,-0.135 21.089,0.196z" data-paper-data="{&quot;wickUUID&quot;:&quot;e8e32edc-b07b-4184-a3d5-21211ace8223&quot;,&quot;wickType&quot;:&quot;path&quot;}" id="e8e32edc-b07b-4184-a3d5-21211ace8223" fill-rule="evenodd"/><path d="M91.72713,43.22116c-1.283,0.137 -2.547,0.465 -2.81,0.728c-0.29,0.289 -0.526,2.222 -0.599,4.897c-0.067,2.43 -0.314,5.246 -0.55,6.256c-0.236,1.011 -0.433,3.417 -0.438,5.346c-0.02,6.777 -3.778,28.613 -6.141,35.674c-0.446,1.335 -0.812,2.829 -0.812,3.319c0,1.337 1.127,3.771 1.939,4.189c0.394,0.202 3.043,0.486 5.889,0.632c6.453,0.33 6.461,0.323 7.466,-5.565c0.144,-0.842 0.401,-1.531 0.571,-1.531c0.618,0 2.861,2.69 3.459,4.146c0.337,0.821 0.976,1.608 1.42,1.749c1.324,0.42 14.672,-0.528 16.155,-1.148c1.902,-0.794 2.608,-2.617 1.957,-5.051c-0.608,-2.274 -3.629,-7.049 -6.013,-9.503l-1.79,-1.844l1.215,-0.538c1.396,-0.617 6.341,-6.2 7.11,-8.026c1.074,-2.547 1.159,-8.76 0.218,-15.826c-1.068,-8.023 -2.007,-10.926 -4.26,-13.179c-1.866,-1.867 -3.269,-2.371 -11.241,-4.041c-5.026,-1.053 -7.875,-1.206 -12.745,-0.684zM103.65513,48.79416c7.026,1.456 8.519,2.076 9.483,3.936c0.43,0.83 0.957,2.667 1.17,4.084c1.15,7.624 1.54,11.923 1.33,14.663c-0.253,3.31 -0.871,4.581 -3.704,7.618l-1.62,1.736l-4.248,0.006c-4.521,0.006 -4.883,0.103 -5.619,1.502c-0.709,1.347 0.141,2.854 1.941,3.437c3.662,1.188 8.501,5.536 10.768,9.675l1.13,2.063l-2.151,0.226c-3.617,0.381 -8.48,0.479 -8.48,0.172c0,-0.16 -1.043,-1.417 -2.317,-2.794c-2.262,-2.443 -5.453,-4.486 -7.007,-4.486c-1.436,0 -2.928,1.565 -2.928,3.072c0,0.759 -0.199,2.308 -0.442,3.442l-0.442,2.062h-2.617h-2.618l0.594,-1.532c0.693,-1.787 1.259,-4.24 3.225,-13.987c1.945,-9.637 2.706,-15.009 3.126,-22.052c0.499,-8.374 1.133,-12.756 1.936,-13.375c1.02,-0.787 3.905,-0.625 9.49,0.532z" data-paper-data="{&quot;wickUUID&quot;:&quot;81ffc125-1631-45d2-a90e-b1e1903d0795&quot;,&quot;wickType&quot;:&quot;path&quot;}" id="81ffc125-1631-45d2-a90e-b1e1903d0795" fill-rule="evenodd"/><path d="M99.37737,56.31703c-1.333,0.879 -2.198,2.794 -2.679,5.932c-0.172,1.123 -0.532,3.296 -0.799,4.829c-0.611,3.511 -0.363,4.48 1.434,5.59c1.638,1.012 3.491,0.974 7.904,-0.165c3.441,-0.887 4.762,-1.717 6.21,-3.9c3.242,-4.889 2.037,-9.136 -3.36,-11.832c-3.121,-1.56 -6.746,-1.749 -8.71,-0.454zM105.91737,61.24203c0.756,0.627 0.763,2.154 0.018,3.596c-0.589,1.139 -4.479,3.312 -4.999,2.792c-0.149,-0.149 -0.058,-0.982 0.203,-1.852c0.261,-0.87 0.474,-2.142 0.474,-2.828c0,-2.248 0.355,-2.653 2.119,-2.416c0.873,0.117 1.857,0.435 2.185,0.708z" data-paper-data="{&quot;wickUUID&quot;:&quot;25774144-fa17-419f-a6ab-066d2889e538&quot;,&quot;wickType&quot;:&quot;path&quot;}" id="25774144-fa17-419f-a6ab-066d2889e538" fill-rule="evenodd"/><path d="M132.63955,31.36761c-1.00617,0.5446 -2.24224,1.44477 -2.74732,1.99995c-3.95533,4.34853 -6.60694,15.92379 -5.30314,23.15368c0.44763,2.48541 0.66585,2.93374 3.00672,6.19419l2.52405,3.51396l0.37407,3.12879c0.41543,3.4778 -0.18489,5.91299 -1.58524,6.42496c-0.66589,0.24345 -1.03195,0.06637 -1.52135,-0.73639c-0.74266,-1.21592 -2.34083,-1.26834 -3.73461,-0.121c-1.80141,1.4827 -4.17795,10.18163 -3.37927,12.36621c0.45428,1.24256 3.82146,4.53771 6.96552,6.81776c4.76665,3.45642 6.1267,3.75456 17.82553,3.90465c2.58654,0.03286 3.04583,-0.0797 5.14602,-1.26064c3.66675,-2.06245 5.55653,-4.36642 8.19403,-9.98678c2.4607,-5.24481 3.29566,-9.13505 2.8407,-13.23937c-0.41791,-3.77289 -3.63093,-6.89975 -8.64198,-8.41525c-1.9381,-0.58615 -3.66596,-1.43017 -4.42958,-2.16462c-1.11663,-1.07387 -1.29392,-1.47435 -1.64836,-3.72232c-0.57628,-3.65856 -0.31964,-7.85801 0.5313,-8.69616c0.39285,-0.38745 1.46219,-1.11166 2.37669,-1.60997c1.38011,-0.75371 1.88746,-0.83379 2.98542,-0.47498c1.73063,0.56618 3.36035,-0.05521 3.98765,-1.51964c0.56084,-1.3113 2.03481,-8.15128 2.39754,-11.12568c0.19965,-1.63815 0.09813,-2.14298 -0.61032,-3.03815c-0.86343,-1.09191 -8.62833,-4.62978 -10.87851,-4.95703c-3.81413,-0.55402 -9.72074,0.88033 -14.67556,3.56383zM143.28993,32.91358c0.87271,0.03975 1.92828,-0.0523 2.34435,-0.20441c0.70158,-0.2565 7.79541,2.55248 8.02375,3.17705c0.05597,0.15309 -0.15486,1.6995 -0.46805,3.43772l-0.56968,3.15973l-3.73116,1.42905c-4.01906,1.53857 -6.17928,3.22805 -7.09574,5.54991c-0.92531,2.34426 -0.48704,10.91698 0.72883,14.24269c0.958,2.62037 4.42696,4.9882 9.41583,6.42556c3.59865,1.03634 4.71124,2.93793 4.30539,7.36122c-0.28693,3.13514 -3.39594,10.53243 -5.28438,12.57506c-1.85561,2.0072 -4.14528,3.1009 -6.36936,3.04307c-6.69437,-0.17286 -9.21505,-0.35757 -10.62094,-0.77522c-1.80636,-0.53742 -7.02363,-4.26244 -8.39198,-5.9928c-0.8624,-1.0891 -0.86941,-1.28884 -0.11998,-3.36862l0.79628,-2.21083l1.99686,0.13238c2.46784,0.1625 3.82713,-0.57828 5.68475,-3.09835c1.62561,-2.20527 2.0077,-4.66077 1.44022,-9.25632c-0.45206,-3.66245 -1.30996,-5.6071 -3.92573,-8.90014c-1.225,-1.54213 -1.84923,-2.69914 -2.11535,-3.92212c-0.46617,-2.14005 -0.14607,-8.56563 0.51476,-10.34897c0.26829,-0.72522 0.74635,-2.28628 1.06092,-3.47028c0.80377,-3.01745 2.32266,-5.22629 4.33017,-6.29669c3.09121,-1.6476 6.42649,-2.76157 8.05024,-2.68869z" data-paper-data="{&quot;wickUUID&quot;:&quot;9a789f2a-e46e-4cf8-bb8c-2456c32a5b7c&quot;,&quot;wickType&quot;:&quot;path&quot;}" id="9a789f2a-e46e-4cf8-bb8c-2456c32a5b7c" fill-rule="evenodd"/><path d="M162.62191,43.51993c-3.657,1.81 -6.645,6.57 -6.643,10.583c0.002,2.554 1.244,8.888 2.163,11.029c0.772,1.799 3.664,4.713 5.738,5.782c0.945,0.488 2.503,0.843 3.879,0.884c1.913,0.058 2.584,-0.123 3.983,-1.073c2.299,-1.561 4.151,-3.972 5.182,-6.745c0.703,-1.894 0.865,-3.263 0.879,-7.427c0.014,-4.643 -0.076,-5.284 -0.995,-7.083c-2.715,-5.315 -9.619,-8.211 -14.186,-5.95zM168.00791,47.97393c1.917,0.728 3.883,2.624 4.562,4.398c0.511,1.333 0.611,2.527 0.429,5.105c-0.3,4.243 -0.859,5.946 -2.564,7.806c-1.964,2.144 -3.683,2.072 -6.118,-0.256c-1.577,-1.507 -1.923,-2.161 -2.631,-4.966c-1.121,-4.44 -1.075,-7.2 0.153,-9.131c1.926,-3.032 3.716,-3.889 6.169,-2.956z" data-paper-data="{&quot;wickUUID&quot;:&quot;49bc6081-1e33-42dc-96c7-fbcea5896f1c&quot;,&quot;wickType&quot;:&quot;path&quot;}" id="49bc6081-1e33-42dc-96c7-fbcea5896f1c" fill-rule="evenodd"/><path d="M166.13274,46.24361c-0.588,0.392 -1.844,1.23 -2.792,1.863c-2.757,1.84 -3.461,3.918 -3.152,9.312c0.189,3.307 0.484,4.897 1.215,6.55c1.61,3.64 4.923,5.808 7.78,5.091c2.126,-0.533 6.001,-3.588 7.245,-5.712c1.224,-2.088 1.229,-2.12 0.964,-6.59c-0.301,-5.085 -0.8,-6.627 -2.721,-8.405c-2.823,-2.611 -6.446,-3.506 -8.539,-2.109zM169.08374,54.56561c2.243,1.55 2.475,6.405 0.397,8.286c-0.754,0.683 -0.845,0.673 -2.059,-0.225c-1.639,-1.211 -1.895,-2.353 -1.302,-5.808c0.681,-3.974 0.583,-3.899 2.964,-2.253z" data-paper-data="{&quot;wickUUID&quot;:&quot;3dcdbef2-6db5-460d-880c-a69ea2ac9f64&quot;,&quot;wickType&quot;:&quot;path&quot;}" id="3dcdbef2-6db5-460d-880c-a69ea2ac9f64" fill-rule="evenodd"/><path d="M170.85182,33.09421c-1.042,0.708 -1.541,1.398 -1.701,2.348c-0.778,4.631 -0.777,4.729 0.097,5.603c0.466,0.466 1.187,0.848 1.601,0.848c0.861,0 5.434,2.833 7.1,4.398c0.709,0.667 1.504,2.246 2.188,4.348c0.961,2.956 1.052,3.749 0.873,7.589c-0.43,9.243 -3.31,13.4 -10.294,14.862c-3.997,0.837 -4.15,1.097 -4.494,7.694c-0.173,3.306 -0.127,5.823 0.119,6.456c0.787,2.028 1.075,2.085 9.02,1.778c8.945,-0.345 9.539,-0.573 10.212,-3.911c0.816,-4.043 2.047,-11.957 2.323,-14.934c0.151,-1.628 0.393,-2.96 0.538,-2.96c0.72,0 6.331,12.232 7.851,17.115c0.885,2.846 1.737,3.224 8.294,3.675c6.258,0.432 7.777,0.149 8.95,-1.664c0.632,-0.977 2.544,-9.231 3.155,-13.613c0.586,-4.212 1.582,-18.59 1.592,-22.976c0.011,-4.957 -0.978,-11.647 -1.976,-13.37c-1.998,-3.451 -14.509,-4.205 -16.872,-1.016c-0.499,0.673 -0.903,2.286 -1.177,4.691c-0.229,2.016 -0.558,3.807 -0.731,3.981c-0.302,0.301 -4.873,-4.482 -8.555,-8.952c-2.16,-2.622 -3.551,-2.992 -11.239,-2.992c-5.059,0 -5.491,0.063 -6.874,1.002zM185.52382,38.62621c0.611,0.786 3.072,3.573 5.469,6.193c2.397,2.62 4.69,5.285 5.096,5.922c0.405,0.636 0.925,1.292 1.155,1.457c0.772,0.555 2.531,0.319 3.209,-0.429c0.773,-0.854 2.722,-9.044 2.722,-11.438c0,-1.324 0.163,-1.654 0.919,-1.856c1.922,-0.515 5.247,-0.254 6.791,0.534c1.533,0.782 1.558,0.834 2.026,4.186c0.62,4.439 0.587,8.185 -0.162,18.096c-0.712,9.426 -0.918,11.009 -2.251,17.254l-0.98,4.595l-2.865,-0.005c-1.576,-0.002 -3.527,-0.114 -4.336,-0.248c-1.37,-0.226 -1.52,-0.4 -2.193,-2.548c-0.973,-3.101 -3.608,-8.689 -7.117,-15.093c-2.988,-5.45 -3.316,-5.774 -5.861,-5.787l-1.123,-0.006v-3.394c0,-2.692 -0.253,-4.143 -1.222,-7.009c-1.802,-5.332 -2.306,-5.956 -7.661,-9.482c-1.853,-1.22 -3.369,-2.318 -3.369,-2.438c0,-0.121 2.395,-0.155 5.321,-0.077l5.321,0.143l1.111,1.43zM181.81482,78.23921l-0.92,5.513l-4.889,0.254c-2.689,0.139 -4.961,0.19 -5.049,0.112c-0.088,-0.078 0.004,-1.461 0.204,-3.073l0.364,-2.932l2.498,-0.681c2.375,-0.648 5.603,-2.668 7.656,-4.792c0.529,-0.546 0.909,-0.707 0.965,-0.408c0.05,0.272 -0.322,2.975 -0.829,6.007z" data-paper-data="{&quot;wickUUID&quot;:&quot;72459d2b-8a5e-4403-8ae4-4bc835297980&quot;,&quot;wickType&quot;:&quot;path&quot;}" id="72459d2b-8a5e-4403-8ae4-4bc835297980" fill-rule="evenodd"/><path d="M227.45493,26.84658c2.101,0.159 5.196,0.387 6.878,0.507c2.21761,0.15737 2.85182,0.2243 3.42245,0.66119c0.39456,1.38538 1.05329,3.21872 2.00341,5.61811c0.699,1.767 1.751,6.902 3.04,14.847c1.084,6.681 2.456,14.34 3.049,17.021c0.34824,1.57383 0.72683,3.74842 1.02843,5.82688c-0.15935,0.32436 -0.22509,0.6805 -0.15029,0.9352c0.115,0.395 0.348,1.504 0.517,2.465c0.02864,0.16175 0.06677,0.34295 0.11251,0.53747c0.00181,0.02024 0.00359,0.04039 0.00535,0.06045c0.238,2.724 0.73,7.605 1.092,10.848c0.2081,1.85855 0.39517,4.26626 0.51768,6.50306c-1.03773,0.07128 -2.56369,0.10563 -4.92354,0.13164c-8.127,0.091 -7.706,0.388 -7.875,-5.571c-0.067,-2.354 -0.266,-5.105 -0.443,-6.114c-0.178,-1.008 -0.324,-2.467 -0.325,-3.242l-0.001,-1.407l-2.064,-0.194c-1.135,-0.106 -3.791,-0.106 -5.902,0c-5.982,0.301 -7.601,-0.472 -8.246,-3.941c-0.257,-1.385 0.445,-6.036 1.104,-7.31c0.897,-1.735 3.43,-2.12 9.882,-1.504c3.599,0.343 3.616,0.335 3.469,-1.758c-0.157,-2.235 -0.522,-4.08 -1.209,-6.122l-0.55,-1.635l-4.286,0.205c-4.086,0.196 -4.326,0.175 -5.123,-0.452c-1.347,-1.06 -1.552,-1.762 -1.783,-6.112c-0.236,-4.442 -0.524,-6.23 -1.567,-9.737c-0.627,-2.106 -0.809,-2.372 -2.896,-4.24c-2.049,-1.834 -2.227,-2.089 -2.227,-3.194c0,-2.225 1.09,-3.592 3.159,-3.962c1.334,-0.237 3.914,-0.155 10.291,0.328z" data-paper-data="{&quot;wickUUID&quot;:&quot;e8eab433-3eab-40e3-b81d-aedd56078675&quot;,&quot;wickType&quot;:&quot;path&quot;}" id="e8eab433-3eab-40e3-b81d-aedd56078675" fill-rule="nonzero"/><path d="M220.59881,70.3941c-1.142,0.961 -1.886,4.083 -2.01,8.437c-0.087,3.059 -0.147,3.316 -1.28,5.455c-0.653,1.235 -1.749,2.865 -2.434,3.621c-1.204,1.33 -1.317,1.382 -3.386,1.54c-3.284,0.253 -4.432,1.114 -4.432,3.328c0,0.992 0.75,2.421 1.441,2.746c0.3,0.141 2.541,0.353 4.978,0.472c2.438,0.118 5.003,0.307 5.701,0.42c2.006,0.326 3.236,-0.425 4.167,-2.546c1.195,-2.719 1.386,-3.597 1.744,-8.005c0.185,-2.27 0.613,-5.598 0.951,-7.395c0.559,-2.969 0.573,-3.351 0.151,-4.167c-0.255,-0.493 -0.675,-0.978 -0.933,-1.077c-0.259,-0.099 -0.47,-0.539 -0.47,-0.978c0,-1.03 -1.535,-2.584 -2.552,-2.584c-0.42,0 -1.156,0.33 -1.636,0.733z" data-paper-data="{&quot;wickUUID&quot;:&quot;075858ae-6ced-4c31-8c56-19631c01737a&quot;,&quot;wickType&quot;:&quot;path&quot;}" id="075858ae-6ced-4c31-8c56-19631c01737a" fill-rule="evenodd"/><path d="M245.21849,18.58651c1.13918,-0.24714 2.5531,-0.43388 3.14085,-0.41558c2.07397,0.06775 10.80892,1.89524 12.86372,2.69282c1.74949,0.67787 2.16334,0.98023 2.59896,1.89401c0.72568,1.52329 0.5256,6.31311 -0.35805,8.58554c-0.34829,0.89537 -0.77319,2.72337 -0.94467,4.06243c-0.17148,1.33906 -0.48698,3.25666 -0.70073,4.26269c-0.35513,1.66575 -0.83161,22.16657 -0.69817,29.97575l0.04253,2.48088l4.4754,0.37324c4.61399,0.38598 6.07608,0.72868 9.82124,2.30277c3.69894,1.55417 4.38367,1.91376 4.97837,2.61093c1.40138,1.64131 1.84277,7.59463 0.94227,12.7188c-0.60075,3.4181 -1.09466,4.32546 -2.86608,5.26707c-0.97424,0.51819 -1.27144,0.51691 -5.67637,-0.01155c-2.55646,-0.30789 -8.1802,-0.79368 -12.49604,-1.08025c-10.11293,-0.67043 -9.28645,-0.03574 -9.1734,-7.05306c0.03178,-1.96863 -0.01462,-4.21629 -0.10839,-5.86721c0.329,-3.82901 -0.30937,-12.19314 -1.31167,-15.06488c-0.5601,-1.60651 -2.21826,-8.50992 -3.15652,-13.14565c-0.24612,-1.2122 -0.60492,-2.60422 -0.7979,-3.09261c-0.88268,-2.22837 -2.65149,-9.09432 -2.60889,-10.12444c0.02603,-0.62946 -0.40569,-2.3878 -0.96031,-3.90902c-0.55366,-1.52018 -1.07896,-3.82285 -1.16562,-5.11553c-0.09638,-1.43091 -0.47773,-2.72902 -1.17671,-3.99945c0.76562,-4.11133 1.63056,-6.53633 2.62525,-7.36487c0.35239,-0.29269 1.57274,-0.73565 2.71093,-0.98283zM251.95124,27.03292c-3.32286,-0.77396 -6.55302,-1.17578 -6.77905,-0.84083c-0.54798,0.81105 -0.68253,2.83022 -0.23693,3.57527c0.25554,0.42792 0.44476,1.27346 0.41968,1.87994c-0.02979,0.72038 0.24744,1.56756 0.80436,2.45233c0.80945,1.28855 1.06892,2.20205 2.0208,7.1376c0.22913,1.18748 0.63284,2.99371 0.89789,4.01453c0.28226,1.08859 0.49876,3.40451 0.52305,5.60039c0.04592,4.14143 0.64432,7.65316 2.35939,13.85832c0.60257,2.17676 1.12967,4.09718 1.17269,4.2671c0.04302,0.16992 0.15178,0.10536 0.24212,-0.14312c0.09034,-0.24848 0.34099,-0.93671 0.55762,-1.52826c0.25165,-0.68819 0.50812,-3.84029 0.71079,-8.7411c0.27762,-6.71326 0.24591,-8.2699 -0.25336,-12.53317c-0.67788,-5.77694 -0.74499,-12.18919 -0.16429,-15.55807c0.23043,-1.33662 0.32022,-2.53994 0.19862,-2.67308c-0.1206,-0.1331 -1.23328,-0.47836 -2.47338,-0.76785zM260.63375,77.15247c-4.46437,-0.10756 -5.19697,-0.05978 -5.09631,0.33772c0.2806,1.10454 0.55832,4.7231 0.61442,8.01323l0.06222,3.5536l6.90017,0.50154c3.79588,0.27508 8.25976,0.68487 9.91985,0.91066c1.66113,0.22483 3.05405,0.37651 3.09567,0.3382c0.04166,-0.03931 0.26276,-1.10208 0.49096,-2.36073c0.35396,-1.95204 0.34881,-7.515 -0.007,-7.76892c-0.81951,-0.58536 -6.72063,-2.66497 -8.45214,-2.97878c-1.27351,-0.23182 -4.66126,-0.47702 -7.52784,-0.54652z" data-paper-data="{&quot;wickUUID&quot;:&quot;c642283c-c27f-418f-9261-7eddf7acf238&quot;,&quot;wickType&quot;:&quot;path&quot;}" id="c642283c-c27f-418f-9261-7eddf7acf238" fill-rule="nonzero"/><path d="M270.5903,33.73206c-3.43993,0.45664 -4.36636,2.32814 -4.26583,8.61526c0.07305,4.57024 0.52483,5.22033 4.2126,6.06967l2.13074,0.49008l-0.43734,3.23719c-0.61012,4.5159 -0.59363,4.48907 -2.50964,4.2447c-2.36017,-0.3006 -4.89201,0.03643 -5.71156,0.75993c-1.47832,1.30641 -2.24298,7.47691 -1.26264,10.1981c0.73313,2.03718 1.62014,2.66567 3.51365,2.4876c0.77035,-0.07272 2.11147,-0.04081 2.98068,0.06989c0.8691,0.11149 2.42922,0.2066 3.46664,0.21157c2.38917,0.01169 7.31487,1.0372 9.66461,2.01233c3.07715,1.27737 4.12835,0.5768 5.38837,-3.594c0.39372,-1.30237 0.98272,-2.85848 1.30915,-3.45925c1.12983,-2.07737 0.2994,-3.20081 -3.12641,-4.22964c-1.0483,-0.31535 -2.57408,-0.82366 -3.38972,-1.12965l-1.48371,-0.55753l0.65855,-4.15452c0.36221,-2.28418 0.69221,-4.18308 0.73317,-4.21793c0.04096,-0.03485 0.58504,0.19688 1.20938,0.51598c1.31818,0.67331 2.80531,0.92802 3.6247,0.6215c1.28053,-0.47952 1.75236,-1.64237 2.28683,-5.63524c0.73132,-5.46355 0.28361,-7.24072 -2.0538,-8.15128c-7.87245,-3.06621 -8.59172,-3.29073 -12.47409,-3.88542c-2.13791,-0.32811 -4.14654,-0.5615 -4.46433,-0.51934zM281.36202,40.0433c1.77515,0.70624 3.53463,1.36684 3.90998,1.46709c0.8244,0.22247 0.92529,0.95706 0.55727,4.06802l-0.25696,2.16679l-0.73681,-0.31641c-0.40506,-0.17359 -1.656,-0.43944 -2.77961,-0.58984c-2.98177,-0.39913 -3.13386,-0.20897 -3.79561,4.73477c-0.28246,2.11014 -0.81672,5.10126 -1.18727,6.64629c-0.78557,3.27769 -0.76786,4.27216 0.09019,5.01454c0.53561,0.46369 0.83846,0.52119 2.11721,0.4044c1.19152,-0.10991 1.8724,-0.00829 3.38862,0.5052l1.89737,0.64275l-0.16655,0.9069c-0.09171,0.4983 -0.29652,1.29925 -0.45441,1.77981l-0.28785,0.87293l-1.68776,-0.59373c-2.15232,-0.75673 -7.63189,-1.57328 -12.14935,-1.81016c-1.93431,-0.10164 -3.56605,-0.2402 -3.62545,-0.30864c-0.0603,-0.06776 -0.0131,-1.25197 0.10542,-2.63151l0.21382,-2.5073l0.7861,-0.18434c0.43215,-0.10105 1.8907,-0.0365 3.24173,0.14435c3.21315,0.4301 3.59892,0.21154 4.4783,-2.53173c0.79166,-2.47351 1.62729,-8.28848 1.47298,-10.25706c-0.14298,-1.82429 -0.71056,-2.37454 -2.73063,-2.64897c-0.84606,-0.11487 -1.98168,-0.34429 -2.52405,-0.51046c-0.98169,-0.30079 -0.98617,-0.30946 -1.04477,-2.24586c-0.07867,-2.56984 0.18076,-4.4056 0.64273,-4.54864c0.20353,-0.06229 1.92816,0.1476 3.83331,0.46714c2.64127,0.44227 4.23058,0.88569 6.69205,1.86367z" data-paper-data="{&quot;wickUUID&quot;:&quot;3213610a-b016-4710-be7b-1f2daae610de&quot;,&quot;wickType&quot;:&quot;path&quot;}" id="3213610a-b016-4710-be7b-1f2daae610de" fill-rule="evenodd"/><path d="M279.17809,17.55466c5.37,-0.486 14.613,-0.401 18.572,0.172c7.185,1.038 14.612,3.393 16.27,5.157c1.166,1.242 2.235,5.586 1.897,7.705c-0.249,1.553 -1.706,4.662 -2.381,5.079c-0.686,0.424 -6.549,1.163 -9.331,1.177l-2.546,0.012v1.214c0,0.667 0.4,2.287 0.889,3.6c1.102,2.959 1.92,7.304 1.92,10.207c0,1.211 0.54,4.846 1.2,8.079c0.66,3.233 1.453,8.487 1.763,11.674c0.311,3.188 0.811,7.298 1.113,9.133c0.301,1.835 0.638,5.031 0.747,7.102l0.199,3.765l-1.415,1.416c-1.381,1.38 -1.477,1.416 -3.842,1.416c-1.335,0 -3.337,0.237 -4.45,0.527c-2.907,0.757 -6.266,0.697 -7.289,-0.131c-0.899,-0.728 -1.099,-1.821 -1.744,-9.529c-0.531,-6.349 -0.978,-11.161 -1.224,-13.172c-0.155,-1.267 -0.006,-2.49 0.537,-4.39c1.842,-6.456 1.801,-5.767 0.425,-7.143c-1.498,-1.498 -1.883,-3.844 -0.985,-5.995c0.338,-0.808 0.565,-2.355 0.567,-3.853c0.002,-1.489 0.285,-3.429 0.7,-4.787c0.383,-1.256 0.698,-3.266 0.7,-4.466c0.002,-1.943 -0.118,-2.32 -1.088,-3.425c-0.599,-0.683 -1.295,-1.242 -1.544,-1.242c-0.25,0 -1.429,-0.483 -2.619,-1.074c-1.191,-0.59 -3.583,-1.383 -5.316,-1.761c-1.732,-0.378 -3.817,-0.92 -4.633,-1.204c-0.815,-0.284 -2.166,-0.519 -3.002,-0.522c-1.905,-0.006 -3.573,-1.459 -3.573,-3.113c0,-0.579 -0.18,-1.832 -0.4,-2.783c-0.228,-0.989 -0.293,-2.435 -0.152,-3.379c0.21,-1.394 0.467,-1.808 1.666,-2.676c2.091,-1.515 5.001,-2.485 8.369,-2.79zM300.07809,23.10266c-2.477,-0.477 -5.532,-0.717 -10.362,-0.812c-7.752,-0.152 -12.127,0.17 -14.333,1.055c-1.302,0.522 -1.497,0.733 -1.405,1.526c0.105,0.905 0.165,0.924 3.444,1.125c1.835,0.112 3.761,0.38 4.278,0.596c0.518,0.216 2.48,1.451 4.361,2.744c3.29,2.262 3.528,2.363 6.26,2.659c3.174,0.345 11.17,0.112 15.542,-0.453c2.556,-0.33 2.89,-0.458 3.072,-1.182c0.218,-0.867 -0.057,-2.799 -0.531,-3.729c-0.392,-0.772 -6.046,-2.703 -10.326,-3.529zM296.63609,39.49166c-0.091,-0.387 -0.183,0.661 -0.205,2.328c-0.026,1.905 -0.251,3.533 -0.607,4.383c-0.31,0.745 -0.682,3.016 -0.825,5.049c-0.144,2.032 -0.463,4.12 -0.711,4.64c-0.421,0.882 -0.368,1.024 0.796,2.121c2.063,1.946 2.033,3.857 -0.167,10.739c-0.426,1.335 -0.607,2.519 -0.455,2.985c0.138,0.425 0.388,2.59 0.555,4.812c0.99,13.177 1.099,14.05 1.748,14.05c0.161,0 1.203,-0.237 2.316,-0.527c1.112,-0.289 2.802,-0.527 3.754,-0.527h1.731l-0.239,-2.722c-0.131,-1.497 -0.465,-4.066 -0.743,-5.708c-0.277,-1.642 -0.754,-5.672 -1.06,-8.957c-0.306,-3.284 -1.03,-8.105 -1.609,-10.713c-0.578,-2.608 -1.199,-6.639 -1.379,-8.957c-0.383,-4.942 -0.68,-6.512 -1.862,-9.835c-0.48,-1.352 -0.948,-2.775 -1.038,-3.161z" data-paper-data="{&quot;wickUUID&quot;:&quot;dc533625-4af3-484d-8900-cb35b6d0c44c&quot;,&quot;wickType&quot;:&quot;path&quot;}" fill-rule="nonzero"/><path d="M294.69458,35.56284c-1.423,1.515 -0.77,6.002 1.075,7.38c1.138,0.849 2.488,0.579 3.301,-0.663c0.488,-0.744 0.517,-1.107 0.18,-2.23c-0.221,-0.739 -0.402,-1.845 -0.402,-2.459c0,-1.347 -1.345,-2.841 -2.557,-2.841c-0.458,0 -1.177,0.365 -1.597,0.813z" data-paper-data="{&quot;wickUUID&quot;:&quot;ddc25075-3341-4c5d-b407-a701ca1c49a9&quot;,&quot;wickType&quot;:&quot;path&quot;}" fill-rule="evenodd"/><path d="M331.11691,46.96213c2.923,0.38 3.209,0.785 3.209,4.562c0,4.771 -0.832,5.686 -5.181,5.698l-2.898,0.008v23.795l1.317,0.203c0.724,0.112 3.056,0.39 5.181,0.617c3.429,0.367 3.958,0.516 4.702,1.322c0.804,0.871 0.829,1.051 0.609,4.401c-0.384,5.863 -1.79,7.101 -6.801,5.993c-1.83,-0.405 -4.63,-0.631 -8.525,-0.689c-6.442,-0.096 -7.7,-0.401 -9.789,-2.379c-1.797,-1.701 -3.203,-4.082 -3.203,-5.423c0,-1.18 1.261,-2.901 2.126,-2.901c0.466,0 0.304,-23.624 -0.169,-24.676c-0.163,-0.363 -0.66,-0.615 -1.214,-0.615c-1.958,0 -3.553,-2.029 -3.553,-4.519c0,-1.798 1.138,-4.446 2.142,-4.983c0.431,-0.231 2.299,-0.544 4.151,-0.695c3.864,-0.316 14.589,-0.147 17.896,0.281z" data-paper-data="{&quot;wickUUID&quot;:&quot;8c17eb83-faf5-4e36-92dd-9d423671dc7d&quot;,&quot;wickType&quot;:&quot;path&quot;}" fill-rule="evenodd"/><path d="M351.88247,49.59952c-4.988,-0.212 -11.343,0.365 -12.523,1.138c-0.437,0.287 -1.202,0.521 -1.701,0.521c-1.209,0 -2.631,-1.465 -2.631,-2.71c0,-0.96 -0.081,-1.002 -3.249,-1.651c-1.787,-0.366 -5.336,-0.76 -7.887,-0.875c-3.042,-0.137 -4.791,-0.363 -5.084,-0.657c-0.55888,-0.56017 -0.95117,-5.07866 -0.95672,-8.65685l2.50454,0.08285c0.79999,0.02643 1.59346,0.03277 2.37918,0.01912v0.60688c0,3.668 -0.011,3.654 2.931,3.654c2.209,0 6.756,0.759 10.914,1.82c0.757,0.193 1.828,0.804 2.381,1.357l1.006,1.005l2.887,-0.332c1.588,-0.182 4.926,-0.333 7.417,-0.334l4.529,-0.003l-0.224,-2.371c-0.09448,-1.00164 -0.17657,-2.26467 -0.21001,-3.17361c2.79056,0.91773 2.87183,1.07134 2.87183,2.63061c0,0.932 -0.32,2.437 -0.711,3.343c-0.391,0.907 -0.973,2.357 -1.293,3.224c-0.24449,0.66354 -0.54391,1.11983 -0.95955,1.4253c-0.67507,0.00039 -1.46343,-0.02373 -2.39127,-0.0633z" data-paper-data="{&quot;wickUUID&quot;:&quot;72f879c8-430b-463e-83ba-dabecdb93711&quot;,&quot;wickType&quot;:&quot;path&quot;}" fill-rule="nonzero"/><path d="M340.97359,48.3203c0.89,1.131 0.98,4.136 0.232,7.745c-0.683,3.293 -1.014,11.546 -0.621,15.511c0.475,4.797 0.403,4.75 7.537,4.984c6.153,0.202 7.437,0.529 8.23,2.096c0.566,1.12 0.546,4.02 -0.051,7.36c-0.39,2.18 -0.652,2.782 -1.568,3.6c-0.983,0.879 -1.361,0.983 -3.573,0.983c-1.36,0 -3.136,0.145 -3.946,0.322c-5.676,1.242 -5.427,1.219 -6.367,0.603c-1.074,-0.703 -1.516,-2.179 -0.933,-3.113c0.233,-0.372 0.512,-1.43 0.621,-2.352c0.172,-1.452 0.087,-1.782 -0.634,-2.463c-1.474,-1.392 -3.326,-2.13 -5.343,-2.13c-2.242,0 -4.227,-0.742 -4.954,-1.852c-0.387,-0.59 -0.577,-2.418 -0.74,-7.111c-0.121,-3.474 -0.443,-7.238 -0.716,-8.365c-0.691,-2.852 -0.637,-3.309 0.531,-4.477c0.877,-0.877 1.299,-1.027 2.898,-1.028c3.68,-0.002 4.664,-1.328 5.085,-6.848c0.163,-2.133 0.387,-3 0.932,-3.6c0.99,-1.09 2.463,-1.031 3.38,0.135z" data-paper-data="{&quot;wickUUID&quot;:&quot;cb5f7da2-ba7d-4507-b1e4-8b057183d2a5&quot;,&quot;wickType&quot;:&quot;path&quot;}" fill-rule="evenodd"/><path d="M341.35746,57.84468c-0.672,0.338 -1.596,1.168 -2.054,1.844c-0.719,1.063 -0.808,1.528 -0.66,3.447c0.154,1.993 0.086,2.304 -0.668,3.058c-1.042,1.041 -1.062,1.899 -0.076,3.153l0.765,0.972l3.863,-0.245c5.915,-0.374 6.904,-1.157 6.898,-5.458c-0.004,-3.262 -1.101,-5.977 -2.762,-6.836c-1.404,-0.727 -3.788,-0.697 -5.306,0.065z" data-paper-data="{&quot;wickUUID&quot;:&quot;57e110e3-cdc5-4045-958c-7958a55facf3&quot;,&quot;wickType&quot;:&quot;path&quot;}" fill-rule="evenodd"/><path d="M328.00247,30.19683c-5.343,0.541 -8.318,1.669 -9.496,3.601c-1.019,1.671 -0.995,6.792 0.038,8.105c1.373,1.745 4.19,0.64 4.19,-1.644c0,-0.852 0.124,-0.943 1.289,-0.943c0.709,0 1.57,-0.254 1.913,-0.564c1.203,-1.089 5.085,-1.525 10.375,-1.164c10.217,0.696 16.299,1.355 16.906,1.831c0.358,0.281 0.312,0.505 -0.223,1.091c-0.371,0.406 -0.777,1.076 -0.902,1.49c-0.246,0.812 -1.128,1.167 -2.919,1.175c-0.624,0.003 -1.731,0.228 -2.459,0.502c-0.729,0.273 -1.798,0.602 -2.377,0.73c-0.578,0.129 -1.724,0.785 -2.546,1.459c-1.78,1.458 -1.976,2.711 -0.622,3.982c0.87,0.818 0.887,0.819 7.572,0.586c4.84,-0.168 6.979,-0.377 7.703,-0.751c1.351,-0.699 1.999,-2.874 2.273,-7.632c0.247,-4.3 -0.147,-5.793 -1.795,-6.803c-0.547,-0.336 -1.548,-0.958 -2.224,-1.383c-1.715,-1.077 -2.845,-1.424 -6.674,-2.049c-3.749,-0.611 -16.049,-2.028 -16.86,-1.942c-0.29,0.031 -1.713,0.176 -3.162,0.323z" data-paper-data="{&quot;wickUUID&quot;:&quot;40988c2a-a05b-4745-9364-ee28d667b04b&quot;,&quot;wickType&quot;:&quot;path&quot;}" fill-rule="evenodd"/><path d="M375.42217,18.04592c-1.835,0.266 -4.443,0.741 -5.796,1.056c-2.54,0.592 -10.389,4.03 -11.541,5.056c-0.963,0.857 -2.333,3.742 -2.333,4.912c0,1.429 1.22,2.869 2.432,2.869c0.792,0 1.182,0.334 2.077,1.772l1.101,1.772l-0.341,4.176c-0.187,2.297 -0.668,5.367 -1.067,6.822c-1.06,3.865 -0.805,4.728 2.075,7.02c1.281,1.02 3.005,2.196 3.831,2.615c2.341,1.186 5.045,3.453 6.489,5.439c1.069,1.472 1.317,2.117 1.317,3.431c0,1.811 -0.475,2.429 -2.528,3.286c-2.746,1.148 -4.247,1.266 -8.594,0.679c-2.287,-0.31 -4.711,-0.63 -5.387,-0.713c-1.756,-0.214 -3.406,0.889 -3.704,2.475c-0.437,2.328 1.239,5.133 3.066,5.133c0.37,0 1.118,0.23 1.662,0.512c1.11,0.574 1.435,1.624 1.435,4.643c0,3.313 1.698,5.383 4.415,5.383c4.56,0 16.054,-4.427 19.328,-7.445c1.928,-1.777 2.523,-3.104 3.16,-7.046c0.289,-1.786 0.85,-4.512 1.247,-6.058c0.956,-3.723 0.725,-5.468 -1.269,-9.592c-1.561,-3.229 -3.322,-5.59 -7.252,-9.727c-4.072,-4.285 -4.627,-5.985 -2.784,-8.529c1.82,-2.512 5.304,-3.94 9.613,-3.94c3.485,0 4.453,-1.546 4.45,-7.102c-0.001,-1.986 -0.158,-4.172 -0.348,-4.856c-0.416,-1.5 -2.182,-3.248 -3.865,-3.825c-1.888,-0.648 -7.183,-0.754 -10.889,-0.218zM384.90417,23.15692c0.613,0.328 0.704,0.734 0.704,3.126v2.749l-2.234,0.229c-4.289,0.44 -7.026,1.753 -9.758,4.683c-2.131,2.284 -2.797,3.635 -3.023,6.13c-0.163,1.8 -0.053,2.317 0.909,4.246c0.602,1.208 1.928,3.069 2.947,4.135c3.796,3.975 6.341,7.266 7.48,9.675c1.62,3.422 1.702,3.942 1.034,6.508c-0.323,1.238 -0.872,3.884 -1.22,5.881c-0.727,4.167 -1.171,4.839 -4.213,6.37c-3.586,1.805 -11.339,4.577 -12.799,4.577c-0.053,0 -0.185,-1.167 -0.293,-2.593c-0.107,-1.427 -0.435,-3.056 -0.727,-3.621l-0.531,-1.027l2.872,0.007c4.845,0.013 10.466,-2.388 11.824,-5.05c0.865,-1.697 0.967,-5.732 0.192,-7.589c-1.458,-3.489 -6.087,-8.02 -10.374,-10.154c-1.667,-0.83 -3.161,-2.28 -3.161,-3.068c0,-0.356 0.231,-1.2 0.513,-1.876c0.283,-0.676 0.693,-3.577 0.913,-6.447c0.461,-6.023 0.322,-6.584 -2.569,-10.387l-1.599,-2.102l1.857,-0.783c1.022,-0.431 2.406,-1.107 3.076,-1.503c3.357,-1.98 15.74,-3.422 18.18,-2.116z" data-paper-data="{&quot;wickUUID&quot;:&quot;c9daee85-4c03-4186-bc6c-ef6577a0f9b6&quot;,&quot;wickType&quot;:&quot;path&quot;}" fill-rule="evenodd"/><path d="M182.28535,223.12331c-0.28133,0.733 0.46597,11.67561 1.0383,15.20294c0.69067,4.25967 3.76794,19.28342 4.16194,20.31942c0.19867,0.52233 1.48843,1.60767 2.01176,1.739c1.48033,0.37167 17.99839,-0.09335 19.20239,-0.53968c1.28267,-0.47533 1.59338,-3.03438 0.50738,-3.79471c-0.615,-0.431 -2.14109,-0.56047 -8.12676,-0.56047c-7.89367,0 -8.5439,0.05339 -9.31323,-1.43428c-1.02167,-1.97533 -0.38206,-4.94269 1.10627,-6.25169c0.74167,-0.65233 3.21511,-1.2085 5.75944,-1.5095c2.51667,-0.29767 3.42602,-1.86419 3.42602,-3.23719c0,-1.59133 -1.18361,-2.23909 -6.11094,-2.60276c-2.289,-0.169 -4.09232,-0.2694 -4.41499,-0.44207c-0.65133,-0.34867 -0.54354,-0.4065 -1.01054,-4.05883c-0.49633,-3.88 -0.75352,-3.52504 0.43948,-4.82404c1.31833,-1.43533 1.91723,-1.50062 8.09223,-1.96662c6.29067,-0.47467 6.50605,-0.58823 6.37938,-1.9009c-0.083,-0.85733 -0.66743,-2.71262 -1.6441,-3.19029c-1.20167,-0.58733 -1.88505,-0.66898 -14.03072,-1.59665c-2.475,-0.189 -4.97969,-0.42962 -5.48402,-0.52962c-0.64167,-0.127 -1.85129,0.81794 -1.98929,1.17794z" data-paper-data="{&quot;wickUUID&quot;:&quot;a8b72968-ffa9-411b-a9cd-3cc9d508c7a6&quot;,&quot;wickType&quot;:&quot;path&quot;}" id="36a7c2f8-c6ce-4740-8f1c-cadc7b212ef3" fill-rule="evenodd"/><path d="M252.15101,230.2685c-0.9767,0.12933 -2.36204,0.60418 -2.67665,0.83912c-0.31461,0.23524 -1.37124,2.06031 -2.23211,3.91284c-2.9014,6.24429 -4.00101,7.89885 -5.47649,7.89678c-0.46931,-0.0006 -1.73717,-0.81155 -3.60005,-1.78038l-3.42727,-1.76932l-1.06479,0.89369c-1.2407,2.0139 -2.61206,3.94151 -3.18728,4.10585c-1.66383,0.47492 -2.95181,-0.18348 -7.168,-3.29109c-4.29394,-3.16486 -6.97207,-4.63111 -8.18747,-4.52581c-0.95113,0.08217 -1.74698,0.45083 -2.62298,2.05863l-1.02514,2.67335l5.34379,5.96286c5.16159,5.73436 8.7443,9.37662 10.66301,10.84766c0.96444,0.73952 1.4543,0.89076 3.04091,0.46983c0.8867,-0.23524 2.20096,-0.815 2.38122,-0.98498c0.18026,-0.17028 0.75217,-1.6731 1.20896,-3.25182c1.08235,-3.73916 0.93019,-3.88248 2.85959,-3.88248c2.16079,0 3.70119,0.94167 6.78834,3.83808c1.48227,1.39066 3.09411,1.86645 5.33238,1.56862l2.30528,-0.47359l1.13316,-3.57895c0.96862,-3.19809 1.20215,-4.38088 2.77677,-14.00332c1.20626,-7.37063 1.15341,-7.38626 0.16679,-7.33998c-0.4573,0.02165 -2.35527,-0.31463 -3.33197,-0.18559z" data-paper-data="{&quot;wickUUID&quot;:&quot;ed1a91b8-07db-4c41-9d7d-c68036562b96&quot;,&quot;wickType&quot;:&quot;path&quot;}" id="f0f2ed50-84b7-4bfc-885e-d3493cfd5d90" fill-rule="evenodd"/><path d="M142.5952,222.17551c-2.49333,0.158 -5.15272,0.47866 -5.64772,0.66699c-0.88867,0.338 -0.9981,1.93509 -0.4051,2.73209c1.265,1.70067 2.40697,2.04357 7.67464,2.25124c4.922,0.19433 4.87623,0.18103 5.8779,1.18236l0.42253,0.34274l1.47716,12.75724c0.817,7.04933 1.48495,13.48824 1.48695,14.50157c0.00567,2.44933 -0.16997,2.53798 -2.5403,3.18398c-3.00633,0.81967 -8.44291,3.72469 -8.44291,4.11169c0,0.65133 6.54679,0.69699 9.42012,-0.28168c2.58533,-0.88067 2.89862,-0.90949 11.40095,-1.03582l8.91652,-0.15165l0.08315,-3.40249c-0.34,-2.89833 -1.05342,-3.20566 -5.69709,-2.33533c-2.517,0.47167 -2.39354,0.79274 -3.09621,0.33241c-1.03967,-0.681 -1.52747,-2.4553 -2.3428,-7.89397c-0.371,-2.475 -1.11385,-6.60979 -1.66652,-9.26812c-0.68533,-3.298 -0.99524,-5.67653 -0.99724,-7.74086c-0.00233,-2.79033 -0.27466,-2.39485 0.48701,-3.11052c0.802,-0.753 0.44242,-0.59646 4.41409,-0.38279c2.25,0.12133 4.59222,0.30585 5.09622,0.41752c0.88067,0.195 1.61783,-0.97775 1.61783,-2.25275c0,-1.609 -1.44151,-3.40004 -3.14918,-4.18104c-1.03267,-0.472 -2.87372,-0.60987 -10.63772,-0.66554c-5.04167,-0.036 -11.25861,0.06473 -13.75228,0.22273z" data-paper-data="{&quot;wickUUID&quot;:&quot;9e81b511-660c-4e1b-a0cb-1a24d2d10f2d&quot;,&quot;wickType&quot;:&quot;path&quot;}" id="617af08b-40c9-4f39-b7e6-bf54099dc625" fill-rule="evenodd"/><path d="M131.59838,237.02612c-0.73333,0.264 -1.83318,0.82244 -1.87118,0.82511c-0.29633,0.02133 -1.8928,3.38938 -2.49847,5.28438c-0.92967,2.90967 -3.2864,7.88111 -4.37673,9.20978c-0.751,0.915 -0.25684,0.63527 -2.03817,0.5986c-1.35833,-0.028 -2.74442,-0.38324 -5.03309,-1.24491c-1.804,-0.67933 -4.3801,-0.1466 -4.44243,-0.08427c-0.06233,0.062 2.03632,2.19207 4.36099,4.23407c2.32467,2.042 5.73545,5.13889 7.58112,6.88289l3.55208,3.30614l2.02743,-1.52495c2.60633,-3.26633 6.62927,-14.09709 8.2626,-22.24342c0.37433,-1.86867 0.62683,-4.20274 0.62683,-4.35774c0,-0.32233 -2.84202,-1.42764 -3.83902,-1.40864c-0.36667,0.00733 -1.57863,0.25863 -2.31196,0.52296z" data-paper-data="{&quot;wickUUID&quot;:&quot;64f8509c-046d-41a9-9d19-c469a5fafa4c&quot;,&quot;wickType&quot;:&quot;path&quot;}" id="f0f308c0-0ed8-4c90-8518-f96e7fdce565" fill-rule="evenodd"/><path d="M55.69598,222.12817c-0.88967,0.15167 -1.74637,1.76971 -1.25204,1.80138c2.301,0.147 5.89627,2.53767 6.7046,4.68534c1.08767,2.88933 -0.50365,6.08827 -3.71498,7.64294c-1.755,0.84967 -13.80508,4.25064 -15.02408,4.25064c-0.49133,0 -0.20479,0.29082 -0.50279,0.17682c-0.941,-0.36133 -1.73727,-2.3988 -2.24327,-5.75513c-0.62767,-4.16267 -0.71926,-5.51188 -0.07593,-6.43055c0.66667,-0.95167 2.82123,-2.13228 5.8349,-3.32161c2.86533,-1.13067 1.80473,-2.52617 -3.65394,-1.6835c-4.61167,0.712 -7.294,1.78668 -10.037,3.44901c-2.82,1.70933 -2.93657,2.00368 -0.94257,14.07568c0.37867,2.29167 0.99964,7.02992 1.36597,10.38225c1.005,9.19033 3.80958,24.85322 5.00091,27.93622c0.363,0.93967 1.21226,1.59855 3.07526,1.41755c1.04933,-0.10167 2.88774,-0.37573 3.86874,-0.59306l2.42933,-0.92896l-0.16147,-4.08175c-0.11833,-2.04333 -0.53043,-7.15688 -0.91643,-11.37355c-0.386,-4.21667 -0.72577,-10.28697 -0.74444,-13.71797c-0.04133,-7.629 -0.46765,-6.90931 3.81568,-7.36764c1.54533,-0.165 5.15679,-0.67823 8.45679,-1.32256c5.75233,-1.123 13.83394,-2.59017 14.36661,-2.59017c0.46633,0 1.89311,-3.59061 1.89311,-5.01828c0,-0.977 -0.60686,-2.84555 -1.63419,-5.01388c-1.63333,-3.44833 -3.04769,-4.79541 -5.92802,-5.88974c-1.889,-0.718 -7.52142,-1.14815 -9.98075,-0.72948z" data-paper-data="{&quot;wickUUID&quot;:&quot;db4e6d56-e3a4-4613-9876-185817ef3c5b&quot;,&quot;wickType&quot;:&quot;path&quot;}" id="c90e7c9d-f2d0-45bf-baef-41f159b8c81c" fill-rule="evenodd"/><path d="M54.95354,217.64198c-0.959,0.113 -5.535,0.612 -10.169,1.11c-9.437,1.013 -13.572,2.536 -18.007,6.63c-2.598,2.398 -2.839,3.647 -1.458,7.559c0.479,1.358 0.871,3.598 0.871,4.976c0,1.378 0.378,4.156 0.84,6.173c0.462,2.017 0.993,6.021 1.181,8.897c0.359,5.507 0.552,6.721 2.903,18.224c0.807,3.951 1.468,7.838 1.468,8.638c0,2.155 3.747,5.387 6.245,5.387c3.311,0 9.847,-1.746 10.903,-2.912c1.12,-1.238 1.046,-5.948 -0.33,-20.911c-0.397,-4.315 -0.748,-9.264 -0.78,-10.999l-0.059,-3.155l4.068,-0.789c2.237,-0.433 7.681,-1.414 12.097,-2.179c4.417,-0.766 8.688,-1.823 9.491,-2.349c1.566,-1.026 3.021,-3.953 3.533,-7.108c0.419,-2.586 -2.137,-9.103 -4.784,-12.195c-1.273,-1.487 -3.107,-2.762 -5.065,-3.521c-2.987,-1.157 -9.426,-1.891 -12.948,-1.476zM65.16554,223.36798c1.382,0.488 3.022,1.338 3.643,1.889c1.417,1.256 3.867,6.67 3.867,8.545c0,1.488 -1.111,4.363 -1.691,4.375c-1.194,0.025 -17.564,2.973 -19.223,3.462c-1.117,0.329 -2.994,0.599 -4.171,0.599c-3.757,0 -4.18,0.971 -3.782,8.692c0.19,3.688 0.672,9.844 1.071,13.679c0.399,3.835 0.737,8.672 0.751,10.749l0.026,3.777l-3.487,0.694c-2.702,0.538 -3.632,0.538 -4.137,0c-0.902,-0.962 -4.732,-21.692 -5.118,-27.702c-0.174,-2.71 -0.7,-7.025 -1.168,-9.587c-2.039,-11.157 -2.201,-13.294 -1.074,-14.138c4.196,-3.146 5.976,-3.716 14.849,-4.761c11.258,-1.326 16.454,-1.398 19.644,-0.273z" data-paper-data="{&quot;wickUUID&quot;:&quot;1985a932-003b-4848-9c03-f2054af6ecf9&quot;,&quot;wickType&quot;:&quot;path&quot;}" id="6bf2ab70-db0a-473e-859e-f72a90f5e820" fill-rule="evenodd"/><path d="M48.26005,223.66461c-2.849,0.677 -7.629,2.783 -8.874,3.909c-0.888,0.804 -0.988,1.546 -0.678,5.043c0.712,8.048 1.785,9.484 6.106,8.172c1.422,-0.431 5.07,-1.458 8.106,-2.282c4.299,-1.166 5.87,-1.882 7.105,-3.237c6.042,-6.626 -1.482,-14.047 -11.765,-11.605zM54.97205,228.55261c2.09,0.874 2.696,2.576 1.289,3.625c-0.724,0.54 -8.978,2.914 -11.186,3.218c-0.982,0.135 -1.19,-0.222 -1.341,-2.311c-0.197,-2.734 0.056,-2.936 5.699,-4.548c3.376,-0.964 3.19,-0.965 5.539,0.016z" data-paper-data="{&quot;wickUUID&quot;:&quot;9b79658f-356d-4e68-960e-8d23afa33097&quot;,&quot;wickType&quot;:&quot;path&quot;}" id="869873f0-fd65-48ec-ab91-98e7bb82ffad" fill-rule="evenodd"/><path d="M60.88931,246.544c-1.849,0.423 -3.516,0.925 -3.706,1.114c-0.189,0.189 -0.436,6.994 -0.549,15.123c-0.175,12.539 -0.075,14.886 0.658,15.494c1.334,1.108 6.433,0.411 8.041,-1.099l1.335,-1.255l1.06,1.171c1.679,1.855 5.369,1.581 8.414,-0.624c2.452,-1.776 2.476,-1.829 2.223,-4.794c-0.141,-1.649 -0.938,-4.413 -1.771,-6.143l-1.515,-3.145l1.67,-1.56c0.919,-0.858 1.845,-2.256 2.058,-3.105c0.465,-1.851 -0.106,-5.247 -1.254,-7.468c-1.892,-3.658 -9.495,-5.35 -16.664,-3.709zM71.17531,256.209c0.65,0.631 -0.193,0.928 -3.874,1.366c-2.723,0.325 -2.76,0.307 -2.76,-1.324v-1.652l3.05,0.546c1.678,0.301 3.291,0.779 3.584,1.064z" data-paper-data="{&quot;wickUUID&quot;:&quot;798cfea7-063a-45fd-94b7-d18a472c6209&quot;,&quot;wickType&quot;:&quot;path&quot;}" id="2c2d0c95-628b-4b4e-8bd3-3c174b25f7dd" fill-rule="evenodd"/><path d="M52.77168,221.36936c-3.398,0.801 -7.861,3.287 -8.283,4.614c-0.46,1.45 0.603,2.89 2.134,2.89c0.612,0 2.204,-0.556 3.536,-1.236c1.332,-0.679 4.394,-1.539 6.804,-1.911c3.868,-0.596 4.405,-0.829 4.572,-1.992c0.303,-2.097 -0.897,-3.003 -3.892,-2.938c-1.479,0.032 -3.671,0.29 -4.871,0.573z" data-paper-data="{&quot;wickUUID&quot;:&quot;b3c7b320-5135-4093-a956-0a5c5fe988fd&quot;,&quot;wickType&quot;:&quot;path&quot;}" id="17d265d1-9203-4f52-8787-14081f52c4a6" fill-rule="evenodd"/><path d="M95.60513,232.33336c-7.695,1.221 -10.563,2.084 -12.389,3.729c-1.357,1.223 -1.369,1.332 -1.065,10.243c0.19,5.548 0.638,10.026 1.167,11.661c0.473,1.46 1.04,4.729 1.26,7.263c0.493,5.669 1.216,8.637 2.391,9.812c1.288,1.289 4.066,1.106 6.105,-0.401c1.512,-1.118 2.649,-1.33 8.126,-1.518c7.475,-0.256 7.672,-0.414 6.968,-5.605c-0.524,-3.865 -1.729,-5.241 -5.151,-5.883c-1.854,-0.348 -3.33,-0.11 -8.35,1.349c-1.054,0.306 -1.477,-0.629 -1.765,-3.895l-0.18,-2.034l2.891,-0.182c3.682,-0.232 4.373,-0.843 4.373,-3.866c0,-3.368 -1.235,-4.377 -5.359,-4.377c-3.55,0 -3.938,-0.37 -3.938,-3.752c0,-1.678 0.223,-1.958 1.815,-2.277c0.999,-0.199 4.549,-0.363 7.889,-0.363c5.938,0 6.112,-0.038 7.772,-1.698c1.848,-1.848 2.003,-2.701 1.089,-5.994c-1.026,-3.693 -2.652,-3.957 -13.649,-2.212z" data-paper-data="{&quot;wickUUID&quot;:&quot;4cbb7dbb-7059-4686-a401-f5cc2f94e751&quot;,&quot;wickType&quot;:&quot;path&quot;}" id="2ef82a3e-4662-4b13-ada7-722a6f23682e" fill-rule="evenodd"/><path d="M129.82441,232.99462c-2.658,0.77 -5.211,4.025 -6.545,8.343c-1.7,5.503 -2.828,7.469 -4.013,6.992c-5.329,-2.148 -9.461,-3.298 -10.718,-2.983c-1.618,0.407 -2.038,1.175 -2.752,5.026c-0.267,1.438 -0.659,3.17 -0.872,3.848c-0.308,0.981 0.508,2.236 3.99,6.139c2.407,2.699 5.032,6.212 5.833,7.807c0.801,1.595 2.111,3.251 2.911,3.679c1.596,0.854 6.789,0.559 10.016,-0.569c4.234,-1.481 9.728,-11.509 12.406,-22.647c0.653,-2.717 1.443,-5.885 1.755,-7.04c1.655,-6.126 -0.947,-9.306 -7.508,-9.178c-1.471,0.029 -3.497,0.291 -4.503,0.583zM137.09941,237.90162c0.165,0.166 -0.297,2.974 -1.027,6.241c-1.599,7.153 -5.416,17.22 -7.441,19.627l-1.47,1.747l-5.017,-4.832c-2.76,-2.658 -6.414,-5.935 -8.12,-7.282c-3.577,-2.823 -3.224,-3.022 1.762,-0.996c4.21,1.71 6.345,1.833 7.576,0.435c1.384,-1.571 3.685,-6.482 4.717,-10.066c0.959,-3.331 2.127,-4.84 4.155,-5.37c1.239,-0.323 4.364,-0.004 4.865,0.496z" data-paper-data="{&quot;wickUUID&quot;:&quot;7d18b0ff-453e-4f87-beec-0447d96952ea&quot;,&quot;wickType&quot;:&quot;path&quot;}" id="b6204d62-954e-4c48-b425-21c14b7a6ba7" fill-rule="evenodd"/><path d="M118.59868,267.18827c-1.449,2.707 2.067,4.813 3.696,2.214c0.462,-0.738 0.462,-1.296 0,-2.034c-0.942,-1.501 -2.937,-1.599 -3.696,-0.18z" data-paper-data="{&quot;wickUUID&quot;:&quot;34c7ed4f-6eec-4dc0-add7-e4e6b9541305&quot;,&quot;wickType&quot;:&quot;path&quot;}" id="1e01b48f-35f2-4a57-b30a-6c8001beda6e" fill-rule="evenodd"/><path d="M142.07068,217.87598c-6.29,0.399 -10.489,2.081 -11.081,4.44c-0.503,2.004 1.536,6.055 3.992,7.928c1.671,1.275 2.636,1.508 6.856,1.654l4.912,0.171l1.085,10.169c1.596,14.95 1.841,13.336 -2.236,14.76c-4.95,1.731 -5.947,2.416 -7.261,4.992c-1.447,2.837 -1.48,4.768 -0.101,6.015c1.503,1.36 13.172,1.406 14.662,0.057c1.326,-1.199 9.237,-1.975 16.033,-1.571c5.148,0.305 5.367,0.267 6.827,-1.193c1.794,-1.794 2.022,-5.171 0.622,-9.187c-1.182,-3.388 -2.159,-3.995 -6.426,-3.995c-3.996,0 -4.304,-0.283 -4.316,-3.97c-0.004,-1.172 -0.658,-4.483 -1.453,-7.357c-1.769,-6.395 -1.892,-8.735 -0.428,-8.142c0.559,0.227 2.629,0.551 4.599,0.719c3.322,0.285 3.697,0.192 5.16,-1.271c1.43,-1.429 1.549,-1.868 1.261,-4.659c-0.431,-4.176 -1.699,-6.384 -4.632,-8.071c-2.31,-1.329 -3.109,-1.431 -12.635,-1.62c-5.592,-0.112 -12.54,-0.052 -15.44,0.131zM167.30968,223.49098c1.676,0.961 2.378,2.219 2.396,4.287c0.006,0.793 -0.377,0.865 -2.462,0.461c-1.358,-0.262 -3.833,-0.489 -5.5,-0.503c-2.525,-0.021 -3.142,0.184 -3.702,1.231c-0.802,1.498 -0.36,6.842 0.981,11.864c0.505,1.892 1.261,6.171 1.682,9.509c0.812,6.451 1.668,7.99 4.07,7.316c0.639,-0.18 2.299,-0.493 3.689,-0.696c2.864,-0.419 3.551,0.159 3.565,3l0.008,1.743l-8.57,0.068c-6.721,0.054 -9.135,0.291 -11.185,1.1c-3.047,1.203 -9.297,1.847 -9.297,0.959c0,-0.604 5.389,-2.827 8.235,-3.396c3.028,-0.606 3.513,-1.805 2.809,-6.939c-0.345,-2.516 -1.122,-9.02 -1.727,-14.453c-0.604,-5.433 -1.118,-9.925 -1.141,-9.982c-0.023,-0.057 -0.452,-0.515 -0.955,-1.017c-0.694,-0.694 -2.161,-0.913 -6.127,-0.913c-4.82,0 -5.327,-0.112 -6.702,-1.488c-0.819,-0.818 -1.34,-1.636 -1.159,-1.817c0.717,-0.717 7.58,-1.195 18.196,-1.267c9.605,-0.066 11.38,0.062 12.896,0.933z" data-paper-data="{&quot;wickUUID&quot;:&quot;ce08f113-b915-4d25-8bc7-f251111e7e17&quot;,&quot;wickType&quot;:&quot;path&quot;}" id="654447cd-efca-4098-a5af-41d09cd3b6c7" fill-rule="evenodd"/><path d="M178.4599,218.08698c-1.083,1.305 -0.207,16.242 1.485,25.313c2.108,11.303 4.121,19.718 4.959,20.727c0.624,0.753 2.409,0.821 12.669,0.483c6.569,-0.216 12.919,-0.641 14.112,-0.943c3.499,-0.888 4.292,-3.903 2.225,-8.455c-1.834,-4.04 -2.992,-4.46 -11.232,-4.07c-6.928,0.327 -7.362,-0.244 -0.819,-1.077c4.747,-0.605 6.078,-3.363 4.372,-9.058c-1.02,-3.406 -2.192,-4.133 -7.171,-4.453c-4.037,-0.259 -4.361,-0.376 -4.361,-1.573c0,-1.157 0.378,-1.333 3.572,-1.667c1.964,-0.205 4.971,-0.373 6.682,-0.373c3.895,0 5.435,-1.288 5.435,-4.545c0,-3.556 -1.566,-7.386 -3.368,-8.241c-0.864,-0.41 -5.101,-0.946 -9.416,-1.191c-4.314,-0.245 -8.628,-0.587 -9.587,-0.76c-4.733,-0.854 -8.903,-0.905 -9.557,-0.117zM195.3469,223.55198c8.377,0.425 9.811,0.903 9.811,3.271c0,1.238 -0.284,1.312 -6.518,1.69c-5.609,0.341 -6.713,0.576 -7.907,1.686c-1.289,1.197 -1.362,1.578 -1.022,5.313c0.202,2.214 0.654,4.371 1.005,4.794c0.418,0.504 2.034,0.77 4.674,0.77c4.722,0 6.282,0.651 6.282,2.624c0,1.52 -0.443,1.711 -5.179,2.236c-3.891,0.431 -5.533,1.94 -5.75,5.283c-0.133,2.033 0.098,3.072 0.871,3.931c0.978,1.087 1.593,1.151 8.807,0.909c8,-0.268 9.386,0.055 9.386,2.188c0,1.148 -1.374,1.333 -11.796,1.59c-7.951,0.196 -9.246,0.102 -9.663,-0.697c-0.469,-0.899 -0.781,-2.339 -3.789,-17.483c-1.174,-5.913 -1.848,-14.27 -1.518,-18.816c0.02,-0.281 1.017,-0.327 2.216,-0.101c1.198,0.226 5.739,0.591 10.09,0.812z" data-paper-data="{&quot;wickUUID&quot;:&quot;3ddb6989-c444-41ce-97eb-f24684a87186&quot;,&quot;wickType&quot;:&quot;path&quot;}" id="5f6d4478-2e0d-4206-a0ef-a61dd1b7b508" fill-rule="evenodd"/><path d="M249.25125,226.83614c-1.65131,0.28656 -3.69314,3.04888 -5.68489,7.68983c-0.9047,2.11 -1.82506,3.83555 -2.04497,3.83555c-0.21991,0 -2.02071,-0.84274 -4.00228,-1.87238c-1.98157,-1.02964 -3.90993,-1.73891 -4.2848,-1.57516c-0.37565,0.16375 -1.35548,1.46748 -2.17801,2.89758c-0.82253,1.4301 -1.70689,2.6048 -1.96593,2.60925c-0.25904,0.00534 -2.40731,-1.4301 -4.77471,-3.19037c-6.29142,-4.67654 -9.3937,-5.84322 -11.68597,-4.39532c-1.47836,0.93353 -5.12377,6.84972 -5.12377,8.31542c0,0.94688 1.75931,3.15834 7.16247,9.00691c9.63083,10.42366 11.90823,12.50787 13.66598,12.50787c2.36505,0 5.90246,-1.05456 7.08499,-2.11268c0.6167,-0.55086 1.26314,-1.75583 1.43688,-2.6769c0.76383,-4.04736 1.10739,-4.07582 5.00324,-0.41469l2.23671,2.10199h4.16506c3.29402,0 4.3662,-0.18866 5.13081,-0.90505c1.12774,-1.05456 4.13141,-10.25013 4.1455,-12.69029c0.00548,-0.91216 0.30599,-3.17169 0.66756,-5.02006c1.18174,-6.03545 1.74053,-10.65415 1.4494,-11.97302c-0.15731,-0.71194 -0.81156,-1.56713 -1.45487,-1.89997c-1.10114,-0.57044 -6.24134,-0.7075 -8.9484,-0.23851zM255.49102,233.54528c-0.17765,1.61699 -0.50243,3.47513 -0.72078,4.13012c-0.21913,0.65409 -0.61435,3.16723 -0.87809,5.58248c-0.26452,2.41613 -1.04714,6.0844 -1.73975,8.15169l-1.25922,3.75815l-2.55367,0.15395c-2.26175,0.13616 -2.72818,-0.01691 -4.07271,-1.33667c-3.11636,-3.05955 -5.08072,-4.2467 -7.02473,-4.2467c-2.27427,0 -2.58732,0.39066 -3.5875,4.47719c-0.73096,2.98747 -0.87652,3.20551 -2.35488,3.52055c-0.86635,0.1851 -1.83679,0.45029 -2.1561,0.59001c-0.31931,0.13883 -1.48148,-0.59892 -2.58262,-1.64102c-3.43958,-3.25267 -14.50729,-15.30666 -14.50729,-15.79968c0,-0.25807 0.46018,-1.29393 1.02288,-2.30133c0.90392,-1.61788 1.19661,-1.80211 2.50905,-1.57518c0.81783,0.1415 3.0295,1.37583 4.91481,2.74453c1.8861,1.36781 4.28715,3.1085 5.33507,3.86849c1.11992,0.81071 2.59671,1.39807 3.57732,1.4221c1.70531,0.04093 1.78436,-0.03115 4.3975,-4.02512l0.79905,-1.22186l3.32375,1.86795c1.82818,1.02786 3.68846,1.86794 4.13298,1.86794c1.38992,0 2.61236,-1.64814 4.77472,-6.43948c1.14888,-2.54607 2.29931,-4.91771 2.55601,-5.26923c0.50087,-0.68613 1.85245,-1.01718 4.65968,-1.14088l1.75774,-0.07743l-0.32322,2.93943z" data-paper-data="{&quot;wickUUID&quot;:&quot;1355e0c2-ec19-47ff-bb7a-00322080a0ef&quot;,&quot;wickType&quot;:&quot;path&quot;}" id="e1b444b8-7740-4e51-8a72-9e306f7c82cf" fill-rule="evenodd"/></g><g fill="none" fill-rule="nonzero" stroke="none" stroke-width="1" stroke-linecap="butt" stroke-linejoin="miter" stroke-miterlimit="10" stroke-dasharray="" stroke-dashoffset="0" font-family="sans-serif" font-weight="normal" font-size="12" text-anchor="start" style="mix-blend-mode: normal"/><g id="wick_project_gui" fill="none" fill-rule="nonzero" stroke="none" stroke-width="1" stroke-linecap="butt" stroke-linejoin="miter" stroke-miterlimit="10" stroke-dasharray="" stroke-dashoffset="0" font-family="sans-serif" font-weight="normal" font-size="12" text-anchor="start" style="mix-blend-mode: normal"/></g></svg>