<svg version="1.1" xmlns="http://www.w3.org/2000/svg" xmlns:xlink="http://www.w3.org/1999/xlink" width="1260" height="594" viewBox="0,0,1260,594"><g transform="translate(175.45524,113.67446) scale(0.94752,0.94752)"><g id="wick_project_bg" fill="#333333" fill-rule="nonzero" stroke="none" stroke-width="1" stroke-linecap="butt" stroke-linejoin="miter" stroke-miterlimit="10" stroke-dasharray="" stroke-dashoffset="0" font-family="none" font-weight="none" font-size="none" text-anchor="none" style="mix-blend-mode: normal"><rect x="0" y="0" width="720" height="480"/></g><g data-paper-data="{&quot;wickUUID&quot;:&quot;4c3a2534-4316-4b02-b6a9-b79c0e64c55e&quot;,&quot;wickType&quot;:&quot;clipsandpaths&quot;}" fill="#ffffff" fill-rule="evenodd" stroke="none" stroke-width="1" stroke-linecap="butt" stroke-linejoin="miter" stroke-miterlimit="10" stroke-dasharray="" stroke-dashoffset="0" font-family="none" font-weight="none" font-size="none" text-anchor="none" style="mix-blend-mode: normal"><path d="M306.55253,120.52285c-1.578,0.822 -3.755,1.532 -5.941,1.938c-1.897,0.352 -4.485,0.881 -5.75,1.174c-3.496,0.811 -9.59,1.11 -12.458,0.61c-1.37,-0.239 -4.606,-0.888 -7.191,-1.443c-3.791,-0.813 -4.886,-0.923 -5.66,-0.571c-1.207,0.55 -1.889,2.004 -1.558,3.321c0.294,1.173 6.191,6.96 8.108,7.959c1.832,0.954 6.268,1.816 9.082,1.764c1.317,-0.024 4.464,0.083 6.994,0.24c3.009,0.185 5.329,0.135 6.708,-0.147c8.821,-1.801 10.144,-2.35 12.41,-5.149c2.003,-2.473 2.539,-3.815 2.539,-6.349c0,-4.455 -2.737,-5.713 -7.283,-3.347zM305.40253,127.63685c0,0.418 -0.077,0.441 -5.465,1.591c-3.026,0.646 -4.238,0.768 -4.551,0.455c-0.312,-0.312 0.072,-0.497 1.441,-0.694c1.628,-0.234 8.217,-1.524 8.48,-1.66c0.052,-0.027 0.095,0.111 0.095,0.308z" data-paper-data="{&quot;wickUUID&quot;:&quot;b692edaf-d36c-415e-ba50-621660964e1b&quot;,&quot;wickType&quot;:&quot;path&quot;,&quot;originalStyle&quot;:{&quot;strokeColor&quot;:null,&quot;fillColor&quot;:[&quot;Color&quot;,1,1,1],&quot;strokeWidth&quot;:1}}" id="b692edaf-d36c-415e-ba50-621660964e1b"/><path d="M259.19592,102.5384c-1.997,1.996 -0.924,3.994 2.796,5.205c1.423,0.464 3.364,1.323 4.313,1.909c0.948,0.587 3.795,1.967 6.324,3.068c2.53,1.101 5.894,2.57 7.475,3.264c1.581,0.694 4.169,1.464 5.75,1.711l2.875,0.448l5.558,-1.959c9.539,-3.364 18.954,-5.76 22.66,-5.768c3.118,-0.007 4.62,-3.201 2.351,-4.999c-0.965,-0.765 -1.328,-0.814 -4.289,-0.577c-3.946,0.315 -14.546,3.007 -21.297,5.407c-6.621,2.355 -7.047,2.31 -16.159,-1.671c-3.827,-1.673 -7.49,-3.42 -8.14,-3.883c-1.248,-0.889 -7.354,-3.096 -8.564,-3.096c-0.392,0 -1.136,0.423 -1.653,0.941z" data-paper-data="{&quot;wickUUID&quot;:&quot;5e6b7ea6-11f0-435f-afd6-591c39a3c3b7&quot;,&quot;wickType&quot;:&quot;path&quot;,&quot;originalStyle&quot;:{&quot;strokeColor&quot;:null,&quot;fillColor&quot;:[&quot;Color&quot;,1,1,1],&quot;strokeWidth&quot;:1}}" id="5e6b7ea6-11f0-435f-afd6-591c39a3c3b7"/><path d="M297.66952,109.66175c-0.353,0.206 -0.829,0.942 -1.058,1.636c-0.38,1.15 -0.532,1.247 -1.732,1.107c-1.025,-0.12 -1.532,0.063 -2.296,0.827c-1.242,1.242 -1.245,2.558 -0.009,4.026c1.29,1.534 3.218,2.167 4.902,1.611c3.486,-1.15 6.112,-6.82 4.093,-8.839c-0.821,-0.821 -2.803,-1.009 -3.9,-0.368z" data-paper-data="{&quot;wickUUID&quot;:&quot;f374b6fe-b761-4980-a1d8-8c660f158702&quot;,&quot;wickType&quot;:&quot;path&quot;,&quot;originalStyle&quot;:{&quot;strokeColor&quot;:null,&quot;fillColor&quot;:[&quot;Color&quot;,1,1,1],&quot;strokeWidth&quot;:1}}" id="f374b6fe-b761-4980-a1d8-8c660f158702"/><path d="M273.06402,111.20792c-2.825,2.222 0.719,8.789 4.743,8.789c1.148,0 3.63,-1.355 5.381,-2.937c1.899,-1.716 2.087,-3.458 0.506,-4.702c-1.33,-1.046 -2.392,-1.003 -3.973,0.164c-1.562,1.152 -1.917,1.192 -1.917,0.219c0,-0.923 -1.735,-2.327 -2.875,-2.327c-0.47,0 -1.309,0.357 -1.865,0.794z" data-paper-data="{&quot;wickUUID&quot;:&quot;af5c4353-8b6a-481e-8d22-d3c40e51297d&quot;,&quot;wickType&quot;:&quot;path&quot;,&quot;originalStyle&quot;:{&quot;strokeColor&quot;:null,&quot;fillColor&quot;:[&quot;Color&quot;,1,1,1],&quot;strokeWidth&quot;:1}}" id="af5c4353-8b6a-481e-8d22-d3c40e51297d"/><path d="M285.08735,62.46454c-0.527,0.178 -2.338,0.534 -4.025,0.791c-3.26,0.497 -10.032,2.941 -14.684,5.298c-2.214,1.122 -3.419,2.1 -5.75,4.664c-1.621,1.784 -3.23,3.532 -3.575,3.884c-1.072,1.097 -3.621,5.028 -4.883,7.531c-1.482,2.939 -2.348,6.151 -2.349,8.708c0,1.063 -0.352,2.858 -0.782,3.989c-0.43,1.132 -0.876,3.374 -0.991,4.983c-0.306,4.286 0.388,11.327 1.372,13.93c0.792,2.092 5.782,9.868 8.929,13.912c1.948,2.503 12.048,11.637 15.238,13.78c3.566,2.396 8.149,4.801 10.259,5.385c0.999,0.276 3.368,1.125 5.266,1.886c3.967,1.591 5.272,1.552 6.269,-0.191c0.489,-0.855 1.201,-1.275 3.181,-1.877c1.403,-0.427 2.738,-0.776 2.967,-0.776c1.261,0 7.934,-3.26 13.457,-6.574c6.922,-4.155 10.396,-6.874 12.165,-9.525c5.178,-7.758 6.711,-10.735 6.673,-12.963c-0.145,-8.607 -0.823,-22.824 -1.147,-24.045c-0.701,-2.644 -2.534,-6.825 -3.797,-8.66c-3.772,-5.483 -11.115,-11.378 -21.561,-17.309c-2.472,-1.404 -11.034,-5.079 -13.882,-5.959c-2.877,-0.888 -7.01,-1.315 -8.35,-0.862zM291.02835,68.77254c3.257,0.875 11.964,4.782 16.047,7.201c7.746,4.59 14.032,9.71 16.808,13.69c1.284,1.842 2.412,4.54 3.174,7.593c0.593,2.375 0.952,22.622 0.417,23.507c-3.822,6.317 -6.002,9.493 -7.253,10.564c-3.821,3.271 -19.022,11.629 -20.311,11.168c-0.247,-0.089 -1.139,0.117 -1.982,0.457c-1.165,0.469 -2.869,0.618 -7.091,0.618c-6.218,0 -6.529,-0.088 -12.311,-3.476c-3.559,-2.086 -14.127,-11.514 -16.147,-14.405c-0.788,-1.128 -2.41,-3.432 -3.605,-5.118c-3.555,-5.021 -4.375,-7.135 -4.722,-12.171c-0.308,-4.466 0.026,-8.077 0.91,-9.825c0.279,-0.552 0.625,-2.517 0.771,-4.368c0.145,-1.851 0.505,-4.05 0.801,-4.888c1,-2.837 3.725,-6.898 7.176,-10.696c3.722,-4.096 4.744,-4.751 11.794,-7.559c3.62,-1.442 9.144,-2.711 12.074,-2.774c0.844,-0.018 2.396,0.199 3.45,0.482z" data-paper-data="{&quot;wickUUID&quot;:&quot;4f4d5221-8201-43db-9cba-64c85799ace3&quot;,&quot;wickType&quot;:&quot;path&quot;,&quot;originalStyle&quot;:{&quot;strokeColor&quot;:null,&quot;fillColor&quot;:[&quot;Color&quot;,1,1,1],&quot;strokeWidth&quot;:1}}" id="4f4d5221-8201-43db-9cba-64c85799ace3"/><path d="M327.81103,7.12922c-1.625,0.626 -3.831,1.009 -7.65,1.328c-5.452,0.457 -10.022,1.636 -12.967,3.348c-2.628,1.527 -8.887,10.895 -12.348,18.48c-1.234,2.705 -2.753,5.303 -3.955,6.763c-2.599,3.159 -2.974,4.022 -2.375,5.468c0.52,1.256 2.239,2.166 3.396,1.799c0.412,-0.131 1.805,-1.453 3.095,-2.937c1.818,-2.092 3.121,-4.269 5.785,-9.668c2.435,-4.936 4.315,-8.142 6.447,-10.993l3.009,-4.025l3.04,-0.898c1.672,-0.495 3.298,-0.965 3.614,-1.046c0.317,-0.081 2.732,-0.324 5.367,-0.54c2.635,-0.216 5.235,-0.492 5.777,-0.615c0.859,-0.194 1.164,0.04 2.378,1.822c2.447,3.594 10.164,24.976 10.238,28.369c0.004,0.142 -1.503,1.424 -3.348,2.848c-1.845,1.424 -5.122,4.141 -7.283,6.039l-3.929,3.45l0.001,5.009c0.003,10.511 0.461,18.247 1.13,19.073c1.009,1.246 3.001,1.002 5.851,-0.717c1.358,-0.818 3.195,-1.728 4.084,-2.021l1.616,-0.534l2.124,2.079c1.167,1.144 3.207,3.373 4.532,4.954c3.313,3.955 9.028,12.722 9.024,13.842c-0.005,1.198 -1.589,4.396 -3.017,6.091c-0.622,0.738 -2.402,4.101 -3.957,7.475c-1.723,3.736 -4.112,8.08 -6.116,11.116c-1.809,2.74 -4.36,6.829 -5.67,9.085c-2.799,4.823 -1.616,4.386 -12.668,4.679c-3.901,0.103 -7.696,0.358 -8.433,0.566c-0.738,0.208 -2.074,0.568 -2.97,0.801c-3.051,0.791 -4.124,3.301 -2.223,5.202c1.131,1.131 1.22,1.135 5.044,0.21c2.319,-0.561 4.943,-0.772 11.265,-0.907c9.183,-0.195 10.333,-0.448 11.991,-2.634c0.536,-0.707 1.965,-3.011 3.174,-5.119c1.21,-2.109 3.62,-5.99 5.356,-8.625c3.337,-5.067 4.387,-7.004 7.258,-13.391c0.981,-2.183 2.442,-4.763 3.246,-5.734c1.553,-1.875 3.279,-5.782 3.69,-8.353c0.325,-2.03 -0.391,-3.6 -4.426,-9.704c-4.09,-6.187 -6.674,-9.43 -10.569,-13.26c-3.099,-3.048 -5.629,-4.756 -7.044,-4.756c-0.393,0 -1.699,0.518 -2.902,1.15c-1.202,0.633 -2.401,1.15 -2.664,1.15c-0.497,0 -0.977,-5.344 -0.977,-10.874v-2.704l2.587,-2.524c1.423,-1.388 4.709,-4.124 7.303,-6.079c2.695,-2.031 4.871,-3.964 5.079,-4.511c0.828,-2.179 -6.868,-26.045 -10.347,-32.085c-0.626,-1.088 -1.648,-3.036 -2.27,-4.329c-0.621,-1.293 -1.324,-2.471 -1.562,-2.618c-1.364,-0.843 -2.629,-0.842 -4.831,0.005z" data-paper-data="{&quot;wickUUID&quot;:&quot;448209af-7bf0-47c8-97d3-8fb77ac9b8f4&quot;,&quot;wickType&quot;:&quot;path&quot;,&quot;originalStyle&quot;:{&quot;strokeColor&quot;:null,&quot;fillColor&quot;:[&quot;Color&quot;,1,1,1],&quot;strokeWidth&quot;:1}}" id="448209af-7bf0-47c8-97d3-8fb77ac9b8f4"/><path d="M287.43762,21.49259c-2.09,0.437 -5.664,3.087 -11.542,8.558c-2.413,2.246 -4.516,4.083 -4.674,4.083c-0.159,0 -2.248,2.458 -4.643,5.462c-4.687,5.878 -6.568,9.016 -9.294,15.503c-0.957,2.278 -2.339,5.35 -3.071,6.825c-1.53,3.089 -2.134,5.71 -3.221,13.991c-0.429,3.268 -0.972,6.764 -1.207,7.769c-0.552,2.365 -0.222,3.578 1.173,4.299c1.482,0.766 2.015,0.735 3.189,-0.188c1.156,-0.91 1.538,-2.429 2.602,-10.346c1.164,-8.67 1.455,-9.95 3.007,-13.226c0.799,-1.687 1.583,-3.498 1.742,-4.025c0.159,-0.526 1.457,-3.372 2.883,-6.323c2.15,-4.448 3.281,-6.222 6.613,-10.366c2.21,-2.75 4.431,-5.278 4.935,-5.619c0.504,-0.34 2.814,-2.369 5.133,-4.508c2.319,-2.139 4.992,-4.415 5.941,-5.058l1.725,-1.17l5.807,0.246l5.807,0.245l0.805,-1.024c1.68,-2.135 0.689,-4.113 -2.36,-4.711c-2.964,-0.582 -9.429,-0.82 -11.35,-0.417z" data-paper-data="{&quot;wickUUID&quot;:&quot;e580a9a8-2879-4f9c-8d3a-b3bf249a3adc&quot;,&quot;wickType&quot;:&quot;path&quot;,&quot;originalStyle&quot;:{&quot;strokeColor&quot;:null,&quot;fillColor&quot;:[&quot;Color&quot;,1,1,1],&quot;strokeWidth&quot;:1}}" id="e580a9a8-2879-4f9c-8d3a-b3bf249a3adc"/><path d="M251.57199,79.87918c-0.657,0.658 -0.984,1.403 -0.984,2.247c0,0.695 -0.259,2.73 -0.574,4.522c-0.316,1.792 -0.575,4.603 -0.575,6.246c0,2.662 0.102,3.091 0.941,3.929c0.517,0.517 1.387,0.941 1.934,0.941c0.546,0 1.416,-0.424 1.934,-0.941c0.809,-0.809 0.94,-1.296 0.94,-3.474c0,-1.394 0.28,-4.327 0.621,-6.518c0.888,-5.703 0.489,-7.187 -2.069,-7.699c-0.948,-0.189 -1.38,-0.04 -2.168,0.747z" data-paper-data="{&quot;wickUUID&quot;:&quot;5b7a0f4e-66d5-48db-8c35-072c3e31fc13&quot;,&quot;wickType&quot;:&quot;path&quot;,&quot;originalStyle&quot;:{&quot;strokeColor&quot;:null,&quot;fillColor&quot;:[&quot;Color&quot;,1,1,1],&quot;strokeWidth&quot;:1}}" id="5b7a0f4e-66d5-48db-8c35-072c3e31fc13"/><path d="M443.22691,115.46806c-2.69,1.491 -3.303,4.571 -1.286,6.462c0.725,0.679 2.104,2.637 3.063,4.351c2.683,4.793 6.327,7.943 10.736,9.282c5.174,1.572 8.006,1.441 13.334,-0.617c9.513,-3.674 11.613,-5.174 15.6,-11.143c0.983,-1.472 2.163,-3.189 2.621,-3.815c1.099,-1.502 0.57,-3.56 -1.112,-4.327c-1.059,-0.482 -1.605,-0.422 -2.997,0.328c-1.544,0.831 -2.792,0.892 -13.343,0.647c-6.401,-0.148 -13.703,-0.507 -16.226,-0.798c-2.522,-0.291 -5.618,-0.645 -6.879,-0.787c-1.415,-0.159 -2.759,0 -3.511,0.417zM466.99391,122.21506c5.956,0.171 10.829,0.461 10.829,0.644c0,0.877 -1.786,2.709 -3.473,3.564c-4.85,2.456 -9.941,4.131 -12.554,4.131c-3.357,0 -6.704,-1.146 -8.57,-2.934c-1.346,-1.289 -3.94,-5.244 -3.94,-6.006c0,-0.193 1.548,-0.207 3.44,-0.031c1.892,0.177 8.312,0.461 14.268,0.632z" data-paper-data="{&quot;wickUUID&quot;:&quot;feeb6b5d-bb98-4f49-a421-e841f0c3a3ac&quot;,&quot;wickType&quot;:&quot;path&quot;,&quot;originalStyle&quot;:{&quot;strokeColor&quot;:null,&quot;fillColor&quot;:[&quot;Color&quot;,1,1,1],&quot;strokeWidth&quot;:1}}" id="feeb6b5d-bb98-4f49-a421-e841f0c3a3ac"/><path d="M457.45944,96.64571c-1.11,1.181 -1.163,1.549 -0.929,6.407c0.208,4.32 0.418,5.325 1.296,6.203c1.54,1.54 3.421,0.892 4.703,-1.621c2.253,-4.417 0.36,-12.242 -2.963,-12.242c-0.512,0 -1.46,0.564 -2.107,1.253z" data-paper-data="{&quot;wickUUID&quot;:&quot;a07a6ce6-c770-4f28-bb4d-50e3d7b204ad&quot;,&quot;wickType&quot;:&quot;path&quot;,&quot;originalStyle&quot;:{&quot;strokeColor&quot;:null,&quot;fillColor&quot;:[&quot;Color&quot;,1,1,1],&quot;strokeWidth&quot;:1}}" id="a07a6ce6-c770-4f28-bb4d-50e3d7b204ad"/><path d="M473.42432,99.19124c-0.798,0.559 -1.136,1.521 -1.386,3.948c-0.182,1.765 -0.472,4.161 -0.646,5.324c-0.275,1.85 -0.162,2.215 0.904,2.913c2.999,1.965 5.527,-1.329 5.527,-7.203c0,-2.02 -0.269,-3.831 -0.637,-4.3c-0.957,-1.217 -2.578,-1.511 -3.762,-0.682z" data-paper-data="{&quot;wickUUID&quot;:&quot;da7ae890-62af-4d6f-95f0-b5fbbd0b5717&quot;,&quot;wickType&quot;:&quot;path&quot;,&quot;originalStyle&quot;:{&quot;strokeColor&quot;:null,&quot;fillColor&quot;:[&quot;Color&quot;,1,1,1],&quot;strokeWidth&quot;:1}}" id="da7ae890-62af-4d6f-95f0-b5fbbd0b5717"/><path d="M429.1574,89.28807c-5.316,0.25 -8.861,0.694 -11.641,1.46c-4.587,1.263 -5.467,1.68 -10.062,4.771c-1.847,1.242 -5.115,2.983 -7.262,3.869c-2.147,0.885 -5.681,2.341 -7.853,3.235c-4.14,1.703 -6.753,3.771 -6.751,5.343c0,0.512 1.319,2.692 2.93,4.845c3.152,4.212 9.269,15.18 10.322,18.508c0.994,3.141 2.92,6.719 3.798,7.056c0.435,0.167 2.567,0.091 4.737,-0.168c2.171,-0.259 8.902,-0.712 14.958,-1.006c13.878,-0.674 16.481,-1.452 16.148,-4.826c-0.226,-2.298 -1.718,-2.838 -5.637,-2.04c-3.832,0.78 -26.899,1.942 -27.409,1.38c-0.198,-0.218 -0.648,-1.314 -0.998,-2.435c-0.847,-2.706 -7.265,-14.641 -9.539,-17.74c-1.031,-1.404 -1.611,-2.643 -1.353,-2.893c0.248,-0.24 2.826,-1.38 5.73,-2.532c6.545,-2.598 8.74,-3.702 12.301,-6.187c4.683,-3.267 7.679,-4.019 17.968,-4.506c9.54,-0.452 11.156,-0.872 11.726,-3.048c0.404,-1.547 -1.425,-3.625 -3.105,-3.526c-0.75,0.044 -4.804,0.242 -9.008,0.44z" data-paper-data="{&quot;wickUUID&quot;:&quot;deb75114-1b46-46d1-b713-ee1df68b037a&quot;,&quot;wickType&quot;:&quot;path&quot;,&quot;originalStyle&quot;:{&quot;strokeColor&quot;:null,&quot;fillColor&quot;:[&quot;Color&quot;,1,1,1],&quot;strokeWidth&quot;:1}}" id="deb75114-1b46-46d1-b713-ee1df68b037a"/><path d="M419.36822,73.66166c-2.787,2.519 -4.512,5.959 -6.82,13.608c-1.095,3.629 -1.991,6.827 -1.991,7.106c0,0.876 1.993,2.546 3.038,2.546c1.756,0 2.893,-1.935 4.576,-7.791c0.904,-3.142 2.244,-6.822 2.979,-8.178l1.337,-2.464l4.099,0.361c5.653,0.499 8.298,1.267 15.341,4.458c3.347,1.517 7.231,3.058 8.633,3.425c1.401,0.367 3.578,1.205 4.837,1.861c2.754,1.436 4.15,1.505 5.275,0.262c2.353,-2.599 -0.52,-5.289 -7.922,-7.419c-1.598,-0.46 -5.68,-2.091 -9.07,-3.625c-7.412,-3.353 -10.112,-4.174 -15.797,-4.805c-2.382,-0.265 -4.824,-0.631 -5.426,-0.814c-0.816,-0.248 -1.601,0.125 -3.089,1.469z" data-paper-data="{&quot;wickUUID&quot;:&quot;fdf095c2-f227-4746-9ace-7aac090d2edf&quot;,&quot;wickType&quot;:&quot;path&quot;,&quot;originalStyle&quot;:{&quot;strokeColor&quot;:null,&quot;fillColor&quot;:[&quot;Color&quot;,1,1,1],&quot;strokeWidth&quot;:1}}" id="fdf095c2-f227-4746-9ace-7aac090d2edf"/><path d="M456.42374,86.52954c-3.441,0.925 -8.743,3.787 -11.469,6.192c-8.143,7.184 -9.39,8.474 -10.832,11.21c-4.184,7.94 -4.186,20.608 -0.005,27.511c2.295,3.788 7.663,9.048 10.786,10.569c5.756,2.803 13.973,3.318 27.823,1.743c5.37,-0.61 12.717,-2.66 15.237,-4.25c3.891,-2.457 9.325,-9.575 11.622,-15.226c2.703,-6.65 1.946,-15.256 -1.859,-21.124c-3.384,-5.22 -10.822,-11.105 -18.105,-14.327c-6.073,-2.687 -17.528,-3.821 -23.198,-2.298zM471.48474,92.64554c5.068,1.048 7.382,2.057 12.616,5.504c7.93,5.223 11.183,10.16 11.26,17.093c0.029,2.633 -0.263,4.65 -0.925,6.394c-1.311,3.449 -5.631,9.641 -8.17,11.709c-3.97,3.234 -12.547,4.897 -25.952,5.03c-10.473,0.105 -12.551,-0.527 -17.163,-5.222c-4.648,-4.732 -5.632,-6.958 -5.965,-13.5c-0.487,-9.53 1.12,-13.379 8.123,-19.462c5.324,-4.624 8.67,-6.746 12.095,-7.669c3.299,-0.89 9.445,-0.836 14.081,0.123z" data-paper-data="{&quot;wickUUID&quot;:&quot;76304c63-4084-4bdc-8f26-0fac4ad94ea2&quot;,&quot;wickType&quot;:&quot;path&quot;,&quot;originalStyle&quot;:{&quot;strokeColor&quot;:null,&quot;fillColor&quot;:[&quot;Color&quot;,1,1,1],&quot;strokeWidth&quot;:1}}" id="76304c63-4084-4bdc-8f26-0fac4ad94ea2"/><path d="M539.07011,110.38219c-2.294,0.999 -2.617,1.728 -2.322,5.238c0.457,5.461 2.968,9.297 7.647,11.685c4.177,2.132 6.427,2.004 10.353,-0.589c1.704,-1.124 4.052,-2.591 5.218,-3.258c2.38,-1.362 3.467,-3.055 3.467,-5.403c0,-1.927 -1.287,-3.371 -3.017,-3.385c-1.926,-0.015 -8.496,-1.57 -14.007,-3.315c-5.656,-1.791 -5.507,-1.772 -7.339,-0.973zM546.90011,117.55819c1.716,0.6 4.026,1.226 5.133,1.392c1.107,0.166 2.012,0.475 2.012,0.686c0,0.212 -1.037,1.083 -2.306,1.937c-2.269,1.529 -2.331,1.543 -3.911,0.866c-0.883,-0.378 -1.863,-0.794 -2.176,-0.923c-0.649,-0.268 -2.783,-3.74 -2.783,-4.528c0,-0.734 0.502,-0.663 4.031,0.57z" data-paper-data="{&quot;wickUUID&quot;:&quot;13b3eed5-2f29-4cd5-8dda-847b0b2a5043&quot;,&quot;wickType&quot;:&quot;path&quot;,&quot;originalStyle&quot;:{&quot;strokeColor&quot;:null,&quot;fillColor&quot;:[&quot;Color&quot;,1,1,1],&quot;strokeWidth&quot;:1}}" id="13b3eed5-2f29-4cd5-8dda-847b0b2a5043"/><path d="M546.8092,83.00458c-5.777,0.887 -9.041,2.978 -12.343,7.909c-3.934,5.875 -4.158,6.394 -5.384,12.478c-1.321,6.556 -1.395,9.087 -0.43,14.657c1.155,6.661 2.774,9.307 8.2,13.395c3.474,2.619 4.899,3.307 8.99,4.347c2.419,0.615 4.118,0.718 11.057,0.67c4.706,-0.032 8.88,-0.24 9.798,-0.487c1.811,-0.487 2.771,-1.593 2.771,-3.192c0,-0.858 0.855,-2.003 4.029,-5.395c2.216,-2.369 4.25,-4.627 4.519,-5.018c1.392,-2.019 5.35,-11.34 6.182,-14.558c1.493,-5.77 0.716,-10.521 -2.373,-14.506c-1.802,-2.325 -8.911,-6.975 -12.555,-8.212c-5.413,-1.838 -17.045,-2.919 -22.461,-2.088zM563.4912,89.76658c3.846,0.714 4.423,0.946 8.66,3.48c4.905,2.933 5.922,4.067 6.883,7.675c0.405,1.518 0.36,2.182 -0.341,5.049c-0.444,1.815 -1.735,5.23 -2.869,7.588c-1.135,2.358 -2.129,4.492 -2.209,4.741c-0.08,0.25 -1.997,2.431 -4.26,4.847c-3.498,3.735 -4.54,4.602 -6.958,5.798c-2.749,1.358 -2.896,1.388 -4.41,0.888c-1.385,-0.457 -1.697,-0.442 -2.695,0.131c-1.413,0.811 -4.389,0.838 -7.704,0.069c-3.61,-0.837 -4.25,-1.137 -7.259,-3.401c-4.671,-3.516 -5.826,-6.013 -6.179,-13.358c-0.17,-3.546 -0.051,-4.91 0.772,-8.852c1.01,-4.841 1.585,-6.134 4.75,-10.679c1.876,-2.694 4.04,-4.174 6.827,-4.668c3.012,-0.534 12.462,-0.149 16.992,0.692z" data-paper-data="{&quot;wickUUID&quot;:&quot;85720347-274e-453a-8927-a1428741e222&quot;,&quot;wickType&quot;:&quot;path&quot;,&quot;originalStyle&quot;:{&quot;strokeColor&quot;:null,&quot;fillColor&quot;:[&quot;Color&quot;,1,1,1],&quot;strokeWidth&quot;:1}}" id="85720347-274e-453a-8927-a1428741e222"/><path d="M543.0851,88.91037c-1.155,0.627 -1.709,2.116 -1.196,3.214c0.436,0.934 9.406,10.121 11.44,11.718c2.203,1.729 3.454,1.627 10.837,-0.88c6.389,-2.17 8.482,-3.162 8.884,-4.208c0.524,-1.366 0.217,-2.773 -0.776,-3.553c-1.248,-0.983 -2.059,-0.993 -3.909,-0.049c-1.959,1 -10.222,3.831 -11.179,3.831c-0.477,0 -2.46,-1.741 -5.266,-4.624c-6.051,-6.216 -6.692,-6.612 -8.835,-5.449z" data-paper-data="{&quot;wickUUID&quot;:&quot;98cf785a-baef-444d-8155-a4350e5a8a66&quot;,&quot;wickType&quot;:&quot;path&quot;,&quot;originalStyle&quot;:{&quot;strokeColor&quot;:null,&quot;fillColor&quot;:[&quot;Color&quot;,1,1,1],&quot;strokeWidth&quot;:1}}" id="98cf785a-baef-444d-8155-a4350e5a8a66"/><path d="M546.24752,96.60221c-1.048,0.849 -1.527,2.931 -1.539,6.686c-0.008,2.652 0.091,3.07 0.926,3.906c1.03,1.029 2.669,1.213 3.718,0.415c1.108,-0.842 1.516,-2.574 1.49,-6.339c-0.022,-3.404 -0.083,-3.671 -1.009,-4.477c-1.181,-1.029 -2.468,-1.097 -3.586,-0.191z" data-paper-data="{&quot;wickUUID&quot;:&quot;754607d9-9efc-4c29-b784-979a8ae641de&quot;,&quot;wickType&quot;:&quot;path&quot;,&quot;originalStyle&quot;:{&quot;strokeColor&quot;:null,&quot;fillColor&quot;:[&quot;Color&quot;,1,1,1],&quot;strokeWidth&quot;:1}}" id="754607d9-9efc-4c29-b784-979a8ae641de"/><path d="M557.89757,100.53532c-0.934,0.735 -1.004,1.001 -1.004,3.811c0,3.54 0.626,4.545 2.83,4.545c2.041,0 2.885,-1.358 2.885,-4.641c0,-2.288 -0.122,-2.756 -0.935,-3.569c-1.143,-1.143 -2.444,-1.193 -3.776,-0.146z" data-paper-data="{&quot;wickUUID&quot;:&quot;e008b59d-ab60-408b-b84b-55bc4c9f4abf&quot;,&quot;wickType&quot;:&quot;path&quot;,&quot;originalStyle&quot;:{&quot;strokeColor&quot;:null,&quot;fillColor&quot;:[&quot;Color&quot;,1,1,1],&quot;strokeWidth&quot;:1}}" id="e008b59d-ab60-408b-b84b-55bc4c9f4abf"/><path d="M529.33498,74.62315c-3.106,0.16 -6.45,0.469 -7.431,0.686c-0.98,0.217 -3.038,0.591 -4.572,0.832c-5.264,0.827 -11.12,4.711 -12.245,8.122c-0.397,1.201 -0.365,1.829 0.204,3.977c0.9,3.401 3.712,10.71 5.322,13.83c0.713,1.383 1.911,4.126 2.661,6.097c1.729,4.539 3.064,6.915 6.298,11.203c5.6,7.425 13.858,13.889 18.526,14.502c1.789,0.235 2.064,0.168 2.953,-0.721c1.803,-1.803 0.958,-4.489 -1.581,-5.033c-3.982,-0.853 -10.348,-5.963 -14.953,-12c-2.876,-3.771 -4.224,-6.195 -5.921,-10.652c-0.757,-1.988 -1.963,-4.732 -2.68,-6.097c-1.48,-2.816 -3.829,-8.787 -4.574,-11.626c-0.462,-1.76 -0.442,-1.967 0.254,-2.713c2.686,-2.879 10.719,-4.569 22.731,-4.783c6.516,-0.116 9.077,0.272 15.517,2.351c5.836,1.884 10.132,3.96 14.613,7.061c4.113,2.847 5.558,3.153 6.889,1.462c1.401,-1.782 0.756,-3.418 -2.034,-5.159c-1.067,-0.665 -2.797,-1.846 -3.845,-2.623c-3.984,-2.956 -13.976,-7.008 -19.692,-7.986c-7.323,-1.253 -6.788,-1.229 -16.44,-0.73z" data-paper-data="{&quot;wickUUID&quot;:&quot;813f0042-4548-4de5-b70f-54256ef5ab5b&quot;,&quot;wickType&quot;:&quot;path&quot;,&quot;originalStyle&quot;:{&quot;strokeColor&quot;:null,&quot;fillColor&quot;:[&quot;Color&quot;,1,1,1],&quot;strokeWidth&quot;:1}}" id="813f0042-4548-4de5-b70f-54256ef5ab5b"/><path d="M639.39253,83.85342c-4.271,0.463 -5.97,0.9 -8.848,2.275c-3.715,1.774 -5.522,4.893 -7.895,13.623c-1.358,4.996 -1.509,8.633 -0.551,13.29c0.998,4.856 5.187,12.733 9.091,17.095c2.842,3.177 5.055,4.459 10.304,5.973c2.777,0.801 3.759,0.874 11.235,0.843c12.502,-0.051 14.862,-0.647 14.862,-3.753c0,-0.727 0.297,-1.501 0.724,-1.888c0.804,-0.727 3.606,-6.293 5.102,-10.132c0.531,-1.362 1.085,-3.677 1.231,-5.144c0.147,-1.467 0.762,-5.104 1.368,-8.083c1.257,-6.181 1.349,-8.266 0.496,-11.186c-0.688,-2.357 -2.774,-5.62 -4.282,-6.699c-2.146,-1.535 -5.669,-3.126 -7.497,-3.387c-1.048,-0.149 -3.192,-0.667 -4.764,-1.151c-1.571,-0.484 -3.886,-1.069 -5.144,-1.299c-3.212,-0.59 -11.584,-0.794 -15.432,-0.377zM652.89053,89.95342c1.587,0.221 3.839,0.729 5.005,1.131c1.166,0.401 3.169,0.919 4.452,1.152c3.411,0.618 6.361,2.244 7.609,4.192c1.617,2.526 1.666,4.071 0.336,10.663c-0.648,3.211 -1.178,6.286 -1.178,6.834c0,1.869 -1.177,5.533 -3.002,9.35c-1.532,3.203 -2.177,4.113 -4.048,5.706l-2.226,1.895l-6.194,0.149c-6.903,0.167 -9.994,-0.219 -13.73,-1.715c-2.957,-1.184 -6.009,-4.31 -7.938,-8.131c-0.687,-1.362 -1.802,-3.529 -2.476,-4.815c-0.825,-1.573 -1.428,-3.524 -1.843,-5.963c-0.58,-3.413 -0.576,-3.801 0.07,-6.617c0.951,-4.146 2.84,-9.634 3.769,-10.946c1.589,-2.244 5.497,-3.131 14.251,-3.235c2.342,-0.028 5.557,0.129 7.143,0.35z" data-paper-data="{&quot;wickUUID&quot;:&quot;de7e8d7d-9cc6-46b3-bbd3-a1d72019ea58&quot;,&quot;wickType&quot;:&quot;path&quot;,&quot;originalStyle&quot;:{&quot;strokeColor&quot;:null,&quot;fillColor&quot;:[&quot;Color&quot;,1,1,1],&quot;strokeWidth&quot;:1}}" id="de7e8d7d-9cc6-46b3-bbd3-a1d72019ea58"/><path d="M664.09675,100.79563c-0.606,0.334 -1.119,1.025 -1.269,1.708c-0.139,0.631 -0.337,1.148 -0.441,1.148c-0.105,0 -2.449,0.33 -5.21,0.734c-2.867,0.42 -8.45,0.838 -13.021,0.976l-8.003,0.241l-0.381,-0.871c-0.535,-1.223 -2.111,-2.017 -3.376,-1.699c-1.131,0.284 -3.292,3.273 -3.292,4.554c0,1.081 1.49,3.31 2.458,3.678c0.814,0.31 22.477,-0.196 23.03,-0.537c0.152,-0.094 2.753,-0.442 5.78,-0.772c5.944,-0.649 6.818,-0.993 8.105,-3.191c0.653,-1.115 0.659,-1.32 0.1,-3.245c-0.329,-1.13 -0.815,-2.235 -1.08,-2.455c-0.871,-0.723 -2.364,-0.841 -3.4,-0.269z" data-paper-data="{&quot;wickUUID&quot;:&quot;c9a589ef-29f1-44b4-ab06-f6fd4b29758b&quot;,&quot;wickType&quot;:&quot;path&quot;,&quot;originalStyle&quot;:{&quot;strokeColor&quot;:null,&quot;fillColor&quot;:[&quot;Color&quot;,1,1,1],&quot;strokeWidth&quot;:1}}" id="c9a589ef-29f1-44b4-ab06-f6fd4b29758b"/><path d="M661.60639,101.05963c-1.158,0.559 -2.892,5.5 -3.786,10.784l-0.71,4.192l-2.476,0.258c-1.362,0.142 -4.106,0.462 -6.097,0.712c-1.991,0.249 -3.96,0.476 -4.376,0.504c-0.631,0.042 -1.128,-0.877 -2.991,-5.527c-2.299,-5.736 -2.821,-6.426 -4.862,-6.426c-1.005,0 -2.632,1.658 -2.632,2.682c0,0.901 5.177,14.356 5.838,15.172c0.856,1.057 2.025,1.162 4.472,0.4c2.436,-0.758 6.464,-1.322 12.875,-1.803c3.359,-0.252 3.622,-0.335 4.627,-1.46c0.824,-0.923 1.161,-1.828 1.485,-3.996c0.759,-5.068 1.243,-7.332 2.185,-10.219c0.781,-2.391 0.859,-3.022 0.486,-3.923c-0.709,-1.712 -2.233,-2.221 -4.038,-1.35z" data-paper-data="{&quot;wickUUID&quot;:&quot;1e655b77-de00-4f77-8da4-2016325b3909&quot;,&quot;wickType&quot;:&quot;path&quot;,&quot;originalStyle&quot;:{&quot;strokeColor&quot;:null,&quot;fillColor&quot;:[&quot;Color&quot;,1,1,1],&quot;strokeWidth&quot;:1}}" id="1e655b77-de00-4f77-8da4-2016325b3909"/><path d="M637.9406,91.84847c-1.288,0.785 -2.27,2.577 -2.631,4.799c-0.382,2.359 2.686,4.108 4.667,2.66c0.646,-0.473 0.854,-0.43 1.816,0.381c1.335,1.123 2.518,1.161 3.836,0.125c1.729,-1.361 1.398,-2.853 -1.187,-5.36c-3.742,-3.627 -4.396,-3.889 -6.501,-2.605z" data-paper-data="{&quot;wickUUID&quot;:&quot;e0aeb602-eb47-4edd-8952-cb4b6447b06b&quot;,&quot;wickType&quot;:&quot;path&quot;,&quot;originalStyle&quot;:{&quot;strokeColor&quot;:null,&quot;fillColor&quot;:[&quot;Color&quot;,1,1,1],&quot;strokeWidth&quot;:1}}" id="e0aeb602-eb47-4edd-8952-cb4b6447b06b"/><path d="M652.66339,92.56053c-2.145,1.36 -3.745,3.395 -3.745,4.761c0,1.309 1.564,2.9 2.849,2.9c0.612,0 1.598,-0.571 2.633,-1.525l1.654,-1.524l0.97,0.762c2.833,2.23 6.278,-0.838 4.228,-3.766c-0.774,-1.104 -4.13,-2.702 -5.686,-2.707c-0.64,-0.002 -1.947,0.492 -2.903,1.099z" data-paper-data="{&quot;wickUUID&quot;:&quot;eb6d227c-ea6f-4ce3-b4c9-d83757b85d3a&quot;,&quot;wickType&quot;:&quot;path&quot;,&quot;originalStyle&quot;:{&quot;strokeColor&quot;:null,&quot;fillColor&quot;:[&quot;Color&quot;,1,1,1],&quot;strokeWidth&quot;:1}}" id="eb6d227c-ea6f-4ce3-b4c9-d83757b85d3a"/><path d="M667.34755,55.32247c-1.437,0.696 -1.662,1.929 -1.675,9.194c-0.011,6.421 -0.639,13.509 -1.358,15.319c-0.166,0.419 -1.223,2.177 -2.348,3.906c-2.533,3.892 -2.858,5.366 -1.489,6.735c1.152,1.152 2.864,1.292 3.822,0.314c1.142,-1.165 5.046,-7.589 5.654,-9.304c0.762,-2.151 1.444,-7.38 1.459,-11.197c0.016,-3.863 -0.099,-4.012 5.581,7.26c2.428,4.82 5.422,10.595 6.651,12.833c1.23,2.239 2.236,4.315 2.236,4.614c0,0.299 -2.443,2.455 -5.43,4.791c-7.349,5.749 -7.423,5.814 -7.873,7.007c-1.041,2.756 1.994,4.772 4.585,3.047c0.549,-0.366 3.038,-2.313 5.53,-4.327c2.493,-2.015 5.491,-4.276 6.663,-5.026c1.379,-0.882 2.363,-1.85 2.785,-2.74c0.646,-1.36 0.639,-1.412 -0.542,-4.25c-0.658,-1.579 -1.874,-4.1 -2.703,-5.6c-0.828,-1.501 -3.719,-7.116 -6.423,-12.48c-6.071,-12.04 -8.186,-15.647 -10.785,-18.395c-2.048,-2.166 -2.784,-2.455 -4.34,-1.701z" data-paper-data="{&quot;wickUUID&quot;:&quot;2c85e3e9-63d0-4704-add7-32b70071f68d&quot;,&quot;wickType&quot;:&quot;path&quot;,&quot;originalStyle&quot;:{&quot;strokeColor&quot;:null,&quot;fillColor&quot;:[&quot;Color&quot;,1,1,1],&quot;strokeWidth&quot;:1}}" id="2c85e3e9-63d0-4704-add7-32b70071f68d"/><path d="M627.37664,56.36757c-1.213,0.514 -3.339,3.07 -6.108,7.344c-1.401,2.162 -4.219,6.074 -6.262,8.693c-3.915,5.02 -7.73,10.665 -8.169,12.088c-0.552,1.791 1.036,3.943 8.588,11.645c7.968,8.126 8.318,8.352 10.388,6.724c0.733,-0.577 1.004,-1.14 1.004,-2.087c0,-1.156 -0.615,-1.929 -5.664,-7.117c-3.116,-3.201 -6.2,-6.44 -6.854,-7.198l-1.19,-1.378l1.461,-2.242c0.803,-1.233 2.964,-4.128 4.803,-6.434c1.839,-2.305 4.203,-5.477 5.255,-7.049c1.051,-1.572 2.079,-3.029 2.284,-3.239c0.244,-0.249 0.282,2.137 0.111,6.859l-0.262,7.24l1.076,1.006c0.592,0.553 1.847,1.389 2.79,1.857c0.943,0.468 2.688,1.773 3.878,2.9c2.517,2.384 3.919,2.669 5.475,1.113c1.603,-1.602 1.269,-2.714 -1.636,-5.441c-1.415,-1.329 -3.237,-2.795 -4.049,-3.259l-1.477,-0.843l-0.06,-7.812c-0.081,-10.446 -0.757,-13.086 -3.464,-13.517c-0.629,-0.1 -1.492,-0.034 -1.918,0.147z" data-paper-data="{&quot;wickUUID&quot;:&quot;c56617de-5dcd-430b-b598-3af174d92bfd&quot;,&quot;wickType&quot;:&quot;path&quot;,&quot;originalStyle&quot;:{&quot;strokeColor&quot;:null,&quot;fillColor&quot;:[&quot;Color&quot;,1,1,1],&quot;strokeWidth&quot;:1}}" id="c56617de-5dcd-430b-b598-3af174d92bfd"/><path d="M556.1821,205.16511c-4.153,0.659 -7.818,1.21 -10.326,1.553c-5.475,0.75 -8.618,1.863 -9.543,3.38c-1.037,1.701 -0.499,3.031 1.922,4.751c3.517,2.497 8.261,4.172 11.82,4.172c1.324,0 4.178,-0.467 10.586,-1.732c1.069,-0.211 2.677,-0.695 3.575,-1.075c2.45,-1.039 6.429,-2.187 8.515,-2.459c2.469,-0.321 3.208,-0.644 3.838,-1.678c0.671,-1.1 0.668,-1.872 -0.012,-3.277c-1.039,-2.146 -3.068,-3.123 -7.362,-3.543c-2.595,-0.255 -11.588,-0.318 -13.013,-0.092zM561.2131,211.06211c-0.219,0.129 -1.172,0.373 -2.119,0.543c-0.946,0.17 -3.203,0.597 -5.015,0.95c-3.768,0.733 -4.234,0.758 -6.158,0.326l-1.403,-0.315l3.177,-0.46c1.748,-0.253 4.25,-0.635 5.561,-0.85c2.673,-0.439 6.592,-0.566 5.957,-0.194z" data-paper-data="{&quot;wickUUID&quot;:&quot;ab21b8ae-d645-4b62-b2ce-de2b089024f6&quot;,&quot;wickType&quot;:&quot;path&quot;,&quot;originalStyle&quot;:{&quot;strokeColor&quot;:null,&quot;fillColor&quot;:[&quot;Color&quot;,1,1,1],&quot;strokeWidth&quot;:1}}" id="ab21b8ae-d645-4b62-b2ce-de2b089024f6"/><path d="M576.07722,159.90213c-1.25,0.237 -8.995,8.326 -14.52,15.166c-4.76,5.892 -6.637,7.962 -13.518,14.909l-6.767,6.834l-1.313,-1.273c-0.722,-0.701 -3.425,-3.716 -6.008,-6.701c-6.755,-7.81 -7.566,-8.489 -9.665,-8.095c-2.362,0.443 -2.907,3.961 -0.825,5.325c0.377,0.246 2.138,2.132 3.915,4.191c8.357,9.68 11.8,13.182 13.341,13.568c0.362,0.091 1.193,0.016 1.846,-0.167c1.005,-0.281 1.457,-0.662 2.944,-2.48c0.967,-1.182 4.339,-4.71 7.494,-7.841c5.735,-5.691 8.102,-8.316 13.165,-14.597c3.263,-4.048 7.479,-8.733 10.983,-12.205c2.487,-2.464 2.599,-2.623 2.599,-3.714c0,-0.627 -0.195,-1.417 -0.432,-1.756c-0.398,-0.568 -1.922,-1.403 -2.406,-1.319c-0.114,0.02 -0.489,0.089 -0.833,0.155z" data-paper-data="{&quot;wickUUID&quot;:&quot;3ac15bb1-098b-405d-b9e2-838bd2a810d1&quot;,&quot;wickType&quot;:&quot;path&quot;,&quot;originalStyle&quot;:{&quot;strokeColor&quot;:null,&quot;fillColor&quot;:[&quot;Color&quot;,1,1,1],&quot;strokeWidth&quot;:1}}" id="3ac15bb1-098b-405d-b9e2-838bd2a810d1"/><path d="M552.00232,188.17613c-0.922,0.401 -1.645,1.676 -1.645,2.903c0,0.556 -0.125,0.67 -0.735,0.67c-1.526,0 -2.888,1.734 -2.594,3.301c0.145,0.771 1.678,3.037 3.091,4.568c1.204,1.305 3.254,0.952 4.569,-0.786c0.867,-1.146 1.159,-2.402 1.376,-5.916c0.203,-3.293 0.062,-3.799 -1.289,-4.622c-0.993,-0.606 -1.591,-0.631 -2.773,-0.118z" data-paper-data="{&quot;wickUUID&quot;:&quot;cd49a4e8-63b7-4166-9dad-2ef63c04ea30&quot;,&quot;wickType&quot;:&quot;path&quot;,&quot;originalStyle&quot;:{&quot;strokeColor&quot;:null,&quot;fillColor&quot;:[&quot;Color&quot;,1,1,1],&quot;strokeWidth&quot;:1}}" id="cd49a4e8-63b7-4166-9dad-2ef63c04ea30"/><path d="M537.04066,197.57878c-0.373,0.293 -0.815,0.949 -0.983,1.458c-0.259,0.784 -0.216,1.193 0.288,2.706c0.78,2.344 1.673,3.247 3.202,3.239c0.679,-0.003 1.379,-0.192 1.72,-0.463c0.848,-0.675 1.742,-2.589 1.88,-4.023c0.106,-1.102 0.026,-1.363 -0.645,-2.114c-1.183,-1.324 -4.23,-1.772 -5.462,-0.803z" data-paper-data="{&quot;wickUUID&quot;:&quot;188d0a7d-dd84-4fd2-a474-747690afd8a5&quot;,&quot;wickType&quot;:&quot;path&quot;,&quot;originalStyle&quot;:{&quot;strokeColor&quot;:null,&quot;fillColor&quot;:[&quot;Color&quot;,1,1,1],&quot;strokeWidth&quot;:1}}" id="188d0a7d-dd84-4fd2-a474-747690afd8a5"/><path d="M561.52344,150.21135c-0.776,0.129 -2.933,0.758 -4.793,1.398c-2.508,0.863 -3.989,1.211 -5.738,1.349c-1.296,0.102 -3.488,0.412 -4.871,0.689c-6.08,1.216 -7.829,1.912 -10.592,4.214c-0.655,0.546 -2.144,1.704 -3.309,2.573c-4.463,3.331 -7.489,7.033 -9.129,11.17c-0.265,0.667 -0.97,2.247 -1.566,3.51c-1.25,2.647 -1.6,4.554 -1.622,8.824c-0.008,1.602 -0.121,4.104 -0.252,5.56c-0.281,3.136 0.037,8.702 0.659,11.526c0.431,1.957 1.761,4.992 3.535,8.068c1.011,1.753 8.878,9.95 10.228,10.657c0.437,0.229 1.569,0.627 2.516,0.885c0.946,0.257 2.733,0.758 3.971,1.112c1.238,0.354 3.323,0.789 4.634,0.966c1.31,0.177 3.217,0.484 4.236,0.682c1.02,0.197 2.986,0.433 4.369,0.522c3.271,0.213 5.523,-0.228 10.004,-1.96c1.915,-0.74 4.36,-1.632 5.433,-1.983c3.904,-1.274 5.322,-2.209 9.339,-6.159c4.258,-4.185 5.106,-5.375 7.292,-10.228c1.929,-4.281 3.051,-7.885 3.273,-10.513c0.264,-3.116 1.145,-10.099 1.441,-11.42c0.529,-2.361 0.848,-8.215 0.575,-10.56c-0.256,-2.193 -1.336,-5.847 -2.272,-7.686c-0.486,-0.955 -2.8,-3.981 -4.213,-5.51c-0.451,-0.488 -1.465,-1.303 -2.254,-1.812c-1.481,-0.956 -5.288,-2.729 -5.858,-2.729c-0.178,0 -2.099,-0.606 -4.269,-1.347c-3.74,-1.278 -7.232,-2.103 -8.694,-2.055c-0.364,0.012 -1.297,0.128 -2.073,0.257zM569.55344,157.30135c1.748,0.61 3.833,1.294 4.634,1.52c2.785,0.785 5.221,2.181 6.746,3.866c2.105,2.326 2.689,3.279 3.574,5.832c0.72,2.079 0.799,2.625 0.786,5.423c-0.008,1.711 -0.18,4.124 -0.383,5.362c-0.203,1.238 -0.679,4.932 -1.057,8.208c-0.378,3.277 -0.929,6.852 -1.224,7.944c-0.617,2.283 -3.246,8.398 -4.238,9.857c-1.519,2.236 -6.481,6.884 -8.385,7.855c-0.625,0.318 -2.591,1.117 -4.369,1.776c-1.778,0.658 -4.067,1.534 -5.086,1.947c-1.019,0.412 -2.271,0.842 -2.78,0.956c-1.356,0.301 -5.149,0.165 -7.282,-0.26c-1.019,-0.204 -2.967,-0.512 -4.328,-0.685c-1.362,-0.173 -3.566,-0.65 -4.899,-1.06c-1.332,-0.41 -2.838,-0.831 -3.346,-0.936c-0.732,-0.151 -1.729,-1.018 -4.826,-4.194c-3.56,-3.652 -4.03,-4.249 -5.355,-6.797c-2.295,-4.417 -2.57,-6.948 -2.032,-18.689l0.268,-5.861l1.099,-2.347c2.942,-6.286 3.252,-6.812 5.146,-8.712c1.606,-1.612 5.904,-5.116 8.473,-6.908c1.176,-0.821 6.641,-2.132 10.445,-2.507c2.691,-0.265 3.996,-0.56 7.149,-1.615c3.586,-1.2 4.005,-1.283 5.975,-1.187c1.619,0.079 2.866,0.365 5.295,1.212z" data-paper-data="{&quot;wickUUID&quot;:&quot;7e61d252-530f-4fc5-8ede-ab64f33f7603&quot;,&quot;wickType&quot;:&quot;path&quot;,&quot;originalStyle&quot;:{&quot;strokeColor&quot;:null,&quot;fillColor&quot;:[&quot;Color&quot;,1,1,1],&quot;strokeWidth&quot;:1}}" id="7e61d252-530f-4fc5-8ede-ab64f33f7603"/><path d="M573.26109,151.36046c-4.447,0.703 -5.693,1.526 -5.693,3.758c0,0.964 0.148,1.339 0.774,1.965c0.913,0.914 1.752,0.98 4.439,0.353c3.021,-0.705 5.147,-0.6 7.893,0.391c1.311,0.472 3.5,1.155 4.865,1.517c4.145,1.099 7.86,3.165 12.032,6.693c2.516,2.128 5.718,4.138 9.978,6.265c3.923,1.959 8.596,5.271 11.423,8.098c0.805,0.806 1.169,1.564 2.036,4.245c0.995,3.076 1.918,7.165 2.292,10.149c0.091,0.728 0.521,3.16 0.955,5.404c0.434,2.244 0.904,5.699 1.045,7.678c0.14,1.979 0.375,5.028 0.522,6.776c0.309,3.689 0.355,14.345 0.063,14.514c-0.109,0.064 -1.211,-0.468 -2.449,-1.182c-1.238,-0.713 -5.229,-2.477 -8.87,-3.92c-11.347,-4.496 -21.106,-7.122 -36.01,-9.689c-9.293,-1.601 -10.871,-1.494 -11.97,0.81c-0.365,0.766 -0.382,1.071 -0.107,1.986c0.457,1.527 1.5,2.108 3.729,2.077c2.044,-0.027 12.517,1.75 19.072,3.237c4.792,1.087 11.677,2.936 15.278,4.103c3.555,1.152 13.905,5.367 15.568,6.339c1.457,0.851 3.904,2.083 6.637,3.339c1.312,0.603 2.709,0.636 3.5,0.082c1.181,-0.828 1.359,-1.647 1.672,-7.709c0.292,-5.662 0.244,-8.102 -0.304,-15.576c-0.596,-8.131 -0.82,-10.146 -1.558,-13.996c-0.423,-2.205 -0.906,-5.021 -1.075,-6.259c-0.526,-3.871 -2.365,-10.903 -3.574,-13.673c-1.183,-2.71 -9.846,-9.687 -14.685,-11.826c-2.76,-1.22 -7.458,-4.15 -9.779,-6.099c-4.559,-3.827 -9.117,-6.337 -13.548,-7.46c-1.496,-0.38 -3.028,-0.848 -3.405,-1.041c-1.312,-0.673 -5.794,-1.736 -7.208,-1.71c-0.781,0.015 -2.373,0.177 -3.538,0.361z" data-paper-data="{&quot;wickUUID&quot;:&quot;6c9de7f5-e435-45de-8ad6-00ba352ed498&quot;,&quot;wickType&quot;:&quot;path&quot;,&quot;originalStyle&quot;:{&quot;strokeColor&quot;:null,&quot;fillColor&quot;:[&quot;Color&quot;,1,1,1],&quot;strokeWidth&quot;:1}}" id="6c9de7f5-e435-45de-8ad6-00ba352ed498"/><path d="M487.61433,285.09731c-10.059,2.966 -15.495,5.215 -29.609,12.252c-5.551,2.768 -9.448,4.513 -11.712,5.245c-3.404,1.101 -4.345,1.699 -4.745,3.017c-0.318,1.05 0.35,2.591 1.389,3.205c1.661,0.98 3.791,4.499 5.429,8.972c0.822,2.243 1.759,5.127 2.083,6.41c0.324,1.284 1.05,3.789 1.613,5.567c0.913,2.886 1.171,3.377 2.394,4.565c2.054,1.996 5.851,4.44 7.958,5.124c2.167,0.702 6.142,1.22 9.378,1.221c3.144,0.001 8.575,-1.197 11.136,-2.457c2.332,-1.147 7.046,-4.036 7.83,-4.799c0.856,-0.833 2.789,-5.677 3.549,-8.896c0.852,-3.606 1.504,-8.241 1.911,-13.594c0.165,-2.165 0.436,-5.249 0.603,-6.853c0.167,-1.604 0.472,-6.329 0.68,-10.499c0.419,-8.442 0.339,-9.077 -1.246,-9.897c-0.486,-0.251 -1.251,-0.441 -1.7,-0.422c-0.449,0.018 -3.572,0.846 -6.941,1.839zM491.54533,292.92131c-0.007,2.878 -0.206,5.736 -1.15,16.571c-0.849,9.736 -1.688,14.377 -3.283,18.158c-0.593,1.406 -0.942,1.802 -2.357,2.672c-0.914,0.562 -2.394,1.473 -3.29,2.024c-1.659,1.02 -5.457,2.102 -8.491,2.418c-2.087,0.217 -7.794,-0.451 -9.246,-1.083c-0.972,-0.423 -4.658,-2.94 -5.481,-3.743c-0.112,-0.109 -0.859,-2.561 -1.66,-5.448c-1.755,-6.327 -4.344,-13.378 -5.56,-15.146c-0.488,-0.71 -0.888,-1.398 -0.887,-1.53c0.001,-0.131 0.952,-0.628 2.114,-1.105c1.163,-0.476 5.006,-2.336 8.54,-4.133c7.193,-3.657 16.147,-7.727 20.113,-9.143c2.887,-1.031 9.703,-3.142 10.28,-3.184c0.267,-0.019 0.363,0.691 0.358,2.672z" data-paper-data="{&quot;wickUUID&quot;:&quot;d1b22707-54ce-4220-bcfe-9cc792249ffa&quot;,&quot;wickType&quot;:&quot;path&quot;,&quot;originalStyle&quot;:{&quot;strokeColor&quot;:null,&quot;fillColor&quot;:[&quot;Color&quot;,1,1,1],&quot;strokeWidth&quot;:1}}" id="d1b22707-54ce-4220-bcfe-9cc792249ffa"/><path d="M450.7923,268.5647c-0.662,0.691 -1.853,2.252 -2.647,3.468c-3.607,5.526 -6.776,10.643 -6.966,11.247c-0.354,1.127 0.353,2.643 1.537,3.298c0.588,0.324 1.397,0.77 1.798,0.989c1.265,0.692 5.963,1.422 7.779,1.208c5.063,-0.595 6.31,-2.983 5.194,-9.95c-0.283,-1.763 -0.535,-4.583 -0.562,-6.267c-0.028,-1.774 -0.199,-3.337 -0.406,-3.715c-0.498,-0.91 -1.837,-1.534 -3.292,-1.534c-1.07,0 -1.388,0.164 -2.435,1.256zM451.9083,281.3627c0.143,1.134 0.086,1.394 -0.33,1.522c-0.486,0.149 -2.592,-0.217 -2.874,-0.499c-0.076,-0.076 0.486,-1.103 1.25,-2.284l1.388,-2.145l0.196,1.019c0.108,0.56 0.275,1.634 0.37,2.387z" data-paper-data="{&quot;wickUUID&quot;:&quot;e3723a79-6869-42d1-af78-6aaf2cd88514&quot;,&quot;wickType&quot;:&quot;path&quot;,&quot;originalStyle&quot;:{&quot;strokeColor&quot;:null,&quot;fillColor&quot;:[&quot;Color&quot;,1,1,1],&quot;strokeWidth&quot;:1}}" id="e3723a79-6869-42d1-af78-6aaf2cd88514"/><path d="M469.70164,265.05934c-2.396,0.805 -4.65,2.224 -5.728,3.607c-1.894,2.43 -1.079,6.555 1.84,9.315c1.866,1.764 3.1,2.395 6.24,3.192c3.398,0.862 5.132,0.909 6.363,0.173c0.5,-0.3 1.552,-0.7 2.339,-0.891c1.618,-0.391 2.286,-0.704 5.57,-2.608c4.131,-2.395 5.779,-4.61 5.281,-7.1c-0.271,-1.353 -2.317,-3.884 -3.881,-4.801c-1.506,-0.882 -2.963,-1.058 -11.608,-1.4c-4.074,-0.161 -4.514,-0.126 -6.416,0.513zM482.00964,270.75934c1.475,0.107 2.825,0.337 2.999,0.511c0.228,0.228 -0.361,0.712 -2.1,1.725c-1.329,0.774 -2.511,1.457 -2.627,1.518c-0.116,0.061 -1.519,0.36 -3.118,0.664c-2.727,0.52 -3.01,0.525 -4.56,0.084c-1.814,-0.516 -3.631,-1.97 -3.631,-2.907c0,-0.518 1.062,-1.168 3.208,-1.964c0.436,-0.162 4.729,-0.001 9.829,0.369z" data-paper-data="{&quot;wickUUID&quot;:&quot;567b9569-df0d-4995-a36f-ecee05006292&quot;,&quot;wickType&quot;:&quot;path&quot;,&quot;originalStyle&quot;:{&quot;strokeColor&quot;:null,&quot;fillColor&quot;:[&quot;Color&quot;,1,1,1],&quot;strokeWidth&quot;:1}}" id="567b9569-df0d-4995-a36f-ecee05006292"/><path d="M491.74267,309.68113c-0.296,0.074 -1.556,0.828 -2.799,1.674c-1.242,0.846 -2.969,1.772 -3.836,2.056c-0.867,0.285 -3.61,1.306 -6.096,2.27l-4.521,1.753l-4.228,0.123c-3.517,0.102 -5.113,-0.008 -9.479,-0.653c-7.798,-1.152 -7.83,-1.155 -8.693,-0.589c-0.416,0.272 -0.899,0.93 -1.075,1.462c-0.707,2.144 0.596,3.683 3.555,4.197c6.596,1.147 10.992,1.539 15.983,1.425l5.104,-0.116l3.791,-1.483c2.085,-0.817 5.104,-1.94 6.708,-2.498c4.653,-1.617 8.588,-4.28 9.052,-6.126c0.481,-1.919 -1.558,-3.975 -3.466,-3.495z" data-paper-data="{&quot;wickUUID&quot;:&quot;4ccc6e14-8039-448e-a46f-f04970000ca8&quot;,&quot;wickType&quot;:&quot;path&quot;,&quot;originalStyle&quot;:{&quot;strokeColor&quot;:null,&quot;fillColor&quot;:[&quot;Color&quot;,1,1,1],&quot;strokeWidth&quot;:1}}" id="4ccc6e14-8039-448e-a46f-f04970000ca8"/><path d="M467.84526,252.63491c-2.905,0.219 -7.416,1.044 -9.409,1.721c-2.848,0.968 -5.809,2.514 -10.307,5.38c-5.559,3.542 -8.136,6.211 -10.616,10.992c-0.684,1.319 -1.989,3.288 -2.9,4.374c-3.662,4.369 -5.785,8.241 -7.403,13.496c-2.835,9.212 -3.53,11.798 -4.041,15.019c-0.33,2.089 -0.487,4.127 -0.389,5.057c0.181,1.72 4.59,15.244 5.94,18.221c1.564,3.449 5.277,8.304 7.624,9.969c0.678,0.481 1.908,1.467 2.733,2.191c2.856,2.507 3.882,2.883 10.249,3.761c2.82,0.389 14.381,0.408 18.227,0.031c1.524,-0.15 4.608,-0.615 6.853,-1.034c3.417,-0.637 5.083,-0.775 10.208,-0.844c5.624,-0.076 6.342,-0.146 8.789,-0.856c5.171,-1.501 8.379,-3.342 12.122,-6.957c2.764,-2.669 3.466,-4.059 4.741,-9.388c0.556,-2.323 1.221,-4.723 1.479,-5.333c0.858,-2.035 3.365,-11.57 3.819,-14.526c0.805,-5.241 -0.054,-13.056 -2.211,-20.123c-0.637,-2.085 -1.437,-4.764 -1.778,-5.952c-0.627,-2.182 -4.275,-9.562 -5.925,-11.984c-1.389,-2.04 -3.11,-3.784 -4.367,-4.425c-1.764,-0.9 -11.67,-4.738 -16.002,-6.2c-6.279,-2.119 -12.132,-2.988 -17.436,-2.59zM475.42726,258.83591c5.466,0.997 7.587,1.654 16.477,5.102c6.205,2.406 7.167,2.934 8.416,4.622c1.544,2.085 5.229,9.559 5.854,11.872c0.281,1.043 1.009,3.536 1.615,5.541c2.453,8.101 2.691,15.287 0.747,22.456c-0.588,2.165 -1.579,5.512 -2.204,7.437c-0.624,1.925 -1.406,4.681 -1.738,6.124c-1.109,4.832 -1.289,5.191 -3.744,7.436c-2.584,2.363 -5.583,4.028 -8.946,4.966c-2.341,0.654 -3.355,0.705 -10.498,0.53c-1.555,-0.038 -3.599,0.196 -6.125,0.703c-6.575,1.318 -8.681,1.513 -16.477,1.522c-7.526,0.008 -11.978,-0.356 -13.839,-1.134c-0.529,-0.221 -1.698,-1.039 -2.597,-1.817c-0.899,-0.778 -2.12,-1.809 -2.713,-2.29c-1.819,-1.476 -4.167,-4.548 -5.35,-7c-0.619,-1.283 -2.138,-5.351 -3.377,-9.04c-1.912,-5.695 -2.251,-6.994 -2.24,-8.603c0.013,-1.968 0.747,-6.361 1.209,-7.23c0.146,-0.275 0.672,-2.019 1.171,-3.877c2.18,-8.131 3.669,-11.66 6.352,-15.061c3.34,-4.232 4.071,-5.286 5.198,-7.487c1.718,-3.357 3.724,-5.622 6.746,-7.616c8.408,-5.548 11.328,-6.732 18.195,-7.383c4.132,-0.392 4.547,-0.38 7.868,0.227z" data-paper-data="{&quot;wickUUID&quot;:&quot;b41be255-0331-44a2-8659-2c160c5bc491&quot;,&quot;wickType&quot;:&quot;path&quot;,&quot;originalStyle&quot;:{&quot;strokeColor&quot;:null,&quot;fillColor&quot;:[&quot;Color&quot;,1,1,1],&quot;strokeWidth&quot;:1}}" id="b41be255-0331-44a2-8659-2c160c5bc491"/><path d="M527.338,232.81368c-12.379,1.024 -26.157,2.88 -30.038,4.047c-1.175,0.354 -3.397,0.536 -8.312,0.684c-6.239,0.188 -6.943,0.265 -10.081,1.108c-1.856,0.499 -5.202,1.115 -7.437,1.369c-5.839,0.666 -6.589,0.884 -9.126,2.658c-1.225,0.856 -3.015,2.045 -3.977,2.641c-4.047,2.507 -6.788,4.863 -9.501,8.165c-0.92,1.121 -1.895,1.745 -3.055,1.957c-1.555,0.284 -13.519,5.134 -18.135,7.352c-4.972,2.389 -6.452,3.457 -8.092,5.838c-1.067,1.549 -1.14,1.797 -1.346,4.604c-0.12,1.632 -0.571,4.541 -1.002,6.466c-1.007,4.5 -1.651,9.222 -1.515,11.11c0.12,1.656 0.39,2.248 3.313,7.263c4.403,7.555 4.407,7.562 5.495,11.901c0.888,3.541 1.164,4.255 1.913,4.941c0.983,0.902 1.949,1.011 3.204,0.362c1.772,-0.917 1.812,-1.659 0.395,-7.387c-1.12,-4.526 -1.22,-4.742 -5.956,-12.879c-2.712,-4.659 -2.662,-4.54 -2.484,-5.917c0.088,-0.675 0.228,-1.95 0.311,-2.832c0.084,-0.882 0.279,-1.998 0.434,-2.479c0.514,-1.598 1.472,-6.966 1.661,-9.302c0.257,-3.187 0.853,-3.824 5.779,-6.174c5.024,-2.397 16.577,-6.99 18.219,-7.243c1.551,-0.24 3.785,-1.825 5.441,-3.86c1.824,-2.242 3.996,-4.261 5.758,-5.355c0.905,-0.561 3.002,-1.953 4.661,-3.092c1.659,-1.14 3.356,-2.157 3.772,-2.262c0.416,-0.104 2.526,-0.386 4.69,-0.626c2.165,-0.24 5.486,-0.852 7.382,-1.361c3.259,-0.874 3.829,-0.935 10.446,-1.12c5.232,-0.147 7.294,-0.31 8.166,-0.647c0.641,-0.248 3.045,-0.792 5.342,-1.211c6.139,-1.118 24.314,-3.07 25.248,-2.711c0.258,0.099 0.469,0.507 0.469,0.907c0,0.4 0.456,3.718 1.013,7.373c1.622,10.643 2.856,21.456 3.238,28.378l0.185,3.359l-3.02,1.503c-3.612,1.799 -5.601,3.588 -8.692,7.819c-1.171,1.604 -2.605,3.414 -3.187,4.024c-0.881,0.923 -1.057,1.317 -1.057,2.369c0,1.032 0.257,1.634 1.41,3.306c1.756,2.546 2.755,3.495 5.122,4.86c2.404,1.386 5.678,3.864 7.224,5.469c0.668,0.693 2.334,2.836 3.702,4.761c1.904,2.679 2.405,3.577 2.139,3.831c-0.192,0.182 -2.58,1.546 -5.307,3.032c-2.726,1.485 -6.532,3.687 -8.457,4.894c-3.382,2.119 -10.513,7.578 -13.327,10.201l-1.369,1.277l-17.976,-0.023l-17.977,-0.022l-0.85,0.85c-1.393,1.393 -0.943,3.954 0.814,4.623c1.049,0.4 25.016,0.707 32.775,0.42l5.713,-0.211l1.724,-1.539c6.49,-5.792 12.431,-10.1 18.785,-13.623c13.486,-7.478 13.388,-7.398 12.558,-10.295c-0.292,-1.016 -5.366,-8.427 -7.654,-11.179c-1.672,-2.011 -5.393,-5.043 -8.647,-7.046c-1.337,-0.823 -2.74,-1.864 -3.118,-2.313l-0.688,-0.817l1.806,-2.545c2.894,-4.08 4.855,-5.864 7.93,-7.213c6.059,-2.66 5.896,-2.311 5.278,-11.282c-0.852,-12.353 -4.258,-37.33 -5.393,-39.556c-0.889,-1.742 -1.954,-1.995 -6.739,-1.6z" data-paper-data="{&quot;wickUUID&quot;:&quot;473861a8-26ad-49c9-998b-e67228356765&quot;,&quot;wickType&quot;:&quot;path&quot;,&quot;originalStyle&quot;:{&quot;strokeColor&quot;:null,&quot;fillColor&quot;:[&quot;Color&quot;,1,1,1],&quot;strokeWidth&quot;:1}}" id="473861a8-26ad-49c9-998b-e67228356765"/><path d="M296.76686,201.99807c-4.108,0.538 -9.912,2.272 -13.347,3.987c-2.883,1.44 -4.681,2.856 -9.206,7.249c-3.973,3.858 -5.141,5.653 -6.079,9.346c-1.661,6.535 -0.818,10.059 2.407,10.059c1.074,0 2.064,-0.602 2.681,-1.63c0.136,-0.227 1.489,-0.938 3.007,-1.582c1.517,-0.643 3.448,-1.528 4.291,-1.967c1.799,-0.937 2.847,-0.973 12.721,-0.435c7.141,0.389 7.722,0.532 14.024,3.437c6.035,2.783 8.02,3.503 9.5,3.447c1.648,-0.062 2.312,-0.468 3.121,-1.908c0.55,-0.977 0.636,-1.648 0.632,-4.922c-0.005,-4.189 -0.392,-6.288 -1.823,-9.891c-1.935,-4.871 -3.989,-8.759 -5.3,-10.031c-1.521,-1.476 -5.21,-3.404 -7.798,-4.074c-1.013,-0.263 -2.341,-0.686 -2.951,-0.941c-1.18,-0.493 -2.898,-0.535 -5.88,-0.144zM302.97086,208.46007c2.773,0.758 5.471,2.05 6.417,3.074c0.731,0.791 2.309,4.109 3.983,8.374c1.127,2.872 1.779,7.213 1.083,7.213c-0.184,0 -1.995,-0.76 -4.024,-1.688c-7.81,-3.574 -8.66,-3.803 -15.349,-4.148c-2.95,-0.151 -6.95,-0.364 -8.889,-0.472c-4.111,-0.23 -6.101,0.165 -9.421,1.869c-1.858,0.953 -2.84,1.283 -2.84,0.953c0,-0.063 0.292,-0.776 0.65,-1.585c0.753,-1.701 2.33,-3.455 6.381,-7.094c3.108,-2.792 5.6,-4.239 9.075,-5.271c6.992,-2.075 9.094,-2.275 12.934,-1.225z" data-paper-data="{&quot;wickUUID&quot;:&quot;0d610065-c6ef-4fa4-a35b-f3c7eac07570&quot;,&quot;wickType&quot;:&quot;path&quot;,&quot;originalStyle&quot;:{&quot;strokeColor&quot;:null,&quot;fillColor&quot;:[&quot;Color&quot;,1,1,1],&quot;strokeWidth&quot;:1}}"/><path d="M300.13858,192.83712c-4.282,0.947 -9.543,3.532 -11.866,5.829c-1.994,1.972 -4.533,5.926 -4.533,7.061c0,1.367 1.47,2.696 2.982,2.696c1.302,0 2.423,-0.937 3.716,-3.105c1.461,-2.452 5.035,-4.873 9.213,-6.242c1.389,-0.456 2.257,-0.51 5.364,-0.339c2.039,0.113 4.949,0.398 6.466,0.634c1.517,0.236 3.651,0.517 4.741,0.625c1.602,0.158 2.629,0.536 5.364,1.972c1.86,0.976 4.249,2.009 5.307,2.294c2.716,0.732 8.919,3.405 9.78,4.213c1.232,1.158 2.472,3.41 2.677,4.861c0.279,1.978 -0.305,5.573 -1.236,7.603c-0.979,2.134 -3.043,11.678 -3.653,16.89c-0.247,2.117 -0.452,5.85 -0.455,8.295c-0.005,4.579 -0.587,8.039 -1.614,9.593c-1.09,1.651 -4.145,4.007 -7.151,5.514c-1.465,0.734 -2.45,0.888 -10.284,1.609c-9.408,0.866 -23.997,-0.972 -28.458,-3.585c-1.663,-0.974 -4.876,-3.667 -5.058,-4.239c-0.402,-1.268 -0.227,-6.977 0.259,-8.449c0.276,-0.832 0.704,-3.349 0.951,-5.592c0.339,-3.066 0.834,-5.366 1.996,-9.273c0.85,-2.857 1.545,-5.551 1.545,-5.985c0,-0.471 -0.377,-1.166 -0.934,-1.723c-0.828,-0.828 -1.081,-0.915 -2.222,-0.762c-0.83,0.111 -1.513,0.435 -1.922,0.911c-0.366,0.425 -1.298,2.999 -2.198,6.073c-1.818,6.201 -1.809,6.159 -2.23,10.457c-0.176,1.805 -0.552,3.874 -0.834,4.597c-0.626,1.605 -0.685,9.392 -0.087,11.582c0.665,2.438 6.136,7.117 10.049,8.596c4.26,1.61 9.996,2.69 18.063,3.402c4.612,0.406 11.307,0.109 18.553,-0.825c3.67,-0.474 5.832,-1.377 9.633,-4.028c6.214,-4.333 7.382,-7.064 7.775,-18.177c0.258,-7.281 0.439,-8.872 1.709,-15.021c0.803,-3.884 1.332,-5.788 2.686,-9.655c0.906,-2.588 1.247,-6.298 0.842,-9.15c-0.37,-2.61 -1.631,-4.856 -4.167,-7.422c-1.68,-1.701 -2.223,-2.021 -6.284,-3.713c-2.444,-1.018 -5.134,-2.033 -5.977,-2.254c-0.843,-0.222 -3.257,-1.28 -5.364,-2.352c-3.509,-1.783 -4.064,-1.971 -6.591,-2.224c-1.517,-0.152 -4.414,-0.482 -6.437,-0.732c-4.999,-0.62 -8.645,-0.786 -10.116,-0.46z" data-paper-data="{&quot;wickUUID&quot;:&quot;ffb1b58b-7375-4ac4-9eae-08142d629e03&quot;,&quot;wickType&quot;:&quot;path&quot;,&quot;originalStyle&quot;:{&quot;strokeColor&quot;:null,&quot;fillColor&quot;:[&quot;Color&quot;,1,1,1],&quot;strokeWidth&quot;:1}}"/><path d="M340.25058,220.37467c-1.514,0.611 -2.129,2.849 -1.162,4.23c0.561,0.801 2.287,1.732 3.812,2.057c2.131,0.454 4.77,2.129 5.499,3.491c0.675,1.261 -0.111,6.403 -1.522,9.953c-1.469,3.696 -1.943,6.135 -1.67,8.603c0.479,4.344 0.527,4.177 -1.492,5.18c-1.172,0.583 -2.838,1.051 -4.829,1.358c-2.461,0.38 -3.186,0.615 -3.805,1.234c-1.557,1.557 -0.649,4.429 1.53,4.838c1.317,0.247 4.862,-0.343 7.548,-1.257c3.741,-1.272 5.924,-2.902 6.847,-5.113c0.559,-1.336 0.596,-2.751 0.156,-5.821c-0.349,-2.433 -0.239,-2.97 1.817,-8.826c0.629,-1.792 1.032,-3.763 1.292,-6.314c0.341,-3.347 0.325,-3.871 -0.16,-5.364c-0.296,-0.911 -0.869,-2.093 -1.274,-2.628c-1.265,-1.671 -5.016,-3.932 -8.25,-4.974c-3.18,-1.023 -3.343,-1.048 -4.337,-0.647z" data-paper-data="{&quot;wickUUID&quot;:&quot;a8c89daa-478d-41c9-ab02-cba6c320458f&quot;,&quot;wickType&quot;:&quot;path&quot;,&quot;originalStyle&quot;:{&quot;strokeColor&quot;:null,&quot;fillColor&quot;:[&quot;Color&quot;,1,1,1],&quot;strokeWidth&quot;:1}}"/><path d="M308.10872,185.14783c-4.678,0.639 -8.158,2.18 -10.659,4.721c-2.759,2.802 -3.316,4.779 -1.779,6.316c1.228,1.228 3.014,1.259 4.053,0.07c3.886,-4.447 5.203,-5.032 11.757,-5.225c3.921,-0.115 5.366,-0.015 9.809,0.681c7.345,1.152 7.957,1.31 9.584,2.49c0.798,0.579 2.058,1.429 2.799,1.89c3.416,2.121 7.592,5.676 9.189,7.82c2.604,3.498 2.914,4.755 2.131,8.651c-0.322,1.605 -0.56,1.984 -2.299,3.673c-1.759,1.708 -1.939,2 -1.939,3.139c0,1.026 0.172,1.401 0.943,2.049c1.224,1.03 2.286,1.003 4.03,-0.103c1.505,-0.955 3.747,-3.551 4.397,-5.093c0.217,-0.513 0.599,-2.314 0.851,-4.003c0.401,-2.693 0.403,-3.33 0.014,-5.186c-0.501,-2.39 -1.191,-3.688 -3.786,-7.133c-1.782,-2.364 -6.42,-6.36 -9.361,-8.064c-0.675,-0.391 -2.054,-1.376 -3.066,-2.19c-2.291,-1.843 -4.014,-2.385 -11.459,-3.599c-6.216,-1.015 -11.917,-1.354 -15.209,-0.904z" data-paper-data="{&quot;wickUUID&quot;:&quot;b2197a70-69de-4c74-b3ca-e4328cd859de&quot;,&quot;wickType&quot;:&quot;path&quot;,&quot;originalStyle&quot;:{&quot;strokeColor&quot;:null,&quot;fillColor&quot;:[&quot;Color&quot;,1,1,1],&quot;strokeWidth&quot;:1}}"/><path d="M357.13895,206.78199c-0.413,0.446 -0.751,1.046 -0.751,1.334c0,0.766 -1.397,2.146 -2.172,2.146c-0.37,0 -1.132,0.492 -1.706,1.101c-0.969,1.027 -6.473,4.11 -7.338,4.11c-0.684,0 -1.659,1.569 -1.659,2.67c0,0.758 0.253,1.308 0.896,1.952c1.048,1.047 1.864,1.117 4.674,0.401c2.331,-0.594 3.382,-1.1 5.006,-2.41c0.674,-0.545 1.658,-1.212 2.185,-1.484c3.244,-1.669 6.424,-6.402 5.765,-8.577c-0.407,-1.345 -1.377,-2.054 -2.807,-2.054c-1.056,0 -1.501,0.172 -2.093,0.811z" data-paper-data="{&quot;wickUUID&quot;:&quot;af2c9a31-1074-4dab-8568-3a181313ba28&quot;,&quot;wickType&quot;:&quot;path&quot;,&quot;originalStyle&quot;:{&quot;strokeColor&quot;:null,&quot;fillColor&quot;:[&quot;Color&quot;,1,1,1],&quot;strokeWidth&quot;:1}}"/><path d="M325.47814,177.78447c-5.392,1.08 -6.374,1.442 -13.729,5.067c-3.225,1.588 -6.006,2.888 -6.18,2.888c-0.175,0 -0.675,0.424 -1.111,0.943c-1.075,1.278 -1.04,2.536 0.102,3.679c1.642,1.641 2.568,1.396 11.273,-2.984c5.244,-2.639 6.128,-2.944 11.398,-3.933c6.94,-1.303 9.859,-0.925 15.908,2.06l3.173,1.564l3.888,-0.421c4.864,-0.526 6.115,-0.482 9.304,0.328c3.957,1.006 4.763,1.486 7.765,4.626c2.102,2.198 2.925,3.31 3.456,4.667c0.964,2.465 1.202,5.029 0.579,6.233c-0.692,1.339 -5.532,5.775 -7.159,6.563c-1.258,0.609 -1.661,0.647 -4.828,0.452l-3.455,-0.213l-0.81,0.963c-1.317,1.564 -1.013,3.543 0.678,4.417c2.201,1.138 7.931,1.091 10.595,-0.088c0.759,-0.335 2.317,-1.358 3.461,-2.271c4.176,-3.333 6.061,-5.555 7.391,-8.713c0.607,-1.441 0.641,-1.804 0.357,-3.831c-0.823,-5.887 -2.094,-8.372 -6.498,-12.705c-1.903,-1.872 -4.072,-3.713 -4.82,-4.091c-1.543,-0.78 -7.296,-2.298 -9.829,-2.593c-0.956,-0.112 -3.24,0.001 -5.28,0.261l-3.594,0.458l-3.15,-1.497c-6.318,-3.004 -10.837,-3.442 -18.885,-1.829z" data-paper-data="{&quot;wickUUID&quot;:&quot;65744819-f987-42fe-8b23-bacdc6d8c659&quot;,&quot;wickType&quot;:&quot;path&quot;,&quot;originalStyle&quot;:{&quot;strokeColor&quot;:null,&quot;fillColor&quot;:[&quot;Color&quot;,1,1,1],&quot;strokeWidth&quot;:1}}"/><path d="M309.67259,352.62157c-0.402,0.207 -1.039,0.835 -1.416,1.395c-0.542,0.804 -1.161,1.191 -2.947,1.842c-1.243,0.453 -2.799,0.829 -3.458,0.835c-0.659,0.006 -2.129,0.207 -3.267,0.447c-10.355,2.185 -13.899,2.508 -17.994,1.64c-1.61,-0.342 -3.205,-0.625 -3.545,-0.631c-0.34,-0.005 -1.149,-0.267 -1.799,-0.581c-0.65,-0.314 -1.488,-0.575 -1.862,-0.581c-1.796,-0.026 -3.261,1.735 -2.881,3.463c0.261,1.191 1.783,2.944 2.751,3.169c0.445,0.103 1.076,0.598 1.401,1.1c0.505,0.78 4.572,3.596 6.942,4.807c1.298,0.662 6.313,1.336 9.945,1.336c4.06,0 5.758,-0.365 9.302,-2.003c1.357,-0.627 3.174,-1.457 4.038,-1.844c1.935,-0.867 3.397,-2.442 4.39,-4.731c0.433,-1 0.994,-1.819 1.314,-1.921c0.846,-0.268 2.295,-1.582 2.78,-2.52c0.496,-0.959 0.562,-2.555 0.151,-3.638c-0.528,-1.386 -2.585,-2.234 -3.845,-1.584zM297.70059,363.76857c-0.373,0.604 -3.355,1.213 -5.515,1.126l-2.168,-0.088l3.397,-0.624c4.072,-0.749 4.52,-0.792 4.286,-0.414z" data-paper-data="{&quot;wickUUID&quot;:&quot;62b15ad3-96d7-4ed2-8167-2c1b20013dca&quot;,&quot;wickType&quot;:&quot;path&quot;,&quot;originalStyle&quot;:{&quot;strokeColor&quot;:null,&quot;fillColor&quot;:[&quot;Color&quot;,1,1,1],&quot;strokeWidth&quot;:1}}"/><path d="M303.63216,335.57852c-5.307,1.531 -18.001,4.424 -20.853,4.752c-1.13,0.13 -1.837,-0.066 -4.726,-1.308c-5.624,-2.418 -7.035,-2.593 -8.819,-1.092c-2.304,1.939 -0.965,5.162 2.146,5.162c1.126,0 2.607,0.527 6.159,2.192c1.262,0.591 2.669,1.149 3.128,1.241c1.475,0.295 17.46,-3.122 24.989,-5.343c2.499,-0.737 4.819,-1.339 5.157,-1.339c0.337,0 1.045,-0.386 1.572,-0.856c0.793,-0.709 0.958,-1.071 0.958,-2.099c0,-1.028 -0.165,-1.39 -0.958,-2.098c-1.331,-1.189 -2.163,-1.114 -8.753,0.788z" data-paper-data="{&quot;wickUUID&quot;:&quot;2e59756d-719f-488a-8dae-227067357034&quot;,&quot;wickType&quot;:&quot;path&quot;,&quot;originalStyle&quot;:{&quot;strokeColor&quot;:null,&quot;fillColor&quot;:[&quot;Color&quot;,1,1,1],&quot;strokeWidth&quot;:1}}"/><path d="M290.96242,341.32652c-0.593,0.467 -1.012,0.557 -1.915,0.413c-3.015,-0.482 -4.569,2.576 -2.944,5.795c0.874,1.732 1.677,2.12 3.914,1.888c2.749,-0.285 4.191,-1.039 4.877,-2.55c1.061,-2.338 0.643,-4.908 -0.931,-5.722c-1.129,-0.584 -2.108,-0.526 -3.001,0.176z" data-paper-data="{&quot;wickUUID&quot;:&quot;8ae95c84-e508-470a-b9c9-935361569806&quot;,&quot;wickType&quot;:&quot;path&quot;,&quot;originalStyle&quot;:{&quot;strokeColor&quot;:null,&quot;fillColor&quot;:[&quot;Color&quot;,1,1,1],&quot;strokeWidth&quot;:1}}"/><path d="M275.4583,340.27766c-0.589,0.495 -1.024,1.286 -1.353,2.457c-0.572,2.041 -0.603,2.995 -0.145,4.523c0.465,1.552 1.319,2.26 3.37,2.794c1.58,0.412 1.861,0.411 2.97,-0.013c2.068,-0.79 2.703,-2.034 2.843,-5.567c0.077,-1.948 0.046,-2.048 -0.885,-2.88c-0.531,-0.474 -1.292,-0.862 -1.692,-0.862c-0.4,0 -1.162,-0.266 -1.694,-0.59c-1.293,-0.788 -2.365,-0.745 -3.414,0.138z" data-paper-data="{&quot;wickUUID&quot;:&quot;1e58378e-c5cd-49a6-b4f2-09b3325da75f&quot;,&quot;wickType&quot;:&quot;path&quot;,&quot;originalStyle&quot;:{&quot;strokeColor&quot;:null,&quot;fillColor&quot;:[&quot;Color&quot;,1,1,1],&quot;strokeWidth&quot;:1}}"/><path d="M269.43516,345.90851c-0.914,0.496 -1.541,2.093 -1.26,3.212c0.347,1.383 1.608,2.134 3.908,2.327c1.593,0.133 2.547,0.423 4.141,1.259c1.936,1.013 2.143,1.061 3.155,0.727c1.138,-0.375 2.216,-1.742 2.216,-2.807c0,-1.234 -1.073,-2.377 -3.279,-3.491c-3.124,-1.579 -7.197,-2.142 -8.881,-1.227z" data-paper-data="{&quot;wickUUID&quot;:&quot;9cc6cc85-eeb6-43d1-aa7b-bbd86a7719ce&quot;,&quot;wickType&quot;:&quot;path&quot;,&quot;originalStyle&quot;:{&quot;strokeColor&quot;:null,&quot;fillColor&quot;:[&quot;Color&quot;,1,1,1],&quot;strokeWidth&quot;:1}}"/><path d="M294.61028,346.02879c-1.536,0.472 -3.916,1.433 -5.288,2.136c-2.015,1.033 -2.575,1.47 -2.911,2.27c-0.549,1.31 -0.254,2.509 0.844,3.433c1.196,1.007 1.843,0.947 4.728,-0.432c1.356,-0.649 3.595,-1.515 4.974,-1.926c2.893,-0.862 3.531,-1.375 3.751,-3.014c0.136,-1.009 0.035,-1.32 -0.687,-2.112c-1.175,-1.291 -2.15,-1.355 -5.411,-0.355z" data-paper-data="{&quot;wickUUID&quot;:&quot;d6ea8020-37ad-4bac-826d-d805ff9a9144&quot;,&quot;wickType&quot;:&quot;path&quot;,&quot;originalStyle&quot;:{&quot;strokeColor&quot;:null,&quot;fillColor&quot;:[&quot;Color&quot;,1,1,1],&quot;strokeWidth&quot;:1}}"/><path d="M301.39175,308.8217c-0.731,0.124 -3.856,0.379 -6.943,0.567c-3.087,0.188 -7.208,0.541 -9.158,0.784l-3.545,0.443l-7.09,3.574c-3.9,1.965 -7.525,3.897 -8.055,4.292c-1.184,0.881 -5.921,6.632 -7.621,9.252c-3.179,4.898 -3.88,7.541 -3.566,13.443c0.333,6.276 1.444,10.79 4.742,19.27c2.955,7.599 5.081,11.101 8.761,14.431c3.362,3.042 6.599,4.436 14.616,6.296c2.209,0.513 3.618,0.619 8.124,0.614c5.953,-0.006 9.78,-0.413 15.209,-1.619c4.359,-0.968 7.397,-1.993 8.23,-2.775c0.348,-0.327 1.124,-0.8 1.726,-1.051c0.649,-0.271 2.601,-1.978 4.805,-4.201c3.387,-3.417 3.83,-3.991 5.059,-6.57c1.317,-2.761 2.832,-7.858 3.213,-10.809c0.105,-0.813 0.534,-3.206 0.954,-5.318c1.212,-6.108 1.026,-10.244 -0.835,-18.612c-1.875,-8.427 -6.443,-14.691 -13.737,-18.838c-2.087,-1.186 -5.514,-2.269 -9.53,-3.011c-2.655,-0.49 -3.302,-0.51 -5.359,-0.162zM306.60375,315.0267c5.054,1.025 7.132,1.916 10.252,4.395c2.649,2.106 5.64,6.617 6.782,10.229c1.131,3.579 2.379,12.064 2.095,14.241c-0.08,0.617 -0.483,3.049 -0.896,5.405c-2.107,12.042 -3.002,14.338 -7.236,18.572c-2.326,2.326 -3.221,2.995 -5.611,4.195c-5.193,2.606 -10.623,3.625 -19.461,3.654c-5.909,0.018 -6.599,-0.037 -9.897,-0.791c-4.857,-1.111 -8.318,-2.821 -10.499,-5.186c-3.249,-3.524 -4.019,-4.906 -6.87,-12.34c-3.213,-8.378 -4.288,-13.644 -3.982,-19.501c0.127,-2.431 0.255,-2.922 1.193,-4.599c1.193,-2.133 3.101,-4.785 5.682,-7.899c1.766,-2.131 1.794,-2.149 8.419,-5.547c6.466,-3.316 6.728,-3.42 9.558,-3.804c1.601,-0.218 5.508,-0.55 8.682,-0.74c4.818,-0.287 6.626,-0.462 8.687,-0.84c0.104,-0.019 1.5,0.231 3.102,0.556z" data-paper-data="{&quot;wickUUID&quot;:&quot;497e2c35-4d37-4c9f-bceb-06f982b43edc&quot;,&quot;wickType&quot;:&quot;path&quot;,&quot;originalStyle&quot;:{&quot;strokeColor&quot;:null,&quot;fillColor&quot;:[&quot;Color&quot;,1,1,1],&quot;strokeWidth&quot;:1}}"/><path d="M329.50089,268.7902c-12,1.383 -23.026,4.823 -38.212,11.924c-3.256,1.522 -5.865,3.138 -8.255,5.114c-0.754,0.623 -1.502,1.133 -1.664,1.133c-0.513,0 -2.688,-3.64 -3.518,-5.888c-0.819,-2.218 -1.834,-3.266 -3.164,-3.269c-1.108,-0.002 -3.224,1.349 -4.872,3.111c-2.664,2.848 -4.506,7.139 -7.858,18.307c-2.475,8.249 -2.865,10.018 -2.862,12.998c0.003,3.862 1.811,11.979 3.186,14.307c1.224,2.073 4.235,1.899 5.145,-0.297c0.317,-0.765 0.319,-1.161 0.012,-2.156c-1.773,-5.734 -2.465,-9.012 -2.474,-11.706c-0.009,-2.592 0.129,-3.27 1.796,-8.863c3.175,-10.653 5.813,-17.652 6.547,-17.376c0.138,0.052 1.055,1.29 2.039,2.753c2.315,3.44 3.34,4.488 4.769,4.873c1.678,0.452 2.413,0.16 4.965,-1.97c4.793,-4 8.753,-6.078 20.716,-10.87c8.759,-3.508 17.799,-5.685 26.622,-6.411c4.757,-0.391 16.719,0.021 18.475,0.637c0.888,0.312 3.216,3.032 3.029,3.54c-0.051,0.139 -1.084,0.962 -2.296,1.829c-3.047,2.181 -5.69,5.355 -7.975,9.577c-5.258,9.717 -6.514,13.038 -6.514,17.233c0,2.524 0.048,2.729 0.843,3.618c0.742,0.83 1.092,0.969 2.935,1.166c6.246,0.668 17.379,6.266 22.85,11.49c1.373,1.311 2.49,2.764 3.52,4.579l1.508,2.659l-0.201,2.585l-0.202,2.585h-1.187c-1.818,0 -8.073,1.349 -11.572,2.495c-4.778,1.565 -12.141,5.967 -16.846,10.07c-1.159,1.011 -2.902,2.394 -3.872,3.074c-2.979,2.086 -9.806,7.99 -10.564,9.136c-0.395,0.596 -1.376,1.813 -2.182,2.704c-0.805,0.892 -1.688,1.95 -1.962,2.351c-0.769,1.129 -0.633,2.507 0.358,3.616c0.711,0.795 1.069,0.958 2.108,0.958c1.381,0 1.532,-0.134 5.502,-4.906c1.822,-2.191 7.416,-7.163 10.164,-9.034c0.742,-0.504 2.716,-2.066 4.388,-3.47c3.216,-2.699 4.386,-3.506 8.888,-6.133c3.351,-1.954 4.129,-2.291 7.561,-3.272c3.984,-1.139 7.282,-1.68 10.272,-1.684c1.543,-0.003 3.016,-0.162 3.438,-0.371c1.159,-0.574 2.135,-2.764 1.874,-4.204c-0.118,-0.65 -0.181,-2.81 -0.141,-4.8l0.072,-3.619l-1.004,-1.551c-0.552,-0.854 -1.441,-2.35 -1.976,-3.325c-1.461,-2.664 -2.433,-3.759 -5.589,-6.298c-5.703,-4.587 -13.636,-8.82 -19.616,-10.467l-3.485,-0.96l0.184,-1.01c0.557,-3.062 5.921,-13.6 8.605,-16.906c0.958,-1.179 2.504,-2.586 3.875,-3.524c4.165,-2.851 5.059,-3.814 5.078,-5.471c0.015,-1.268 -1.46,-4.018 -3.47,-6.473c-3.051,-3.726 -4.862,-4.192 -17.199,-4.426c-4.881,-0.093 -8.027,-0.007 -10.592,0.288z" data-paper-data="{&quot;wickUUID&quot;:&quot;295cbae0-b348-43d3-9b36-505e7318cd8e&quot;,&quot;wickType&quot;:&quot;path&quot;,&quot;originalStyle&quot;:{&quot;strokeColor&quot;:null,&quot;fillColor&quot;:[&quot;Color&quot;,1,1,1],&quot;strokeWidth&quot;:1}}"/><path d="M456.05015,161.16204c-3.07,0.384 -6.667,0.857 -7.995,1.051c-3.706,0.543 -9.167,2.722 -13.9,5.548c-2.164,1.292 -7.048,5.472 -8.777,7.511c-2.567,3.03 -4.442,7.667 -5.559,13.754c-0.598,3.256 -0.619,3.827 -0.293,7.885c0.657,8.161 1.359,11.778 3.066,15.804c1.892,4.459 4.55,7.572 8.852,10.364c2.913,1.89 4.565,2.604 8.616,3.719c4.955,1.364 5.361,1.45 10.71,2.255c2.655,0.4 6.06,0.946 7.566,1.214c2.201,0.391 2.992,0.418 4.032,0.138c1.873,-0.504 2.734,-1.482 2.734,-3.105v-1.317l2.941,-1.405c4.281,-2.045 6.43,-3.551 7.638,-5.353c0.623,-0.93 1.59,-1.868 2.423,-2.352c2.346,-1.36 4.246,-3.752 6.152,-7.747c2.02,-4.233 2.286,-5.395 3.213,-14.026c0.779,-7.255 0.79,-7.735 0.318,-13.878c-0.481,-6.258 -0.796,-7.143 -4.307,-12.101c-3.514,-4.963 -5.475,-6.304 -10.694,-7.314c-2.287,-0.443 -10.213,-1.449 -10.852,-1.377c-0.166,0.019 -2.814,0.348 -5.884,0.732zM467.79015,167.04704c7.368,0.933 7.89,1.197 10.965,5.533c2.52,3.555 2.886,4.476 2.965,7.465c0.032,1.228 0.19,3.183 0.35,4.345c0.301,2.176 0.074,5.933 -0.866,14.331c-0.416,3.719 -0.578,4.343 -1.868,7.184c-1.586,3.494 -2.894,5.231 -4.592,6.097c-0.634,0.324 -1.74,1.295 -2.456,2.157c-2.223,2.676 -2.855,3.156 -6.492,4.924c-4.218,2.052 -7.292,2.979 -11.556,3.487c-3.524,0.42 -6.173,0.114 -12.2,-1.408c-3.637,-0.919 -4.536,-1.283 -7.088,-2.872c-6.445,-4.014 -8.895,-9.79 -9.569,-22.557c-0.154,-2.914 -0.074,-4.053 0.478,-6.811c1.162,-5.815 2.867,-9.11 6.277,-12.13c3.122,-2.765 4.564,-3.782 7.492,-5.282c5.108,-2.617 7.163,-3.207 14.459,-4.148c8.223,-1.06 7.878,-1.052 13.701,-0.315z" data-paper-data="{&quot;wickUUID&quot;:&quot;a54d271c-d21d-400e-ac8d-083e323ead76&quot;,&quot;wickType&quot;:&quot;path&quot;,&quot;originalStyle&quot;:{&quot;strokeColor&quot;:null,&quot;fillColor&quot;:[&quot;Color&quot;,1,1,1],&quot;strokeWidth&quot;:1}}" id="5b767c16-ed04-4d50-baa9-8cddcc332b79"/><path d="M461.267,173.77433c-2.735,0.932 -4.54,1.992 -5.869,3.446c-0.745,0.815 -1.355,1.588 -1.355,1.717c0,0.129 -0.353,0.418 -0.785,0.641c-1.219,0.63 -1.584,1.441 -1.851,4.113c-0.136,1.351 -0.312,2.87 -0.393,3.375l-0.146,0.92l-5.308,-0.146c-3.158,-0.086 -5.788,-0.285 -6.491,-0.489c-0.65,-0.19 -1.338,-0.39 -1.53,-0.445c-0.264,-0.077 -0.225,-0.257 0.16,-0.746c0.279,-0.355 0.654,-1.17 0.833,-1.811c0.279,-0.994 0.264,-1.297 -0.098,-2.06c-0.503,-1.06 -1.626,-1.79 -2.754,-1.79c-2.422,0 -5.804,6.398 -4.739,8.967c0.467,1.128 1.705,2.517 2.705,3.034c1.203,0.622 6.207,1.875 8.831,2.212l2.311,0.296l0.145,1.085c0.111,0.826 0.389,1.306 1.162,2.006c0.559,0.506 1.224,1.038 1.478,1.183c0.396,0.225 0.426,0.424 0.209,1.385c-0.345,1.528 -1.401,2.83 -2.923,3.601l-1.27,0.643l-1.8,-0.508c-0.99,-0.28 -2.628,-0.805 -3.639,-1.168c-3.101,-1.111 -5.798,-0.868 -7.81,0.703c-2.512,1.961 -3.072,9.975 -0.821,11.745c1.27,0.999 3.53,0.53 4.291,-0.891c0.246,-0.46 0.374,-1.602 0.384,-3.415c0.009,-1.499 0.093,-2.802 0.187,-2.897c0.094,-0.094 1.849,0.368 3.9,1.029c4.843,1.559 5.941,1.582 8.815,0.185c2.156,-1.048 4.366,-3.05 5.55,-5.027c0.61,-1.019 1.397,-4.561 1.397,-6.287c0,-0.612 0.089,-1.069 0.197,-1.016c1.321,0.643 1.654,0.917 1.933,1.591c0.263,0.636 0.257,1.021 -0.031,2.002c-0.196,0.668 -0.405,1.89 -0.463,2.716c-0.095,1.351 -0.023,1.617 0.722,2.653c1.943,2.706 4.968,3.049 6.181,0.703c0.492,-0.951 0.494,-2.091 0.006,-3.924c-0.434,-1.632 -0.334,-1.848 1.093,-2.353c2.13,-0.754 4.811,-3.728 4.811,-5.337c0,-2.593 -2.771,-3.888 -4.969,-2.323c-1.037,0.739 -2.28,0.716 -2.671,-0.049c-0.166,-0.325 -0.832,-1.276 -1.479,-2.112l-1.178,-1.521l0.837,-2.157c1.397,-3.598 1.654,-4.143 2.063,-4.372c0.242,-0.135 1.265,0.021 2.647,0.403c2.93,0.811 4.652,0.82 5.821,0.033c1.378,-0.929 2.15,-2.239 2,-3.39c-0.138,-1.055 -1.531,-2.998 -2.33,-3.252c-0.271,-0.086 -1.031,-0.622 -1.688,-1.191c-0.658,-0.569 -1.523,-1.204 -1.922,-1.411c-1.101,-0.569 -3.152,-0.71 -4.356,-0.299z" data-paper-data="{&quot;wickUUID&quot;:&quot;bd57f674-0039-4a10-9c56-bdfbcccb4db8&quot;,&quot;wickType&quot;:&quot;path&quot;,&quot;originalStyle&quot;:{&quot;strokeColor&quot;:null,&quot;fillColor&quot;:[&quot;Color&quot;,1,1,1],&quot;strokeWidth&quot;:1}}"/></g><g fill="none" fill-rule="nonzero" stroke="none" stroke-width="1" stroke-linecap="butt" stroke-linejoin="miter" stroke-miterlimit="10" stroke-dasharray="" stroke-dashoffset="0" font-family="sans-serif" font-weight="normal" font-size="12" text-anchor="start" style="mix-blend-mode: normal"/><g id="wick_project_gui" fill="none" fill-rule="nonzero" stroke="none" stroke-width="1" stroke-linecap="butt" stroke-linejoin="miter" stroke-miterlimit="10" stroke-dasharray="" stroke-dashoffset="0" font-family="sans-serif" font-weight="normal" font-size="12" text-anchor="start" style="mix-blend-mode: normal"/></g></svg>