<svg version="1.1" xmlns="http://www.w3.org/2000/svg" xmlns:xlink="http://www.w3.org/1999/xlink" width="1260" height="594" viewBox="0,0,1260,594"><g transform="translate(175.45524,113.67446) scale(0.94752,0.94752)"><g id="wick_project_bg" fill="#333333" fill-rule="nonzero" stroke="none" stroke-width="1" stroke-linecap="butt" stroke-linejoin="miter" stroke-miterlimit="10" stroke-dasharray="" stroke-dashoffset="0" font-family="none" font-weight="none" font-size="none" text-anchor="none" style="mix-blend-mode: normal"><rect x="0" y="0" width="720" height="480"/></g><g data-paper-data="{&quot;wickUUID&quot;:&quot;8e24186d-42df-4c1d-88eb-757691b17032&quot;,&quot;wickType&quot;:&quot;clipsandpaths&quot;}" fill="none" fill-rule="nonzero" stroke="none" stroke-width="1" stroke-linecap="butt" stroke-linejoin="miter" stroke-miterlimit="10" stroke-dasharray="" stroke-dashoffset="0" font-family="sans-serif" font-weight="normal" font-size="12" text-anchor="start" style="mix-blend-mode: normal"/><g data-paper-data="{&quot;wickUUID&quot;:&quot;50ddb9e0-a8ad-492f-b2c5-0a7392c1be59&quot;,&quot;wickType&quot;:&quot;clipsandpaths&quot;}" fill="#ffffff" fill-rule="evenodd" stroke="none" stroke-width="1" stroke-linecap="butt" stroke-linejoin="miter" stroke-miterlimit="10" stroke-dasharray="" stroke-dashoffset="0" font-family="none" font-weight="none" font-size="none" text-anchor="none" style="mix-blend-mode: normal"><path d="M41.42619,36.32205c-3.57,16.162 -8.92024,37.8222 -12.12224,49.0762c-1.38233,4.85833 -3.64859,13.5554 -5.03759,19.3304c-1.389,5.775 -2.63314,10.98794 -2.73314,11.30894c-0.16433,0.52767 1.03204,1.41273 3.84237,1.3934c7.12,-0.049 10.63135,-0.50274 16.53735,-2.13407c3.536,-0.97633 6.71066,-2.10154 7.98399,-2.81221c2.94567,-1.64433 7.57366,-5.55992 9.34899,-7.84659c9.78933,-12.60533 14.3012,-22.90679 17.83687,-40.74046c0.619,-3.12367 0.81495,-5.26682 0.82928,-10.29182c0.016,-5.59967 -0.10328,-6.66698 -0.80961,-8.78598c-1.175,-3.52367 -5.41671,-11.54944 -7.08071,-13.40044c-1.76267,-1.96033 -5.49265,-4.82421 -7.32198,-5.63388c-1.69167,-0.749 -12.87572,-2.68745 -15.53305,-2.68745l-2.92945,0.53811zM51.18147,57.32083c0.52967,0.52967 0.67092,0.99974 0.67092,1.39941c0,0.39967 0.65831,1.44083 1.49531,2.37216c1.85533,2.06367 4.23781,6.86826 4.76648,9.63626c0.343,1.79633 0.34319,1.77156 -0.27881,4.23223c-1.00267,3.966 -3.01034,7.20568 -6.81167,10.98835c-2.74233,2.729 -3.10282,2.95855 -5.46749,3.87022c-1.455,0.56133 -3.11993,1.05778 -3.8696,1.17778c-0.74933,0.11967 -1.32757,0.38276 -1.5369,0.63509c-0.61133,0.73667 -2.36351,0.76541 -3.25851,-0.07492c-0.68833,-0.647 -0.4686,-0.26174 -0.4686,-2.77941c0,-4.76067 1.14098,-10.45854 3.53031,-17.64254c1.189,-3.575 2.4987,-7.79642 2.9287,-9.44642c0.43,-1.65 0.73209,-3.03236 0.95776,-3.52703c0.54267,-1.19067 1.58189,-1.53003 4.50756,-1.6177c2.25,-0.06733 1.93287,-0.12515 2.83454,0.77652z" data-paper-data="{&quot;wickUUID&quot;:&quot;b3bf28b0-b0ce-4762-a6d9-41f35f94a57b&quot;,&quot;wickType&quot;:&quot;path&quot;,&quot;originalStyle&quot;:{&quot;strokeColor&quot;:null,&quot;fillColor&quot;:[&quot;Color&quot;,1,1,1],&quot;strokeWidth&quot;:1}}" id="b3bf28b0-b0ce-4762-a6d9-41f35f94a57b"/><path d="M177.79244,14.53353c-3.02,0.51033 -4.69058,1.86396 -10.20591,8.29096c-4.16,4.84767 -4.5311,5.39572 -7.42743,11.24272c-1.65267,3.33667 -3.86145,7.93219 -4.85212,10.09952c-1.60633,3.51367 -1.5295,4.94782 -1.05617,5.31149c0.74833,0.57533 7.0491,2.32274 9.7351,2.72574c1.50767,0.226 1.10822,0.8022 7.23922,-7.3818c3.09433,-4.13033 3.99571,-4.84628 6.10171,-4.84628c0.947,0 1.47617,-0.18402 2.39017,-0.91035c0.948,-0.75333 1.06856,-0.97602 2.12523,-0.97602c1.74,0 1.888,-0.03565 1.888,1.67602c0,1.48 -0.18029,1.62885 -2.15096,4.20085l-1.59409,2.23822l0.71845,3.33702c0.87767,3.74867 2.27964,11.60596 3.84097,21.52596c1.38433,8.797 1.84583,12.6289 1.8495,15.44057c0.00267,1.95667 0.15901,1.50744 -1.09232,2.63811c-0.92333,0.834 -1.27147,0.9672 -2.29014,1.09953c-8.11133,1.05267 -11.75408,1.60833 -12.64341,1.91833c-1.01167,0.35267 -1.66541,1.37064 -1.46241,2.68864c0.268,1.739 1.08393,4.34184 2.0936,6.62551l1.09105,2.18811l1.9969,-0.02904c0.77667,-0.10233 4.05288,-0.41811 7.26121,-0.69944c12.56667,-1.10267 16.42167,-1.59483 27.085,-3.4595c2.153,-0.37667 5.59163,-0.78735 7.6263,-0.91102c2.79467,-0.16967 4.44845,-0.96935 4.59045,-1.33935c0.239,-0.62233 -0.51786,-9.9265 -0.89686,-10.92283c-0.156,-0.41067 -1.56014,-1.53107 -1.94081,-1.63074c-1.18633,-0.31 -9.40915,1.76659 -10.47182,2.64492c-1.41067,1.16633 -2.49008,1.18347 -3.97808,-0.18353c-1.04533,-0.96 -0.8955,-0.8922 -1.37617,-3.3702c-0.76467,-3.94267 -2.81684,-17.93752 -3.07251,-20.95052c-0.11667,-1.375 -0.64204,-4.96825 -1.16871,-7.99325c-1.28867,-7.398 -1.88136,-11.78427 -2.50236,-18.52994c-0.64367,-6.99233 -1.08972,-8.83301 -3.23039,-14.02868c-3.295,-7.996 -3.35617,-8.07662 -8.15617,-8.02562c-2.03067,0.02133 -5.21569,0.15256 -6.06402,0.29589z" data-paper-data="{&quot;wickUUID&quot;:&quot;b3dffdb5-125b-48d8-bda4-2a5054b9862c&quot;,&quot;wickType&quot;:&quot;path&quot;,&quot;originalStyle&quot;:{&quot;strokeColor&quot;:null,&quot;fillColor&quot;:[&quot;Color&quot;,1,1,1],&quot;strokeWidth&quot;:1}}" id="b3dffdb5-125b-48d8-bda4-2a5054b9862c"/><path d="M186.71057,6.76949c-11.714,1.959 -20.204,4.427 -21.986,6.39c-0.582,0.642 -1.225,1.878 -1.428,2.747c-0.352,1.511 -6.519,12.807 -14.126,25.878c-3.596,6.178 -4.092,7.762 -2.898,9.254c2.006,2.507 6.938,5.723 10.32,6.73c7.203,2.145 9.848,1.416 15.747,-4.34c1.515,-1.477 2.869,-2.57 3.011,-2.428c1.063,1.063 5.836,29.756 5.476,32.917c-0.174,1.527 -0.205,1.54 -4.654,1.941c-5.23,0.472 -11.302,2.069 -12.711,3.345c-0.543,0.491 -0.988,1.314 -0.988,1.828c0,2.017 2.579,10.412 4.16,13.546c1.983,3.928 3.532,4.929 5.566,3.596c1.72,-1.127 1.687,-2.295 -0.169,-6.005c-1.756,-3.51 -3.04,-8.425 -2.375,-9.09c0.502,-0.501 5.773,-1.359 11.465,-1.867c2.903,-0.259 3.892,-0.586 4.938,-1.632c1.251,-1.25 1.292,-1.496 0.944,-5.614c-0.744,-8.802 -5.303,-35.54 -6.348,-37.231c-0.154,-0.249 0.672,-1.552 1.834,-2.895c2.174,-2.512 2.723,-4.721 1.482,-5.962c-1.031,-1.031 -3.31,-0.727 -4.564,0.608c-0.809,0.861 -1.563,1.165 -2.462,0.993c-1.713,-0.328 -3.624,0.986 -5.302,3.645c-1.122,1.777 -5.011,6.858 -6.494,8.484c-0.358,0.391 -6.744,-1.059 -9.709,-2.205c-0.869,-0.335 -1.384,-0.855 -1.222,-1.232c2.507,-5.815 8.747,-18.544 9.876,-20.145c0.818,-1.16 3.536,-4.36 6.041,-7.113c4.17,-4.584 4.783,-5.057 7.272,-5.613c3.11,-0.696 9.282,-0.882 10.155,-0.307c0.791,0.521 2.308,3.615 4.615,9.415c1.708,4.293 1.969,5.604 2.418,12.119c0.572,8.296 2.47,20.02 4.807,29.697c2.341,9.69 3.115,14.102 3.115,17.745c0,3.571 0.78,4.911 2.854,4.911c2.381,0 2.942,-1.437 2.942,-7.538c0,-5.486 -1.365,-20.146 -2.854,-30.661c-0.465,-3.281 -0.744,-9.641 -0.738,-16.86c0.008,-10.438 -0.101,-11.904 -1.097,-14.734c-0.609,-1.729 -1.107,-3.574 -1.107,-4.101c0,-0.527 -0.591,-2.125 -1.313,-3.551c-2.425,-4.784 -6.308,-6.034 -14.493,-4.665zM195.71857,13.63149c0.542,1.012 1.24,3.4 2.282,7.808c0.172,0.724 -0.74,-0.817 -2.027,-3.425c-1.286,-2.608 -2.355,-4.92 -2.376,-5.137c-0.085,-0.893 1.551,-0.312 2.121,0.754z" data-paper-data="{&quot;wickUUID&quot;:&quot;f63911fa-0d72-4c38-bef8-adca0c89b402&quot;,&quot;wickType&quot;:&quot;path&quot;,&quot;originalStyle&quot;:{&quot;strokeColor&quot;:null,&quot;fillColor&quot;:[&quot;Color&quot;,1,1,1],&quot;strokeWidth&quot;:1}}" id="f63911fa-0d72-4c38-bef8-adca0c89b402"/><path d="M193.67758,12.2483c-1.574,1.103 -1.497,2.76 0.387,8.334c1.744,5.161 1.973,6.827 2.684,19.561c0.971,17.393 1.524,24.928 2.055,27.99c0.295,1.703 0.898,5.671 1.339,8.819c0.755,5.382 1.091,7.283 1.655,9.381c0.505,1.879 2.825,1.978 8.915,0.38c8.934,-2.345 8.351,-2.629 9.013,4.406c0.307,3.26 0.459,6.105 0.337,6.322c-0.121,0.218 -1.851,0.396 -3.843,0.396c-1.993,0 -5.356,0.364 -7.474,0.81c-8.455,1.778 -15.858,2.708 -31.215,3.923c-5.022,0.396 -7.062,0.766 -7.772,1.409c-1.266,1.146 -1.218,2.559 0.135,3.912c1.005,1.004 1.484,1.068 5.664,0.751c16.117,-1.221 27.791,-2.695 35.653,-4.5c1.159,-0.266 3.957,-0.49 6.217,-0.497c4.771,-0.015 6.8,-0.836 8.052,-3.258c0.752,-1.453 0.779,-2.356 0.23,-7.68c-0.342,-3.318 -0.461,-7.202 -0.265,-8.632c0.277,-2.01 0.154,-2.912 -0.542,-3.974c-0.878,-1.339 -1.003,-1.365 -4.925,-1.035c-2.214,0.186 -6.016,0.815 -8.449,1.398c-2.433,0.583 -4.51,0.975 -4.615,0.87c-0.104,-0.105 -0.435,-2.184 -0.735,-4.621c-0.299,-2.437 -0.899,-6.208 -1.332,-8.382c-0.773,-3.873 -1.256,-10.23 -2.304,-30.295c-0.589,-11.275 -0.979,-13.822 -3.141,-20.518c-1.891,-5.855 -3.187,-7.047 -5.724,-5.27z" data-paper-data="{&quot;wickUUID&quot;:&quot;a319701c-9253-4544-b657-8986c2146d03&quot;,&quot;wickType&quot;:&quot;path&quot;,&quot;originalStyle&quot;:{&quot;strokeColor&quot;:null,&quot;fillColor&quot;:[&quot;Color&quot;,1,1,1],&quot;strokeWidth&quot;:1}}" id="a319701c-9253-4544-b657-8986c2146d03"/><path d="M44.43656,17.9396c-1.966,0.094 -3.142,0.269 -3.532,0.523c-0.788,0.514 -1.562,2.184 -1.858,4.006c-0.254,1.565 -3.136,14.919 -4.75,22.006c-3.082,13.535 -8.151,33.42 -10.094,39.601c-0.82,2.608 -2.097,7.279 -2.838,10.381c-3.049,12.761 -4.928,20.123 -5.704,22.35c-0.792,2.27 -0.809,2.397 -0.441,3.448c0.788,2.256 2.917,2.615 13.453,2.266c7.724,-0.255 8.152,-0.311 12.655,-1.647c1.639,-0.487 3.758,-1.063 4.707,-1.279c5.118,-1.169 8.97,-3.507 15.104,-9.168c2.293,-2.116 10.498,-13.868 12.582,-18.021c1.586,-3.161 5.325,-13.576 6.451,-17.973c1.176,-4.587 2.761,-13.34 3.011,-16.625c0.49,-6.431 -0.028,-12.147 -1.441,-15.896c-0.713,-1.892 -4.355,-9.057 -6.088,-11.978c-1.371,-2.31 -5.166,-5.69 -8.834,-7.869c-1.526,-0.906 -2.837,-1.676 -2.912,-1.711c-0.076,-0.035 -2.037,-0.368 -4.358,-0.741c-2.321,-0.373 -5.268,-0.897 -6.549,-1.164c-2.807,-0.586 -4.671,-0.697 -8.564,-0.509zM52.38256,24.3466c1.339,0.264 4.033,0.734 5.986,1.045c3.384,0.538 3.654,0.626 5.745,1.878c1.359,0.813 3.033,2.143 4.397,3.492c2.073,2.051 2.348,2.458 4.676,6.921c2.962,5.676 3.678,7.599 4.04,10.849c0.601,5.382 0.267,10.026 -1.252,17.452c-1.345,6.572 -1.833,8.451 -3.396,13.094c-3.189,9.475 -5.594,14.046 -11.8,22.427c-2.964,4.004 -3.725,4.847 -6.346,7.029c-3.898,3.245 -6.339,4.556 -10.046,5.394c-1.03,0.233 -3.171,0.817 -4.758,1.297c-1.587,0.479 -3.836,0.989 -4.998,1.131c-2.551,0.313 -12.494,0.479 -12.494,0.208c0,-0.106 0.91,-3.912 2.021,-8.458c1.112,-4.547 2.553,-10.481 3.204,-13.186c0.65,-2.706 1.758,-6.727 2.461,-8.935c2.769,-8.693 9.576,-36.446 13.796,-56.248l1.23,-5.767l1.524,-0.155c1.831,-0.185 2.815,-0.098 6.01,0.532z" data-paper-data="{&quot;wickUUID&quot;:&quot;df0136b5-d53c-4a49-8a02-7b5f678f42dd&quot;,&quot;wickType&quot;:&quot;path&quot;,&quot;originalStyle&quot;:{&quot;strokeColor&quot;:null,&quot;fillColor&quot;:[&quot;Color&quot;,1,1,1],&quot;strokeWidth&quot;:1}}" id="df0136b5-d53c-4a49-8a02-7b5f678f42dd"/><path d="M44.8212,56.24043c-1.298,0.572 -1.628,1.211 -2.41,4.653c-0.414,1.825 -0.95,3.837 -1.191,4.471c-1.943,5.111 -4.203,12.335 -4.472,14.289c-0.169,1.234 -0.531,3.562 -0.805,5.173c-0.274,1.611 -0.431,3.238 -0.348,3.616c0.253,1.153 1.518,2.152 2.764,2.183c0.619,0.015 1.461,0.263 1.976,0.582c0.493,0.306 1.108,0.556 1.367,0.557c0.923,0.002 5.957,-1.883 6.963,-2.607c1.444,-1.04 4.641,-4.201 5.787,-5.723c2.3,-3.053 4.222,-7.335 4.497,-10.02c0.215,-2.105 -0.404,-4.833 -1.714,-7.54c-3.456,-7.147 -8.747,-11.253 -12.414,-9.634zM50.0602,65.23943c2.07,2.994 2.922,5.028 2.944,7.027c0.016,1.442 -0.121,1.977 -0.95,3.712c-2.03,4.254 -5.659,8.115 -8.539,9.088c-0.83,0.28 -1.528,0.489 -1.551,0.464c-0.023,-0.025 0.13,-1.429 0.34,-3.121c0.386,-3.113 2.066,-8.85 4.053,-13.841c0.449,-1.128 1.021,-2.89 1.271,-3.916c0.532,-2.182 0.516,-2.186 2.432,0.587z" data-paper-data="{&quot;wickUUID&quot;:&quot;26e76f66-6c85-4827-a706-640bef637d19&quot;,&quot;wickType&quot;:&quot;path&quot;,&quot;originalStyle&quot;:{&quot;strokeColor&quot;:null,&quot;fillColor&quot;:[&quot;Color&quot;,1,1,1],&quot;strokeWidth&quot;:1}}" id="26e76f66-6c85-4827-a706-640bef637d19"/><path d="M48.1082,56.03712c-1.277,0.63 -2.409,3.169 -5.129,11.506c-0.92,2.82 -2.568,7.26 -3.663,9.868c-2.652,6.319 -3.673,9.754 -3.706,12.478c-0.014,1.131 0.095,1.445 0.733,2.112c0.933,0.975 2.068,1.214 3.307,0.696c1.151,-0.481 1.412,-1.053 2.419,-5.289c0.522,-2.196 1.409,-4.738 2.816,-8.074c1.129,-2.679 2.65,-6.774 3.38,-9.1c1.173,-3.741 2.646,-7.733 3.75,-10.163c0.775,-1.707 0.318,-3.292 -1.174,-4.064c-0.939,-0.485 -1.705,-0.477 -2.733,0.03z" data-paper-data="{&quot;wickUUID&quot;:&quot;021ab93a-9e31-4b81-bd33-2855cc16f456&quot;,&quot;wickType&quot;:&quot;path&quot;,&quot;originalStyle&quot;:{&quot;strokeColor&quot;:null,&quot;fillColor&quot;:[&quot;Color&quot;,1,1,1],&quot;strokeWidth&quot;:1}}" id="021ab93a-9e31-4b81-bd33-2855cc16f456"/><path d="M99.41612,55.28948c-1.486,0.137 -7.233,1.311 -8.614,1.761c-1.901,0.619 -2.624,1.71 -3.307,4.982c-0.191,0.916 -0.86,2.992 -1.487,4.614c-2.484,6.423 -6.467,21.028 -8.247,30.245c-0.586,3.031 -1.19,6.163 -1.344,6.961c-0.47,2.439 0.148,3.321 2.945,4.203c1.247,0.393 1.652,0.416 2.767,0.159c1.676,-0.387 8.784,-0.389 11.918,-0.004c2.98,0.366 4.045,0.111 5.277,-1.261c0.704,-0.784 0.971,-1.435 1.468,-3.578c0.736,-3.178 0.627,-4.081 -0.624,-5.179c-1.049,-0.921 -0.654,-0.897 -8.128,-0.491c-4.004,0.218 -5.661,0.225 -5.86,0.026c-0.199,-0.199 -0.09,-1.063 0.386,-3.056c0.365,-1.528 1.192,-5.373 1.838,-8.545c0.646,-3.172 1.5,-6.748 1.898,-7.946c0.82,-2.468 2.673,-9.166 3.114,-11.254c0.549,-2.6 0.826,-3.006 2.179,-3.192c2.011,-0.275 3.886,-0.192 8.38,0.374c4.802,0.605 5.156,0.557 6.548,-0.878c1.003,-1.035 1.756,-4.121 1.324,-5.428c-0.275,-0.834 -1.272,-1.919 -2.178,-2.371c-0.484,-0.241 -8.03,-0.346 -10.253,-0.142z" data-paper-data="{&quot;wickUUID&quot;:&quot;d2e14b31-2abd-4066-9fec-d5e4bc70b069&quot;,&quot;wickType&quot;:&quot;path&quot;,&quot;originalStyle&quot;:{&quot;strokeColor&quot;:null,&quot;fillColor&quot;:[&quot;Color&quot;,1,1,1],&quot;strokeWidth&quot;:1}}" id="d2e14b31-2abd-4066-9fec-d5e4bc70b069"/><path d="M94.90895,72.13169c-0.058,0.057 -1.187,0.234 -2.507,0.394c-3.785,0.457 -4.346,0.898 -4.657,3.664c-0.126,1.121 -0.51,2.531 -0.964,3.542c-0.689,1.534 -0.847,1.707 -1.826,2c-1.857,0.557 -2.615,2.603 -1.588,4.287c0.742,1.216 1.735,1.512 3.945,1.174c1.019,-0.155 2.832,-0.352 4.03,-0.437c1.199,-0.085 2.492,-0.274 2.875,-0.419c0.794,-0.303 1.708,-1.651 3.357,-4.952c1.945,-3.898 2.541,-5.506 2.372,-6.405c-0.182,-0.97 -1.201,-2.007 -2.508,-2.553c-0.886,-0.37 -2.283,-0.533 -2.529,-0.295z" data-paper-data="{&quot;wickUUID&quot;:&quot;91b044e9-dd76-4911-bffa-9a6e4e0d1796&quot;,&quot;wickType&quot;:&quot;path&quot;,&quot;originalStyle&quot;:{&quot;strokeColor&quot;:null,&quot;fillColor&quot;:[&quot;Color&quot;,1,1,1],&quot;strokeWidth&quot;:1}}" id="91b044e9-dd76-4911-bffa-9a6e4e0d1796"/><path d="M104.58322,68.69662c-0.886,0.562 -1.348,1.086 -1.716,1.944c-0.277,0.646 -0.503,1.306 -0.503,1.467c0,0.161 -0.277,1.045 -0.615,1.965c-0.985,2.681 -2.648,9.174 -2.956,11.541c-0.155,1.198 -0.475,3.246 -0.71,4.55c-0.392,2.176 -0.394,2.442 -0.019,3.228c0.718,1.506 1.402,1.644 7.682,1.558c3.059,-0.042 5.77,-0.189 6.024,-0.327c0.254,-0.138 0.8,-0.606 1.214,-1.041c0.615,-0.646 0.771,-1.061 0.852,-2.265c0.088,-1.302 0.007,-1.618 -0.693,-2.708c-1.014,-1.578 -2.884,-2.5 -5.443,-2.683c-0.969,-0.069 -1.807,-0.2 -1.864,-0.292c-0.193,-0.313 1.201,-3.407 2.423,-5.378c2.106,-3.395 3.571,-7.768 3.224,-9.618c-0.455,-2.425 -4.39,-3.532 -6.9,-1.941z" data-paper-data="{&quot;wickUUID&quot;:&quot;20386196-e674-43f1-9435-900c3b95bccc&quot;,&quot;wickType&quot;:&quot;path&quot;,&quot;originalStyle&quot;:{&quot;strokeColor&quot;:null,&quot;fillColor&quot;:[&quot;Color&quot;,1,1,1],&quot;strokeWidth&quot;:1}}" id="20386196-e674-43f1-9435-900c3b95bccc"/><path d="M123.63826,70.40947c-2.086,0.342 -2.639,1.005 -3.337,4.002c-0.868,3.727 -1.767,6.574 -4.346,13.765c-2.963,8.261 -2.756,7.605 -3.472,11.022c-0.31,1.48 -0.83,3.671 -1.157,4.87c-0.682,2.503 -0.6,3.169 0.552,4.481c1.089,1.241 3.092,1.835 4.789,1.422c1.575,-0.384 1.914,-0.662 3.004,-2.467c1.441,-2.388 3.948,-11.476 5.23,-18.963c0.268,-1.561 0.652,-3.234 0.853,-3.716c0.201,-0.483 0.51,-1.512 0.687,-2.288c0.176,-0.775 0.714,-2.595 1.194,-4.044c1.168,-3.524 1.196,-5.31 0.102,-6.556c-0.831,-0.947 -2.222,-1.724 -2.985,-1.668c-0.26,0.019 -0.762,0.082 -1.114,0.14z" data-paper-data="{&quot;wickUUID&quot;:&quot;5598b286-25a4-4afe-b2e2-3b2dd029886d&quot;,&quot;wickType&quot;:&quot;path&quot;,&quot;originalStyle&quot;:{&quot;strokeColor&quot;:null,&quot;fillColor&quot;:[&quot;Color&quot;,1,1,1],&quot;strokeWidth&quot;:1}}" id="5598b286-25a4-4afe-b2e2-3b2dd029886d"/><path d="M124.89852,67.99899c-0.535,0.36 -1.018,0.992 -1.261,1.65c-0.216,0.587 -0.631,1.334 -0.921,1.659c-0.29,0.326 -1.139,1.572 -1.888,2.77c-1.504,2.407 -1.728,3.526 -0.946,4.72c1.182,1.803 3.671,1.74 5.024,-0.127c0.824,-1.138 0.83,-1.135 1.367,0.663c0.211,0.705 0.973,2.754 1.693,4.554c0.721,1.799 1.311,3.356 1.311,3.46c0,0.103 -1.629,0.163 -3.619,0.133c-2.78,-0.042 -3.789,0.033 -4.353,0.325c-0.775,0.4 -1.512,1.554 -1.512,2.367c0,0.268 -0.287,0.615 -0.643,0.777c-0.917,0.418 -1.519,1.808 -1.297,2.993c0.4,2.131 2.191,2.803 7.493,2.813c1.997,0.004 3.693,0.069 3.769,0.145c0.076,0.075 0.38,1.493 0.677,3.15c0.297,1.657 0.753,3.383 1.013,3.835c0.261,0.453 0.552,1.422 0.648,2.153c0.24,1.83 1.345,3.522 2.565,3.924c1.32,0.436 3.978,0.119 5.047,-0.602c1.845,-1.243 2.565,-3.516 2.031,-6.408c-0.728,-3.934 -1.733,-6.811 -6.242,-17.854c-2.451,-6.004 -4.092,-10.765 -4.8,-13.93c-0.34,-1.519 -1.383,-2.943 -2.495,-3.407c-1.153,-0.482 -1.662,-0.437 -2.661,0.237z" data-paper-data="{&quot;wickUUID&quot;:&quot;8458117b-2f49-4aeb-913c-7063e6a69571&quot;,&quot;wickType&quot;:&quot;path&quot;,&quot;originalStyle&quot;:{&quot;strokeColor&quot;:null,&quot;fillColor&quot;:[&quot;Color&quot;,1,1,1],&quot;strokeWidth&quot;:1}}" id="8458117b-2f49-4aeb-913c-7063e6a69571"/><path d="M145.72868,62.28303c-1.337,0.321 -1.999,1.136 -2.465,3.038c-0.23,0.94 -0.604,2.239 -0.831,2.887c-0.845,2.414 -0.265,3.37 3.852,6.347c1.239,0.896 2.313,1.785 2.387,1.977c0.235,0.614 -4.272,12.436 -5.515,14.464c-1.555,2.539 0.164,4.533 4.729,5.488c2.856,0.597 4.101,0.289 5.487,-1.357c0.547,-0.651 1.513,-1.801 2.145,-2.557c0.759,-0.907 1.598,-2.431 2.469,-4.486c1.338,-3.157 3.265,-7.388 5.269,-11.57c0.608,-1.269 1.742,-3.277 2.52,-4.462c1.632,-2.489 1.835,-3.155 1.426,-4.673c-0.526,-1.954 -2.961,-3.614 -6.51,-4.437c-3.382,-0.784 -5.423,0.112 -6.533,2.868l-0.335,0.83l-0.769,-0.446c-0.424,-0.245 -1.454,-1.051 -2.289,-1.792c-2.437,-2.161 -3.316,-2.531 -5.037,-2.119z" data-paper-data="{&quot;wickUUID&quot;:&quot;c4e936a3-ed45-4f46-9150-cb4394d8a80c&quot;,&quot;wickType&quot;:&quot;path&quot;,&quot;originalStyle&quot;:{&quot;strokeColor&quot;:null,&quot;fillColor&quot;:[&quot;Color&quot;,1,1,1],&quot;strokeWidth&quot;:1}}" id="c4e936a3-ed45-4f46-9150-cb4394d8a80c"/></g><g fill="none" fill-rule="nonzero" stroke="none" stroke-width="1" stroke-linecap="butt" stroke-linejoin="miter" stroke-miterlimit="10" stroke-dasharray="" stroke-dashoffset="0" font-family="sans-serif" font-weight="normal" font-size="12" text-anchor="start" style="mix-blend-mode: normal"/><g id="wick_project_gui" fill="none" fill-rule="nonzero" stroke="none" stroke-width="1" stroke-linecap="butt" stroke-linejoin="miter" stroke-miterlimit="10" stroke-dasharray="" stroke-dashoffset="0" font-family="sans-serif" font-weight="normal" font-size="12" text-anchor="start" style="mix-blend-mode: normal"/></g></svg>